<svg xmlns="http://www.w3.org/2000/svg" viewBox="0 0 720 500" class="map cartogram">
  <path d="M398 361h42v42h-42zM11 18h24v24H11zM147 308h46v46h-46zM314 322h34v34h-34zM11 234h104v104H11zM198 261h42v42h-42zM634 137h37v37h-37zM580 224h24v24h-24zM551 224h24v24h-24zM470 422h76v76h-76zM445 361h56v56h-56zM11 403h28v28H11zM127 198h28v28h-28zM276 195h63v63h-63zM344 195h46v46h-46zM237 183h34v34h-34zM261 263h34v34h-34zM381 265h40v40h-40zM314 361h40v40h-40z"/>
  <g class="me">
    <path d="M683 18h14v14h-14zM699 18h14v14h-14zM683 34h14v14h-14zM699 34h14v14h-14z"/>
  </g>
  <path d="M528 175h44v44h-44zM634 86h46v46h-46zM365 134h56v56h-56zM227 134h44v44h-44zM359 361h34v34h-34zM314 273h44v44h-44zM144 134h24v24h-24z"/>
  <g class="ne">
    <path d="M225 222h14v14h-14zM241 222h14v14h-14zM257 222h14v14h-14zM241 238h14v14h-14zM257 238h14v14h-14z"/>
  </g>
  <path d="M120 269h34v34h-34zM663 53h28v28h-28zM577 167h52v52h-52zM198 308h31v31h-31zM553 86h76v76h-76zM492 279h54v54h-54zM198 134h24v24h-24zM395 195h60v60h-60zM258 302h37v37h-37zM77 189h37v37H77zM460 156h63v63h-63zM676 137h28v28h-28zM445 314h42v42h-42zM198 163h24v24h-24zM375 310h46v46h-46zM222 344h87v87h-87zM159 269h34v34h-34zM634 57h24v24h-24zM496 224h50v50h-50zM66 134h48v48H66zM460 224h31v31h-31zM276 146h44v44h-44zM169 202h24v24h-24z"/>
</svg>
