<svg xmlns="http://www.w3.org/2000/svg" viewBox="0 0 800 555" class="map geo">
  <g class="ma">
    <path data-postal="MA" d="M768 145l2 2-4 1 2-3zm-10-25l1 3 3 2-3 1-1 6 4-1 3 3 2 5 4 1 3-2 2 1-6 3-3 3-1-4-3 3v1l-2 2-2-3-1-1-2-1-1-4-6 2h-2l-13 3-8 2-1-1 1-13 11-2 15-4 5-5h1z"/>
  </g>
  <g class="mn">
    <path data-postal="MN" d="M395 50h26v-7h3l2 1 1 7v2l2 2h3l1 1h5l1 3 4-1 3-2h3l5 2 1 1 2 4 1-1 4-1 1 2 2 1 1 2 4 1 2-1 4-3 2 2h3l5-1 2 2h3l1 1-5 3-5 2-4 2-2 3-7 7-7 7-2 2v11l-1 1-4 3-3 3v3h2l1 2-1 3v5l1 2-1 4 3 2 3 1 1 2h3l2 2 2 3 2 2 3 1 2 2 1 3v5l-22 1h-50l1-34-2-2h-2l-2-4 3-3 1-3v-8l-2-2-1-4V78l-1-3-1-3-2-7v-7l1-2-2-6z"/>
  </g>
  <g class="mt">
    <path data-postal="MT" d="M233 37l21 3 22 2 14 2 18 2-5 57-1 18-21-2-21-2-27-4-25-3-2 9-2-2v-3h-2l-2 3-2-1h-5l-2-1-2 2-5-2-2 1-2-1v-3l-1-4h-2l-2-3 1-1-1-2-2-4v-6l-1-2-3 2-3 1-3-2 2-3-1-1 3-2-1-3 1-4 3-5v-3l-3 1v-2l-4-3 1-1-4-7-1-1-2-1-1-4v-4l-3-7 4-18 19 4 11 2 17 3 11 2 18 3z"/>
  </g>
  <g class="nd">
    <path data-postal="ND" d="M342 48l20 1h14l19 1 2 6-1 2v7l2 7 1 3 1 3v16l1 4 2 2v8h-18l-19-1-19-1-21-1-23-2 5-57 15 1 19 1z"/>
  </g>
  <g class="hi">
    <path data-postal="HI" d="M255 468l5 1 4 4 1 3h1l1 2 2 2-3 3-4 2-1-1-4 3-2 3-1 1-4-2v-6l-2-5-1-2 2-3 2-3-1-2v-3l3 1 2 2zm-23-12h-2v-3l3 1-1 2zm5-5l2 2 4-1 3 3h2v2l-5 2h-2l-1-3-3-1-1-2 1-2zm-11-4l6 1v2l-3-1-4 1 1-3zm-12-7l1 3 4 2-3 1-2-1-3 1-3-4v-2h2l2-2 2 2zm-26-12l2 1-1 4-2 1h-3l-3-2v-1l1-2 3-2 3 1z"/>
  </g>
  <g class="id">
    <path data-postal="ID" d="M145 20l12 3-4 18 3 7v4l1 4 2 1 1 1 4 7-1 1 4 3v2l3-1v3l-3 5-1 4 1 3-3 2 1 1-2 3 3 2 3-1 3-2 1 2v6l2 4 1 2-1 1 2 3h2l1 4v3l2 1 2-1 5 2 2-2 2 1h5l2 1 2-3h2v3l2 2-7 48-19-4-23-4-23-4-18-4 7-34 4-7-1-2-3-1 1-3 4-5 3-3v-2l2-2 2-3 3-4v-3l-3-2-1-4v-2l1-1-1-4 7-31 4-18z"/>
  </g>
  <g class="wa">
    <path data-postal="WA" d="M73 14l-1 3h-2l2-3h1zm1-12l18 5 24 6 14 4 15 3-4 18-7 31 1 4-1 1v2l-27-6h-2l-6-1-1 1h-4l-4 1-3-1-2-1-4 1h-3l-2-3-7-2-2 1-4 1-6-4 1-6-1-3-3-2h-2l-1-3-3-1h-3v-3l2-2 1-4-2-1 2-4-2-2 1-3-1-3 1-7-2-4 1-5 1-3h2l5 5 4 2 6 2h2l1 2 2 1 1 3 1 1v3h-2l1 4-2 3-4 2 1 2 6-4 1-5v-2l2-3 2-1-1-3v-3l-1-2 2-3V7h-2V2z"/>
  </g>
  <g class="az">
    <path data-postal="AZ" d="M110 336l3-3h3l1-3 1-2-4-2 1-3v-4h2l2-2 1-3v-4l3-3 5-2v-1l-3-3v-2l-1-4-2-3 1-2v-3l1-1 1-3-1-3 1-7v-4l3-1 3 1 1 3h2l2-4 3-14 23 4 19 3 21 3 12 2-15 108-15-2-17-3h-1l-19-11-24-14-13-8z"/>
  </g>
  <g class="ca">
    <path data-postal="CA" d="M56 305l3 2-2 1-1-3zm-20-16v2h-2l-1-2h3zm77 44l-18-2-21-3v-3l-1-1 1-3v-5l-2-4-4-5-2-3-2-2-4-3-1-4-4-1-2-1-4-3v-2l-3-3-2-2h-4l-3-3h-6l-2-4 2-2v-4l1-4-3-3 1-3-2-1-1-4-2-1v-3l-1-2v-2l-5-8 1-3 3-3 1-3-2-3-3-1-2-5 1-3-1-4 1-5h2l-1 5 3 1-1-9 3-1-2-2-2 1-2 5-4-6v-4l-1-4-1-2-2-4-2-4-1-2 1-2v-6l2-3v-6l-2-6-2-4v-4l3-4h1l3-5 1-3 2-4 1-9v-2l22 6 18 5 18 5-15 56 13 19 8 12 9 13 14 21 12 18 7 10-1 2 2 3 1 4v2l3 3v1l-5 2-3 3v4l-1 3-2 2h-2v4l-1 3 4 2-1 2-1 3h-3z"/>
  </g>
  <g class="co">
    <path data-postal="CO" d="M323 219l-4 58-14-1-20-2-29-3-20-2-22-3 10-76 25 3 27 3 19 2 29 2-1 19z"/>
  </g>
  <g class="nv">
    <path data-postal="NV" d="M116 151l18 4 23 4-18 95-3 14-2 4h-2l-1-3-3-1-3 1v4l-1 7 1 3-1 3-1 1v3l-7-10-12-18-14-21-9-13-8-12-13-19 15-56 18 4 23 6z"/>
  </g>
  <g class="nm">
    <path data-postal="NM" d="M241 371l-28-4-1 9-13-2 15-108 22 3 20 2 29 3 20 2-1 9-1 1-6 85-29-2-29-3v3l2 2z"/>
  </g>
  <g class="or">
    <path data-postal="OR" d="M134 76l1 4 3 2v3l-3 4-2 3-2 2v2l-3 3-4 5-1 3 3 1 1 2-4 7-7 34-23-6-18-4-18-5-18-5-22-6-1-3v-4l2-5 1-1-1-4 2-3 3-6 2-1 4-8 5-13 1-4 3-5 2-6 2-3v-2l2-6 1-1h5l1 2h3l3 2 1 3-1 6 6 4 4-1 2-1 7 2 2 3h3l4-1 2 1 3 1 4-1h4l1-1 6 1h2l27 6z"/>
  </g>
  <g class="ut">
    <path data-postal="UT" d="M157 159l23 4 19 4-3 19 28 4-10 76-12-2-21-3-19-3-23-4 18-95z"/>
  </g>
  <g class="wy">
    <path data-postal="WY" d="M206 119l2-9 25 3 27 4 21 2 21 2-3 38-4 39-19-2-27-3-25-3-28-4 3-19 7-48z"/>
  </g>
  <g class="ar">
    <path data-postal="AR" d="M507 296l1 1-1 2-3 2 1 4h-2l-1 3v4l-3 3 1 2-3 2-2 4v4l-3 3-1 5h-3l1 4-2 2v1l-1 2 2 1-1 3 1 1 1 3-1 2-12 1-20 1h-14v-10l-4-1-2 1-1-2v-34l-3-21h12l25-1 17-1h14l1 2v2l-4 4v2l10-1z"/>
  </g>
  <g class="ia">
    <path data-postal="IA" d="M404 154h50l22-1 1 2 2 2-1 2 1 5 1 3 5 2 1 2 2 3 1 2 4 3v5l-2 2v3l-5 3h-4l-1 1v4l2 2v3l-2 2-1 3-3 2v4l-4-3-1-1h-3l-16 1-20 1-19-1-1-2v-1l-1-11v-2l-3-2 1-5-2-3-1-2-1-3-1-5-1-1-1-2-1-2 1-2 1-5-1-2v-3l1-3z"/>
  </g>
  <g class="ks">
    <path data-postal="KS" d="M319 277l4-58 18 1 28 1 24 1h28l1 2h3l2 1-2 3-1 3 3 3 1 3 3 2 1 40-28 1-18-1h-17l-25-1-25-1z"/>
  </g>
  <g class="mo">
    <path data-postal="MO" d="M507 296l-10 1v-2l4-4v-2l-1-2h-14l-17 1-25 1h-12v-10l-1-40-3-2-1-3-3-3 1-3 2-3-2-1h-3l-1-2-5-7-2-5 19 1 20-1 16-1h3l1 1 4 3-1 4 1 6 1 3 4 3 1 1 4 3 1 2 1 4 2 2 2-2 4 2v4l-3 7 1 2 4 3 3 1 3 2 2 3 1 2 1 3-1 3 4 5 1-1 2 1v5l-2 3-1-1-1 3h-2v2l-2 3 1 2-1 3z"/>
  </g>
  <g class="ok">
    <path data-postal="OK" d="M305 276l14 1 25 1 25 1h17l18 1 28-1v10l3 21v34l-7-2-1-2-4-2-2 2-3-1-1-1-3 2-2-1-4 2-1 1-4-1-3-2v1h-3l-1-2-2 3h-2v-2l-3 1-3-1-2-2-2 2h-2v-2l-2-1v-2h-4l-3 1-1-1h-2l-4-1-4-1-1-3h-6l-3-4h-2l2-37-28-1-18-2 1-9z"/>
  </g>
  <g class="sd">
    <path data-postal="SD" d="M403 108l-1 3-3 3 2 4h2l2 2-1 34-1 3v3l1 2-1 5-1 2 1 2 1 2h-2l-1-3-2-1-4-1-3-2-5 1-2-1-2 2-4-2-3-2-16-1-26-1-21-2-14-1 3-38 1-18 23 2 21 1 19 1 19 1h18z"/>
  </g>
  <g class="la">
    <path data-postal="LA" d="M481 422l-4-1 1-2 4 1-1 2zm-39-66h14l20-1 12-1 1 2-1 1v5l1 3 3 2-2 5-3 4-1 1-1 2v3l-2 2 1 1-1 3h-1l1 4-1 1 15-1 16-1-1 7 1 2 2 2 2 4 1 1h-3l-2-1h-3l-1-2h-3l-3 3v1l1 2h5l3-2 1 1v2l2 2 2-2 2-2v4l-3 5v2l6 2h2l3 4-2 2-4-1-1-2-5-2-3-2-3-1 1 3-1 2 1 2-3 1v-3h-6l-2 3-9-2-1-1 1-2-1-1-4-1-1-2-2-2h-3l-2-1-2 1v3l-2 2-7-1-6-3h-12l-1 1-1-2 1-1v-2l1-2v-6l1-4 1-4 1-5-3-5 1-1-3-4v-2l-1-3-3-3v-19z"/>
  </g>
  <g class="tx">
    <path data-postal="TX" d="M393 454l2-4 1 1-3 3zm-47 1l-1-2-2-3-1-2-4-3-1-6-2-4-2-2-1-4-2-3-3-3-1-2h-1l-1-3h-3v-2l-9-2h-3l-3-2-2 3h-4l-2 3-2 4-1 3h-1l-3 4-3-1-3-2v-1l-3-1-1-2-5-1-3-4h-1l-3-3-1-2-1-4v-4l-2-5v-2l-2-3-4-3-2-1-2-3-1-1-3-3-3-4-2-2-2-2-1-3-2-1-2-2v-3l29 3 29 2 6-85 1-1 18 2 28 1-2 37h2l3 4h6l1 3 4 1 4 1h2l1 1 3-1h4v2l2 1v2h2l2-2 2 2 3 1 3-1v2h2l2-3 1 2h3v-1l3 2 4 1 1-1 4-2 2 1 3-2 1 1 3 1 2-2 4 2 1 2 7 2 1 2 2-1 4 1v29l3 3 1 3v2l3 4-1 1 3 5-1 5-1 4-1 4v6l-1 2h-1l-1 4 1 2h-3l-10 4-2-1 1-3-2-2-1 2-2-1v4l2 3-3 3-1 1v2l-4 3-4 2-3 1-7 3-2-1h-4v1l3 3-4 2-2-2-1 3-2 3-1-2-3 1 2 2-2 4-2-1-2 1 2 3-3 7-1-2-2 2v1h3l-1 4-1 1v3l1 1 1 5v2l1 1 1 4 1 3-3 2-5-3-2-1h-7l-2-2-4-2-1 1-3-3-5-1-2-9-4-3 1-3-1-3v-4l-3-2-2-2z"/>
  </g>
  <g class="ct">
    <path data-postal="CT" d="M726 145l8-2 13-3h2l3 9v4h-1l-5 2-7 2-5 3-6 5-1-2 3-3-2-1-2-14z"/>
  </g>
  <g class="nh">
    <path data-postal="NH" d="M738 83l1-5 1-1 3-1 10 32 1 3 2 2 2 3v4h-1l-5 5-15 4-2-3v-8l-1-4v-4l1-2 1-7-1-3 4-4 1-3-2-2 1-4-1-2z"/>
  </g>
  <g class="ri">
    <path data-postal="RI" d="M749 140l6-2 1 4 2 1h-1l-1 4 1 2-1 2-4 2v-4l-3-9z"/>
  </g>
  <g class="vt">
    <path data-postal="VT" d="M714 89l24-6 1 2-1 4 2 2-1 3-4 4 1 3-1 7-1 2v4l1 4v8l2 3-11 2-4-15-3-1 1-2-3-6v-8l-1-2-1-4-1-4z"/>
  </g>
  <g class="al">
    <path data-postal="AL" d="M572 310l11 38 2 6 3 3v2l1 1-2 3v2l-1 4 2 5v5l2 5-26 3-16 2v2l4 4v4l-3 4-3-1-2-2-1-4h-2v6h-5l-4-29 1-29 1-29-2-2 10-1 13-1 17-1z"/>
  </g>
  <g class="fl">
    <path data-postal="FL" d="M552 398v-3l-4-4v-2l16-2 26-3 3 5h16l27-2 2 3h2v-4l-1-3 2-2 3 1h4l1 1v3l6 13 1 4 6 9 7 7-3 1v-2l-2-1 3 6 1 3 8 11 1 2 4 7 2 3 1 3 1 4v13l-2 5v3l1 2-2 3h-2l-2 2h-3l-4 2-2-2v-3l-4-7-1-1-5-2-3-1-2-7-3-1-1-3v-3l-2-1-1 2h-2l-5-8-1-2-1-2 3-6-4-3v6l-3-2v-7l1-5-1-9-2-2-2-3-3 1-4-4-3-2-1-3h-2l-3-4-6-3-4 1-2 2 1 2h-2l-6 4-7 2-1-4-6-4-1-2-2 1-4-1-5-1 1-3-3 1-3 1h-4l-2-1-2 1-2 3h-2l1-2-1-1z"/>
  </g>
  <g class="ga">
    <path data-postal="GA" d="M590 384l-2-5v-5l-2-5 1-4v-2l2-3-1-1v-2l-3-3-2-6-11-38 20-3 19-2-3 3v3l5 3h3l3 5 3 4 5 3 2 2 4 3v2l2 1 2 3 4 1v2l3 3v3l3 2 2 3v2l2 2 3 1h1l-3 5-2 1-1 3-1 4 2 2-3 6 1 5h-4l-3-1-2 2 1 3v4h-2l-2-3-27 2h-16l-3-5z"/>
  </g>
  <g class="ms">
    <path data-postal="MS" d="M488 354l1-2-1-3-1-1 1-3-2-1 1-2v-1l2-2-1-4h3l1-5 3-3v-4l2-4 3-2-1-2 16-1 17-1 2 2-1 29-1 29 4 29-1 1h-5l-3-2-1 1-5 2-3 3-1-1-2-4-2-2-1-2 1-7-16 1-15 1 1-1-1-4h1l1-3-1-1 2-2v-3l1-2 1-1 3-4 2-5-3-2-1-3v-5l1-1-1-2z"/>
  </g>
  <g class="sc">
    <path data-postal="SC" d="M654 356l-3-1-2-2v-2l-2-3-3-2v-3l-3-3v-2l-4-1-2-3-2-1v-2l-4-3-2-2-5-3-3-4-3-5h-3l-5-3v-3l3-3 8-5 4-1 18-2h3l2 3 1 2 17-2 20 14-2 3-3 3-2 5v4l-3 4-3 1v2l-3 3-2 3-6 4v2l-3 4-3 4z"/>
  </g>
  <g class="il">
    <path data-postal="IL" d="M477 213v-4l3-2 1-3 2-2v-3l-2-2v-4l1-1h4l5-3v-3l2-2v-5l-4-3-1-2-2-3 27-1 13-1v4l2 4 2 5 1 1 4 46-2 1v3l2 3 1 4-1 2v3l-3 4-2 1 1 2-2 2 1 5-2 3 1 4-5 1v3l1 2-1 2-6-3-2 1-2 3 1 1-2-1-1 1-4-5 1-3-1-3-1-2-2-3-3-2-3-1-4-3-1-2 3-7v-4l-4-2-2 2-2-2-1-4-1-2-4-3-1-1-4-3-1-3-1-6 1-4z"/>
  </g>
  <g class="in">
    <path data-postal="IN" d="M530 259l-1-5 2-2-1-2 2-1 3-4v-3l1-2-1-4-2-3v-3l2-1-4-46 3 2 4-2 2-1 29-3v1l1 7 5 43 1 3v2l-3 1-3 2-1-1-2 1v3l-2 3-1 2-2 1-1 1v3l-2 2-6-2-1 2v2h-3l-1-1-3 2-1 2-5-2-6 1-2 2h-1z"/>
  </g>
  <g class="ky">
    <path data-postal="KY" d="M511 286l1-3 1 1 2-3v-5l-1-1 2-3 2-1 6 3 1-2-1-2v-3l5-1-1-4 2-3h1l2-2 6-1 5 2 1-2 3-2 1 1h3v-2l1-2 6 2 2-2v-3l1-1 2-1 1-2 2-3v-3l2-1 1 1 3-2 3-1v-2l-1-3h3l2-1 2 1 3 4h5l2 2 3-1 3 1 3-1 1-2h2l1 3h2l2 2 1 3-1 2 7 9 3 2h2l-5 5-4 3-1 3-2 1v2l-3 1v2l-8 4-1 1-21 1-5 1-9 1h-8l-19 2h-4l1 3-21 2z"/>
  </g>
  <g class="nc">
    <path data-postal="NC" d="M714 256h1l-1 1-1-1h1zm-103 49l-19 2v-4l3-1 1-4 1-2 3-1 3-1 6-5h1l2-3 3-3 2 1 2-2 2-2 2 1 2-4 3-2v-4l7-1 17-2 24-4 9-2 28-6 2 3 2 4h-3l-2 2-3 1-1 2h-3v2l5-1 3-2h2l1 2 2-2 2 2 1 4-2 1-3 5-2 1-5-1 2 2v6h3l1 1-2 3-2 2h-4l-4 3-1 1-4 3-2 2-2 4v5l-1 2h-4l-5 1-20-14-17 2-1-2-2-3h-3l-18 2-4 1-8 5z"/>
  </g>
  <g class="oh">
    <path data-postal="OH" d="M575 230l-5-43-1-7 19-3h2l4 1 2 3h2l3-1 1 1 7-3h2l3-1 4-4 4-3 7-4 4 25-2 2 1 2 1 3-2 5 1 2-1 3v3l-5 6-2 1-1-1-1 2-2 3v5h-1l-3-1-2 4-1 7-4 1-2-2h-2l-1-3h-2l-1 2-3 1-3-1-3 1-2-2h-5l-3-4-2-1-2 1h-3z"/>
  </g>
  <g class="tn">
    <path data-postal="TN" d="M499 315l3-3v-4l1-3h2l-1-4 3-2 1-2-1-1 1-3-1-2 2-3v-2h2l21-2-1-3h4l19-2h8l9-1 5-1 21-1 1-1 26-3 4-1v4l-3 2-2 4-2-1-2 2-2 2-2-1-3 3-2 3h-1l-6 5-3 1-3 1-1 2-1 4-3 1v4l-20 3-17 1-13 1-10 1-17 1-16 1z"/>
  </g>
  <g class="va">
    <path data-postal="VA" d="M713 229l4-2-1 4-4 10-2 1 1-5-1-1 2-3 1-4zm-115 46l8-4v-2l3-1v-2l2-1 1-3 4-3 5-5 1 3 2 1 3 1h1l3-3 2 2 4-2 6-4h1l2-2 1-2-1-1v-3l3-4v-3l2-3 1-6 2 2h4l3-8h2l1-3h1l3-5v-6l8 5 1-4 4 1v2l4 1 3 2 1 4-2 1-1 4 2 3 3-1 3 2h4l2 2 4 2v7l2 1-1 4 2 2 1 3h4l4 7h-1l-1-3h-1l1 3h-1l-28 6-9 2-24 4-17 2-7 1-4 1-26 3z"/>
  </g>
  <g class="wi">
    <path data-postal="WI" d="M531 114v3l-2 7-2-2 2-5 2-3zm-55 39v-5l-1-3-2-2-3-1-2-2-2-3-2-2h-3l-1-2-3-1-3-2 1-4-1-2v-5l1-3-1-2h-2v-3l3-3 4-3 1-1V93l2-2 2 1h2l5-2 2-2 2 1 2-2 3 1-2 2v3l2-1 2 1h2l3 2 2 3 13 3 4 1h4l6 2 1 2 2 1 1 1 1 4-1 2h3l-1 3 2 2v2l-3 1-1 4-1 3 4-2 1-3 2-1 2 1-1 6-1 4 1 1-2 3-1 3 1 4-2 9v5l2 4 1 6-13 1-27 1-1-2-5-2-1-3-1-5 1-2-2-2-1-2z"/>
  </g>
  <g class="wv">
    <path data-postal="WV" d="M621 254h-2l-3-2-7-9 1-2-1-3 4-1 1-7 2-4 3 1h1v-5l2-3 1-2 1 1 2-1 5-6v-3l1-3-1-2 2-5-1-3-1-2 2-2 3 18 15-3 1 10 4-4 1-2h2l3-3h4v-2h2l2-2 6 3 1 3-1 4-8-5v6l-3 5h-1l-1 3h-2l-3 8h-4l-2-2-1 6-2 3v3l-3 4v3l1 1-1 2-2 2h-1l-6 4-4 2-2-2-3 3h-1l-3-1-2-1-1-3z"/>
  </g>
  <g class="de">
    <path data-postal="DE" d="M708 193l-1 4v3l3 2 2 5 4 4h2l2 6h-1v1l-9 1-6-23 2-3h2z"/>
  </g>
  <g class="dc">
    <path data-postal="DC" d="M688 215v-2l3 2-2 2-1-2z"/>
  </g>
  <g class="md">
    <path data-postal="MD" d="M717 227l-4 2h-4l1-3-2-2-2 1-3-2-2-2 2-4-3-1 2-3-1-5h-2l1-3h-4v3l2 3-2 5 2 5 2 2v1l2 3-1 1-3-1h-2l-3-1-2-3-3 3-1-3 2-4v-2l2-2-3-2v2l-3-2-4-1v-2l-4-1-1-3-6-3-2 2h-2v2h-4l-3 3h-2l-1 2-4 4-1-10 15-2 13-3 25-5 6 23 9-1v4h-1l-1 5z"/>
  </g>
  <g class="nj">
    <path data-postal="NJ" d="M713 188l4-4-8-6-1-3 1-3-1-2 2-4v-2l2-2 13 4-1 6-2 2v3h3l2 2v6h-1l1 6-2 4-3 7-1 3-1 3h-1v-4l-2-1-2 1-7-4v-6l4-3 1-3z"/>
  </g>
  <g class="ny">
    <path data-postal="NY" d="M747 158l-2 2 1 1 3-2 1 1-4 3-2 2h-2l-3 2-4 2-6 4-2-1-2 2-1-1 2-3 4-4 5-1 1-1 5-1 2-1 3-4h1zm-63-52l1-2 5-6 4-4h2l18-5 1 4 1 4 1 2v8l3 6-1 2 3 1 4 15-1 13 1 1 2 14 2 1-3 3 1 2-1 4-2 1v-4l-13-4-1-2-2 1-3-3-1-4-4-2-18 3-21 5-23 4-1-5 4-4 1-1 3-3 3-5-2-3v-2h-2v-3l4-3 4-1 4-1h5l3 1 3-1 5-1 3-1 1-2 3-3 2-1v-2l-2-4 2-1-1-2-3-1 4-4 3-4-1-1z"/>
  </g>
  <g class="pa">
    <path data-postal="PA" d="M633 191l-4-25 2-1 7-6 1 5 23-4 21-5 18-3 4 2 1 4 3 3 2-1 1 2-2 2v2l-2 4 1 2-1 3 1 3 8 6-4 4-1 3-4 2h-2l-2 3-25 5-13 3-15 2-15 3-3-18z"/>
  </g>
  <g class="mi">
    <path data-postal="MI" d="M599 150v8l-3-1-2 3v3l-2 1-1 3v4l-1 1-2 5-19 3v-1l-29 3 3-4 3-6 1-5v-9l-1-3-5-9 1-4v-3l-1-2 1-2 1-4v-6l2-1v-4l3-1 1-2h2l3 2v-3l-1-3 1-1 4-3-1-2v-2l1-2 2-1 5 2h3l2 2 8 2 4 4-2 3 2 1 1 4v7l-2 2-1 4-3 1-1 3 1 3 3 1 5-7 5-3 3 3 1 2 3 10 2 4zm-23-56l1 2-1 1h-3l3-3zm-13-5v-1l5-1-2 3 1 2 3 2v3h-9l-1 3-3-2-5-1h-2l-2 2-8 2-1 3-2 1-3-2-1 3-4 1-2 5-3 5v2l-2-2 1-3h-3l1-2-1-4-1-1-2-1-1-2-6-2h-4l-4-1-13-3-2-3-3-2 6-2 2-3 5-1 4-3h2l1-2 2-2 2 1 3 5 2-1h5l3 2 4 5 5-1 1 1 2-1 2 1 1-2 5-3 3-1h5l4-2h2v4l3 1 2-1 3 1zm-45-14h-2l-4 5-2 4-3-5 2-2 5-3h3l1 1zm-11-13l-2 3-3 1-2 3-2-2 8-5h1z"/>
  </g>
  <g class="ak">
    <path data-postal="AK" d="M22 490l2 3h-4l2-3zm14-4l1 2-6 1 2-3h3zm130-7l1 1v4l-3-1v-4h2zm-10-1h1l1 2 3 1 1 2 2 1 1 3h-3v-1l-3-1v-2l-2-4-1-1zm-2-5l3 1v3h-2l-1-4zm-7-1h2l2 4-1 2-2-2-1-4zm-66 0l2 1-1 4h-2l-3 4-2-2-1-3 4-3 3-1zm64-5l3 1 2 3-5 1-2-2v-2l2-1zm3-2l1 1h2v1l2 3h-3l-2-5zm-65 4l2 2-3 1-2-1 3-2zm-45-22l1 1v3h-3l-3-3 3-1h2zm-10-29l1 2h3l1 5h-1l-3-4-2 1v-2l1-2zm103 38l6 5 1 2 3-3v-3l3-1 2 2 4 3 3 2 5 6 3 3v1l4 2 5 2v2l2 3-1 3-2 1-1-2-1-4-1-1-1-1-2 1-1-2-7-6-1-2-2-2h-1v-2 1l-2-1h-1l-2-3v2l1 2-3-1-2 2-4-1-3-3-8-4-9-2-4 1-3-3h-4l1-1-3-1-1-2-2 1h-3l1 3-2 3h-3l-4 4-5 2v-2l2-1-2-1 2-3 1-4 2-2v-2l-4 2-2 4-2 3-5 4-1 2 3 1-2 2-1 3-3 1-2 2-4 2v1l-4 3-5 1v2l-5 2h-1l-3 2h-3l-1-2-2 3h-4l-1-1 4-3 2-1 5 1 1-3 7-3 3-3 2-1 2-6 2-3-8 2-2-4-2-1-4 1h-1v-3l1-2-2-4h-4l-4-5v-2l2-1-3-6 2-2v-2l3-2 3-4h1l3 2 4-2h3l1-1 1-6-1-2h-2l-2 1-5-2-2 1-3-2-1-4 2-1-3-2-2-1 3-2 8-2h2v4l5 1 2-3-2-4-3-2v-3l-5-7 2-3h5l3-2 1-3 3-3 3 1 4-3h3l4-3 5 4h4v3l1 1 7-1 5 3h3l2 1 4-1 3 1 3 2 7 66h4l3-1v2z"/>
  </g>
  <g class="ne">
    <path d="M323 219l1-19-29-2 4-39 14 1 21 2 26 1 16 1 3 2 4 2 2-2 2 1 5-1 3 2 4 1 2 1 1 3h2l1 1 1 5 1 3 1 2 2 3-1 5 3 2v2l1 11v1l1 2 2 5 5 7h-28l-24-1-28-1-18-1z" data-postal="NE"/>
    <path d="M346 180h15v15h-15zM363 180h15v15h-15zM380 180h15v15h-15zM363 197h15v15h-15zM380 197h15v15h-15z"/>
  </g>
  <g class="me">
    <path d="M785 84l-2 2v-4l2 2zm-42-8l1-1 2-3v-2l3-4v-1l1-3-1-3-1-2 1-3 1-2-1-5 6-16 2-1 2 3 2 1 4-4 4-2 3 2 3 2 7 20v5l3 1 3-1v2l1 2v2l3 2 1-1 2 1 3 5-2 4-4 3h-3v4l-3 1v-2l-2 1-4 3 1 1h-3l-2-2-2 2 1 2v5l-2 3-1-1-1 3h-2l-1 3-4-1-2 4 1 2-2 1v3l-1 1-1 6h-1l-2-3-2-2-1-3-10-32z" data-postal="ME"/>
    <path d="M760 30h15v15h-15zM778 30h15v15h-15zM760 47h15v15h-15zM778 47h15v15h-15z"/>
  </g>
</svg>
