<?xml version="1.0" encoding="utf-8"?>
<!-- Generator: Adobe Illustrator 19.2.1, SVG Export Plug-In . SVG Version: 6.00 Build 0)  -->
<!DOCTYPE svg PUBLIC "-//W3C//DTD SVG 1.1//EN" "http://www.w3.org/Graphics/SVG/1.1/DTD/svg11.dtd">
<svg version="1.1" id="Layer_1" xmlns="http://www.w3.org/2000/svg" xmlns:xlink="http://www.w3.org/1999/xlink" x="0px" y="0px"
	 viewBox="0 0 730 548" style="enable-background:new 0 0 730 548;" xml:space="preserve">
<style type="text/css">
	.st0{fill:#CCCCCC;}
	.st1{font-family:'ArialMT';}
	.st2{font-size:7px;}
</style>
<g>
	<rect x="397.6" y="360.5" class="st0" width="42" height="42"/>
	<text transform="matrix(1 0 0 1 400.5552 368.5)" class="st1 st2">AL</text>
</g>
<g>
	<rect x="10.6" y="18" class="st0" width="24" height="24"/>
	<text transform="matrix(1 0 0 1 13.5552 26)" class="st1 st2">AK</text>
</g>
<g>
	<rect x="146.6" y="308" class="st0" width="46" height="46"/>
	<text transform="matrix(1 0 0 1 149.5552 316)" class="st1 st2">AZ</text>
</g>
<g>
	<rect x="313.6" y="321.5" class="st0" width="34" height="34"/>
	<text transform="matrix(1 0 0 1 316.5552 329.5)" class="st1 st2">AR</text>
</g>
<g>
	<rect x="10.6" y="233.5" class="st0" width="104" height="104"/>
	<text transform="matrix(1 0 0 1 13.5552 241.5)" class="st1 st2">CA</text>
</g>
<g>
	<rect x="197.6" y="261" class="st0" width="42" height="42"/>
	<text transform="matrix(1 0 0 1 200.5553 269)" class="st1 st2">CO</text>
</g>
<g>
	<rect x="633.6" y="137" class="st0" width="37" height="37"/>
	<text transform="matrix(1 0 0 1 636.5552 145)" class="st1 st2">CT</text>
</g>
<g>
	<rect x="579.6" y="224" class="st0" width="24" height="24"/>
	<text transform="matrix(1 0 0 1 582.5552 232)" class="st1 st2">DE</text>
</g>
<g>
	<rect x="550.6" y="224" class="st0" width="24" height="24"/>
	<text transform="matrix(1 0 0 1 553.5552 232)" class="st1 st2">DC</text>
</g>
<g>
	<rect x="469.6" y="421.5" class="st0" width="76" height="76"/>
	<text transform="matrix(1 0 0 1 472.5552 429.5)" class="st1 st2">FL</text>
</g>
<g>
	<rect x="444.6" y="360.5" class="st0" width="56" height="56"/>
	<text transform="matrix(1 0 0 1 447.5552 368.5)" class="st1 st2">GA</text>
</g>
<g>
	<rect x="10.6" y="403" class="st0" width="28" height="28"/>
	<text transform="matrix(1 0 0 1 13.5552 411)" class="st1 st2">HI</text>
</g>
<g>
	<rect x="127.1" y="200.5" class="st0" width="28" height="28"/>
	<text transform="matrix(1 0 0 1 130.0552 208.5)" class="st1 st2">ID</text>
</g>
<g>
	<rect x="275.6" y="195" class="st0" width="63" height="63"/>
	<text transform="matrix(1 0 0 1 278.5552 203)" class="st1 st2">IL</text>
</g>
<g>
	<rect x="343.6" y="195" class="st0" width="46" height="46"/>
	<text transform="matrix(1 0 0 1 346.5552 203)" class="st1 st2">IN</text>
</g>
<g>
	<rect x="236.6" y="183" class="st0" width="34" height="34"/>
	<text transform="matrix(1 0 0 1 239.5552 191)" class="st1 st2">IA</text>
</g>
<g>
	<rect x="261.1" y="263" class="st0" width="34" height="34"/>
	<text transform="matrix(1 0 0 1 264.0552 271)" class="st1 st2">KS</text>
</g>
<g>
	<rect x="381.1" y="264.5" class="st0" width="40" height="40"/>
	<text transform="matrix(1 0 0 1 384.0552 272.5)" class="st1 st2">KY</text>
</g>
<g>
	<rect x="313.6" y="360.5" class="st0" width="40" height="40"/>
	<text transform="matrix(1 0 0 1 316.5552 368.5)" class="st1 st2">LA</text>
</g>
<g>
	<text transform="matrix(1 0 0 1 716.375 34.8667)" class="st1 st2">ME</text>
	<rect x="683" y="18" class="st0" width="14" height="14"/>
	<rect x="699" y="18" class="st0" width="14" height="14"/>
	<rect x="683" y="34" class="st0" width="14" height="14"/>
	<rect x="699" y="34" class="st0" width="14" height="14"/>
</g>
<g>
	<rect x="527.6" y="175" class="st0" width="44" height="44"/>
	<text transform="matrix(1 0 0 1 530.5552 183)" class="st1 st2">MD</text>
</g>
<g>
	<rect x="633.6" y="86" class="st0" width="46" height="46"/>
	<text transform="matrix(1 0 0 1 636.5552 94)" class="st1 st2">MA</text>
</g>
<g>
	<rect x="365.1" y="134" class="st0" width="56" height="56"/>
	<text transform="matrix(1 0 0 1 368.0552 142)" class="st1 st2">MI</text>
</g>
<g>
	<rect x="226.6" y="134" class="st0" width="44" height="44"/>
	<text transform="matrix(1 0 0 1 229.5552 142)" class="st1 st2">MN</text>
</g>
<g>
	<rect x="358.6" y="360.5" class="st0" width="34" height="34"/>
	<text transform="matrix(1 0 0 1 361.5552 368.5)" class="st1 st2">MS</text>
</g>
<g>
	<rect x="313.6" y="272.5" class="st0" width="44" height="44"/>
	<text transform="matrix(1 0 0 1 316.5552 280.5)" class="st1 st2">MO</text>
</g>
<g>
	<rect x="143.6" y="134" class="st0" width="24" height="24"/>
	<text transform="matrix(1 0 0 1 146.5552 142)" class="st1 st2">MT</text>
</g>
<g>
	<rect x="224.6" y="222" class="st0" width="14" height="14"/>
	<text transform="matrix(1 0 0 1 226.6931 244)" class="st1 st2">NE</text>
	<rect x="240.6" y="222" class="st0" width="14" height="14"/>
	<rect x="256.6" y="222" class="st0" width="14" height="14"/>
	<rect x="240.6" y="238" class="st0" width="14" height="14"/>
	<rect x="256.6" y="238" class="st0" width="14" height="14"/>
</g>
<g>
	<rect x="119.6" y="269" class="st0" width="34" height="34"/>
	<text transform="matrix(1 0 0 1 122.5552 277)" class="st1 st2">NV</text>
</g>
<g>
	<rect x="662.6" y="53" class="st0" width="28" height="28"/>
	<text transform="matrix(1 0 0 1 665.5552 61)" class="st1 st2">NH</text>
</g>
<g>
	<rect x="576.6" y="167" class="st0" width="52" height="52"/>
	<text transform="matrix(1 0 0 1 579.5552 175)" class="st1 st2">NJ</text>
</g>
<g>
	<rect x="197.6" y="308" class="st0" width="31" height="31"/>
	<text transform="matrix(1 0 0 1 200.5552 316)" class="st1 st2">NM</text>
</g>
<g>
	<rect x="552.6" y="86" class="st0" width="76" height="76"/>
	<text transform="matrix(1 0 0 1 555.5552 94)" class="st1 st2">NY</text>
</g>
<g>
	<rect x="491.6" y="279" class="st0" width="54" height="54"/>
	<text transform="matrix(1 0 0 1 494.5552 287)" class="st1 st2">NC</text>
</g>
<g>
	<rect x="197.6" y="134" class="st0" width="24" height="24"/>
	<text transform="matrix(1 0 0 1 200.5552 142)" class="st1 st2">ND</text>
</g>
<g>
	<rect x="394.6" y="195" class="st0" width="60" height="60"/>
	<text transform="matrix(1 0 0 1 397.5552 203)" class="st1 st2">OH</text>
</g>
<g>
	<rect x="258.1" y="302" class="st0" width="37" height="37"/>
	<text transform="matrix(1 0 0 1 261.0552 310)" class="st1 st2">OK</text>
</g>
<g>
	<rect x="76.6" y="191.5" class="st0" width="37" height="37"/>
	<text transform="matrix(1 0 0 1 79.5552 199.5)" class="st1 st2">OR</text>
</g>
<g>
	<rect x="459.6" y="156" class="st0" width="63" height="63"/>
	<text transform="matrix(1 0 0 1 462.5552 164)" class="st1 st2">PA</text>
</g>
<g>
	<rect x="675.6" y="137" class="st0" width="28" height="28"/>
	<text transform="matrix(1 0 0 1 678.5552 145)" class="st1 st2">RI</text>
</g>
<g>
	<rect x="444.6" y="313.5" class="st0" width="42" height="42"/>
	<text transform="matrix(1 0 0 1 447.5552 321.5)" class="st1 st2">SC</text>
</g>
<g>
	<rect x="197.6" y="163" class="st0" width="24" height="24"/>
	<text transform="matrix(1 0 0 1 200.5552 171)" class="st1 st2">SD</text>
</g>
<g>
	<rect x="375.1" y="309.5" class="st0" width="46" height="46"/>
	<text transform="matrix(1 0 0 1 378.0552 317.5)" class="st1 st2">TN</text>
</g>
<g>
	<rect x="221.6" y="344" class="st0" width="87" height="87"/>
	<text transform="matrix(1 0 0 1 224.5552 352)" class="st1 st2">TX</text>
</g>
<g>
	<rect x="158.6" y="269" class="st0" width="34" height="34"/>
	<text transform="matrix(1 0 0 1 161.5552 277)" class="st1 st2">UT</text>
</g>
<g>
	<rect x="633.6" y="57" class="st0" width="24" height="24"/>
	<text transform="matrix(1 0 0 1 636.5552 65)" class="st1 st2">VT</text>
</g>
<g>
	<rect x="495.6" y="224" class="st0" width="50" height="50"/>
	<text transform="matrix(1 0 0 1 498.5552 232)" class="st1 st2">VA</text>
</g>
<g>
	<rect x="65.6" y="134" class="st0" width="48" height="48"/>
	<text transform="matrix(1 0 0 1 68.5552 142)" class="st1 st2">WA</text>
</g>
<g>
	<rect x="459.6" y="224" class="st0" width="31" height="31"/>
	<text transform="matrix(1 0 0 1 462.5552 232)" class="st1 st2">WV</text>
</g>
<g>
	<rect x="275.6" y="146" class="st0" width="44" height="44"/>
	<text transform="matrix(1 0 0 1 278.5552 154)" class="st1 st2">WI</text>
</g>
<g>
	<rect x="168.6" y="204.5" class="st0" width="24" height="24"/>
	<text transform="matrix(1 0 0 1 171.5553 212.5)" class="st1 st2">WY</text>
</g>
</svg>
