<?xml version="1.0" encoding="utf-8"?>
<!-- Generator: Adobe Illustrator 19.2.1, SVG Export Plug-In . SVG Version: 6.00 Build 0)  -->
<!DOCTYPE svg PUBLIC "-//W3C//DTD SVG 1.1//EN" "http://www.w3.org/Graphics/SVG/1.1/DTD/svg11.dtd">
<svg version="1.1" id="Layer_1" xmlns="http://www.w3.org/2000/svg" xmlns:xlink="http://www.w3.org/1999/xlink" x="0px" y="0px"
	 viewBox="0 0 720 500" xml:space="preserve" class="cartogram">

	<a class="al">
		<rect x="397.6" y="360.5" width="42" height="42"/>
		<text>AL</text>
	</a>
	<a class="ak">
		<rect x="10.6" y="18" width="24" height="24"/>
		<text>AK</text>
	</a>
	<a class="az">
		<rect x="146.6" y="308" width="46" height="46"/>
		<text>AZ</text>
	</a>
	<a class="ar">
		<rect x="313.6" y="321.5" width="34" height="34"/>
		<text>AR</text>
	</a>
	<a class="ca">
		<rect x="10.6" y="233.5" width="104" height="104"/>
		<text>CA</text>
	</a>
	<a class="co">
		<rect x="197.6" y="261" width="42" height="42"/>
		<text>CO</text>
	</a>
	<a class="ct">
		<rect x="633.6" y="137" width="37" height="37"/>
		<text>CT</text>
	</a>
	<a class="de">
		<rect x="579.6" y="224" width="24" height="24"/>
		<text>DE</text>
	</a>
	<a class="dc">
		<rect x="550.6" y="224" width="24" height="24"/>
		<text>DC</text>
	</a>
	<a class="fl">
		<rect x="469.6" y="421.5" width="76" height="76"/>
		<text>FL</text>
	</a>
	<a class="ga">
		<rect x="444.6" y="360.5" width="56" height="56"/>
		<text>GA</text>
	</a>
	<a class="hi">
		<rect x="10.6" y="403" width="28" height="28"/>
		<text>HI</text>
	</a>
	<a class="id">
		<rect x="127.1" y="198" width="28" height="28"/>
		<text>ID</text>
	</a>
	<a class="il">
		<rect x="275.6" y="195" width="63" height="63"/>
		<text>IL</text>
	</a>
	<a class="in">
		<rect x="343.6" y="195" width="46" height="46"/>
		<text>IN</text>
	</a>
	<a class="ia">
		<rect x="236.6" y="183" width="34" height="34"/>
		<text>IA</text>
	</a>
	<a class="ks">
		<rect x="261.1" y="263" width="34" height="34"/>
		<text>KS</text>
	</a>
	<a class="ky">
		<rect x="381.1" y="264.5" width="40" height="40"/>
		<text>KY</text>
	</a>
	<a class="la">
		<rect x="313.6" y="360.5" width="40" height="40"/>
		<text>LA</text>
	</a>
	<a class="me">
		<g class="me-1">
			<rect x="683" y="18" width="14" height="14"/>
		</g>
		<g class="me-2">
			<rect x="699" y="18" width="14" height="14"/>
		</g>
		<g class="me-3">
			<rect x="683" y="34" width="14" height="14"/>
		</g>
		<g class="me-4">
			<rect x="699" y="34" width="14" height="14"/>
		</g>
		<text transform="matrix(1 0 0 1 679 38)">ME</text>
	</a>
	<a class="md">
		<rect x="527.6" y="175" width="44" height="44"/>
		<text>MD</text>
	</a>
	<a class="ma">
		<rect x="633.6" y="86" width="46" height="46"/>
		<text>MA</text>
	</a>
	<a class="mi">
		<rect x="365.1" y="134" width="56" height="56"/>
		<text>MI</text>
	</a>
	<a class="mn">
		<rect x="226.6" y="134" width="44" height="44"/>
		<text>MN</text>
	</a>
	<a class="ms">
		<rect x="358.6" y="360.5" width="34" height="34"/>
		<text>MS</text>
	</a>
	<a class="mo">
		<rect x="313.6" y="272.5" width="44" height="44"/>
		<text>MO</text>
	</a>
	<a class="mt">
		<rect x="143.6" y="134" width="24" height="24"/>
		<text>MT</text>
	</a>
	<a class="ne">
		<g class="ne-1">
			<rect x="224.6" y="222" width="14" height="14"/>
		</g>
		<g class="ne-2">
			<rect x="240.6" y="222" width="14" height="14"/>
		</g>
		<g class="ne-3">
			<rect x="256.6" y="222" width="14" height="14"/>
		</g>
		<g class="ne-4">
			<rect x="240.6" y="238" width="14" height="14"/>
		</g>
		<g class="ne-5">
			<rect x="256.6" y="238" width="14" height="14"/>
		</g>
		<text transform="matrix(1 0 0 1 236 250)">NE</text>
	</a>
	<a class="nv">
		<rect x="119.6" y="269" width="34" height="34"/>
		<text>NV</text>
	</a>
	<a class="nh">
		<rect x="662.6" y="53" width="28" height="28"/>
		<text>NH</text>
	</a>
	<a class="nj">
		<rect x="576.6" y="167" width="52" height="52"/>
		<text>NJ</text>
	</a>
	<a class="nm">
		<rect x="197.6" y="308" width="31" height="31"/>
		<text>NM</text>
	</a>
	<a class="ny">
		<rect x="552.6" y="86" width="76" height="76"/>
		<text>NY</text>
	</a>
	<a class="nc">
		<rect x="491.6" y="279" width="54" height="54"/>
		<text>NC</text>
	</a>
	<a class="nd">
		<rect x="197.6" y="134" width="24" height="24"/>
		<text>ND</text>
	</a>
	<a class="oh">
		<rect x="394.6" y="195" width="60" height="60"/>
		<text>OH</text>
	</a>
	<a class="ok">
		<rect x="258.1" y="302" width="37" height="37"/>
		<text>OK</text>
	</a>
	<a class="or">
		<rect x="76.6" y="189" width="37" height="37"/>
		<text>OR</text>
	</a>
	<a class="pa">
		<rect x="459.6" y="156" width="63" height="63"/>
		<text>PA</text>
	</a>
	<a class="ri">
		<rect x="675.6" y="137" width="28" height="28"/>
		<text>RI</text>
	</a>
	<a class="sc">
		<rect x="444.6" y="313.5" width="42" height="42"/>
		<text>SC</text>
	</a>
	<a class="sd">
		<rect x="197.6" y="163" width="24" height="24"/>
		<text>SD</text>
	</a>
	<a class="tn">
		<rect x="375.1" y="309.5" width="46" height="46"/>
		<text>TN</text>
	</a>
	<a class="tx">
		<rect x="221.6" y="344" width="87" height="87"/>
		<text>TX</text>
	</a>
	<a class="ut">
		<rect x="158.6" y="269" width="34" height="34"/>
		<text>UT</text>
	</a>
	<a class="vt">
		<rect x="633.6" y="57" width="24" height="24"/>
		<text>VT</text>
	</a>
	<a class="va">
		<rect x="495.6" y="224" width="50" height="50"/>
		<text>VA</text>
	</a>
	<a class="wa">
		<rect x="65.6" y="134" width="48" height="48"/>
		<text>WA</text>
	</a>
	<a class="wv">
		<rect x="459.6" y="224" width="31" height="31"/>
		<text>WV</text>
	</a>
	<a class="wi">
		<rect x="275.6" y="146" width="44" height="44"/>
		<text>WI</text>
	</a>
	<a class="wy">
		<rect x="168.6" y="202.0" width="24" height="24"/>
		<text>WY</text>
	</a>
</svg>
