<?xml version="1.0" standalone="no"?>
<!DOCTYPE svg PUBLIC "-//W3C//DTD SVG 1.1//EN" "http://www.w3.org/Graphics/SVG/1.1/DTD/svg11.dtd" >
<svg xmlns="http://www.w3.org/2000/svg">
<metadata></metadata>
<defs>
<font id="cooper_hewittmedium" horiz-adv-x="1228" >
<font-face units-per-em="2048" ascent="1536" descent="-512" />
<missing-glyph horiz-adv-x="409" />
<glyph horiz-adv-x="0" />
<glyph horiz-adv-x="682" />
<glyph unicode=" "  horiz-adv-x="409" />
<glyph unicode="&#x09;" horiz-adv-x="409" />
<glyph unicode="&#xa0;" horiz-adv-x="409" />
<glyph unicode="!" horiz-adv-x="479" d="M113 1597h254l-56 -1181h-143zM123 0v233h233v-233h-233z" />
<glyph unicode="&#x22;" horiz-adv-x="772" d="M125 1597h211l-19 -589h-155zM434 1597h213l-39 -589h-153z" />
<glyph unicode="#" d="M61 451v186h205l68 324h-164v186h203l94 450h186l-94 -450h256l94 450h187l-95 -450h166v-186h-204l-68 -324h164v-186h-203l-94 -451h-187l95 451h-256l-95 -451h-186l94 451h-166zM453 637h256l67 324h-256z" />
<glyph unicode="$" d="M115 553v12h209q0 -149 94 -221l94 395q-200 33 -291.5 118.5t-91.5 232.5v16q0 180 132.5 283.5t352.5 103.5q28 0 78 -4l56 231h170l-64 -266q248 -93 248 -410v-30h-209q0 169 -86 243l-90 -374q202 -32 300.5 -117t98.5 -244v-16q0 -187 -128.5 -293.5t-360.5 -106.5 q-17 0 -95 5l-55 -234h-170l66 273q-127 52 -192.5 155.5t-65.5 247.5zM342 1108q0 -81 48 -129.5t163 -71.5l96 406q-10 2 -33 2h-8q-116 0 -191 -53t-75 -144v-10zM573 285q16 -2 50 -2h8q122 0 196 56.5t74 156.5v10q0 87 -53.5 136.5t-171.5 72.5z" />
<glyph unicode="%" horiz-adv-x="1931" d="M70 1235v22q0 174 100.5 269.5t259.5 95.5q81 0 162 -33q76 -31 158 -42t194 -11q109 0 229 22t170 44v-117l-616 -1485h-188l577 1389q-3 0 -24 -4.5t-44.5 -9t-61 -8t-73.5 -3.5q-67 0 -139 10q14 -61 14 -117v-22q0 -173 -100 -268t-258 -95t-259 95t-101 268z M233 1231q0 -90 53.5 -142.5t137.5 -52.5h12q82 0 136.5 52.5t54.5 142.5v33q0 90 -54.5 142t-136.5 52h-12q-84 0 -137.5 -52t-53.5 -142v-33zM1143 340v22q0 173 100 268t258 95t258.5 -95t100.5 -268v-22q0 -174 -100.5 -269.5t-258.5 -95.5t-258 95.5t-100 269.5z M1305 334q0 -90 54 -142.5t136 -52.5h12q82 0 136.5 52.5t54.5 142.5v33q0 90 -54.5 142t-136.5 52h-12q-82 0 -136 -52t-54 -142v-33z" />
<glyph unicode="&#x26;" horiz-adv-x="1374" d="M70 422v20q0 74 19 138t55.5 116t77 91.5t95.5 78.5q-96 109 -138 192.5t-42 196.5v23q0 150 104 247t300 97q194 0 297.5 -97t103.5 -247v-23q0 -44 -10.5 -84.5t-26 -72.5t-44.5 -65t-52.5 -55.5t-64.5 -51.5t-67.5 -45.5t-72.5 -44.5l371 -414q78 156 78 379v8h217v-4 q0 -323 -154 -541l236 -264h-258l-111 123q-183 -148 -451 -148q-217 0 -339.5 119.5t-122.5 327.5zM281 436q0 -128 69.5 -201t206.5 -73h10q166 0 289 102l-416 463q-76 -58 -117.5 -123.5t-41.5 -150.5v-17zM350 1255q0 -76 34 -143t95 -139q63 38 98.5 62.5t76 61t59 75 t18.5 83.5v17q0 73 -48.5 121.5t-135.5 48.5h-15q-86 0 -134 -48.5t-48 -121.5v-17z" />
<glyph unicode="'" horiz-adv-x="479" d="M125 1597h229l-37 -589h-155z" />
<glyph unicode="(" horiz-adv-x="684" d="M94 717v41q0 138 17 259.5t43 213t69.5 183.5t83.5 157.5t99 148.5h219q-76 -110 -127.5 -203t-99.5 -211.5t-71.5 -255t-23.5 -292.5v-41q0 -156 23.5 -293t71 -255.5t99.5 -211.5t128 -203h-219q-58 83 -98.5 148.5t-84 158t-69.5 184t-43 213t-17 259.5z" />
<glyph unicode=")" horiz-adv-x="684" d="M59 -246q76 110 128 203t99.5 211.5t71 255.5t23.5 293v41q0 156 -23.5 292.5t-71.5 255t-99.5 211.5t-127.5 203h220q58 -83 98.5 -148.5t83.5 -157.5t69 -183.5t43 -213t17 -259.5v-41q0 -171 -23 -312.5t-70.5 -259t-95.5 -202t-122 -189.5h-220z" />
<glyph unicode="*" horiz-adv-x="813" d="M16 1307l43 129l273 -101l-35 -108zM125 977l178 227l92 -65l-162 -242zM340 1638h133l-10 -288h-113zM418 1139l92 65l178 -227l-108 -80zM481 1335l273 101l43 -129l-281 -80z" />
<glyph unicode="+" d="M94 705v188h426v426h189v-426h426v-188h-426v-426h-189v426h-426z" />
<glyph unicode="," horiz-adv-x="479" d="M86 -145q71 0 109 34.5t47 110.5h-119v233h233v-184q0 -309 -270 -309v115z" />
<glyph unicode="-" horiz-adv-x="690" d="M82 625v184h526v-184h-526z" />
<glyph unicode="." horiz-adv-x="479" d="M123 0v233h233v-233h-233z" />
<glyph unicode="/" horiz-adv-x="737" d="M31 -246l471 1966h205l-471 -1966h-205z" />
<glyph unicode="0" d="M115 457v684q0 218 124.5 349.5t374.5 131.5t375 -131.5t125 -349.5v-684q0 -218 -125 -350t-375 -132q-127 0 -224 36t-156.5 101.5t-89 152t-29.5 192.5zM326 469q0 -307 282 -307h13q282 0 282 307v659q0 308 -282 308h-13q-282 0 -282 -308v-659z" />
<glyph unicode="1" d="M94 1264l500 340h145v-1416h394v-188h-996v188h393v1145l-331 -225z" />
<glyph unicode="2" d="M106 0v131l664 715q79 84 110 146.5t31 140.5v20q0 133 -78.5 208t-209.5 75h-17q-146 0 -218.5 -88t-72.5 -283h-209v45q0 512 508 512q126 0 224.5 -34t159.5 -93.5t92.5 -137t31.5 -167.5v-29q0 -128 -39.5 -215t-142.5 -196l-524 -564l147 2h559v-188h-1016z" />
<glyph unicode="3" d="M96 487v25h209q0 -180 78.5 -265t220.5 -85h21q126 0 211.5 69t85.5 201v27q0 128 -77.5 196t-205.5 68h-229v184h221q127 0 203.5 63t76.5 187v17q0 120 -78.5 191t-207.5 71h-21q-146 0 -217.5 -88t-71.5 -283h-209v45q0 512 508 512q126 0 225 -34t159.5 -93 t92 -134.5t31.5 -162.5v-35q0 -129 -59.5 -215.5t-161.5 -132.5q106 -45 169 -137t63 -227v-35q0 -89 -35.5 -168.5t-100 -140.5t-164 -96.5t-219.5 -35.5q-259 0 -388.5 133.5t-129.5 378.5z" />
<glyph unicode="4" d="M63 397v144l670 1056h199v-1011h233v-189h-233v-397h-209v397h-660zM295 582l151 4h277v493l4 178z" />
<glyph unicode="5" d="M96 487v25h209q0 -180 78.5 -265t220.5 -85h21q127 0 212 80.5t85 240.5v31q0 161 -86.5 241.5t-219.5 80.5h-16q-99 0 -187.5 -48.5t-127.5 -138.5l-176 60l36 888h967v-188h-786l-23 -481q136 92 320 92q232 0 371 -134t139 -372v-31q0 -240 -140.5 -374t-378.5 -134 q-259 0 -388.5 133.5t-129.5 378.5z" />
<glyph unicode="6" d="M100 547v22q0 432 226 734q125 167 317 243t420 76v-190q-176 0 -323.5 -60.5t-247.5 -189.5q-98 -127 -144 -301q132 125 322 125q212 0 340.5 -131.5t128.5 -372.5v-21q0 -244 -137 -375t-381 -131q-237 0 -379 153t-142 419zM309 532q0 -171 87 -269.5t218 -98.5h13 q138 0 219.5 81.5t81.5 229.5v35q0 150 -78.5 228.5t-214.5 78.5h-10q-102 0 -187 -51.5t-129 -140.5v-93z" />
<glyph unicode="7" d="M102 1024v573h1037v-129l-598 -1468h-224l584 1413l-217 -4h-393v-385h-189z" />
<glyph unicode="8" d="M96 412v34q0 136 63.5 229t170.5 140q-103 46 -163.5 134t-60.5 218v35q0 87 31.5 162t92.5 133t159.5 91.5t224.5 33.5t224.5 -33.5t159.5 -91.5t92.5 -133t31.5 -162v-35q0 -130 -60 -218.5t-163 -133.5q106 -47 170 -140t64 -229v-34q0 -89 -35 -168t-100 -139 t-164.5 -95t-219.5 -35t-219.5 35t-164 95t-99.5 139t-35 168zM307 428q0 -89 42.5 -150.5t108 -88.5t146.5 -27h21q81 0 146.5 27t108 88.5t42.5 150.5v27q0 130 -78 199t-205 69h-49q-127 0 -205 -69t-78 -199v-27zM317 1159q0 -123 77 -187.5t204 -64.5h33 q127 0 203.5 64.5t76.5 187.5v19q0 118 -78 188t-208 70h-21q-130 0 -208.5 -70t-78.5 -188v-19z" />
<glyph unicode="9" d="M90 1096v20q0 244 137 375t381 131q237 0 378.5 -152.5t141.5 -418.5v-23q0 -433 -225 -733q-125 -167 -317 -243.5t-420 -76.5v191q176 0 323.5 60.5t247.5 189.5q97 122 144 299q-133 -123 -322 -123q-212 0 -340.5 131.5t-128.5 372.5zM301 1087q0 -150 78.5 -228.5 t214.5 -78.5h10q100 0 185 51.5t129 139.5q2 25 2 73v21q0 171 -87.5 270t-218.5 99h-12q-138 0 -219.5 -82t-81.5 -230v-35z" />
<glyph unicode=":" horiz-adv-x="479" d="M123 0v233h233v-233h-233zM123 682v233h233v-233h-233z" />
<glyph unicode=";" horiz-adv-x="479" d="M86 -145q71 0 109 34.5t47 110.5h-119v233h233v-184q0 -309 -270 -309v115zM123 682v233h233v-233h-233z" />
<glyph unicode="&#x3c;" d="M94 696v205l1041 461v-209l-828 -354l828 -355v-208z" />
<glyph unicode="=" d="M94 489v191h1041v-191h-1041zM94 918v190h1041v-190h-1041z" />
<glyph unicode="&#x3e;" d="M94 236v208l828 355l-828 354v209l1041 -461v-205z" />
<glyph unicode="?" horiz-adv-x="962" d="M51 1042v27q0 129 21 225.5t70 172.5t136 115.5t211 39.5q113 0 196.5 -32t131.5 -90.5t71 -132.5t23 -167q0 -83 -19 -150.5t-49.5 -114.5t-67.5 -88.5t-75 -83t-70.5 -87.5t-55 -112.5t-27.5 -147.5h-141q-5 95 14.5 179.5t52.5 143t72.5 118.5t74 107t57.5 106t23 118 q0 119 -48 183.5t-163 64.5q-53 0 -92.5 -17.5t-65.5 -49t-42 -81t-22.5 -109t-6.5 -137.5h-209zM360 0v233h234v-233h-234z" />
<glyph unicode="@" horiz-adv-x="1988" d="M63 553v82q0 231 71.5 418t199.5 311.5t306.5 191t391.5 66.5q147 0 278.5 -30.5t245 -95.5t195.5 -160t129 -231.5t47 -301.5v-62q0 -121 -18.5 -216.5t-54.5 -162.5t-84 -114t-112 -74t-132.5 -39t-151.5 -12h-135l-22 139q-102 -164 -306 -164q-100 0 -176.5 38 t-123 105t-70 152t-23.5 185v53q0 100 23.5 185t70 151.5t123 104.5t176.5 38q203 0 306 -166l22 141h162l-17 -292v-525q79 3 136 15.5t106.5 44t79 84t46.5 134.5t17 195v62q0 145 -40.5 260.5t-109 191.5t-163.5 126.5t-198.5 72t-219.5 21.5h-12q-179 0 -328 -56 t-256.5 -161.5t-167 -264.5t-59.5 -358v-82q0 -203 60 -363t169.5 -264t259.5 -158.5t332 -54.5h13q376 0 673 217l86 -114q-315 -250 -766 -250q-215 0 -395.5 66.5t-310 191t-201.5 311.5t-72 418zM715 578q0 -143 62 -227.5t186 -84.5q80 0 140 43t95 99v393 q-35 56 -95 98.5t-140 42.5q-124 0 -186 -84t-62 -227v-53z" />
<glyph unicode="A" horiz-adv-x="1271" d="M47 0l440 1610h297l441 -1610h-230l-100 385h-516l-100 -385h-232zM428 573h418l-209 797z" />
<glyph unicode="B" horiz-adv-x="1232" d="M137 0v1597h449q82 0 151.5 -12t134.5 -41.5t110 -76t72 -119t27 -166.5v-41q0 -229 -204 -318q245 -89 245 -346v-41q0 -97 -28 -173t-74.5 -125t-113 -80.5t-138 -44.5t-154.5 -13h-477zM350 188h275q58 0 106.5 14t88.5 43t62.5 80t22.5 119v25q0 89 -40.5 148.5 t-101 83.5t-138.5 24h-275v-537zM350 913h240q121 0 197.5 55.5t76.5 178.5v29q0 64 -22 110.5t-61 72.5t-86.5 38t-104.5 12h-240v-496z" />
<glyph unicode="C" horiz-adv-x="1290" d="M102 758v82q0 411 137 596.5t427 185.5q267 0 397.5 -135.5t130.5 -417.5v-63h-215q0 222 -69.5 325t-229.5 103h-14q-184 0 -264 -142.5t-80 -451.5v-82q0 -310 79.5 -452t264.5 -142h14q299 0 299 366h215v-20q0 -535 -528 -535q-290 0 -427 186t-137 597z" />
<glyph unicode="D" horiz-adv-x="1325" d="M137 0v1597h449q161 0 277.5 -41t198 -130t121.5 -234.5t40 -351.5v-82q0 -206 -40 -351.5t-121.5 -235t-198 -130.5t-277.5 -41h-449zM350 188h221q224 0 328.5 134.5t104.5 435.5v82q0 301 -104.5 435t-328.5 134h-221v-1221z" />
<glyph unicode="E" horiz-adv-x="1140" d="M137 0v1597h922v-188h-709v-500h606v-188h-606v-533h709v-188h-922z" />
<glyph unicode="F" horiz-adv-x="1077" d="M137 0v1597h899v-188h-686v-500h584v-188h-584v-721h-213z" />
<glyph unicode="G" horiz-adv-x="1341" d="M102 758v82q0 408 143.5 595t436.5 187q267 0 399.5 -136t132.5 -417v-63h-215q0 222 -70 325t-233 103h-16q-188 0 -274.5 -144t-86.5 -450v-82q0 -309 88 -451.5t289 -142.5h17q180 0 288 100v363h-251v188h464v-653q-195 -187 -512 -187q-306 0 -453 186.5t-147 596.5 z" />
<glyph unicode="H" horiz-adv-x="1325" d="M137 0v1597h213v-688h625v688h213v-1597h-213v721h-625v-721h-213z" />
<glyph unicode="I" horiz-adv-x="507" d="M147 0v1597h213v-1597h-213z" />
<glyph unicode="J" horiz-adv-x="1044" d="M55 492v38h201q0 -192 51 -279t172 -87q122 0 174 85.5t52 270.5v1077h213v-1108q0 -251 -103.5 -382.5t-329.5 -131.5q-232 0 -331 129.5t-99 387.5z" />
<glyph unicode="K" horiz-adv-x="1198" d="M137 0v1597h213v-788l529 788h258l-465 -661l465 -936h-238l-360 748l-189 -269v-479h-213z" />
<glyph unicode="L" horiz-adv-x="1026" d="M137 0v1597h213v-1409h645v-188h-858z" />
<glyph unicode="M" horiz-adv-x="1693" d="M137 0v1597h309l400 -1228l401 1228h309v-1597h-213v885l9 342l-402 -1227h-207l-401 1227l8 -342v-885h-213z" />
<glyph unicode="N" horiz-adv-x="1366" d="M137 0v1597h228l669 -1220l-8 354v866h203v-1597h-228l-669 1221l8 -355v-866h-203z" />
<glyph unicode="O" horiz-adv-x="1345" d="M102 758v82q0 410 139.5 596t432.5 186q291 0 430 -186t139 -596v-82q0 -410 -139 -596.5t-430 -186.5q-292 0 -432 186.5t-140 596.5zM322 758q0 -308 81 -451t263 -143h14q182 0 263 143t81 451v82q0 308 -81 451t-263 143h-14q-182 0 -263 -143t-81 -451v-82z" />
<glyph unicode="P" horiz-adv-x="1200" d="M137 0v1597h473q79 0 146.5 -11t137 -42.5t118 -81.5t79.5 -135t31 -197v-40q0 -467 -512 -467h-260v-623h-213zM350 809h266q53 0 98.5 11.5t91 40.5t72.5 89t27 146v26q0 86 -27 146t-72.5 89t-91 40.5t-98.5 11.5h-266v-600z" />
<glyph unicode="Q" horiz-adv-x="1345" d="M102 758v82q0 410 139.5 596t432.5 186q291 0 430 -186t139 -596v-82q0 -306 -76.5 -486t-234.5 -249l88 -228h-178l-72 187q-54 -7 -96 -7q-292 0 -432 186.5t-140 596.5zM322 758q0 -308 81 -451t263 -143h36l-122 325h170l108 -278q87 59 126.5 193t39.5 354v82 q0 308 -81 451t-263 143h-14q-182 0 -263 -143t-81 -451v-82z" />
<glyph unicode="R" horiz-adv-x="1224" d="M137 0v1597h473q79 0 146.5 -11t137 -42.5t118 -81.5t79.5 -135t31 -197v-40q0 -335 -266 -431l266 -659h-231l-242 623h-299v-623h-213zM350 809h266q53 0 98.5 11.5t91 40.5t72.5 89t27 146v26q0 86 -27 146t-72.5 89t-91 40.5t-98.5 11.5h-266v-600z" />
<glyph unicode="S" horiz-adv-x="1251" d="M84 510v20h213q0 -184 85.5 -275t235.5 -91h17q145 0 229 71t84 193v16q0 123 -81 189t-275 92q-256 35 -374 141.5t-118 288.5v23q0 204 141.5 324t385.5 120q271 0 397.5 -131t126.5 -395v-49h-213q0 203 -72.5 295t-236.5 92h-15q-131 0 -213 -66t-82 -174v-16 q0 -79 29.5 -131t106.5 -89t209 -55q262 -35 382.5 -140.5t120.5 -301.5v-23q0 -218 -143 -340.5t-397 -122.5q-266 0 -404.5 136.5t-138.5 398.5z" />
<glyph unicode="T" horiz-adv-x="1085" d="M43 1409v188h999v-188h-393v-1409h-213v1409h-393z" />
<glyph unicode="U" horiz-adv-x="1325" d="M127 498v1099h213v-1089q0 -188 76 -266t248 -78q170 0 245.5 78t75.5 266v1089h213v-1099q0 -277 -126.5 -400t-407.5 -123q-282 0 -409.5 123t-127.5 400z" />
<glyph unicode="V" horiz-adv-x="1271" d="M47 1597h229l361 -1370l358 1370h230l-441 -1609h-297z" />
<glyph unicode="W" horiz-adv-x="1863" d="M68 1597h223l215 -1331l289 1331h274l289 -1331l215 1331h223l-287 -1609h-280l-297 1372l-297 -1372h-281z" />
<glyph unicode="X" horiz-adv-x="1282" d="M53 0l436 823l-436 774h250l338 -622l338 622h248l-436 -776l436 -821h-240l-346 674l-346 -674h-242z" />
<glyph unicode="Y" horiz-adv-x="1216" d="M33 1597h231l344 -847l344 847h232l-469 -1112v-485h-213v485z" />
<glyph unicode="Z" horiz-adv-x="1177" d="M82 0v147l733 1268l-270 -6h-443v188h973v-147l-733 -1268l270 6h484v-188h-1014z" />
<glyph unicode="[" horiz-adv-x="684" d="M131 -246v1966h475v-186h-268v-1593h268v-187h-475z" />
<glyph unicode="\" horiz-adv-x="735" d="M31 1720h205l471 -1966h-205z" />
<glyph unicode="]" horiz-adv-x="684" d="M80 -59h266v1593h-266v186h475v-1966h-475v187z" />
<glyph unicode="^" d="M51 555l461 1042h205l461 -1042h-209l-355 829l-354 -829h-209z" />
<glyph unicode="_" horiz-adv-x="655" d="M94 -129h467v-184h-467v184z" />
<glyph unicode="`" horiz-adv-x="1024" d="M205 1597h225l186 -354h-208z" />
<glyph unicode="a" horiz-adv-x="1075" d="M82 283v20q0 69 20 123t52.5 89t81.5 61t99.5 40t113.5 23l301 47v16q0 126 -48.5 185t-169.5 59q-120 0 -167.5 -59.5t-47.5 -159.5h-194v18q0 55 11 104t40 98t74 84t119.5 57t171.5 22q116 0 198 -28.5t129 -84t67.5 -127.5t20.5 -168v-395l15 -307h-178l-21 139 q-132 -164 -369 -164q-155 0 -237 85.5t-82 222.5zM285 307q0 -68 45.5 -114t136.5 -46q187 0 283 142v264l-271 -45q-194 -31 -194 -184v-17z" />
<glyph unicode="b" horiz-adv-x="1126" d="M111 0l14 307v1331h205v-667q103 139 299 139q87 0 156.5 -27t116.5 -74.5t78.5 -116t45.5 -148t14 -173.5v-57q0 -94 -14 -173.5t-45.5 -148t-78.5 -116t-116.5 -74.5t-156.5 -27q-219 0 -320 166l-20 -141h-178zM330 301q96 -145 245 -145q130 0 194.5 93.5t64.5 264.5 v57q0 171 -64.5 265t-194.5 94q-148 0 -245 -146v-483z" />
<glyph unicode="c" horiz-adv-x="1071" d="M86 514v57q0 117 27.5 213.5t83 170t146.5 114.5t210 41q110 0 195 -32t136 -87t77 -123t26 -145v-43h-196q0 115 -58 182.5t-176 67.5q-134 0 -199 -95t-65 -264v-57q0 -169 65 -263.5t199 -94.5q119 0 176.5 64.5t57.5 164.5h196v-37q0 -73 -26 -138.5t-77 -119 t-136 -84.5t-195 -31q-119 0 -210 41t-146.5 114.5t-83 170t-27.5 213.5z" />
<glyph unicode="d" horiz-adv-x="1134" d="M94 514v57q0 94 14 173.5t45.5 148t79 116t117 74.5t156.5 27q193 0 297 -137v665h207v-1331l14 -307h-178l-23 141q-104 -166 -317 -166q-87 0 -156.5 27t-117 74.5t-79 116t-45.5 148t-14 173.5zM301 514q0 -171 64 -264.5t194 -93.5q153 0 244 145v483 q-92 146 -244 146q-130 0 -194 -94t-64 -265v-57z" />
<glyph unicode="e" horiz-adv-x="1122" d="M86 518v49q0 93 18 174t56.5 149t94 117t135 76t175.5 27q119 0 210.5 -41.5t147.5 -116t84.5 -171.5t28.5 -214v-102h-743q12 -326 285 -326q126 0 194 63.5t68 145.5h196v-8q0 -70 -29.5 -134t-84.5 -116.5t-145 -83.5t-202 -31q-124 0 -219 41.5t-153.5 116 t-87.5 171.5t-29 214zM293 621h536q-13 325 -268 325q-130 0 -196.5 -84t-71.5 -241z" />
<glyph unicode="f" horiz-adv-x="800" d="M55 903v182h170v226q0 352 348 352q110 0 160 -25v-172q-45 17 -112 17q-99 0 -145 -41t-46 -154v-203h283v-182h-283v-903h-205v903h-170z" />
<glyph unicode="g" horiz-adv-x="1126" d="M86 555v49q0 108 23.5 197.5t72 159.5t129 109.5t187.5 39.5q217 0 319 -164l21 139h178l-15 -307v-778q0 -205 -110.5 -319.5t-341.5 -114.5q-120 0 -208 31t-138 87t-73.5 126.5t-23.5 156.5v33h197q0 -132 56.5 -197t187.5 -65q132 0 191 65.5t59 202.5v178 q-102 -135 -299 -135q-107 0 -187.5 38t-129 107t-72 159.5t-23.5 201.5zM293 555q0 -155 65.5 -240.5t192.5 -85.5q153 0 246 146v409q-97 146 -246 146q-126 0 -192 -88t-66 -238v-49z" />
<glyph unicode="h" horiz-adv-x="1116" d="M127 0v1638h205v-673q117 145 338 145q163 0 247 -99.5t84 -258.5v-752h-202v719q0 102 -53 156.5t-152 54.5q-170 0 -262 -146v-784h-205z" />
<glyph unicode="i" horiz-adv-x="479" d="M123 1311v233h233v-233h-233zM137 0v1085h205v-1085h-205z" />
<glyph unicode="j" horiz-adv-x="479" d="M-166 -238q12 -5 46.5 -10.5t64.5 -5.5q99 0 145.5 41.5t46.5 153.5v1144h205v-1167q0 -184 -92.5 -268t-255.5 -84q-112 0 -160 24v172zM123 1311v233h233v-233h-233z" />
<glyph unicode="k" horiz-adv-x="1069" d="M123 0v1638h205v-1058l442 505h250l-369 -409l369 -676h-238l-272 518l-182 -205v-313h-205z" />
<glyph unicode="l" horiz-adv-x="479" d="M137 0v1638h205v-1638h-205z" />
<glyph unicode="m" horiz-adv-x="1689" d="M113 1085h176l22 -141q110 166 332 166q106 0 177 -45.5t104 -130.5q110 176 340 176q152 0 230.5 -90t78.5 -248v-772h-203v741q0 100 -46.5 144.5t-135.5 44.5q-145 0 -236 -142v-788h-204v741q0 100 -46.5 144.5t-134.5 44.5q-149 0 -235 -142v-788h-205v778z" />
<glyph unicode="n" horiz-adv-x="1116" d="M113 1085h176l22 -149q117 174 359 174q163 0 247 -99.5t84 -258.5v-752h-202v719q0 102 -53 156.5t-152 54.5q-170 0 -262 -146v-784h-205v778z" />
<glyph unicode="o" horiz-adv-x="1122" d="M86 514v57q0 117 28.5 213.5t85 170t148.5 114.5t213 41t213 -41t148.5 -114.5t85 -170t28.5 -213.5v-57q0 -117 -28.5 -213.5t-85 -170t-148.5 -114.5t-213 -41t-213 41t-148.5 114.5t-85 170t-28.5 213.5zM293 514q0 -168 67 -263t201 -95t201 95t67 263v57 q0 168 -67 263.5t-201 95.5t-201 -95.5t-67 -263.5v-57z" />
<glyph unicode="p" horiz-adv-x="1126" d="M111 1085h178l20 -143q102 168 320 168q87 0 156.5 -27t116.5 -74.5t78.5 -116t45.5 -148t14 -173.5v-57q0 -94 -14 -173.5t-45.5 -148t-78.5 -116t-116.5 -74.5t-156.5 -27q-196 0 -299 140v-525h-205v1188zM330 301q96 -145 245 -145q130 0 194.5 93.5t64.5 264.5v57 q0 171 -64.5 265t-194.5 94q-148 0 -245 -146v-483z" />
<glyph unicode="q" horiz-adv-x="1132" d="M90 514v57q0 94 14 173.5t45.5 148t79 116t117 74.5t156.5 27q212 0 315 -166l23 141h178l-14 -307v-1188h-205v521q-106 -136 -297 -136q-87 0 -156.5 27t-117 74.5t-79 116t-45.5 148t-14 173.5zM297 514q0 -171 63.5 -264.5t192.5 -93.5q150 0 246 145v483 q-97 146 -246 146q-129 0 -192.5 -94t-63.5 -265v-57z" />
<glyph unicode="r" horiz-adv-x="716" d="M113 1085h176l20 -139q109 164 299 164q7 0 18.5 -1t12.5 -1v-197h-37q-178 0 -270 -139v-772h-205v778z" />
<glyph unicode="s" horiz-adv-x="1073" d="M102 328v8h203q0 -86 54 -141.5t178 -55.5q111 0 169 45.5t58 122.5q0 87 -55.5 122t-196.5 46q-218 20 -307.5 89.5t-89.5 205.5v14q0 155 113.5 240.5t308.5 85.5q219 0 321.5 -98t102.5 -271v-8h-203q0 104 -51 158.5t-170 54.5q-103 0 -160.5 -41.5t-57.5 -116.5 q0 -52 19 -83t72.5 -51.5t150.5 -28.5q213 -16 312.5 -83t99.5 -218v-13q0 -154 -113.5 -245t-322.5 -91q-112 0 -198 29t-136.5 79.5t-75.5 112t-25 132.5z" />
<glyph unicode="t" horiz-adv-x="841" d="M55 903v182h170v308h205v-308h324v-182h-324v-553q0 -112 46 -153t145 -41q69 0 112 16v-172q-50 -25 -160 -25q-163 0 -255.5 84t-92.5 269v575h-170z" />
<glyph unicode="u" horiz-adv-x="1116" d="M115 334v751h204v-718q0 -101 52.5 -156t150.5 -55q168 0 264 145v784h205v-778l15 -307h-179l-22 150q-118 -175 -359 -175q-162 0 -246.5 100t-84.5 259z" />
<glyph unicode="v" horiz-adv-x="1075" d="M41 1085h215l283 -907l280 907h215l-356 -1085h-281z" />
<glyph unicode="w" horiz-adv-x="1501" d="M55 1085h203l152 -866l217 866h247l218 -866l153 866h203l-219 -1085h-262l-215 864l-215 -864h-265z" />
<glyph unicode="x" horiz-adv-x="1044" d="M43 0l315 553l-315 532h240l239 -417l240 417h239l-317 -532l317 -553h-235l-244 438l-243 -438h-236z" />
<glyph unicode="y" horiz-adv-x="1038" d="M35 1085h221l274 -819l275 819h221l-387 -1038l-150 -457h-239l170 457z" />
<glyph unicode="z" horiz-adv-x="972" d="M66 0v141l557 766l-238 -4h-299v182h801v-141l-557 -766l237 4h340v-182h-841z" />
<glyph unicode="{" horiz-adv-x="684" d="M51 643v188q88 0 127 38t39 137v401q0 87 27 149.5t76 97.5t108 50.5t133 15.5h45v-186q-92 0 -136 -44t-44 -155v-379q0 -160 -115 -219q115 -62 115 -219v-379q0 -111 44 -154.5t136 -43.5v-187h-45q-74 0 -133 16t-108 50.5t-76 97.5t-27 150v401q0 99 -39 136.5 t-127 37.5z" />
<glyph unicode="|" horiz-adv-x="456" d="M125 -246v1966h205v-1966h-205z" />
<glyph unicode="}" horiz-adv-x="684" d="M80 -59q91 0 134.5 43.5t43.5 154.5v379q0 157 115 219q-115 59 -115 219v379q0 111 -43.5 155t-134.5 44v186h43q74 0 133 -15.5t108 -50.5t76 -97.5t27 -149.5v-401q0 -99 39 -137t129 -38v-188q-90 0 -129 -37.5t-39 -136.5v-401q0 -87 -27 -150t-76 -97.5t-108 -50.5 t-133 -16h-43v187z" />
<glyph unicode="~" d="M70 778q50 70 125 119t172 49q73 0 144.5 -22t119 -48.5t109.5 -48.5t118 -22q59 0 110 33t85 75l106 -106q-49 -71 -124 -119.5t-173 -48.5q-73 0 -144.5 22t-119 48.5t-109.5 48.5t-118 22q-59 0 -110.5 -33.5t-84.5 -76.5z" />
<glyph unicode="&#xa1;" horiz-adv-x="479" d="M113 -410l55 1080h143l56 -1080h-254zM123 852v233h233v-233h-233z" />
<glyph unicode="&#xa2;" d="M111 768v63q0 326 131 494t395 168q33 0 49 -2l55 229h168l-61 -260q135 -46 202.5 -159t67.5 -279v-53h-207q0 225 -110 297l-232 -963q30 -6 68 -6h8q137 0 201.5 77t64.5 214h207v-31q0 -212 -120 -330t-361 -118q-64 0 -111 8l-57 -240h-168l70 291 q-260 136 -260 600zM324 768q0 -267 98 -383l219 920h-4q-313 0 -313 -474v-63z" />
<glyph unicode="&#xa3;" d="M104 0v188h330q-3 37 -8 73t-14.5 78.5t-14.5 66t-20 74.5t-19 63.5t-23 72.5t-20 64h-211v186h158q-41 161 -41 320q0 93 26.5 170.5t79 138t140 94t201.5 33.5q125 0 215 -40t143 -116.5t77.5 -178t24.5 -234.5v-29h-208q0 412 -252 412q-119 0 -177.5 -71.5 t-58.5 -197.5q0 -116 47 -301h393v-186h-344q79 -288 90 -492h506v-188h-1020z" />
<glyph unicode="&#xa5;" d="M27 1597h235l352 -827l353 827h235l-280 -614h219v-186h-303l-103 -224h406v-186h-420v-387h-213v387h-420v186h404l-101 224h-303v186h217z" />
<glyph unicode="&#xa6;" horiz-adv-x="456" d="M125 -246v920h205v-920h-205zM125 801v919h205v-919h-205z" />
<glyph unicode="&#xa7;" horiz-adv-x="1077" d="M78 784v13q0 184 166 262q-105 72 -105 223v14q0 155 114.5 240.5t309.5 85.5q220 0 322 -97.5t102 -271.5v-8h-205q0 103 -50 157t-169 54q-103 0 -160 -41.5t-57 -116.5q0 -38 10.5 -64.5t36.5 -49t74.5 -36.5t120.5 -20q213 -16 312 -86t99 -229v-12q0 -188 -165 -262 q102 -75 102 -224v-14q0 -155 -113.5 -240.5t-308.5 -85.5q-220 0 -322 97.5t-102 271.5v8h203q0 -103 51 -157t170 -54q101 0 158 41.5t57 116.5q0 76 -51 117.5t-189 52.5q-213 16 -312 86t-99 229zM287 799q0 -89 52.5 -128t178.5 -50h33q115 0 176 48t61 130 q0 89 -52.5 128t-176.5 50h-33q-116 0 -177.5 -48t-61.5 -130z" />
<glyph unicode="&#xa8;" horiz-adv-x="1024" d="M205 1309v235h237v-235h-237zM582 1309v235h237v-235h-237z" />
<glyph unicode="&#xa9;" horiz-adv-x="1884" d="M119 799q0 168 65 320t175.5 262.5t262.5 175.5t320 65t320 -65t262.5 -175.5t175.5 -262.5t65 -320t-65 -320.5t-175.5 -262.5t-262.5 -175.5t-320 -65.5t-320 65.5t-262.5 175.5t-175.5 262.5t-65 320.5zM217 799q0 -197 97 -364t264 -264t364 -97t364 97t264 264 t97 364t-97 364t-264 264t-364 97t-364 -97t-264 -264t-97 -364zM510 772v53q0 75 15 143.5t48 130.5t82 107.5t123 72t164 26.5q104 0 184 -30t125.5 -80t68.5 -108t23 -120v-37h-182q0 89 -51.5 147t-163.5 58q-64 0 -112.5 -25.5t-76.5 -70t-41.5 -98t-13.5 -116.5v-53 q0 -63 13.5 -116.5t41.5 -97.5t76.5 -69.5t112.5 -25.5q112 0 163.5 55t51.5 131h182v-33q0 -47 -13.5 -91.5t-44.5 -87t-76.5 -74t-114 -51t-152.5 -19.5q-90 0 -164 26.5t-123 71.5t-82 107t-48 130.5t-15 143.5z" />
<glyph unicode="&#xaa;" horiz-adv-x="825" d="M72 1008v16q0 64 21 110t61.5 74t87 44t110.5 26l211 31v8q0 84 -31.5 124t-111.5 40q-82 0 -114 -39.5t-32 -106.5h-172v15q0 54 15.5 99.5t50 86t100 63.5t156.5 23q176 0 248.5 -77.5t72.5 -227.5v-295l13 -227h-160l-16 98q-94 -119 -269 -119q-119 0 -180 65.5 t-61 168.5zM92 414v157h662v-157h-662zM252 1032q0 -46 30.5 -77t92.5 -31q117 0 188 90v184l-180 -31q-131 -22 -131 -125v-10z" />
<glyph unicode="&#xab;" horiz-adv-x="1093" d="M102 600v193l428 309v-193l-278 -213l278 -213v-192zM565 600v193l426 309v-193l-276 -213l276 -213v-192z" />
<glyph unicode="&#xac;" d="M94 965v190h1041v-733h-191v543h-850z" />
<glyph unicode="&#xad;" horiz-adv-x="690" d="M82 625v184h526v-184h-526z" />
<glyph unicode="&#xae;" horiz-adv-x="675" d="M37 1362q0 124 88.5 212.5t212.5 88.5t212.5 -88.5t88.5 -212.5t-88.5 -212.5t-212.5 -88.5t-212.5 88.5t-88.5 212.5zM86 1362q0 -104 74 -178t178 -74t178 74t74 178t-74 178t-178 74t-178 -74t-74 -178zM197 1186v352h163q52 0 85.5 -26.5t33.5 -81.5v-15 q0 -75 -61 -98l61 -131h-90l-51 121h-53v-121h-88zM285 1376h57q49 0 49 43v6q0 43 -49 43h-57v-92z" />
<glyph unicode="&#xaf;" horiz-adv-x="1024" d="M250 1327v186h524v-186h-524z" />
<glyph unicode="&#xb0;" horiz-adv-x="819" d="M90 1294v11q0 145 90 231t230 86q139 0 229 -86t90 -231v-11q0 -144 -90 -229.5t-229 -85.5t-229.5 86t-90.5 229zM229 1292q0 -78 50 -126t124 -48h13q74 0 124 48t50 126v15q0 80 -50 127t-124 47h-13q-74 0 -124 -47t-50 -127v-15z" />
<glyph unicode="&#xb1;" d="M94 311v191h1041v-191h-1041zM94 893v190h426v263h189v-263h426v-190h-426v-260h-189v260h-426z" />
<glyph unicode="&#xb2;" horiz-adv-x="614" d="M43 799v108l305 336q27 29 39 51t12 54v10q0 51 -24 76.5t-64 25.5h-10q-86 0 -86 -129h-172v21q0 130 65 194t199 64q71 0 124 -20t82.5 -53t43.5 -70t14 -78v-21q0 -66 -21 -109t-69 -96l-196 -215h286v-149h-528z" />
<glyph unicode="&#xb3;" horiz-adv-x="614" d="M37 1040v15h172q0 -121 92 -121h10q40 0 67.5 25t27.5 73v10q0 42 -25.5 65t-67.5 23h-108v152h106q88 0 88 84v12q0 36 -24.5 59t-63.5 23h-10q-86 0 -86 -129h-172v21q0 130 65 194t199 64q70 0 123.5 -19.5t83 -52t43.5 -68t14 -73.5v-19q0 -116 -92 -172 q96 -60 96 -174v-18q0 -39 -15 -77.5t-45 -73.5t-84 -57t-124 -22q-134 0 -202 66t-68 190z" />
<glyph unicode="&#xb4;" horiz-adv-x="1024" d="M408 1243l186 354h225l-203 -354h-208z" />
<glyph unicode="&#xb6;" horiz-adv-x="1077" d="M63 1090v40q0 112 31 197t80.5 135t119.5 81.5t137.5 42.5t146.5 11h372v-1597h-213v1409h-94v-1409h-131v625q-71 5 -132 19.5t-121 48.5t-102 84t-68 130t-26 183zM281 1096q0 -252 231 -285v594q-46 -6 -84.5 -22.5t-73 -47.5t-54 -85.5t-19.5 -127.5v-26z" />
<glyph unicode="&#xb7;" horiz-adv-x="479" d="M123 600v234h233v-234h-233z" />
<glyph unicode="&#xb8;" horiz-adv-x="1232" d="M319 -391l37 106q59 -32 144 -32q58 0 84 13.5t26 45.5q0 55 -116 55l-66 -6l-35 51l60 158h118l-39 -102q90 -2 149.5 -43t59.5 -123q0 -84 -58 -126t-165 -42q-129 0 -199 45z" />
<glyph unicode="&#xb9;" horiz-adv-x="614" d="M35 1430l250 167h129v-649h172v-149h-518v149h174v438l-121 -81z" />
<glyph unicode="&#xba;" horiz-adv-x="874" d="M76 1176v47q0 181 90 290t270 109t271.5 -109.5t91.5 -289.5v-47q0 -182 -91.5 -292t-271.5 -110t-270 110t-90 292zM92 414v157h690v-157h-690zM258 1176q0 -116 44 -179t134 -63q180 0 180 242v47q0 114 -44.5 177.5t-135.5 63.5q-90 0 -134 -63.5t-44 -177.5v-47z" />
<glyph unicode="&#xbb;" horiz-adv-x="1093" d="M102 291v192l275 213l-275 213v193l428 -309v-193zM565 291v192l275 213l-275 213v193l426 -309v-193z" />
<glyph unicode="&#xbc;" horiz-adv-x="1638" d="M35 1430l250 167h129v-649h172v-149h-518v149h174v438l-121 -81zM123 0l1180 1597h213l-1180 -1597h-213zM1051 170v121l315 508h162v-477h82v-152h-82v-170h-172v170h-305zM1229 317l49 5h78v149l2 53z" />
<glyph unicode="&#xbd;" horiz-adv-x="1638" d="M35 1430l250 167h129v-649h172v-149h-518v149h174v438l-121 -81zM123 0l1180 1597h213l-1180 -1597h-213zM1067 0v109l305 335q27 29 39 51t12 54v10q0 51 -24 77t-64 26h-10q-86 0 -86 -130h-172v21q0 130 65 194t199 64q71 0 124 -20t82.5 -53t43.5 -70t14 -78v-21 q0 -65 -21 -108t-69 -96l-196 -215h286v-150h-528z" />
<glyph unicode="&#xbe;" horiz-adv-x="1638" d="M37 1040v15h172q0 -121 92 -121h10q40 0 67.5 25t27.5 73v10q0 42 -25.5 65t-67.5 23h-108v152h106q88 0 88 84v12q0 36 -24.5 59t-63.5 23h-10q-86 0 -86 -129h-172v21q0 130 65 194t199 64q70 0 123.5 -19.5t83 -52t43.5 -68t14 -73.5v-19q0 -116 -92 -172 q96 -60 96 -174v-18q0 -39 -15 -77.5t-45 -73.5t-84 -57t-124 -22q-134 0 -202 66t-68 190zM123 0l1180 1597h213l-1180 -1597h-213zM1051 170v121l315 508h162v-477h82v-152h-82v-170h-172v170h-305zM1229 317l49 5h78v149l2 53z" />
<glyph unicode="&#xbf;" horiz-adv-x="962" d="M51 -53q0 81 19 147.5t50 111.5t68 84.5t75.5 77t70.5 78t54 98t26 126.5h143q5 -95 -23.5 -180.5t-73 -148.5t-89.5 -121t-77 -123.5t-32 -131.5q0 -213 211 -213q128 0 178.5 90.5t50.5 280.5h209v-29q0 -98 -12.5 -176t-43.5 -145.5t-80.5 -112t-125.5 -69.5t-176 -25 q-109 0 -192 29.5t-132.5 83t-73.5 120.5t-24 148zM369 852v233h233v-233h-233z" />
<glyph unicode="&#xc0;" horiz-adv-x="1271" d="M47 0l440 1610h297l441 -1610h-230l-100 385h-516l-100 -385h-232zM403 1946h220l118 -226h-209zM428 573h418l-209 797z" />
<glyph unicode="&#xc1;" horiz-adv-x="1271" d="M47 0l440 1610h297l441 -1610h-230l-100 385h-516l-100 -385h-232zM428 573h418l-209 797zM532 1720l119 226h219l-129 -226h-209z" />
<glyph unicode="&#xc2;" horiz-adv-x="1271" d="M47 0l440 1610h297l441 -1610h-230l-100 385h-516l-100 -385h-232zM305 1720l232 226h200l232 -226h-197l-135 117l-135 -117h-197zM428 573h418l-209 797z" />
<glyph unicode="&#xc3;" horiz-adv-x="1271" d="M47 0l440 1610h297l441 -1610h-230l-100 385h-516l-100 -385h-232zM303 1741q0 108 48.5 158.5t129.5 50.5q44 0 88.5 -16.5t75.5 -36t66 -36t61 -16.5q72 0 72 80h127q0 -108 -48.5 -158.5t-129.5 -50.5q-44 0 -88.5 16.5t-75.5 36t-66 36t-61 16.5q-72 0 -72 -80h-127z M428 573h418l-209 797z" />
<glyph unicode="&#xc4;" horiz-adv-x="1271" d="M47 0l440 1610h297l441 -1610h-230l-100 385h-516l-100 -385h-232zM369 1749v168h202v-168h-202zM428 573h418l-209 797zM702 1749v168h203v-168h-203z" />
<glyph unicode="&#xc5;" horiz-adv-x="1271" d="M47 0l440 1610h25q-76 60 -76 159q0 83 59 142t142 59t142 -59t59 -142q0 -98 -78 -159h24l441 -1610h-230l-100 385h-516l-100 -385h-232zM428 573h418l-209 797zM526 1769q0 -46 32.5 -79t78.5 -33t78.5 33t32.5 79q0 45 -33 78t-78 33t-78 -33t-33 -78z" />
<glyph unicode="&#xc6;" horiz-adv-x="1748" d="M31 0l581 1597h1055v-188h-733l72 -500h559v-188h-533l76 -533h559v-188h-758l-51 397h-461l-137 -397h-229zM463 586h371l-101 774z" />
<glyph unicode="&#xc7;" horiz-adv-x="1290" d="M102 758v82q0 411 137 596.5t427 185.5q267 0 397.5 -135.5t130.5 -417.5v-63h-215q0 222 -69.5 325t-229.5 103h-14q-184 0 -264 -142.5t-80 -451.5v-82q0 -310 79.5 -452t264.5 -142h14q299 0 299 366h215v-20q0 -252 -114.5 -384t-346.5 -149l-31 -79q90 -2 149.5 -43 t59.5 -123q0 -84 -58 -126t-165 -42q-129 0 -199 45l37 106q59 -32 144 -32q58 0 84 13.5t26 45.5q0 55 -116 55l-66 -6l-35 51l51 135q-263 15 -387.5 201.5t-124.5 579.5z" />
<glyph unicode="&#xc8;" horiz-adv-x="1140" d="M137 0v1597h922v-188h-709v-500h606v-188h-606v-533h709v-188h-922zM377 1946h219l119 -226h-209z" />
<glyph unicode="&#xc9;" horiz-adv-x="1140" d="M137 0v1597h922v-188h-709v-500h606v-188h-606v-533h709v-188h-922zM506 1720l119 226h219l-129 -226h-209z" />
<glyph unicode="&#xca;" horiz-adv-x="1140" d="M137 0v1597h922v-188h-709v-500h606v-188h-606v-533h709v-188h-922zM279 1720l231 226h201l231 -226h-197l-135 117l-135 -117h-196z" />
<glyph unicode="&#xcb;" horiz-adv-x="1140" d="M137 0v1597h922v-188h-709v-500h606v-188h-606v-533h709v-188h-922zM342 1749v168h203v-168h-203zM676 1749v168h203v-168h-203z" />
<glyph unicode="&#xcc;" horiz-adv-x="507" d="M20 1946h220l118 -226h-208zM147 0v1597h213v-1597h-213z" />
<glyph unicode="&#xcd;" horiz-adv-x="507" d="M147 0v1597h213v-1597h-213zM150 1720l118 226h219l-129 -226h-208z" />
<glyph unicode="&#xce;" horiz-adv-x="507" d="M-78 1720l232 226h200l232 -226h-197l-135 117l-135 -117h-197zM147 0v1597h213v-1597h-213z" />
<glyph unicode="&#xcf;" horiz-adv-x="507" d="M-14 1749v168h202v-168h-202zM147 0v1597h213v-1597h-213zM319 1749v168h203v-168h-203z" />
<glyph unicode="&#xd0;" horiz-adv-x="1447" d="M33 721v188h227v688h449q161 0 277.5 -41t198 -130t121.5 -234.5t40 -351.5v-82q0 -206 -40 -351.5t-121.5 -235t-198 -130.5t-277.5 -41h-449v721h-227zM473 188h221q224 0 328 134.5t104 435.5v82q0 301 -104 435t-328 134h-221v-500h401v-188h-401v-533z" />
<glyph unicode="&#xd1;" horiz-adv-x="1366" d="M137 0v1597h228l669 -1220l-8 354v866h203v-1597h-228l-669 1221l8 -355v-866h-203zM350 1741q0 108 48.5 158.5t129.5 50.5q44 0 88.5 -16.5t75.5 -36t66 -36t61 -16.5q72 0 72 80h127q0 -108 -48.5 -158.5t-129.5 -50.5q-44 0 -88.5 16.5t-75.5 36t-66 36t-61 16.5 q-72 0 -72 -80h-127z" />
<glyph unicode="&#xd2;" horiz-adv-x="1345" d="M102 758v82q0 410 139.5 596t432.5 186q291 0 430 -186t139 -596v-82q0 -410 -139 -596.5t-430 -186.5q-292 0 -432 186.5t-140 596.5zM322 758q0 -308 81 -451t263 -143h14q182 0 263 143t81 451v82q0 308 -81 451t-263 143h-14q-182 0 -263 -143t-81 -451v-82z M440 1946h219l119 -226h-209z" />
<glyph unicode="&#xd3;" horiz-adv-x="1345" d="M102 758v82q0 410 139.5 596t432.5 186q291 0 430 -186t139 -596v-82q0 -410 -139 -596.5t-430 -186.5q-292 0 -432 186.5t-140 596.5zM322 758q0 -308 81 -451t263 -143h14q182 0 263 143t81 451v82q0 308 -81 451t-263 143h-14q-182 0 -263 -143t-81 -451v-82z M569 1720l119 226h219l-129 -226h-209z" />
<glyph unicode="&#xd4;" horiz-adv-x="1345" d="M102 758v82q0 410 139.5 596t432.5 186q291 0 430 -186t139 -596v-82q0 -410 -139 -596.5t-430 -186.5q-292 0 -432 186.5t-140 596.5zM322 758q0 -308 81 -451t263 -143h14q182 0 263 143t81 451v82q0 308 -81 451t-263 143h-14q-182 0 -263 -143t-81 -451v-82z M342 1720l231 226h201l232 -226h-197l-135 117l-135 -117h-197z" />
<glyph unicode="&#xd5;" horiz-adv-x="1345" d="M102 758v82q0 410 139.5 596t432.5 186q291 0 430 -186t139 -596v-82q0 -410 -139 -596.5t-430 -186.5q-292 0 -432 186.5t-140 596.5zM322 758q0 -308 81 -451t263 -143h14q182 0 263 143t81 451v82q0 308 -81 451t-263 143h-14q-182 0 -263 -143t-81 -451v-82z M340 1741q0 108 48.5 158.5t129.5 50.5q44 0 88.5 -16.5t75.5 -36t66 -36t61 -16.5q72 0 72 80h127q0 -108 -49 -158.5t-130 -50.5q-44 0 -88.5 16.5t-75 36t-65.5 36t-61 16.5q-72 0 -72 -80h-127z" />
<glyph unicode="&#xd6;" horiz-adv-x="1345" d="M102 758v82q0 410 139.5 596t432.5 186q291 0 430 -186t139 -596v-82q0 -410 -139 -596.5t-430 -186.5q-292 0 -432 186.5t-140 596.5zM322 758q0 -308 81 -451t263 -143h14q182 0 263 143t81 451v82q0 308 -81 451t-263 143h-14q-182 0 -263 -143t-81 -451v-82z M406 1749v168h202v-168h-202zM739 1749v168h203v-168h-203z" />
<glyph unicode="&#xd7;" d="M68 387l411 412l-411 411l135 136l411 -412l412 412l135 -136l-411 -411l411 -412l-135 -135l-412 412l-411 -412z" />
<glyph unicode="&#xd8;" horiz-adv-x="1329" d="M98 0l121 195q-117 191 -117 563v82q0 410 139.5 596t432.5 186q230 0 360 -113l53 88h148l-115 -186q123 -191 123 -571v-82q0 -410 -139 -596.5t-430 -186.5q-237 0 -369 117l-57 -92h-150zM322 758q0 -218 34 -340l564 907q-81 109 -240 109h-14q-182 0 -263 -143 t-81 -451v-82zM420 279q81 -115 246 -115h14q182 0 263 143t81 451v82q0 222 -41 352z" />
<glyph unicode="&#xd9;" horiz-adv-x="1325" d="M127 498v1099h213v-1089q0 -188 76 -266t248 -78q170 0 245.5 78t75.5 266v1089h213v-1099q0 -277 -126.5 -400t-407.5 -123q-282 0 -409.5 123t-127.5 400zM430 1946h219l119 -226h-209z" />
<glyph unicode="&#xda;" horiz-adv-x="1325" d="M127 498v1099h213v-1089q0 -188 76 -266t248 -78q170 0 245.5 78t75.5 266v1089h213v-1099q0 -277 -126.5 -400t-407.5 -123q-282 0 -409.5 123t-127.5 400zM559 1720l119 226h219l-129 -226h-209z" />
<glyph unicode="&#xdb;" horiz-adv-x="1325" d="M127 498v1099h213v-1089q0 -188 76 -266t248 -78q170 0 245.5 78t75.5 266v1089h213v-1099q0 -277 -126.5 -400t-407.5 -123q-282 0 -409.5 123t-127.5 400zM332 1720l231 226h201l231 -226h-196l-135 117l-136 -117h-196z" />
<glyph unicode="&#xdc;" horiz-adv-x="1325" d="M127 498v1099h213v-1089q0 -188 76 -266t248 -78q170 0 245.5 78t75.5 266v1089h213v-1099q0 -277 -126.5 -400t-407.5 -123q-282 0 -409.5 123t-127.5 400zM395 1749v168h203v-168h-203zM729 1749v168h203v-168h-203z" />
<glyph unicode="&#xdd;" horiz-adv-x="1216" d="M33 1597h231l344 -847l344 847h232l-469 -1112v-485h-213v485zM504 1720l119 226h219l-129 -226h-209z" />
<glyph unicode="&#xde;" horiz-adv-x="1200" d="M137 0v1597h213v-311h260q512 0 512 -467v-41q0 -467 -512 -467h-260v-311h-213zM350 500h266q41 0 77.5 6t77 25t69 49.5t47 83t18.5 122.5v25q0 86 -27 146t-72.5 89t-91 40.5t-98.5 11.5h-266v-598z" />
<glyph unicode="&#xdf;" horiz-adv-x="1212" d="M121 0v1237q0 95 26 171t79 134t141 89.5t206 31.5q222 0 336.5 -118t114.5 -308v-16q0 -131 -60.5 -226.5t-187.5 -181.5l82 -55q155 -102 229 -198.5t74 -217.5v-12q0 -67 -19.5 -127.5t-61 -113t-116 -83.5t-173.5 -31q-355 0 -355 349v12h180q0 -197 170 -197 q51 0 86.5 15.5t52.5 44.5t24 60t7 71q0 76 -55 142.5t-180 148.5l-168 112v131q138 76 202 157.5t64 192.5q0 124 -61 194.5t-185 70.5t-185.5 -71t-61.5 -185v-1223h-205z" />
<glyph unicode="&#xe0;" horiz-adv-x="1075" d="M82 283v20q0 69 20 123t52.5 89t81.5 61t99.5 40t113.5 23l301 47v16q0 126 -48.5 185t-169.5 59q-120 0 -167.5 -59.5t-47.5 -159.5h-194v18q0 55 11 104t40 98t74 84t119.5 57t171.5 22q116 0 198 -28.5t129 -84t67.5 -127.5t20.5 -168v-395l15 -307h-178l-21 139 q-132 -164 -369 -164q-155 0 -237 85.5t-82 222.5zM231 1597h226l186 -354h-209zM285 307q0 -68 45.5 -114t136.5 -46q187 0 283 142v264l-271 -45q-194 -31 -194 -184v-17z" />
<glyph unicode="&#xe1;" horiz-adv-x="1075" d="M82 283v20q0 69 20 123t52.5 89t81.5 61t99.5 40t113.5 23l301 47v16q0 126 -48.5 185t-169.5 59q-120 0 -167.5 -59.5t-47.5 -159.5h-194v18q0 55 11 104t40 98t74 84t119.5 57t171.5 22q116 0 198 -28.5t129 -84t67.5 -127.5t20.5 -168v-395l15 -307h-178l-21 139 q-132 -164 -369 -164q-155 0 -237 85.5t-82 222.5zM285 307q0 -68 45.5 -114t136.5 -46q187 0 283 142v264l-271 -45q-194 -31 -194 -184v-17zM434 1243l187 354h225l-203 -354h-209z" />
<glyph unicode="&#xe2;" horiz-adv-x="1075" d="M82 283v20q0 69 20 123t52.5 89t81.5 61t99.5 40t113.5 23l301 47v16q0 126 -48.5 185t-169.5 59q-120 0 -167.5 -59.5t-47.5 -159.5h-194v18q0 55 11 104t40 98t74 84t119.5 57t171.5 22q116 0 198 -28.5t129 -84t67.5 -127.5t20.5 -168v-395l15 -307h-178l-21 139 q-132 -164 -369 -164q-155 0 -237 85.5t-82 222.5zM172 1243l270 354h193l270 -354h-192l-174 209l-174 -209h-193zM285 307q0 -68 45.5 -114t136.5 -46q187 0 283 142v264l-271 -45q-194 -31 -194 -184v-17z" />
<glyph unicode="&#xe3;" horiz-adv-x="1075" d="M82 283v20q0 69 20 123t52.5 89t81.5 61t99.5 40t113.5 23l301 47v16q0 126 -48.5 185t-169.5 59q-120 0 -167.5 -59.5t-47.5 -159.5h-194v18q0 55 11 104t40 98t74 84t119.5 57t171.5 22q116 0 198 -28.5t129 -84t67.5 -127.5t20.5 -168v-395l15 -307h-178l-21 139 q-132 -164 -369 -164q-155 0 -237 85.5t-82 222.5zM186 1321q0 126 51.5 189t135.5 63q44 0 90 -17.5t78 -38t68 -38t63 -17.5q69 0 69 84h150q0 -126 -51 -189t-135 -63q-56 0 -113.5 28t-105 55.5t-80.5 27.5q-70 0 -70 -84h-150zM285 307q0 -68 45.5 -114t136.5 -46 q187 0 283 142v264l-271 -45q-194 -31 -194 -184v-17z" />
<glyph unicode="&#xe4;" horiz-adv-x="1075" d="M82 283v20q0 69 20 123t52.5 89t81.5 61t99.5 40t113.5 23l301 47v16q0 126 -48.5 185t-169.5 59q-120 0 -167.5 -59.5t-47.5 -159.5h-194v18q0 55 11 104t40 98t74 84t119.5 57t171.5 22q116 0 198 -28.5t129 -84t67.5 -127.5t20.5 -168v-395l15 -307h-178l-21 139 q-132 -164 -369 -164q-155 0 -237 85.5t-82 222.5zM231 1309v235h238v-235h-238zM285 307q0 -68 45.5 -114t136.5 -46q187 0 283 142v264l-271 -45q-194 -31 -194 -184v-17zM608 1309v235h238v-235h-238z" />
<glyph unicode="&#xe5;" horiz-adv-x="1075" d="M82 283v20q0 69 20 123t52.5 89t81.5 61t99.5 40t113.5 23l301 47v16q0 126 -48.5 185t-169.5 59q-120 0 -167.5 -59.5t-47.5 -159.5h-194v18q0 55 11 104t40 98t74 84t119.5 57t171.5 22q116 0 198 -28.5t129 -84t67.5 -127.5t20.5 -168v-395l15 -307h-178l-21 139 q-132 -164 -369 -164q-155 0 -237 85.5t-82 222.5zM285 307q0 -68 45.5 -114t136.5 -46q187 0 283 142v264l-271 -45q-194 -31 -194 -184v-17zM338 1421q0 83 59 142t142 59t141.5 -59t58.5 -142q0 -85 -58.5 -143.5t-141.5 -58.5t-142 58.5t-59 143.5zM428 1421 q0 -46 32.5 -79t78.5 -33t78 33t32 79q0 45 -32.5 78t-77.5 33t-78 -33t-33 -78z" />
<glyph unicode="&#xe6;" horiz-adv-x="1775" d="M82 283v20q0 85 29 147t83.5 99t115 57.5t141.5 32.5l299 47v16q0 126 -48.5 185t-169.5 59q-120 0 -167.5 -59.5t-47.5 -159.5h-194v18q0 55 11 104t40 98t74 84t119.5 57t171.5 22q260 0 340 -170q114 170 348 170q120 0 211.5 -41.5t147.5 -116t84 -171.5t28 -214 v-102h-742q9 -326 283 -326q126 0 195 63.5t69 145.5h195v-8q0 -70 -29 -134t-84.5 -116.5t-145 -83.5t-200.5 -31q-268 0 -395 187q-73 -83 -184 -135t-246 -52q-161 0 -246.5 85.5t-85.5 222.5zM285 303q0 -68 45.5 -114t136.5 -46q63 0 115.5 16.5t87 43.5t55.5 50t35 48 l14 16q-24 91 -24 201v31l-271 -45q-94 -15 -144 -62t-50 -123v-16zM956 621h535q-13 325 -268 325q-128 0 -195 -84t-72 -241z" />
<glyph unicode="&#xe7;" horiz-adv-x="1071" d="M86 514v57q0 117 27.5 213.5t83 170t146.5 114.5t210 41q110 0 195 -32t136 -87t77 -123t26 -145v-43h-196q0 115 -58 182.5t-176 67.5q-134 0 -199 -95t-65 -264v-57q0 -169 65 -263.5t199 -94.5q119 0 176.5 64.5t57.5 164.5h196v-37q0 -68 -22.5 -130t-67 -113.5 t-118 -85.5t-167.5 -42l-30 -79q90 -2 149.5 -43t59.5 -123q0 -84 -58.5 -126t-165.5 -42q-128 0 -198 45l37 106q59 -32 143 -32q58 0 84 13.5t26 45.5q0 55 -116 55l-66 -6l-35 51l52 138q-138 12 -231.5 86t-135 187t-41.5 261z" />
<glyph unicode="&#xe8;" horiz-adv-x="1122" d="M86 518v49q0 93 18 174t56.5 149t94 117t135 76t175.5 27q119 0 210.5 -41.5t147.5 -116t84.5 -171.5t28.5 -214v-102h-743q12 -326 285 -326q126 0 194 63.5t68 145.5h196v-8q0 -70 -29.5 -134t-84.5 -116.5t-145 -83.5t-202 -31q-124 0 -219 41.5t-153.5 116 t-87.5 171.5t-29 214zM258 1597h225l187 -354h-209zM293 621h536q-13 325 -268 325q-130 0 -196.5 -84t-71.5 -241z" />
<glyph unicode="&#xe9;" horiz-adv-x="1122" d="M86 518v49q0 93 18 174t56.5 149t94 117t135 76t175.5 27q119 0 210.5 -41.5t147.5 -116t84.5 -171.5t28.5 -214v-102h-743q12 -326 285 -326q126 0 194 63.5t68 145.5h196v-8q0 -70 -29.5 -134t-84.5 -116.5t-145 -83.5t-202 -31q-124 0 -219 41.5t-153.5 116 t-87.5 171.5t-29 214zM293 621h536q-13 325 -268 325q-130 0 -196.5 -84t-71.5 -241zM461 1243l186 354h225l-202 -354h-209z" />
<glyph unicode="&#xea;" horiz-adv-x="1122" d="M86 518v49q0 93 18 174t56.5 149t94 117t135 76t175.5 27q119 0 210.5 -41.5t147.5 -116t84.5 -171.5t28.5 -214v-102h-743q12 -326 285 -326q126 0 194 63.5t68 145.5h196v-8q0 -70 -29.5 -134t-84.5 -116.5t-145 -83.5t-202 -31q-124 0 -219 41.5t-153.5 116 t-87.5 171.5t-29 214zM199 1243l270 354h193l270 -354h-193l-174 209l-174 -209h-192zM293 621h536q-13 325 -268 325q-130 0 -196.5 -84t-71.5 -241z" />
<glyph unicode="&#xeb;" horiz-adv-x="1122" d="M86 518v49q0 93 18 174t56.5 149t94 117t135 76t175.5 27q119 0 210.5 -41.5t147.5 -116t84.5 -171.5t28.5 -214v-102h-743q12 -326 285 -326q126 0 194 63.5t68 145.5h196v-8q0 -70 -29.5 -134t-84.5 -116.5t-145 -83.5t-202 -31q-124 0 -219 41.5t-153.5 116 t-87.5 171.5t-29 214zM258 1309v235h238v-235h-238zM293 621h536q-13 325 -268 325q-130 0 -196.5 -84t-71.5 -241zM635 1309v235h237v-235h-237z" />
<glyph unicode="&#xec;" horiz-adv-x="479" d="M-68 1597h226l186 -354h-209zM135 0v1085h209v-1085h-209z" />
<glyph unicode="&#xed;" horiz-adv-x="479" d="M135 0v1085h209v-1085h-209zM135 1243l187 354h225l-203 -354h-209z" />
<glyph unicode="&#xee;" horiz-adv-x="479" d="M-127 1243l270 354h193l270 -354h-192l-174 209l-174 -209h-193zM135 0v1085h209v-1085h-209z" />
<glyph unicode="&#xef;" horiz-adv-x="479" d="M-68 1309v235h238v-235h-238zM135 0v1085h209v-1085h-209zM309 1309v235h238v-235h-238z" />
<glyph unicode="&#xf0;" horiz-adv-x="1122" d="M86 514v57q0 156 48 275.5t151.5 191.5t251.5 72q131 0 223 -59q-44 103 -115 180q-57 60 -133 110l-354 -200v135l229 131q-124 50 -301 70v186q310 -24 508 -137l244 137v-137l-133 -76q61 -54 102 -100q66 -76 113 -175.5t71 -205t34.5 -202.5t10.5 -196v-57 q0 -117 -28.5 -213.5t-85 -170t-148.5 -114.5t-213 -41t-213 41t-148.5 114.5t-85 170t-28.5 213.5zM293 514q0 -168 67 -263t201 -95t201 95t67 263v57q0 168 -67 263.5t-201 95.5t-201 -95.5t-67 -263.5v-57z" />
<glyph unicode="&#xf1;" horiz-adv-x="1116" d="M113 1085h176l22 -149q117 174 359 174q163 0 247 -99.5t84 -258.5v-752h-202v719q0 102 -53 156.5t-152 54.5q-170 0 -262 -146v-784h-205v778zM213 1321q0 126 51 189t135 63q44 0 90 -17.5t78 -38t68 -38t63 -17.5q70 0 70 84h150q0 -126 -51.5 -189t-135.5 -63 q-56 0 -113.5 28t-105 55.5t-80.5 27.5q-70 0 -70 -84h-149z" />
<glyph unicode="&#xf2;" horiz-adv-x="1122" d="M86 514v57q0 117 28.5 213.5t85 170t148.5 114.5t213 41t213 -41t148.5 -114.5t85 -170t28.5 -213.5v-57q0 -117 -28.5 -213.5t-85 -170t-148.5 -114.5t-213 -41t-213 41t-148.5 114.5t-85 170t-28.5 213.5zM254 1597h225l187 -354h-209zM293 514q0 -168 67 -263t201 -95 t201 95t67 263v57q0 168 -67 263.5t-201 95.5t-201 -95.5t-67 -263.5v-57z" />
<glyph unicode="&#xf3;" horiz-adv-x="1122" d="M86 514v57q0 117 28.5 213.5t85 170t148.5 114.5t213 41t213 -41t148.5 -114.5t85 -170t28.5 -213.5v-57q0 -117 -28.5 -213.5t-85 -170t-148.5 -114.5t-213 -41t-213 41t-148.5 114.5t-85 170t-28.5 213.5zM293 514q0 -168 67 -263t201 -95t201 95t67 263v57 q0 168 -67 263.5t-201 95.5t-201 -95.5t-67 -263.5v-57zM457 1243l186 354h225l-202 -354h-209z" />
<glyph unicode="&#xf4;" horiz-adv-x="1122" d="M86 514v57q0 117 28.5 213.5t85 170t148.5 114.5t213 41t213 -41t148.5 -114.5t85 -170t28.5 -213.5v-57q0 -117 -28.5 -213.5t-85 -170t-148.5 -114.5t-213 -41t-213 41t-148.5 114.5t-85 170t-28.5 213.5zM195 1243l270 354h192l271 -354h-193l-174 209l-174 -209h-192 zM293 514q0 -168 67 -263t201 -95t201 95t67 263v57q0 168 -67 263.5t-201 95.5t-201 -95.5t-67 -263.5v-57z" />
<glyph unicode="&#xf5;" horiz-adv-x="1122" d="M86 514v57q0 117 28.5 213.5t85 170t148.5 114.5t213 41t213 -41t148.5 -114.5t85 -170t28.5 -213.5v-57q0 -117 -28.5 -213.5t-85 -170t-148.5 -114.5t-213 -41t-213 41t-148.5 114.5t-85 170t-28.5 213.5zM209 1321q0 126 51 189t135 63q44 0 90 -17.5t78 -38t68 -38 t63 -17.5q70 0 70 84h149q0 -126 -51 -189t-135 -63q-56 0 -113.5 28t-105 55.5t-80.5 27.5q-70 0 -70 -84h-149zM293 514q0 -168 67 -263t201 -95t201 95t67 263v57q0 168 -67 263.5t-201 95.5t-201 -95.5t-67 -263.5v-57z" />
<glyph unicode="&#xf6;" horiz-adv-x="1122" d="M86 514v57q0 117 28.5 213.5t85 170t148.5 114.5t213 41t213 -41t148.5 -114.5t85 -170t28.5 -213.5v-57q0 -117 -28.5 -213.5t-85 -170t-148.5 -114.5t-213 -41t-213 41t-148.5 114.5t-85 170t-28.5 213.5zM254 1309v235h238v-235h-238zM293 514q0 -168 67 -263t201 -95 t201 95t67 263v57q0 168 -67 263.5t-201 95.5t-201 -95.5t-67 -263.5v-57zM631 1309v235h237v-235h-237z" />
<glyph unicode="&#xf7;" d="M94 705v188h1041v-188h-1041zM496 244v235h237v-235h-237zM496 1118v236h237v-236h-237z" />
<glyph unicode="&#xf8;" horiz-adv-x="1122" d="M86 0l107 139q-107 139 -107 375v57q0 117 28.5 213.5t85 170t148.5 114.5t213 41q176 0 295 -92l51 67h129l-106 -141q106 -141 106 -373v-57q0 -117 -28.5 -213.5t-85 -170t-148.5 -114.5t-213 -41q-179 0 -297 91l-49 -66h-129zM293 514q0 -117 31 -199l413 547 q-68 68 -176 68q-134 0 -201 -95.5t-67 -263.5v-57zM383 223q67 -67 178 -67q134 0 201 95t67 263v57q0 122 -32 199z" />
<glyph unicode="&#xf9;" horiz-adv-x="1116" d="M115 334v751h204v-718q0 -101 52.5 -156t150.5 -55q168 0 264 145v784h205v-778l15 -307h-179l-22 150q-118 -175 -359 -175q-162 0 -246.5 100t-84.5 259zM246 1597h225l186 -354h-208z" />
<glyph unicode="&#xfa;" horiz-adv-x="1116" d="M115 334v751h204v-718q0 -101 52.5 -156t150.5 -55q168 0 264 145v784h205v-778l15 -307h-179l-22 150q-118 -175 -359 -175q-162 0 -246.5 100t-84.5 259zM449 1243l186 354h225l-203 -354h-208z" />
<glyph unicode="&#xfb;" horiz-adv-x="1116" d="M115 334v751h204v-718q0 -101 52.5 -156t150.5 -55q168 0 264 145v784h205v-778l15 -307h-179l-22 150q-118 -175 -359 -175q-162 0 -246.5 100t-84.5 259zM186 1243l271 354h192l271 -354h-193l-174 209l-174 -209h-193z" />
<glyph unicode="&#xfc;" horiz-adv-x="1116" d="M115 334v751h204v-718q0 -101 52.5 -156t150.5 -55q168 0 264 145v784h205v-778l15 -307h-179l-22 150q-118 -175 -359 -175q-162 0 -246.5 100t-84.5 259zM246 1309v235h237v-235h-237zM623 1309v235h237v-235h-237z" />
<glyph unicode="&#xfd;" horiz-adv-x="1038" d="M35 1085h221l274 -819l275 819h221l-387 -1038l-150 -457h-239l170 457zM426 1243l186 354h226l-203 -354h-209z" />
<glyph unicode="&#xfe;" horiz-adv-x="1126" d="M125 -410v2048h205v-667q103 139 299 139q87 0 156.5 -27t116.5 -74.5t78.5 -116t45.5 -148t14 -173.5v-57q0 -94 -14 -173.5t-45.5 -148t-78.5 -116t-116.5 -74.5t-156.5 -27q-196 0 -299 140v-525h-205zM330 301q96 -145 245 -145q130 0 194.5 93.5t64.5 264.5v57 q0 171 -64.5 265t-194.5 94q-148 0 -245 -146v-483z" />
<glyph unicode="&#xff;" horiz-adv-x="1038" d="M35 1085h221l274 -819l275 819h221l-387 -1038l-150 -457h-239l170 457zM223 1309v235h238v-235h-238zM600 1309v235h238v-235h-238z" />
<glyph unicode="&#x152;" horiz-adv-x="1925" d="M102 758v82q0 206 40 351.5t122 234.5t198.5 130t276.5 41h1104v-188h-708v-500h606v-188h-606v-533h708v-188h-1104q-160 0 -276.5 41t-198.5 130.5t-122 235t-40 351.5zM322 758q0 -301 104.5 -435.5t329.5 -134.5h166v1221h-166q-225 0 -329.5 -134t-104.5 -435v-82z " />
<glyph unicode="&#x153;" horiz-adv-x="1865" d="M86 514v57q0 117 28.5 213.5t85 170t148.5 114.5t213 41q257 0 373 -201q122 201 373 201q120 0 211.5 -41.5t147.5 -116t84 -171.5t28 -214v-102h-742q12 -326 283 -326q127 0 195.5 63.5t68.5 145.5h195v-8q0 -70 -29 -134t-84.5 -116.5t-145 -83.5t-200.5 -31 q-265 0 -385 201q-116 -201 -373 -201q-121 0 -213 41t-148.5 114.5t-85 170t-28.5 213.5zM293 514q0 -168 67 -263t201 -95t201 95t67 263v57q0 168 -67 263.5t-201 95.5t-201 -95.5t-67 -263.5v-57zM1036 621h537q-13 325 -268 325q-130 0 -197 -84t-72 -241z" />
<glyph unicode="&#x178;" horiz-adv-x="1216" d="M33 1597h231l344 -847l344 847h232l-469 -1112v-485h-213v485zM340 1749v168h203v-168h-203zM674 1749v168h203v-168h-203z" />
<glyph unicode="&#x2c6;" horiz-adv-x="1024" d="M145 1243l271 354h192l271 -354h-193l-174 209l-174 -209h-193z" />
<glyph unicode="&#x2dc;" horiz-adv-x="1024" d="M160 1321q0 126 51 189t135 63q44 0 90 -17.5t78 -38t68 -38t63 -17.5q70 0 70 84h149q0 -126 -51 -189t-135 -63q-56 0 -113.5 28t-105 55.5t-80.5 27.5q-70 0 -70 -84h-149z" />
<glyph unicode="&#x2000;" horiz-adv-x="985" />
<glyph unicode="&#x2001;" horiz-adv-x="1970" />
<glyph unicode="&#x2002;" horiz-adv-x="985" />
<glyph unicode="&#x2003;" horiz-adv-x="1970" />
<glyph unicode="&#x2004;" horiz-adv-x="656" />
<glyph unicode="&#x2005;" horiz-adv-x="492" />
<glyph unicode="&#x2006;" horiz-adv-x="328" />
<glyph unicode="&#x2007;" horiz-adv-x="328" />
<glyph unicode="&#x2008;" horiz-adv-x="246" />
<glyph unicode="&#x2009;" horiz-adv-x="394" />
<glyph unicode="&#x200a;" horiz-adv-x="109" />
<glyph unicode="&#x2010;" horiz-adv-x="690" d="M82 625v184h526v-184h-526z" />
<glyph unicode="&#x2011;" horiz-adv-x="690" d="M82 625v184h526v-184h-526z" />
<glyph unicode="&#x2012;" horiz-adv-x="690" d="M82 625v184h526v-184h-526z" />
<glyph unicode="&#x2013;" horiz-adv-x="1024" d="M82 625v184h860v-184h-860z" />
<glyph unicode="&#x2014;" horiz-adv-x="2048" d="M82 625v184h1884v-184h-1884z" />
<glyph unicode="&#x2018;" horiz-adv-x="479" d="M123 1143v184q0 309 270 309v-114q-70 0 -108 -34.5t-47 -111.5h118v-233h-233z" />
<glyph unicode="&#x2019;" horiz-adv-x="479" d="M86 1104v115q71 0 109 34.5t47 110.5h-119v233h233v-184q0 -309 -270 -309z" />
<glyph unicode="&#x201a;" horiz-adv-x="479" d="M86 -145q71 0 109 34.5t47 110.5h-119v233h233v-184q0 -309 -270 -309v115z" />
<glyph unicode="&#x201c;" horiz-adv-x="827" d="M123 1143v184q0 309 270 309v-114q-70 0 -108 -34.5t-47 -111.5h118v-233h-233zM471 1143v184q0 309 270 309v-114q-70 0 -108 -34.5t-47 -111.5h119v-233h-234z" />
<glyph unicode="&#x201d;" horiz-adv-x="827" d="M86 1104v115q71 0 109 34.5t47 110.5h-119v233h233v-184q0 -309 -270 -309zM434 1104v115q71 0 109 34.5t47 110.5h-119v233h234v-184q0 -309 -271 -309z" />
<glyph unicode="&#x201e;" horiz-adv-x="827" d="M86 -145q71 0 109 34.5t47 110.5h-119v233h233v-184q0 -309 -270 -309v115zM434 -145q71 0 109 34.5t47 110.5h-119v233h234v-184q0 -309 -271 -309v115z" />
<glyph unicode="&#x2022;" horiz-adv-x="847" d="M135 428v578h578v-578h-578z" />
<glyph unicode="&#x2026;" horiz-adv-x="2048" d="M246 0v233h233v-233h-233zM907 0v233h234v-233h-234zM1569 0v233h233v-233h-233z" />
<glyph unicode="&#x202f;" horiz-adv-x="394" />
<glyph unicode="&#x2039;" horiz-adv-x="632" d="M102 600v193l428 309v-193l-278 -213l278 -213v-192z" />
<glyph unicode="&#x203a;" horiz-adv-x="632" d="M102 291v192l275 213l-275 213v193l428 -309v-193z" />
<glyph unicode="&#x205f;" horiz-adv-x="492" />
<glyph unicode="&#x20ac;" d="M68 526v189h143v86h-143v188h147q21 329 142.5 481t349.5 152t330 -131t102 -404v-63h-187q0 220 -53 315t-178 95h-16q-241 0 -275 -445h506l-90 -188h-420v-86h453l-93 -189h-348q49 -362 267 -362h16q231 0 231 348h187v-20q0 -259 -104 -388t-328 -129 q-214 0 -334 132.5t-152 418.5h-153z" />
<glyph unicode="&#x2122;" horiz-adv-x="1097" d="M37 1548v90h383v-90h-139v-463h-103v463h-141zM485 1085v553h154l102 -383l103 383h153v-553h-102v254l4 134l-102 -388h-111l-104 388l4 -134v-254h-101z" />
<glyph unicode="&#x25fc;" horiz-adv-x="1085" d="M0 0v1085h1085v-1085h-1085z" />
<glyph unicode="&#xfb01;" horiz-adv-x="1280" d="M55 903v182h170v226q0 352 348 352q110 0 160 -25v-172q-45 17 -112 17q-99 0 -145 -41t-46 -154v-203h283v-182h-283v-903h-205v903h-170zM924 1311v233h233v-233h-233zM938 0v1085h205v-1085h-205z" />
<glyph unicode="&#xfb02;" horiz-adv-x="1280" d="M55 903v182h170v226q0 352 348 352q110 0 160 -25v-172q-45 17 -112 17q-99 0 -145 -41t-46 -154v-203h283v-182h-283v-903h-205v903h-170zM938 0v1638h205v-1638h-205z" />
</font>
</defs>
</svg>
