<?xml version="1.0" standalone="no"?>
<!DOCTYPE svg PUBLIC "-//W3C//DTD SVG 1.1//EN" "http://www.w3.org/Graphics/SVG/1.1/DTD/svg11.dtd" >
<svg xmlns="http://www.w3.org/2000/svg">
<metadata></metadata>
<defs>
<font id="cooper_hewittbook_italic" horiz-adv-x="1228" >
<font-face units-per-em="2048" ascent="1536" descent="-512" />
<missing-glyph horiz-adv-x="409" />
<glyph horiz-adv-x="0" />
<glyph horiz-adv-x="682" />
<glyph unicode=" "  horiz-adv-x="409" />
<glyph unicode="&#x09;" horiz-adv-x="409" />
<glyph unicode="&#xa0;" horiz-adv-x="409" />
<glyph unicode="!" horiz-adv-x="444" d="M29 0l24 184h185l-25 -184h-184zM125 387l119 1210h174l-197 -1210h-96z" />
<glyph unicode="&#x22;" horiz-adv-x="692" d="M207 1047l43 550h162l-103 -550h-102zM455 1047l43 550h161l-102 -550h-102z" />
<glyph unicode="#" d="M31 481l16 135h225l129 365h-188l18 135h218l172 481h139l-172 -481h282l172 481h140l-172 -481h194l-16 -135h-225l-129 -365h188l-18 -135h-220l-170 -481h-139l170 481h-283l-169 -481h-140l170 481h-192zM412 616h282l129 365h-282z" />
<glyph unicode="$" d="M98 535l4 26h142q-16 -114 7.5 -177t104.5 -105l179 483q-380 61 -342 354l2 17q23 174 160.5 265t353.5 91q49 0 92 -6l88 237h127l-98 -264q123 -43 174.5 -155t29.5 -259l-4 -26h-143q36 236 -103 315l-174 -467q404 -66 365 -370l-2 -17q-21 -174 -156 -271t-344 -97 q-90 0 -139 8l-88 -240h-125l100 273q-120 52 -175.5 155t-35.5 230zM338 1116q-12 -96 45 -153t197 -80l176 475q-24 4 -60 4h-8q-137 0 -236 -62t-112 -167zM469 244q39 -8 86 -8h12q144 0 237.5 63.5t108.5 179.5l2 17q13 108 -52 161.5t-210 83.5z" />
<glyph unicode="%" horiz-adv-x="1886" d="M139 1253l2 19q18 158 116 253t253 95q85 0 156 -29q138 -57 352 -57q102 0 225.5 22t171.5 43l-14 -100l-819 -1499h-140l789 1440q-8 -3 -36.5 -9.5t-83.5 -14t-107 -7.5q-71 0 -193 23q35 -59 23 -168l-3 -19q-18 -158 -116 -253t-252 -95q-163 0 -252.5 95t-71.5 261 zM262 1249q-12 -106 38.5 -168.5t154.5 -62.5h16q104 0 165 60.5t73 170.5l2 19q12 106 -38.5 168.5t-154.5 62.5h-16q-104 0 -165 -60.5t-73 -170.5zM1063 334l2 18q18 158 116 253t253 95q163 0 252 -95t71 -261l-2 -18q-18 -158 -116.5 -253.5t-252.5 -95.5 q-163 0 -252 95.5t-71 261.5zM1186 330q-12 -106 38 -169t154 -63h17q104 0 164.5 60.5t72.5 171.5l2 18q12 106 -38 169t-154 63h-17q-104 0 -164.5 -60.5t-72.5 -171.5z" />
<glyph unicode="&#x26;" horiz-adv-x="1353" d="M39 416l4 30q11 77 38.5 141.5t72 115t93.5 89t115 76.5q-91 115 -131.5 209t-27.5 189l4 30q20 148 118.5 236t280.5 88q190 0 287 -95t78 -239l-4 -31q-5 -40 -20.5 -77.5t-32.5 -66.5t-49 -61t-56 -52.5t-68.5 -50.5t-70 -45.5l-76.5 -46.5q-17 -10 -25 -15l365 -459 q57 90 93 185t50 225l2 18h152q-41 -331 -209 -545l209 -264h-187l-124 154q-177 -177 -447 -177q-221 0 -341 117.5t-93 321.5zM188 412q-19 -142 49.5 -221.5t227.5 -79.5h16q214 0 355 153l-392 498q-52 -32 -88.5 -60t-73.5 -67t-59.5 -87t-29.5 -106zM352 1262 q-10 -77 25 -150t110 -166q14 9 57.5 35t59 35.5t51.5 33t51 37t39.5 37t35.5 42.5t22 43.5t14 50.5l4 30q11 87 -44 143t-163 56h-16q-113 0 -172 -54t-70 -143z" />
<glyph unicode="'" horiz-adv-x="444" d="M207 1047l43 550h162l-103 -550h-102z" />
<glyph unicode="(" horiz-adv-x="649" d="M84.5 542.5q0.5 84.5 11.5 170.5l6 49q21 172 64 317.5t106 260.5t129.5 203t153.5 177h154q-91 -93 -161 -186.5t-132 -209.5t-104 -257t-62 -305l-6 -49q-10 -102 -11.5 -187.5t12 -174.5t31.5 -163.5t47.5 -153.5t59.5 -144t68 -136h-154q-31 60 -54.5 110t-49.5 116 t-44.5 126t-34.5 133.5t-23 146t-6.5 157z" />
<glyph unicode=")" horiz-adv-x="649" d="M-68 -246q189 193 304.5 418.5t154.5 540.5l6 49q10 102 11.5 187t-12 174.5t-31.5 163.5t-47.5 153t-59.5 144t-68 136h154q31 -60 54.5 -110t50 -115.5t44.5 -125.5t34 -134t23 -146t6.5 -156.5t-11.5 -170.5l-6 -49q-21 -172 -64 -317.5t-106 -261t-129.5 -203.5 t-153.5 -177h-154z" />
<glyph unicode="*" horiz-adv-x="796" d="M94 1327l47 103l269 -103l-37 -82zM162 987l213 234l63 -50l-198 -247zM430 1339l29 299h108l-51 -299h-86zM463 1171l76 50l153 -234l-94 -63zM532 1327l295 103l21 -103l-299 -82z" />
<glyph unicode="+" d="M90 731l19 135h448l59 449h138l-60 -449h449l-19 -135h-448l-60 -448h-137l60 448h-449z" />
<glyph unicode="," horiz-adv-x="444" d="M-49 -244l12 88q64 0 102 35.5t56 120.5h-92l24 184h185l-21 -153q-38 -275 -266 -275z" />
<glyph unicode="-" horiz-adv-x="673" d="M66 651l18 131h508l-19 -131h-507z" />
<glyph unicode="." horiz-adv-x="444" d="M29 0l24 184h185l-25 -184h-184z" />
<glyph unicode="/" horiz-adv-x="675" d="M-102 -246l729 1966h145l-729 -1966h-145z" />
<glyph unicode="0" d="M86 455l90 688q32 239 155.5 358t370.5 119q254 0 366.5 -124.5t82.5 -352.5l-90 -688q-32 -239 -155.5 -358.5t-370.5 -119.5q-254 0 -366.5 124.5t-82.5 353.5zM233 473q-25 -188 45 -276t254 -88h13q179 0 264 91.5t111 284.5l84 639q25 188 -45 276.5t-254 88.5h-13 q-179 0 -264 -92t-111 -285z" />
<glyph unicode="1" d="M45 0l16 135h418l166 1272l-407 -254l-60 113l547 340h92l-192 -1471h417l-18 -135h-979z" />
<glyph unicode="2" d="M14 0l13 100l784 725q102 96 149 166t58 160l2 16q18 146 -71 234t-247 88h-14q-173 0 -266.5 -101.5t-122.5 -322.5h-145l6 45q34 249 162.5 379.5t377.5 130.5q239 0 366 -122.5t103 -315.5l-2 -17q-12 -93 -38 -158t-69.5 -118.5t-127.5 -132.5l-676 -623l156 2h620 l-18 -135h-1000z" />
<glyph unicode="3" d="M66 483l4 29h145q-35 -202 53 -302.5t269 -100.5h12q146 0 253 81t126 232l2 16q20 151 -59.5 231.5t-231.5 80.5h-233l18 131h223q155 0 254 69t117 215l2 17q18 140 -71.5 223.5t-246.5 83.5h-14q-174 0 -267 -101t-122 -323h-145l6 45q34 248 163 379t377 131 q241 0 367 -121t102 -313l-2 -17q-18 -138 -102.5 -231t-208.5 -125q119 -33 180 -134t43 -249l-2 -16q-23 -192 -171 -314.5t-361 -122.5q-267 0 -389.5 137.5t-89.5 368.5z" />
<glyph unicode="4" d="M23 424l12 98l829 1075h142l-138 -1038h267l-21 -135h-262l-55 -424h-146l56 424h-684zM215 557l176 2h332l78 586l28 209z" />
<glyph unicode="5" d="M66 483l4 29h145q-35 -202 53 -302.5t269 -100.5h12q154 0 260.5 92.5t130.5 277.5l2 17q12 94 -8 168.5t-65 121t-107.5 71t-138.5 24.5h-19q-122 0 -220.5 -51.5t-156.5 -157.5l-118 39l155 886h948l-16 -135h-821l-103 -585q52 61 149.5 98t215.5 37q225 0 354 -138.5 t99 -377.5l-3 -17q-30 -241 -176 -371.5t-366 -130.5q-267 0 -389.5 137.5t-89.5 368.5z" />
<glyph unicode="6" d="M84 563l4 29q64 457 326 719q86 86 180 146t192.5 92.5t187.5 48t197 22.5l-18 -135q-91 -10 -162.5 -24.5t-155 -42.5t-162.5 -77t-153 -118q-86 -80 -146.5 -183t-88.5 -204q58 72 162.5 120t207.5 48q229 0 351 -130.5t92 -375.5l-2 -17q-30 -246 -175.5 -375 t-369.5 -129q-243 0 -374 158.5t-93 427.5zM229 545q-14 -111 5 -195.5t65 -135.5t108.5 -76t139.5 -25h12q163 0 264 95t123 269l2 17q21 176 -63.5 276t-245.5 100h-10q-119 0 -217.5 -58.5t-163.5 -158.5q-11 -42 -19 -108z" />
<glyph unicode="7" d="M152 1024l75 573h1008l-10 -90l-811 -1507h-160l795 1466l-230 -4h-475l-59 -438h-133z" />
<glyph unicode="8" d="M61 418l2 16q37 296 322 383q-102 26 -168 128.5t-49 236.5l2 16q24 195 157.5 308.5t368.5 113.5q242 0 369.5 -121.5t103.5 -312.5l-2 -17q-18 -138 -102.5 -231t-208.5 -125q121 -34 181 -134.5t42 -248.5l-2 -16q-23 -192 -172 -314.5t-368 -122.5q-153 0 -267 55 t-169.5 156t-39.5 230zM211 424q-19 -152 75 -233.5t251 -81.5h12q162 0 260.5 79t118.5 234l2 16q20 151 -61 231.5t-232 80.5h-45q-155 0 -258 -80t-121 -230zM315 1174q-18 -138 65.5 -215.5t225.5 -77.5h41q155 0 254 69t117 215l2 17q18 140 -72 223.5t-246 83.5h-14 q-158 0 -255 -77t-116 -222z" />
<glyph unicode="9" d="M66 -23l18 136q91 10 162.5 24.5t155 42.5t162.5 77t153 118q86 80 146.5 183t88.5 204q-58 -72 -162.5 -120t-207.5 -48q-229 0 -351 130.5t-92 375.5l2 16q30 246 175.5 375t369.5 129q243 0 374 -158.5t93 -427.5l-4 -28q-64 -457 -326 -719q-86 -86 -180 -146 t-192.5 -93t-187.5 -48.5t-197 -22.5zM289 1104q-21 -176 63.5 -276.5t245.5 -100.5h10q119 0 217.5 58.5t163.5 158.5q11 43 19 109q14 111 -5 195.5t-65 135.5t-108.5 76t-139.5 25h-12q-163 0 -264 -95t-123 -270z" />
<glyph unicode=":" horiz-adv-x="444" d="M29 0l24 184h185l-25 -184h-184zM121 707l24 184h185l-25 -184h-184z" />
<glyph unicode=";" horiz-adv-x="444" d="M-49 -244l12 88q64 0 102 35.5t56 120.5h-92l24 184h185l-21 -153q-38 -275 -266 -275zM121 707l24 184h185l-25 -184h-184z" />
<glyph unicode="&#x3c;" d="M90 727l19 143l1097 482l-20 -154l-936 -405l829 -408l-18 -139z" />
<glyph unicode="=" d="M59 522l19 135h1034l-18 -135h-1035zM121 940l18 135h1035l-19 -135h-1034z" />
<glyph unicode="&#x3e;" d="M25 246l20 153l936 406l-829 407l18 140l971 -482l-19 -143z" />
<glyph unicode="?" horiz-adv-x="931" d="M88 1032l4 29q19 138 50.5 235.5t85 173.5t136.5 113t199 37q373 0 373 -354q0 -93 -22.5 -169.5t-59 -130.5t-81.5 -102t-93.5 -95t-91 -98t-77 -124t-48.5 -160h-96q7 89 34 166t64 133.5t80.5 108.5t85.5 101t76.5 100.5t55.5 117.5t21 141q0 117 -53 174.5t-172 57.5 q-79 0 -136.5 -31t-94.5 -93t-59 -141t-36 -190h-145zM270 0l25 184h184l-24 -184h-185z" />
<glyph unicode="@" horiz-adv-x="1968" d="M39 553l10 82q38 305 185.5 529.5t374 340t507.5 115.5q147 0 273.5 -30t231 -95t174.5 -159t99 -229.5t9 -299.5l-11 -82q-18 -145 -58.5 -252t-95.5 -173.5t-131.5 -106.5t-157 -55t-181.5 -15h-94l-3 147q-126 -170 -327 -170q-87 0 -154 26.5t-107 72t-65 107 t-27.5 132t5.5 146.5l6 45q14 97 48 180.5t90 152t141.5 107.5t191.5 39q108 0 182 -48t109 -124l36 149h111l-51 -307l-72 -545q59 1 104.5 7t93.5 20t84.5 37t71 60t59.5 87.5t44.5 121t30.5 159.5l10 82q18 149 -8 269t-85.5 199t-149.5 132.5t-193.5 76.5t-223.5 23h-20 q-246 0 -446 -102t-330.5 -300.5t-163.5 -469.5l-10 -82q-26 -209 15 -375t140 -274.5t246.5 -165.5t333.5 -57h20q185 0 369.5 59t314.5 158l64 -88q-147 -123 -354 -182.5t-404 -59.5q-221 0 -395 67t-287.5 192t-161 310.5t-18.5 415.5zM637 588q-23 -164 33 -264.5 t192 -100.5q101 0 182 49.5t130 114.5l57 434q-21 41 -50 74.5t-85.5 61.5t-126.5 28q-136 0 -220.5 -96.5t-105.5 -255.5z" />
<glyph unicode="A" horiz-adv-x="1251" d="M-41 0l674 1614h209l250 -1614h-156l-62 410h-585l-168 -410h-162zM344 543h510l-135 909z" />
<glyph unicode="B" horiz-adv-x="1200" d="M51 0l209 1597h418q103 0 183.5 -23t139.5 -71t85 -128q17 -53 16 -118q0 -33 -4 -69l-4 -33q-17 -131 -95 -219t-190 -115q114 -21 183 -124q54 -81 54 -189q0 -30 -4 -62l-4 -32q-53 -414 -538 -414h-449zM215 133h301q334 0 371 285l4 33q4 29 4 55q-1 109 -65 171 q-80 77 -216 77h-317zM315 887h275q148 0 241 65t111 207l4 33q3 27 3 51q1 103 -61 156q-76 65 -220 65h-277z" />
<glyph unicode="C" horiz-adv-x="1265" d="M115 758l10 82q52 410 206.5 595t432.5 185q255 0 366 -138q83 -103 84 -280q0 -59 -10 -127l-8 -59h-152q11 82 11 149q0 137 -44 211q-65 112 -245 111h-14q-202 0 -318 -154.5t-158 -492.5l-10 -82q-16 -126 -16 -226q0 -170 46 -268q73 -154 275 -153h15 q176 0 271 103t122 306h151l-4 -28q-36 -257 -170.5 -386t-384.5 -129q-280 1 -394 187q-78 128 -78 360q0 106 16 234z" />
<glyph unicode="D" horiz-adv-x="1308" d="M51 0l209 1597h404q119 0 211.5 -25.5t165 -81.5t113 -144.5t54.5 -214.5q6 -49 6 -103q0 -87 -14 -188l-10 -82q-95 -758 -721 -758h-418zM215 133h258q487 0 565 625l11 82q11 96 11 175q0 63 -7 115q-15 118 -70.5 192.5t-137 108t-196.5 33.5h-258z" />
<glyph unicode="E" horiz-adv-x="1124" d="M51 0l209 1597h891l-16 -133h-746l-76 -583h641l-18 -131h-641l-80 -617h743l-16 -133h-891z" />
<glyph unicode="F" horiz-adv-x="1050" d="M51 0l209 1597h858l-16 -133h-713l-76 -583h607l-19 -131h-606l-96 -750h-148z" />
<glyph unicode="G" horiz-adv-x="1327" d="M115 758l10 82q52 409 210.5 594.5t438.5 185.5q256 0 372 -138q88 -105 88 -285q0 -57 -9 -122l-8 -59h-152q10 77 10 141q0 140 -48 217q-70 113 -251 113h-14q-203 0 -323.5 -155.5t-162.5 -491.5l-10 -82q-14 -109 -14 -199q0 -186 59 -291q87 -157 293 -157h14 q113 0 203 35t146 87l55 422h-274l16 131h422l-82 -624q-201 -185 -504 -185q-499 0 -499 571q0 97 14 210z" />
<glyph unicode="H" horiz-adv-x="1308" d="M51 0l209 1597h148l-95 -716h711l94 716h148l-209 -1597h-148l99 750h-711l-98 -750h-148z" />
<glyph unicode="I" horiz-adv-x="471" d="M61 0l209 1597h148l-209 -1597h-148z" />
<glyph unicode="J" horiz-adv-x="1013" d="M16 280q-5 36 -5 75q0 64 12 137l4 28h139q-12 -85 -12 -151q0 -105 30 -163q51 -95 195 -95q141 0 212.5 93t100.5 312l142 1081h147l-145 -1105q-33 -258 -139.5 -386.5t-313.5 -128.5q-117 0 -197 36.5t-119.5 103.5t-50.5 163z" />
<glyph unicode="K" horiz-adv-x="1150" d="M51 0l209 1597h148l-115 -866l715 866h182l-565 -673l356 -924h-164l-301 793l-254 -301l-63 -492h-148z" />
<glyph unicode="L" horiz-adv-x="1005" d="M51 0l209 1597h148l-193 -1464h676l-17 -133h-823z" />
<glyph unicode="M" horiz-adv-x="1644" d="M51 0l209 1597h203l287 -1343l643 1343h211l-209 -1597h-148l127 985l56 356l-642 -1341h-133l-288 1341l-41 -356l-127 -985h-148z" />
<glyph unicode="N" horiz-adv-x="1349" d="M51 0l209 1597h156l577 -1347l43 375l127 972h144l-209 -1597h-156l-577 1348l-43 -375l-127 -973h-144z" />
<glyph unicode="O" horiz-adv-x="1329" d="M115 758l10 82q52 410 206 595t431 185q280 0 395 -186q80 -129 80 -365q0 -104 -16 -229l-11 -82q-52 -410 -206 -595.5t-431 -185.5q-279 0 -395 187q-80 129 -79 362q0 106 16 232zM266 758q-16 -127 -16 -228q0 -170 46 -266q72 -153 273 -153h15q203 0 318 154.5 t157 492.5l10 82q16 127 16 228q1 170 -45 266q-72 153 -274 153h-14q-203 0 -318.5 -154.5t-157.5 -492.5z" />
<glyph unicode="P" horiz-adv-x="1173" d="M51 0l209 1597h438q73 0 138 -12t128.5 -44.5t105 -83t60.5 -133.5q10 -45 11 -97q0 -44 -8 -92l-7 -41q-16 -106 -56.5 -186.5t-92.5 -128.5t-120.5 -78t-133.5 -41t-139 -11h-301l-84 -649h-148zM301 782h305q46 0 88 6.5t90.5 27.5t85.5 54.5t66.5 93t40.5 138.5l4 31 q5 34 5 65q0 40 -8 74q-14 60 -44.5 96t-74.5 58t-85.5 30t-87.5 8h-297z" />
<glyph unicode="Q" horiz-adv-x="1329" d="M115 758l10 82q52 410 206 595t431 185q280 0 395 -186q80 -130 80 -365q0 -104 -16 -229l-11 -82q-41 -321 -142.5 -502t-272.5 -244l57 -217h-135l-45 189q-58 -7 -99 -7q-279 0 -395 187q-79 129 -79 362q0 106 16 232zM266 758q-16 -127 -16 -228q0 -170 46 -266 q72 -153 273 -153h15q37 0 55 2l-84 350h127l80 -316q119 56 192 205.5t105 405.5l10 82q16 127 16 228q0 170 -45 266q-73 153 -274 153h-14q-203 0 -318.5 -154.5t-157.5 -492.5z" />
<glyph unicode="R" horiz-adv-x="1196" d="M51 0l209 1597h438q73 0 138 -12t128.5 -44.5t105 -83t60.5 -133.5q10 -45 11 -97q0 -44 -8 -92l-7 -41q-51 -332 -331 -416l188 -678h-162l-170 651q-23 -2 -67 -2h-301l-84 -649h-148zM301 782h305q46 0 88 6.5t90.5 27.5t85.5 54.5t66.5 93t40.5 138.5l4 31q5 34 5 65 q0 40 -8 74q-14 60 -44.5 96t-74.5 58t-85.5 30t-87.5 8h-297z" />
<glyph unicode="S" horiz-adv-x="1230" d="M57 492l4 28h148q-10 -64 -11 -118q0 -38 6 -70q13 -78 59 -127t110 -71.5t147 -22.5h21q169 0 273 69t124 209l4 31q3 25 3 49q-1 105 -71 173q-86 82 -288 118q-425 75 -425 369q0 33 5 69l6 41q30 194 167 287.5t361 93.5q272 0 384 -138q84 -103 85 -274 q0 -58 -10 -123l-4 -28h-147q10 66 10 122q0 131 -55 204q-78 104 -261 104h-20q-151 0 -247 -64t-113 -188l-5 -31q-3 -24 -3 -47q0 -98 64 -161q78 -78 286 -115q250 -45 354 -158q82 -89 81 -222q0 -36 -5 -75l-7 -41q-30 -205 -175.5 -306.5t-387.5 -101.5 q-254 0 -378 135q-96 105 -97 277q0 49 8 103z" />
<glyph unicode="T" horiz-adv-x="1054" d="M139 1464l17 133h960l-16 -133h-408l-192 -1464h-148l193 1464h-406z" />
<glyph unicode="U" horiz-adv-x="1308" d="M104 496l146 1101h147l-143 -1091q-8 -62 -8 -114q0 -130 52 -193q73 -88 263 -88q191 0 293.5 89.5t130.5 305.5l143 1091h148l-146 -1101q-36 -279 -174 -399t-399 -120q-131 0 -222.5 27.5t-150.5 87.5q-60 62 -80 162q-10 51 -9 112q0 60 9 130z" />
<glyph unicode="V" horiz-adv-x="1251" d="M168 1597h156l217 -1452l598 1452h161l-673 -1613h-211z" />
<glyph unicode="W" horiz-adv-x="1832" d="M193 1597h151l62 -1431l516 1431h198l142 -1431l436 1431h160l-508 -1613h-203l-141 1462l-525 -1462h-200z" />
<glyph unicode="X" horiz-adv-x="1255" d="M-37 0l576 803l-369 794h168l307 -671l479 671h176l-575 -800l369 -797h-168l-305 672l-482 -672h-176z" />
<glyph unicode="Y" horiz-adv-x="1181" d="M152 1597h153l270 -933l508 933h166l-620 -1114l-64 -483h-147l63 483z" />
<glyph unicode="Z" horiz-adv-x="1153" d="M-20 0l12 102l973 1368l-258 -6h-514l16 133h948l-12 -102l-973 -1368l258 6h555l-16 -133h-989z" />
<glyph unicode="[" horiz-adv-x="649" d="M4 -246l258 1966h426l-16 -133h-283l-223 -1700h280l-16 -133h-426z" />
<glyph unicode="\" horiz-adv-x="673" d="M158 1720h139l213 -1966h-139z" />
<glyph unicode="]" horiz-adv-x="649" d="M-47 -246l16 133h283l223 1700h-280l16 133h426l-258 -1966h-426z" />
<glyph unicode="^" d="M33 565l618 1032h144l346 -1032h-142l-292 871l-521 -871h-153z" />
<glyph unicode="_" horiz-adv-x="655" d="M-39 -276l19 131h458l-18 -131h-459z" />
<glyph unicode="`" horiz-adv-x="1024" d="M354 1597h156l139 -340h-147z" />
<glyph unicode="a" horiz-adv-x="1048" d="M27 276l4 33q11 83 43.5 140.5t89 91.5t115.5 52t147 32l336 53l6 45q5 38 5 70q1 84 -35 130q-50 64 -193 64q-74 0 -127.5 -20.5t-84 -59t-46.5 -81.5t-23 -99h-137l4 27q8 54 23.5 100.5t47.5 94.5t76 82t114 55.5t157 21.5q114 0 192 -29t117 -82q38 -53 52 -127 q6 -35 7 -74q0 -43 -8 -91l-53 -398l-27 -307h-118v152q-66 -77 -163 -126t-224 -49q-154 -1 -234 83q-66 69 -66 171q0 22 3 45zM174 289q-2 -15 -2 -28q0 -59 38 -104q47 -55 146 -55q224 0 355 177l37 286l-320 -51q-227 -36 -250 -197z" />
<glyph unicode="b" horiz-adv-x="1099" d="M25 0l51 307l174 1331h143l-88 -667q50 62 130 99.5t177 37.5q144 0 235 -72.5t121 -193.5q18 -70 18 -153q0 -60 -9 -126l-6 -45q-17 -122 -52.5 -218t-92.5 -170t-142 -113.5t-192 -39.5q-114 0 -195.5 55.5t-114.5 125.5l-39 -158h-118zM215 283q32 -72 96.5 -124.5 t161.5 -52.5q150 0 237.5 106.5t114.5 301.5l6 45q8 58 8 109q1 121 -45 200q-64 111 -216 111q-176 0 -291 -158z" />
<glyph unicode="c" horiz-adv-x="1069" d="M70 522l6 45q17 121 53.5 217t95.5 170t147.5 114t200.5 40q117 0 202 -36.5t127 -95.5q42 -60 57 -126q9 -38 9 -77q0 -29 -5 -58l-5 -27h-137q5 31 5 60q0 89 -47 150q-62 81 -206 81q-148 0 -236.5 -106.5t-115.5 -301.5l-6 -45q-8 -57 -8 -106q0 -122 48 -202 q67 -112 224 -112q256 0 299 271h140l-5 -27q-12 -76 -39 -138.5t-76 -117.5t-130 -86t-189 -31q-156 0 -257 73.5t-137 194.5q-23 76 -23 167q0 53 8 110z" />
<glyph unicode="d" horiz-adv-x="1105" d="M70 522l6 45q17 122 52.5 218t92.5 170t142 113.5t192 39.5q59 0 111 -16t88 -41t60 -50t38 -49l90 686h143l-176 -1343l-26 -295h-123v137q-52 -73 -139 -116.5t-187 -43.5q-144 0 -235 73q-91 74 -121 194q-17 70 -17 151q0 60 9 127zM215 526q-8 -58 -8 -108 q1 -122 47 -201q66 -111 215 -111q176 0 293 156l69 539q-32 72 -96.5 125t-161.5 53q-150 0 -237.5 -106.5t-114.5 -301.5z" />
<glyph unicode="e" horiz-adv-x="1114" d="M64 350q-1 23 -1 47q0 60 7 125l6 45q16 119 56 216t102.5 170.5t154 114t203.5 40.5q97 0 171.5 -26t121.5 -74.5t75 -115.5q30 -68 34 -150q1 -24 1 -50q0 -61 -8 -129l-10 -80h-766q-4 -41 -4 -77q0 -300 295 -300q78 0 138.5 21t97 56.5t57 76.5t26.5 88h137l-4 -26 q-10 -62 -42.5 -121t-86.5 -110.5t-139 -82.5t-188 -31q-106 0 -187.5 28t-131.5 77.5t-80.5 118t-34.5 149.5zM225 602h623q7 52 7 97q1 114 -45 183q-64 97 -218 97q-147 0 -245 -104t-122 -273z" />
<glyph unicode="f" horiz-adv-x="778" d="M88 956l16 129h172l37 275q40 301 359 301q97 0 147 -25l-16 -123q-15 7 -52.5 13t-70.5 6q-101 0 -157 -44.5t-70 -156.5l-33 -246h303l-16 -129h-304l-124 -956h-144l125 956h-172z" />
<glyph unicode="g" horiz-adv-x="1099" d="M16 -27l4 27h134q-7 -45 -7 -83q0 -93 43 -145q60 -75 209 -75q160 0 232 72t92 225l25 199q-50 -62 -131 -100t-179 -38q-89 0 -158.5 26t-112.5 72.5t-70 110t-31 139.5q-1 22 -1 44q0 56 7 116l6 45q15 113 49.5 202.5t91 157t141 104t191.5 36.5q114 0 196.5 -55 t114.5 -125l39 157h119l-51 -307l-105 -794q-53 -416 -465 -416q-115 0 -198 31.5t-126 87.5t-57 128q-8 38 -8 80q0 37 6 78zM217 567q-7 -51 -7 -95q0 -114 46 -187q65 -101 219 -101q175 0 293 158l61 461q-30 71 -95.5 123.5t-162.5 52.5q-297 0 -348 -367z" />
<glyph unicode="h" horiz-adv-x="1081" d="M33 0l215 1638h143l-90 -686q55 69 143.5 112.5t198.5 43.5q172 0 251 -94q62 -75 62 -190q0 -31 -4 -64l-100 -760h-143l98 739q4 28 4 53q0 81 -43 127q-56 60 -174 60q-187 0 -311 -170l-107 -809h-143z" />
<glyph unicode="i" horiz-adv-x="442" d="M49 0l141 1085h144l-141 -1085h-144zM205 1341l24 185h185l-25 -185h-184z" />
<glyph unicode="j" horiz-adv-x="442" d="M-328 -408l17 125q15 -7 52.5 -13.5t70.5 -6.5q100 0 155.5 45t69.5 158l153 1185h144l-158 -1214q-40 -303 -356 -303q-100 0 -148 24zM205 1341l24 185h185l-25 -185h-184z" />
<glyph unicode="k" horiz-adv-x="1026" d="M33 0l215 1638h143l-147 -1118l585 565h183l-428 -409l286 -676h-155l-240 573l-258 -249l-41 -324h-143z" />
<glyph unicode="l" horiz-adv-x="442" d="M49 0l215 1638h144l-215 -1638h-144z" />
<glyph unicode="m" horiz-adv-x="1648" d="M33 0l104 791l27 294h123v-145q56 74 140.5 121t190.5 47q117 0 187.5 -48.5t91.5 -131.5q62 80 150.5 130t195.5 50q149 0 227 -84q62 -66 62 -177q0 -29 -4 -61l-103 -786h-143l100 766q3 25 3 47q0 77 -38 116q-49 50 -153 50q-90 0 -166 -50t-121 -114l-106 -815 h-144l101 766q3 25 3 47q-1 77 -39 116q-50 50 -153 50q-90 0 -164.5 -49.5t-121.5 -114.5l-107 -815h-143z" />
<glyph unicode="n" horiz-adv-x="1081" d="M33 0l104 791l27 294h123v-151q59 81 150 127.5t206 46.5q172 0 251 -94q62 -75 62 -190q0 -31 -4 -64l-100 -760h-143l98 739q4 28 4 53q0 81 -43 127q-56 60 -174 60q-187 0 -311 -170l-107 -809h-143z" />
<glyph unicode="o" horiz-adv-x="1114" d="M70 522l6 45q17 120 54.5 217t98 170.5t150 113.5t201.5 40q119 0 206.5 -42t135.5 -116.5t64 -172.5q8 -50 9 -104q0 -53 -8 -110l-6 -45q-17 -120 -55 -217t-98.5 -170.5t-150.5 -113.5t-202 -40q-119 0 -206 42t-135 117q-48 74 -64 172q-8 50 -8 104q0 53 8 110z M215 526q-8 -59 -8 -110q-1 -122 45 -200q64 -110 223 -110q150 0 242 107t119 301l6 45q8 58 8 108q0 122 -46 201q-66 111 -224 111q-150 0 -241 -107t-118 -301z" />
<glyph unicode="p" horiz-adv-x="1099" d="M-20 -410l157 1201l27 294h123v-137q52 73 138.5 116.5t186.5 43.5q144 0 235 -72.5t121 -193.5q18 -70 18 -153q0 -60 -9 -126l-6 -45q-17 -122 -52.5 -218t-92.5 -170t-142 -113.5t-192 -39.5q-59 0 -111 16t-88 41t-60 50t-38 49l-72 -543h-143zM215 285 q32 -72 96.5 -125.5t161.5 -53.5q150 0 237.5 106.5t114.5 301.5l6 45q8 58 8 109q0 122 -46 200q-65 111 -215 111q-176 0 -293 -156z" />
<glyph unicode="q" horiz-adv-x="1103" d="M68 522l6 45q17 122 52.5 218t92.5 170t142 113.5t192 39.5q114 0 195 -55t114 -125l39 157h119l-51 -307l-156 -1188h-143l69 525q-50 -62 -130 -100t-177 -38q-144 0 -235 73t-121 194q-17 69 -17 151q0 60 9 127zM213 526q-8 -58 -8 -109q0 -122 46 -200 q65 -111 216 -111q176 0 291 158l71 539q-32 72 -96.5 124t-161.5 52q-150 0 -237.5 -106.5t-114.5 -301.5z" />
<glyph unicode="r" horiz-adv-x="681" d="M33 0l104 791l27 294h123v-141q53 74 134.5 119t186.5 45l29 -2l-16 -141h-29q-76 0 -142 -29t-103 -64.5t-66 -78.5l-105 -793h-143z" />
<glyph unicode="s" horiz-adv-x="1069" d="M57 305l4 27h142q-3 -23 -3 -43q0 -79 45 -125q57 -58 210 -58q146 0 217 54t71 164q0 79 -60 116t-204 58q-199 27 -280 103q-68 64 -68 165q0 19 2 39l2 16q17 135 126 211t292 76q222 0 316 -94q74 -74 75 -188q0 -31 -6 -64l-4 -27h-139q4 27 4 52q0 84 -43 131 q-55 61 -203 61q-277 0 -277 -205q0 -72 59 -107.5t210 -54.5q189 -22 275 -99q71 -64 70 -172q0 -23 -3 -48l-2 -17q-18 -137 -128.5 -218t-301.5 -81q-117 0 -202 26.5t-129.5 73t-60.5 103.5q-10 35 -10 74q0 25 4 51z" />
<glyph unicode="t" horiz-adv-x="819" d="M88 956l16 129h172l41 308h144l-41 -308h344l-16 -129h-345l-84 -639q-4 -32 -4 -59q-1 -72 31 -106q44 -46 135 -46q80 0 137 19l-16 -125q-69 -23 -141 -23q-155 0 -232 79q-60 61 -60 177q0 33 5 70l86 653h-172z" />
<glyph unicode="u" horiz-adv-x="1081" d="M68 326l100 759h143l-98 -739q-4 -28 -4 -53q0 -81 43 -127q56 -60 174 -60q187 0 311 170l107 809h143l-104 -790l-27 -295h-123v152q-59 -81 -150 -128t-206 -47q-172 0 -251 95q-62 75 -62 190q0 31 4 64z" />
<glyph unicode="v" horiz-adv-x="1048" d="M92 1085h150l194 -950l447 950h157l-522 -1085h-188z" />
<glyph unicode="w" horiz-adv-x="1468" d="M104 1085h142l67 -935l373 935h174l129 -935l311 935h146l-375 -1085h-190l-127 926l-369 -926h-188z" />
<glyph unicode="x" horiz-adv-x="993" d="M-53 0l434 547l-293 538h166l225 -430l334 430h174l-436 -544l295 -541h-166l-225 430l-334 -430h-174z" />
<glyph unicode="y" horiz-adv-x="991" d="M88 1085h148l194 -888l426 888h160l-527 -1044l-213 -451h-165l229 451z" />
<glyph unicode="z" horiz-adv-x="948" d="M-29 0l13 98l708 860l-241 -2h-334l16 129h760l-12 -98l-709 -860l242 2h374l-16 -129h-801z" />
<glyph unicode="{" horiz-adv-x="649" d="M37 670l16 135q95 0 141 36.5t60 143.5l59 453q10 81 43 138.5t81.5 87.5t100.5 43t113 13h37l-16 -133q-105 0 -155.5 -46t-67.5 -171l-56 -424q-12 -84 -49.5 -134t-105.5 -75q62 -27 86 -76t14 -135l-55 -424q-10 -53 -6.5 -90.5t12.5 -62t32 -38t52 -19t73 -5.5 l-16 -133h-37q-61 0 -110.5 15.5t-88.5 48t-56 92t-7 139.5l57 440q14 107 -21 144t-130 37z" />
<glyph unicode="|" horiz-adv-x="411" d="M2 -246l258 1966h143l-258 -1966h-143z" />
<glyph unicode="}" horiz-adv-x="649" d="M-47 -246l16 133q105 0 156 46t68 171l55 424q12 84 49.5 134t105.5 75q-62 27 -86 76t-14 135l55 424q10 53 6.5 90.5t-12.5 62t-32 38t-51.5 19t-73.5 5.5l16 133h37q61 0 110.5 -15.5t88.5 -48t56 -92t7 -139.5l-57 -440q-14 -107 21 -143.5t130 -36.5l-16 -135 q-95 0 -141 -37t-60 -144l-59 -452q-10 -81 -43 -138.5t-81.5 -88t-100.5 -43.5t-113 -13h-37z" />
<glyph unicode="~" d="M74 768q46 66 121 111t174 45q73 0 144 -23t117.5 -50t110 -50t123.5 -23q126 0 217 115l78 -82q-46 -66 -121 -111t-174 -45q-73 0 -144 23t-117.5 50t-110 50t-123.5 23q-126 0 -217 -115z" />
<glyph unicode="&#xa1;" horiz-adv-x="444" d="M-20 -410l186 1108h94l-106 -1108h-174zM147 901l25 184h184l-24 -184h-185z" />
<glyph unicode="&#xa2;" d="M125 758l10 82q40 320 189.5 484.5t396.5 164.5q56 0 80 -4l88 235h127l-96 -258q88 -30 142.5 -99t71 -160t-0.5 -199l-5 -27h-143q40 275 -115 350l-397 -1071q36 -10 98 -10h7q311 0 354 332h145l-4 -29q-30 -208 -155 -322t-345 -114q-79 0 -147 14l-92 -250h-125 l106 291q-247 142 -190 590zM276 758q-42 -324 93 -447l385 1041q-21 2 -29 2h-6q-369 0 -432 -514z" />
<glyph unicode="&#xa3;" d="M14 0l17 135h338q4 74 -1.5 159t-12.5 136.5t-23 152.5t-21 136h-205l19 133h164q-8 98 -8 207q0 125 25.5 224t79.5 176.5t146 119t218 41.5q129 0 219 -39.5t135.5 -110.5t61.5 -169.5t-3 -217.5l-8 -59h-143q71 463 -262 463q-318 0 -318 -445q0 -71 14 -190h410 l-18 -133h-375q1 -10 8.5 -68t9.5 -75t8 -69.5t7.5 -76.5t4.5 -70.5t3.5 -77.5t-0.5 -71t-4 -76h532l-18 -135h-1000z" />
<glyph unicode="&#xa5;" d="M47 438l16 135h426l-96 275h-293l19 135h233l-209 614h156l299 -905l535 905h170l-371 -614h235l-18 -135h-295l-170 -275h428l-16 -135h-451l-57 -438h-148l58 438h-451z" />
<glyph unicode="&#xa6;" horiz-adv-x="411" d="M2 -246l119 910h143l-119 -910h-143zM141 811l119 909h143l-118 -909h-144z" />
<glyph unicode="&#xa7;" horiz-adv-x="1050" d="M37 324l4 26h139q-16 -122 39 -183t203 -61q276 0 276 205q0 72 -58.5 107.5t-209.5 54.5q-188 24 -273 102t-67 222l2 16q12 97 73.5 159t186.5 95q-69 25 -107.5 89.5t-27.5 160.5l2 16q18 139 122.5 213t295.5 74q222 0 316 -93.5t69 -252.5l-4 -27h-139 q16 122 -39 183t-203 61q-277 0 -277 -205q0 -72 59 -107.5t210 -54.5q188 -24 273 -101.5t67 -221.5l-2 -17q-12 -97 -73.5 -159t-186.5 -95q69 -25 107.5 -89t27.5 -160l-2 -17q-18 -139 -122.5 -213t-295.5 -74q-222 0 -316 94t-69 253zM231 762q0 -86 73.5 -128 t193.5 -42h22q143 0 225 68t82 176q0 86 -73 128t-193 42h-22q-144 0 -226 -67.5t-82 -176.5z" />
<glyph unicode="&#xa8;" horiz-adv-x="1024" d="M324 1341l24 185h184l-24 -185h-184zM666 1341l24 185h184l-24 -185h-184z" />
<glyph unicode="&#xa9;" horiz-adv-x="1884" d="M121 799q0 167 65 319t175 262t262 175t319 65t319 -65t262 -175t175 -262t65 -319t-65 -319t-175 -262.5t-262 -175.5t-319 -65t-319 65t-262 175.5t-175 262.5t-65 319zM209 799q0 -200 98 -368.5t266.5 -266.5t368.5 -98t368.5 98t266.5 266.5t98 368.5t-98 368.5 t-266.5 266.5t-368.5 98t-368.5 -98t-266.5 -266.5t-98 -368.5zM516 774v49q0 70 14.5 136.5t47 129.5t80.5 110t121.5 75.5t162.5 28.5q84 0 152.5 -22t112 -56t73 -78.5t41.5 -87.5t12 -84v-35h-133q0 47 -13 87t-41.5 74.5t-80 54.5t-121.5 20q-76 0 -133.5 -30 t-90.5 -81.5t-49 -112.5t-16 -129v-49q0 -68 16 -129t49 -112t90.5 -81t133.5 -30q72 0 124.5 20t79.5 53.5t39.5 68.5t12.5 73h133v-27q0 -40 -12 -81t-41.5 -83.5t-73 -75.5t-112 -54t-152.5 -21q-111 0 -196 42.5t-133.5 113.5t-72.5 152.5t-24 170.5z" />
<glyph unicode="&#xaa;" horiz-adv-x="798" d="M51 434l17 117h624l-16 -117h-625zM111 1010l4 26q9 58 33 99t64.5 66.5t87.5 40t114 24.5l237 34l4 27q14 91 -22 138.5t-133 47.5t-139 -47t-54 -131h-125l4 27q7 51 26 93.5t53.5 81.5t94.5 61t140 22q91 0 153 -23t91 -64t39.5 -98t-1.5 -124l-39 -289l-20 -227h-109 v108q-37 -53 -115 -90t-165 -37q-124 0 -181.5 65.5t-41.5 168.5zM238 1006q-9 -58 23.5 -88.5t107.5 -30.5t141.5 35.5t101.5 76.5l27 213l-221 -34q-79 -12 -122.5 -47t-53.5 -99z" />
<glyph unicode="&#xab;" horiz-adv-x="1058" d="M84 635l16 127l459 311l-18 -149l-336 -232l274 -233l-18 -137zM520 635l17 127l458 311l-18 -149l-336 -232l274 -233l-18 -137z" />
<glyph unicode="&#xac;" d="M129 1006l18 135h1031l-93 -705h-139l76 570h-893z" />
<glyph unicode="&#xad;" horiz-adv-x="673" d="M66 651l18 131h508l-19 -131h-507z" />
<glyph unicode="&#xae;" horiz-adv-x="675" d="M39 1362q0 123 88 211t211 88t211 -88t88 -211t-88 -211t-211 -88t-211 88t-88 211zM88 1362q0 -103 73.5 -176.5t176.5 -73.5t176.5 73.5t73.5 176.5t-73.5 176.5t-176.5 73.5t-176.5 -73.5t-73.5 -176.5zM207 1186v352h147q52 0 83.5 -26.5t31.5 -77.5v-15 q0 -73 -61 -96l61 -137h-74l-55 129h-61v-129h-72zM279 1374h61q57 0 57 49v7q0 47 -57 47h-61v-103z" />
<glyph unicode="&#xaf;" horiz-adv-x="1024" d="M350 1360l19 135h477l-17 -135h-479z" />
<glyph unicode="&#xb0;" horiz-adv-x="819" d="M164 1298l2 19q17 147 106 225t228 78q148 0 230 -82t65 -225l-2 -19q-17 -147 -106 -225t-228 -78q-148 0 -230 82t-65 225zM274 1298q-9 -89 38.5 -142.5t138.5 -53.5h16q91 0 148 46.5t67 145.5l2 19q9 89 -38 142.5t-138 53.5h-16q-91 0 -148.5 -47t-67.5 -145z" />
<glyph unicode="&#xb1;" d="M39 330l18 135h1035l-19 -135h-1034zM115 907l18 135h449l39 287h137l-39 -287h448l-18 -135h-449l-38 -286h-138l39 286h-448z" />
<glyph unicode="&#xb2;" horiz-adv-x="614" d="M55 799l11 82l372 344q43 40 62.5 69.5t23.5 65.5l2 16q9 66 -23.5 98.5t-92.5 32.5h-13q-141 0 -157 -176h-115l6 45q33 234 272 234q132 0 191.5 -64.5t48.5 -161.5l-2 -16q-7 -60 -35 -102.5t-84 -94.5l-295 -272h355l-15 -100h-512z" />
<glyph unicode="&#xb3;" horiz-adv-x="614" d="M80 1038l2 17h117q-27 -168 116 -168h15q135 0 151 121l2 16q7 64 -23 97.5t-91 33.5h-113l12 102h111q133 0 147 111l2 16q7 62 -25.5 92.5t-92.5 30.5h-13q-141 0 -157 -176h-115l6 45q33 234 272 234q128 0 190.5 -61.5t51.5 -155.5l-2 -17q-7 -67 -46.5 -114 t-94.5 -56q52 -13 78.5 -64.5t17.5 -119.5l-2 -16q-12 -97 -85 -159.5t-189 -62.5q-274 0 -242 254z" />
<glyph unicode="&#xb4;" horiz-adv-x="1024" d="M502 1257l229 340h156l-238 -340h-147z" />
<glyph unicode="&#xb6;" horiz-adv-x="1050" d="M117 1112l6 41q67 444 543 444h356l-209 -1597h-147l192 1464h-84l-190 -1464h-148l84 649q-65 0 -125.5 13.5t-119 48t-98.5 85.5t-57.5 132.5t-2.5 183.5zM268 1114q-10 -75 1 -133.5t36.5 -95t64.5 -60.5t80.5 -33.5t88.5 -9.5l88 682q-43 0 -84 -7.5t-87 -29 t-82 -55.5t-64 -92.5t-38 -134.5z" />
<glyph unicode="&#xb7;" horiz-adv-x="444" d="M111 625l24 184h184l-24 -184h-184z" />
<glyph unicode="&#xb8;" horiz-adv-x="1232" d="M174 -377l41 74q62 -43 145 -43q127 0 127 80q0 69 -112 69l-64 -6l-26 39l84 164h94l-64 -119h9q75 -2 125.5 -35t50.5 -106q0 -87 -60.5 -129.5t-161.5 -42.5q-56 0 -107 16t-81 39z" />
<glyph unicode="&#xb9;" horiz-adv-x="614" d="M70 799l14 100h192l74 553l-174 -109l-45 87l270 169h82l-92 -700h195l-15 -100h-501z" />
<glyph unicode="&#xba;" horiz-adv-x="856" d="M53 434l17 117h661l-16 -117h-662zM135 1184l4 26q30 195 127 302.5t254 107.5q190 0 265 -108.5t46 -299.5l-4 -26q-30 -195 -127 -302.5t-254 -107.5q-190 0 -265 108.5t-46 299.5zM266 1184q-22 -140 23.5 -216.5t161.5 -76.5q104 0 162.5 72t82.5 223l4 26 q22 140 -23 216.5t-161 76.5q-105 0 -163.5 -72t-82.5 -223z" />
<glyph unicode="&#xbb;" horiz-adv-x="1058" d="M43 322l18 149l336 231l-274 234l18 137l377 -313l-16 -127zM479 322l19 149l336 231l-275 234l19 137l376 -313l-16 -127z" />
<glyph unicode="&#xbc;" horiz-adv-x="1638" d="M59 0l1389 1597h143l-1388 -1597h-144zM70 799l14 100h192l74 553l-174 -109l-45 87l270 169h82l-92 -700h195l-15 -100h-501zM977 195l10 81l399 523h115l-65 -504h110l-14 -100h-111l-24 -195h-115l27 195h-332zM1122 293l74 2h125l31 227l12 86z" />
<glyph unicode="&#xbd;" horiz-adv-x="1638" d="M59 0l1389 1597h143l-1388 -1597h-144zM70 799l14 100h192l74 553l-174 -109l-45 87l270 169h82l-92 -700h195l-15 -100h-501zM975 0l10 82l373 344q43 40 62.5 69.5t23.5 65.5l2 17q9 66 -23.5 98.5t-93.5 32.5h-12q-66 0 -107.5 -42.5t-50.5 -134.5h-115l7 46 q33 233 272 233q132 0 191.5 -64t48.5 -161l-2 -17q-7 -60 -35 -102t-84 -94l-295 -273h354l-14 -100h-512z" />
<glyph unicode="&#xbe;" horiz-adv-x="1638" d="M59 0l1389 1597h143l-1388 -1597h-144zM80 1038l2 17h117q-27 -168 116 -168h15q135 0 151 121l2 16q7 64 -23 97.5t-91 33.5h-113l12 102h111q133 0 147 111l2 16q7 62 -25.5 92.5t-92.5 30.5h-13q-141 0 -157 -176h-115l6 45q33 234 272 234q128 0 190.5 -61.5 t51.5 -155.5l-2 -17q-7 -67 -46.5 -114t-94.5 -56q52 -13 78.5 -64.5t17.5 -119.5l-2 -16q-12 -97 -85 -159.5t-189 -62.5q-274 0 -242 254zM977 195l10 81l399 523h115l-65 -504h110l-14 -100h-111l-24 -195h-115l27 195h-332zM1122 293l74 2h125l31 227l12 86z" />
<glyph unicode="&#xbf;" horiz-adv-x="931" d="M-55 -102q0 91 22 163t58 119.5t80.5 88.5t92.5 81t90 84.5t76 112t48 151.5h94q-7 -85 -33.5 -158t-63 -125t-79.5 -98.5t-84.5 -90t-75.5 -88.5t-55 -103.5t-21 -126.5q0 -207 223 -207q148 0 225.5 103.5t102.5 318.5h148l-5 -29q-38 -270 -146 -398t-327 -128 q-191 0 -280.5 87t-89.5 243zM395 901l25 184h184l-24 -184h-185z" />
<glyph unicode="&#xc0;" horiz-adv-x="1251" d="M-41 0l674 1614h209l250 -1614h-156l-62 410h-585l-168 -410h-162zM344 543h510l-135 909zM580 1946h151l92 -226h-147z" />
<glyph unicode="&#xc1;" horiz-adv-x="1251" d="M-41 0l674 1614h209l250 -1614h-156l-62 410h-585l-168 -410h-162zM344 543h510l-135 909zM676 1720l153 226h152l-158 -226h-147z" />
<glyph unicode="&#xc2;" horiz-adv-x="1251" d="M-41 0l674 1614h209l250 -1614h-156l-62 410h-585l-168 -410h-162zM344 543h510l-135 909zM467 1720l248 226h131l186 -226h-137l-117 142l-160 -142h-151z" />
<glyph unicode="&#xc3;" horiz-adv-x="1251" d="M-41 0l674 1614h209l250 -1614h-156l-62 410h-585l-168 -410h-162zM344 543h510l-135 909zM442 1749q10 95 63 142.5t128 47.5q41 0 81 -18.5t65.5 -40.5t57 -40.5t58.5 -18.5q38 0 63 23.5t29 72.5h98q-10 -95 -62.5 -143t-127.5 -48q-41 0 -81 18.5t-65.5 41t-57 41 t-58.5 18.5q-38 0 -63 -23.5t-29 -72.5h-99z" />
<glyph unicode="&#xc4;" horiz-adv-x="1251" d="M-41 0l674 1614h209l250 -1614h-156l-62 410h-585l-168 -410h-162zM344 543h510l-135 909zM514 1761l18 144h162l-18 -144h-162zM834 1761l18 144h162l-19 -144h-161z" />
<glyph unicode="&#xc5;" horiz-adv-x="1251" d="M-41 0l674 1612q-72 51 -72 149q0 88 62 147.5t151 59.5q83 0 130.5 -49.5t47.5 -128.5q0 -60 -29.5 -107.5t-80.5 -74.5l250 -1608h-156l-62 410h-585l-168 -410h-162zM344 543h510l-135 909zM641 1761q0 -44 26 -72t72 -28q56 0 94.5 33t38.5 96q0 44 -26 72t-72 28 q-56 0 -94.5 -33t-38.5 -96z" />
<glyph unicode="&#xc6;" horiz-adv-x="1714" d="M-59 0l800 1597h1000l-17 -133h-772l6 -583h584l-16 -131h-565l6 -617h581l-16 -133h-715l-4 426h-506l-209 -426h-157zM373 557h438l-6 883z" />
<glyph unicode="&#xc7;" horiz-adv-x="1265" d="M115 758l10 82q52 410 206.5 595t432.5 185q255 0 366 -137.5t74 -407.5l-8 -59h-152q32 248 -33 359.5t-245 111.5h-14q-202 0 -318 -154.5t-158 -492.5l-10 -82q-43 -340 30 -493.5t275 -153.5h15q176 0 271 103t122 306h151l-4 -28q-34 -244 -157 -372t-351 -140 l-51 -99h8q75 -2 126 -35t51 -106q0 -87 -60.5 -129.5t-161.5 -42.5q-56 0 -107 16t-81 39l41 74q62 -43 145 -43q127 0 127 80q0 69 -112 69l-64 -6l-26 39l71 144q-255 14 -357 200.5t-52 577.5z" />
<glyph unicode="&#xc8;" horiz-adv-x="1124" d="M51 0l209 1597h891l-16 -133h-746l-76 -583h641l-18 -131h-641l-80 -617h743l-16 -133h-891zM567 1946h152l92 -226h-147z" />
<glyph unicode="&#xc9;" horiz-adv-x="1124" d="M51 0l209 1597h891l-16 -133h-746l-76 -583h641l-18 -131h-641l-80 -617h743l-16 -133h-891zM664 1720l153 226h152l-158 -226h-147z" />
<glyph unicode="&#xca;" horiz-adv-x="1124" d="M51 0l209 1597h891l-16 -133h-746l-76 -583h641l-18 -131h-641l-80 -617h743l-16 -133h-891zM455 1720l247 226h132l186 -226h-137l-117 142l-160 -142h-151z" />
<glyph unicode="&#xcb;" horiz-adv-x="1124" d="M51 0l209 1597h891l-16 -133h-746l-76 -583h641l-18 -131h-641l-80 -617h743l-16 -133h-891zM502 1761l18 144h162l-18 -144h-162zM821 1761l19 144h161l-18 -144h-162z" />
<glyph unicode="&#xcc;" horiz-adv-x="468" d="M61 0l209 1597h148l-209 -1597h-148zM190 1946h152l92 -226h-147z" />
<glyph unicode="&#xcd;" horiz-adv-x="468" d="M61 0l209 1597h148l-209 -1597h-148zM287 1720l153 226h152l-158 -226h-147z" />
<glyph unicode="&#xce;" horiz-adv-x="468" d="M61 0l209 1597h148l-209 -1597h-148zM78 1720l248 226h131l186 -226h-137l-117 142l-160 -142h-151z" />
<glyph unicode="&#xcf;" horiz-adv-x="468" d="M61 0l209 1597h148l-209 -1597h-148zM125 1761l18 144h162l-18 -144h-162zM444 1761l19 144h162l-19 -144h-162z" />
<glyph unicode="&#xd0;" horiz-adv-x="1431" d="M35 750l18 131h236l94 716h403q119 0 212 -25.5t165.5 -81.5t113 -144.5t55 -214.5t-8.5 -291l-10 -82q-95 -758 -721 -758h-418l98 750h-237zM338 133h258q487 0 565 625l10 82q19 171 4 289.5t-70 193t-136.5 108t-196.5 33.5h-258l-78 -583h438l-18 -131h-436z" />
<glyph unicode="&#xd1;" horiz-adv-x="1349" d="M51 0l209 1597h156l577 -1347l43 375l127 972h144l-209 -1597h-156l-577 1348l-43 -375l-127 -973h-144zM492 1749q10 95 62.5 142.5t127.5 47.5q41 0 81 -18.5t65.5 -40.5t57 -40.5t58.5 -18.5q38 0 63 23.5t29 72.5h99q-10 -95 -63 -143t-128 -48q-41 0 -81 18.5 t-65.5 41t-57 41t-58.5 18.5q-38 0 -63 -23.5t-29 -72.5h-98z" />
<glyph unicode="&#xd2;" horiz-adv-x="1329" d="M115 758l10 82q52 410 206 595t431 185q280 0 395 -186.5t64 -593.5l-11 -82q-52 -410 -206 -595.5t-431 -185.5q-279 0 -394.5 187t-63.5 594zM266 758q-43 -341 29.5 -494t273.5 -153h15q203 0 318 154.5t157 492.5l10 82q43 341 -29.5 494t-273.5 153h-14 q-203 0 -318.5 -154.5t-157.5 -492.5zM618 1946h152l92 -226h-147z" />
<glyph unicode="&#xd3;" horiz-adv-x="1329" d="M115 758l10 82q52 410 206 595t431 185q280 0 395 -186.5t64 -593.5l-11 -82q-52 -410 -206 -595.5t-431 -185.5q-279 0 -394.5 187t-63.5 594zM266 758q-43 -341 29.5 -494t273.5 -153h15q203 0 318 154.5t157 492.5l10 82q43 341 -29.5 494t-273.5 153h-14 q-203 0 -318.5 -154.5t-157.5 -492.5zM715 1720l153 226h152l-158 -226h-147z" />
<glyph unicode="&#xd4;" horiz-adv-x="1329" d="M115 758l10 82q52 410 206 595t431 185q280 0 395 -186.5t64 -593.5l-11 -82q-52 -410 -206 -595.5t-431 -185.5q-279 0 -394.5 187t-63.5 594zM266 758q-43 -341 29.5 -494t273.5 -153h15q203 0 318 154.5t157 492.5l10 82q43 341 -29.5 494t-273.5 153h-14 q-203 0 -318.5 -154.5t-157.5 -492.5zM506 1720l248 226h131l186 -226h-137l-117 142l-160 -142h-151z" />
<glyph unicode="&#xd5;" horiz-adv-x="1329" d="M115 758l10 82q52 410 206 595t431 185q280 0 395 -186.5t64 -593.5l-11 -82q-52 -410 -206 -595.5t-431 -185.5q-279 0 -394.5 187t-63.5 594zM266 758q-43 -341 29.5 -494t273.5 -153h15q203 0 318 154.5t157 492.5l10 82q43 341 -29.5 494t-273.5 153h-14 q-203 0 -318.5 -154.5t-157.5 -492.5zM481 1749q10 95 63 142.5t128 47.5q41 0 81 -18.5t65.5 -40.5t57 -40.5t58.5 -18.5q38 0 63 23.5t29 72.5h98q-10 -95 -62.5 -143t-127.5 -48q-41 0 -81 18.5t-65.5 41t-57 41t-58.5 18.5q-38 0 -63 -23.5t-29 -72.5h-99z" />
<glyph unicode="&#xd6;" horiz-adv-x="1329" d="M115 758l10 82q52 410 206 595t431 185q280 0 395 -186.5t64 -593.5l-11 -82q-52 -410 -206 -595.5t-431 -185.5q-279 0 -394.5 187t-63.5 594zM266 758q-43 -341 29.5 -494t273.5 -153h15q203 0 318 154.5t157 492.5l10 82q43 341 -29.5 494t-273.5 153h-14 q-203 0 -318.5 -154.5t-157.5 -492.5zM553 1761l18 144h162l-18 -144h-162zM872 1761l19 144h162l-19 -144h-162z" />
<glyph unicode="&#xd7;" d="M16 354l504 445l-385 444l109 96l387 -442l499 442l87 -96l-502 -444l385 -445l-111 -96l-385 442l-504 -442z" />
<glyph unicode="&#xd8;" horiz-adv-x="1306" d="M14 0l146 199q-93 194 -45 559l10 82q52 410 206 595t431 185q229 0 346 -123l74 100h139l-145 -198q93 -194 45 -559l-11 -82q-52 -410 -206 -595.5t-431 -185.5q-229 0 -346 123l-73 -100h-140zM266 758q-35 -262 2 -412l750 1028q-74 113 -252 113h-14 q-203 0 -318.5 -154.5t-157.5 -492.5zM317 223q73 -112 252 -112h15q203 0 318 154.5t157 492.5l10 82q35 262 -2 411z" />
<glyph unicode="&#xd9;" horiz-adv-x="1308" d="M104 496l146 1101h147l-143 -1091q-29 -219 44 -307t263 -88q191 0 293.5 89.5t130.5 305.5l143 1091h148l-146 -1101q-36 -279 -174 -399t-399 -120q-131 0 -222.5 27.5t-151 88t-79 161t-0.5 242.5zM608 1946h152l92 -226h-147z" />
<glyph unicode="&#xda;" horiz-adv-x="1308" d="M104 496l146 1101h147l-143 -1091q-29 -219 44 -307t263 -88q191 0 293.5 89.5t130.5 305.5l143 1091h148l-146 -1101q-36 -279 -174 -399t-399 -120q-131 0 -222.5 27.5t-151 88t-79 161t-0.5 242.5zM705 1720l153 226h152l-158 -226h-147z" />
<glyph unicode="&#xdb;" horiz-adv-x="1308" d="M104 496l146 1101h147l-143 -1091q-29 -219 44 -307t263 -88q191 0 293.5 89.5t130.5 305.5l143 1091h148l-146 -1101q-36 -279 -174 -399t-399 -120q-131 0 -222.5 27.5t-151 88t-79 161t-0.5 242.5zM496 1720l247 226h131l187 -226h-137l-117 142l-160 -142h-151z" />
<glyph unicode="&#xdc;" horiz-adv-x="1308" d="M104 496l146 1101h147l-143 -1091q-29 -219 44 -307t263 -88q191 0 293.5 89.5t130.5 305.5l143 1091h148l-146 -1101q-36 -279 -174 -399t-399 -120q-131 0 -222.5 27.5t-151 88t-79 161t-0.5 242.5zM543 1761l18 144h162l-18 -144h-162zM862 1761l19 144h161l-18 -144 h-162z" />
<glyph unicode="&#xdd;" horiz-adv-x="1181" d="M152 1597h153l270 -933l508 933h166l-620 -1114l-64 -483h-147l63 483zM643 1720l154 226h151l-157 -226h-148z" />
<glyph unicode="&#xde;" horiz-adv-x="1173" d="M51 0l209 1597h148l-43 -323h292q73 0 138 -12.5t128.5 -45t105 -83t60.5 -133.5t3 -189l-7 -41q-16 -106 -56.5 -186t-92.5 -128t-120.5 -78.5t-133.5 -41t-139 -10.5h-301l-43 -326h-148zM260 459h305q46 0 88 6.5t90.5 27t85.5 54.5t66.5 93t40.5 138l4 31 q11 79 -3.5 139.5t-44.5 96t-74 58t-86 30.5t-87 8h-297z" />
<glyph unicode="&#xdf;" horiz-adv-x="1169" d="M33 0l164 1247q26 197 140 305.5t318 108.5q218 0 311.5 -112.5t69.5 -301.5l-2 -16q-17 -133 -92.5 -232.5t-228.5 -191.5l84 -62q103 -75 159 -132.5t82.5 -125.5t16.5 -151l-2 -17q-6 -52 -21 -98t-45.5 -92t-73.5 -78.5t-109.5 -53t-148.5 -20.5q-81 0 -142.5 17.5 t-97 48t-57 72t-23 89.5t4.5 101l4 27h135q-9 -48 -6 -89.5t18 -72t56.5 -47.5t109.5 -17q130 0 193 73t63 181q0 76 -49.5 135t-185.5 158l-143 105l12 92q188 95 268 195.5t80 250.5q0 110 -58.5 171t-181.5 61q-277 0 -317 -291l-162 -1237h-143z" />
<glyph unicode="&#xe0;" horiz-adv-x="1048" d="M27 276l4 33q11 83 43.5 140.5t89 91.5t115.5 52t147 32l336 53l6 45q19 136 -30.5 200t-192.5 64q-74 0 -127.5 -20.5t-84 -59t-46.5 -81.5t-23 -99h-137l4 27q8 54 23.5 100.5t47.5 94.5t76 82t114 55.5t157 21.5q114 0 192 -29t117 -82t52.5 -127t-1.5 -165l-53 -398 l-27 -307h-118v152q-66 -77 -163 -126t-224 -49q-153 0 -233.5 83.5t-63.5 215.5zM174 289q-11 -77 36 -132t146 -55q224 0 355 177l37 286l-320 -51q-227 -36 -250 -197zM367 1597h155l140 -340h-148z" />
<glyph unicode="&#xe1;" horiz-adv-x="1048" d="M27 276l4 33q11 83 43.5 140.5t89 91.5t115.5 52t147 32l336 53l6 45q19 136 -30.5 200t-192.5 64q-74 0 -127.5 -20.5t-84 -59t-46.5 -81.5t-23 -99h-137l4 27q8 54 23.5 100.5t47.5 94.5t76 82t114 55.5t157 21.5q114 0 192 -29t117 -82t52.5 -127t-1.5 -165l-53 -398 l-27 -307h-118v152q-66 -77 -163 -126t-224 -49q-153 0 -233.5 83.5t-63.5 215.5zM174 289q-11 -77 36 -132t146 -55q224 0 355 177l37 286l-320 -51q-227 -36 -250 -197zM514 1257l229 340h156l-237 -340h-148z" />
<glyph unicode="&#xe2;" horiz-adv-x="1048" d="M27 276l4 33q11 83 43.5 140.5t89 91.5t115.5 52t147 32l336 53l6 45q19 136 -30.5 200t-192.5 64q-74 0 -127.5 -20.5t-84 -59t-46.5 -81.5t-23 -99h-137l4 27q8 54 23.5 100.5t47.5 94.5t76 82t114 55.5t157 21.5q114 0 192 -29t117 -82t52.5 -127t-1.5 -165l-53 -398 l-27 -307h-118v152q-66 -77 -163 -126t-224 -49q-153 0 -233.5 83.5t-63.5 215.5zM174 289q-11 -77 36 -132t146 -55q224 0 355 177l37 286l-320 -51q-227 -36 -250 -197zM256 1257l313 340h127l224 -340h-136l-159 232l-219 -232h-150z" />
<glyph unicode="&#xe3;" horiz-adv-x="1048" d="M27 276l4 33q11 83 43.5 140.5t89 91.5t115.5 52t147 32l336 53l6 45q19 136 -30.5 200t-192.5 64q-74 0 -127.5 -20.5t-84 -59t-46.5 -81.5t-23 -99h-137l4 27q8 54 23.5 100.5t47.5 94.5t76 82t114 55.5t157 21.5q114 0 192 -29t117 -82t52.5 -127t-1.5 -165l-53 -398 l-27 -307h-118v152q-66 -77 -163 -126t-224 -49q-153 0 -233.5 83.5t-63.5 215.5zM174 289q-11 -77 36 -132t146 -55q224 0 355 177l37 286l-320 -51q-227 -36 -250 -197zM281 1339q13 105 64 158t128 53q41 0 82.5 -18.5t69.5 -40.5t62.5 -40.5t62.5 -18.5q72 0 86 96h108 q-15 -105 -66.5 -158t-127.5 -53q-41 0 -82.5 18.5t-69.5 41t-62.5 41t-62.5 18.5q-33 0 -55.5 -23.5t-28.5 -73.5h-108z" />
<glyph unicode="&#xe4;" horiz-adv-x="1048" d="M27 276l4 33q11 83 43.5 140.5t89 91.5t115.5 52t147 32l336 53l6 45q19 136 -30.5 200t-192.5 64q-74 0 -127.5 -20.5t-84 -59t-46.5 -81.5t-23 -99h-137l4 27q8 54 23.5 100.5t47.5 94.5t76 82t114 55.5t157 21.5q114 0 192 -29t117 -82t52.5 -127t-1.5 -165l-53 -398 l-27 -307h-118v152q-66 -77 -163 -126t-224 -49q-153 0 -233.5 83.5t-63.5 215.5zM174 289q-11 -77 36 -132t146 -55q224 0 355 177l37 286l-320 -51q-227 -36 -250 -197zM336 1341l24 185h185l-25 -185h-184zM678 1341l24 185h185l-25 -185h-184z" />
<glyph unicode="&#xe5;" horiz-adv-x="1048" d="M27 276l4 33q11 83 43.5 140.5t89 91.5t115.5 52t147 32l336 53l6 45q19 136 -30.5 200t-192.5 64q-74 0 -127.5 -20.5t-84 -59t-46.5 -81.5t-23 -99h-137l4 27q8 54 23.5 100.5t47.5 94.5t76 82t114 55.5t157 21.5q114 0 192 -29t117 -82t52.5 -127t-1.5 -165l-53 -398 l-27 -307h-118v152q-66 -77 -163 -126t-224 -49q-153 0 -233.5 83.5t-63.5 215.5zM174 289q-11 -77 36 -132t146 -55q224 0 355 177l37 286l-320 -51q-227 -36 -250 -197zM416 1413q0 88 62 147.5t151 59.5q83 0 130.5 -49.5t47.5 -128.5q0 -88 -62 -147.5t-151 -59.5 q-83 0 -130.5 49.5t-47.5 128.5zM496 1413q0 -44 26 -72t72 -28q56 0 94.5 33t38.5 96q0 44 -26 72t-72 28q-56 0 -94.5 -33t-38.5 -96z" />
<glyph unicode="&#xe6;" horiz-adv-x="1783" d="M27 276l4 33q11 83 43.5 140.5t89 91.5t115.5 52t147 32l336 53l6 45q19 136 -30.5 200t-192.5 64q-74 0 -127.5 -20.5t-84 -59t-46.5 -81.5t-23 -99h-137l4 27q8 54 23.5 100.5t47.5 94.5t76 82t114 55.5t157 21.5q289 0 336 -199q133 199 381 199q97 0 171.5 -26 t121.5 -74.5t75.5 -116t33 -150t-6.5 -178.5l-10 -80h-766q-40 -377 291 -377q78 0 138.5 21t97 56.5t57 76.5t26.5 88h137l-4 -26q-10 -62 -42.5 -121t-87 -110.5t-139.5 -82.5t-188 -31q-296 0 -393 209q-85 -95 -208 -152t-246 -57q-153 0 -233.5 83.5t-63.5 215.5z M174 289q-11 -77 36 -132t146 -55q224 0 385 213q-14 88 2 207l7 43l-322 -51q-227 -36 -250 -197zM899 602h623q25 183 -38.5 280t-217.5 97q-147 0 -245 -104t-122 -273z" />
<glyph unicode="&#xe7;" horiz-adv-x="1069" d="M70 522l6 45q17 121 53.5 217t95.5 170t147.5 114t200.5 40q117 0 202 -36.5t127 -95.5t57 -125.5t4 -135.5l-5 -27h-137q20 129 -42 210t-206 81q-148 0 -236.5 -106.5t-115.5 -301.5l-6 -45q-27 -197 40 -308.5t224 -111.5q256 0 299 271h140l-5 -27 q-57 -355 -401 -370l-51 -99h8q75 -2 125.5 -35t50.5 -106q0 -87 -60 -129.5t-161 -42.5q-56 0 -107 16t-81 39l40 74q62 -43 146 -43q127 0 127 80q0 69 -113 69l-63 -6l-27 39l74 146q-202 20 -291 168t-59 372z" />
<glyph unicode="&#xe8;" horiz-adv-x="1114" d="M64 350q-4 81 6 172l6 45q16 119 56 216t102.5 170.5t154 114t203.5 40.5q97 0 171.5 -26t121.5 -74.5t75.5 -116t33 -150t-6.5 -178.5l-10 -80h-766q-40 -377 291 -377q78 0 138.5 21t97 56.5t57 76.5t26.5 88h137l-4 -26q-10 -62 -42.5 -121t-86.5 -110.5t-139 -82.5 t-188 -31q-106 0 -187.5 28t-131.5 77.5t-80.5 118t-34.5 149.5zM225 602h623q25 183 -38.5 280t-217.5 97q-147 0 -245 -104t-122 -273zM401 1597h156l139 -340h-147z" />
<glyph unicode="&#xe9;" horiz-adv-x="1114" d="M64 350q-4 81 6 172l6 45q16 119 56 216t102.5 170.5t154 114t203.5 40.5q97 0 171.5 -26t121.5 -74.5t75.5 -116t33 -150t-6.5 -178.5l-10 -80h-766q-40 -377 291 -377q78 0 138.5 21t97 56.5t57 76.5t26.5 88h137l-4 -26q-10 -62 -42.5 -121t-86.5 -110.5t-139 -82.5 t-188 -31q-106 0 -187.5 28t-131.5 77.5t-80.5 118t-34.5 149.5zM225 602h623q25 183 -38.5 280t-217.5 97q-147 0 -245 -104t-122 -273zM549 1257l229 340h156l-238 -340h-147z" />
<glyph unicode="&#xea;" horiz-adv-x="1114" d="M64 350q-4 81 6 172l6 45q16 119 56 216t102.5 170.5t154 114t203.5 40.5q97 0 171.5 -26t121.5 -74.5t75.5 -116t33 -150t-6.5 -178.5l-10 -80h-766q-40 -377 291 -377q78 0 138.5 21t97 56.5t57 76.5t26.5 88h137l-4 -26q-10 -62 -42.5 -121t-86.5 -110.5t-139 -82.5 t-188 -31q-106 0 -187.5 28t-131.5 77.5t-80.5 118t-34.5 149.5zM225 602h623q25 183 -38.5 280t-217.5 97q-147 0 -245 -104t-122 -273zM291 1257l313 340h127l223 -340h-135l-160 232l-219 -232h-149z" />
<glyph unicode="&#xeb;" horiz-adv-x="1114" d="M64 350q-4 81 6 172l6 45q16 119 56 216t102.5 170.5t154 114t203.5 40.5q97 0 171.5 -26t121.5 -74.5t75.5 -116t33 -150t-6.5 -178.5l-10 -80h-766q-40 -377 291 -377q78 0 138.5 21t97 56.5t57 76.5t26.5 88h137l-4 -26q-10 -62 -42.5 -121t-86.5 -110.5t-139 -82.5 t-188 -31q-106 0 -187.5 28t-131.5 77.5t-80.5 118t-34.5 149.5zM225 602h623q25 183 -38.5 280t-217.5 97q-147 0 -245 -104t-122 -273zM371 1341l24 185h185l-25 -185h-184zM713 1341l24 185h185l-25 -185h-184z" />
<glyph unicode="&#xec;" horiz-adv-x="442" d="M49 0l141 1085h144l-141 -1085h-144zM63 1597h156l139 -340h-147z" />
<glyph unicode="&#xed;" horiz-adv-x="442" d="M49 0l141 1085h144l-141 -1085h-144zM211 1257l229 340h156l-238 -340h-147z" />
<glyph unicode="&#xee;" horiz-adv-x="442" d="M-47 1257l313 340h127l223 -340h-135l-159 232l-220 -232h-149zM49 0l141 1085h144l-141 -1085h-144z" />
<glyph unicode="&#xef;" horiz-adv-x="442" d="M33 1341l24 185h185l-25 -185h-184zM49 0l141 1085h144l-141 -1085h-144zM375 1341l24 185h185l-25 -185h-184z" />
<glyph unicode="&#xf0;" horiz-adv-x="1114" d="M70 522l6 45q17 120 54.5 217t98 170.5t150 113.5t201.5 40q174 0 266 -92q-35 149 -113 254q-10 13 -21 25.5t-19 20.5t-21.5 19.5t-19 16t-22 17t-20.5 15.5l-377 -202l17 112l270 146q-132 68 -317 90l16 131q280 -23 457 -139l258 139l-14 -113l-164 -86 q60 -50 102 -106q55 -76 89.5 -178.5t45.5 -210.5t9 -208t-15 -196l-6 -45q-17 -120 -55 -217t-98.5 -170.5t-150.5 -113.5t-202 -40q-119 0 -206 42t-134.5 116.5t-64 172.5t-0.5 214zM215 526q-27 -199 37.5 -309.5t222.5 -110.5q150 0 242 107t119 301l6 45 q17 127 -4 219.5t-86 146.5t-172 54q-150 0 -241 -107t-118 -301z" />
<glyph unicode="&#xf1;" horiz-adv-x="1081" d="M33 0l104 791l27 294h123v-151q59 81 150 127.5t206 46.5q172 0 251 -94.5t58 -253.5l-100 -760h-143l98 739q17 120 -39 180t-174 60q-187 0 -311 -170l-107 -809h-143zM303 1339q13 105 64.5 158t128.5 53q41 0 82 -18.5t69 -40.5t62.5 -40.5t62.5 -18.5q72 0 86 96 h109q-15 -105 -66.5 -158t-128.5 -53q-41 0 -82 18.5t-69 41t-62.5 41t-62.5 18.5q-33 0 -55.5 -23.5t-28.5 -73.5h-109z" />
<glyph unicode="&#xf2;" horiz-adv-x="1114" d="M70 522l6 45q17 120 54.5 217t98 170.5t150 113.5t201.5 40q119 0 206.5 -42t135.5 -116.5t64.5 -172.5t0.5 -214l-6 -45q-17 -120 -55 -217t-98.5 -170.5t-150.5 -113.5t-202 -40q-119 0 -206 42t-134.5 116.5t-64 172.5t-0.5 214zM215 526q-27 -199 37.5 -309.5 t222.5 -110.5q150 0 242 107t119 301l6 45q27 198 -38.5 309t-223.5 111q-150 0 -241 -107t-118 -301zM399 1597h156l139 -340h-147z" />
<glyph unicode="&#xf3;" horiz-adv-x="1114" d="M70 522l6 45q17 120 54.5 217t98 170.5t150 113.5t201.5 40q119 0 206.5 -42t135.5 -116.5t64.5 -172.5t0.5 -214l-6 -45q-17 -120 -55 -217t-98.5 -170.5t-150.5 -113.5t-202 -40q-119 0 -206 42t-134.5 116.5t-64 172.5t-0.5 214zM215 526q-27 -199 37.5 -309.5 t222.5 -110.5q150 0 242 107t119 301l6 45q27 198 -38.5 309t-223.5 111q-150 0 -241 -107t-118 -301zM547 1257l229 340h156l-238 -340h-147z" />
<glyph unicode="&#xf4;" horiz-adv-x="1114" d="M70 522l6 45q17 120 54.5 217t98 170.5t150 113.5t201.5 40q119 0 206.5 -42t135.5 -116.5t64.5 -172.5t0.5 -214l-6 -45q-17 -120 -55 -217t-98.5 -170.5t-150.5 -113.5t-202 -40q-119 0 -206 42t-134.5 116.5t-64 172.5t-0.5 214zM215 526q-27 -199 37.5 -309.5 t222.5 -110.5q150 0 242 107t119 301l6 45q27 198 -38.5 309t-223.5 111q-150 0 -241 -107t-118 -301zM289 1257l313 340h127l223 -340h-135l-160 232l-219 -232h-149z" />
<glyph unicode="&#xf5;" horiz-adv-x="1114" d="M70 522l6 45q17 120 54.5 217t98 170.5t150 113.5t201.5 40q119 0 206.5 -42t135.5 -116.5t64.5 -172.5t0.5 -214l-6 -45q-17 -120 -55 -217t-98.5 -170.5t-150.5 -113.5t-202 -40q-119 0 -206 42t-134.5 116.5t-64 172.5t-0.5 214zM215 526q-27 -199 37.5 -309.5 t222.5 -110.5q150 0 242 107t119 301l6 45q27 198 -38.5 309t-223.5 111q-150 0 -241 -107t-118 -301zM313 1339q13 105 64.5 158t128.5 53q41 0 82 -18.5t69 -40.5t62.5 -40.5t62.5 -18.5q72 0 86 96h109q-15 -105 -66.5 -158t-128.5 -53q-41 0 -82 18.5t-69 41t-62.5 41 t-62.5 18.5q-33 0 -55.5 -23.5t-28.5 -73.5h-109z" />
<glyph unicode="&#xf6;" horiz-adv-x="1114" d="M70 522l6 45q17 120 54.5 217t98 170.5t150 113.5t201.5 40q119 0 206.5 -42t135.5 -116.5t64.5 -172.5t0.5 -214l-6 -45q-17 -120 -55 -217t-98.5 -170.5t-150.5 -113.5t-202 -40q-119 0 -206 42t-134.5 116.5t-64 172.5t-0.5 214zM215 526q-27 -199 37.5 -309.5 t222.5 -110.5q150 0 242 107t119 301l6 45q27 198 -38.5 309t-223.5 111q-150 0 -241 -107t-118 -301zM369 1341l24 185h185l-25 -185h-184zM711 1341l24 185h185l-25 -185h-184z" />
<glyph unicode="&#xf7;" d="M90 731l19 135h1034l-19 -135h-1034zM453 262l24 184h185l-25 -184h-184zM571 1151l25 184h184l-24 -184h-185z" />
<glyph unicode="&#xf8;" horiz-adv-x="1114" d="M0 0l127 150q-86 142 -57 372l6 45q17 120 54.5 217t98 170.5t150 113.5t201.5 40q174 0 282 -94l62 71h133l-127 -149q86 -142 57 -373l-6 -45q-17 -120 -54.5 -217t-98 -170.5t-150 -113.5t-201.5 -40q-173 0 -282 95l-62 -72h-133zM215 526q-19 -159 14 -256l543 637 q-69 72 -192 72q-150 0 -241 -107t-118 -301zM285 178q69 -72 192 -72q150 0 241 107t118 301l6 45q18 157 -15 256z" />
<glyph unicode="&#xf9;" horiz-adv-x="1081" d="M68 326l100 759h143l-98 -739q-17 -120 39 -180t174 -60q187 0 311 170l107 809h143l-104 -790l-27 -295h-123v152q-59 -81 -150 -128t-206 -47q-172 0 -251 95t-58 254zM377 1597h155l140 -340h-148z" />
<glyph unicode="&#xfa;" horiz-adv-x="1081" d="M68 326l100 759h143l-98 -739q-17 -120 39 -180t174 -60q187 0 311 170l107 809h143l-104 -790l-27 -295h-123v152q-59 -81 -150 -128t-206 -47q-172 0 -251 95t-58 254zM524 1257l230 340h155l-237 -340h-148z" />
<glyph unicode="&#xfb;" horiz-adv-x="1081" d="M68 326l100 759h143l-98 -739q-17 -120 39 -180t174 -60q187 0 311 170l107 809h143l-104 -790l-27 -295h-123v152q-59 -81 -150 -128t-206 -47q-172 0 -251 95t-58 254zM266 1257l314 340h127l223 -340h-135l-160 232l-219 -232h-150z" />
<glyph unicode="&#xfc;" horiz-adv-x="1081" d="M68 326l100 759h143l-98 -739q-17 -120 39 -180t174 -60q187 0 311 170l107 809h143l-104 -790l-27 -295h-123v152q-59 -81 -150 -128t-206 -47q-172 0 -251 95t-58 254zM346 1341l25 185h184l-25 -185h-184zM688 1341l25 185h184l-25 -185h-184z" />
<glyph unicode="&#xfd;" horiz-adv-x="991" d="M88 1085h148l194 -888l426 888h160l-527 -1044l-213 -451h-165l229 451zM500 1257l229 340h156l-238 -340h-147z" />
<glyph unicode="&#xfe;" horiz-adv-x="1099" d="M-20 -410l270 2048h143l-88 -667q50 62 130 99.5t177 37.5q144 0 235 -72.5t121.5 -193.5t8.5 -279l-6 -45q-17 -122 -52.5 -218t-92.5 -170t-142 -113.5t-192 -39.5q-59 0 -111 16t-88 41t-60 50t-38 49l-72 -543h-143zM215 285q32 -72 96.5 -125.5t161.5 -53.5 q150 0 237.5 106.5t114.5 301.5l6 45q27 198 -38 309t-215 111q-176 0 -293 -156z" />
<glyph unicode="&#xff;" horiz-adv-x="991" d="M88 1085h148l194 -888l426 888h160l-527 -1044l-213 -451h-165l229 451zM322 1341l24 185h184l-24 -185h-184zM664 1341l24 185h184l-24 -185h-184z" />
<glyph unicode="&#x152;" horiz-adv-x="1925" d="M106.5 467q-14.5 126 8.5 291l10 82q95 757 721 757h1106l-17 -133h-745l-76 -583h639l-16 -131h-641l-80 -617h743l-16 -133h-1092q-119 0 -211.5 25.5t-165 82t-113 145t-55 214.5zM257 518.5q10 -103.5 39 -177t83.5 -119.5t124.5 -67.5t162 -21.5h202l176 1331h-202 q-488 0 -566 -624l-10 -82q-19 -136 -9 -239.5z" />
<glyph unicode="&#x153;" horiz-adv-x="1818" d="M70 522l6 45q17 120 54.5 217t98 170.5t150 113.5t201.5 40q292 0 370 -248q131 248 410 248q97 0 171.5 -26t121.5 -74.5t75.5 -116t33 -150t-6.5 -178.5l-10 -80h-766q-40 -377 291 -377q78 0 138.5 21t97 56.5t57 76.5t26.5 88h137l-4 -26q-10 -62 -42.5 -121 t-86.5 -110.5t-139 -82.5t-188 -31q-316 0 -394 240q-124 -240 -397 -240q-119 0 -206 42t-134.5 116.5t-64 172.5t-0.5 214zM215 526q-27 -199 37.5 -309.5t222.5 -110.5q150 0 242 107t119 301l6 45q27 198 -38.5 309t-223.5 111q-150 0 -241 -107t-118 -301zM993 602h623 q25 183 -38.5 280t-217.5 97q-147 0 -245 -104t-122 -273z" />
<glyph unicode="&#x178;" horiz-adv-x="1181" d="M152 1597h153l270 -933l508 933h166l-620 -1114l-64 -483h-147l63 483zM481 1761l19 144h162l-19 -144h-162zM801 1761l18 144h162l-18 -144h-162z" />
<glyph unicode="&#x2c6;" horiz-adv-x="1024" d="M244 1257l313 340h127l223 -340h-135l-160 232l-219 -232h-149z" />
<glyph unicode="&#x2dc;" horiz-adv-x="1024" d="M268 1339q13 105 64.5 158t128.5 53q41 0 82 -18.5t69 -40.5t62.5 -40.5t62.5 -18.5q72 0 86 96h109q-15 -105 -66.5 -158t-128.5 -53q-41 0 -82 18.5t-69 41t-62.5 41t-62.5 18.5q-33 0 -55.5 -23.5t-28.5 -73.5h-109z" />
<glyph unicode="&#x2000;" horiz-adv-x="984" />
<glyph unicode="&#x2001;" horiz-adv-x="1968" />
<glyph unicode="&#x2002;" horiz-adv-x="984" />
<glyph unicode="&#x2003;" horiz-adv-x="1968" />
<glyph unicode="&#x2004;" horiz-adv-x="656" />
<glyph unicode="&#x2005;" horiz-adv-x="492" />
<glyph unicode="&#x2006;" horiz-adv-x="328" />
<glyph unicode="&#x2007;" horiz-adv-x="328" />
<glyph unicode="&#x2008;" horiz-adv-x="246" />
<glyph unicode="&#x2009;" horiz-adv-x="393" />
<glyph unicode="&#x200a;" horiz-adv-x="109" />
<glyph unicode="&#x2010;" horiz-adv-x="673" d="M66 651l18 131h508l-19 -131h-507z" />
<glyph unicode="&#x2011;" horiz-adv-x="673" d="M66 651l18 131h508l-19 -131h-507z" />
<glyph unicode="&#x2012;" horiz-adv-x="673" d="M66 651l18 131h508l-19 -131h-507z" />
<glyph unicode="&#x2013;" horiz-adv-x="1024" d="M66 651l18 131h860l-18 -131h-860z" />
<glyph unicode="&#x2014;" horiz-adv-x="2048" d="M66 651l18 131h1884l-18 -131h-1884z" />
<glyph unicode="&#x2018;" horiz-adv-x="444" d="M186 1200l21 154q38 274 266 274l-12 -88q-64 0 -102 -35.5t-56 -120.5h92l-24 -184h-185z" />
<glyph unicode="&#x2019;" horiz-adv-x="444" d="M135 1169l12 88q64 0 102 35.5t56 120.5h-92l25 184h184l-21 -153q-38 -275 -266 -275z" />
<glyph unicode="&#x201a;" horiz-adv-x="444" d="M-49 -244l12 88q64 0 102 35.5t56 120.5h-92l24 184h185l-21 -153q-38 -275 -266 -275z" />
<glyph unicode="&#x201c;" horiz-adv-x="743" d="M186 1200l21 154q38 274 266 274l-12 -88q-64 0 -102 -35.5t-56 -120.5h92l-24 -184h-185zM483 1200l21 154q38 274 266 274l-12 -88q-64 0 -102 -35.5t-56 -120.5h92l-24 -184h-185z" />
<glyph unicode="&#x201d;" horiz-adv-x="743" d="M135 1169l12 88q64 0 102 35.5t56 120.5h-92l25 184h184l-21 -153q-38 -275 -266 -275zM432 1169l12 88q64 0 102 35.5t56 120.5h-92l25 184h184l-21 -153q-38 -275 -266 -275z" />
<glyph unicode="&#x201e;" horiz-adv-x="743" d="M-49 -244l12 88q64 0 102 35.5t56 120.5h-92l24 184h185l-21 -153q-38 -275 -266 -275zM248 -244l12 88q64 0 102 35.5t56 120.5h-92l24 184h185l-21 -153q-38 -275 -266 -275z" />
<glyph unicode="&#x2022;" horiz-adv-x="813" d="M96 449l70 536h536l-69 -536h-537z" />
<glyph unicode="&#x2026;" horiz-adv-x="2048" d="M176 0l25 184h184l-25 -184h-184zM831 0l25 184h184l-24 -184h-185zM1487 0l24 184h185l-25 -184h-184z" />
<glyph unicode="&#x202f;" horiz-adv-x="393" />
<glyph unicode="&#x2039;" horiz-adv-x="622" d="M84 635l16 127l459 311l-18 -149l-336 -232l274 -233l-18 -137z" />
<glyph unicode="&#x203a;" horiz-adv-x="622" d="M43 322l18 149l336 231l-274 234l18 137l377 -313l-16 -127z" />
<glyph unicode="&#x205f;" horiz-adv-x="492" />
<glyph unicode="&#x20ac;" d="M47 604l19 133h147l16 123h-147l16 133h152q119 627 555 627q228 0 317 -134.5t52 -402.5l-9 -59h-139q34 248 -15.5 355.5t-199.5 107.5h-14q-293 0 -394 -494h545l-82 -133h-485q-10 -62 -16 -123h469l-84 -133h-398q-15 -255 50.5 -374t209.5 -119h15q274 0 327 401 h144l-4 -29q-36 -256 -150.5 -381t-327.5 -125q-228 0 -330 155t-85 472h-154z" />
<glyph unicode="&#x2122;" horiz-adv-x="1071" d="M39 1561v77h373v-77h-144v-476h-86v476h-143zM479 1085v553h129l113 -415l113 415h131v-553h-86v281l4 137l-113 -418h-96l-113 418l4 -137v-281h-86z" />
<glyph unicode="&#x25fc;" horiz-adv-x="1085" d="M0 0v1085h1085v-1085h-1085z" />
<glyph unicode="&#xfb01;" horiz-adv-x="1220" d="M88 956l16 129h172l37 275q40 301 359 301q97 0 147 -25l-16 -123q-15 7 -52.5 13t-70.5 6q-101 0 -157 -44.5t-70 -156.5l-33 -246h303l-16 -129h-304l-124 -956h-144l125 956h-172zM827 0l142 1085h143l-141 -1085h-144zM983 1341l25 185h184l-25 -185h-184z" />
<glyph unicode="&#xfb02;" horiz-adv-x="1220" d="M88 956l16 129h172l37 275q40 301 359 301q97 0 147 -25l-16 -123q-15 7 -52.5 13t-70.5 6q-101 0 -157 -44.5t-70 -156.5l-33 -246h303l-16 -129h-304l-124 -956h-144l125 956h-172zM827 0l215 1638h144l-215 -1638h-144z" />
</font>
</defs>
</svg>
