<?xml version="1.0" standalone="no"?>
<!DOCTYPE svg PUBLIC "-//W3C//DTD SVG 1.1//EN" "http://www.w3.org/Graphics/SVG/1.1/DTD/svg11.dtd" >
<svg xmlns="http://www.w3.org/2000/svg">
<metadata></metadata>
<defs>
<font id="cooper_hewittbold" horiz-adv-x="1228" >
<font-face units-per-em="2048" ascent="1536" descent="-512" />
<missing-glyph horiz-adv-x="409" />
<glyph horiz-adv-x="2048" />
<glyph horiz-adv-x="2048" />
<glyph unicode="&#xd;" horiz-adv-x="2048" />
<glyph unicode=" "  horiz-adv-x="409" />
<glyph unicode="&#x09;" horiz-adv-x="409" />
<glyph unicode="&#xa0;" horiz-adv-x="409" />
<glyph unicode="!" horiz-adv-x="542" d="M72 1597h401l-86 -1130h-229zM102 0v342h340v-342h-340z" />
<glyph unicode="&#x22;" horiz-adv-x="913" d="M96 1597h318l-19 -661h-248zM502 1597h315l-49 -661h-250z" />
<glyph unicode="#" d="M47 395v283h180l43 242h-133v282h185l73 395h283l-74 -395h166l74 395h280l-73 -395h131v-282h-183l-43 -242h136v-283h-187l-71 -395h-283l72 395h-166l-72 -395h-281l72 395h-129zM510 678h166l43 242h-166z" />
<glyph unicode="$" d="M88 563v12h326q0 -93 51.5 -149.5t152.5 -56.5h11q182 0 182 135v10q0 71 -53.5 106.5t-210.5 59.5q-227 35 -336 126t-109 261v20q0 197 139 303.5t373 106.5h45l56 223h248l-66 -278q118 -56 174.5 -155.5t56.5 -252.5v-28h-321q0 225 -193 225h-16q-77 -2 -123.5 -36 t-46.5 -99v-11q0 -43 18 -69t72 -47.5t156 -36.5q244 -36 356.5 -127.5t112.5 -265.5v-21q0 -200 -135 -308t-390 -108h-43l-53 -225h-248l66 277q-252 103 -252 409z" />
<glyph unicode="%" horiz-adv-x="2009" d="M55 1214v25q0 183 107.5 284t281.5 101q83 0 162 -29q88 -32 169.5 -44.5t209.5 -12.5q121 0 244.5 22t187.5 44v-154l-604 -1450h-283l541 1296q-77 -16 -145 -16q-50 0 -97 6q0 -7 1 -23t1 -24v-25q0 -183 -107.5 -285t-279.5 -102q-174 0 -281.5 102t-107.5 285z M295 1212q0 -64 39.5 -103.5t103.5 -39.5h13q64 0 102.5 39t38.5 104v27q0 65 -38.5 105t-102.5 40h-13q-64 0 -103.5 -40t-39.5 -105v-27zM1178 358v25q0 183 107.5 285t281.5 102q172 0 279.5 -102t107.5 -285v-25q0 -183 -107.5 -284t-279.5 -101q-174 0 -281.5 101 t-107.5 284zM1417 358q0 -65 40 -105t104 -40h12q64 0 102.5 40t38.5 105v27q0 65 -38.5 104t-102.5 39h-12q-65 0 -104.5 -39.5t-39.5 -103.5v-27z" />
<glyph unicode="&#x26;" horiz-adv-x="1415" d="M39 432v21q0 145 60.5 246.5t164.5 177.5q-68 89 -99.5 168.5t-31.5 189.5v22q0 76 25.5 141t77.5 116t138.5 80.5t200.5 29.5t200.5 -29.5t138 -80.5t77 -116t25.5 -141v-22q0 -65 -18.5 -121.5t-46 -97t-72.5 -79.5t-84 -64t-95 -56l254 -301q60 139 60 287v6h340v-8 q0 -138 -49 -278.5t-142 -254.5l228 -268h-390l-65 76q-191 -103 -424 -103q-223 0 -348 124.5t-125 334.5zM369 461q0 -99 50 -154t146 -55h10q99 0 179 41l-305 360q-80 -77 -80 -180v-12zM459 1233q0 -98 65 -203q81 49 123.5 95.5t42.5 107.5v12q0 51 -28.5 82t-79.5 31 h-13q-51 0 -80.5 -31t-29.5 -82v-12z" />
<glyph unicode="'" horiz-adv-x="542" d="M96 1597h350l-51 -661h-248z" />
<glyph unicode="(" horiz-adv-x="747" d="M80 717v41q0 170 21.5 312.5t65 259t90.5 203.5t116 187h336q-70 -106 -120.5 -203t-95 -215.5t-67.5 -255.5t-23 -288v-41q0 -151 23 -288t67.5 -256t95 -216t120.5 -203h-336q-69 100 -116 187.5t-90.5 204t-65 259t-21.5 312.5z" />
<glyph unicode=")" horiz-adv-x="747" d="M39 -246q146 221 225.5 447.5t79.5 515.5v41q0 289 -79.5 515t-225.5 447h336q69 -100 117 -187.5t91 -203.5t64 -258t21 -313v-41q0 -171 -21.5 -313t-64 -258.5t-90.5 -204.5t-117 -187h-336z" />
<glyph unicode="*" horiz-adv-x="845" d="M10 1272l56 174l258 -96l-52 -154zM111 956l170 215l131 -94l-154 -227zM332 1638h182l-10 -274h-162zM432 1077l131 94l170 -215l-145 -106zM522 1350l256 96l58 -174l-265 -76z" />
<glyph unicode="+" d="M86 655v287h385v385h287v-385h385v-287h-385v-385h-287v385h-385z" />
<glyph unicode="," horiz-adv-x="544" d="M92 -131q152 0 182 131h-172v342h340v-270q0 -180 -88.5 -272.5t-261.5 -92.5v162z" />
<glyph unicode="-" horiz-adv-x="722" d="M82 575v283h559v-283h-559z" />
<glyph unicode="." horiz-adv-x="544" d="M102 0v342h340v-342h-340z" />
<glyph unicode="/" horiz-adv-x="847" d="M31 -246l471 1966h315l-471 -1966h-315z" />
<glyph unicode="0" d="M92 453v692q0 215 134.5 347t387.5 132t388 -132t135 -347v-692q0 -215 -135 -347.5t-388 -132.5t-387.5 132.5t-134.5 347.5zM420 457q0 -91 47.5 -144t142.5 -53h8q95 0 143 53t48 144v684q0 91 -48 143.5t-143 52.5h-8q-95 0 -142.5 -52.5t-47.5 -143.5v-684z" />
<glyph unicode="1" d="M57 1262l498 337h244v-1312h350v-287h-1028v287h350v907l-252 -170z" />
<glyph unicode="2" d="M90 0v207l615 678q58 61 82 106.5t24 108.5v20q0 106 -50.5 161.5t-135.5 55.5h-21q-90 0 -138 -63.5t-48 -208.5h-328v41q0 260 129 389t395 129q113 0 203.5 -26t149.5 -69t98.5 -101.5t56.5 -119.5t17 -126v-37q0 -133 -40.5 -220t-137.5 -194l-408 -446l145 2h441 v-287h-1049z" />
<glyph unicode="3" d="M80 485v27h328q0 -252 196 -252h21q83 0 139.5 51.5t56.5 151.5v22q0 92 -50.5 139.5t-141.5 47.5h-219v286h213q91 0 139.5 46t48.5 137v18q0 79 -52 128.5t-134 49.5h-21q-91 0 -138.5 -63t-47.5 -209h-328v41q0 260 129 389t395 129q112 0 203.5 -26t150 -68t98 -98.5 t56.5 -114.5t17 -119v-39q0 -120 -51.5 -206t-135.5 -136q197 -112 197 -350v-39q0 -63 -18.5 -125.5t-60 -122.5t-102 -105.5t-152 -73.5t-202.5 -28q-266 0 -400 131.5t-134 380.5z" />
<glyph unicode="4" d="M55 348v230l635 1019h309v-962h175v-287h-175v-348h-327v348h-617zM395 631l105 4h172v323l4 119z" />
<glyph unicode="5" d="M80 485v27h328q0 -252 196 -252h21q84 0 140 57.5t56 176.5v22q0 121 -58.5 178.5t-154.5 57.5h-12q-68 0 -130 -33t-93 -94l-281 96l37 876h999v-286h-725l-14 -324q114 49 242 49q247 0 382.5 -137t135.5 -375v-39q0 -239 -138.5 -375.5t-396.5 -136.5 q-266 0 -400 131.5t-134 380.5z" />
<glyph unicode="6" d="M80 559v27q0 437 225 737q125 167 313.5 234t452.5 67v-291q-180 0 -304.5 -46t-207.5 -148q-67 -81 -106 -207q115 76 252 76q203 0 324.5 -135t121.5 -369v-21q0 -240 -137.5 -375t-397.5 -135q-255 0 -395.5 158.5t-140.5 427.5zM408 532q0 -129 57 -200.5t145 -71.5 h13q87 0 143.5 57t56.5 156v39q0 106 -52 157.5t-140 51.5h-10q-64 0 -122 -32t-91 -91v-66z" />
<glyph unicode="7" d="M74 1024v573h1085v-202l-567 -1395h-350l551 1315l-195 -4h-236v-287h-288z" />
<glyph unicode="8" d="M80 426v39q0 125 53 213t143 139q-84 49 -135 135.5t-51 208.5v39q0 60 16.5 117.5t56 113.5t98.5 98.5t150 68.5t203 26t203.5 -26t150 -68.5t98 -98.5t56.5 -113.5t17 -117.5v-39q0 -122 -51 -208t-136 -136q89 -51 143 -139.5t54 -212.5v-39q0 -63 -18.5 -125 t-60 -122t-102 -105t-152 -73t-202.5 -28t-202.5 28t-151.5 73t-101.5 105t-60 122t-18.5 125zM408 463q0 -101 56.5 -152t139.5 -51h21q83 0 139.5 51t56.5 152v22q0 91 -50.5 139t-141.5 48h-29q-91 0 -141.5 -48t-50.5 -139v-22zM418 1141q0 -91 48.5 -137t139.5 -46h17 q91 0 139.5 46t48.5 137v20q0 79 -52 127.5t-134 48.5h-21q-82 0 -134 -48.5t-52 -127.5v-20z" />
<glyph unicode="9" d="M78 1094v20q0 240 137 375t397 135q255 0 396 -158.5t141 -427.5v-26q0 -438 -225 -738q-125 -167 -313.5 -234t-452.5 -67v291q180 0 304.5 46t207.5 149q69 84 104 205q-109 -74 -250 -74q-203 0 -324.5 135t-121.5 369zM406 1085q0 -106 52 -157t140 -51h10 q63 0 121 31.5t92 90.5v66q0 129 -57.5 200.5t-145.5 71.5h-12q-86 0 -143 -56.5t-57 -156.5v-39z" />
<glyph unicode=":" horiz-adv-x="544" d="M102 0v342h340v-342h-340zM102 629v342h340v-342h-340z" />
<glyph unicode=";" horiz-adv-x="544" d="M92 -131q152 0 182 131h-172v342h340v-270q0 -180 -88.5 -272.5t-261.5 -92.5v162zM102 629v342h340v-342h-340z" />
<glyph unicode="&#x3c;" d="M86 641v315l1057 420v-319l-692 -258l692 -258v-320z" />
<glyph unicode="=" d="M86 432v289h1057v-289h-1057zM86 877v288h1057v-288h-1057z" />
<glyph unicode="&#x3e;" d="M86 221v320l692 258l-692 258v319l1057 -420v-315z" />
<glyph unicode="?" horiz-adv-x="1017" d="M43 1057v37q0 267 109 398.5t366 131.5q104 0 186 -23.5t133 -62t84.5 -93t46.5 -111.5t13 -122q0 -84 -18.5 -150t-49 -110.5t-67.5 -83t-75.5 -76t-71 -79.5t-56 -105t-29.5 -141h-227q-8 108 16.5 204.5t65.5 165t83 127.5t72.5 116t30.5 106q0 76 -31.5 114.5 t-105.5 38.5q-83 0 -116 -64.5t-33 -217.5h-326zM332 0v342h340v-342h-340z" />
<glyph unicode="@" horiz-adv-x="2029" d="M55 553v82q0 235 74.5 423.5t207.5 311.5t314 188.5t396 65.5q152 0 287 -28t253.5 -90.5t203.5 -155.5t134 -229.5t49 -305.5v-61q0 -144 -28 -254t-77 -181t-121 -115.5t-152.5 -62.5t-180.5 -18h-215l-22 121q-95 -148 -285 -148q-184 0 -281.5 129.5t-97.5 343.5v70 q0 214 97.5 343.5t281.5 129.5q191 0 285 -147l22 120h252l-18 -280v-473q180 9 250.5 99t70.5 323v61q0 138 -40.5 245t-106.5 172.5t-159.5 107t-189 57.5t-206.5 16h-13q-169 0 -309 -49.5t-243 -144.5t-160.5 -244.5t-57.5 -339.5v-82q0 -192 57 -341t161.5 -244 t246.5 -144t316 -49h12q371 0 676 223l121 -164q-194 -154 -393 -212t-410 -58q-219 0 -402 65.5t-317 188.5t-208.5 311.5t-74.5 423.5zM809 569q0 -106 42.5 -164.5t129.5 -58.5q59 0 103.5 29.5t68.5 66.5v324q-24 37 -68.5 66.5t-103.5 29.5q-87 0 -129.5 -58.5 t-42.5 -164.5v-70z" />
<glyph unicode="A" horiz-adv-x="1312" d="M29 0l399 1602h457l399 -1602h-354l-78 344h-391l-76 -344h-356zM524 631h262l-131 588z" />
<glyph unicode="B" horiz-adv-x="1292" d="M115 0v1597h524q83 0 150.5 -9.5t137.5 -38.5t117.5 -76t78 -128.5t30.5 -189.5v-41q0 -199 -156 -289q197 -94 197 -325v-41q0 -112 -32 -196.5t-82.5 -133.5t-124 -79t-144.5 -40t-156 -10h-540zM446 287h220q81 0 136.5 42.5t55.5 141.5v18q0 99 -55.5 141t-136.5 42 h-220v-385zM446 961h191q180 0 180 161v27q0 89 -51.5 125.5t-128.5 36.5h-191v-350z" />
<glyph unicode="C" horiz-adv-x="1331" d="M80 758v82q0 413 143.5 598.5t456.5 185.5q290 0 430.5 -132.5t140.5 -426.5v-74h-331q0 175 -49 260.5t-173 85.5h-18q-63 0 -109 -21.5t-76 -61t-47.5 -102.5t-24.5 -137t-7 -175v-82q0 -127 11.5 -214t40.5 -153.5t81 -98.5t131 -32h18q222 0 222 285h331v-19 q0 -290 -141 -421.5t-430 -131.5q-313 0 -456.5 186t-143.5 599z" />
<glyph unicode="D" horiz-adv-x="1357" d="M115 0v1597h489q241 0 387 -74t216.5 -240t70.5 -443v-82q0 -277 -70.5 -443t-216.5 -240.5t-387 -74.5h-489zM446 287h140q103 0 171.5 28t109 88.5t57 145.5t16.5 209v82q0 124 -16.5 209t-57 145.5t-109 88.5t-171.5 28h-140v-1024z" />
<glyph unicode="E" horiz-adv-x="1173" d="M115 0v1597h977v-286h-646v-353h543v-286h-543v-385h646v-287h-977z" />
<glyph unicode="F" horiz-adv-x="1124" d="M115 0v1597h968v-286h-637v-353h535v-286h-535v-672h-331z" />
<glyph unicode="G" horiz-adv-x="1378" d="M80 758v82q0 410 149 597t463 187q292 0 437 -133t145 -426v-74h-332q0 176 -50 261t-181 85h-19q-156 0 -215 -120.5t-59 -376.5v-82q0 -101 7.5 -175t26.5 -137.5t51 -102.5t82.5 -61t119.5 -22h18q130 0 217 62v256h-211v286h543v-704q-105 -86 -236.5 -136.5 t-322.5 -50.5q-328 0 -480.5 186.5t-152.5 598.5z" />
<glyph unicode="H" horiz-adv-x="1357" d="M115 0v1597h331v-639h465v639h332v-1597h-332v672h-465v-672h-331z" />
<glyph unicode="I" horiz-adv-x="579" d="M125 0v1597h332v-1597h-332z" />
<glyph unicode="J" horiz-adv-x="1099" d="M47 492v53h313q0 -147 33.5 -216t118.5 -69t118.5 65.5t33.5 202.5v1069h331v-1110q0 -252 -114 -383t-361 -131q-255 0 -364 130t-109 389z" />
<glyph unicode="K" horiz-adv-x="1280" d="M115 0v1597h331v-626l394 626h401l-448 -641l448 -956h-369l-290 653l-136 -192v-461h-331z" />
<glyph unicode="L" horiz-adv-x="1067" d="M115 0v1597h331v-1310h590v-287h-921z" />
<glyph unicode="M" horiz-adv-x="1779" d="M115 0v1597h489l287 -1022l285 1022h491v-1597h-332v702l8 320l-284 -1022h-338l-285 1022l10 -320v-702h-331z" />
<glyph unicode="N" horiz-adv-x="1398" d="M115 0v1597h350l514 -991l-10 322v669h315v-1597h-350l-516 991l10 -321v-670h-313z" />
<glyph unicode="O" horiz-adv-x="1378" d="M80 758v82q0 411 147.5 597.5t460.5 186.5q315 0 462.5 -186.5t147.5 -597.5v-82q0 -411 -147.5 -598t-462.5 -187q-313 0 -460.5 187t-147.5 598zM416 758q0 -253 58.5 -375.5t205.5 -122.5h18q147 0 205 122.5t58 375.5v82q0 253 -58 375t-205 122h-18 q-147 0 -205.5 -122t-58.5 -375v-82z" />
<glyph unicode="P" horiz-adv-x="1247" d="M115 0v1597h524q87 0 158.5 -10t148 -41.5t129 -83.5t86 -143t33.5 -213v-41q0 -89 -17.5 -161.5t-46.5 -122.5t-73 -88t-90.5 -60.5t-104.5 -36.5t-110 -18.5t-113 -4.5h-193v-573h-331zM446 860h207q38 0 70.5 9t65 30.5t51 66.5t18.5 109v21q0 64 -18.5 109t-51 66.5 t-65 30.5t-70.5 9h-207v-451z" />
<glyph unicode="Q" horiz-adv-x="1378" d="M80 758v82q0 411 147.5 597.5t460.5 186.5q315 0 462.5 -186.5t147.5 -597.5v-82q0 -293 -74.5 -470.5t-228.5 -252.5l97 -240h-258l-70 182q-50 -4 -76 -4q-313 0 -460.5 187t-147.5 598zM416 758q0 -119 11.5 -205t38 -151.5t73 -100.5t114.5 -41l-106 277h250l77 -199 q87 110 87 420v82q0 253 -58 375t-205 122h-18q-147 0 -205.5 -122t-58.5 -375v-82z" />
<glyph unicode="R" horiz-adv-x="1275" d="M115 0v1597h524q87 0 158.5 -10t148 -41.5t129 -83.5t86 -143t33.5 -213v-41q0 -340 -252 -444l252 -621h-358l-220 573h-170v-573h-331zM446 860h207q38 0 70.5 9t65 30.5t51 66.5t18.5 109v21q0 64 -18.5 109t-51 66.5t-65 30.5t-70.5 9h-207v-451z" />
<glyph unicode="S" horiz-adv-x="1292" d="M70 526v19h331q0 -148 59 -216.5t177 -68.5h18q111 0 170.5 53t59.5 136v10q0 90 -62 138.5t-229 70.5q-267 36 -389.5 141t-122.5 317v23q0 220 146.5 347.5t416.5 127.5q293 0 429 -133t136 -416v-43h-331q0 159 -54 232t-178 73h-18q-98 0 -154.5 -49t-56.5 -127v-10 q0 -63 21 -100.5t83 -65.5t176 -43q135 -18 229.5 -50.5t162.5 -87t100.5 -135t32.5 -190.5v-20q0 -232 -149.5 -359t-428.5 -127q-287 0 -431 134t-144 419z" />
<glyph unicode="T" horiz-adv-x="1140" d="M35 1311v286h1071v-286h-371v-1311h-332v1311h-368z" />
<glyph unicode="U" horiz-adv-x="1357" d="M104 506v1091h332v-1081q0 -133 53 -194.5t189 -61.5t190 61.5t54 194.5v1081h331v-1091q0 -135 -29 -231t-95.5 -165.5t-178 -103t-272.5 -33.5t-272.5 33.5t-177.5 103t-95 165.5t-29 231z" />
<glyph unicode="V" horiz-adv-x="1312" d="M29 1597h354l272 -1218l273 1218h356l-399 -1601h-457z" />
<glyph unicode="W" horiz-adv-x="1918" d="M39 1597h346l154 -1148l215 1148h411l215 -1148l154 1148h346l-264 -1601h-426l-232 1223l-231 -1223h-424z" />
<glyph unicode="X" horiz-adv-x="1329" d="M39 0l389 838l-389 759h385l240 -530l241 530h385l-389 -759l389 -838h-368l-258 596l-258 -596h-367z" />
<glyph unicode="Y" horiz-adv-x="1280" d="M16 1597h363l262 -698l260 698h363l-457 -1108v-489h-332v489z" />
<glyph unicode="Z" horiz-adv-x="1226" d="M82 0v227l637 1090l-293 -6h-324v286h1022v-227l-637 -1089l293 6h365v-287h-1063z" />
<glyph unicode="[" horiz-adv-x="747" d="M119 -246v1966h561v-282h-240v-1401h240v-283h-561z" />
<glyph unicode="\" horiz-adv-x="843" d="M31 1720h315l471 -1966h-315z" />
<glyph unicode="]" horiz-adv-x="747" d="M68 37h239v1401h-239v282h561v-1966h-561v283z" />
<glyph unicode="^" d="M37 541l420 1056h315l420 -1056h-320l-258 692l-258 -692h-319z" />
<glyph unicode="_" horiz-adv-x="655" d="M86 -96h483v-283h-483v283z" />
<glyph unicode="`" horiz-adv-x="1024" d="M133 1597h352l187 -376h-320z" />
<glyph unicode="a" horiz-adv-x="1124" d="M61 299v20q0 86 28 148.5t83 102t121.5 62t157.5 36.5l249 39q-2 83 -34.5 121t-112.5 38q-145 0 -145 -139h-306v18q0 75 22.5 137.5t73 116t143.5 83.5t222 30q131 0 221 -27t142.5 -82t75 -129t22.5 -176v-391l20 -307h-290l-21 113q-130 -140 -340 -140 q-88 0 -154 26t-104 72t-56 103t-18 125zM383 346q0 -46 31.5 -78t97.5 -32q111 0 188 81v199l-184 -29q-72 -11 -102.5 -43.5t-30.5 -85.5v-12z" />
<glyph unicode="b" horiz-adv-x="1175" d="M90 0l19 307v1331h323v-645q101 119 279 119q403 0 403 -532v-74q0 -533 -403 -533q-205 0 -310 158l-22 -131h-289zM432 354q71 -102 184 -102q175 0 175 254v74q0 254 -175 254q-64 0 -110 -31.5t-74 -71.5v-377z" />
<glyph unicode="c" horiz-adv-x="1079" d="M61 506v74q0 119 29 215.5t88 167.5t154 110t221 39q228 0 347.5 -108t119.5 -293v-47h-305q0 83 -40 126.5t-116 43.5q-174 0 -174 -254v-74q0 -254 174 -254q76 0 116 41t40 108h305v-45q0 -173 -120.5 -278t-346.5 -105q-126 0 -221 39t-154 110.5t-88 168t-29 215.5z " />
<glyph unicode="d" horiz-adv-x="1191" d="M78 506v74q0 532 403 532q178 0 279 -119v645h323v-1331l19 -307h-291l-23 129q-106 -156 -307 -156q-403 0 -403 533zM399 506q0 -254 176 -254q64 0 111 31.5t74 70.5v377q-27 40 -74 71.5t-111 31.5q-176 0 -176 -254v-74z" />
<glyph unicode="e" horiz-adv-x="1138" d="M61 514v57q0 118 32.5 216.5t95.5 171t161.5 113t224.5 40.5t223 -40t157.5 -113t91 -171t30.5 -217v-145h-692q9 -110 60 -158.5t145 -48.5q81 0 131.5 38.5t50.5 90.5h305v-8q0 -160 -130.5 -263.5t-358.5 -103.5q-260 0 -393.5 148t-133.5 393zM387 659h365 q-8 106 -52.5 156.5t-130.5 50.5t-130 -50.5t-52 -156.5z" />
<glyph unicode="f" horiz-adv-x="841" d="M39 803v282h166v177q0 214 106 308.5t301 94.5q125 0 174 -27v-266q-9 5 -41 9.5t-57 4.5q-81 0 -120.5 -33t-39.5 -126v-142h238v-282h-238v-803h-323v803h-166z" />
<glyph unicode="g" horiz-adv-x="1175" d="M61 547v57q0 112 23 202.5t70 160t126 107.5t185 38q204 0 309 -151l23 124h288l-18 -307v-758q0 -456 -502 -456q-132 0 -227.5 30t-150.5 85t-80 123.5t-25 154.5v43h305q0 -84 38.5 -129t133.5 -45q96 0 140 44.5t44 152.5v127q-100 -111 -278 -111q-404 0 -404 508z M385 547q0 -230 174 -230q65 0 112 32t72 71v311q-25 39 -72 71t-112 32q-85 0 -129.5 -62t-44.5 -168v-57z" />
<glyph unicode="h" horiz-adv-x="1187" d="M111 0v1638h323v-657q118 131 320 131q89 0 155.5 -30.5t105 -84.5t57 -119.5t18.5 -142.5v-735h-322v682q0 67 -33 109.5t-110 42.5q-68 0 -117 -32t-74 -71v-731h-323z" />
<glyph unicode="i" horiz-adv-x="544" d="M102 1239v342h340v-342h-340zM111 0v1085h323v-1085h-323z" />
<glyph unicode="j" horiz-adv-x="548" d="M-150 -143q10 -5 42.5 -10t58.5 -5q80 0 120 33.5t40 126.5v1083h323v-1118q0 -403 -407 -403q-130 0 -177 26v267zM102 1239v342h340v-342h-340z" />
<glyph unicode="k" horiz-adv-x="1150" d="M102 0v1638h324v-921l301 368h387l-358 -411l358 -674h-377l-205 418l-106 -123v-295h-324z" />
<glyph unicode="l" horiz-adv-x="544" d="M111 0v1638h323v-1638h-323z" />
<glyph unicode="m" horiz-adv-x="1767" d="M92 1085h289l22 -131q113 158 326 158q208 0 285 -168q116 168 334 168q161 0 241 -100.5t80 -263.5v-748h-321v696q0 138 -129 138q-102 0 -168 -95v-739h-322v696q0 138 -129 138q-105 0 -166 -95v-739h-323v778z" />
<glyph unicode="n" horiz-adv-x="1187" d="M92 1085h289l25 -139q118 166 348 166q89 0 155.5 -30.5t105 -84.5t57 -119.5t18.5 -142.5v-735h-322v682q0 67 -33 109.5t-110 42.5q-68 0 -117 -32t-74 -71v-731h-323v778z" />
<glyph unicode="o" horiz-adv-x="1138" d="M61 506v74q0 245 128 388.5t380 143.5q253 0 380.5 -143.5t127.5 -388.5v-74q0 -245 -127.5 -389t-380.5 -144q-252 0 -380 144t-128 389zM385 506q0 -254 184 -254q185 0 185 254v74q0 254 -185 254q-184 0 -184 -254v-74z" />
<glyph unicode="p" horiz-adv-x="1175" d="M90 1085h289l22 -133q106 160 310 160q403 0 403 -532v-74q0 -533 -403 -533q-178 0 -279 119v-502h-323v1188zM432 354q71 -102 184 -102q175 0 175 254v74q0 254 -175 254q-64 0 -110 -31.5t-74 -71.5v-377z" />
<glyph unicode="q" horiz-adv-x="1189" d="M68 506v74q0 532 403 532q202 0 307 -158l23 131h291l-19 -307v-1188h-323v502q-101 -119 -279 -119q-403 0 -403 533zM389 506q0 -254 176 -254q64 0 111 31.5t74 70.5v377q-27 40 -74 71.5t-111 31.5q-176 0 -176 -254v-74z" />
<glyph unicode="r" horiz-adv-x="788" d="M92 1085h289l22 -127q50 71 123.5 112.5t165.5 41.5q23 0 31 -2v-311h-55q-89 0 -148.5 -28.5t-85.5 -65.5v-705h-323v778z" />
<glyph unicode="s" horiz-adv-x="1081" d="M72 334v10h321q0 -125 148 -125q74 0 109.5 29t35.5 78q0 52 -34.5 76.5t-127.5 31.5q-236 19 -338 87t-102 218v19q0 121 61.5 202t161.5 116.5t234 35.5q456 0 456 -373v-10h-317q0 137 -139 137q-66 0 -102 -26.5t-36 -71.5q0 -51 32.5 -74t123.5 -30 q88 -7 152.5 -18.5t124 -34t96 -55t58.5 -83t22 -117.5v-18q0 -172 -120 -268.5t-351 -96.5q-230 0 -349.5 98.5t-119.5 262.5z" />
<glyph unicode="t" horiz-adv-x="882" d="M39 803v282h166v308h323v-308h279v-282h-279v-391q0 -93 39.5 -126.5t120.5 -33.5q25 0 57 4.5t41 9.5v-266q-49 -27 -174 -27q-194 0 -300.5 95t-106.5 309v426h-166z" />
<glyph unicode="u" horiz-adv-x="1187" d="M98 350v735h322v-682q0 -67 33 -109t110 -42q120 0 191 102v731h323v-778l19 -307h-289l-25 137q-120 -164 -348 -164q-90 0 -156.5 30.5t-105 84.5t-56.5 119.5t-18 142.5z" />
<glyph unicode="v" horiz-adv-x="1124" d="M20 1085h334l209 -825l207 825h336l-318 -1085h-452z" />
<glyph unicode="w" horiz-adv-x="1568" d="M39 1085h317l82 -735l152 735h387l153 -735l82 735h318l-189 -1085h-405l-152 748l-151 -748h-408z" />
<glyph unicode="x" horiz-adv-x="1142" d="M35 0l276 561l-276 524h373l163 -366l164 366h375l-279 -524l279 -561h-365l-174 389l-172 -389h-364z" />
<glyph unicode="y" horiz-adv-x="1128" d="M10 1085h352l205 -692l205 692h352l-383 -1028l-139 -467h-385l174 467z" />
<glyph unicode="z" horiz-adv-x="1021" d="M49 0v221l479 588l-225 -6h-233v282h882v-221l-479 -588l225 7h275v-283h-924z" />
<glyph unicode="{" horiz-adv-x="747" d="M49 596v283q79 0 116.5 39.5t37.5 128.5v309q0 100 29.5 171.5t86.5 113t132 60.5t174 19h55v-282q-76 0 -114.5 -37t-41.5 -119v-307q0 -169 -123 -238q123 -69 123 -237v-289q0 -92 38 -133t118 -41v-283h-55q-99 0 -174 19t-132 61t-86.5 113.5t-29.5 171.5v325 q-4 80 -41.5 116t-112.5 36z" />
<glyph unicode="|" horiz-adv-x="534" d="M111 -246v1966h315v-1966h-315z" />
<glyph unicode="}" horiz-adv-x="747" d="M68 37q79 0 117 41t38 133v289q0 167 121 237q-121 70 -121 238v289q0 92 -38 133t-117 41v282h55q99 0 174 -19t132 -60.5t86.5 -113t29.5 -171.5v-328q3 -79 40 -114t113 -35v-283q-79 0 -116 -39.5t-37 -128.5v-309q0 -100 -29.5 -171.5t-86.5 -113.5t-132 -61 t-174 -19h-55v283z" />
<glyph unicode="~" d="M57 793q54 86 136 140t184 54q72 0 141 -21t114.5 -45.5t102 -45.5t105.5 -21q97 0 180 98l151 -151q-55 -86 -136 -140.5t-183 -54.5q-72 0 -141 21t-114.5 45.5t-102 45.5t-105.5 21q-97 0 -180 -98z" />
<glyph unicode="&#xa1;" horiz-adv-x="542" d="M72 -410l86 1028h229l86 -1028h-401zM102 743v342h340v-342h-340z" />
<glyph unicode="&#xa2;" d="M80 760v78q0 329 134 494t415 165h18l53 223h250l-63 -264q262 -102 262 -440v-62h-320q0 131 -42.5 195.5t-143.5 64.5h-14q-117 0 -168 -97.5t-51 -278.5v-74q0 -181 51 -279t168 -98h14q186 0 186 215h320v-33q0 -231 -130.5 -349t-389.5 -118q-46 0 -66 2l-53 -227 h-250l70 293q-250 140 -250 590z" />
<glyph unicode="&#xa3;" d="M90 0v285h313q-20 149 -81 323h-232v281h139q-41 151 -41 305q0 66 14 126t48.5 116.5t87 97.5t135 65.5t186.5 24.5q259 0 370.5 -137.5t111.5 -427.5v-35h-326q0 155 -37 235t-119 80q-143 0 -143 -172q0 -111 45 -278h361v-281h-287q41 -175 51 -323h453v-285h-1049z " />
<glyph unicode="&#xa5;" d="M14 1597h365l235 -684l236 684h364l-258 -614h189v-283h-307l-54 -127h361v-282h-365v-291h-331v291h-365v282h358l-53 127h-305v283h186z" />
<glyph unicode="&#xa6;" horiz-adv-x="534" d="M111 -246v934h315v-934h-315zM111 786v934h315v-934h-315z" />
<glyph unicode="&#xa7;" horiz-adv-x="1124" d="M63 774v19q0 174 142 256q-70 76 -70 202v19q0 91 34.5 160t97 111t144 62.5t179.5 20.5q233 0 345 -96.5t112 -276.5v-10h-316q0 139 -141 139q-67 0 -103 -27t-36 -73q0 -54 34.5 -84.5t124.5 -38.5q87 -7 152 -20t123.5 -37.5t95.5 -60t58.5 -90t21.5 -126.5v-18 q0 -177 -143 -258q71 -77 71 -201v-18q0 -91 -34.5 -160.5t-97.5 -111.5t-144.5 -62.5t-180.5 -20.5q-232 0 -343 96.5t-111 276.5v10h315q0 -139 139 -139q67 0 103.5 27t36.5 73q0 53 -34.5 83.5t-123.5 39.5q-87 7 -152 20t-123.5 37.5t-95.5 60t-58.5 90t-21.5 126.5z M387 799q0 -63 41.5 -96.5t134.5 -36.5h19q78 3 116.5 39.5t38.5 93.5q0 64 -42 97t-136 36h-18q-78 -4 -116 -40t-38 -93z" />
<glyph unicode="&#xa8;" horiz-adv-x="1024" d="M123 1241v340h338v-340h-338zM563 1241v340h338v-340h-338z" />
<glyph unicode="&#xa9;" horiz-adv-x="1884" d="M117 799q0 168 65 321t175.5 263.5t263.5 175.5t321 65t321 -65t263.5 -175.5t175.5 -263.5t65 -321t-65 -321t-175.5 -263.5t-263.5 -176t-321 -65.5t-321 65.5t-263.5 176t-175.5 263.5t-65 321zM231 799q0 -145 56.5 -276.5t151.5 -226.5t226.5 -151.5t276.5 -56.5 t276.5 56.5t226.5 151.5t151.5 226.5t56.5 276.5q0 193 -95 356.5t-259 258.5t-357 95t-357 -95t-259 -258.5t-95 -356.5zM500 764v70q0 104 25.5 188.5t77.5 149.5t138.5 101t200.5 36q207 0 314.5 -97.5t107.5 -259.5v-43h-272q0 70 -36.5 109t-107.5 39q-160 0 -160 -223 v-70q0 -223 160 -223q70 0 107 36t37 93h272v-41q0 -152 -108 -246t-314 -94q-114 0 -200.5 36t-138.5 101t-77.5 149.5t-25.5 188.5z" />
<glyph unicode="&#xaa;" horiz-adv-x="878" d="M57 1022v14q0 124 75 183t224 81l172 27q-3 44 -23 65t-65 21q-86 0 -86 -78h-266v15q0 58 18 105.5t58 86.5t112.5 60.5t172.5 21.5q199 0 280.5 -76.5t81.5 -234.5v-291l14 -229h-254l-16 81q-92 -102 -244 -102q-70 0 -121 20t-79 56t-41 79t-13 95zM80 371v243h741 v-243h-741zM338 1065q0 -30 18.5 -49t59.5 -19q56 0 112 45v125l-112 -18q-39 -6 -58.5 -26.5t-19.5 -49.5v-8z" />
<glyph unicode="&#xab;" horiz-adv-x="1157" d="M102 541v311l443 301v-285l-223 -172l223 -172v-284zM612 541v311l443 301v-285l-224 -172l224 -172v-284z" />
<glyph unicode="&#xac;" d="M86 891v289h1057v-783h-289v494h-768z" />
<glyph unicode="&#xad;" horiz-adv-x="722" d="M82 575v283h559v-283h-559z" />
<glyph unicode="&#xae;" horiz-adv-x="675" d="M35 1362q0 126 88.5 214.5t214.5 88.5t214.5 -88.5t88.5 -214.5t-88.5 -214.5t-214.5 -88.5t-214.5 88.5t-88.5 214.5zM84 1362q0 -106 74 -180t180 -74t180 74t74 180t-74 180t-180 74t-180 -74t-74 -180zM182 1186v352h187q53 0 89 -27t36 -90v-10q0 -79 -58 -104 l58 -121h-117l-43 108h-39v-108h-113zM295 1378h49q37 0 37 35v6q0 35 -37 35h-49v-76z" />
<glyph unicode="&#xaf;" horiz-adv-x="1024" d="M205 1268v282h614v-282h-614z" />
<glyph unicode="&#xb0;" horiz-adv-x="819" d="M78 1284v10q0 151 94 240.5t238 89.5t237.5 -89.5t93.5 -240.5v-10q0 -150 -93.5 -240t-237.5 -90t-238 90.5t-94 239.5zM274 1284q0 -59 37.5 -95t94.5 -36h8q57 0 94 36t37 95v12q0 59 -37 95t-94 36h-8q-57 0 -94.5 -36t-37.5 -95v-12z" />
<glyph unicode="&#xb1;" d="M86 279v288h1057v-288h-1057zM86 868v289h385v221h287v-221h385v-289h-385v-221h-287v221h-385z" />
<glyph unicode="&#xb2;" horiz-adv-x="614" d="M27 799v155l282 314q27 30 27 65v23q0 20 -7.5 37.5t-21.5 17.5h-6q-29 0 -29 -80h-245v31q0 46 12.5 88.5t41.5 83.5t86.5 65.5t137.5 24.5q79 0 136.5 -24.5t86.5 -63t41.5 -76t12.5 -74.5v-36q0 -61 -20 -102t-68 -97l-127 -141h215v-211h-555z" />
<glyph unicode="&#xb3;" horiz-adv-x="614" d="M23 1038v17h245q0 -36 12 -53t25 -17h6q12 0 23.5 17t11.5 45v10q0 51 -39 51h-102v197h100q31 0 31 51v4q0 15 -8 33t-21 18h-6q-29 0 -29 -80h-245v19q0 40 7 76t26.5 73t49.5 64t80 44t115 17q64 0 114.5 -16t80 -40.5t49 -55.5t26.5 -58.5t7 -52.5v-21 q0 -120 -99 -174q107 -60 107 -178v-20q0 -105 -77 -170.5t-206 -65.5q-130 0 -207 72t-77 194z" />
<glyph unicode="&#xb4;" horiz-adv-x="1024" d="M352 1221l187 376h352l-219 -376h-320z" />
<glyph unicode="&#xb6;" horiz-adv-x="1124" d="M51 1065v41q0 122 33.5 213t86 143t129 83.5t148 41.5t158.5 10h408v-1597h-332v573h-76q-61 0 -113 4.5t-110 18.5t-104.5 36.5t-90.5 60.5t-73 88t-46.5 122.5t-17.5 161.5z" />
<glyph unicode="&#xb7;" horiz-adv-x="544" d="M102 547v342h340v-342h-340z" />
<glyph unicode="&#xb8;" horiz-adv-x="1232" d="M295 -389l47 135q58 -35 147 -35q97 0 97 47t-99 47q-16 0 -35.5 -2.5t-30.5 -4.5l-11 -3l-31 58l59 147h148l-31 -82q92 -6 148.5 -51t56.5 -127q0 -88 -62.5 -134t-183.5 -46q-139 0 -219 51z" />
<glyph unicode="&#xb9;" horiz-adv-x="614" d="M10 1427l254 172h185v-589h145v-211h-539v211h148v290l-72 -47z" />
<glyph unicode="&#xba;" horiz-adv-x="907" d="M63 1167v62q0 185 97.5 291t292.5 106t293 -106t98 -291v-62q0 -184 -98 -289.5t-293 -105.5t-292.5 105.5t-97.5 289.5zM82 371v243h743v-243h-743zM344 1167q0 -153 109 -153q110 0 110 153v62q0 155 -110 155q-109 0 -109 -155v-62z" />
<glyph unicode="&#xbb;" horiz-adv-x="1157" d="M102 240v284l224 172l-224 172v285l443 -301v-311zM612 240v284l224 172l-224 172v285l443 -301v-311z" />
<glyph unicode="&#xbc;" horiz-adv-x="1638" d="M10 1427l254 172h185v-589h145v-211h-539v211h148v290l-72 -47zM92 0l1180 1597h274l-1179 -1597h-275zM1044 139v189l259 471h247v-447h66v-213h-66v-139h-245v139h-261zM1241 352h64v117z" />
<glyph unicode="&#xbd;" horiz-adv-x="1638" d="M10 1427l254 172h185v-589h145v-211h-539v211h148v290l-72 -47zM92 0l1180 1597h274l-1179 -1597h-275zM1051 0v156l282 313q27 30 27 66v22q0 20 -7.5 37.5t-21.5 17.5h-6q-29 0 -29 -80h-245v31q0 46 12.5 88.5t41.5 83.5t86.5 65.5t137.5 24.5q64 0 114 -16.5t80 -42 t49.5 -58.5t26.5 -62.5t7 -57.5v-37q0 -61 -20 -102t-68 -97l-127 -141h215v-211h-555z" />
<glyph unicode="&#xbe;" horiz-adv-x="1638" d="M23 1038v17h245q0 -36 12 -53t25 -17h6q12 0 23.5 17t11.5 45v10q0 51 -39 51h-102v197h100q31 0 31 51v4q0 15 -8 33t-21 18h-6q-29 0 -29 -80h-245v19q0 40 7 76t26.5 73t49.5 64t80 44t115 17q64 0 114.5 -16t80 -40.5t49 -55.5t26.5 -58.5t7 -52.5v-21 q0 -120 -99 -174q107 -60 107 -178v-20q0 -105 -77 -170.5t-206 -65.5q-130 0 -207 72t-77 194zM92 0l1180 1597h274l-1179 -1597h-275zM1044 139v189l259 471h247v-447h66v-213h-66v-139h-245v139h-261zM1241 352h64v117z" />
<glyph unicode="&#xbf;" horiz-adv-x="1017" d="M37 -53q0 80 18.5 144.5t49 107.5t67.5 79.5t75.5 70t71 69t56 86.5t28.5 114h228q6 -73 -11 -144t-47 -124.5t-66.5 -108t-68.5 -96.5t-54 -88t-22 -84q0 -125 138 -125q83 0 116 63t33 212h324v-35q0 -131 -24.5 -226t-79 -163t-146.5 -101.5t-223 -33.5 q-103 0 -184.5 22t-133 58.5t-85 87t-47 103.5t-13.5 112zM346 743v342h340v-342h-340z" />
<glyph unicode="&#xc0;" horiz-adv-x="1312" d="M29 0l399 1602h457l399 -1602h-354l-78 344h-391l-76 -344h-356zM365 1946h337l113 -226h-319zM524 631h262l-131 588z" />
<glyph unicode="&#xc1;" horiz-adv-x="1312" d="M29 0l399 1602h457l399 -1602h-354l-78 344h-391l-76 -344h-356zM496 1720l112 226h338l-131 -226h-319zM524 631h262l-131 588z" />
<glyph unicode="&#xc2;" horiz-adv-x="1312" d="M29 0l399 1602h457l399 -1602h-354l-78 344h-391l-76 -344h-356zM238 1720l254 226h327l254 -226h-291l-127 90l-127 -90h-290zM524 631h262l-131 588z" />
<glyph unicode="&#xc3;" horiz-adv-x="1312" d="M29 0l399 1602h457l399 -1602h-354l-78 344h-391l-76 -344h-356zM276 1726q0 126 59.5 185t151.5 59q56 0 116 -24.5t109.5 -49t80.5 -24.5q67 0 67 67h174q0 -126 -59.5 -184.5t-151.5 -58.5q-56 0 -115.5 24.5t-109 49t-80.5 24.5q-67 0 -67 -68h-175zM524 631h262 l-131 588z" />
<glyph unicode="&#xc4;" horiz-adv-x="1312" d="M29 0l399 1602h457l399 -1602h-354l-78 344h-391l-76 -344h-356zM340 1731v204h272v-204h-272zM524 631h262l-131 588zM698 1731v204h273v-204h-273z" />
<glyph unicode="&#xc5;" horiz-adv-x="1312" d="M29 0l399 1602h78q-66 63 -66 155q0 89 63 152t152 63t152 -63t63 -152q0 -90 -65 -155h80l399 -1602h-354l-78 344h-391l-76 -344h-356zM524 631h262l-131 588zM551 1757q0 -43 30.5 -73.5t73.5 -30.5t74 30.5t31 73.5t-31 73t-74 30t-73.5 -30t-30.5 -73z" />
<glyph unicode="&#xc6;" horiz-adv-x="1812" d="M16 0l557 1597h1158v-286h-664l47 -353h514v-286h-473l53 -385h523v-287h-836l-39 348h-373l-110 -348h-357zM573 635h250l-63 582z" />
<glyph unicode="&#xc7;" horiz-adv-x="1331" d="M80 758v82q0 413 143.5 598.5t456.5 185.5q290 0 430.5 -132.5t140.5 -426.5v-74h-331q0 175 -49 260.5t-173 85.5h-18q-63 0 -109 -21.5t-76 -61t-47.5 -102.5t-24.5 -137t-7 -175v-82q0 -127 11.5 -214t40.5 -153.5t81 -98.5t131 -32h18q222 0 222 285h331v-19 q0 -268 -120 -399.5t-367 -149.5l-23 -59q92 -6 148.5 -51t56.5 -127q0 -88 -62.5 -134t-183.5 -46q-139 0 -219 51l47 135q58 -35 148 -35q96 0 96 47t-98 47q-16 0 -35.5 -2.5t-30.5 -4.5l-12 -3l-31 58l49 122q-279 19 -406.5 205t-127.5 578z" />
<glyph unicode="&#xc8;" horiz-adv-x="1173" d="M115 0v1597h977v-286h-646v-353h543v-286h-543v-385h646v-287h-977zM315 1946h338l113 -226h-320z" />
<glyph unicode="&#xc9;" horiz-adv-x="1173" d="M115 0v1597h977v-286h-646v-353h543v-286h-543v-385h646v-287h-977zM446 1720l113 226h338l-131 -226h-320z" />
<glyph unicode="&#xca;" horiz-adv-x="1173" d="M115 0v1597h977v-286h-646v-353h543v-286h-543v-385h646v-287h-977zM188 1720l254 226h328l254 -226h-291l-127 90l-127 -90h-291z" />
<glyph unicode="&#xcb;" horiz-adv-x="1173" d="M115 0v1597h977v-286h-646v-353h543v-286h-543v-385h646v-287h-977zM291 1731v204h272v-204h-272zM649 1731v204h273v-204h-273z" />
<glyph unicode="&#xcc;" horiz-adv-x="579" d="M0 1946h338l113 -226h-320zM125 0v1597h332v-1597h-332z" />
<glyph unicode="&#xcd;" horiz-adv-x="579" d="M125 0v1597h332v-1597h-332zM131 1720l113 226h338l-131 -226h-320z" />
<glyph unicode="&#xce;" horiz-adv-x="579" d="M-127 1720l254 226h328l254 -226h-291l-127 90l-127 -90h-291zM125 0v1597h332v-1597h-332z" />
<glyph unicode="&#xcf;" horiz-adv-x="579" d="M-25 1731v204h273v-204h-273zM125 0v1597h332v-1597h-332zM334 1731v204h272v-204h-272z" />
<glyph unicode="&#xd0;" horiz-adv-x="1480" d="M25 694v248h213v655h489q241 0 387 -74t216.5 -240t70.5 -443v-82q0 -277 -70.5 -443t-216.5 -240.5t-387 -74.5h-489v694h-213zM569 287h140q103 0 171.5 28t109 88.5t57 145.5t16.5 209v82q0 124 -16.5 209t-57 145.5t-109 88.5t-171.5 28h-140v-369h338v-248h-338 v-407z" />
<glyph unicode="&#xd1;" horiz-adv-x="1398" d="M115 0v1597h350l514 -991l-10 322v669h315v-1597h-350l-516 991l10 -321v-670h-313zM319 1726q0 126 59.5 185t151.5 59q56 0 116 -24.5t109.5 -49t80.5 -24.5q67 0 67 67h174q0 -126 -59.5 -184.5t-151.5 -58.5q-56 0 -115.5 24.5t-109 49t-80.5 24.5q-67 0 -67 -68 h-175z" />
<glyph unicode="&#xd2;" horiz-adv-x="1378" d="M80 758v82q0 411 147.5 597.5t460.5 186.5q315 0 462.5 -186.5t147.5 -597.5v-82q0 -411 -147.5 -598t-462.5 -187q-313 0 -460.5 187t-147.5 598zM397 1946h338l113 -226h-320zM416 758q0 -253 58.5 -375.5t205.5 -122.5h18q147 0 205 122.5t58 375.5v82q0 253 -58 375 t-205 122h-18q-147 0 -205.5 -122t-58.5 -375v-82z" />
<glyph unicode="&#xd3;" horiz-adv-x="1378" d="M80 758v82q0 411 147.5 597.5t460.5 186.5q315 0 462.5 -186.5t147.5 -597.5v-82q0 -411 -147.5 -598t-462.5 -187q-313 0 -460.5 187t-147.5 598zM416 758q0 -253 58.5 -375.5t205.5 -122.5h18q147 0 205 122.5t58 375.5v82q0 253 -58 375t-205 122h-18 q-147 0 -205.5 -122t-58.5 -375v-82zM528 1720l113 226h338l-131 -226h-320z" />
<glyph unicode="&#xd4;" horiz-adv-x="1378" d="M80 758v82q0 411 147.5 597.5t460.5 186.5q315 0 462.5 -186.5t147.5 -597.5v-82q0 -411 -147.5 -598t-462.5 -187q-313 0 -460.5 187t-147.5 598zM270 1720l254 226h328l254 -226h-291l-127 90l-127 -90h-291zM416 758q0 -253 58.5 -375.5t205.5 -122.5h18 q147 0 205 122.5t58 375.5v82q0 253 -58 375t-205 122h-18q-147 0 -205.5 -122t-58.5 -375v-82z" />
<glyph unicode="&#xd5;" horiz-adv-x="1378" d="M80 758v82q0 411 147.5 597.5t460.5 186.5q315 0 462.5 -186.5t147.5 -597.5v-82q0 -411 -147.5 -598t-462.5 -187q-313 0 -460.5 187t-147.5 598zM309 1726q0 126 59.5 185t151.5 59q56 0 115.5 -24.5t109 -49t80.5 -24.5q68 0 68 67h174q0 -126 -59.5 -184.5 t-151.5 -58.5q-56 0 -115.5 24.5t-109 49t-80.5 24.5q-68 0 -68 -68h-174zM416 758q0 -253 58.5 -375.5t205.5 -122.5h18q147 0 205 122.5t58 375.5v82q0 253 -58 375t-205 122h-18q-147 0 -205.5 -122t-58.5 -375v-82z" />
<glyph unicode="&#xd6;" horiz-adv-x="1378" d="M80 758v82q0 411 147.5 597.5t460.5 186.5q315 0 462.5 -186.5t147.5 -597.5v-82q0 -411 -147.5 -598t-462.5 -187q-313 0 -460.5 187t-147.5 598zM373 1731v204h272v-204h-272zM416 758q0 -253 58.5 -375.5t205.5 -122.5h18q147 0 205 122.5t58 375.5v82q0 253 -58 375 t-205 122h-18q-147 0 -205.5 -122t-58.5 -375v-82zM731 1731v204h273v-204h-273z" />
<glyph unicode="&#xd7;" d="M59 449l351 350l-351 350l205 205l350 -350l351 350l204 -205l-350 -350l350 -350l-204 -205l-351 350l-350 -350z" />
<glyph unicode="&#xd8;" horiz-adv-x="1372" d="M78 0l125 195q-123 191 -123 563v82q0 411 147.5 597.5t460.5 186.5q225 0 365 -94l43 67h200l-122 -192q124 -187 124 -565v-82q0 -411 -147.5 -598t-462.5 -187q-228 0 -366 97l-43 -70h-201zM416 758q0 -120 12 -209l451 706q-63 82 -181 82h-18q-147 0 -205.5 -122 t-58.5 -375v-82zM498 344q63 -84 182 -84h18q147 0 205 122.5t58 375.5v82q0 112 -13 211z" />
<glyph unicode="&#xd9;" horiz-adv-x="1357" d="M104 506v1091h332v-1081q0 -133 53 -194.5t189 -61.5t190 61.5t54 194.5v1081h331v-1091q0 -135 -29 -231t-95.5 -165.5t-178 -103t-272.5 -33.5t-272.5 33.5t-177.5 103t-95 165.5t-29 231zM387 1946h338l113 -226h-320z" />
<glyph unicode="&#xda;" horiz-adv-x="1357" d="M104 506v1091h332v-1081q0 -133 53 -194.5t189 -61.5t190 61.5t54 194.5v1081h331v-1091q0 -135 -29 -231t-95.5 -165.5t-178 -103t-272.5 -33.5t-272.5 33.5t-177.5 103t-95 165.5t-29 231zM518 1720l113 226h338l-131 -226h-320z" />
<glyph unicode="&#xdb;" horiz-adv-x="1357" d="M104 506v1091h332v-1081q0 -133 53 -194.5t189 -61.5t190 61.5t54 194.5v1081h331v-1091q0 -135 -29 -231t-95.5 -165.5t-178 -103t-272.5 -33.5t-272.5 33.5t-177.5 103t-95 165.5t-29 231zM260 1720l254 226h328l254 -226h-291l-127 90l-127 -90h-291z" />
<glyph unicode="&#xdc;" horiz-adv-x="1357" d="M104 506v1091h332v-1081q0 -133 53 -194.5t189 -61.5t190 61.5t54 194.5v1081h331v-1091q0 -135 -29 -231t-95.5 -165.5t-178 -103t-272.5 -33.5t-272.5 33.5t-177.5 103t-95 165.5t-29 231zM362 1731v204h273v-204h-273zM721 1731v204h272v-204h-272z" />
<glyph unicode="&#xdd;" horiz-adv-x="1280" d="M16 1597h363l262 -698l260 698h363l-457 -1108v-489h-332v489zM481 1720l113 226h338l-131 -226h-320z" />
<glyph unicode="&#xde;" horiz-adv-x="1247" d="M115 0v1597h331v-286h193q61 0 113 -5t110 -18.5t105 -36.5t90.5 -61t72.5 -88t46.5 -122.5t17.5 -160.5v-41q0 -122 -33.5 -213t-86 -143t-129 -83.5t-148 -41.5t-158.5 -10h-193v-287h-331zM446 573h207q38 0 70.5 9t65 30.5t51 66.5t18.5 109v21q0 64 -18.5 109 t-51 66.5t-65 30.5t-70.5 9h-207v-451z" />
<glyph unicode="&#xdf;" horiz-adv-x="1294" d="M100 0v1217q0 97 28 176t86.5 141t159.5 96.5t238 34.5q127 0 226.5 -36t160.5 -99t92 -142.5t31 -170.5v-21q0 -126 -52 -216t-155 -165l50 -33q288 -194 288 -428v-18q0 -73 -22.5 -136.5t-68 -115t-123 -81.5t-179.5 -30q-73 0 -129.5 12t-95.5 35t-66 53.5t-42 72 t-21 85t-6 97.5v16h274q0 -125 80 -125q76 0 76 113q0 115 -156 221l-190 131v205q215 119 215 293q0 95 -46 149.5t-141 54.5q-94 0 -141 -55t-47 -133v-1198h-324z" />
<glyph unicode="&#xe0;" horiz-adv-x="1124" d="M61 299v20q0 86 28 148.5t83 102t121.5 62t157.5 36.5l249 39q-2 83 -34.5 121t-112.5 38q-145 0 -145 -139h-306v18q0 75 22.5 137.5t73 116t143.5 83.5t222 30q131 0 221 -27t142.5 -82t75 -129t22.5 -176v-391l20 -307h-290l-21 113q-130 -140 -340 -140 q-88 0 -154 26t-104 72t-56 103t-18 125zM182 1597h353l186 -376h-320zM383 346q0 -46 31.5 -78t97.5 -32q111 0 188 81v199l-184 -29q-72 -11 -102.5 -43.5t-30.5 -85.5v-12z" />
<glyph unicode="&#xe1;" horiz-adv-x="1124" d="M61 299v20q0 86 28 148.5t83 102t121.5 62t157.5 36.5l249 39q-2 83 -34.5 121t-112.5 38q-145 0 -145 -139h-306v18q0 75 22.5 137.5t73 116t143.5 83.5t222 30q131 0 221 -27t142.5 -82t75 -129t22.5 -176v-391l20 -307h-290l-21 113q-130 -140 -340 -140 q-88 0 -154 26t-104 72t-56 103t-18 125zM383 346q0 -46 31.5 -78t97.5 -32q111 0 188 81v199l-184 -29q-72 -11 -102.5 -43.5t-30.5 -85.5v-12zM401 1221l187 376h352l-219 -376h-320z" />
<glyph unicode="&#xe2;" horiz-adv-x="1124" d="M61 299v20q0 86 28 148.5t83 102t121.5 62t157.5 36.5l249 39q-2 83 -34.5 121t-112.5 38q-145 0 -145 -139h-306v18q0 75 22.5 137.5t73 116t143.5 83.5t222 30q131 0 221 -27t142.5 -82t75 -129t22.5 -176v-391l20 -307h-290l-21 113q-130 -140 -340 -140 q-88 0 -154 26t-104 72t-56 103t-18 125zM131 1221l275 376h311l274 -376h-282l-148 168l-147 -168h-283zM383 346q0 -46 31.5 -78t97.5 -32q111 0 188 81v199l-184 -29q-72 -11 -102.5 -43.5t-30.5 -85.5v-12z" />
<glyph unicode="&#xe3;" horiz-adv-x="1124" d="M61 299v20q0 86 28 148.5t83 102t121.5 62t157.5 36.5l249 39q-2 83 -34.5 121t-112.5 38q-145 0 -145 -139h-306v18q0 75 22.5 137.5t73 116t143.5 83.5t222 30q131 0 221 -27t142.5 -82t75 -129t22.5 -176v-391l20 -307h-290l-21 113q-130 -140 -340 -140 q-88 0 -154 26t-104 72t-56 103t-18 125zM150 1286q0 164 62.5 245t164.5 81q56 0 118 -27t114 -53.5t85 -26.5q64 0 64 76h215q0 -164 -63 -245t-165 -81q-44 0 -93 16.5t-84 37t-74 37t-66 16.5q-63 0 -63 -76h-215zM383 346q0 -46 31.5 -78t97.5 -32q111 0 188 81v199 l-184 -29q-72 -11 -102.5 -43.5t-30.5 -85.5v-12z" />
<glyph unicode="&#xe4;" horiz-adv-x="1124" d="M61 299v20q0 86 28 148.5t83 102t121.5 62t157.5 36.5l249 39q-2 83 -34.5 121t-112.5 38q-145 0 -145 -139h-306v18q0 75 22.5 137.5t73 116t143.5 83.5t222 30q131 0 221 -27t142.5 -82t75 -129t22.5 -176v-391l20 -307h-290l-21 113q-130 -140 -340 -140 q-88 0 -154 26t-104 72t-56 103t-18 125zM172 1241v340h338v-340h-338zM383 346q0 -46 31.5 -78t97.5 -32q111 0 188 81v199l-184 -29q-72 -11 -102.5 -43.5t-30.5 -85.5v-12zM612 1241v340h338v-340h-338z" />
<glyph unicode="&#xe5;" horiz-adv-x="1124" d="M61 299v20q0 86 28 148.5t83 102t121.5 62t157.5 36.5l249 39q-2 83 -34.5 121t-112.5 38q-145 0 -145 -139h-306v18q0 75 22.5 137.5t73 116t143.5 83.5t222 30q131 0 221 -27t142.5 -82t75 -129t22.5 -176v-391l20 -307h-290l-21 113q-130 -140 -340 -140 q-88 0 -154 26t-104 72t-56 103t-18 125zM348 1409q0 89 63 152t152 63t152 -63t63 -152t-63 -153t-152 -64t-152 64t-63 153zM383 346q0 -46 31.5 -78t97.5 -32q111 0 188 81v199l-184 -29q-72 -11 -102.5 -43.5t-30.5 -85.5v-12zM459 1409q0 -43 30.5 -73.5t73.5 -30.5 t74 30.5t31 73.5q0 42 -31 72t-74 30t-73.5 -29.5t-30.5 -72.5z" />
<glyph unicode="&#xe6;" horiz-adv-x="1759" d="M61 299v20q0 86 28.5 148.5t83.5 102t121.5 62t158.5 36.5l247 39q-2 83 -34.5 121t-112.5 38q-145 0 -145 -139h-306v18q0 75 22.5 137.5t73 116t143.5 83.5t222 30q240 0 334 -121q115 121 320 121q125 0 221.5 -40t156.5 -113t90.5 -171t30.5 -217v-145h-692 q9 -110 60 -158.5t145 -48.5q81 0 131.5 38.5t50.5 90.5h305v-8q0 -160 -130.5 -263.5t-358.5 -103.5q-262 0 -398 152q-81 -70 -187.5 -111t-223.5 -41q-94 0 -165 26t-111.5 72t-60.5 103t-20 125zM383 336q0 -45 32 -77t97 -32q75 0 128 34t79 73l2 2q-21 93 -21 172 l-182 -29q-135 -22 -135 -129v-14zM1026 659h365q-8 106 -52.5 156.5t-130.5 50.5t-130 -50.5t-52 -156.5z" />
<glyph unicode="&#xe7;" horiz-adv-x="1079" d="M61 506v74q0 119 29 215.5t88 167.5t154 110t221 39q228 0 347.5 -108t119.5 -293v-47h-305q0 83 -40 126.5t-116 43.5q-174 0 -174 -254v-74q0 -254 174 -254q76 0 116 41t40 108h305v-45q0 -160 -103 -262t-299 -117l-20 -59q92 -6 148.5 -51t56.5 -127 q0 -88 -62.5 -134t-183.5 -46q-139 0 -219 51l47 135q58 -35 147 -35q97 0 97 47t-99 47q-16 0 -35.5 -2.5t-30.5 -4.5l-11 -3l-31 58l49 127q-139 15 -232 86t-135.5 181.5t-42.5 258.5z" />
<glyph unicode="&#xe8;" horiz-adv-x="1138" d="M61 514v57q0 118 32.5 216.5t95.5 171t161.5 113t224.5 40.5t223 -40t157.5 -113t91 -171t30.5 -217v-145h-692q9 -110 60 -158.5t145 -48.5q81 0 131.5 38.5t50.5 90.5h305v-8q0 -160 -130.5 -263.5t-358.5 -103.5q-260 0 -393.5 148t-133.5 393zM197 1597h352l186 -376 h-319zM387 659h365q-8 106 -52.5 156.5t-130.5 50.5t-130 -50.5t-52 -156.5z" />
<glyph unicode="&#xe9;" horiz-adv-x="1138" d="M61 514v57q0 118 32.5 216.5t95.5 171t161.5 113t224.5 40.5t223 -40t157.5 -113t91 -171t30.5 -217v-145h-692q9 -110 60 -158.5t145 -48.5q81 0 131.5 38.5t50.5 90.5h305v-8q0 -160 -130.5 -263.5t-358.5 -103.5q-260 0 -393.5 148t-133.5 393zM387 659h365 q-8 106 -52.5 156.5t-130.5 50.5t-130 -50.5t-52 -156.5zM416 1221l186 376h352l-219 -376h-319z" />
<glyph unicode="&#xea;" horiz-adv-x="1138" d="M61 514v57q0 118 32.5 216.5t95.5 171t161.5 113t224.5 40.5t223 -40t157.5 -113t91 -171t30.5 -217v-145h-692q9 -110 60 -158.5t145 -48.5q81 0 131.5 38.5t50.5 90.5h305v-8q0 -160 -130.5 -263.5t-358.5 -103.5q-260 0 -393.5 148t-133.5 393zM145 1221l275 376h311 l275 -376h-283l-148 168l-147 -168h-283zM387 659h365q-8 106 -52.5 156.5t-130.5 50.5t-130 -50.5t-52 -156.5z" />
<glyph unicode="&#xeb;" horiz-adv-x="1138" d="M61 514v57q0 118 32.5 216.5t95.5 171t161.5 113t224.5 40.5t223 -40t157.5 -113t91 -171t30.5 -217v-145h-692q9 -110 60 -158.5t145 -48.5q81 0 131.5 38.5t50.5 90.5h305v-8q0 -160 -130.5 -263.5t-358.5 -103.5q-260 0 -393.5 148t-133.5 393zM186 1241v340h338v-340 h-338zM387 659h365q-8 106 -52.5 156.5t-130.5 50.5t-130 -50.5t-52 -156.5zM627 1241v340h338v-340h-338z" />
<glyph unicode="&#xec;" horiz-adv-x="544" d="M-106 1597h352l186 -376h-319zM111 0v1085h321v-1085h-321z" />
<glyph unicode="&#xed;" horiz-adv-x="542" d="M111 0v1085h321v-1085h-321zM113 1221l186 376h352l-219 -376h-319z" />
<glyph unicode="&#xee;" horiz-adv-x="542" d="M-158 1221l275 376h311l274 -376h-282l-148 168l-147 -168h-283zM111 0v1085h321v-1085h-321z" />
<glyph unicode="&#xef;" horiz-adv-x="542" d="M-117 1241v340h338v-340h-338zM111 0v1085h321v-1085h-321zM324 1241v340h338v-340h-338z" />
<glyph unicode="&#xf0;" horiz-adv-x="1138" d="M63 506v74q0 241 119 386.5t338 145.5q78 0 139 -20q-15 27 -51 67q-53 59 -127 103l-360 -201v182l172 94q-103 29 -230 41v287q362 -24 572 -137l246 137v-182l-101 -56q43 -40 80 -86q217 -278 217 -761v-74q0 -245 -127.5 -389t-380.5 -144q-252 0 -379 144t-127 389 zM383 506q0 -256 186 -256q187 0 187 256v74q0 256 -187 256q-186 0 -186 -256v-74z" />
<glyph unicode="&#xf1;" horiz-adv-x="1187" d="M92 1085h289l25 -139q118 166 348 166q89 0 155.5 -30.5t105 -84.5t57 -119.5t18.5 -142.5v-735h-322v682q0 67 -33 109.5t-110 42.5q-68 0 -117 -32t-74 -71v-731h-323v778zM188 1286q0 164 63 245t165 81q56 0 118 -27t114 -53.5t85 -26.5q64 0 64 76h215 q0 -164 -63 -245t-165 -81q-44 0 -93 16.5t-84 37t-74 37t-66 16.5q-64 0 -64 -76h-215z" />
<glyph unicode="&#xf2;" horiz-adv-x="1138" d="M61 506v74q0 245 128 388.5t380 143.5q253 0 380.5 -143.5t127.5 -388.5v-74q0 -245 -127.5 -389t-380.5 -144q-252 0 -380 144t-128 389zM190 1597h353l186 -376h-319zM385 506q0 -254 184 -254q185 0 185 254v74q0 254 -185 254q-184 0 -184 -254v-74z" />
<glyph unicode="&#xf3;" horiz-adv-x="1138" d="M61 506v74q0 245 128 388.5t380 143.5q253 0 380.5 -143.5t127.5 -388.5v-74q0 -245 -127.5 -389t-380.5 -144q-252 0 -380 144t-128 389zM385 506q0 -254 184 -254q185 0 185 254v74q0 254 -185 254q-184 0 -184 -254v-74zM410 1221l186 376h352l-219 -376h-319z" />
<glyph unicode="&#xf4;" horiz-adv-x="1138" d="M61 506v74q0 245 128 388.5t380 143.5q253 0 380.5 -143.5t127.5 -388.5v-74q0 -245 -127.5 -389t-380.5 -144q-252 0 -380 144t-128 389zM139 1221l275 376h311l274 -376h-282l-148 168l-147 -168h-283zM385 506q0 -254 184 -254q185 0 185 254v74q0 254 -185 254 q-184 0 -184 -254v-74z" />
<glyph unicode="&#xf5;" horiz-adv-x="1138" d="M61 506v74q0 245 128 388.5t380 143.5q253 0 380.5 -143.5t127.5 -388.5v-74q0 -245 -127.5 -389t-380.5 -144q-252 0 -380 144t-128 389zM158 1286q0 164 62.5 245t164.5 81q56 0 118 -27t114 -53.5t85 -26.5q64 0 64 76h215q0 -164 -62.5 -245t-164.5 -81 q-44 0 -93 16.5t-84.5 37t-74.5 37t-66 16.5q-63 0 -63 -76h-215zM385 506q0 -254 184 -254q185 0 185 254v74q0 254 -185 254q-184 0 -184 -254v-74z" />
<glyph unicode="&#xf6;" horiz-adv-x="1138" d="M61 506v74q0 245 128 388.5t380 143.5q253 0 380.5 -143.5t127.5 -388.5v-74q0 -245 -127.5 -389t-380.5 -144q-252 0 -380 144t-128 389zM180 1241v340h338v-340h-338zM385 506q0 -254 184 -254q185 0 185 254v74q0 254 -185 254q-184 0 -184 -254v-74zM621 1241v340 h337v-340h-337z" />
<glyph unicode="&#xf7;" d="M86 655v287h1057v-287h-1057zM444 203v340h340v-340h-340zM444 1055v340h340v-340h-340z" />
<glyph unicode="&#xf8;" horiz-adv-x="1138" d="M61 0l109 139q-109 136 -109 367v74q0 245 128 388.5t380 143.5q177 0 301 -78l39 51h168l-108 -139q108 -137 108 -366v-74q0 -245 -127.5 -389t-380.5 -144q-184 0 -303 78l-39 -51h-166zM385 506q0 -44 6 -84l291 375q-43 37 -113 37q-184 0 -184 -254v-74zM455 291 q42 -39 114 -39q185 0 185 254v74q0 46 -6 84z" />
<glyph unicode="&#xf9;" horiz-adv-x="1187" d="M98 350v735h322v-682q0 -67 33 -109t110 -42q120 0 191 102v731h323v-778l19 -307h-289l-25 137q-120 -164 -348 -164q-90 0 -156.5 30.5t-105 84.5t-56.5 119.5t-18 142.5zM207 1597h352l186 -376h-319z" />
<glyph unicode="&#xfa;" horiz-adv-x="1187" d="M98 350v735h322v-682q0 -67 33 -109t110 -42q120 0 191 102v731h323v-778l19 -307h-289l-25 137q-120 -164 -348 -164q-90 0 -156.5 30.5t-105 84.5t-56.5 119.5t-18 142.5zM426 1221l186 376h353l-220 -376h-319z" />
<glyph unicode="&#xfb;" horiz-adv-x="1187" d="M98 350v735h322v-682q0 -67 33 -109t110 -42q120 0 191 102v731h323v-778l19 -307h-289l-25 137q-120 -164 -348 -164q-90 0 -156.5 30.5t-105 84.5t-56.5 119.5t-18 142.5zM156 1221l274 376h311l275 -376h-283l-147 168l-148 -168h-282z" />
<glyph unicode="&#xfc;" horiz-adv-x="1187" d="M98 350v735h322v-682q0 -67 33 -109t110 -42q120 0 191 102v731h323v-778l19 -307h-289l-25 137q-120 -164 -348 -164q-90 0 -156.5 30.5t-105 84.5t-56.5 119.5t-18 142.5zM197 1241v340h338v-340h-338zM637 1241v340h338v-340h-338z" />
<glyph unicode="&#xfd;" horiz-adv-x="1128" d="M10 1085h352l205 -692l205 692h352l-383 -1028l-139 -467h-385l174 467zM408 1221l186 376h352l-219 -376h-319z" />
<glyph unicode="&#xfe;" horiz-adv-x="1175" d="M106 -410v2048h324v-647q103 121 281 121q403 0 403 -532v-74q0 -533 -403 -533q-181 0 -281 121v-504h-324zM432 354q71 -102 184 -102q175 0 175 254v74q0 254 -175 254q-64 0 -110 -31.5t-74 -71.5v-377z" />
<glyph unicode="&#xff;" horiz-adv-x="1128" d="M10 1085h352l205 -692l205 692h352l-383 -1028l-139 -467h-385l174 467zM178 1241v340h338v-340h-338zM618 1241v340h338v-340h-338z" />
<glyph unicode="&#x152;" horiz-adv-x="1925" d="M80 758v82q0 209 37.5 352t120.5 233.5t208 131t306 40.5h1091v-286h-645v-353h543v-286h-543v-385h645v-287h-1091q-241 0 -386.5 74.5t-215.5 240.5t-70 443zM416 758q0 -249 77.5 -360t276.5 -111h96v1024h-96q-199 0 -276.5 -111t-77.5 -360v-82z" />
<glyph unicode="&#x153;" horiz-adv-x="1830" d="M61 506v74q0 245 128 388.5t380 143.5q227 0 351 -147q130 147 348 147q248 0 374.5 -147.5t126.5 -393.5v-145h-692q9 -110 60 -158.5t145 -48.5q81 0 131.5 38.5t50.5 90.5h305v-8q0 -160 -130.5 -263.5t-358.5 -103.5q-231 0 -360 146q-123 -146 -351 -146 q-252 0 -380 144t-128 389zM385 506q0 -254 184 -254q185 0 185 254v74q0 254 -185 254q-184 0 -184 -254v-74zM1079 659h365q-8 106 -52 156.5t-130 50.5t-130.5 -50.5t-52.5 -156.5z" />
<glyph unicode="&#x178;" horiz-adv-x="1280" d="M16 1597h363l262 -698l260 698h363l-457 -1108v-489h-332v489zM326 1731v204h272v-204h-272zM684 1731v204h272v-204h-272z" />
<glyph unicode="&#x2c6;" horiz-adv-x="1024" d="M82 1221l274 376h312l274 -376h-283l-147 168l-147 -168h-283z" />
<glyph unicode="&#x2dc;" horiz-adv-x="1024" d="M100 1286q0 164 63 245t165 81q56 0 118 -27t114 -53.5t85 -26.5q64 0 64 76h215q0 -164 -63 -245t-165 -81q-44 0 -93 16.5t-84 37t-74 37t-66 16.5q-64 0 -64 -76h-215z" />
<glyph unicode="&#x2000;" horiz-adv-x="986" />
<glyph unicode="&#x2001;" horiz-adv-x="1972" />
<glyph unicode="&#x2002;" horiz-adv-x="986" />
<glyph unicode="&#x2003;" horiz-adv-x="1972" />
<glyph unicode="&#x2004;" horiz-adv-x="657" />
<glyph unicode="&#x2005;" horiz-adv-x="493" />
<glyph unicode="&#x2006;" horiz-adv-x="328" />
<glyph unicode="&#x2007;" horiz-adv-x="328" />
<glyph unicode="&#x2008;" horiz-adv-x="246" />
<glyph unicode="&#x2009;" horiz-adv-x="394" />
<glyph unicode="&#x200a;" horiz-adv-x="109" />
<glyph unicode="&#x2010;" horiz-adv-x="722" d="M82 575v283h559v-283h-559z" />
<glyph unicode="&#x2011;" horiz-adv-x="722" d="M82 575v283h559v-283h-559z" />
<glyph unicode="&#x2012;" horiz-adv-x="722" d="M82 575v283h559v-283h-559z" />
<glyph unicode="&#x2013;" horiz-adv-x="1024" d="M82 575v283h860v-283h-860z" />
<glyph unicode="&#x2014;" horiz-adv-x="2048" d="M82 575v283h1884v-283h-1884z" />
<glyph unicode="&#x2018;" horiz-adv-x="544" d="M102 1016v270q0 180 89 272.5t262 92.5v-162q-155 0 -185 -131h174v-342h-340z" />
<glyph unicode="&#x2019;" horiz-adv-x="544" d="M92 963v161q152 0 182 131h-172v342h340v-270q0 -180 -88.5 -272t-261.5 -92z" />
<glyph unicode="&#x201a;" horiz-adv-x="544" d="M92 -131q152 0 182 131h-172v342h340v-270q0 -180 -88.5 -272.5t-261.5 -92.5v162z" />
<glyph unicode="&#x201c;" horiz-adv-x="995" d="M102 1016v270q0 180 89 272.5t262 92.5v-162q-155 0 -185 -131h174v-342h-340zM553 1016v270q0 180 88.5 272.5t261.5 92.5v-162q-154 0 -184 -131h174v-342h-340z" />
<glyph unicode="&#x201d;" horiz-adv-x="995" d="M92 963v161q152 0 182 131h-172v342h340v-270q0 -180 -88.5 -272t-261.5 -92zM543 963v161q152 0 182 131h-172v342h340v-270q0 -180 -88.5 -272t-261.5 -92z" />
<glyph unicode="&#x201e;" horiz-adv-x="995" d="M92 -131q152 0 182 131h-172v342h340v-270q0 -180 -88.5 -272.5t-261.5 -92.5v162zM543 -131q152 0 182 131h-172v342h340v-270q0 -180 -88.5 -272.5t-261.5 -92.5v162z" />
<glyph unicode="&#x2022;" horiz-adv-x="911" d="M127 387v660h657v-660h-657z" />
<glyph unicode="&#x2026;" horiz-adv-x="2048" d="M199 0v342h340v-342h-340zM854 0v342h340v-342h-340zM1509 0v342h340v-342h-340z" />
<glyph unicode="&#x202f;" horiz-adv-x="394" />
<glyph unicode="&#x2039;" horiz-adv-x="647" d="M102 541v311l443 301v-285l-223 -172l223 -172v-284z" />
<glyph unicode="&#x203a;" horiz-adv-x="647" d="M102 240v284l224 172l-224 172v285l443 -301v-311z" />
<glyph unicode="&#x205f;" horiz-adv-x="493" />
<glyph unicode="&#x20ac;" d="M63 633v289h134q12 365 137.5 533.5t372.5 168.5q233 0 338.5 -124.5t105.5 -399.5v-76h-283q0 165 -33 238t-110 73h-18q-84 0 -124 -103.5t-46 -309.5h415l-141 -289h-272q9 -186 49 -278.5t119 -92.5h18q143 0 143 250h283v-18q0 -272 -105.5 -396.5t-338.5 -124.5 q-238 0 -364 159t-144 501h-136z" />
<glyph unicode="&#x2122;" horiz-adv-x="1144" d="M35 1524v114h403v-114h-137v-439h-131v439h-135zM496 1085v553h194l86 -325l84 325h197v-553h-131v207l4 123l-84 -330h-139l-84 330l4 -123v-207h-131z" />
<glyph unicode="&#xfb01;" horiz-adv-x="1386" d="M39 803v282h166v177q0 214 106 308.5t301 94.5q125 0 174 -27v-266q-9 5 -41 9.5t-57 4.5q-81 0 -120.5 -33t-39.5 -126v-142h238v-282h-238v-803h-323v803h-166zM944 1239v342h340v-342h-340zM952 0v1085h324v-1085h-324z" />
<glyph unicode="&#xfb02;" horiz-adv-x="1386" d="M39 803v282h166v177q0 214 106 308.5t301 94.5q125 0 174 -27v-266q-9 5 -41 9.5t-57 4.5q-81 0 -120.5 -33t-39.5 -126v-142h238v-282h-238v-803h-323v803h-166zM952 0v1638h324v-1638h-324z" />
</font>
</defs>
</svg>
