<?xml version="1.0" encoding="utf-8"?>
<svg xmlns:svg="http://www.w3.org/2000/svg" xmlns="http://www.w3.org/2000/svg" viewBox="0 0 800 555" class="map geo active">

  <g class="ma">
    <path data-postal="MA"
       d="M 768.3488 145.3808 770.0806 147.0813 766.3439 148.2699 768.3488 145.3808 Z M 758.2293 120.1318 758.9551 123.0907 761.86 124.5739 759.2535 126.4296 758.048 131.5126 761.7521 131.4723 764.6771 134.0056 767.4168 138.7636 771.468 139.662 773.9627 137.8027 776.274 139.1367 769.7911 141.7875 767.1943 144.7056 766.1828 140.9809 763.308 143.8961 763.3855 145.1547 760.8688 146.5842 759.0647 143.8029 758.3138 143.3523 756.4579 142.1077 754.7438 138.2068 749.1103 139.7838 747.4818 139.9806 734.4528 142.9988 725.8778 144.7474 725.4008 144.3792 725.6834 131.1277 736.6048 128.7385 752.4646 125.1896 756.6833 120.3667 758.2293 120.1318 Z" />
    <text>MA</text>
  </g>

  <g class="mn">
    <path data-postal="MN"
       d="M 395.0294 49.7436 421.1259 49.7989 421.2738 42.6884 423.5308 42.9177 425.5117 44.0884 427.0794 51.2074 427.1108 53.2299 428.6413 54.7407 432.2424 54.9184 433.28 56.0701 437.8603 56.2754 439.4259 58.5031 442.8126 57.9309 445.765 56.1843 449.332 56.3152 453.6259 57.7119 455.2483 59.3696 457.2283 63.335 458.2206 61.8088 461.5419 61.2265 462.7346 63.1904 465.2455 63.8579 466.2561 65.5093 469.7253 66.5123 471.6556 65.8805 476.0493 62.5741 477.9399 64.8745 481.2435 64.9903 485.758 64.1166 488.4409 65.9686 490.7189 65.7523 491.5995 67.27 487.3206 69.8155 481.634 72.0531 478.3787 74.0491 475.6311 76.5361 469.4721 83.9057 461.887 90.9757 459.5919 93.1361 460.0074 104.1126 459.1064 105.2171 454.6432 107.5606 452.3929 111.4024 452.4641 114.0712 454.2496 114.3352 455.4413 116.4683 454.4191 119.2904 453.8676 123.5508 454.5627 126.4411 453.838 129.6802 457.1332 132.4364 459.751 132.8832 461.4848 134.9964 463.8256 135.4565 465.9877 137.3061 467.6632 140.1847 470.1432 142.1564 473.4338 142.976 475.3282 144.8706 476.1011 147.7124 476.3452 152.8473 453.8634 153.7853 426.8696 154.4012 404.3689 154.4905 404.5325 120.0843 403.0226 118.2229 401.3874 117.9172 399.0677 114.234 402.1088 111.1497 403.2202 107.7549 402.6619 100.4625 401.2566 98.3604 400.1511 94.3789 400.2857 90.0079 399.7682 87.523 399.526 78.2841 399.0197 74.6572 397.7805 72.0624 396.0727 65.306 396.2186 60.4222 395.8016 58.4197 396.548 56.2274 395.0294 49.7436 Z" />
    <text>MN</text>
  </g>

  <g class="mt">
    <path data-postal="MT"
       d="M 232.9854 36.7361 253.593 39.6131 275.8259 42.3135 289.7454 43.7922 308.2688 45.508 303.405 103.2297 301.9586 121.171 301.7247 121.1479 281.4594 119.2641 259.5022 116.8571 233.2123 113.4729 207.7752 109.6707 206.2515 119.1598 204.4073 116.993 203.5173 114.1725 201.5563 114.0574 200.3294 117.2348 197.9771 116.4933 192.5222 116.0979 190.5804 115.1821 188.5637 116.724 184.3735 115.3255 182.1272 116.4811 180.0052 115.3261 179.9785 111.6851 178.6518 108.4798 176.7296 108.3663 175.1245 105.3174 176.0436 104.1766 175.3709 101.6526 173.3772 97.7676 173.3391 92.3316 171.5141 89.8722 169.0061 91.7649 165.8508 92.8494 163.3813 90.694 164.5061 88.2693 164.0574 86.6542 166.5809 84.9642 165.9409 81.7295 167.1024 77.7956 169.5392 73.2074 169.8273 70.4077 167.0193 70.5081 166.5785 68.9502 163.3806 65.947 163.5152 64.5026 159.9657 58.4568 159.3931 56.8516 157.4066 55.5822 156.38 52.008 156.2496 47.8306 153.2616 41.3037 157.1888 23.0131 176.2496 26.9349 187.2458 29.0527 203.7764 32.0364 214.8196 33.8994 232.9854 36.7361 Z" />
    <text>MT</text>
  </g>

  <g class="nd">
    <path data-postal="ND"
      d="M 342.358 47.9165 362.3468 48.8803 376.3368 49.358 395.0294 49.7436 396.548 56.2274 395.8016 58.4197 396.2186 60.4222 396.0727 65.306 397.7805 72.0624 399.0197 74.6572 399.526 78.2841 399.7682 87.523 400.2857 90.0079 400.1511 94.3789 401.2566 98.3604 402.6619 100.4625 403.2202 107.7549 384.5673 107.5067 365.9204 106.9855 347.2829 106.1902 325.5561 104.9146 303.405 103.2297 308.2688 45.508 323.216 46.6836 342.358 47.9165 Z" />
    <text>ND</text>
  </g>

  <g class="hi">
    <path data-postal="HI"
       d="M 255.075 467.7761 260.0128 469.4809 264.4509 472.9924 264.5056 475.5236 266.4673 475.9174 266.9672 477.708 269.3859 480.1905 266.4336 482.8947 262.4623 484.5228 260.8687 484.4605 257.0593 486.8061 254.9862 490.2843 253.8224 490.7217 250.2806 488.9079 249.5165 486.8266 250.1239 483.1026 248.361 477.9027 246.9491 475.5551 249.3555 472.9279 251.1772 470.04 250.1197 468.4287 250.3827 465.4152 252.704 465.773 255.075 467.7761 Z M 231.6266 456.4467 230.4001 455.9729 230.2665 452.7706 233.373 454.413 231.6266 456.4467 Z M 237.428 450.8746 239.355 453.2245 242.6297 452.302 245.8332 454.5178 247.9372 455.1905 247.9185 457.3723 242.5625 459.3788 240.6811 459.2657 239.6656 455.5676 236.8778 455.0773 235.5256 453.0051 237.428 450.8746 Z M 225.6766 447.148 231.946 448.2477 232.4309 450.379 228.8143 449.4916 225.2322 449.7055 225.6766 447.148 Z M 214.2427 439.8938 215.1384 442.518 218.587 445.4911 215.9453 446.4567 213.9885 445.4688 210.6174 445.6656 208.2821 442.0317 208.1481 440.0889 210.1982 440.0927 212.1157 437.9095 214.2427 439.8938 Z M 187.8917 427.5222 189.5524 429.1217 188.7553 432.6966 186.8932 434.3636 183.8402 433.7149 181.2139 432.1596 180.7973 430.649 182.0511 428.7664 185.0555 427.4267 187.8917 427.5222 Z" />
    <text>HI</text>
  </g>

  <g class="id">
    <path data-postal="ID"
       d="M 144.8732 20.3086 157.1888 23.0131 153.2616 41.3037 156.2496 47.8306 156.38 52.008 157.4066 55.5822 159.3931 56.8516 159.9657 58.4568 163.5152 64.5026 163.3806 65.947 166.5785 68.9502 167.0193 70.5081 169.8273 70.4077 169.5392 73.2074 167.1024 77.7956 165.9409 81.7295 166.5809 84.9642 164.0574 86.6542 164.5061 88.2693 163.3813 90.694 165.8508 92.8494 169.0061 91.7649 171.5141 89.8722 173.3391 92.3316 173.3772 97.7676 175.3709 101.6526 176.0436 104.1766 175.1245 105.3174 176.7296 108.3663 178.6518 108.4798 179.9785 111.6851 180.0052 115.3261 182.1272 116.4811 184.3735 115.3255 188.5637 116.724 190.5804 115.1821 192.5222 116.0979 197.9771 116.4933 200.3294 117.2348 201.5563 114.0574 203.5173 114.1725 204.4073 116.993 206.2515 119.1598 198.7058 166.5072 180.4454 163.4603 157.0334 159.1725 133.8403 154.5097 115.861 150.6009 123.3349 117.1344 126.668 110.0072 125.8382 108.1334 123.1574 107.0212 123.8241 103.5431 127.518 99.1275 130.5817 96.4816 131.1867 94.3446 133.0654 92.4977 134.7758 89.0358 138.18 85.1985 137.9941 81.8412 135.355 79.5696 134.4767 76.1775 133.8432 74.0165 134.8396 72.7023 133.9356 68.9858 140.9179 37.6002 144.8732 20.3086 Z" />
    <text>ID</text>
  </g>

  <g class="wa">
    <path
       data-postal="WA"
       d="M 73.2817 13.7214 72.2003 17.0636 70.3619 16.524 72.3859 13.5767 73.2817 13.7214 Z M 74.3846 2.2014 91.7795 7.0915 116.1534 13.4758 129.7495 16.8027 144.8732 20.3086 140.9179 37.6002 133.9356 68.9858 134.8396 72.7023 133.8432 74.0165 134.4767 76.1775 106.9039 69.7344 105.4937 70.3817 98.913 69.2767 97.7652 69.9563 94.087 69.6826 89.7748 70.5557 86.5324 70.2377 84.6811 69.3393 80.6293 70.0191 77.5281 69.5325 76.1544 67.485 69.4942 65.4013 66.7857 66.2122 62.6477 66.5542 56.9944 63.0178 57.7984 56.9852 57.1624 54.2229 54.0967 51.911 52.4446 51.972 50.8121 49.0156 48.2492 47.6663 45.0018 47.7564 45.2833 45.3181 46.9833 42.5245 47.7834 39.1186 45.5928 38.1462 47.9378 34.0757 46.263 32.408 46.7904 28.8972 46.192 26.1157 47.0329 18.7356 45.2956 14.9022 45.5842 9.7806 47.3236 7.3645 48.6733 6.7751 54.0601 12.255 58.3126 13.7839 63.6539 16.3525 65.5073 16.2321 66.5985 17.6823 69.1211 18.5902 69.7614 21.6799 70.7151 22.571 71.4369 25.6963 69.1061 26.2831 69.7089 29.8651 67.7671 32.9432 64.401 34.571 64.7492 36.9613 71.2508 33.2241 71.5241 27.9882 72.3253 25.5285 74.2464 22.838 76.0279 21.9185 74.6615 19.4008 75.268 15.8858 73.8491 14.2023 76.0754 10.7842 75.9496 7.0531 74.4531 6.7207 73.5894 4.0548 74.3846 2.2014 Z" />
    <text>WA</text>
  </g>

  <g class="az">
    <path
       data-postal="AZ"
       d="M 110.2893 336.2888 112.5883 332.5751 115.6438 332.6853 117.3798 330.3207 117.535 328.2292 114.4327 325.5787 115.237 323.4767 115.3391 319.3556 116.8413 319.2527 118.7068 317.1811 119.9292 313.6565 120.3311 310.0717 123.1717 307.0615 127.6752 304.8844 127.8851 303.9831 124.7223 300.6417 124.9026 299.4414 123.7818 294.843 122.3733 292.1004 122.6668 289.7222 123.0561 287.1793 124.2162 286.3494 124.5426 283.244 123.9933 279.9147 125.346 273.1811 124.6703 270.8507 125.3501 268.8874 128.1067 268.1044 131.1469 269.1089 132.4365 271.6231 134.1687 271.5382 136.0347 268.4878 138.9082 253.6793 162.1628 257.9704 180.8154 261.1279 201.8478 264.3868 213.5522 266.0627 198.6282 373.9909 183.8008 371.8722 167.0446 369.2991 166.0846 369.0208 147.1552 358.2156 122.8554 343.931 110.2893 336.2888 Z" />
    <text>AZ</text>
  </g>

  <g class="ca">
    <path
       data-postal="CA"
       d="M 56.4034 305.1666 58.6659 307.0715 56.827 308.305 56.4034 305.1666 Z M 35.8619 289.1261 36.0976 290.9052 34.1807 291.3685 33.1036 288.7584 35.8619 289.1261 Z M 112.5883 332.5751 95.4789 330.6425 74.2005 327.9575 74.1382 325.2341 72.851 324.3083 73.6908 320.8932 73.5763 316.4713 71.6518 311.5668 68.3533 306.9765 65.7041 304.2533 64.3978 302.0703 60.2398 299.0067 58.8116 294.6527 55.07 294.0801 52.8204 293.1057 49.0101 290.1369 48.723 287.8975 46.4559 285.081 44.2062 283.4788 40.1679 282.7241 36.6192 280.4958 31.3671 279.5686 29.381 276.3514 30.6444 274.3173 31.21 271.4194 30.5916 270.2701 32.156 266.0715 28.9128 263.009 30.0849 260.2251 28.3549 258.6577 26.7936 254.7223 25.4463 253.8119 25.0533 251.2647 23.6928 248.8925 23.7829 247.0107 19.4968 239.1968 19.6743 235.6884 22.6034 232.6807 23.5966 230.4991 22.3325 226.7049 19.1682 225.8399 16.6593 220.7742 17.592 217.7307 16.761 214.0535 18.1625 209.4509 19.7113 209.2923 19.4279 213.5854 22.4249 214.7121 20.8939 206.4417 23.7737 205.4944 21.8391 203.0456 20.2783 203.5696 18.1585 208.7434 13.6804 203.0681 14.1621 198.5662 12.9509 194.5358 11.5185 192.8821 9.9083 188.8666 7.7601 184.9541 7.2851 182.5823 8.17 181.4895 8.028 175.0213 9.8984 171.6141 10.3252 165.9312 8.2093 159.7826 5.6432 155.8878 6.0443 152.3375 9.3605 148.1957 10.1949 148.4239 13.3809 143.0798 14.1259 139.9557 16.3986 135.5372 16.5931 127.2678 17.4929 124.536 39.1578 130.9653 56.9658 135.9551 74.8416 140.6996 60.4184 196.6331 73.4225 216.143 81.4309 227.793 89.7838 240.6422 103.9555 262.1325 115.7166 279.7984 122.6668 289.7222 122.3733 292.1004 123.7818 294.843 124.9026 299.4414 124.7223 300.6417 127.8851 303.9831 127.6752 304.8844 123.1717 307.0615 120.3311 310.0717 119.9292 313.6565 118.7068 317.1811 116.8413 319.2527 115.3391 319.3556 115.237 323.4767 114.4327 325.5787 117.535 328.2292 117.3798 330.3207 115.6438 332.6853 112.5883 332.5751 Z" />
    <text>CA</text>
  </g>

  <g class="co">
    <path
       data-postal="CO"
       d="M 322.682 219.0111 319.1809 276.7056 304.6484 275.707 284.6722 274.0929 256.1763 271.305 236.2657 269.0168 213.5522 266.0627 224.1009 189.7386 248.6726 192.9059 275.5385 195.8512 295.2639 197.6713 323.8989 199.805 322.682 219.0111 Z" />
    <text>CO</text>
  </g>

  <g class="nv">
    <path
       data-postal="NV"
       d="M 115.861 150.6009 133.8403 154.5097 157.0334 159.1725 138.9082 253.6793 136.0347 268.4878 134.1687 271.5382 132.4365 271.6231 131.1469 269.1089 128.1067 268.1044 125.3501 268.8874 124.6703 270.8507 125.346 273.1811 123.9933 279.9147 124.5426 283.244 124.2162 286.3494 123.0561 287.1793 122.6668 289.7222 115.7166 279.7984 103.9555 262.1325 89.7838 240.6422 81.4309 227.793 73.4225 216.143 60.4184 196.6331 74.8416 140.6996 92.7554 145.1914 115.861 150.6009 Z" />
    <text>NV</text>
  </g>

  <g class="nm">
    <path
       data-postal="NM"
       d="M 240.671 370.6882 213.1806 367.2417 212.081 375.7886 198.6282 373.9909 213.5522 266.0627 236.2657 269.0168 256.1763 271.305 284.6722 274.0929 304.6484 275.707 303.9488 285.3031 303.2942 285.6129 296.5346 371.4178 267.9078 369.0298 238.6488 366.0297 239.4156 369.4513 240.671 370.6882 Z" />
    <text>NM</text>
  </g>

  <g class="or">
    <path
       data-postal="OR"
       d="M 134.4767 76.1775 135.355 79.5696 137.9941 81.8412 138.18 85.1985 134.7758 89.0358 133.0654 92.4977 131.1867 94.3446 130.5817 96.4816 127.518 99.1275 123.8241 103.5431 123.1574 107.0212 125.8382 108.1334 126.668 110.0072 123.3349 117.1344 115.861 150.6009 92.7554 145.1914 74.8416 140.6996 56.9658 135.9551 39.1578 130.9653 17.4929 124.536 16.1735 121.8493 16.4106 117.5714 18.2688 113.3732 18.5419 111.53 17.8 107.6209 20.2176 104.6586 22.88 99.2473 24.6559 98.1622 28.9023 90.2284 34.1166 77.2403 35.2817 73.3175 38.3369 67.6402 39.9907 62.1844 41.8043 58.5285 41.5705 56.5099 43.9157 50.809 45.2371 49.6538 48.6037 50.1355 50.0774 49.6044 51.2982 51.7394 53.1917 52.4786 54.0967 51.911 57.1624 54.2229 57.7984 56.9852 56.9944 63.0178 62.6477 66.5542 66.7857 66.2122 69.4942 65.4013 76.1544 67.485 77.5281 69.5325 80.6293 70.0191 84.6811 69.3393 86.5324 70.2377 89.7748 70.5557 94.087 69.6826 97.7652 69.9563 98.913 69.2767 105.4937 70.3817 106.9039 69.7344 134.4767 76.1775 Z" />
    <text>OR</text>
  </g>

  <g class="ut">
    <path
       data-postal="UT"
       d="M 157.0334 159.1725 180.4454 163.4603 198.7058 166.5072 195.6762 185.5059 224.1009 189.7386 213.5522 266.0627 201.8478 264.3868 180.8154 261.1279 162.1628 257.9704 138.9082 253.6793 157.0334 159.1725 Z" />
    <text>UT</text>
  </g>

  <g class="wy">
    <path
       data-postal="WY"
       d="M 206.2515 119.1598 207.7752 109.6707 233.2123 113.4729 259.5022 116.8571 281.4594 119.2641 301.7247 121.1479 298.5282 159.3449 295.2639 197.6713 275.5385 195.8512 248.6726 192.9059 224.1009 189.7386 195.6762 185.5059 198.7058 166.5072 206.2515 119.1598 Z" />
    <text>WY</text>
  </g>

  <g class="ar">
    <path
       data-postal="AR"
       d="M 506.9571 295.6738 507.9328 297.2536 507.1959 298.8802 504.0012 300.961 504.5401 304.5581 503.1287 305.3493 501.8793 307.858 502.4001 311.6147 499.2152 315.4495 499.8079 316.8979 496.9279 318.9011 495.1072 322.5805 495.3431 326.7507 491.9331 329.6241 490.8098 334.5021 488.0884 335.3885 488.8879 338.851 486.6735 341.0118 487.3888 342.4109 486.4714 344.3696 487.9293 345.3692 487.2126 348.4436 488.4473 349.3836 488.6967 351.6399 487.7589 354.2892 476.1339 354.8616 456.1715 355.6165 441.9075 355.9936 441.5971 345.5725 437.576 344.8697 436.2037 345.527 434.6453 343.9084 434.8091 310.4784 431.7228 289.0884 444.2696 288.8516 469.354 288.0524 486.0677 287.2784 499.6492 286.507 501.3174 288.9295 501.3461 290.5008 497.4047 295.098 497.0193 296.5728 506.9571 295.6738 Z" />
    <text>AR</text>
  </g>

  <g class="ia">
    <path
       data-postal="IA"
       d="M 404.3689 154.4905 426.8696 154.4012 453.8634 153.7853 476.3452 152.8473 477.2089 155.3974 478.8495 156.9635 477.8154 159.3164 478.5771 164.0672 479.9328 167.2521 484.8103 168.6581 485.829 171.3636 488.4763 173.826 489.4677 176.2823 492.9033 178.5581 493.4196 180.1808 492.814 184.3987 491.4204 185.7363 490.9986 188.5202 486.0785 191.7745 482.0118 192.3339 481.1621 193.3569 480.9613 197.0884 482.9471 199.1876 482.8625 201.6819 481.1655 204.1341 479.9779 207.4789 477.2141 208.6693 477.417 212.6251 476.5735 212.9243 472.9522 209.7912 472.1914 208.5156 469.1296 208.9058 452.5533 209.9798 432.602 210.6053 413.9968 210.2472 412.527 207.7777 413.1244 206.5204 412.3706 196.4391 411.6301 193.6129 409.476 191.9796 409.7343 187.2451 408.4623 183.5538 406.9677 182.2037 405.6915 179.3566 405.065 173.7621 403.8705 173.3404 403.3178 170.8255 401.7207 168.8566 402.774 167.068 404.3088 161.7527 402.8019 159.7916 403.2211 156.6807 404.3689 154.4905 Z" />
    <text>IA</text>
  </g>

  <g class="ks">
    <path
       data-postal="KS"
       d="M 319.1809 276.7056 322.682 219.0111 341.3354 220.074 368.7523 221.1777 393.1371 221.7017 420.5764 221.777 422.4306 223.5644 425.1835 223.6087 426.943 225.1683 424.7093 228.372 423.8395 230.8008 426.6608 233.9155 427.8555 236.7861 430.9967 238.5578 431.5873 279.4607 403.5728 279.5956 386.0639 279.4032 368.5598 278.9979 344.0634 278.073 319.1809 276.7056 Z" />
    <text>KS</text>
  </g>

  <g class="mo">
    <path
       data-postal="MO"
       d="M 506.9571 295.6738 497.0193 296.5728 497.4047 295.098 501.3461 290.5008 501.3174 288.9295 499.6492 286.507 486.0677 287.2784 469.354 288.0524 444.2696 288.8516 431.7228 289.0884 431.5873 279.4607 430.9967 238.5578 427.8555 236.7861 426.6608 233.9155 423.8395 230.8008 424.7093 228.372 426.943 225.1683 425.1835 223.6087 422.4306 223.5644 420.5764 221.777 416.0155 215.1524 413.9968 210.2472 432.602 210.6053 452.5533 209.9798 469.1296 208.9058 472.1914 208.5156 472.9522 209.7912 476.5735 212.9243 475.6446 216.9133 476.9386 222.8161 478.4564 225.7276 482.2903 228.9625 483.1523 230.4739 486.6772 232.8382 488.1186 235.0604 488.74 238.9901 490.5966 241.1491 492.8118 239.2964 496.5159 240.7098 496.613 245.424 494.2525 252.0838 494.8896 253.8479 498.622 257.2976 501.5068 258.3524 504.6512 260.3763 507.4105 262.8849 507.927 265.4685 509.2262 267.7293 508.3676 271.1154 511.6653 275.7875 512.8468 275.1 514.7884 276.232 514.873 280.9585 513.3895 284.2588 511.6926 283.0485 510.8808 285.7894 509.8134 285.8154 508.8181 285.9078 509.4141 288.1181 507.0903 290.9094 508.4599 292.8491 506.9571 295.6738 Z" />
    <text>MO</text>
  </g>

  <g class="ok">
    <path
       data-postal="OK"
       d="M 304.6484 275.707 319.1809 276.7056 344.0634 278.073 368.5598 278.9979 386.0639 279.4032 403.5728 279.5956 431.5873 279.4607 431.7228 289.0884 434.8091 310.4784 434.6453 343.9084 428.4678 341.9107 426.7241 339.8995 422.9402 337.9895 420.7962 339.8251 417.9511 339.4248 416.9835 338.2352 414.2407 339.9771 411.6255 339.3339 408.1742 340.761 407.4402 341.8639 402.7989 341.407 400.3992 338.9072 399.7185 340.0809 397.1386 339.6716 396.2229 338.1051 393.6076 340.921 391.6707 341.3076 391.5239 338.9338 388.9779 340.4276 385.8535 339.0637 384.1617 337.4109 382.2232 339.2132 379.7263 339.0643 379.9558 337.4545 377.7429 336.4317 377.7538 334.3094 373.7828 334.1173 371.43 335.3699 370.1471 333.8651 367.8534 334.0907 364.2375 332.5391 360.4769 332.0232 359.4572 328.5403 357.3107 328.9491 352.9377 328.6264 349.9186 325.2313 348.0935 324.9527 349.6041 287.9556 322.1027 286.5292 303.9488 285.3031 304.6484 275.707 Z" />
    <text>OK</text>
  </g>

  <g class="sd">
    <path
       data-postal="SD"
       d="M 403.2202 107.7549 402.1088 111.1497 399.0677 114.234 401.3874 117.9172 403.0226 118.2229 404.5325 120.0843 404.3689 154.4905 403.2211 156.6807 402.8019 159.7916 404.3088 161.7527 402.774 167.068 401.7207 168.8566 403.3178 170.8255 403.8705 173.3404 402.0669 173.0232 400.7184 170.2626 398.6553 169.0431 394.8848 168.0521 392.4792 166.1492 387.442 166.7038 384.9683 166.3243 382.586 167.9557 379.3265 166.1853 376.0096 163.6485 360.4875 163.151 334.3956 161.9027 313.0695 160.4995 298.5282 159.3449 301.7247 121.1479 301.9586 121.171 303.405 103.2297 325.5561 104.9146 347.2829 106.1902 365.9204 106.9855 384.5673 107.5067 403.2202 107.7549 Z" />
    <text>SD</text>
  </g>

  <g class="la">
    <path
       data-postal="LA"
       d="M 480.6018 422.101 476.9013 420.7594 478.3553 419.2029 481.8866 420.295 480.6018 422.101 Z M 441.9075 355.9936 456.1715 355.6165 476.1339 354.8616 487.7589 354.2892 489.3563 355.9577 488.44 357.2466 488.2257 361.7343 489.4872 365.0203 492.434 366.9953 490.2382 372.0059 487.391 376.0448 486.1432 376.5587 485.1519 378.9015 484.7935 382.0842 483.3445 383.5436 483.9677 385.2257 483.3438 387.7205 481.85 387.8712 482.9262 392.0734 481.6954 393.2006 497.1728 392.417 513.104 391.4483 511.6874 397.6233 512.5968 399.7965 514.7358 401.7421 516.5256 406.3037 517.5714 406.6028 514.585 407.1386 513.4829 405.9794 510.1751 405.7144 508.5884 403.9864 505.8583 403.6327 503.0404 407.0033 502.6652 408.4947 504.3027 409.874 507.1726 410.495 509.3257 410.0595 511.772 407.7131 513.3539 408.681 512.654 410.7056 515.3169 412.6865 517.0892 410.5428 519.3752 409.0441 519.1897 413.4429 516.4367 417.6233 516.0751 419.5282 521.7306 422.4961 524.0583 422.2005 527.3229 425.8874 524.7284 428.3078 521.3833 427.4498 519.5285 424.6157 514.813 423.0223 512.15 420.6397 509.2052 419.6763 510.1434 422.8891 509.2614 424.5097 509.6378 426.5682 507.2508 428.3947 506.7005 425.3625 504.2632 424.5372 501.4534 424.654 499.2447 428.2344 490.3916 426.4337 488.6788 425.4459 490.3788 423.2716 488.6078 421.6011 485.0211 421.0612 484.3443 418.9348 482.3292 417.0049 479.1161 417.0288 477.2892 415.7209 474.8644 417.2557 475.4147 419.8353 472.6674 421.597 465.8515 420.509 460.0548 418.246 457.1624 417.5718 452.9488 417.7359 448.2141 418.4884 446.7074 419.2312 445.711 417.2124 447.4538 416.2317 447.1234 413.7766 448.4256 411.9482 448.364 407.9898 447.7019 405.9926 448.6866 401.998 450.4371 397.7669 451.2948 393.4932 448.4921 388.0421 448.8454 387.2766 445.9512 383.1811 446.1011 380.7799 444.5717 377.5566 442.2756 375.4029 441.9075 355.9936 Z" />
    <text>LA</text>
  </g>

  <g class="tx">
    <path
       data-postal="TX"
       d="M 393.1644 454.328 395.1537 450.0284 396.233 450.5684 393.1644 454.328 Z M 345.8915 455.0246 344.7711 452.5029 342.7989 450.1687 341.6485 447.5734 338.2261 444.7211 336.5819 439.011 334.721 434.8832 333.0647 432.5225 332.4952 428.846 330.1838 425.7841 326.963 423.3422 326.4675 421.3851 324.9443 420.7921 323.5076 418.3371 321.4696 417.5726 320.8197 415.8341 311.5462 414.2773 309.2547 414.4385 305.8634 412.4616 304.3052 414.5866 299.6634 414.9078 297.863 417.6734 295.8031 422.2725 295.4024 424.6011 293.816 425.3087 290.8781 428.7551 288.3354 428.232 285.4959 426.4896 284.5417 425.1391 282.3871 424.4935 280.5304 422.3547 276.2471 420.8224 273.0657 416.9627 271.7254 416.6346 268.9312 413.8922 268.4829 411.5624 266.9292 408.4569 267.3475 403.6936 264.9719 398.7593 264.613 396.5581 262.8419 393.9905 259.4779 391.1097 257.3572 390.1306 254.5137 386.9223 254.0766 385.5555 251.4062 383.1958 248.0001 378.6683 245.5196 377.4257 243.8192 374.6949 242.9391 371.9533 240.671 370.6882 239.4156 369.4513 238.6488 366.0297 267.9078 369.0298 296.5346 371.4178 303.2942 285.6129 303.9488 285.3031 322.1027 286.5292 349.6041 287.9556 348.0935 324.9527 349.9186 325.2313 352.9377 328.6264 357.3107 328.9491 359.4572 328.5403 360.4769 332.0232 364.2375 332.5391 367.8534 334.0907 370.1471 333.8651 371.43 335.3699 373.7828 334.1173 377.7538 334.3094 377.7429 336.4317 379.9558 337.4545 379.7263 339.0643 382.2232 339.2132 384.1617 337.4109 385.8535 339.0637 388.9779 340.4276 391.5239 338.9338 391.6707 341.3076 393.6076 340.921 396.2229 338.1051 397.1386 339.6716 399.7185 340.0809 400.3992 338.9072 402.7989 341.407 407.4402 341.8639 408.1742 340.761 411.6255 339.3339 414.2407 339.9771 416.9835 338.2352 417.9511 339.4248 420.7962 339.8251 422.9402 337.9895 426.7241 339.8995 428.4678 341.9107 434.6453 343.9084 436.2037 345.527 437.576 344.8697 441.5971 345.5725 441.9075 355.9936 442.2756 375.4029 444.5717 377.5566 446.1011 380.7799 445.9512 383.1811 448.8454 387.2766 448.4921 388.0421 451.2948 393.4932 450.4371 397.7669 448.6866 401.998 447.7019 405.9926 448.364 407.9898 448.4256 411.9482 447.1234 413.7766 446.201 413.7796 444.9855 417.8192 445.9738 419.7263 442.906 419.6624 433.0878 424.2146 431.3863 422.8586 432.3824 419.5656 430.1416 418.2259 429.3409 420.1859 427.011 419.1736 426.906 422.5697 429.1935 425.7115 426.282 429.0146 424.7185 430.0147 424.7406 432.0454 421.0666 435.2166 417.3391 437.4565 413.7173 438.0642 407.1924 440.8364 404.822 439.9043 401.2251 439.5266 400.8381 440.957 403.8286 443.7104 399.5946 445.8795 397.5213 443.6232 397.4083 447.3424 394.6334 449.5041 393.5903 448.2006 391.0387 449.3237 393.2621 451.1038 390.5155 454.9596 389.1132 454.13 387.0877 455.0376 389.1374 457.9269 386.3206 464.5503 385.2378 463.1612 382.6359 464.5542 382.7509 466.0679 386.0008 465.5981 385.2325 470.3262 384.0359 470.549 383.9007 474.0301 385.0274 474.995 386.0517 479.5532 385.6226 481.7156 387.2629 482.9931 387.9185 487.3568 388.8756 490.3861 385.8505 492.393 381.4892 488.929 379.3752 488.3411 372.0822 487.9661 369.5936 485.6662 365.9513 484.2817 364.9205 484.64 362.3026 482.1745 357.3201 481.2769 354.5947 471.9988 351.2679 468.7801 351.8808 465.948 350.8494 463.4233 350.8495 458.9667 347.6208 457.2233 345.8915 455.0246 Z" />
    <text>TX</text>
  </g>

  <g class="ct">
    <path
       data-postal="CT"
       d="M 725.8778 144.7474 734.4528 142.9988 747.4818 139.9806 749.1103 139.7838 751.5637 148.9238 751.8617 152.9831 750.9859 152.5009 745.898 155.0713 739.1488 157.0262 734.1904 160.2457 728.3719 164.9927 726.7965 163.3425 729.6063 160.403 728.417 159.1655 725.8778 144.7474 Z" />
    <text>CT</text>
  </g>

  <g class="nh">
    <path
       data-postal="NH"
       d="M 738.4611 83.0253 738.7977 78.4309 739.8711 77.1413 742.5257 76.1953 752.8699 107.9618 753.567 111.3331 756.3685 113.4228 758.1336 116.0483 758.2293 120.1318 756.6833 120.3667 752.4646 125.1896 736.6048 128.7385 734.7046 126.2725 735.1959 123.9461 734.7669 117.8941 733.7548 113.5747 734.0891 109.7555 735.0224 108.2398 735.503 101.0262 734.9322 98.4265 738.9578 94.1273 739.916 90.9015 738.0974 88.5302 738.9249 85.2511 738.4611 83.0253 Z" />
    <text>NH</text>
  </g>

  <g class="ri">
    <path
       data-postal="RI"
       d="M 749.1103 139.7838 754.7438 138.2068 756.4579 142.1077 758.3138 143.3523 756.5029 143.1031 756.1508 146.6116 756.9014 148.5208 756.4174 150.6876 751.8617 152.9831 751.5637 148.9238 749.1103 139.7838 Z" />
    <text>RI</text>
  </g>

  <g class="vt">
    <path
       data-postal="VT"
       d="M 714.2923 89.3256 738.4611 83.0253 738.9249 85.2511 738.0974 88.5302 739.916 90.9015 738.9578 94.1273 734.9322 98.4265 735.503 101.0262 735.0224 108.2398 734.0891 109.7555 733.7548 113.5747 734.7669 117.8941 735.1959 123.9461 734.7046 126.2725 736.6048 128.7385 725.6834 131.1277 722.2633 116.0269 719.494 114.7954 719.7494 112.7763 717.4318 107.319 717.4599 99.0923 716.0344 97.3836 715.3901 93.0652 714.2923 89.3256 Z" />
    <text>VT</text>
  </g>

  <g class="al">
    <path
       data-postal="AL"
       d="M 572.0836 309.553 582.8251 347.7975 585.3753 353.8561 587.6236 357.1034 587.8014 359.2627 589.0795 360.2649 587.0038 362.8839 587.0886 365.452 586.141 369.0304 588.408 374.3303 587.8924 379.47 590.1704 384.4313 564.319 387.2211 548.051 388.7529 547.7215 391.2124 551.7434 395.2206 551.784 398.3951 552.1556 399.1184 549.3307 402.5297 546.2076 402.0802 543.7211 400.1827 542.9124 395.7203 541.1191 395.9746 540.5126 402.0813 535.7978 401.5179 532.1502 373.0041 533.0091 344.4074 533.7598 315.0552 532.2005 313.1431 542.4934 312.1103 554.7264 311.2672 572.0836 309.553 Z" />
    <text>AL</text>
  </g>

  <g class="fl">
    <path
       data-postal="FL"
       d="M 551.784 398.3951 551.7434 395.2206 547.7215 391.2124 548.051 388.7529 564.319 387.2211 590.1704 384.4313 593.0642 389.4753 608.906 388.628 636.2685 386.784 638.0219 390.3891 639.9107 389.9018 639.9096 385.7981 639.0191 383.0583 640.9365 381.1928 644.4071 382.1671 647.8789 382.1957 649.1276 382.5919 649.3225 385.919 654.5634 398.9802 656.4398 402.6209 662.2092 411.6795 668.7858 419.4443 666.1772 419.8275 666.1149 417.6838 664.2719 416.7003 666.6636 422.8531 668.2146 425.5748 675.5167 436.5044 676.586 439.2385 680.5627 445.564 682.8374 448.5881 683.9817 451.504 684.5245 456.2931 685.337 468.9654 683.1269 474.4917 682.9002 476.9098 683.7637 479.105 682.2799 482.2032 679.5623 482.2746 677.5998 484.429 674.9838 484.0703 671.1662 485.9145 669.2858 484.1843 669.2783 480.9898 665.1748 474.2441 663.6948 473.1583 658.7149 471.4464 656.0408 469.6123 654.1154 463.2117 650.7677 462.2004 649.6123 459.4595 649.5264 455.9243 647.8331 454.7464 647.2982 457.4502 645.2022 456.8717 639.8414 449.4765 639.3244 447.2762 637.5183 445.1347 641.2081 439.3266 637.3782 436.2896 637.4264 441.6857 633.6423 439.7767 634.1757 434.3862 633.6085 432.7812 634.9973 427.7094 634.1234 419.1443 631.9926 417.3349 629.9781 414.3099 627.1023 414.8509 623.3204 410.8337 619.8885 408.9668 619.4785 406.414 617.3991 405.7532 614.3725 402.2025 608.2789 399.4218 604.2793 400.1908 602.4443 401.7282 603.4208 403.9611 600.7506 403.9031 594.9494 408.2838 588.0723 409.779 586.8519 406.169 581.1835 402.302 580.3066 400.0159 577.8098 400.8758 574.3199 399.5221 569.2691 398.6102 570.3348 396.2615 567.1141 396.9227 564.0181 398.3385 559.689 398.1027 558.3406 396.9925 556.1036 398.0957 553.551 401.2994 552.1002 400.8481 552.8145 398.6137 551.784 398.3951 Z" />
    <text>FL</text>
  </g>

  <g class="ga">
    <path
       data-postal="GA"
       d="M 590.1704 384.4313 587.8924 379.47 588.408 374.3303 586.141 369.0304 587.0886 365.452 587.0038 362.8839 589.0795 360.2649 587.8014 359.2627 587.6236 357.1034 585.3753 353.8561 582.8251 347.7975 572.0836 309.553 591.8811 307.2078 610.5172 304.5267 607.9963 308.3688 607.5504 310.594 613.4142 314.1967 615.9165 314.2594 618.5607 319.2441 621.6997 323.0093 627.3774 326.4077 628.504 328.4922 633.2317 331.2108 633.3969 333.0753 634.9362 333.7694 636.6761 336.5673 640.8286 338.1937 641.4145 340.1971 643.5085 343.4988 643.8109 345.7921 647.4753 347.9322 649.1533 351.2485 649.0455 353.324 650.616 355.1466 653.773 355.6998 654.7347 356.1223 651.7834 360.7582 649.8256 362.4345 648.5811 365.4734 648.0248 368.5606 649.9537 370.9895 647.1477 377.3577 647.8789 382.1957 644.4071 382.1671 640.9365 381.1928 639.0191 383.0583 639.9096 385.7981 639.9107 389.9018 638.0219 390.3891 636.2685 386.784 608.906 388.628 593.0642 389.4753 590.1704 384.4313 Z" />
    <text>GA</text>
  </g>

  <g class="ms">
    <path
       data-postal="MS"
       d="M 487.7589 354.2892 488.6967 351.6399 488.4473 349.3836 487.2126 348.4436 487.9293 345.3692 486.4714 344.3696 487.3888 342.4109 486.6735 341.0118 488.8879 338.851 488.0884 335.3885 490.8098 334.5021 491.9331 329.6241 495.3431 326.7507 495.1072 322.5805 496.9279 318.9011 499.8079 316.8979 499.2152 315.4495 515.3614 314.4136 532.2005 313.1431 533.7598 315.0552 533.0091 344.4074 532.1502 373.0041 535.7978 401.5179 534.7708 402.8245 530.2602 402.598 527.0822 401.1506 525.7634 402.4885 520.6519 404.2832 517.5714 406.6028 516.5256 406.3037 514.7358 401.7421 512.5968 399.7965 511.6874 397.6233 513.104 391.4483 497.1728 392.417 481.6954 393.2006 482.9262 392.0734 481.85 387.8712 483.3438 387.7205 483.9677 385.2257 483.3445 383.5436 484.7935 382.0842 485.1519 378.9015 486.1432 376.5587 487.391 376.0448 490.2382 372.0059 492.434 366.9953 489.4872 365.0203 488.2257 361.7343 488.44 357.2466 489.3563 355.9577 487.7589 354.2892 Z" />
    <text>MS</text>
  </g>

  <g class="sc">
    <path
       data-postal="SC"
       d="M 653.773 355.6998 650.616 355.1466 649.0455 353.324 649.1533 351.2485 647.4753 347.9322 643.8109 345.7921 643.5085 343.4988 641.4145 340.1971 640.8286 338.1937 636.6761 336.5673 634.9362 333.7694 633.3969 333.0753 633.2317 331.2108 628.504 328.4922 627.3774 326.4077 621.6997 323.0093 618.5607 319.2441 615.9165 314.2594 613.4142 314.1967 607.5504 310.594 607.9963 308.3688 610.5172 304.5267 618.7279 300.3001 622.6994 298.8201 641.4748 296.975 643.86 297.4927 646.3674 299.9414 647.0409 302.4821 663.601 300.0987 664.4072 300.1557 684.1963 314.4311 681.6043 316.9414 679.3567 320.0155 677.0773 324.8094 676.7434 329.2461 674.4431 333.0769 671.3454 333.6889 671.3116 335.5948 667.9873 339.2377 666.0268 342.4329 660.0401 345.9727 659.8962 348.2304 656.6019 351.7096 653.773 355.6998 Z" />
    <text>SC</text>
  </g>

  <g class="il">
    <path
       data-postal="IL"
       d="M 476.5735 212.9243 477.417 212.6251 477.2141 208.6693 479.9779 207.4789 481.1655 204.1341 482.8625 201.6819 482.9471 199.1876 480.9613 197.0884 481.1621 193.3569 482.0118 192.3339 486.0785 191.7745 490.9986 188.5202 491.4204 185.7363 492.814 184.3987 493.4196 180.1808 492.9033 178.5581 489.4677 176.2823 488.4763 173.826 485.829 171.3636 513.2178 169.7996 525.5846 168.9083 525.6801 172.9986 527.9001 176.5545 529.9515 182.0958 530.8552 183.1955 534.7436 228.5793 533.4939 229.8878 533.1804 232.6838 534.6119 235.5548 536.0855 240.0311 534.7451 242.3104 534.5035 244.8817 531.9106 249.0161 530.4401 249.5082 530.8399 252.1613 529.3572 254.3777 529.7536 259.0807 528.2544 262.4282 529.1214 265.5542 524.0896 267.2334 523.728 270.004 524.9236 271.8116 524.3118 273.7165 517.7192 271.3698 515.6751 271.7461 513.8426 274.7044 514.7884 276.232 512.8468 275.1 511.6653 275.7875 508.3676 271.1154 509.2262 267.7293 507.927 265.4685 507.4105 262.8849 504.6512 260.3763 501.5068 258.3524 498.622 257.2976 494.8896 253.8479 494.2525 252.0838 496.613 245.424 496.5159 240.7098 492.8118 239.2964 490.5966 241.1491 488.74 238.9901 488.1186 235.0604 486.6772 232.8382 483.1523 230.4739 482.2903 228.9625 478.4564 225.7276 476.9386 222.8161 475.6446 216.9133 476.5735 212.9243 Z" />
    <text>IL</text>
  </g>

  <g class="in">
    <path
       data-postal="IN"
       d="M 529.7536 259.0807 529.3572 254.3777 530.8399 252.1613 530.4401 249.5082 531.9106 249.0161 534.5035 244.8817 534.7451 242.3104 536.0855 240.0311 534.6119 235.5548 533.1804 232.6838 533.4939 229.8878 534.7436 228.5793 530.8552 183.1955 534.27 184.8096 537.886 183.443 540.3789 181.6903 569.1205 178.6259 569.2594 179.8 570.2519 187.4924 574.8858 229.5326 575.9286 233.3765 575.6429 235.4205 573.037 236.068 570.466 237.8762 569.3141 237.0928 566.6977 237.5075 567.4265 240.5789 564.6321 243.6054 564.217 246.023 562.027 246.6578 561.0881 248.4426 561.0261 251.1323 559.4224 252.6511 553.4733 250.917 552.0634 252.9186 552.0524 254.673 549.0256 255.4519 547.7143 253.8111 544.5644 256.1142 544.0691 257.8319 538.7503 255.5953 533.3411 257.3942 531.269 259.304 529.7536 259.0807 Z" />
    <text>IN</text>
  </g>

  <g class="ky">
    <path
       data-postal="KY"
       d="M 510.8808 285.7894 511.6926 283.0485 513.3895 284.2588 514.873 280.9585 514.7884 276.232 513.8426 274.7044 515.6751 271.7461 517.7192 271.3698 524.3118 273.7165 524.9236 271.8116 523.728 270.004 524.0896 267.2334 529.1214 265.5542 528.2544 262.4282 529.7536 259.0807 531.269 259.304 533.3411 257.3942 538.7503 255.5953 544.0691 257.8319 544.5644 256.1142 547.7143 253.8111 549.0256 255.4519 552.0524 254.673 552.0634 252.9186 553.4733 250.917 559.4224 252.6511 561.0261 251.1323 561.0881 248.4426 562.027 246.6578 564.217 246.023 564.6321 243.6054 567.4265 240.5789 566.6977 237.5075 569.3141 237.0928 570.466 237.8762 573.037 236.068 575.6429 235.4205 575.9286 233.3765 574.8858 229.5326 577.6568 229.5927 580.4234 228.7818 582.3808 229.945 584.7522 233.9013 589.7077 234.2121 592.2395 236.2883 594.7111 234.6263 598.3477 236.2016 600.7982 235.355 602.0755 233.4702 604.1204 232.6246 605.417 235.5245 607.4405 236.2335 609.3537 238.2228 610.079 241.4607 609.4591 243.393 615.6889 251.5398 618.7214 253.5302 621.0337 253.6692 616.0028 259.4729 612.1095 262.2595 611.0354 264.8606 609.2955 266.3884 609.0546 267.9311 606.2321 269.4816 605.6276 271.2093 597.9992 275.062 597.0947 275.5339 575.9693 277.3613 571.3645 278.0034 561.6365 278.7506 554.241 279.0735 534.8424 281.1215 531.2216 280.5499 531.8988 284.1853 510.8808 285.7894 Z" />
    <text>KY</text>
  </g>

  <g class="nc">
    <path
       data-postal="NC"
       d="M 714.1616 256.1342 714.6695 256.0297 713.9168 257.1699 713.1119 256.3485 713.8039 256.2074 714.1616 256.1342 Z M 610.5172 304.5267 591.8811 307.2078 591.731 302.9377 594.7734 301.5971 595.6577 298.2546 597.448 296.2429 599.6552 294.9861 603.1516 294.4614 609.0653 289.4037 610.4846 289.2372 611.6327 285.8221 615.1396 283.3517 617.4474 284.2583 618.6073 282.1109 621.4042 280.4823 623.2682 281.3358 625.1844 277.2859 627.6286 274.6724 628.2822 270.6762 634.8982 270.4326 652.109 268.2123 675.6841 263.9787 684.9709 262.2195 712.8359 256.4051 715.1519 258.8164 716.9747 263.1723 714.4462 263.1253 712.1743 265.3393 709.009 266.4091 707.5891 268.0709 704.9788 267.7737 704.7645 269.9961 709.9463 269.0554 712.6119 267.4084 714.8616 267.1262 716.1276 268.7613 717.8127 266.5679 720.3947 268.9797 720.798 273.1726 718.7667 274.2552 715.8684 279.4358 714.0704 279.7917 709.2319 278.6902 710.7531 281.211 710.5211 284.9352 711.197 287.2519 713.9292 287.3409 714.8291 288.4554 712.7846 291.4942 710.6002 292.8242 706.8942 293.244 702.5548 295.8569 701.9694 297.0782 698.105 300.3102 696.4092 302.4526 694.4963 306.136 694.1901 311.0647 692.5506 312.6681 689.0196 312.6975 684.1963 314.4311 664.4072 300.1557 663.601 300.0987 647.0409 302.4821 646.3674 299.9414 643.86 297.4927 641.4748 296.975 622.6994 298.8201 618.7279 300.3001 610.5172 304.5267 Z" />
    <text>NC</text>
  </g>

  <g class="oh">
    <path
       data-postal="OH"
       d="M 574.8858 229.5326 570.2519 187.4924 569.2594 179.8 588.0667 176.7379 590.2419 176.9162 593.5579 178.1983 596.4464 181.4367 597.708 180.5181 600.7525 180.4045 602.4869 181.3017 608.7122 178.1527 611.0707 178.2082 613.8699 177.1618 617.8145 172.5224 621.9827 169.6094 628.6284 165.8273 632.8025 191.2262 630.7537 192.6923 632.1912 194.7484 632.6647 197.5596 631.4932 202.8725 631.6161 205.4168 630.8563 208.2497 630.8583 211.404 626.4663 216.593 624.2328 217.6489 622.8082 217.1199 621.8259 219.4715 619.5306 221.6584 619.7328 226.7063 618.8413 227.2162 615.5229 225.9611 613.9345 230.4249 613.0799 237.2154 609.3537 238.2228 607.4405 236.2335 605.417 235.5245 604.1204 232.6246 602.0755 233.4702 600.7982 235.355 598.3477 236.2016 594.7111 234.6263 592.2395 236.2883 589.7077 234.2121 584.7522 233.9013 582.3808 229.945 580.4234 228.7818 577.6568 229.5927 574.8858 229.5326 Z" />
    <text>OH</text>
  </g>

  <g class="tn">
    <path
       data-postal="TN"
       d="M 499.2152 315.4495 502.4001 311.6147 501.8793 307.858 503.1287 305.3493 504.5401 304.5581 504.0012 300.961 507.1959 298.8802 507.9328 297.2536 506.9571 295.6738 508.4599 292.8491 507.0903 290.9094 509.4141 288.1181 508.8181 285.9078 509.8134 285.8154 510.8808 285.7894 531.8988 284.1853 531.2216 280.5499 534.8424 281.1215 554.241 279.0735 561.6365 278.7506 571.3645 278.0034 575.9693 277.3613 597.0947 275.5339 597.9992 275.062 623.8951 271.5812 628.2822 270.6762 627.6286 274.6724 625.1844 277.2859 623.2682 281.3358 621.4042 280.4823 618.6073 282.1109 617.4474 284.2583 615.1396 283.3517 611.6327 285.8221 610.4846 289.2372 609.0653 289.4037 603.1516 294.4614 599.6552 294.9861 597.448 296.2429 595.6577 298.2546 594.7734 301.5971 591.731 302.9377 591.8811 307.2078 572.0836 309.553 554.7264 311.2672 542.4934 312.1103 532.2005 313.1431 515.3614 314.4136 499.2152 315.4495 Z" />
    <text>TN</text>
  </g>

  <g class="va">
    <path
       data-postal="VA"
       d="M 712.7625 228.5311 716.5097 226.7346 715.5915 230.5684 711.7251 240.7538 710.0707 241.9083 710.7972 236.8989 710.1929 236.0866 711.6725 233.4636 712.7625 228.5311 Z M 597.9992 275.062 605.6276 271.2093 606.2321 269.4816 609.0546 267.9311 609.2955 266.3884 611.0354 264.8606 612.1095 262.2595 616.0028 259.4729 621.0337 253.6692 621.969 256.6264 623.8604 258.1603 626.7586 259.223 628.2272 258.9321 630.9008 256.1586 632.9344 257.5871 636.8962 255.9755 642.6192 251.6639 643.8608 252.2164 645.9589 250.3112 646.5799 248.2261 645.5413 246.9453 646.2824 244.2876 648.7384 240.2241 649.3909 236.6444 650.8916 234.4097 652.1523 228.0925 654.4529 229.9083 657.6616 230.3968 660.7424 221.6077 662.7552 222.269 664.0109 219.358 665.1961 219.0572 667.9532 213.9969 668.2663 208.3625 676.392 212.8263 677.1645 209.0088 681.3508 209.9019 681.3788 212.2494 684.8941 213.048 687.53 214.7536 688.397 215.2102 689.4054 218.6667 686.9851 220.3138 686.3537 224.4822 687.942 226.5436 691.2204 226.3206 693.8881 228.3475 697.8955 228.0486 699.6135 230.1567 704.2332 231.5844 703.8987 235.026 704.1511 239.1156 706.0875 240.131 704.8124 243.887 706.5054 246.0457 707.6665 249.4069 712.0181 249.4573 715.5037 255.858 715.0924 255.9421 713.7545 253.138 713.2238 253.1907 713.8039 256.2074 713.1119 256.3485 712.8359 256.4051 684.9709 262.2195 675.6841 263.9787 652.109 268.2123 634.8982 270.4326 628.2822 270.6762 623.8951 271.5812 597.9992 275.062 Z" />
    <text>VA</text>
  </g>

  <g class="wi">
    <path
       data-postal="WI"
       d="M 531.1394 114.4967 531.2323 116.7885 528.6014 123.7969 526.9415 121.9916 528.8074 116.9586 531.1394 114.4967 Z M 476.3452 152.8473 476.1011 147.7124 475.3282 144.8706 473.4338 142.976 470.1432 142.1564 467.6632 140.1847 465.9877 137.3061 463.8256 135.4565 461.4848 134.9964 459.751 132.8832 457.1332 132.4364 453.838 129.6802 454.5627 126.4411 453.8676 123.5508 454.4191 119.2904 455.4413 116.4683 454.2496 114.3352 452.4641 114.0712 452.3929 111.4024 454.6432 107.5606 459.1064 105.2171 460.0074 104.1126 459.5919 93.1361 461.887 90.9757 463.8952 92.3698 466.1292 91.9811 471.0351 90.0711 473.4474 88.2358 474.7406 88.6469 476.7812 86.8129 479.5193 87.6632 478.4029 89.6037 477.9922 93.3809 480.1584 91.7019 482.3539 93.0435 484.4898 93.2628 486.945 94.6491 488.6203 97.7558 502.1122 100.5261 506.0151 102.3903 510.0148 102.2646 515.7837 103.7401 516.5695 106.3006 518.7846 106.6303 520.3326 107.9052 520.5407 111.7664 519.7748 113.8902 522.8507 113.9294 522.184 117.4152 524.0251 118.7469 523.69 120.6542 521.273 121.9786 519.6017 126.1295 519.0536 129.4953 522.5103 127.4918 523.6982 124.3848 526.4117 122.735 528.2055 124.1613 526.5513 129.6412 526.035 133.7912 526.935 135.4887 525.2021 137.9534 524.3091 141.3964 524.9971 145.4952 522.8764 154.1934 523.4084 158.5209 525.35 162.7568 525.5846 168.9083 513.2178 169.7996 485.829 171.3636 484.8103 168.6581 479.9328 167.2521 478.5771 164.0672 477.8154 159.3164 478.8495 156.9635 477.2089 155.3974 476.3452 152.8473 Z" />
    <text>WI</text>
  </g>

  <g class="wv">
    <path
       data-postal="WV"
       d="M 621.0337 253.6692 618.7214 253.5302 615.6889 251.5398 609.4591 243.393 610.079 241.4607 609.3537 238.2228 613.0799 237.2154 613.9345 230.4249 615.5229 225.9611 618.8413 227.2162 619.7328 226.7063 619.5306 221.6584 621.8259 219.4715 622.8082 217.1199 624.2328 217.6489 626.4663 216.593 630.8583 211.404 630.8563 208.2497 631.6161 205.4168 631.4932 202.8725 632.6647 197.5596 632.1912 194.7484 630.7537 192.6923 632.8025 191.2262 635.7043 208.8078 650.7036 206.2528 652.2574 215.992 656.1246 211.8542 657.4555 209.7364 658.9447 210.095 661.7369 207.1351 665.8589 207.1915 666.0441 205.3815 668.2143 204.7552 670.089 203.1062 675.792 206.2704 677.1645 209.0088 676.392 212.8263 668.2663 208.3625 667.9532 213.9969 665.1961 219.0572 664.0109 219.358 662.7552 222.269 660.7424 221.6077 657.6616 230.3968 654.4529 229.9083 652.1523 228.0925 650.8916 234.4097 649.3909 236.6444 648.7384 240.2241 646.2824 244.2876 645.5413 246.9453 646.5799 248.2261 645.9589 250.3112 643.8608 252.2164 642.6192 251.6639 636.8962 255.9755 632.9344 257.5871 630.9008 256.1586 628.2272 258.9321 626.7586 259.223 623.8604 258.1603 621.969 256.6264 621.0337 253.6692 Z" />
    <text>WV</text>
  </g>

  <g class="de">
    <path
       data-postal="DE"
       d="M 708.4081 193.1787 706.6119 197.3172 707.4907 200.1602 710.3004 202.4616 711.9578 207.2125 716.325 211.3988 717.5018 211.1047 719.5263 217.4071 719.3285 217.4587 718.9484 217.5406 710.0715 219.3633 703.565 195.9158 705.761 193.1426 708.4081 193.1787 Z" />
    <text>DE</text>
  </g>

  <g class="dc">
    <path
       data-postal="DC"
       d="M 688.397 215.2102 687.53 214.7536 688.4193 213.3542 690.7331 214.9128 689.4332 216.9501 688.397 215.2102 Z" />
    <text>DC</text>
  </g>

  <g class="md">
    <path
       data-postal="MD"
       d="M 716.5097 226.7346 712.7625 228.5311 709.1858 228.8663 709.6388 225.8666 707.7445 223.5982 706.0843 224.5291 702.8726 223.1991 700.9323 221.0472 702.6918 216.9132 699.6146 216.314 701.6404 212.6002 701.0963 208.3336 698.9143 208.1307 699.6647 204.7297 696.0497 205.3434 696.2012 207.8451 697.6426 211.0979 696.3673 216.0636 697.9145 220.6193 700.1376 222.8413 700.0726 224.2243 702.2375 227.3717 700.6046 227.8443 697.5798 226.679 695.5487 227.0131 692.8575 226.3048 690.7576 223.3927 688.4733 225.7611 687.0588 223.494 689.4938 218.9443 689.4332 216.9501 690.7331 214.9128 688.4193 213.3542 687.53 214.7536 684.8941 213.048 681.3788 212.2494 681.3508 209.9019 677.1645 209.0088 675.792 206.2704 670.089 203.1062 668.2143 204.7552 666.0441 205.3815 665.8589 207.1915 661.7369 207.1351 658.9447 210.095 657.4555 209.7364 656.1246 211.8542 652.2574 215.992 650.7036 206.2528 665.627 203.5505 678.8667 201.011 703.565 195.9158 710.0715 219.3633 718.9484 217.5406 718.8192 221.7682 717.5918 222.3167 716.5097 226.7346 Z" />
    <text>MD</text>
  </g>

  <g class="nj">
    <path
       data-postal="NJ"
       d="M 713.2316 187.9698 716.543 183.8933 708.6618 178.0578 707.7826 174.5423 709.0144 171.6448 707.5362 170.1863 710.239 165.6614 710.4281 163.8007 712.102 161.7772 724.73 166.0631 724.2077 171.6579 722.0657 173.7409 721.6372 176.5475 725.4925 177.1425 726.7519 178.7046 726.9435 184.9024 726.2807 185.0204 726.7565 191.1338 724.6845 194.5665 721.965 202.0881 721.2826 205.1454 719.8899 207.634 718.5946 208.0989 718.8561 203.8724 716.5849 203.1221 714.7316 203.7743 708.2347 199.698 707.8205 196.3439 708.3067 193.785 712.1134 191.0107 713.2316 187.9698 Z" />
    <text>NJ</text>
  </g>

  <g class="ny">
    <path
       data-postal="NY"
       d="M 747.1685 157.6767 745.2066 159.5769 746.1668 160.729 748.8221 158.8518 749.7227 159.6856 746.2448 163.341 743.7621 165.1736 742.0342 165.4784 739.2703 167.473 735.3902 168.9699 729.344 173.0395 727.3348 172.2115 725.4617 174.2268 724.4851 173.0824 725.6059 169.8543 730.4553 166.1442 734.6268 165.3166 735.8822 163.7172 740.546 162.7292 742.8658 161.6554 745.8048 157.9207 747.1685 157.6767 Z M 684.1551 106.2153 685.033 104.3569 689.5779 97.8325 694.2779 93.9112 696.0007 93.7414 714.2923 89.3256 715.3901 93.0652 716.0344 97.3836 717.4599 99.0923 717.4318 107.319 719.7494 112.7763 719.494 114.7954 722.2633 116.0269 725.6834 131.1277 725.4008 144.3792 725.8778 144.7474 728.417 159.1655 729.6063 160.403 726.7965 163.3425 728.3719 164.9927 726.6227 168.6149 725.2793 169.6127 724.73 166.0631 712.102 161.7772 711.0696 160.4648 709.1048 160.6405 705.9311 158.0541 704.8307 154.1144 700.53 151.7351 683.1207 155.4462 662.3626 159.5567 639.141 163.7564 638.2615 158.6668 641.8557 155.3373 642.9973 153.522 645.6974 151.2604 648.6937 145.5527 647.2876 143.1941 647.2499 141.3109 645.0906 141.1308 644.5939 137.8561 649.3473 135.3666 653.44 133.9279 657.1733 133.2623 662.2239 133.2566 665.4177 134.3474 667.5987 133.1157 672.8695 132.3228 676.3361 130.5478 676.7029 129.2437 679.5558 126.0554 681.8793 125.481 682.4197 122.8158 680.0794 119.0866 681.7337 118.091 681.397 115.6359 678.0412 114.6658 681.5783 111.2894 684.6426 107.0966 684.1551 106.2153 Z" />
    <text>NY</text>
  </g>

  <g class="pa">
    <path
       data-postal="PA"
       d="M 632.8025 191.2262 628.6284 165.8273 630.5207 164.7534 638.2615 158.6668 639.141 163.7564 662.3626 159.5567 683.1207 155.4462 700.53 151.7351 704.8307 154.1144 705.9311 158.0541 709.1048 160.6405 711.0696 160.4648 712.102 161.7772 710.4281 163.8007 710.239 165.6614 707.5362 170.1863 709.0144 171.6448 707.7826 174.5423 708.6618 178.0578 716.543 183.8933 713.2316 187.9698 711.9459 190.502 708.4081 193.1787 705.761 193.1426 703.565 195.9158 678.8667 201.011 665.627 203.5505 650.7036 206.2528 635.7043 208.8078 632.8025 191.2262 Z" />
    <text>PA</text>
  </g>

  <g class="mi">
    <path
       data-postal="MI"
       d="M 599.2948 150.2654 598.9931 157.5025 596.1535 156.8309 594.3426 159.8883 594.3821 162.8755 592.4194 164.3571 591.2568 166.6119 590.8202 171.2915 590.2117 171.6079 588.0667 176.7379 569.2594 179.8 569.1205 178.6259 540.3789 181.6903 543.4271 177.9005 545.9697 171.5591 547.0276 167.2653 547.3113 162.6476 546.7654 157.7817 545.7945 155.1997 541.053 145.5673 542.1373 142.4228 541.6572 139.1356 540.5205 136.8397 541.8114 135.1959 543.3731 130.938 543.4131 126.8763 542.731 124.9637 544.8654 123.6096 545.1022 120.215 547.9109 119.396 548.832 117.1221 551.286 116.877 553.648 119.1417 553.9054 115.8211 553.3506 113.4593 554.031 111.6784 557.9515 108.8576 556.6502 107.3153 556.7146 105.3043 558.3029 103.0827 560.4337 101.6265 564.9307 103.5703 568.1157 103.7213 570.1446 106.1249 578.3162 107.8776 581.7228 112.4877 579.8932 114.6235 581.7395 116.4169 582.9622 119.9074 583.0228 127.1164 580.7548 128.6466 580.4476 132.6185 577.4675 134.1328 576.3582 136.6647 577.1291 140.4076 580.3986 141.4143 585.0976 133.6677 589.5267 131.2515 593.107 133.6285 594.1148 135.6066 597.073 145.5564 599.2948 150.2654 Z M 575.8371 94.3889 577.0955 95.7974 576.1902 97.1917 572.5239 96.8873 575.8371 94.3889 Z M 562.6823 88.7218 563.4489 87.5932 567.5209 86.8022 566.4267 90.2242 566.9615 92.1763 569.5061 93.7968 570.0258 97.2913 564.2039 97.0647 561.4168 96.5818 559.5911 100.1816 556.6636 97.742 552.2658 96.6285 549.5611 97.1449 548.2589 99.4629 540.4921 100.8685 539.1577 103.84 537.2412 104.8917 534.1939 103.1548 532.8673 105.9089 528.7581 107.4955 526.9 112.3933 524.4062 117.0642 524.0251 118.7469 522.184 117.4152 522.8507 113.9294 519.7748 113.8902 520.5407 111.7664 520.3326 107.9052 518.7846 106.6303 516.5695 106.3006 515.7837 103.7401 510.0148 102.2646 506.0151 102.3903 502.1122 100.5261 488.6203 97.7558 486.945 94.6491 484.4898 93.2628 489.5289 90.8882 492.3059 88.1775 497.471 87.1888 500.7788 84.2421 502.885 83.8408 503.8215 81.9353 506.3077 79.591 508.3973 81.3928 510.7579 86.3729 512.606 84.5147 518.4193 84.8401 521.2447 87.1796 524.9587 91.607 529.8933 90.696 531.2026 92.1087 532.7366 91.1712 534.6136 92.0801 536.2131 89.824 541.199 86.9797 544.1549 86.0299 548.6483 86.0141 552.6682 83.8083 555.228 84.4951 555.0913 88.1792 558.1497 89.2277 560.407 88.1459 562.6823 88.7218 Z M 518.438 74.6992 516.2501 75.3484 512.1331 79.897 510.0524 83.7943 507.3138 79.311 509.3852 76.6002 514.1369 74.0796 517.162 73.8279 518.438 74.6992 Z M 507.2321 61.556 505.1169 64.748 501.8586 66.4106 499.5537 68.5386 498.4341 67.0632 505.6196 62.1019 507.2321 61.556 Z" />
    <text>MI</text>
  </g>

  <g class="ak">
    <path
       data-postal="AK"
       d="M 22.4699 490.0123 23.805 492.5213 19.7997 492.8828 22.4699 490.0123 Z M 36.3736 485.8303 37.4123 488.2385 30.9349 489.092 32.9425 486.2588 36.3736 485.8303 Z M 165.659 478.7293 167.0266 480.1547 167.0967 483.9151 164.1656 482.5448 164.3054 479.3585 165.659 478.7293 Z M 155.8597 478.1426 157.4402 477.9313 158.3479 479.7605 161.1186 481.1089 161.6068 482.6432 163.808 484.1586 164.812 487.3972 162.033 486.8831 161.6445 485.7764 159.0028 485.2351 159.038 482.7223 157.3069 479.1635 155.8597 478.1426 Z M 154.0641 473.275 157.2333 473.5845 157.3627 477.0037 155.4091 477.4338 154.0641 473.275 Z M 147.3659 471.9712 149.3867 472.3593 151.3693 476.3865 149.9757 478.054 148.3727 476.2648 147.3659 471.9712 Z M 80.9946 472.445 82.955 472.7194 81.8631 477.1164 79.6986 477.2828 76.6775 480.5062 74.6645 478.5753 73.8489 475.9553 77.5097 472.9988 80.9946 472.445 Z M 145.1847 466.7344 148.3543 467.5769 149.5188 471.1879 145.3344 472.2666 143.1333 469.6053 142.782 467.8732 145.1847 466.7344 Z M 147.8912 465.1571 148.9994 466.4205 150.8463 466.0304 151.0443 466.6476 150.6685 467.4441 152.589 469.6559 149.9693 470.3631 147.8912 465.1571 Z M 82.7845 468.7271 85.0219 470.5245 81.8047 472.0607 80.3206 470.6799 82.7845 468.7271 Z M 37.5628 446.9124 38.788 447.9414 38.5301 450.574 35.9378 450.7831 33.1775 448.3314 36.3606 446.6019 37.5628 446.9124 Z M 27.8121 418.0631 29.3997 420.3715 31.5811 420.2189 33.4041 424.6544 31.7223 425.3515 29.3638 421.2063 27.2905 421.5092 26.5842 419.7003 27.8121 418.0631 Z M 131.1869 456.2511 137.0985 460.8533 138.151 463.077 141.1094 459.8216 141.4203 457.3468 143.9059 455.6382 145.7769 457.9847 149.7078 461.3627 153.014 463.4085 157.8981 469.3045 160.63 472.0785 160.6391 473.3187 165.2322 475.4453 169.7435 476.5906 169.9964 478.9851 171.6048 481.9592 170.8553 484.9403 168.768 486.1175 167.5992 483.6871 167.3048 479.9762 165.8344 478.7146 164.7537 478.4875 162.7294 479.0297 162.0185 476.6509 155.0552 471.1695 153.7852 468.6796 152.3544 467.2438 151.4529 466.6001 151.1115 465.1683 150.5767 465.7541 149.4394 464.9791 148.3958 464.8588 146.426 462.1073 146.4379 463.7147 147.4888 465.7053 144.3293 464.7319 141.9627 467.3749 138.1991 465.5449 135.283 462.6793 127.0241 458.934 118.0272 456.8791 114.1548 457.9806 110.52 455.4351 106.9389 455.0416 107.7459 453.5815 104.8907 452.5082 103.8188 451.0071 101.9558 452.037 98.7285 452.0135 99.9805 455.2476 98.3614 458.4671 95.0555 458.2013 91.4482 461.9991 86.2582 463.9614 85.8124 462.1806 88.0893 461.2552 86.0111 459.5225 87.6419 456.7476 89.2216 452.5551 91.4149 450.869 90.8739 448.9578 86.9563 451.4963 84.7199 454.5098 83.0475 458.4548 77.983 461.8067 77.3407 463.9243 80.3873 465.2191 78.1233 467.2912 76.8795 470.0359 73.5602 471.0668 71.9384 473.0335 68.1191 474.7932 67.8762 476.4654 64.2717 478.8566 59.4606 480.321 59.2706 482.4214 53.7355 484.0851 52.9831 483.6596 49.9706 485.6746 46.6133 486.012 45.6449 483.9404 43.5965 487.0315 39.6522 487.4996 39.2631 486.2423 43.4036 482.8379 45.239 481.9184 50.3969 482.5752 51.4467 480.3093 57.6261 477.3423 60.5701 474.4274 63.1123 472.995 64.8142 466.8076 66.7616 464.0431 59.1204 466.183 57.2864 462.3453 55.256 460.8041 51.1817 462.4925 49.9341 462.0212 49.5866 459.2008 51.0583 456.8199 49.0031 452.7436 44.9336 453.2264 41.2073 448.2932 40.5611 446.3483 43.1607 445.2325 39.6055 438.5639 42.0003 437.3329 42.2005 435.4206 44.76 433.164 47.6244 429.3007 49.1735 428.8007 52.0714 431.0164 55.8086 428.9712 58.6567 429.1871 60.2076 427.7426 60.5463 422.2585 59.7872 420.156 57.7729 420.1139 55.8881 421.2624 50.9274 419.449 48.6384 419.897 45.5309 418.0203 44.8746 414.2782 46.6228 412.9259 43.7406 411.4047 42.2438 409.5108 44.9285 408.0498 53.3941 405.5706 55.4793 405.6931 55.4017 409.6013 60.2604 410.9896 61.733 408.2988 60.2968 404.059 57.1251 402.4898 56.7954 398.6102 52.0589 391.8573 53.8539 388.5527 58.6043 389.4417 62.2519 387.1919 63.4495 384.3275 66.4221 381.4582 69.2293 381.5388 73.2701 379.3231 76.3939 379.2909 79.6774 376.4154 84.5109 380.4058 89.1854 380.3687 89.2336 382.7255 90.3133 383.5561 96.588 383.3776 101.8908 385.8242 104.8856 385.7028 107.2112 387.0087 111.2781 385.7675 113.7646 387.4334 116.9989 388.5796 124.152 454.808 127.6841 455.3605 130.7056 453.8209 131.1869 456.2511 Z" />
    <text>AK</text>
  </g>

  <g class="ne">
    <path
      d="M 322.682 219.0111 323.8989 199.805 295.2639 197.6713 298.5282 159.3449 313.0695 160.4995 334.3956 161.9027 360.4875 163.151 376.0096 163.6485 379.3265 166.1853 382.586 167.9557 384.9683 166.3243 387.442 166.7038 392.4792 166.1492 394.8848 168.0521 398.6553 169.0431 400.7184 170.2626 402.0669 173.0232 403.8705 173.3404 405.065 173.7621 405.6915 179.3566 406.9677 182.2037 408.4623 183.5538 409.7343 187.2451 409.476 191.9796 411.6301 193.6129 412.3706 196.4391 413.1244 206.5204 412.527 207.7777 413.9968 210.2472 416.0155 215.1524 420.5764 221.777 393.1371 221.7017 368.7523 221.1777 341.3354 220.074 322.682 219.0111 Z"
      data-postal="NE" />

    <g class="ne-1">
      <rect width="15" height="15" x="346" y="180" />
    </g>
    <g class="ne-2">
      <rect width="15" height="15" x="363" y="180" />
    </g>
    <g class="ne-3">
      <rect width="15" height="15" x="380" y="180" />
    </g>
    <g class="ne-4">
      <rect width="15" height="15" x="363" y="197" />
    </g>
    <g class="ne-5">
      <rect width="15" height="15" x="380" y="197" />
    </g>

    <text>NE</text>
  </g>

  <g class="me">
    <path
      d="M 785.4201 83.7919 782.8765 85.5551 782.7464 82.3015 785.4201 83.7919 Z M 742.5257 76.1953 744.1227 75.2169 746.3988 71.8495 746.3543 69.8458 749.1639 65.93 748.721 64.819 750.0546 61.8903 748.6682 59.3282 748.3454 56.6471 748.7805 53.6264 749.9238 52.0976 749.3091 46.6414 754.8164 30.525 757.3392 29.9506 758.6805 33.178 760.6775 33.7594 764.6879 30.403 768.7515 28.363 772.4797 30.0885 775.3502 32.435 781.6034 51.9488 782.4909 54.3134 782.3781 56.825 785.2848 57.7864 787.9858 57.1056 787.9537 59.3242 789.3804 61.0045 789.3782 63.1 791.5677 64.7513 793.3687 63.7197 795.4198 65.4826 798.4658 69.6149 796.244 73.7486 792.1998 76.8228 789.06 77.3484 788.704 80.5259 786.3202 81.9774 785.6144 80.3028 783.5142 80.8159 780.1485 83.53 781.2109 85.3284 777.9767 85.4934 776.2588 83.111 774.4891 84.7861 775.0056 87.1573 774.7905 92.2877 773.4737 94.884 771.5779 93.6034 770.8895 96.6173 768.5414 96.9438 767.552 100.4146 764.2678 98.8452 761.7454 102.7897 762.9142 105.2306 761.0708 106.4225 761.4049 108.9822 759.8488 110.4899 759.2088 115.5494 758.1336 116.0483 756.3685 113.4228 753.567 111.3331 752.8699 107.9618 742.5257 76.1953 Z"
      data-postal="ME" />
    <g class="me-1">
      <rect y="30" x="760" height="15" width="15" />
    </g>
    <g class="me-2">
      <rect y="30" x="778" height="15" width="15" />
    </g>
    <g class="me-3">
      <rect y="47" x="760" height="15" width="15" />
    </g>
    <g class="me-4">
      <rect y="47" x="778" height="15" width="15" />
    </g>
    <text>ME</text>
  </g>

</svg>
