<svg xmlns:dc="http://purl.org/dc/elements/1.1/" xmlns:cc="http://creativecommons.org/ns#" xmlns:rdf="http://www.w3.org/1999/02/22-rdf-syntax-ns#" xmlns:svg="http://www.w3.org/2000/svg" xmlns="http://www.w3.org/2000/svg" xmlns:sodipodi="http://sodipodi.sourceforge.net/DTD/sodipodi-0.dtd" xmlns:inkscape="http://www.inkscape.org/namespaces/inkscape" version="1.1" x="0px" y="0px" viewBox="0 0 100 125"><g transform="translate(0,-952.36218)"><path style="color:#000000;enable-background:accumulate;" d="M 27.09375,959.7372 13.5625,973.95595 C 26.570111,985.33682 11.5,996.05157 11.5,1009.456 c 0,9.9464 12.604048,30.5737 38.5,35.5312 25.895953,-4.9575 38.5,-25.5848 38.5,-35.5312 0,-13.40444 -15.101358,-24.11919 -2.09375,-35.50005 L 72.875,959.7372 c -6.09817,3.68327 -14.178225,6.09375 -22.875,6.09375 -8.696775,0 -16.808079,-2.41048 -22.90625,-6.09375 z M 50,983.08095 l 5.21875,14.21875 14.53125,0 -12.46875,8.125 5.21875,14.1875 -12.5,-8.125 -12.5,8.125 5.21875,-14.1875 -12.5,-8.125 14.5625,0 L 50,983.08095 z" fill="#000000" fill-opacity="1" stroke="none" marker="none" visibility="visible" display="inline" overflow="visible"/></g><text x="0" y="115" fill="#000000" font-size="5px" font-weight="bold" font-family="'Helvetica Neue', Helvetica, Arial-Unicode, Arial, Sans-serif">Created by Artdabana@Design</text><text x="0" y="120" fill="#000000" font-size="5px" font-weight="bold" font-family="'Helvetica Neue', Helvetica, Arial-Unicode, Arial, Sans-serif">from the Noun Project</text></svg>