<?xml version="1.0" encoding="utf-8"?>
<!-- Generator: Adobe Illustrator 19.1.0, SVG Export Plug-In . SVG Version: 6.00 Build 0)  -->
<!DOCTYPE svg PUBLIC "-//W3C//DTD SVG 1.1//EN" "http://www.w3.org/Graphics/SVG/1.1/DTD/svg11.dtd">
<svg version="1.1" id="Layer_1" xmlns="http://www.w3.org/2000/svg" xmlns:xlink="http://www.w3.org/1999/xlink" x="0px" y="0px"
	 viewBox="0 0 28.97 12.319" enable-background="new 0 0 28.97 12.319" xml:space="preserve">
<g>
	<path d="M1.083,0c1.32,5.178,2.572,5.72,5.99,5.72h2.539c3.012,0,4.23,1.387,4.874,3.52c0.745-2.268,1.861-3.52,4.874-3.52h2.538
		c3.418,0,4.67-0.542,5.99-5.72l1.083,0.237c-1.15,6.058-3.351,7.141-6.87,7.141h-2.674c-2.64,0-4.298,0.88-4.298,4.061v0.88h-1.286
		v-0.88c0-3.181-1.659-4.061-4.298-4.061H6.87c-3.52,0-5.719-1.083-6.87-7.141L1.083,0z"/>
</g>
</svg>
