<?xml version="1.0" encoding="utf-8"?>
<!-- Generator: Adobe Illustrator 17.1.0, SVG Export Plug-In . SVG Version: 6.00 Build 0)  -->
<!DOCTYPE svg PUBLIC "-//W3C//DTD SVG 1.1//EN" "http://www.w3.org/Graphics/SVG/1.1/DTD/svg11.dtd">
<svg version="1.1" id="Layer_1" xmlns="http://www.w3.org/2000/svg" xmlns:xlink="http://www.w3.org/1999/xlink" x="0px" y="0px"
	 viewBox="0 0 612 792" enable-background="new 0 0 612 792" xml:space="preserve">
<polygon fill="#232763" points="214.3,213.7 341.6,213.7 542.7,597 251.2,631.5 146.6,625.5 "/>
<g>
	<path fill="#FDC380" d="M85.2,466.8c0,6.6,5.4,12,12,12h5.3c6.6,0,12-5.4,12-12v-20c0-6.6-5.4-12-12-12h-5.3c-6.6,0-12,5.4-12,12
		V466.8z"/>
	<path fill="#FDC380" d="M123.6,461.1c0,2.4-1.9,4.3-4.3,4.3h-8c-2.4,0-4.3-1.9-4.3-4.3l0,0c0-2.4,1.9-4.3,4.3-4.3h8
		C121.6,456.8,123.6,458.7,123.6,461.1L123.6,461.1z"/>
</g>
<g>
	<path fill="#FDC380" d="M458.5,466.8c0,6.6,5.4,12,12,12h5.3c6.6,0,12-5.4,12-12v-20c0-6.6-5.4-12-12-12h-5.3c-6.6,0-12,5.4-12,12
		V466.8z"/>
	<path fill="#FDC380" d="M466.8,461.1c0,2.4-1.9,4.3-4.3,4.3h-8c-2.4,0-4.3-1.9-4.3-4.3l0,0c0-2.4,1.9-4.3,4.3-4.3h8
		C464.9,456.8,466.8,458.7,466.8,461.1L466.8,461.1z"/>
</g>
<path fill="#232763" d="M229.9,715.4c0,6.6-4.3,12-9.6,12h-16.8c-5.3,0-9.6-5.4-9.6-12v-83.9c0-6.6,4.3-12,9.6-12h16.8
	c5.3,0,9.6,5.4,9.6,12L229.9,715.4L229.9,715.4z"/>
<path fill="#232763" d="M371.7,715.4c0,6.6-4.3,12-9.6,12h-16.8c-5.3,0-9.6-5.4-9.6-12v-83.9c0-6.6,4.3-12,9.6-12h16.8
	c5.3,0,9.6,5.4,9.6,12V715.4z"/>
<path fill="#FDC380" d="M285.8,97.1c-27.1,0-49,24.9-49,55.7v65h98.1v-65C334.9,122,312.9,97.1,285.8,97.1z"/>
<path d="M372.8,456.8H193.9c0,0-4.3-118.2-9-157.3c-2.4-19.7-14.4-77.9-14.4-77.9s60.9-12.4,117.9-12.4c55.4,0,117.9,13,117.9,13
	s-18.2,50.7-21.5,68.3C377.1,331.4,372.8,456.8,372.8,456.8z"/>
<g>
	<path fill="none" stroke="#000000" stroke-width="30" stroke-miterlimit="10" d="M193.2,234.1c-76,0-93.3,76.7-93.3,216"/>
	<path fill="none" stroke="#000000" stroke-width="30" stroke-miterlimit="10" d="M379.8,234.1c76,0,93.3,76.7,93.3,216"/>
</g>
<g>
	<line fill="none" stroke="#000000" stroke-width="37" stroke-miterlimit="10" x1="211.7" y1="450.8" x2="211.7" y2="643.1"/>
	<line fill="none" stroke="#000000" stroke-width="37" stroke-miterlimit="10" x1="354.1" y1="450.8" x2="354.1" y2="643.1"/>
</g>
<path fill="none" stroke="#000000" stroke-width="3" stroke-miterlimit="10" d="M261,178.8c12.7,12,38.9,10.7,49.6,2"/>
<path d="M314.3,102.9c-8.1-6.8-18.2-10.8-29.1-10.8c-7.9,0-15.3,2.1-21.9,5.9c-2.4,1.4-4.8,3-7,4.8l-20.2-38.2v80.8l0,0
	c0,0.8,0,1.6,0,2.3v65h98.1v-65l1.2-83.2L314.3,102.9z M320.5,192.6c0,0-20.9,11.6-28.5,13.7c-3.8,1-12,0.9-15.8,0
	c-6.9-1.7-25.3-13-25.3-13v-35.8l34.8,12l34.8-12V192.6z"/>
<path fill="#FFFFFF" d="M309.6,145.2c0,3.5-2.8,6.3-6.3,6.3s-6.3-2.8-6.3-6.3s2.8-2.6,6.3-2.6S309.6,141.7,309.6,145.2z"/>
<path fill="#FFFFFF" d="M275.4,145.1c0,3.5-2.8,6.3-6.3,6.3s-6.3-2.8-6.3-6.3s2.8-2.2,6.3-2.2S275.4,141.6,275.4,145.1z"/>
<polygon fill="#F1EC6D" points="312.1,264 300,281.6 300,264 285.8,279 271.7,264 271.7,281.6 259.6,264 221.1,256.6 221.1,314.7 
	240.7,295.5 271.7,322.7 271.7,327.1 273.3,324.1 276.7,327.1 285.8,309.6 295,327.1 298.4,324.1 300,327.1 300,322.7 331,295.5 
	350.5,314.7 350.5,256.6 "/>
</svg>
