<?xml version="1.0" encoding="utf-8"?>
<!-- Generator: Adobe Illustrator 17.1.0, SVG Export Plug-In . SVG Version: 6.00 Build 0)  -->
<!DOCTYPE svg PUBLIC "-//W3C//DTD SVG 1.1//EN" "http://www.w3.org/Graphics/SVG/1.1/DTD/svg11.dtd">
<svg version="1.1" id="Layer_1" xmlns="http://www.w3.org/2000/svg" xmlns:xlink="http://www.w3.org/1999/xlink" x="0px" y="0px"
	 viewBox="0 0 612 792" enable-background="new 0 0 612 792" xml:space="preserve">
<path fill="#F04D24" d="M266.1,119.6c0-12.4-10.1-22.5-22.5-22.5c-11.8,0-21.5,9.1-22.4,20.7c-4.9,3-8.3,8.3-8.3,14.5
	c0,6.3,3.5,11.8,8.6,14.7c2,10.4,11.1,18.3,22.1,18.3c12.4,0,22.5-10.1,22.5-22.5c0-4.3-1.2-8.3-3.3-11.7
	C264.9,127.8,266.1,123.8,266.1,119.6z"/>
<g>
	<g>
		<path fill="#F04D24" d="M85.2,466.8c0,6.6,5.4,12,12,12h5.3c6.6,0,12-5.4,12-12v-20c0-6.6-5.4-12-12-12h-5.3c-6.6,0-12,5.4-12,12
			V466.8z"/>
		<path fill="#F04D24" d="M123.6,461.1c0,2.4-1.9,4.3-4.3,4.3h-8c-2.4,0-4.3-1.9-4.3-4.3l0,0c0-2.4,1.9-4.3,4.3-4.3h8
			C121.6,456.8,123.6,458.7,123.6,461.1L123.6,461.1z"/>
	</g>
	<g>
		<path fill="#F04D24" d="M458.5,466.8c0,6.6,5.4,12,12,12h5.3c6.6,0,12-5.4,12-12v-20c0-6.6-5.4-12-12-12h-5.3c-6.6,0-12,5.4-12,12
			V466.8z"/>
		<path fill="#F04D24" d="M466.8,461.1c0,2.4-1.9,4.3-4.3,4.3h-8c-2.4,0-4.3-1.9-4.3-4.3l0,0c0-2.4,1.9-4.3,4.3-4.3h8
			C464.9,456.8,466.8,458.7,466.8,461.1L466.8,461.1z"/>
	</g>
</g>
<path fill="#F04D24" d="M229.9,715.4c0,6.6-4.3,12-9.6,12h-16.8c-5.3,0-9.6-5.4-9.6-12v-83.9c0-6.6,4.3-12,9.6-12h16.8
	c5.3,0,9.6,5.4,9.6,12L229.9,715.4L229.9,715.4z"/>
<path fill="#F04D24" d="M371.7,715.4c0,6.6-4.3,12-9.6,12h-16.8c-5.3,0-9.6-5.4-9.6-12v-83.9c0-6.6,4.3-12,9.6-12h16.8
	c5.3,0,9.6,5.4,9.6,12V715.4z"/>
<path fill="#FDC380" d="M285.8,97.1c-27.1,0-49,24.9-49,55.7v65h98.1v-65C334.9,122,312.9,97.1,285.8,97.1z"/>
<g>
	<path fill="none" stroke="#000000" stroke-width="30" stroke-miterlimit="10" d="M193.2,234.1c-76,0-93.3,76.7-93.3,216"/>
	<path fill="none" stroke="#000000" stroke-width="30" stroke-miterlimit="10" d="M379.8,234.1c76,0,93.3,76.7,93.3,216"/>
</g>
<g>
	<line fill="none" stroke="#000000" stroke-width="37" stroke-miterlimit="10" x1="211.7" y1="450.8" x2="211.7" y2="643.1"/>
	<line fill="none" stroke="#000000" stroke-width="37" stroke-miterlimit="10" x1="354.1" y1="450.8" x2="354.1" y2="643.1"/>
</g>
<path fill="none" stroke="#000000" stroke-width="3" stroke-miterlimit="10" d="M250.6,178.8c12.7,12,38.9,10.7,49.6,2"/>
<path fill="#FFFFFF" d="M301.5,147.5c0,3.5-2.8,6.3-6.3,6.3s-6.3-2.8-6.3-6.3s2.8-2.6,6.3-2.6S301.5,144,301.5,147.5z"/>
<path fill="#FFFFFF" d="M260.9,145.3c0,3.5-2.8,6.3-6.3,6.3c-3.5,0-6.3-2.8-6.3-6.3s2.8-2.2,6.3-2.2
	C258.1,143.1,260.9,141.8,260.9,145.3z"/>
<circle fill="#F04D24" cx="262.8" cy="161.6" r="14.5"/>
<path d="M266.1,101.8L285.8,61l19.7,40.8c0,0-8.9-4.6-19.7-4.7C275.1,97,266.1,101.8,266.1,101.8z"/>
<path fill="#F04D24" d="M313.5,147.6c0,12.4,10.1,22.5,22.5,22.5c11.8,0,21.5-9.1,22.4-20.7c4.9-3,8.3-8.3,8.3-14.5
	c0-6.3-3.5-11.8-8.6-14.7c-2-10.4-11.1-18.3-22.1-18.3c-12.4,0-22.5,10.1-22.5,22.5c0,4.3,1.2,8.3,3.3,11.7
	C314.7,139.3,313.5,143.3,313.5,147.6z"/>
<path fill="#F04D24" d="M372.8,561H193.9c0,0-4.3-222.5-9-261.6c-2.4-19.7-14.4-77.9-14.4-77.9s60.9-12.4,117.9-12.4
	c55.4,0,117.9,13,117.9,13s-18.2,50.7-21.5,68.3C377.1,331.4,372.8,561,372.8,561z"/>
<circle cx="281.6" cy="339.5" r="15.5"/>
<circle cx="281.6" cy="249.6" r="15.5"/>
<circle cx="281.6" cy="434.8" r="15.5"/>
<polygon points="236.8,197.5 236.8,211.9 281.6,211.9 334.9,211.9 334.9,197.5 281.6,206.5 "/>
</svg>
