<?xml version="1.0" encoding="utf-8"?>
<!-- Generator: Adobe Illustrator 17.1.0, SVG Export Plug-In . SVG Version: 6.00 Build 0)  -->
<!DOCTYPE svg PUBLIC "-//W3C//DTD SVG 1.1//EN" "http://www.w3.org/Graphics/SVG/1.1/DTD/svg11.dtd">
<svg version="1.1" id="Layer_1" xmlns="http://www.w3.org/2000/svg" xmlns:xlink="http://www.w3.org/1999/xlink" x="0px" y="0px"
	 viewBox="0 0 612 792" enable-background="new 0 0 612 792" xml:space="preserve">
<ellipse fill="#D1499A" cx="311.1" cy="79.6" rx="24.8" ry="28"/>
<g>
	<path fill="#FDC380" d="M115.6,466.8c0,6.6-5.4,12-12,12h-5.3c-6.6,0-12-5.4-12-12v-20c0-6.6,5.4-12,12-12h5.3c6.6,0,12,5.4,12,12
		V466.8z"/>
	<path fill="#FDC380" d="M77.2,461.1c0,2.4,1.9,4.3,4.3,4.3h8c2.4,0,4.3-1.9,4.3-4.3l0,0c0-2.4-1.9-4.3-4.3-4.3h-8
		C79.2,456.8,77.2,458.7,77.2,461.1L77.2,461.1z"/>
</g>
<line fill="none" stroke="#A7A9AC" stroke-width="4" stroke-miterlimit="10" x1="36.7" y1="377.2" x2="107.2" y2="495"/>
<g>
	<g>
		
			<ellipse transform="matrix(-0.6402 -0.7682 0.7682 -0.6402 153.3941 507.418)" fill="#E7C1DB" cx="195.5" cy="217.8" rx="94.8" ry="39.7"/>
		
			<ellipse transform="matrix(-0.8497 0.5273 -0.5273 -0.8497 539.5034 447.953)" fill="#E7C1DB" cx="205.9" cy="300.9" rx="65.3" ry="27.3"/>
	</g>
	<g>
		<path fill="#E7C1DB" d="M300.5,290.5c-15.9-14,0.7-58,37.1-98.2s78.6-61.4,94.5-47.4c15.9,14-0.7,58-37.1,98.2
			S316.4,304.6,300.5,290.5z"/>
		
			<ellipse transform="matrix(-0.9283 -0.3717 0.3717 -0.9283 599.0052 715.9337)" fill="#E7C1DB" cx="368.5" cy="300.2" rx="65.3" ry="27.3"/>
	</g>
</g>
<g>
	<path fill="#FDC380" d="M458.5,466.8c0,6.6,5.4,12,12,12h5.3c6.6,0,12-5.4,12-12v-20c0-6.6-5.4-12-12-12h-5.3c-6.6,0-12,5.4-12,12
		V466.8z"/>
	<path fill="#FDC380" d="M466.8,461.1c0,2.4-1.9,4.3-4.3,4.3h-8c-2.4,0-4.3-1.9-4.3-4.3l0,0c0-2.4,1.9-4.3,4.3-4.3h8
		C464.9,456.8,466.8,458.7,466.8,461.1L466.8,461.1z"/>
</g>
<path fill="#D1499A" d="M229.9,715.4c0,6.6-4.3,12-9.6,12h-16.8c-5.3,0-9.6-5.4-9.6-12v-83.9c0-6.6,4.3-12,9.6-12h16.8
	c5.3,0,9.6,5.4,9.6,12L229.9,715.4L229.9,715.4z"/>
<path fill="#D1499A" d="M371.7,715.4c0,6.6-4.3,12-9.6,12h-16.8c-5.3,0-9.6-5.4-9.6-12v-83.9c0-6.6,4.3-12,9.6-12h16.8
	c5.3,0,9.6,5.4,9.6,12V715.4z"/>
<path fill="#FDC380" d="M285.8,97.1c-27.1,0-49,24.9-49,55.7v65h98.1v-65C334.9,122,312.9,97.1,285.8,97.1z"/>
<path fill="#D1499A" d="M298.4,80.7c-25.3-4.5-50,15.1-55.1,43.8c0,0,30-14,60.7-0.8c8.1,3.5,30.9,17.2,30.9,17.2
	C340,112.2,323.7,85.3,298.4,80.7z"/>
<g>
	<path fill="none" stroke="#D1499A" stroke-width="30" stroke-miterlimit="10" d="M193.2,234.1c-76,0-93.3,76.7-93.3,216"/>
	<path fill="none" stroke="#D1499A" stroke-width="30" stroke-miterlimit="10" d="M379.8,234.1c76,0,93.3,76.7,93.3,216"/>
</g>
<g>
	<line fill="none" stroke="#FDC380" stroke-width="39" stroke-miterlimit="10" x1="211.7" y1="450.8" x2="211.7" y2="643.1"/>
	<line fill="none" stroke="#FDC380" stroke-width="39" stroke-miterlimit="10" x1="354.1" y1="450.8" x2="354.1" y2="643.1"/>
</g>
<path fill="none" stroke="#000000" stroke-width="3" stroke-miterlimit="10" d="M243.6,174.4c12.7,12,38.9,10.7,49.6,2"/>
<path fill="#FFFFFF" d="M292.6,145.2c0,3.5-2.8,6.3-6.3,6.3s-6.3-2.8-6.3-6.3s2.8-2.6,6.3-2.6S292.6,141.7,292.6,145.2z"/>
<path fill="#FFFFFF" d="M258.4,145.1c0,3.5-2.8,6.3-6.3,6.3s-6.3-2.8-6.3-6.3s2.8-2.2,6.3-2.2S258.4,141.6,258.4,145.1z"/>
<path fill="none" stroke="#F68858" stroke-width="9" stroke-linecap="round" stroke-miterlimit="10" d="M264.3,162.7
	c-18.1,3-31.9-5.6-34.4-11.2"/>
<polygon fill="#D1499A" points="53.2,385.6 40.9,384.9 33.4,394.7 30.2,382.8 18.6,378.7 29,372 29.3,359.7 38.9,367.4 50.7,363.9 
	46.3,375.4 "/>
<path fill="#DF92BF" d="M372.8,456.8H193.9c0,0-4.3-118.2-9-157.3c-2.4-19.7-14.4-77.9-14.4-77.9s60.9-12.4,117.9-12.4
	c55.4,0,117.9,13,117.9,13s-18.2,50.7-21.5,68.3C377.1,331.4,372.8,456.8,372.8,456.8z"/>
<path fill="#D1499A" d="M192.2,415.9l-43,49.5c0,0,73.3,13.3,136,13.3c62,0,136-13.3,136-13.3l-46.7-49.5H192.2z"/>
<polygon fill="#FDC380" points="236.8,211.9 279.9,266.5 334.9,211.9 285.8,202 "/>
</svg>
