<?xml version="1.0" encoding="utf-8"?>
<!-- Generator: Adobe Illustrator 17.1.0, SVG Export Plug-In . SVG Version: 6.00 Build 0)  -->
<!DOCTYPE svg PUBLIC "-//W3C//DTD SVG 1.1//EN" "http://www.w3.org/Graphics/SVG/1.1/DTD/svg11.dtd">
<svg version="1.1" id="Layer_1" xmlns="http://www.w3.org/2000/svg" xmlns:xlink="http://www.w3.org/1999/xlink" x="0px" y="0px"
	 viewBox="0 0 612 792" enable-background="new 0 0 612 792" xml:space="preserve">
<polygon points="267.8,86.3 182.4,178.8 236.8,211.5 "/>
<g>
	<path fill="#FDC380" d="M85.2,466.8c0,6.6,5.4,12,12,12h5.3c6.6,0,12-5.4,12-12v-20c0-6.6-5.4-12-12-12h-5.3c-6.6,0-12,5.4-12,12
		V466.8z"/>
	<path fill="#FDC380" d="M123.6,461.1c0,2.4-1.9,4.3-4.3,4.3h-8c-2.4,0-4.3-1.9-4.3-4.3l0,0c0-2.4,1.9-4.3,4.3-4.3h8
		C121.6,456.8,123.6,458.7,123.6,461.1L123.6,461.1z"/>
</g>
<g>
	<path fill="#FDC380" d="M458.5,466.8c0,6.6,5.4,12,12,12h5.3c6.6,0,12-5.4,12-12v-20c0-6.6-5.4-12-12-12h-5.3c-6.6,0-12,5.4-12,12
		V466.8z"/>
	<path fill="#FDC380" d="M466.8,461.1c0,2.4-1.9,4.3-4.3,4.3h-8c-2.4,0-4.3-1.9-4.3-4.3l0,0c0-2.4,1.9-4.3,4.3-4.3h8
		C464.9,456.8,466.8,458.7,466.8,461.1L466.8,461.1z"/>
</g>
<path d="M229.9,715.4c0,6.6-4.3,12-9.6,12h-16.8c-5.3,0-9.6-5.4-9.6-12v-83.9c0-6.6,4.3-12,9.6-12h16.8c5.3,0,9.6,5.4,9.6,12
	L229.9,715.4L229.9,715.4z"/>
<path d="M372.7,715.4c0,6.6-4.3,12-9.6,12h-16.8c-5.3,0-9.6-5.4-9.6-12v-83.9c0-6.6,4.3-12,9.6-12h16.8c5.3,0,9.6,5.4,9.6,12V715.4z
	"/>
<path fill="#FDC380" d="M285.8,97.1c-27.1,0-49,24.9-49,55.7v65h98.1v-65C334.9,122,312.9,97.1,285.8,97.1z"/>
<path d="M372.8,639H193.9c0,0-4.3-207.9-9-247c-2.4-19.7-14.4-170.5-14.4-170.5s60.9-12.4,117.9-12.4c55.4,0,117.9,13,117.9,13
	s-18,143.3-21.4,160.9C377.1,424,372.8,639,372.8,639z"/>
<g>
	<path fill="none" stroke="#000000" stroke-width="30" stroke-miterlimit="10" d="M193.2,234.1c-76,0-93.3,76.7-93.3,216"/>
	<path fill="none" stroke="#000000" stroke-width="30" stroke-miterlimit="10" d="M379.8,234.1c76,0,93.3,76.7,93.3,216"/>
</g>
<g>
	<line fill="none" stroke="#000000" stroke-width="37" stroke-miterlimit="10" x1="211.7" y1="450.8" x2="211.7" y2="643.1"/>
	<line fill="none" stroke="#000000" stroke-width="37" stroke-miterlimit="10" x1="354.1" y1="450.8" x2="354.1" y2="643.1"/>
</g>
<path fill="none" stroke="#00A14B" stroke-width="3" stroke-miterlimit="10" d="M243,174.4c12.7,12,38.9,10.7,49.6,2"/>
<path fill="#FFFFFF" d="M288.5,143.9c0,3.5-2.8,6.3-6.3,6.3s-6.3-2.8-6.3-6.3s2.8-2.6,6.3-2.6S288.5,140.4,288.5,143.9z"/>
<path fill="#FFFFFF" d="M254.4,143.8c0,3.5-2.8,6.3-6.3,6.3s-6.3-2.8-6.3-6.3s2.8-2.2,6.3-2.2S254.4,140.3,254.4,143.8z"/>
<path fill="none" stroke="#F68858" stroke-width="9" stroke-linecap="round" stroke-miterlimit="10" d="M260.2,161.3
	c-18.1,3-31.9-5.6-34.4-11.2"/>
<path d="M297.3,80.7c-25.3-4.5-50,15.1-55.1,43.8c0,0,30-14,60.7-0.8c8.1,3.5,30.9,17.2,30.9,17.2C339,112.2,322.6,85.3,297.3,80.7z
	"/>
<path d="M313.4,118c0,0,18.3,93.5,18.4,93.5s56.6-28.4,56.6-28.4L303,83.3L313.4,118z"/>
<ellipse transform="matrix(3.619543e-02 -0.9993 0.9993 3.619543e-02 163.321 399.1341)" cx="288.6" cy="114.9" rx="17.2" ry="95.5"/>
<polygon points="243,107.4 305.4,10 329.8,110.5 "/>
<line fill="none" stroke="#754C29" stroke-width="10" stroke-linecap="round" stroke-miterlimit="10" x1="85.2" y1="217.8" x2="133.4" y2="727.4"/>
<ellipse transform="matrix(-0.1374 -0.9905 0.9905 -0.1374 -98.8666 302.3045)" fill="#754C29" cx="82.2" cy="194.2" rx="44" ry="47.5"/>
<polygon fill="#A97C50" points="128.4,183.1 35.2,200.7 15.4,122 119.4,102 "/>
</svg>
