<?xml version="1.0" encoding="utf-8"?>
<!-- Generator: Adobe Illustrator 17.1.0, SVG Export Plug-In . SVG Version: 6.00 Build 0)  -->
<!DOCTYPE svg PUBLIC "-//W3C//DTD SVG 1.1//EN" "http://www.w3.org/Graphics/SVG/1.1/DTD/svg11.dtd">
<svg version="1.1" id="Layer_1" xmlns="http://www.w3.org/2000/svg" xmlns:xlink="http://www.w3.org/1999/xlink" x="0px" y="0px"
	 viewBox="0 0 612 792" enable-background="new 0 0 612 792" xml:space="preserve">
<g>
	<path fill="#94A557" d="M51.2,281c0,6.6,5.4,12,12,12h5.3c6.6,0,12-5.4,12-12v-20c0-6.6-5.4-12-12-12h-5.3c-6.6,0-12,5.4-12,12V281
		z"/>
	<path fill="#94A557" d="M89.6,275.3c0,2.4-1.9,4.3-4.3,4.3h-8c-2.4,0-4.3-1.9-4.3-4.3l0,0c0-2.4,1.9-4.3,4.3-4.3h8
		C87.6,271,89.6,272.9,89.6,275.3L89.6,275.3z"/>
</g>
<g>
	<path fill="#94A557" d="M494.1,266c0,6.6,5.4,12,12,12h5.3c6.6,0,12-5.4,12-12v-20c0-6.6-5.4-12-12-12h-5.3c-6.6,0-12,5.4-12,12
		L494.1,266L494.1,266z"/>
	<path fill="#94A557" d="M502.5,260.3c0,2.4-1.9,4.3-4.3,4.3h-8c-2.4,0-4.3-1.9-4.3-4.3l0,0c0-2.4,1.9-4.3,4.3-4.3h8
		C500.5,256,502.5,257.9,502.5,260.3L502.5,260.3z"/>
</g>
<path fill="#94A557" d="M229.9,715.4c0,6.6-4.3,12-9.6,12h-16.8c-5.3,0-9.6-5.4-9.6-12v-83.9c0-6.6,4.3-12,9.6-12h16.8
	c5.3,0,9.6,5.4,9.6,12L229.9,715.4L229.9,715.4z"/>
<path fill="#94A557" d="M371.7,715.4c0,6.6-4.3,12-9.6,12h-16.8c-5.3,0-9.6-5.4-9.6-12v-83.9c0-6.6,4.3-12,9.6-12h16.8
	c5.3,0,9.6,5.4,9.6,12V715.4z"/>
<path fill="#94A557" d="M285.8,97.1c-27.1,0-49,24.9-49,55.7v65h98.1v-65C334.9,122,312.9,97.1,285.8,97.1z"/>
<g>
	<path fill="none" stroke="#808285" stroke-width="30" stroke-miterlimit="10" d="M193.2,234.1c-76,0-127.7-110.4-127.7,28.9"/>
	<path fill="none" stroke="#808285" stroke-width="30" stroke-miterlimit="10" d="M379.8,234.1c76,0,128.9-122.9,128.7,14.9"/>
</g>
<g>
	<polyline fill="none" stroke="#374268" stroke-width="37" stroke-miterlimit="10" points="211.7,450.8 245.5,546.8 211.9,562 
		211.7,683.6 	"/>
	<polyline fill="none" stroke="#374268" stroke-width="37" stroke-miterlimit="10" points="354.1,450.8 326.5,567.2 353.7,611 
		354.1,683.6 	"/>
</g>
<path fill="none" stroke="#4A6E33" stroke-width="3" stroke-miterlimit="10" d="M295.8,195.1c-13.4-11.1-39.6-8-49.6,1.3"/>
<path fill="#ED1C24" d="M294.8,155.9c0,3.5-2.8,6.3-6.3,6.3s-6.3-2.8-6.3-6.3s2.8-2.6,6.3-2.6S294.8,152.4,294.8,155.9z"/>
<path fill="#ED1C24" d="M260.7,155.8c0,3.5-2.8,6.3-6.3,6.3c-3.5,0-6.3-2.8-6.3-6.3s2.8-2.2,6.3-2.2
	C257.9,153.6,260.7,152.3,260.7,155.8z"/>
<path fill="none" stroke="#557B38" stroke-width="9" stroke-linecap="round" stroke-miterlimit="10" d="M266.5,173.3
	c-18.1,3-31.9-5.6-34.4-11.2"/>
<path fill="#808285" d="M372.8,456.8H193.9c0,0-4.3-118.2-9-157.3c-2.4-19.7-14.4-77.9-14.4-77.9s60.9-12.4,117.9-12.4
	c55.4,0,117.9,13,117.9,13s-18.2,50.7-21.5,68.3C377.1,331.4,372.8,456.8,372.8,456.8z"/>
<path fill="#F4A2B6" d="M311,104.2c2.8,1.5,2.6,6.3-0.5,8.5c-4.2,3-13.9,5.4-21.3,6.7c-5,0.9-18.4,3-21.9,1.1
	c-4.2-2.3-3.8-6.6-1.8-12.8c2.1-6.7,12.7-13.6,23.8-13.6S304.8,101,311,104.2z"/>
<path fill="none" stroke="#374268" stroke-width="37" stroke-miterlimit="10" d="M211.9,572"/>
</svg>
