<?xml version="1.0" encoding="utf-8"?>
<!-- Generator: Adobe Illustrator 18.1.1, SVG Export Plug-In . SVG Version: 6.00 Build 0)  -->
<!DOCTYPE svg PUBLIC "-//W3C//DTD SVG 1.1//EN" "http://www.w3.org/Graphics/SVG/1.1/DTD/svg11.dtd">
<svg version="1.1" id="Layer_1" xmlns="http://www.w3.org/2000/svg" xmlns:xlink="http://www.w3.org/1999/xlink" x="0px" y="0px"
	 viewBox="-749 401 100 100" enable-background="new -749 401 100 100" xml:space="preserve">
<g id="original">
	<path fill="#CCCCCC" d="M-686.5,452.3c-0.2-2.4-0.5-4.8-0.8-7.2c-0.1-0.7-0.2-1.5-0.3-2.3c-0.1-0.9-0.2-1.8-0.4-2.8
		c-0.1-0.4-0.2-0.9-0.3-1.4c0-0.6-0.1-1.3-0.2-2c0.6,0.4,1.2,0.8,1.8,1.2c0.5,0.5,1,1.1,1.5,1.7c0.4,0.6,0.8,1.3,1.2,2
		c0.3,0.8,0.6,1.7,1,2.6c0.3,1,0.7,2,1.1,3.1c0.2,1,0.5,2,0.8,3c0.1,0.6,0.2,1.3,0.3,2c0.1,0.7,0.2,1.4,0.3,2.1c0,0.7,0,1.4-0.1,2.1
		c0,0.2,0,0.5-0.1,0.8c-0.1,0.2-0.2,0.5-0.4,0.8h0.1c-0.2,0.4-0.3,1-0.3,1.4c0,2,1.7,3.6,3.6,3.6c1.9,0,3.5-1.6,3.5-3.5
		c0-0.9-0.1-1.6-0.6-2.3c0,0.1,0,0.2,0.1,0.3c-0.2-0.3-0.4-0.6-0.7-1c-0.1-0.2-0.2-0.4-0.3-0.6c0-0.4-0.1-0.8-0.2-1.3
		c0-0.4,0-0.9-0.1-1.4c0-1.3,0-2.6-0.1-4c0-0.8,0-1.6-0.1-2.5c-0.2-1.7-0.4-3.4-0.7-5.1c-0.2-1.4-0.5-2.8-0.8-4.2
		c-0.2-0.8-0.4-1.6-0.7-2.4c-0.3-1.1-0.6-2.2-1-3.3c-0.3-0.9-0.7-1.8-1.1-2.8c-0.2-0.7-0.5-1.4-0.8-2.2c-0.4-0.6-0.8-1.3-1.2-2
		c-0.3-0.4-0.7-0.9-1.1-1.4c-0.4-0.3-0.9-0.6-1.4-1c-0.4-0.2-0.9-0.5-1.4-0.8c-0.5-0.2-1-0.4-1.5-0.6c-0.7-0.2-1.4-0.4-2.1-0.6
		c-0.7-0.1-1.5-0.2-2.3-0.4c-0.5,0-1-0.1-1.5-0.2c-0.2-0.1-0.5-0.2-0.8-0.3c-0.1-0.2-0.2-0.4-0.3-0.6v-1.6c0-0.6,0-1.2,0.1-1.9
		c0,0-0.1,0.1-0.2,0.2c2.1-1.5,3.5-4,3.5-6.7c0-4.4-3.6-8-7.9-8c-4.2,0-7.8,3.6-7.8,8c0,2.6,1.3,5.1,3.4,6.6c0,0-0.1,0-0.2-0.1
		c0,1.2,0,2.4,0.1,3.6c0,0.1,0,0.3-0.1,0.5c-0.1,0-0.2,0.1-0.4,0.2c-0.4,0.1-0.8,0.2-1.3,0.3c-0.6,0.1-1.2,0.2-1.9,0.3
		c-0.6,0.1-1.2,0.3-1.9,0.5c-0.7,0.2-1.4,0.5-2.1,0.8c-0.5,0.3-1,0.6-1.6,0.9c-0.4,0.3-0.8,0.6-1.3,0.9c-0.1,0.1-0.3,0.3-0.5,0.5
		c-0.3,0.3-0.6,0.7-0.9,1.1c-0.3,0.5-0.6,1-0.9,1.5c-0.2,0.7-0.5,1.4-0.8,2.1c-0.3,0.9-0.7,1.8-1.1,2.8c-0.3,1.1-0.7,2.3-1.1,3.5
		c-0.3,1.2-0.6,2.4-1,3.6c-0.2,1.4-0.4,2.9-0.7,4.4c-0.1,0.9-0.2,1.9-0.4,2.9c0,0.9-0.1,1.8-0.2,2.7v6.6c-0.1,0.3-0.2,0.7-0.3,1.1
		c-0.2,0.4-0.5,0.8-0.8,1.3l0.1-0.1c-0.1,0.2-0.2,0.4-0.4,0.6c0,0.1-0.1,0.3-0.2,0.5c0,0.1,0,0.3-0.1,0.5c0,0.3,0,0.6-0.1,0.9v-0.1
		v0.1c0,1.8,1.6,3.3,3.5,3.3c1.9,0,3.6-1.5,3.6-3.3v-0.2v0.1v-0.6c0-0.1,0-0.2-0.1-0.3c0-0.1-0.1-0.3-0.2-0.5c0-0.1-0.1-0.3-0.2-0.5
		h-0.1c-0.1-0.3-0.2-0.6-0.3-0.9c0-0.6-0.1-1.3-0.2-2c0.1-0.8,0.2-1.6,0.3-2.5c0.1-1,0.3-2.1,0.5-3.2c0.4-1.3,0.8-2.6,1.2-4
		c0.3-0.8,0.7-1.6,1.1-2.5c0.2-0.5,0.4-1,0.6-1.5c0.5-0.8,1-1.7,1.6-2.6c0.5-0.5,1-1,1.6-1.5c0.3-0.2,0.6-0.4,0.9-0.6
		c-0.4,3.2-0.8,6.5-1.2,9.8c-0.2,3.1-0.5,6.3-0.8,9.5c0,2.9-0.1,5.8-0.2,8.8c-0.1,3.7-0.2,7.5-0.3,11.3c-0.1,3.4-0.2,6.8-0.4,10.3
		c0,1.7-0.1,3.4-0.2,5.1c-0.1,0.4-0.2,0.9-0.3,1.4c-0.3,0.4-0.6,0.8-1,1.2c-0.8,0.6-1.7,1.2-2.6,1.8c-0.7,0.6-1.5,1.3-2.3,2
		c-0.2,0.1-0.4,0.3-0.6,0.5c-0.1,0.3-0.2,0.7-0.4,1.1c0.2,0.4,0.4,0.8,0.6,1.2c0.3,0.1,0.6,0.3,1,0.5c0.3,0,0.7,0,1.1,0.1
		c3.7-0.8,7.4-1.6,11.2-2.5c0.2-0.1,0.4-0.2,0.6-0.3c0.1-0.2,0.2-0.4,0.4-0.7c0-0.3,0-0.6,0.1-1c0.2-1.6,0.4-3.3,0.6-5
		c0.2-2,0.5-4,0.8-6.1c0.5-3,1-6,1.5-9.1c0.6-2.7,1.2-5.4,1.8-8.2c0-0.5,0.1-1,0.2-1.5c0.1-0.3,0.3-0.6,0.5-1
		c0.1-0.2,0.2-0.4,0.4-0.6c0.1,0,0.3-0.1,0.5-0.2c0.2,0.1,0.4,0.2,0.7,0.3c0.4,1.8,0.9,3.6,1.4,5.4c0.3,1.3,0.6,2.6,1,3.9
		c0.2,1.5,0.5,3.1,0.8,4.7c0.5,3.2,1,6.4,1.6,9.6c0.2,2,0.5,4.1,0.8,6.2c0,0.6,0,1.2,0.1,1.9c0,0.2,0.1,0.4,0.2,0.7
		c0.2,0.2,0.4,0.5,0.6,0.8c0.5,0.1,1,0.2,1.5,0.3c3,0.7,6,1.4,9.1,2.1c0.5,0,1,0.1,1.6,0.2c0.4-0.1,0.8-0.2,1.3-0.3
		c0.2-0.2,0.4-0.4,0.7-0.7c0-0.2,0.1-0.5,0.2-0.8c0-0.3,0-0.6-0.1-0.9c-0.3-0.3-0.6-0.6-0.9-0.9c-1.9-1.5-3.8-3-5.8-4.5
		c-0.1-0.3-0.2-0.6-0.4-1c0-0.6-0.1-1.2-0.2-1.8c-0.1-2.3-0.2-4.6-0.3-7c-0.1-2.9-0.2-5.8-0.4-8.7c-0.1-3-0.2-6-0.3-9
		c-0.1-2.6-0.2-5.3-0.3-8c-0.1-1.8-0.2-3.6-0.4-5.5C-686.6,452-686.6,452.1-686.5,452.3"/>
</g>
<g id="leg" display="none">
	<path display="inline" fill="#17807E" d="M-712.5,475.9c-0.1,3.4-0.2,6.8-0.4,10.3c0,1.7-0.1,3.4-0.2,5.1c-0.1,0.4-0.2,0.9-0.3,1.4
		c-0.3,0.4-0.6,0.8-1,1.2c-0.8,0.6-1.7,1.2-2.6,1.8c-0.7,0.6-1.5,1.3-2.3,2c-0.2,0.1-0.4,0.3-0.6,0.5c-0.1,0.3-0.2,0.7-0.4,1.1
		c0.2,0.4,0.4,0.8,0.6,1.2c0.3,0.1,0.6,0.3,1,0.5c0.3,0,0.7,0,1.1,0.1c3.7-0.8,7.4-1.6,11.2-2.5c0.2-0.1,0.4-0.2,0.6-0.3
		c0.1-0.2,0.2-0.4,0.4-0.7c0-0.3,0-0.6,0.1-1c0.2-1.6,0.4-3.3,0.6-5c0.2-2,0.5-4,0.8-6.1c0.5-3,1-6,1.5-9.1c0.6-2.7,1.2-5.4,1.8-8.2
		c0-0.5,0.1-1,0.2-1.5c0.1-0.3,0.3-0.6,0.5-1c0.1-0.2,0.2-0.4,0.4-0.6l-12.7-0.5C-712.3,468.3-712.4,472.1-712.5,475.9z"/>
</g>
<path id="arm" fill="#17807E" d="M-713.1,422.5c-0.4,0.3-0.8,0.6-1.3,0.9c-0.1,0.1-0.3,0.3-0.5,0.5c-0.3,0.3-0.6,0.7-0.9,1.1
	c-0.3,0.5-0.6,1-0.9,1.5c-0.2,0.7-0.5,1.4-0.8,2.1c-0.3,0.9-0.7,1.8-1.1,2.8c-0.3,1.1-0.7,2.3-1.1,3.5c-0.3,1.2-0.6,2.4-1,3.6
	c-0.2,1.4-0.4,2.9-0.7,4.4c-0.1,0.9-0.2,1.9-0.4,2.9c0,0.9-0.1,1.8-0.2,2.7v6.6c-0.1,0.3-0.2,0.7-0.3,1.1c-0.2,0.4-0.5,0.8-0.8,1.3
	l0.1-0.1c-0.1,0.2-0.2,0.4-0.4,0.6c0,0.1-0.1,0.3-0.2,0.5c0,0.1,0,0.3-0.1,0.5c0,0.3,0,0.6-0.1,0.9c0,1.8,1.6,3.3,3.5,3.3
	c1.9,0,3.6-1.5,3.6-3.3v-0.1v-0.1v-0.5c0-0.1,0-0.2-0.1-0.3c0-0.1-0.1-0.3-0.2-0.5c0-0.1-0.1-0.3-0.2-0.5h-0.1
	c-0.1-0.3-0.2-0.6-0.3-0.9c0-0.6-0.1-1.3-0.2-2c0.1-0.8,0.2-1.6,0.3-2.5c0.1-1,0.3-2.1,0.5-3.2c0.4-1.3,0.8-2.6,1.2-4
	c0.3-0.8,0.7-1.6,1.1-2.5c0.2-0.5,0.4-1,0.6-1.5c0.5-0.8,1-1.7,1.6-2.6c0.5-0.5,1-1,1.6-1.5c0.3-0.2,0.6-0.4,0.9-0.6l0.6-15.8
	c-0.7,0.2-1.4,0.5-2.1,0.8C-712,421.9-712.5,422.2-713.1,422.5z"/>
<path id="head" display="none" fill="#17807E" d="M-694.6,419.5c-0.1-0.2-0.2-0.4-0.3-0.6v-1.6c0-0.6,0-1.2,0.1-1.9
	c2-1.5,3.3-3.9,3.3-6.5c0-4.4-3.6-8-7.9-8c-4.2,0-7.8,3.6-7.8,8c0,2.6,1.3,5.1,3.4,6.6c0,0-0.1,0-0.2-0.1c0,1.2,0,2.4,0.1,3.6
	c0,0.1,0,0.3-0.1,0.5C-703.9,419.5-700,422.2-694.6,419.5z"/>
<path id="trunk" display="none" fill="#17807E" d="M-686.2,457.4c-0.1-1.7-0.2-3.5-0.4-5.3c0,0.1,0,0.1,0.1,0.2
	c-0.2-2.4-0.5-4.8-0.8-7.2l-0.7-5.3c-0.1-0.4-0.2-0.8-0.2-1.2c0-0.6-0.1-1.3-0.2-2l-1.5-16.3c-0.7-0.1-1.5-0.2-2.3-0.4
	c-0.5,0-1-0.1-1.5-0.2c-0.2-0.1-0.5-0.2-0.8-0.3c-5.3,2.8-9.4,0-9.4,0c-0.1,0-0.2,0.1-0.4,0.2c-0.4,0.1-0.8,0.2-1.3,0.3
	c-0.6,0.1-1.2,0.2-1.9,0.3c-0.6,0.1-1.2,0.3-1.9,0.5l-0.6,15.8l-1,8.4c-0.1,0.4-0.1,0.9-0.2,1.3c-0.2,3.1-0.5,6.3-0.8,9.5
	c0,2.9-0.1,5.8-0.2,8.8c0,0,0,0.1,0,0.1l12.7,0.4c0.1,0,0.3-0.1,0.5-0.2c0.2,0.1,0.4,0.2,0.7,0.3l12.4-0.7
	C-686,462.2-686.1,459.8-686.2,457.4z"/>
</svg>
