<?xml version="1.0" encoding="utf-8"?>
<!-- Generator: Adobe Illustrator 23.0.4, SVG Export Plug-In . SVG Version: 6.00 Build 0)  -->
<svg version="1.1" id="Layer_1" xmlns="http://www.w3.org/2000/svg" xmlns:xlink="http://www.w3.org/1999/xlink" x="0px" y="0px"
	 viewBox="0 0 100 100" style="enable-background:new 0 0 100 100;" xml:space="preserve">
<g>
	<g>
		<g>
			<path d="M50,84.9c-1.9,0-3.5-1.6-3.5-3.5v-28c0-1.9,1.6-3.5,3.5-3.5s3.5,1.6,3.5,3.5v28C53.5,83.4,51.9,84.9,50,84.9z"/>
		</g>
		<g>
			<path d="M28.5,91.4c-1.7,0-3.1-1.2-3.4-2.9c-0.3-1.9,0.9-3.7,2.8-4l21.5-3.7c0.4-0.1,0.8-0.1,1.1,0l22.7,3.7
				c1.9,0.3,3.2,2.1,2.9,4c-0.3,1.9-2.1,3.2-4,2.9L50,87.7l-20.9,3.6C28.9,91.4,28.7,91.4,28.5,91.4z"/>
		</g>
		<g>
			<path d="M84.5,56.8h-69c-1.1,0-2.1-0.5-2.8-1.4s-0.9-2-0.6-3l12.4-41.3c0.4-1.4,1.8-2.4,3.3-2.4h44.2c1.5,0,2.9,1,3.3,2.4
				l12.4,41.3c0.3,1,0.1,2.2-0.6,3C86.6,56.3,85.6,56.8,84.5,56.8z M20.1,49.9h59.7L69.5,15.5H30.4L20.1,49.9z"/>
		</g>
		<g>
			<path d="M68.6,56.8c-1.6,0-3-1.1-3.4-2.8l-8.1-40.5c-0.4-1.9,0.8-3.7,2.7-4.1c1.9-0.4,3.7,0.8,4.1,2.7L72,52.7
				c0.4,1.9-0.8,3.7-2.7,4.1C69,56.8,68.8,56.8,68.6,56.8z"/>
		</g>
		<g>
			<path d="M31.1,56.8c-0.2,0-0.4,0-0.7-0.1c-1.9-0.4-3.1-2.2-2.7-4.1l8.1-40.5c0.4-1.9,2.2-3.1,4.1-2.7c1.9,0.4,3.1,2.2,2.7,4.1
				L34.5,54C34.2,55.7,32.7,56.8,31.1,56.8z"/>
		</g>
		<g>
			<path d="M50,54c-1.9,0-3.5-1.6-3.5-3.4V12.9c0-1.9,1.6-3.4,3.5-3.4s3.5,1.6,3.5,3.4v37.7C53.5,52.5,51.9,54,50,54z"/>
		</g>
		<g>
			<path d="M75.8,67.9c-1.9,0-3.4-1.6-3.4-3.4V53.4c0-1.9,1.6-3.4,3.4-3.4s3.4,1.6,3.4,3.4v11.1C79.3,66.3,77.7,67.9,75.8,67.9z"/>
		</g>
	</g>
</g>
</svg>
