<?xml version="1.0" encoding="utf-8"?>
<!-- Generator: Adobe Illustrator 23.0.4, SVG Export Plug-In . SVG Version: 6.00 Build 0)  -->
<svg version="1.1" id="Layer_1" xmlns="http://www.w3.org/2000/svg" xmlns:xlink="http://www.w3.org/1999/xlink" x="0px" y="0px"
	 viewBox="0 0 100 100" style="enable-background:new 0 0 100 100;" xml:space="preserve">
<path d="M47.4,64.2V53.9C24.3,53.5,6.1,48.1,6.1,39.7V26.7l0,0C6.1,18,25.6,12.5,50,12.5S93.9,18,93.9,26.7v12.9
	c0,8.4-18.2,13.8-41.3,14.2v10.3h3c1.2-4.5,5.2-7.8,9.9-7.8c5.7,0,10.3,4.7,10.3,10.3c0,1.8-0.5,3.6-1.4,5.2
	c0.9,1.6,1.4,3.4,1.4,5.2c0,5.7-4.7,10.3-10.3,10.3c-4.8,0-8.9-3.2-9.9-7.8h-11c-1.2,4.5-5.2,7.8-9.9,7.8c-5.7,0-10.3-4.7-10.3-10.3
	c0-1.8,0.5-3.6,1.4-5.2c-0.9-1.6-1.4-3.4-1.4-5.2c0-5.7,4.7-10.3,10.3-10.3c4.8,0,8.9,3.2,9.9,7.8H47.4z M50,25.5
	c13.7,0,26.2,1.8,34.4,4.9c3-1.4,4.4-2.7,4.4-3.6c0-0.5-0.6-1.4-2.1-2.3c-1.8-1.2-4.7-2.3-8.1-3.4c-7.5-2.2-17.7-3.4-28.6-3.4
	s-21.1,1.2-28.6,3.4c-3.5,1-6.3,2.2-8.1,3.4c-1.4,0.9-2.1,1.8-2.1,2.3c0,0.9,1.4,2.3,4.4,3.6C23.8,27.3,36.3,25.5,50,25.5z
	 M75.7,33.2c-7-1.7-16-2.6-25.7-2.6s-18.6,0.9-25.7,2.6c7,1.7,16,2.6,25.7,2.6S68.6,34.9,75.7,33.2z M39.7,77.1
	c0-1.4,1.2-2.6,2.6-2.6h15.5c1.4,0,2.6,1.2,2.6,2.6c0,2.8,2.3,5.2,5.2,5.2c2.8,0,5.2-2.3,5.2-5.2c0-1.3-0.5-2.5-1.3-3.5
	c-0.9-1-0.9-2.5,0-3.5c0.9-0.9,1.3-2.2,1.3-3.5c0-2.8-2.3-5.2-5.2-5.2c-2.8,0-5.2,2.3-5.2,5.2c0,1.4-1.2,2.6-2.6,2.6H42.2
	c-1.4,0-2.6-1.2-2.6-2.6c0-2.8-2.3-5.2-5.2-5.2s-5.2,2.3-5.2,5.2c0,1.3,0.5,2.5,1.3,3.5c0.9,1,0.9,2.5,0,3.5
	c-0.9,0.9-1.3,2.2-1.3,3.5c0,2.8,2.3,5.2,5.2,5.2S39.7,80,39.7,77.1z M85.4,35.5C77.4,38.9,64.3,41,50,41s-27.4-2.1-35.4-5.4
	c-1.3-0.5-2.3-1-3.4-1.7v5.8c0,0.5,0.6,1.4,2.1,2.3c1.8,1.2,4.7,2.3,8.1,3.4c7.5,2.2,17.7,3.4,28.6,3.4s21.1-1.2,28.6-3.4
	c3.5-1,6.3-2.2,8.1-3.4c1.6-1,2.1-1.8,2.1-2.3v-5.8C87.7,34.5,86.7,35,85.4,35.5z"/>
</svg>
