<?xml version="1.0" encoding="utf-8"?>
<!-- Generator: Adobe Illustrator 23.0.4, SVG Export Plug-In . SVG Version: 6.00 Build 0)  -->
<svg version="1.1" id="Layer_1" xmlns="http://www.w3.org/2000/svg" xmlns:xlink="http://www.w3.org/1999/xlink" x="0px" y="0px"
	 viewBox="0 0 100 100" style="enable-background:new 0 0 100 100;" xml:space="preserve">
<g>
	<path d="M93.8,28.5L60.5,13.4c-0.8-0.4-1.7-0.3-2.4,0.2C57.4,14,57,14.8,57,15.7v19.4L28.8,6.9c-1-1-2.6-1-3.6,0c-1,1-1,2.6,0,3.6
		l28.2,28.2H14.2l-4.8-4.8c-1-1-2.6-1-3.6,0c-1,1-1,2.6,0,3.6l4.8,4.8V86c0,4.1,3.4,7.5,7.5,7.5s7.5-3.4,7.5-7.5v-7.8l8.5,11.6
		c1.4,1.9,3.7,3.1,6.1,3.1c1.6,0,3.1-0.5,4.4-1.4C48,89,48.7,84.3,46.3,81l-6.7-9.1h15.9v13.5c0,4.1,3.4,7.5,7.5,7.5
		c4.1,0,7.5-3.4,7.5-7.5V71.5c3.9-1.1,6.8-4.7,6.8-9V43.7h8.2c0.8,0,1.6-0.4,2.1-1.1l7.2-10.4c0.4-0.6,0.6-1.4,0.4-2.1
		C95,29.4,94.5,28.8,93.8,28.5z M68,66.9c-1.4,0-2.5,1.1-2.5,2.5v16.1c0,1.4-1.1,2.5-2.5,2.5c-1.4,0-2.5-1.1-2.5-2.5V69.4
		c0-1.4-1.1-2.5-2.5-2.5H34.6c-0.9,0-1.8,0.5-2.2,1.4c-0.4,0.8-0.3,1.9,0.2,2.6L42.2,84c0.8,1.1,0.6,2.7-0.5,3.5
		c-1.1,0.8-2.7,0.5-3.5-0.5l-13-17.8c-0.6-0.9-1.8-1.2-2.8-0.9c-1,0.3-1.7,1.3-1.7,2.4V86c0,1.4-1.1,2.5-2.5,2.5s-2.5-1.1-2.5-2.5
		V43.7h42.8l13.8,13.8c0,0,0.1,0.1,0.1,0.1v5C72.3,64.9,70.4,66.9,68,66.9z M72.3,50.4l-6.8-6.8h6.8V50.4z M84.2,38.6h-9.4
		c0,0,0,0,0,0H62V19.6l27,12.3L84.2,38.6z"/>
</g>
</svg>
