<?xml version="1.0" encoding="utf-8"?>
<!-- Generator: Adobe Illustrator 23.0.4, SVG Export Plug-In . SVG Version: 6.00 Build 0)  -->
<svg version="1.1" id="Layer_1" xmlns="http://www.w3.org/2000/svg" xmlns:xlink="http://www.w3.org/1999/xlink" x="0px" y="0px"
	 viewBox="0 0 100 100" style="enable-background:new 0 0 100 100;" xml:space="preserve">
<g>
	<path d="M50.7,65.6c2.3-0.3,4.5-0.8,6.7-1.5c0.1,0.1,0.2,0.3,0.3,0.4c4.6,5.3,12.9,5.6,17.8,0.5c2.6-2.8,3.5-6.5,4.7-10.1
		c1.1-3.5,2.3-7,3-10.6c1.7-2.6,3.1-5.3,4.2-8.1c3.4-8.4,3.5-17.5,3.7-26.4c0-0.6,0-2.3-1.7-2.6C84.3,6.1,79.1,5.9,73.8,6
		c-6.2,0.1-12.5,1.5-18.2,4.3c0,0,0,0-0.1,0c-8.2,1.3-17.4,3.8-24.4,8.4c-2.8,1.9-5.3,4.5-5,8.1s3,7.1,5.7,9.4c-2.2,5.8-3,12-3,18.2
		c0,2.2,0.1,4.4,0.2,6.6c-8.6-1-17-2.3-25,2.2c-1.3,0.8-1.1,3,0.4,3.4c5.7,1.2,12,3.2,16.3,7.4c4.4,4.2,6.2,10.2,7.3,16.1
		c0.4,1.9,2.8,1.8,3.7,0.5c2.4-3.6,3-7.4,2.9-11.6c-0.1-4.5-0.5-9-0.8-13.5C39.6,65.8,45.1,66.3,50.7,65.6z M30.4,82
		c-1.4-4.1-3.4-8-6.6-11.1c-3.6-3.4-8-5.3-12.7-6.7c5.9-1.5,12.2-0.4,18.3,0.4c0.2,2.2,0.3,4.3,0.5,6.5C30.1,74.6,30.7,78.4,30.4,82
		z M75.2,58.2c-2.3,5.6-8.9,8.3-13.5,4.3c6-2.6,11.5-6.6,16.1-11.4C76.9,53.5,76.1,55.9,75.2,58.2z M72.4,10.2
		c4.5-0.5,8.9-0.2,13.4-0.2c-0.1,7.3-0.2,14.7-2.2,21.9c-0.4,1.3-0.8,2.5-1.3,3.8c-0.1,0.2-0.9,0.4-1.3,0.4
		c-5.8-0.1-11.9-4.2-15.9-8.2c-4.1-4-5.3-8.9-6.2-14.2C63.1,11.8,67.7,10.7,72.4,10.2z M30.9,24.6c1.2-2.5,5.3-4.1,7.7-5.2
		c2.3-1,4.7-1.8,7.1-2.6c-4.8,4.3-9,9.5-11.9,15.1C31.8,30,29.8,27.1,30.9,24.6z M33.8,61.3c-0.5-6.9-0.5-14.1,1.4-20.8
		c2.5-8.4,8.3-16.1,15-21.6c1.6-1.3,3.2-2.5,5-3.4c-0.8,12.4,12.3,24.4,24.1,25.8c-2.8,4.7-6.5,8.8-10.7,12.2
		c-5.9,4.8-13.2,7.7-20.7,8.3C43.2,62.2,38.5,61.8,33.8,61.3z"/>
	<path d="M73.9,22c1.4,0.1,2.4-1.2,2.6-2.6c0.2-1.5-0.3-2.5-0.8-2.8c-0.6-0.5-1.2-0.5-1.9-0.4c-1.4,0.2-2.6,1.6-2.6,3
		C71.2,20.8,72.4,22,73.9,22z"/>
	<path d="M51.4,51.2c5.3,2.7,10.2-1.7,11.2-6.8c0.8-3.9-5.3-4.7-5.4-0.7c0,2-0.9,5.2-3.7,4c-2.4-1-1.3-3.6,0.2-4.9
		c2-1.7-0.5-5.4-2.6-3.7c-0.2,0.1-0.3,0.3-0.4,0.4l0,0c-0.6,0.7-3,1.7-3.8,1c-1.1-0.9,0.9-2.7,1.4-3.2c1.2-1,2.6-1.5,3.9-2.3
		c1.2-0.7,0.7-2.6-0.7-2.6c-4,0-9.5,3.5-8.6,8.1c0.6,2.9,2.7,4,5.1,4.1C47.6,47.1,48.6,49.8,51.4,51.2z"/>
</g>
</svg>
