<?xml version="1.0" encoding="utf-8"?>
<!-- Generator: Adobe Illustrator 23.0.4, SVG Export Plug-In . SVG Version: 6.00 Build 0)  -->
<svg version="1.1" id="Layer_1" xmlns="http://www.w3.org/2000/svg" xmlns:xlink="http://www.w3.org/1999/xlink" x="0px" y="0px"
	 viewBox="0 0 100 100" style="enable-background:new 0 0 100 100;" xml:space="preserve">
<path d="M51.1,64.3c-0.5,0-1-0.2-1.4-0.6L36.1,50.1c-0.4-0.4-0.6-0.9-0.6-1.4s0.2-1,0.6-1.4L73.6,9.7c0.8-0.8,2-0.8,2.8,0l13.7,13.7
	c0.4,0.4,0.6,0.9,0.6,1.4c0,0.5-0.2,1-0.6,1.4L52.6,63.7C52.2,64.1,51.7,64.3,51.1,64.3z M40.3,48.7l10.8,10.8l34.8-34.8L75.1,13.9
	C75.1,13.9,40.3,48.7,40.3,48.7z"/>
<path d="M52.9,48.9c-0.5,0-1-0.2-1.4-0.6c-0.8-0.8-0.8-2,0-2.8L71.9,25c0.8-0.8,2-0.8,2.8,0c0.8,0.8,0.8,2.1,0,2.8L54.3,48.4
	C53.9,48.7,53.4,48.9,52.9,48.9z"/>
<path d="M22.1,79.7c-0.5,0-1-0.2-1.4-0.6c-0.8-0.8-0.8-2.1,0-2.8l20.5-20.5c0.8-0.8,2-0.8,2.8,0s0.8,2.1,0,2.8L23.5,79.1
	C23.1,79.5,22.6,79.7,22.1,79.7z"/>
<path d="M12.1,93.6c-0.5,0-1-0.2-1.4-0.6L7,89.4c-0.6-0.6-0.8-1.5-0.4-2.3l6.8-13.7c0.3-0.6,0.8-1,1.5-1.1c0.6-0.1,1.3,0.1,1.7,0.6
	l10.3,10.2c0.4,0.4,0.7,1.1,0.6,1.7c-0.1,0.6-0.5,1.2-1,1.5l-13.4,7.1C12.8,93.6,12.5,93.6,12.1,93.6z M10.9,87.5l1.6,1.6l9.7-5.2
	l-6.4-6.4C15.8,77.7,10.9,87.5,10.9,87.5z"/>
<path d="M88.7,26.7c-0.5,0-1-0.2-1.4-0.6c-0.8-0.8-0.8-2,0-2.8c1.4-1.4,2.2-3.4,2.2-5.4s-0.8-4-2.2-5.4c-2.9-2.9-7.9-2.9-10.8,0
	c-0.8,0.8-2.1,0.8-2.8,0c-0.8-0.8-0.8-2.1,0-2.8c4.4-4.4,12.1-4.4,16.5,0c2.2,2.2,3.4,5.1,3.4,8.2c0,3.1-1.2,6-3.4,8.2
	C89.7,26.5,89.2,26.7,88.7,26.7z"/>
</svg>
