<?xml version="1.0" encoding="utf-8"?>
<!-- Generator: Adobe Illustrator 23.0.4, SVG Export Plug-In . SVG Version: 6.00 Build 0)  -->
<svg version="1.1" id="Layer_1" xmlns="http://www.w3.org/2000/svg" xmlns:xlink="http://www.w3.org/1999/xlink" x="0px" y="0px"
	 viewBox="0 0 100 100" style="enable-background:new 0 0 100 100;" xml:space="preserve">
<style type="text/css">
	.st0{fill:none;}
</style>
<g>
	<path class="st0" d="M72.8,69.8c4.4-9.3,0.3-19-2.5-23.9c0,0,0,0,0,0c-3.4-5.9-8-10.8-12.8-15.9c-1.9-2-3.8-4.1-5.7-6.2
		c-0.1-0.1-0.2-0.3-0.3-0.4c0,0-0.1-0.1-0.1-0.1c-0.4-0.5-0.8-0.9-1.2-1.3c-0.3,0.6-0.7,1.2-1,1.8c0,0,0,0,0,0c-0.3,0.5-0.6,1-1,1.5
		c-2.3,3.6-5.1,6.9-7.9,10c-2.8,3.2-5.6,6.5-8.1,10.3c-3,4.6-7.6,13.7-4.4,22.9c0.9,2.6,2.5,5.1,4.7,7.2c4.3,4.3,10.2,6.9,16.3,7.2
		c6.8,0.3,13.9-2.2,19-6.8C70.1,74.2,71.7,72,72.8,69.8z"/>
	<path class="st0" d="M22.6,70.4c-3-8.5-1.2-18.4,4.9-27.8c1-1.6,2.1-3.1,3.2-4.5c-1.1,0.6-2.3,1.3-3.4,1.9L26,40.6
		c-4.9,2.7-10,5.7-13,10.3c-2.4,3.7-3.1,8.6-1.8,13.5c1.3,4.8,4.3,8.8,8.2,10.8c2.8,1.5,4.5,2,6.7,1.9
		C24.6,74.9,23.4,72.7,22.6,70.4z"/>
	<path class="st0" d="M73.9,40.6l-0.5-0.2c0.6,0.9,1.2,1.8,1.7,2.7c5.8,10.2,6.8,20.5,2.7,29.1c-0.8,1.7-1.8,3.2-3,4.8
		c1.8-0.1,3.4-0.6,5.6-1.8c4-2,7-6,8.2-10.8c1.3-4.8,0.6-9.7-1.8-13.5C83.9,46.3,78.9,43.3,73.9,40.6z"/>
	<path d="M91.7,47.8c-3.7-5.7-9.7-9.3-15-12.2l-1.3-0.7c-4.9-2.6-9.4-5.1-12.8-8.9c-3.2-3.6-4.6-8.3-3.6-12c0.4-1.5-0.4-3-1.9-3.4
		c-1.4-0.5-3,0.3-3.5,1.7c-0.4,1.2-0.8,2.3-1.2,3.4c-0.2-0.3-0.4-0.5-0.6-0.8c-0.6-0.8-1.6-1.3-2.7-1.1c-0.7,0.1-1.4,0.5-1.8,1
		c-0.3-0.8-0.6-1.6-0.9-2.5c-0.5-1.4-2.1-2.2-3.5-1.7c-1.4,0.5-2.2,2-1.9,3.4c1,3.7-0.4,8.4-3.6,12c-3.3,3.8-7.9,6.3-12.8,8.9
		l-1.3,0.7C18,38.5,12,42.1,8.3,47.8c-3.3,5.1-4.2,11.6-2.5,18c1.7,6.4,5.7,11.6,11.1,14.4c3.5,1.8,5.9,2.5,8.6,2.5
		c1.7,0,3.4-0.3,5.6-0.7c5,3.9,11.2,6.3,17.5,6.6c0.5,0,1,0,1.5,0c6.9,0,13.8-2.4,19.4-6.5c1.7,0.3,3.3,0.5,4.7,0.5
		c2.8,0,5.4-0.7,8.8-2.4c5.4-2.8,9.4-8,11.1-14.4C95.9,59.4,94.9,52.9,91.7,47.8z M19.5,75.1c-4-2-7-6-8.2-10.8
		c-1.3-4.8-0.6-9.7,1.8-13.5c3-4.6,8-7.6,13-10.3l1.3-0.7c1.1-0.6,2.3-1.2,3.4-1.9c-1.1,1.4-2.2,2.9-3.2,4.5
		c-6.2,9.5-8,19.4-4.9,27.8c0.8,2.3,2.1,4.5,3.7,6.6C24,77.1,22.4,76.6,19.5,75.1z M49,82.9c-6.1-0.3-12.1-2.9-16.3-7.2
		c-2.2-2.2-3.8-4.7-4.7-7.2c-3.2-9.1,1.3-18.3,4.4-22.9c2.5-3.8,5.3-7.1,8.1-10.3c2.7-3.2,5.5-6.4,7.9-10c0.3-0.5,0.7-1,1-1.5
		c0,0,0,0,0,0c0.4-0.6,0.7-1.2,1-1.8c0.4,0.4,0.8,0.9,1.2,1.3c0,0,0.1,0.1,0.1,0.1c0.1,0.1,0.2,0.3,0.3,0.4c1.9,2.1,3.8,4.2,5.7,6.2
		c4.9,5.2,9.4,10,12.8,15.9c0,0,0,0,0,0c2.8,4.9,6.9,14.6,2.5,23.9c-1.1,2.2-2.7,4.4-4.8,6.3C62.9,80.7,55.8,83.2,49,82.9z
		 M88.7,64.3c-1.3,4.8-4.3,8.8-8.2,10.8c-2.2,1.1-3.8,1.7-5.6,1.8c1.2-1.5,2.2-3.1,3-4.8c4.1-8.6,3.1-18.9-2.7-29.1
		c-0.5-0.9-1.1-1.8-1.7-2.7l0.5,0.2c4.9,2.7,10,5.7,13,10.3C89.3,54.6,90,59.5,88.7,64.3z"/>
</g>
</svg>
