<?xml version="1.0" encoding="utf-8"?>
<!-- Generator: Adobe Illustrator 23.0.4, SVG Export Plug-In . SVG Version: 6.00 Build 0)  -->
<svg version="1.1" id="Layer_1" xmlns="http://www.w3.org/2000/svg" xmlns:xlink="http://www.w3.org/1999/xlink" x="0px" y="0px"
	 viewBox="0 0 100 100" style="enable-background:new 0 0 100 100;" xml:space="preserve">
<path d="M78.5,44.3c-1.2,0-2.3,0.1-3.4,0.3l-4.6-15.9c2.5-0.9,3.8-3.1,3.8-5.3c0-1.5-0.6-2.9-1.6-4c-0.8-0.8-2.2-1.7-4.5-1.7h-5.7
	c-1,0-1.9,0.9-1.9,1.9s0.9,1.9,1.9,1.9h5.7c0.8,0,1.4,0.2,1.9,0.6c0.3,0.3,0.5,0.8,0.5,1.3c0,0.9-0.6,1.9-2.4,1.9
	c-0.6,0-1.2,0.3-1.5,0.8c-0.4,0.5-0.5,1.1-0.3,1.7l1.8,6.1L42.8,45l-4.6-14.4c2.5-1,4.6-1.5,4.6-1.5c0.9-0.2,1.5-1.1,1.4-2.1
	s-0.9-1.7-1.9-1.7H28.1c-0.7,0-1.3,0.4-1.7,1c-0.3,0.6-0.3,1.3,0,1.9c0.3,0.4,2.6,4.2,6.5,4.2c0.6,0,1.2-0.1,1.8-0.3l1,3.1L29.4,46
	c-2.4-1.1-5.1-1.7-7.9-1.7c-10.5,0-19,8.5-19,19s8.5,19,19,19c9.8,0,17.9-7.5,18.9-17.1h2.4c0.7,1.7,2.4,2.9,4.3,2.9
	c2.6,0,4.8-2.1,4.8-4.8c0-0.6-0.1-1.3-0.4-1.8l18.8-19.6l1.1,3.8c-7,2.8-11.9,9.6-11.9,17.6c0,10.5,8.5,19,19,19s19-8.5,19-19
	S89,44.3,78.5,44.3z M37.4,40L44,59.8c-0.5,0.4-0.9,1-1.2,1.6h-2.4c-0.5-5.5-3.5-10.3-7.7-13.4L37.4,40z M35.6,61.4H24.8l5.5-9.3
	C33.1,54.3,35.1,57.6,35.6,61.4z M21.5,77.6c-7.9,0-14.2-6.4-14.2-14.3S13.6,49,21.5,49c1.9,0,3.8,0.4,5.5,1.1l-7.1,12.2
	c-0.3,0.6-0.3,1.3,0,1.9s1,1,1.6,1h14.1C34.7,72.2,28.7,77.6,21.5,77.6z M48.8,58.9c-0.4-0.1-0.8-0.2-1.2-0.3l-3.4-10.2l24.9-10.7
	v0.1L48.8,58.9z M78.5,77.6c-7.9,0-14.2-6.4-14.2-14.3c0-5.8,3.5-10.8,8.5-13l3.9,13.6c0.2,0.8,1,1.4,1.8,1.4c0.2,0,0.4,0,0.5-0.1
	c1-0.3,1.6-1.3,1.3-2.4l-3.9-13.5c0.7-0.1,1.4-0.2,2.1-0.2c7.9,0,14.2,6.4,14.2,14.2S86.4,77.6,78.5,77.6z"/>
</svg>
