<?xml version="1.0" encoding="utf-8"?>
<!-- Generator: Adobe Illustrator 19.0.1, SVG Export Plug-In . SVG Version: 6.00 Build 0)  -->
<!DOCTYPE svg PUBLIC "-//W3C//DTD SVG 1.1//EN" "http://www.w3.org/Graphics/SVG/1.1/DTD/svg11.dtd">
<svg version="1.1" xmlns="http://www.w3.org/2000/svg" xmlns:xlink="http://www.w3.org/1999/xlink" x="0px" y="0px"
	 viewBox="59 32 730 425" enable-background="new 59 32 730 425" xml:space="preserve">
<g id="Layer_1">
	<g>
		<g transform="translate(361.7468423150565,577.5968896852493)">
			<circle fill="#C5DFDF" cx="-187.159" cy="-430.009" r="115.588"/>
		</g>
		<g transform="translate(341.75660309366344,613.5145586673822)">
			<circle fill="#17807E" stroke="#FFFFFF" cx="-184.132" cy="-435.449" r="66.272"/>
		</g>
		<g transform="translate(437.9965068836176,613.5145586673822)">
			<circle fill="#17807E" stroke="#FFFFFF" cx="-198.707" cy="-435.449" r="15.393"/>
		</g>
		<g transform="translate(448.26149284928147,550.614204412554)">
			<circle fill="#17807E" stroke="#FFFFFF" cx="-200.261" cy="-425.923" r="38.688"/>
		</g>
		<g transform="translate(395.54044325916254,547.2623712980832)">
			<circle fill="#17807E" stroke="#FFFFFF" cx="-192.277" cy="-425.415" r="6.139"/>
		</g>
		<g transform="translate(383.99810994515184,540.8020376985106)">
			<circle fill="#17807E" stroke="#FFFFFF" cx="-190.529" cy="-424.437" r="5.085"/>
		</g>
		<g transform="translate(369.79786981854767,522.2792920050789)">
			<circle fill="#17807E" stroke="#FFFFFF" cx="-188.378" cy="-421.632" r="14.72"/>
		</g>
		<g transform="translate(320.0449285070104,500.530695436047)">
			<circle fill="#17807E" stroke="#FFFFFF" cx="-180.844" cy="-418.338" r="31.355"/>
		</g>
		<g transform="translate(272.9325133868965,538.6074731406861)">
			<circle fill="#17807E" stroke="#FFFFFF" cx="-173.709" cy="-424.104" r="20.047"/>
		</g>
		<g transform="translate(250.23762676877675,576.5620382222008)">
			<circle fill="#17807E" stroke="#FFFFFF" cx="-170.272" cy="-429.852" r="17.478"/>
		</g>
	</g>
	<g>
		<g transform="translate(542.509891389935,432.10485564540613)">
			<circle fill="#C5DFDF" cx="162.723" cy="-315.793" r="81.312"/>
		</g>
		<g transform="translate(537.7752606177702,454.14881868114196)">
			<circle fill="#17807E" stroke="#FFFFFF" cx="163.44" cy="-319.131" r="19.263"/>
		</g>
		<g transform="translate(568.2184892395908,454.14881868114196)">
			<circle fill="#17807E" stroke="#FFFFFF" cx="158.83" cy="-319.131" r="6.57"/>
		</g>
		<g transform="translate(569.143275604654,428.7826203136163)">
			<circle fill="#17807E" stroke="#FFFFFF" cx="158.69" cy="-315.29" r="14.969"/>
		</g>
		<g transform="translate(547.2953652345651,428.98016949185023)">
			<circle fill="#17807E" stroke="#FFFFFF" cx="161.999" cy="-315.319" r="3.571"/>
		</g>
		<g transform="translate(537.519395956036,425.1629567465631)">
			<circle fill="#17807E" stroke="#FFFFFF" cx="163.479" cy="-314.741" r="5.334"/>
		</g>
		<g transform="translate(521.3790383730286,425.9996807659488)">
			<circle fill="#17807E" stroke="#FFFFFF" cx="165.923" cy="-314.868" r="8.38"/>
		</g>
		<g transform="translate(511.01411659150494,440.0210328235778)">
			<circle fill="#17807E" stroke="#FFFFFF" cx="167.493" cy="-316.992" r="6.416"/>
		</g>
		<g transform="translate(496.83894891946903,462.600001354126)">
			<circle fill="#17807E" stroke="#FFFFFF" cx="169.64" cy="-320.411" r="16.207"/>
		</g>
		<g transform="translate(519.9750005125995,486.1268956660778)">
			<circle fill="#17807E" stroke="#FFFFFF" cx="166.136" cy="-323.974" r="11.793"/>
		</g>
		<g transform="translate(533.3775965748043,478.1491945205576)">
			<circle fill="#17807E" stroke="#FFFFFF" cx="164.106" cy="-322.766" r="1.442"/>
		</g>
		<g transform="translate(538.1078585082915,480.37623947302654)">
			<circle fill="#17807E" stroke="#FFFFFF" cx="163.39" cy="-323.103" r="2.995"/>
		</g>
		<g transform="translate(545.5767822055636,479.6575557955443)">
			<circle fill="#17807E" stroke="#FFFFFF" cx="162.259" cy="-322.994" r="3.373"/>
		</g>
		<g transform="translate(551.4484320875488,475.9038526830817)">
			<circle fill="#17807E" stroke="#FFFFFF" cx="161.37" cy="-322.426" r="2.541"/>
		</g>
		<g transform="translate(574.9244972428436,482.4997114774821)">
			<circle fill="#17807E" stroke="#FFFFFF" cx="157.814" cy="-323.425" r="18.151"/>
		</g>
		<g transform="translate(582.3187596538011,455.66997920869744)">
			<circle fill="#17807E" stroke="#FFFFFF" cx="156.694" cy="-319.361" r="5.464"/>
		</g>
		<g transform="translate(589.3558575908891,443.67596515858145)">
			<circle fill="#17807E" stroke="#FFFFFF" cx="155.629" cy="-317.545" r="6.336"/>
		</g>
		<g transform="translate(596.6015186277436,427.97035893696125)">
			<circle fill="#17807E" stroke="#FFFFFF" cx="154.531" cy="-315.167" r="8.341"/>
		</g>
		<g transform="translate(593.8602764103096,389.27846669301067)">
			<circle fill="#17807E" stroke="#FFFFFF" cx="154.947" cy="-309.307" r="24.573"/>
		</g>
		<g transform="translate(546.2023517636599,399.27483645948644)">
			<circle fill="#17807E" stroke="#FFFFFF" cx="162.164" cy="-310.821" r="16.747"/>
		</g>
		<g transform="translate(520.0242894859697,408.2407435823442)">
			<circle fill="#17807E" stroke="#FFFFFF" cx="166.129" cy="-312.179" r="6.733"/>
		</g>
		<g transform="translate(510.4857443259223,416.42032928747545)">
			<circle fill="#17807E" stroke="#FFFFFF" cx="167.573" cy="-313.417" r="3.929"/>
		</g>
		<g transform="translate(504.69270224058,426.2894461533963)">
			<circle fill="#17807E" stroke="#FFFFFF" cx="168.451" cy="-314.912" r="5.781"/>
		</g>
		<g transform="translate(488.1836967232695,433.5435127302556)">
			<circle fill="#17807E" stroke="#FFFFFF" cx="170.951" cy="-316.011" r="9.52"/>
		</g>
		<g transform="translate(482.0163816146573,446.28956376995103)">
			<circle fill="#17807E" stroke="#FFFFFF" cx="171.885" cy="-317.941" r="2.495"/>
		</g>
		<g transform="translate(475.84202527196123,451.0583151584622)">
			<circle fill="#17807E" stroke="#FFFFFF" cx="172.82" cy="-318.663" r="4.125"/>
		</g>
		<g transform="translate(470.21318972647896,462.0987189185364)">
			<circle fill="#17807E" stroke="#FFFFFF" cx="173.672" cy="-320.335" r="6.391"/>
		</g>
		<g transform="translate(472.80222430709836,480.04618641085597)">
			<circle fill="#17807E" stroke="#FFFFFF" cx="173.28" cy="-323.053" r="8.996"/>
		</g>
		<g transform="translate(489.6348049473031,489.4057855862733)">
			<circle fill="#17807E" stroke="#FFFFFF" cx="170.731" cy="-324.471" r="7.347"/>
		</g>
	</g>
	<g>
		<g transform="translate(304.59074318497204,229.11091037297734)">
			<circle fill="#C5DFDF" cx="161.832" cy="33.065" r="184.073"/>
		</g>
		<g transform="translate(339.16762712781394,294.63757658780685)">
			<circle fill="#17807E" stroke="#FFFFFF" cx="156.595" cy="23.141" r="2.857"/>
		</g>
		<g transform="translate(344.40629154103385,294.63757658780685)">
			<circle fill="#17807E" stroke="#FFFFFF" cx="155.802" cy="23.141" r="1.588"/>
		</g>
		<g transform="translate(343.9795950427773,287.71618493497925)">
			<circle fill="#17807E" stroke="#FFFFFF" cx="155.867" cy="24.189" r="4.296"/>
		</g>
		<g transform="translate(325.1246830389399,284.23135338351267)">
			<circle fill="#17807E" stroke="#FFFFFF" cx="158.722" cy="24.717" r="11.974"/>
		</g>
		<g transform="translate(333.50916767042355,311.830794260455)">
			<circle fill="#17807E" stroke="#FFFFFF" cx="157.452" cy="20.537" r="12.502"/>
		</g>
		<g transform="translate(340.21960485441514,298.26033584425045)">
			<circle fill="#17807E" stroke="#FFFFFF" cx="156.436" cy="22.592" r="0.344"/>
		</g>
		<g transform="translate(345.97947091213297,299.2372617990231)">
			<circle fill="#17807E" stroke="#FFFFFF" cx="155.564" cy="22.444" r="2.537"/>
		</g>
		<g transform="translate(362.40267785822317,293.75463266600866)">
			<circle fill="#17807E" stroke="#FFFFFF" cx="153.077" cy="23.275" r="12.155"/>
		</g>
		<g transform="translate(349.67501985751335,283.3891876075042)">
			<circle fill="#17807E" stroke="#FFFFFF" cx="155.004" cy="24.844" r="1.773"/>
		</g>
		<g transform="translate(345.1663522601646,273.8540509051656)">
			<circle fill="#17807E" stroke="#FFFFFF" cx="155.687" cy="26.288" r="7.177"/>
		</g>
		<g transform="translate(333.37534870480374,266.5175121120284)">
			<circle fill="#17807E" stroke="#FFFFFF" cx="157.473" cy="27.4" r="4.607"/>
		</g>
		<g transform="translate(320.8850245533073,262.9894912458543)">
			<circle fill="#17807E" stroke="#FFFFFF" cx="159.364" cy="27.934" r="6.406"/>
		</g>
		<g transform="translate(319.77246013280546,270.8036877851352)">
			<circle fill="#17807E" stroke="#FFFFFF" cx="159.533" cy="26.75" r="0.292"/>
		</g>
		<g transform="translate(316.6594103298987,271.0514563572661)">
			<circle fill="#17807E" stroke="#FFFFFF" cx="160.004" cy="26.713" r="1.318"/>
		</g>
		<g transform="translate(315.9313195844968,272.92715059469117)">
			<circle fill="#17807E" stroke="#FFFFFF" cx="160.115" cy="26.429" r="0.39"/>
		</g>
		<g transform="translate(295.60470550639195,269.9642441879672)">
			<circle fill="#17807E" stroke="#FFFFFF" cx="163.193" cy="26.878" r="15.847"/>
		</g>
		<g transform="translate(308.4010387243313,287.3317927852584)">
			<circle fill="#17807E" stroke="#FFFFFF" cx="161.255" cy="24.247" r="2.458"/>
		</g>
		<g transform="translate(310.88475367044475,291.30540916803017)">
			<circle fill="#17807E" stroke="#FFFFFF" cx="160.879" cy="23.646" r="1.518"/>
		</g>
		<g transform="translate(310.76922835825604,301.2361307099251)">
			<circle fill="#17807E" stroke="#FFFFFF" cx="160.896" cy="22.142" r="6.909"/>
		</g>
		<g transform="translate(319.55939363827014,298.38609498233683)">
			<circle fill="#17807E" stroke="#FFFFFF" cx="159.565" cy="22.573" r="0.932"/>
		</g>
		<g transform="translate(321.89315978313056,299.4863051558605)">
			<circle fill="#17807E" stroke="#FFFFFF" cx="159.212" cy="22.407" r="1.258"/>
		</g>
		<g transform="translate(314.45825946381814,313.1880719761798)">
			<circle fill="#17807E" stroke="#FFFFFF" cx="160.338" cy="20.332" r="3.705"/>
		</g>
		<g transform="translate(317.1361751451037,321.30840980309773)">
			<circle fill="#17807E" stroke="#FFFFFF" cx="159.932" cy="19.102" r="3.551"/>
		</g>
		<g transform="translate(321.65697286594394,321.1424433415377)">
			<circle fill="#17807E" stroke="#FFFFFF" cx="159.247" cy="19.127" r="0.288"/>
		</g>
		<g transform="translate(322.55116537488266,348.3805134672715)">
			<circle fill="#17807E" stroke="#FFFFFF" cx="159.112" cy="15.002" r="19.876"/>
		</g>
		<g transform="translate(334.5829349358657,327.3406853620632)">
			<circle fill="#17807E" stroke="#FFFFFF" cx="157.29" cy="18.188" r="0.69"/>
		</g>
		<g transform="translate(335.7847738357926,326.8701855349482)">
			<circle fill="#17807E" stroke="#FFFFFF" cx="157.108" cy="18.259" r="0.405"/>
		</g>
		<g transform="translate(343.4238220767984,328.97830016401224)">
			<circle fill="#17807E" stroke="#FFFFFF" cx="155.951" cy="17.94" r="4.306"/>
		</g>
		<g transform="translate(344.6089718836446,323.004395588429)">
			<circle fill="#17807E" stroke="#FFFFFF" cx="155.771" cy="18.845" r="0.862"/>
		</g>
		<g transform="translate(345.69387683222357,321.51178643620005)">
			<circle fill="#17807E" stroke="#FFFFFF" cx="155.607" cy="19.071" r="0.703"/>
		</g>
		<g transform="translate(349.23473845253835,320.0396849239395)">
			<circle fill="#17807E" stroke="#FFFFFF" cx="155.071" cy="19.294" r="2.551"/>
		</g>
		<g transform="translate(374.5989083999289,330.56848097926843)">
			<circle fill="#17807E" stroke="#FFFFFF" cx="151.23" cy="17.699" r="20.753"/>
		</g>
		<g transform="translate(370.2390010781132,306.1542055746987)">
			<circle fill="#17807E" stroke="#FFFFFF" cx="151.89" cy="21.397" r="0.292"/>
		</g>
		<g transform="translate(371.0381817225947,305.82835186181705)">
			<circle fill="#17807E" stroke="#FFFFFF" cx="151.769" cy="21.446" r="0.441"/>
		</g>
		<g transform="translate(371.86714613245675,305.1954176669273)">
			<circle fill="#17807E" stroke="#FFFFFF" cx="151.643" cy="21.542" r="0.444"/>
		</g>
		<g transform="translate(372.86513451678377,304.5155427713954)">
			<circle fill="#17807E" stroke="#FFFFFF" cx="151.492" cy="21.645" r="0.58"/>
		</g>
		<g transform="translate(373.6185534513361,303.5321846145481)">
			<circle fill="#17807E" stroke="#FFFFFF" cx="151.378" cy="21.794" r="0.471"/>
		</g>
		<g transform="translate(374.7333595800113,302.6393327322269)">
			<circle fill="#17807E" stroke="#FFFFFF" cx="151.209" cy="21.929" r="0.741"/>
		</g>
		<g transform="translate(386.11815359297276,298.2854074833526)">
			<circle fill="#17807E" stroke="#FFFFFF" cx="149.485" cy="22.588" r="8.333"/>
		</g>
		<g transform="translate(381.59495010279585,279.28655620738783)">
			<circle fill="#17807E" stroke="#FFFFFF" cx="150.17" cy="25.466" r="8.24"/>
		</g>
		<g transform="translate(365.7213638319104,271.8692488828357)">
			<circle fill="#17807E" stroke="#FFFFFF" cx="152.574" cy="26.589" r="6.628"/>
		</g>
		<g transform="translate(357.29571778645925,277.7572370479649)">
			<circle fill="#17807E" stroke="#FFFFFF" cx="153.85" cy="25.697" r="2.094"/>
		</g>
		<g transform="translate(355.54942770568863,270.5065048609646)">
			<circle fill="#17807E" stroke="#FFFFFF" cx="154.115" cy="26.795" r="2.081"/>
		</g>
		<g transform="translate(353.19730097570067,265.2207683441893)">
			<circle fill="#17807E" stroke="#FFFFFF" cx="154.471" cy="27.596" r="2.829"/>
		</g>
		<g transform="translate(348.342094476028,264.30311075957644)">
			<circle fill="#17807E" stroke="#FFFFFF" cx="155.206" cy="27.735" r="1.364"/>
		</g>
		<g transform="translate(342.97193501659507,249.95967004851389)">
			<circle fill="#17807E" stroke="#FFFFFF" cx="156.019" cy="29.907" r="11.632"/>
		</g>
		<g transform="translate(320.85268804611167,246.80529473032078)">
			<circle fill="#17807E" stroke="#FFFFFF" cx="159.369" cy="30.385" r="7.327"/>
		</g>
		<g transform="translate(303.38872981173597,243.20051514306485)">
			<circle fill="#17807E" stroke="#FFFFFF" cx="162.014" cy="30.931" r="7.804"/>
		</g>
		<g transform="translate(284.13613843935036,243.616812938716)">
			<circle fill="#17807E" stroke="#FFFFFF" cx="164.93" cy="30.868" r="8.536"/>
		</g>
		<g transform="translate(282.578570716695,254.84809979351672)">
			<circle fill="#17807E" stroke="#FFFFFF" cx="165.166" cy="29.167" r="1.085"/>
		</g>
		<g transform="translate(279.36166505265226,256.577283179983)">
			<circle fill="#17807E" stroke="#FFFFFF" cx="165.653" cy="28.905" r="2.014"/>
		</g>
		<g transform="translate(276.9585953925579,260.5061607826643)">
			<circle fill="#17807E" stroke="#FFFFFF" cx="166.017" cy="28.31" r="1.894"/>
		</g>
		<g transform="translate(278.1458411087044,262.6779623486614)">
			<circle fill="#17807E" stroke="#FFFFFF" cx="165.837" cy="27.981" r="0.206"/>
		</g>
		<g transform="translate(275.91740688187434,264.3876476261642)">
			<circle fill="#17807E" stroke="#FFFFFF" cx="166.174" cy="27.722" r="1.516"/>
		</g>
		<g transform="translate(273.4841037989139,269.0406664388688)">
			<circle fill="#17807E" stroke="#FFFFFF" cx="166.543" cy="27.017" r="2.94"/>
		</g>
		<g transform="translate(275.40481341231214,274.0949135564986)">
			<circle fill="#17807E" stroke="#FFFFFF" cx="166.252" cy="26.252" r="1.648"/>
		</g>
		<g transform="translate(272.6773547650679,283.7206196785388)">
			<circle fill="#17807E" stroke="#FFFFFF" cx="166.665" cy="24.794" r="6.841"/>
		</g>
		<g transform="translate(283.72504969978775,290.0767225461264)">
			<circle fill="#17807E" stroke="#FFFFFF" cx="164.992" cy="23.832" r="3.974"/>
		</g>
		<g transform="translate(288.07189630208666,287.47199452759867)">
			<circle fill="#17807E" stroke="#FFFFFF" cx="164.334" cy="24.226" r="0.326"/>
		</g>
		<g transform="translate(290.53018342135437,290.13301096517466)">
			<circle fill="#17807E" stroke="#FFFFFF" cx="163.961" cy="23.823" r="1.801"/>
		</g>
		<g transform="translate(294.2806427556368,290.22617373142486)">
			<circle fill="#17807E" stroke="#FFFFFF" cx="163.393" cy="23.809" r="1.383"/>
		</g>
		<g transform="translate(295.8124447962429,288.9821637848594)">
			<circle fill="#17807E" stroke="#FFFFFF" cx="163.161" cy="23.997" r="0.292"/>
		</g>
		<g transform="translate(297.1327855449408,289.7798242675874)">
			<circle fill="#17807E" stroke="#FFFFFF" cx="162.961" cy="23.877" r="1.017"/>
		</g>
		<g transform="translate(299.42601547900404,289.3939704873881)">
			<circle fill="#17807E" stroke="#FFFFFF" cx="162.614" cy="23.935" r="0.956"/>
		</g>
		<g transform="translate(288.29986691808966,310.3586698553195)">
			<circle fill="#17807E" stroke="#FFFFFF" cx="164.299" cy="20.76" r="13.669"/>
		</g>
		<g transform="translate(305.5275062913935,308.94273816400585)">
			<circle fill="#17807E" stroke="#FFFFFF" cx="161.69" cy="20.974" r="0.999"/>
		</g>
		<g transform="translate(307.84510384448066,310.61143765233555)">
			<circle fill="#17807E" stroke="#FFFFFF" cx="161.339" cy="20.722" r="1.424"/>
		</g>
		<g transform="translate(297.926824365935,331.0329740216917)">
			<circle fill="#17807E" stroke="#FFFFFF" cx="162.841" cy="17.629" r="5.683"/>
		</g>
		<g transform="translate(300.2540841582557,338.38326884938283)">
			<circle fill="#17807E" stroke="#FFFFFF" cx="162.489" cy="16.516" r="0.859"/>
		</g>
		<g transform="translate(298.79765017825315,340.54017833076347)">
			<circle fill="#17807E" stroke="#FFFFFF" cx="162.709" cy="16.189" r="1.35"/>
		</g>
		<g transform="translate(294.44375138472907,345.29033455926924)">
			<circle fill="#17807E" stroke="#FFFFFF" cx="163.369" cy="15.47" r="4.118"/>
		</g>
		<g transform="translate(298.01523133952196,350.147796923374)">
			<circle fill="#17807E" stroke="#FFFFFF" cx="162.828" cy="14.734" r="0.998"/>
		</g>
		<g transform="translate(290.9540350305139,359.96427712828194)">
			<circle fill="#17807E" stroke="#FFFFFF" cx="163.897" cy="13.248" r="8.681"/>
		</g>
		<g transform="translate(301.41447597894273,359.0815965062827)">
			<circle fill="#17807E" stroke="#FFFFFF" cx="162.313" cy="13.381" r="0.227"/>
		</g>
		<g transform="translate(302.96406589336885,367.50195761639577)">
			<circle fill="#17807E" stroke="#FFFFFF" cx="162.078" cy="12.106" r="3.351"/>
		</g>
		<g transform="translate(309.50279761029867,373.6980268681099)">
			<circle fill="#17807E" stroke="#FFFFFF" cx="161.088" cy="11.168" r="4.293"/>
		</g>
		<g transform="translate(317.5243644252764,374.3073027457657)">
			<circle fill="#17807E" stroke="#FFFFFF" cx="159.873" cy="11.075" r="2.534"/>
		</g>
		<g transform="translate(329.9036664782709,383.43720232271664)">
			<circle fill="#17807E" stroke="#FFFFFF" cx="157.998" cy="9.693" r="10.519"/>
		</g>
		<g transform="translate(368.1620685809838,380.5818291170746)">
			<circle fill="#17807E" stroke="#FFFFFF" cx="152.204" cy="10.125" r="22.036"/>
		</g>
		<g transform="translate(415.1543751995571,359.6768578840075)">
			<circle fill="#17807E" stroke="#FFFFFF" cx="145.088" cy="13.291" r="21.607"/>
		</g>
		<g transform="translate(444.3619797761582,291.3609400511055)">
			<circle fill="#17807E" stroke="#FFFFFF" cx="140.664" cy="23.637" r="41.439"/>
		</g>
		<g transform="translate(392.5934566506926,287.0941294755884)">
			<circle fill="#17807E" stroke="#FFFFFF" cx="148.504" cy="24.283" r="2.639"/>
		</g>
		<g transform="translate(392.4646417383267,282.3916647976524)">
			<circle fill="#17807E" stroke="#FFFFFF" cx="148.524" cy="24.996" r="1.353"/>
		</g>
		<g transform="translate(392.736083447592,279.3780586835703)">
			<circle fill="#17807E" stroke="#FFFFFF" cx="148.483" cy="25.452" r="1.215"/>
		</g>
		<g transform="translate(391.7133206367078,277.70268809283493)">
			<circle fill="#17807E" stroke="#FFFFFF" cx="148.638" cy="25.706" r="0.451"/>
		</g>
		<g transform="translate(392.4059556346938,275.5523688405434)">
			<circle fill="#17807E" stroke="#FFFFFF" cx="148.533" cy="26.031" r="1.466"/>
		</g>
		<g transform="translate(391.4264994376719,270.31801386172225)">
			<circle fill="#17807E" stroke="#FFFFFF" cx="148.681" cy="26.824" r="3.053"/>
		</g>
		<g transform="translate(387.31574761050535,270.78225512527166)">
			<circle fill="#17807E" stroke="#FFFFFF" cx="149.304" cy="26.754" r="0.458"/>
		</g>
		<g transform="translate(385.408535850159,266.73888529668733)">
			<circle fill="#17807E" stroke="#FFFFFF" cx="149.593" cy="27.366" r="2.889"/>
		</g>
		<g transform="translate(381.91445393362545,268.8850739031904)">
			<circle fill="#17807E" stroke="#FFFFFF" cx="150.122" cy="27.041" r="0.591"/>
		</g>
		<g transform="translate(379.7436473578067,268.1253044956075)">
			<circle fill="#17807E" stroke="#FFFFFF" cx="150.45" cy="27.156" r="1.361"/>
		</g>
		<g transform="translate(377.2093850234021,269.30549267992956)">
			<circle fill="#17807E" stroke="#FFFFFF" cx="150.834" cy="26.977" r="1.011"/>
		</g>
		<g transform="translate(374.7304884270476,265.99372863784845)">
			<circle fill="#17807E" stroke="#FFFFFF" cx="151.21" cy="27.479" r="2.499"/>
		</g>
		<g transform="translate(371.1020747429858,265.1801362708586)">
			<circle fill="#17807E" stroke="#FFFFFF" cx="151.759" cy="27.602" r="0.657"/>
		</g>
		<g transform="translate(369.5374484770228,261.99718711409344)">
			<circle fill="#17807E" stroke="#FFFFFF" cx="151.996" cy="28.084" r="2.353"/>
		</g>
		<g transform="translate(364.0219608361959,261.42339334716564)">
			<circle fill="#17807E" stroke="#FFFFFF" cx="152.831" cy="28.171" r="2.352"/>
		</g>
		<g transform="translate(371.8863603098356,243.44012036431914)">
			<circle fill="#17807E" stroke="#FFFFFF" cx="151.64" cy="30.895" r="13.519"/>
		</g>
		<g transform="translate(352.54144469696047,232.2643786838361)">
			<circle fill="#17807E" stroke="#FFFFFF" cx="154.57" cy="32.587" r="5.438"/>
		</g>
		<g transform="translate(341.15494513991325,231.32346883833165)">
			<circle fill="#17807E" stroke="#FFFFFF" cx="156.295" cy="32.73" r="4.257"/>
		</g>
		<g transform="translate(339.2537826051513,236.37239668572883)">
			<circle fill="#17807E" stroke="#FFFFFF" cx="156.582" cy="31.965" r="0.321"/>
		</g>
		<g transform="translate(338.13802403969504,236.34684375316172)">
			<circle fill="#17807E" stroke="#FFFFFF" cx="156.751" cy="31.969" r="0.626"/>
		</g>
		<g transform="translate(335.4200352110937,236.20379296679826)">
			<circle fill="#17807E" stroke="#FFFFFF" cx="157.163" cy="31.99" r="1.684"/>
		</g>
		<g transform="translate(327.5254505854998,233.30294922527008)">
			<circle fill="#17807E" stroke="#FFFFFF" cx="158.359" cy="32.43" r="5.453"/>
		</g>
		<g transform="translate(318.6847497500894,235.65690592341195)">
			<circle fill="#17807E" stroke="#FFFFFF" cx="159.697" cy="32.073" r="2.31"/>
		</g>
		<g transform="translate(312.95948601977665,235.63444293799208)">
			<circle fill="#17807E" stroke="#FFFFFF" cx="160.565" cy="32.077" r="2.548"/>
		</g>
		<g transform="translate(308.7268676908141,233.8064147394131)">
			<circle fill="#17807E" stroke="#FFFFFF" cx="161.206" cy="32.353" r="1.364"/>
		</g>
		<g transform="translate(306.7271985962764,234.175103622579)">
			<circle fill="#17807E" stroke="#FFFFFF" cx="161.508" cy="32.298" r="0.361"/>
		</g>
		<g transform="translate(302.7543220779346,224.88943442066162)">
			<circle fill="#17807E" stroke="#FFFFFF" cx="162.11" cy="33.704" r="7.743"/>
		</g>
		<g transform="translate(217.81523351234884,153.5009938565326)">
			<circle fill="#17807E" stroke="#FFFFFF" cx="174.974" cy="44.515" r="86.408"/>
		</g>
		<g transform="translate(267.12266011942523,253.3775578944864)">
			<circle fill="#17807E" stroke="#FFFFFF" cx="167.506" cy="29.39" r="8.108"/>
		</g>
		<g transform="translate(277.38634147357715,252.10785426484364)">
			<circle fill="#17807E" stroke="#FFFFFF" cx="165.952" cy="29.582" r="0.668"/>
		</g>
		<g transform="translate(278.61055138925235,252.70160690447483)">
			<circle fill="#17807E" stroke="#FFFFFF" cx="165.767" cy="29.492" r="0.487"/>
		</g>
		<g transform="translate(268.71120521654456,265.3789113433568)">
			<circle fill="#17807E" stroke="#FFFFFF" cx="167.266" cy="27.572" r="2.165"/>
		</g>
		<g transform="translate(267.8498435788063,270.12613222293123)">
			<circle fill="#17807E" stroke="#FFFFFF" cx="167.396" cy="26.853" r="1.929"/>
		</g>
		<g transform="translate(270.33232823367825,271.7615550011176)">
			<circle fill="#17807E" stroke="#FFFFFF" cx="167.02" cy="26.605" r="0.593"/>
		</g>
		<g transform="translate(271.3532132583232,272.37207419486145)">
			<circle fill="#17807E" stroke="#FFFFFF" cx="166.866" cy="26.513" r="0.416"/>
		</g>
		<g transform="translate(270.9869437787415,274.31863666255936)">
			<circle fill="#17807E" stroke="#FFFFFF" cx="166.921" cy="26.218" r="1.265"/>
		</g>
		<g transform="translate(265.2149756989271,275.09049977070026)">
			<circle fill="#17807E" stroke="#FFFFFF" cx="167.795" cy="26.101" r="2.84"/>
		</g>
		<g transform="translate(242.3191804563746,287.0322333351525)">
			<circle fill="#17807E" stroke="#FFFFFF" cx="171.263" cy="24.293" r="19.072"/>
		</g>
		<g transform="translate(266.61411468935296,292.200754283963)">
			<circle fill="#17807E" stroke="#FFFFFF" cx="167.583" cy="23.51" r="2.005"/>
		</g>
		<g transform="translate(270.37568810407384,298.79035558326643)">
			<circle fill="#17807E" stroke="#FFFFFF" cx="167.014" cy="22.512" r="4.434"/>
		</g>
		<g transform="translate(268.02073132390393,308.0248328593073)">
			<circle fill="#17807E" stroke="#FFFFFF" cx="167.37" cy="21.114" r="3.653"/>
		</g>
		<g transform="translate(271.45103370738565,311.8097790373673)">
			<circle fill="#17807E" stroke="#FFFFFF" cx="166.851" cy="20.54" r="0.682"/>
		</g>
		<g transform="translate(270.3403767297046,314.8083205531869)">
			<circle fill="#17807E" stroke="#FFFFFF" cx="167.019" cy="20.086" r="2.032"/>
		</g>
		<g transform="translate(272.72489356182024,316.926894316352)">
			<circle fill="#17807E" stroke="#FFFFFF" cx="166.658" cy="19.765" r="0.675"/>
		</g>
		<g transform="translate(273.1518758926835,319.0207437332342)">
			<circle fill="#17807E" stroke="#FFFFFF" cx="166.593" cy="19.448" r="1.138"/>
		</g>
		<g transform="translate(272.1713466968021,328.4113983501778)">
			<circle fill="#17807E" stroke="#FFFFFF" cx="166.742" cy="18.026" r="6.873"/>
		</g>
		<g transform="translate(285.1177451161205,331.4187485132107)">
			<circle fill="#17807E" stroke="#FFFFFF" cx="164.781" cy="17.571" r="4.405"/>
		</g>
		<g transform="translate(290.7618546328086,334.9761834537003)">
			<circle fill="#17807E" stroke="#FFFFFF" cx="163.926" cy="17.032" r="1.256"/>
		</g>
		<g transform="translate(267.66522918330884,350.8442058903928)">
			<circle fill="#17807E" stroke="#FFFFFF" cx="167.424" cy="14.629" r="12.542"/>
		</g>
		<g transform="translate(279.96288726237617,360.3596611358337)">
			<circle fill="#17807E" stroke="#FFFFFF" cx="165.562" cy="13.188" r="0.652"/>
		</g>
		<g transform="translate(277.603676527355,368.9170383378711)">
			<circle fill="#17807E" stroke="#FFFFFF" cx="165.919" cy="11.892" r="4.959"/>
		</g>
		<g transform="translate(289.5127838024922,381.9783183386803)">
			<circle fill="#17807E" stroke="#FFFFFF" cx="164.115" cy="9.914" r="10.039"/>
		</g>
		<g transform="translate(305.0830821851196,381.32107426889667)">
			<circle fill="#17807E" stroke="#FFFFFF" cx="161.757" cy="10.013" r="3.185"/>
		</g>
	</g>
	<g>
		<text transform="matrix(1 0 0 1 676.8558 215.7867)"><tspan x="0" y="0" font-size="15.274px">European</tspan><tspan x="14.617" y="15.274" font-size="15.274px">Union</tspan></text>
		<g>
			
				<text transform="matrix(1 0 0 1 701.8481 246.1823)" fill="#666666" font-size="11.8798px">(28)</text>
		</g>
	</g>
	<g>
		<text transform="matrix(1 0 0 1 180.8832 417.0981)"><tspan x="0" y="0" font-size="15.274px">Environmental</tspan><tspan x="-2.337" y="15.274" font-size="15.274px">Integrity Group</tspan></text>
		<g>
			
				<text transform="matrix(1 0 0 1 230.8319 447.494)" fill="#666666" font-size="11.8798px">(5)</text>
		</g>
	</g>
	<g>
		<text transform="matrix(1 0 0 1 113.2555 285.3838)" font-size="15.274px">Umbrella Group</text>
		<g>
			
				<text transform="matrix(1 0 0 1 167.11 300.5054)" fill="#666666" font-size="11.8798px">(9)</text>
		</g>
	</g>
	<g>
		<g>
			<text transform="matrix(1 0 0 1 505.0419 204.2117)" font-size="15.274px">Group of 77</text>
		</g>
		<g>
			
				<text transform="matrix(1 0 0 1 534.7274 218.5262)" fill="#666666" font-size="11.8798px"> (134)</text>
		</g>
	</g>
	<text transform="matrix(1 0 0 1 134.5972 173.3501)"><tspan x="0" y="0" fill="#FFFFFF" font-size="14px">United</tspan><tspan x="-0.728" y="16.8" fill="#FFFFFF" font-size="14px">States</tspan></text>
	
		<text transform="matrix(1 0 0 1 121.9527 86.0039)" fill="#FFFFFF" font-size="11.8798px">Japan</text>
	<text transform="matrix(1 0 0 1 87.878 118.4336)" fill="#FFFFFF" font-size="11px">Can.</text>
	
		<text transform="matrix(1 0 0 1 229.6992 129.2315)" fill="#FFFFFF" font-size="11.8798px">Russia</text>
	<text transform="matrix(1 0 0 1 228.4618 182.066)" fill="#FFFFFF" font-size="11px">Ukr.</text>
	
		<text transform="matrix(1 0 0 1 737.4554 83.5793)" fill="#FFFFFF" font-size="11.8798px">Ger.</text>
	
		<text transform="matrix(1 0 0 1 692.3423 138.9241)" fill="#FFFFFF" font-size="11.8798px">U.K.</text>
	<g>
		<g>
			<g transform="translate(547.7251531837013,577.5968896852493)">
				<circle fill="#C5DFDF" cx="-309.4" cy="-225.313" r="42.225"/>
			</g>
			<g transform="translate(533.7472284551898,590.5104595793522)">
				<circle fill="#17807E" stroke="#FFFFFF" cx="-307.284" cy="-227.268" r="5.504"/>
			</g>
			<g transform="translate(566.265112263854,590.5104595793522)">
				<circle fill="#17807E" stroke="#FFFFFF" cx="-312.208" cy="-227.268" r="22.089"/>
			</g>
			<g transform="translate(540.0298483971326,587.8428942822452)">
				<circle fill="#17807E" stroke="#FFFFFF" cx="-308.235" cy="-226.864" r="0.288"/>
			</g>
			<g transform="translate(526.3133998268496,561.8115255144472)">
				<circle fill="#17807E" stroke="#FFFFFF" cx="-306.158" cy="-222.922" r="19.652"/>
			</g>
			<g transform="translate(529.9984588875284,584.9220968423714)">
				<circle fill="#17807E" stroke="#FFFFFF" cx="-306.716" cy="-226.422" r="0.206"/>
			</g>
		</g>
		<text transform="matrix(1 0 0 1 208.2868 342.2838)" fill="#FFFFFF" font-size="11px">Mex.</text>
		<text transform="matrix(1 0 0 1 238.3707 361.1095)"><tspan x="0" y="0" fill="#FFFFFF" font-size="11px">South</tspan><tspan x="0.539" y="11.88" fill="#FFFFFF" font-size="11px">Korea</tspan></text>
	</g>
	<text transform="matrix(1 0 0 1 373.0086 204.4539)" fill="#FFFFFF" font-size="14px">China</text>
	
		<text transform="matrix(1 0 0 1 572.9911 317.7869)" fill="#FFFFFF" font-size="11.8798px">India</text>
	<text transform="matrix(1 0 0 1 511.2811 345.8989)"><tspan x="0" y="0" fill="#FFFFFF" font-size="11px">Saudi</tspan><tspan x="-2.833" y="11" fill="#FFFFFF" font-size="11px">Arabia</tspan></text>
	<text transform="matrix(1 0 0 1 547.5789 376.2357)" fill="#FFFFFF" font-size="11px">Indo.</text>
	<text transform="matrix(1 0 0 1 508.9212 394.2582)" fill="#FFFFFF" font-size="11px">Iran</text>
	<text transform="matrix(1 0 0 1 465.764 361.8798)"><tspan x="0" y="0" fill="#FFFFFF" font-size="11px">South </tspan><tspan x="-0.468" y="11" fill="#FFFFFF" font-size="11px">Africa</tspan></text>
	<text transform="matrix(1 0 0 1 396.5266 314.3248)" fill="#FFFFFF" font-size="11px">Brazil</text>
</g>
<g id="ai2html-settings">
</g>
</svg>
