<?xml version="1.0" encoding="utf-8"?>
<!-- Generator: Adobe Illustrator 19.0.1, SVG Export Plug-In . SVG Version: 6.00 Build 0)  -->
<!DOCTYPE svg PUBLIC "-//W3C//DTD SVG 1.1//EN" "http://www.w3.org/Graphics/SVG/1.1/DTD/svg11.dtd">
<svg version="1.1" xmlns="http://www.w3.org/2000/svg" xmlns:xlink="http://www.w3.org/1999/xlink" x="0px" y="0px"
	 viewBox="853.418 32 300 545.359" enable-background="new 853.418 32 300 545.359" xml:space="preserve">
<g id="Layer_1">
	<g>
		<g>
			<g>
				<g transform="translate(361.7468423150565,577.5968896852493)">
					<circle fill="#C5DFDF" cx="588.61" cy="-404.865" r="84.613"/>
				</g>
				<g transform="translate(341.75660309366344,613.5145586673822)">
					<circle fill="#17807E" stroke="#FFFFFF" cx="596.183" cy="-418.471" r="48.513"/>
				</g>
				<g transform="translate(437.9965068836176,613.5145586673822)">
					<circle fill="#17807E" stroke="#FFFFFF" cx="559.724" cy="-418.471" r="11.268"/>
				</g>
				<g transform="translate(448.26149284928147,550.614204412554)">
					<circle fill="#17807E" stroke="#FFFFFF" cx="555.835" cy="-394.643" r="28.32"/>
				</g>
				<g transform="translate(395.54044325916254,547.2623712980832)">
					<circle fill="#17807E" stroke="#FFFFFF" cx="575.807" cy="-393.373" r="4.494"/>
				</g>
				<g transform="translate(383.99810994515184,540.8020376985106)">
					<circle fill="#17807E" stroke="#FFFFFF" cx="580.18" cy="-390.925" r="3.722"/>
				</g>
				<g transform="translate(369.79786981854767,522.2792920050789)">
					<circle fill="#17807E" stroke="#FFFFFF" cx="585.56" cy="-383.908" r="10.776"/>
				</g>
				<g transform="translate(320.0449285070104,500.530695436047)">
					<circle fill="#17807E" stroke="#FFFFFF" cx="604.408" cy="-375.669" r="22.953"/>
				</g>
				<g transform="translate(272.9325133868965,538.6074731406861)">
					<circle fill="#17807E" stroke="#FFFFFF" cx="622.256" cy="-390.094" r="14.675"/>
				</g>
				<g transform="translate(250.23762676877675,576.5620382222008)">
					<circle fill="#17807E" stroke="#FFFFFF" cx="630.853" cy="-404.472" r="12.795"/>
				</g>
			</g>
			<g>
				<text transform="matrix(1 0 0 1 902.1707 273.6027)" font-size="12px">Umbrella Group</text>
				<g>
					
						<text transform="matrix(1 0 0 1 943.3601 286.672)" fill="#666666" font-size="11px">(9)</text>
				</g>
			</g>
			<text transform="matrix(1 0 0 1 915.7545 193.3755)"><tspan x="0" y="0" fill="#FFFFFF" font-size="14px">United</tspan><tspan x="-0.729" y="16" fill="#FFFFFF" font-size="14px">States</tspan></text>
			
				<text transform="matrix(1 0 0 1 908.4821 127.6514)" fill="#FFFFFF" font-size="11px">Japan</text>
			
				<text transform="matrix(1 0 0 1 987.0211 159.2955)" fill="#FFFFFF" font-size="11px">Russia</text>
		</g>
		<g>
			<g>
				<g transform="translate(542.509891389935,432.10485564540613)">
					<circle fill="#C5DFDF" cx="550.386" cy="-339.582" r="59.523"/>
				</g>
				<g transform="translate(537.7752606177702,454.14881868114196)">
					<circle fill="#17807E" stroke="#FFFFFF" cx="552.18" cy="-347.933" r="14.101"/>
				</g>
				<g transform="translate(568.2184892395908,454.14881868114196)">
					<circle fill="#17807E" stroke="#FFFFFF" cx="540.647" cy="-347.933" r="4.809"/>
				</g>
				<g transform="translate(569.143275604654,428.7826203136163)">
					<circle fill="#17807E" stroke="#FFFFFF" cx="540.296" cy="-338.324" r="10.958"/>
				</g>
				<g transform="translate(547.2953652345651,428.98016949185023)">
					<circle fill="#17807E" stroke="#FFFFFF" cx="548.573" cy="-338.399" r="2.614"/>
				</g>
				<g transform="translate(537.519395956036,425.1629567465631)">
					<circle fill="#17807E" stroke="#FFFFFF" cx="552.277" cy="-336.952" r="3.905"/>
				</g>
				<g transform="translate(521.3790383730286,425.9996807659488)">
					<circle fill="#17807E" stroke="#FFFFFF" cx="558.391" cy="-337.269" r="6.134"/>
				</g>
				<g transform="translate(511.01411659150494,440.0210328235778)">
					<circle fill="#17807E" stroke="#FFFFFF" cx="562.318" cy="-342.581" r="4.697"/>
				</g>
				<g transform="translate(496.83894891946903,462.600001354126)">
					<circle fill="#17807E" stroke="#FFFFFF" cx="567.688" cy="-351.135" r="11.864"/>
				</g>
				<g transform="translate(519.9750005125995,486.1268956660778)">
					<circle fill="#17807E" stroke="#FFFFFF" cx="558.923" cy="-360.048" r="8.633"/>
				</g>
				<g transform="translate(533.3775965748043,478.1491945205576)">
					<circle fill="#17807E" stroke="#FFFFFF" cx="553.846" cy="-357.026" r="1.056"/>
				</g>
				<g transform="translate(538.1078585082915,480.37623947302654)">
					<circle fill="#17807E" stroke="#FFFFFF" cx="552.054" cy="-357.869" r="2.192"/>
				</g>
				<g transform="translate(545.5767822055636,479.6575557955443)">
					<circle fill="#17807E" stroke="#FFFFFF" cx="549.224" cy="-357.597" r="2.469"/>
				</g>
				<g transform="translate(551.4484320875488,475.9038526830817)">
					<circle fill="#17807E" stroke="#FFFFFF" cx="547" cy="-356.175" r="1.86"/>
				</g>
				<g transform="translate(574.9244972428436,482.4997114774821)">
					<circle fill="#17807E" stroke="#FFFFFF" cx="538.106" cy="-358.674" r="13.287"/>
				</g>
				<g transform="translate(582.3187596538011,455.66997920869744)">
					<circle fill="#17807E" stroke="#FFFFFF" cx="535.305" cy="-348.51" r="4"/>
				</g>
				<g transform="translate(589.3558575908891,443.67596515858145)">
					<circle fill="#17807E" stroke="#FFFFFF" cx="532.639" cy="-343.966" r="4.638"/>
				</g>
				<g transform="translate(596.6015186277436,427.97035893696125)">
					<circle fill="#17807E" stroke="#FFFFFF" cx="529.894" cy="-338.016" r="6.106"/>
				</g>
				<g transform="translate(593.8602764103096,389.27846669301067)">
					<circle fill="#17807E" stroke="#FFFFFF" cx="530.933" cy="-323.358" r="17.988"/>
				</g>
				<g transform="translate(546.2023517636599,399.27483645948644)">
					<circle fill="#17807E" stroke="#FFFFFF" cx="548.987" cy="-327.145" r="12.259"/>
				</g>
				<g transform="translate(520.0242894859697,408.2407435823442)">
					<circle fill="#17807E" stroke="#FFFFFF" cx="558.904" cy="-330.542" r="4.929"/>
				</g>
				<g transform="translate(510.4857443259223,416.42032928747545)">
					<circle fill="#17807E" stroke="#FFFFFF" cx="562.518" cy="-333.64" r="2.876"/>
				</g>
				<g transform="translate(504.69270224058,426.2894461533963)">
					<circle fill="#17807E" stroke="#FFFFFF" cx="564.713" cy="-337.379" r="4.232"/>
				</g>
				<g transform="translate(488.1836967232695,433.5435127302556)">
					<circle fill="#17807E" stroke="#FFFFFF" cx="570.967" cy="-340.127" r="6.969"/>
				</g>
				<g transform="translate(482.0163816146573,446.28956376995103)">
					<circle fill="#17807E" stroke="#FFFFFF" cx="573.303" cy="-344.956" r="1.827"/>
				</g>
				<g transform="translate(475.84202527196123,451.0583151584622)">
					<circle fill="#17807E" stroke="#FFFFFF" cx="575.642" cy="-346.763" r="3.019"/>
				</g>
				<g transform="translate(470.21318972647896,462.0987189185364)">
					<circle fill="#17807E" stroke="#FFFFFF" cx="577.775" cy="-350.945" r="4.678"/>
				</g>
				<g transform="translate(472.80222430709836,480.04618641085597)">
					<circle fill="#17807E" stroke="#FFFFFF" cx="576.794" cy="-357.744" r="6.585"/>
				</g>
				<g transform="translate(489.6348049473031,489.4057855862733)">
					<circle fill="#17807E" stroke="#FFFFFF" cx="570.417" cy="-361.29" r="5.378"/>
				</g>
			</g>
			<g>
				<text transform="matrix(1 0 0 1 1070.1938 165.341)"><tspan x="0" y="0" font-size="12px">European</tspan><tspan x="11.484" y="13" font-size="12px">Union</tspan></text>
				<g>
					
						<text transform="matrix(1 0 0 1 1088.2905 191.591)" fill="#666666" font-size="11px">(28)</text>
				</g>
			</g>
			
				<text transform="matrix(1 0 0 1 1115.1909 69.5616)" fill="#FFFFFF" font-size="10px">Ger.</text>
			
				<text transform="matrix(1 0 0 1 1082.3491 110.0754)" fill="#FFFFFF" font-size="10px">U.K.</text>
		</g>
		<g>
			<g>
				<text transform="matrix(1 0 0 1 1054.0515 279.465)"><tspan x="0" y="0" font-size="12px">Environmental</tspan><tspan x="-1.836" y="13" font-size="12px">Integrity Group</tspan></text>
				<g>
					
						<text transform="matrix(1 0 0 1 1092.197 305.716)" fill="#666666" font-size="11px">(5)</text>
				</g>
			</g>
			<g>
				<g>
					<g transform="translate(547.7251531837013,577.5968896852493)">
						<circle fill="#C5DFDF" cx="551.446" cy="-345.577" r="30.91"/>
					</g>
					<g transform="translate(533.7472284551898,590.5104595793522)">
						<circle fill="#17807E" stroke="#FFFFFF" cx="556.741" cy="-350.469" r="4.029"/>
					</g>
					<g transform="translate(566.265112263854,590.5104595793522)">
						<circle fill="#17807E" stroke="#FFFFFF" cx="544.422" cy="-350.469" r="16.17"/>
					</g>
					<g transform="translate(540.0298483971326,587.8428942822452)">
						<circle fill="#17807E" stroke="#FFFFFF" cx="554.361" cy="-349.459" r="0.211"/>
					</g>
					<g transform="translate(526.3133998268496,561.8115255144472)">
						<circle fill="#17807E" stroke="#FFFFFF" cx="559.557" cy="-339.597" r="14.386"/>
					</g>
					<g transform="translate(529.9984588875284,584.9220968423714)">
						<circle fill="#17807E" stroke="#FFFFFF" cx="558.161" cy="-348.352" r="0.151"/>
					</g>
				</g>
				
					<text transform="matrix(1 0 0 1 1075.0807 224.6993)" fill="#FFFFFF" font-size="10px">Mex.</text>
				
					<text transform="matrix(1 0 0 1 1104.1705 243.4801)" fill="#FFFFFF" font-size="10px">S.K.</text>
			</g>
		</g>
		<g>
			<g>
				<g transform="translate(304.59074318497204,229.11091037297734)">
					<circle fill="#C5DFDF" cx="698.828" cy="207.856" r="134.746"/>
				</g>
				<g transform="translate(339.16762712781394,294.63757658780685)">
					<circle fill="#17807E" stroke="#FFFFFF" cx="685.729" cy="183.033" r="2.091"/>
				</g>
				<g transform="translate(344.40629154103385,294.63757658780685)">
					<circle fill="#17807E" stroke="#FFFFFF" cx="683.744" cy="183.033" r="1.163"/>
				</g>
				<g transform="translate(343.9795950427773,287.71618493497925)">
					<circle fill="#17807E" stroke="#FFFFFF" cx="683.906" cy="185.655" r="3.145"/>
				</g>
				<g transform="translate(325.1246830389399,284.23135338351267)">
					<circle fill="#17807E" stroke="#FFFFFF" cx="691.049" cy="186.975" r="8.766"/>
				</g>
				<g transform="translate(333.50916767042355,311.830794260455)">
					<circle fill="#17807E" stroke="#FFFFFF" cx="687.872" cy="176.519" r="9.152"/>
				</g>
				<g transform="translate(340.21960485441514,298.26033584425045)">
					<circle fill="#17807E" stroke="#FFFFFF" cx="685.33" cy="181.66" r="0.252"/>
				</g>
				<g transform="translate(345.97947091213297,299.2372617990231)">
					<circle fill="#17807E" stroke="#FFFFFF" cx="683.148" cy="181.29" r="1.857"/>
				</g>
				<g transform="translate(362.40267785822317,293.75463266600866)">
					<circle fill="#17807E" stroke="#FFFFFF" cx="676.926" cy="183.367" r="8.898"/>
				</g>
				<g transform="translate(349.67501985751335,283.3891876075042)">
					<circle fill="#17807E" stroke="#FFFFFF" cx="681.748" cy="187.294" r="1.298"/>
				</g>
				<g transform="translate(345.1663522601646,273.8540509051656)">
					<circle fill="#17807E" stroke="#FFFFFF" cx="683.456" cy="190.906" r="5.253"/>
				</g>
				<g transform="translate(333.37534870480374,266.5175121120284)">
					<circle fill="#17807E" stroke="#FFFFFF" cx="687.923" cy="193.685" r="3.373"/>
				</g>
				<g transform="translate(320.8850245533073,262.9894912458543)">
					<circle fill="#17807E" stroke="#FFFFFF" cx="692.655" cy="195.022" r="4.689"/>
				</g>
				<g transform="translate(319.77246013280546,270.8036877851352)">
					<circle fill="#17807E" stroke="#FFFFFF" cx="693.076" cy="192.062" r="0.213"/>
				</g>
				<g transform="translate(316.6594103298987,271.0514563572661)">
					<circle fill="#17807E" stroke="#FFFFFF" cx="694.256" cy="191.968" r="0.965"/>
				</g>
				<g transform="translate(315.9313195844968,272.92715059469117)">
					<circle fill="#17807E" stroke="#FFFFFF" cx="694.531" cy="191.257" r="0.285"/>
				</g>
				<g transform="translate(295.60470550639195,269.9642441879672)">
					<circle fill="#17807E" stroke="#FFFFFF" cx="702.232" cy="192.38" r="11.601"/>
				</g>
				<g transform="translate(308.4010387243313,287.3317927852584)">
					<circle fill="#17807E" stroke="#FFFFFF" cx="697.384" cy="185.8" r="1.8"/>
				</g>
				<g transform="translate(310.88475367044475,291.30540916803017)">
					<circle fill="#17807E" stroke="#FFFFFF" cx="696.443" cy="184.295" r="1.111"/>
				</g>
				<g transform="translate(310.76922835825604,301.2361307099251)">
					<circle fill="#17807E" stroke="#FFFFFF" cx="696.487" cy="180.533" r="5.058"/>
				</g>
				<g transform="translate(319.55939363827014,298.38609498233683)">
					<circle fill="#17807E" stroke="#FFFFFF" cx="693.157" cy="181.612" r="0.682"/>
				</g>
				<g transform="translate(321.89315978313056,299.4863051558605)">
					<circle fill="#17807E" stroke="#FFFFFF" cx="692.273" cy="181.196" r="0.921"/>
				</g>
				<g transform="translate(314.45825946381814,313.1880719761798)">
					<circle fill="#17807E" stroke="#FFFFFF" cx="695.09" cy="176.005" r="2.712"/>
				</g>
				<g transform="translate(317.1361751451037,321.30840980309773)">
					<circle fill="#17807E" stroke="#FFFFFF" cx="694.075" cy="172.929" r="2.599"/>
				</g>
				<g transform="translate(321.65697286594394,321.1424433415377)">
					<circle fill="#17807E" stroke="#FFFFFF" cx="692.362" cy="172.992" r="0.211"/>
				</g>
				<g transform="translate(322.55116537488266,348.3805134672715)">
					<circle fill="#17807E" stroke="#FFFFFF" cx="692.024" cy="162.673" r="14.55"/>
				</g>
				<g transform="translate(334.5829349358657,327.3406853620632)">
					<circle fill="#17807E" stroke="#FFFFFF" cx="687.466" cy="170.643" r="0.505"/>
				</g>
				<g transform="translate(335.7847738357926,326.8701855349482)">
					<circle fill="#17807E" stroke="#FFFFFF" cx="687.01" cy="170.822" r="0.296"/>
				</g>
				<g transform="translate(343.4238220767984,328.97830016401224)">
					<circle fill="#17807E" stroke="#FFFFFF" cx="684.116" cy="170.023" r="3.152"/>
				</g>
				<g transform="translate(344.6089718836446,323.004395588429)">
					<circle fill="#17807E" stroke="#FFFFFF" cx="683.667" cy="172.286" r="0.631"/>
				</g>
				<g transform="translate(345.69387683222357,321.51178643620005)">
					<circle fill="#17807E" stroke="#FFFFFF" cx="683.256" cy="172.852" r="0.515"/>
				</g>
				<g transform="translate(349.23473845253835,320.0396849239395)">
					<circle fill="#17807E" stroke="#FFFFFF" cx="681.915" cy="173.409" r="1.867"/>
				</g>
				<g transform="translate(374.5989083999289,330.56848097926843)">
					<circle fill="#17807E" stroke="#FFFFFF" cx="672.306" cy="169.421" r="15.192"/>
				</g>
				<g transform="translate(370.2390010781132,306.1542055746987)">
					<circle fill="#17807E" stroke="#FFFFFF" cx="673.958" cy="178.67" r="0.213"/>
				</g>
				<g transform="translate(371.0381817225947,305.82835186181705)">
					<circle fill="#17807E" stroke="#FFFFFF" cx="673.655" cy="178.793" r="0.323"/>
				</g>
				<g transform="translate(371.86714613245675,305.1954176669273)">
					<circle fill="#17807E" stroke="#FFFFFF" cx="673.341" cy="179.033" r="0.325"/>
				</g>
				<g transform="translate(372.86513451678377,304.5155427713954)">
					<circle fill="#17807E" stroke="#FFFFFF" cx="672.963" cy="179.29" r="0.425"/>
				</g>
				<g transform="translate(373.6185534513361,303.5321846145481)">
					<circle fill="#17807E" stroke="#FFFFFF" cx="672.677" cy="179.663" r="0.345"/>
				</g>
				<g transform="translate(374.7333595800113,302.6393327322269)">
					<circle fill="#17807E" stroke="#FFFFFF" cx="672.255" cy="180.001" r="0.543"/>
				</g>
				<g transform="translate(386.11815359297276,298.2854074833526)">
					<circle fill="#17807E" stroke="#FFFFFF" cx="667.942" cy="181.651" r="6.1"/>
				</g>
				<g transform="translate(381.59495010279585,279.28655620738783)">
					<circle fill="#17807E" stroke="#FFFFFF" cx="669.656" cy="188.848" r="6.032"/>
				</g>
				<g transform="translate(365.7213638319104,271.8692488828357)">
					<circle fill="#17807E" stroke="#FFFFFF" cx="675.669" cy="191.658" r="4.852"/>
				</g>
				<g transform="translate(357.29571778645925,277.7572370479649)">
					<circle fill="#17807E" stroke="#FFFFFF" cx="678.861" cy="189.427" r="1.533"/>
				</g>
				<g transform="translate(355.54942770568863,270.5065048609646)">
					<circle fill="#17807E" stroke="#FFFFFF" cx="679.523" cy="192.174" r="1.523"/>
				</g>
				<g transform="translate(353.19730097570067,265.2207683441893)">
					<circle fill="#17807E" stroke="#FFFFFF" cx="680.414" cy="194.177" r="2.071"/>
				</g>
				<g transform="translate(348.342094476028,264.30311075957644)">
					<circle fill="#17807E" stroke="#FFFFFF" cx="682.253" cy="194.524" r="0.999"/>
				</g>
				<g transform="translate(342.97193501659507,249.95967004851389)">
					<circle fill="#17807E" stroke="#FFFFFF" cx="684.288" cy="199.958" r="8.515"/>
				</g>
				<g transform="translate(320.85268804611167,246.80529473032078)">
					<circle fill="#17807E" stroke="#FFFFFF" cx="692.667" cy="201.153" r="5.364"/>
				</g>
				<g transform="translate(303.38872981173597,243.20051514306485)">
					<circle fill="#17807E" stroke="#FFFFFF" cx="699.283" cy="202.519" r="5.713"/>
				</g>
				<g transform="translate(284.13613843935036,243.616812938716)">
					<circle fill="#17807E" stroke="#FFFFFF" cx="706.577" cy="202.361" r="6.249"/>
				</g>
				<g transform="translate(282.578570716695,254.84809979351672)">
					<circle fill="#17807E" stroke="#FFFFFF" cx="707.167" cy="198.106" r="0.794"/>
				</g>
				<g transform="translate(279.36166505265226,256.577283179983)">
					<circle fill="#17807E" stroke="#FFFFFF" cx="708.385" cy="197.451" r="1.474"/>
				</g>
				<g transform="translate(276.9585953925579,260.5061607826643)">
					<circle fill="#17807E" stroke="#FFFFFF" cx="709.296" cy="195.963" r="1.387"/>
				</g>
				<g transform="translate(278.1458411087044,262.6779623486614)">
					<circle fill="#17807E" stroke="#FFFFFF" cx="708.846" cy="195.14" r="0.151"/>
				</g>
				<g transform="translate(275.91740688187434,264.3876476261642)">
					<circle fill="#17807E" stroke="#FFFFFF" cx="709.69" cy="194.492" r="1.11"/>
				</g>
				<g transform="translate(273.4841037989139,269.0406664388688)">
					<circle fill="#17807E" stroke="#FFFFFF" cx="710.612" cy="192.73" r="2.152"/>
				</g>
				<g transform="translate(275.40481341231214,274.0949135564986)">
					<circle fill="#17807E" stroke="#FFFFFF" cx="709.884" cy="190.815" r="1.207"/>
				</g>
				<g transform="translate(272.6773547650679,283.7206196785388)">
					<circle fill="#17807E" stroke="#FFFFFF" cx="710.918" cy="187.168" r="5.008"/>
				</g>
				<g transform="translate(283.72504969978775,290.0767225461264)">
					<circle fill="#17807E" stroke="#FFFFFF" cx="706.732" cy="184.76" r="2.909"/>
				</g>
				<g transform="translate(288.07189630208666,287.47199452759867)">
					<circle fill="#17807E" stroke="#FFFFFF" cx="705.086" cy="185.747" r="0.239"/>
				</g>
				<g transform="translate(290.53018342135437,290.13301096517466)">
					<circle fill="#17807E" stroke="#FFFFFF" cx="704.154" cy="184.739" r="1.318"/>
				</g>
				<g transform="translate(294.2806427556368,290.22617373142486)">
					<circle fill="#17807E" stroke="#FFFFFF" cx="702.734" cy="184.704" r="1.012"/>
				</g>
				<g transform="translate(295.8124447962429,288.9821637848594)">
					<circle fill="#17807E" stroke="#FFFFFF" cx="702.153" cy="185.175" r="0.213"/>
				</g>
				<g transform="translate(297.1327855449408,289.7798242675874)">
					<circle fill="#17807E" stroke="#FFFFFF" cx="701.653" cy="184.873" r="0.745"/>
				</g>
				<g transform="translate(299.42601547900404,289.3939704873881)">
					<circle fill="#17807E" stroke="#FFFFFF" cx="700.784" cy="185.019" r="0.7"/>
				</g>
				<g transform="translate(288.29986691808966,310.3586698553195)">
					<circle fill="#17807E" stroke="#FFFFFF" cx="704.999" cy="177.077" r="10.006"/>
				</g>
				<g transform="translate(305.5275062913935,308.94273816400585)">
					<circle fill="#17807E" stroke="#FFFFFF" cx="698.473" cy="177.613" r="0.732"/>
				</g>
				<g transform="translate(307.84510384448066,310.61143765233555)">
					<circle fill="#17807E" stroke="#FFFFFF" cx="697.595" cy="176.981" r="1.042"/>
				</g>
				<g transform="translate(297.926824365935,331.0329740216917)">
					<circle fill="#17807E" stroke="#FFFFFF" cx="701.352" cy="169.245" r="4.16"/>
				</g>
				<g transform="translate(300.2540841582557,338.38326884938283)">
					<circle fill="#17807E" stroke="#FFFFFF" cx="700.471" cy="166.46" r="0.629"/>
				</g>
				<g transform="translate(298.79765017825315,340.54017833076347)">
					<circle fill="#17807E" stroke="#FFFFFF" cx="701.022" cy="165.643" r="0.988"/>
				</g>
				<g transform="translate(294.44375138472907,345.29033455926924)">
					<circle fill="#17807E" stroke="#FFFFFF" cx="702.672" cy="163.843" r="3.015"/>
				</g>
				<g transform="translate(298.01523133952196,350.147796923374)">
					<circle fill="#17807E" stroke="#FFFFFF" cx="701.319" cy="162.003" r="0.73"/>
				</g>
				<g transform="translate(290.9540350305139,359.96427712828194)">
					<circle fill="#17807E" stroke="#FFFFFF" cx="703.994" cy="158.284" r="6.355"/>
				</g>
				<g transform="translate(301.41447597894273,359.0815965062827)">
					<circle fill="#17807E" stroke="#FFFFFF" cx="700.031" cy="158.619" r="0.166"/>
				</g>
				<g transform="translate(302.96406589336885,367.50195761639577)">
					<circle fill="#17807E" stroke="#FFFFFF" cx="699.444" cy="155.429" r="2.453"/>
				</g>
				<g transform="translate(309.50279761029867,373.6980268681099)">
					<circle fill="#17807E" stroke="#FFFFFF" cx="696.967" cy="153.082" r="3.142"/>
				</g>
				<g transform="translate(317.5243644252764,374.3073027457657)">
					<circle fill="#17807E" stroke="#FFFFFF" cx="693.928" cy="152.851" r="1.855"/>
				</g>
				<g transform="translate(329.9036664782709,383.43720232271664)">
					<circle fill="#17807E" stroke="#FFFFFF" cx="689.238" cy="149.392" r="7.7"/>
				</g>
				<g transform="translate(368.1620685809838,380.5818291170746)">
					<circle fill="#17807E" stroke="#FFFFFF" cx="674.745" cy="150.474" r="16.131"/>
				</g>
				<g transform="translate(415.1543751995571,359.6768578840075)">
					<circle fill="#17807E" stroke="#FFFFFF" cx="656.942" cy="158.393" r="15.817"/>
				</g>
				<g transform="translate(444.3619797761582,291.3609400511055)">
					<circle fill="#17807E" stroke="#FFFFFF" cx="645.877" cy="184.274" r="30.334"/>
				</g>
				<g transform="translate(392.5934566506926,287.0941294755884)">
					<circle fill="#17807E" stroke="#FFFFFF" cx="665.489" cy="185.89" r="1.932"/>
				</g>
				<g transform="translate(392.4646417383267,282.3916647976524)">
					<circle fill="#17807E" stroke="#FFFFFF" cx="665.538" cy="187.672" r="0.99"/>
				</g>
				<g transform="translate(392.736083447592,279.3780586835703)">
					<circle fill="#17807E" stroke="#FFFFFF" cx="665.435" cy="188.813" r="0.889"/>
				</g>
				<g transform="translate(391.7133206367078,277.70268809283493)">
					<circle fill="#17807E" stroke="#FFFFFF" cx="665.823" cy="189.448" r="0.33"/>
				</g>
				<g transform="translate(392.4059556346938,275.5523688405434)">
					<circle fill="#17807E" stroke="#FFFFFF" cx="665.56" cy="190.263" r="1.073"/>
				</g>
				<g transform="translate(391.4264994376719,270.31801386172225)">
					<circle fill="#17807E" stroke="#FFFFFF" cx="665.931" cy="192.246" r="2.235"/>
				</g>
				<g transform="translate(387.31574761050535,270.78225512527166)">
					<circle fill="#17807E" stroke="#FFFFFF" cx="667.489" cy="192.07" r="0.335"/>
				</g>
				<g transform="translate(385.408535850159,266.73888529668733)">
					<circle fill="#17807E" stroke="#FFFFFF" cx="668.211" cy="193.602" r="2.115"/>
				</g>
				<g transform="translate(381.91445393362545,268.8850739031904)">
					<circle fill="#17807E" stroke="#FFFFFF" cx="669.535" cy="192.789" r="0.433"/>
				</g>
				<g transform="translate(379.7436473578067,268.1253044956075)">
					<circle fill="#17807E" stroke="#FFFFFF" cx="670.357" cy="193.076" r="0.996"/>
				</g>
				<g transform="translate(377.2093850234021,269.30549267992956)">
					<circle fill="#17807E" stroke="#FFFFFF" cx="671.317" cy="192.629" r="0.74"/>
				</g>
				<g transform="translate(374.7304884270476,265.99372863784845)">
					<circle fill="#17807E" stroke="#FFFFFF" cx="672.256" cy="193.884" r="1.829"/>
				</g>
				<g transform="translate(371.1020747429858,265.1801362708586)">
					<circle fill="#17807E" stroke="#FFFFFF" cx="673.631" cy="194.192" r="0.481"/>
				</g>
				<g transform="translate(369.5374484770228,261.99718711409344)">
					<circle fill="#17807E" stroke="#FFFFFF" cx="674.224" cy="195.398" r="1.722"/>
				</g>
				<g transform="translate(364.0219608361959,261.42339334716564)">
					<circle fill="#17807E" stroke="#FFFFFF" cx="676.313" cy="195.615" r="1.722"/>
				</g>
				<g transform="translate(371.8863603098356,243.44012036431914)">
					<circle fill="#17807E" stroke="#FFFFFF" cx="673.334" cy="202.428" r="9.896"/>
				</g>
				<g transform="translate(352.54144469696047,232.2643786838361)">
					<circle fill="#17807E" stroke="#FFFFFF" cx="680.662" cy="206.662" r="3.981"/>
				</g>
				<g transform="translate(341.15494513991325,231.32346883833165)">
					<circle fill="#17807E" stroke="#FFFFFF" cx="684.976" cy="207.018" r="3.116"/>
				</g>
				<g transform="translate(339.2537826051513,236.37239668572883)">
					<circle fill="#17807E" stroke="#FFFFFF" cx="685.696" cy="205.106" r="0.235"/>
				</g>
				<g transform="translate(338.13802403969504,236.34684375316172)">
					<circle fill="#17807E" stroke="#FFFFFF" cx="686.119" cy="205.115" r="0.458"/>
				</g>
				<g transform="translate(335.4200352110937,236.20379296679826)">
					<circle fill="#17807E" stroke="#FFFFFF" cx="687.148" cy="205.169" r="1.233"/>
				</g>
				<g transform="translate(327.5254505854998,233.30294922527008)">
					<circle fill="#17807E" stroke="#FFFFFF" cx="690.139" cy="206.268" r="3.992"/>
				</g>
				<g transform="translate(318.6847497500894,235.65690592341195)">
					<circle fill="#17807E" stroke="#FFFFFF" cx="693.488" cy="205.377" r="1.691"/>
				</g>
				<g transform="translate(312.95948601977665,235.63444293799208)">
					<circle fill="#17807E" stroke="#FFFFFF" cx="695.657" cy="205.385" r="1.865"/>
				</g>
				<g transform="translate(308.7268676908141,233.8064147394131)">
					<circle fill="#17807E" stroke="#FFFFFF" cx="697.261" cy="206.078" r="0.999"/>
				</g>
				<g transform="translate(306.7271985962764,234.175103622579)">
					<circle fill="#17807E" stroke="#FFFFFF" cx="698.018" cy="205.938" r="0.264"/>
				</g>
				<g transform="translate(302.7543220779346,224.88943442066162)">
					<circle fill="#17807E" stroke="#FFFFFF" cx="699.523" cy="209.456" r="5.668"/>
				</g>
				<g transform="translate(217.81523351234884,153.5009938565326)">
					<circle fill="#17807E" stroke="#FFFFFF" cx="731.701" cy="236.5" r="63.253"/>
				</g>
				<g transform="translate(267.12266011942523,253.3775578944864)">
					<circle fill="#17807E" stroke="#FFFFFF" cx="713.022" cy="198.663" r="5.935"/>
				</g>
				<g transform="translate(277.38634147357715,252.10785426484364)">
					<circle fill="#17807E" stroke="#FFFFFF" cx="709.134" cy="199.144" r="0.489"/>
				</g>
				<g transform="translate(278.61055138925235,252.70160690447483)">
					<circle fill="#17807E" stroke="#FFFFFF" cx="708.67" cy="198.919" r="0.356"/>
				</g>
				<g transform="translate(268.71120521654456,265.3789113433568)">
					<circle fill="#17807E" stroke="#FFFFFF" cx="712.42" cy="194.117" r="1.585"/>
				</g>
				<g transform="translate(267.8498435788063,270.12613222293123)">
					<circle fill="#17807E" stroke="#FFFFFF" cx="712.747" cy="192.318" r="1.412"/>
				</g>
				<g transform="translate(270.33232823367825,271.7615550011176)">
					<circle fill="#17807E" stroke="#FFFFFF" cx="711.806" cy="191.699" r="0.434"/>
				</g>
				<g transform="translate(271.3532132583232,272.37207419486145)">
					<circle fill="#17807E" stroke="#FFFFFF" cx="711.419" cy="191.468" r="0.304"/>
				</g>
				<g transform="translate(270.9869437787415,274.31863666255936)">
					<circle fill="#17807E" stroke="#FFFFFF" cx="711.558" cy="190.73" r="0.926"/>
				</g>
				<g transform="translate(265.2149756989271,275.09049977070026)">
					<circle fill="#17807E" stroke="#FFFFFF" cx="713.745" cy="190.438" r="2.079"/>
				</g>
				<g transform="translate(242.3191804563746,287.0322333351525)">
					<circle fill="#17807E" stroke="#FFFFFF" cx="722.418" cy="185.914" r="13.961"/>
				</g>
				<g transform="translate(266.61411468935296,292.200754283963)">
					<circle fill="#17807E" stroke="#FFFFFF" cx="713.215" cy="183.956" r="1.468"/>
				</g>
				<g transform="translate(270.37568810407384,298.79035558326643)">
					<circle fill="#17807E" stroke="#FFFFFF" cx="711.79" cy="181.459" r="3.246"/>
				</g>
				<g transform="translate(268.02073132390393,308.0248328593073)">
					<circle fill="#17807E" stroke="#FFFFFF" cx="712.682" cy="177.961" r="2.674"/>
				</g>
				<g transform="translate(271.45103370738565,311.8097790373673)">
					<circle fill="#17807E" stroke="#FFFFFF" cx="711.382" cy="176.527" r="0.499"/>
				</g>
				<g transform="translate(270.3403767297046,314.8083205531869)">
					<circle fill="#17807E" stroke="#FFFFFF" cx="711.803" cy="175.391" r="1.487"/>
				</g>
				<g transform="translate(272.72489356182024,316.926894316352)">
					<circle fill="#17807E" stroke="#FFFFFF" cx="710.9" cy="174.589" r="0.494"/>
				</g>
				<g transform="translate(273.1518758926835,319.0207437332342)">
					<circle fill="#17807E" stroke="#FFFFFF" cx="710.738" cy="173.795" r="0.833"/>
				</g>
				<g transform="translate(272.1713466968021,328.4113983501778)">
					<circle fill="#17807E" stroke="#FFFFFF" cx="711.109" cy="170.238" r="5.031"/>
				</g>
				<g transform="translate(285.1177451161205,331.4187485132107)">
					<circle fill="#17807E" stroke="#FFFFFF" cx="706.205" cy="169.099" r="3.225"/>
				</g>
				<g transform="translate(290.7618546328086,334.9761834537003)">
					<circle fill="#17807E" stroke="#FFFFFF" cx="704.067" cy="167.751" r="0.92"/>
				</g>
				<g transform="translate(267.66522918330884,350.8442058903928)">
					<circle fill="#17807E" stroke="#FFFFFF" cx="712.816" cy="161.739" r="9.181"/>
				</g>
				<g transform="translate(279.96288726237617,360.3596611358337)">
					<circle fill="#17807E" stroke="#FFFFFF" cx="708.158" cy="158.135" r="0.477"/>
				</g>
				<g transform="translate(277.603676527355,368.9170383378711)">
					<circle fill="#17807E" stroke="#FFFFFF" cx="709.051" cy="154.893" r="3.63"/>
				</g>
				<g transform="translate(289.5127838024922,381.9783183386803)">
					<circle fill="#17807E" stroke="#FFFFFF" cx="704.54" cy="149.945" r="7.349"/>
				</g>
				<g transform="translate(305.0830821851196,381.32107426889667)">
					<circle fill="#17807E" stroke="#FFFFFF" cx="698.641" cy="150.194" r="2.331"/>
				</g>
			</g>
			<g>
				<g>
					<text transform="matrix(1 0 0 1 1032.3926 395.0195)" font-size="12px">Group of 77</text>
				</g>
				<g>
					
						<text transform="matrix(1 0 0 1 1053.7676 408.498)" fill="#666666" font-size="11px"> (134)</text>
				</g>
			</g>
			
				<text transform="matrix(1 0 0 1 929.4019 397.2583)" fill="#FFFFFF" font-size="14px">China</text>
			
				<text transform="matrix(1 0 0 1 1077.7285 480.6699)" fill="#FFFFFF" font-size="11px">India</text>
			<text transform="matrix(1 0 0 1 953.0518 475.711)" fill="#FFFFFF" font-size="8px">Brazil</text>
			<text transform="matrix(1 0 0 1 1036.8424 498.8434)"><tspan x="0" y="0" fill="#FFFFFF" font-size="8px">Saudi</tspan><tspan x="-2.061" y="8" fill="#FFFFFF" font-size="8px">Arabia</tspan></text>
			<text transform="matrix(1 0 0 1 1002.6003 509.8812)"><tspan x="0" y="0" fill="#FFFFFF" font-size="8px">South</tspan><tspan x="-0.34" y="8" fill="#FFFFFF" font-size="8px">Africa</tspan></text>
			
				<text transform="matrix(1 0 0 1 1060.2181 521.9718)" fill="#FFFFFF" font-size="10px">Indo.</text>
			
				<text transform="matrix(1 0 0 1 1031.9955 534.922)" fill="#FFFFFF" font-size="10px">Iran</text>
		</g>
		<text transform="matrix(1 0 0 1 884.2596 151.9371)" fill="#FFFFFF" font-size="10px">Can.</text>
		
			<text transform="matrix(1 0 0 1 988.9211 199.0164)" fill="#FFFFFF" font-size="9.5px">Ukr.</text>
	</g>
</g>
<g id="ai2html-settings">
</g>
</svg>
