<?xml version="1.0" encoding="utf-8"?>
<!-- Generator: Adobe Illustrator 24.3.0, SVG Export Plug-In . SVG Version: 6.00 Build 0)  -->
<svg version="1.1" id="Layer_1" xmlns="http://www.w3.org/2000/svg" xmlns:xlink="http://www.w3.org/1999/xlink" x="0px" y="0px"
	 viewBox="0 0 508.2 166.1" style="enable-background:new 0 0 508.2 166.1;" xml:space="preserve">
<style type="text/css">
	.st0{fill:#D62021;}
	.st1{fill:#000005;}
	.st2{fill:#237BBD;}
	.st3{fill:#FFFFFF;}
</style>
<polygon class="st0" points="169.8,166.1 169.8,0 0,0 0,166.1 169.8,166.1 "/>
<polygon class="st1" points="340.4,166.1 340.4,0 169.8,0 169.8,166.1 340.4,166.1 "/>
<polygon class="st2" points="508.2,166.1 508.2,0 340.4,0 340.4,166.1 508.2,166.1 "/>
<path class="st3" d="M102.7,128.1V77.7c0-7.4-1.4-12.9-4.3-16.3c-2.9-3.4-7.5-5.1-14-5.1c-3,0-6.2,0.8-9.6,2.5
	c-3.4,1.7-6.1,3.8-8,6.3v63H46.5V40.6h14.7l3.8,8.2c5.5-6.4,13.7-9.6,24.6-9.6c10.4,0,18.6,3.1,24.6,9.3c6,6.2,9,14.9,9,26v53.6
	H102.7L102.7,128.1z"/>
<path class="st3" d="M253.5,129.8c13.3,0,23.9-3.9,31.6-11.6c7.7-7.7,11.6-18.7,11.6-33c0-30.7-13.9-46-41.8-46
	c-7.5,0-13.7,2.4-18.9,7.3v-5.9h-20.4v110.7h20.4V126C241.2,128.5,247.1,129.8,253.5,129.8L253.5,129.8z M249,56.6
	c9.4,0,16.1,2.1,20.2,6.3c4.1,4.2,6.1,11.5,6.1,21.8c0,9.7-2,16.7-6.1,21.2c-4.1,4.5-10.8,6.7-20.2,6.7c-4.9,0-9.2-1.5-12.9-4.5
	V62.3C239.7,58.5,244.1,56.6,249,56.6L249,56.6z"/>
<path class="st3" d="M448.3,59.8c-3.6-2.3-7.6-3.4-11.9-3.4c-4.7,0-8.9,2.1-12.5,6.4c-3.7,4.3-5.5,9.5-5.5,15.7v49.6H398V40.6h20.4
	V49c5.7-6.5,13.2-9.8,22.7-9.8c6.9,0,12.2,1.1,15.9,3.2L448.3,59.8L448.3,59.8z"/>
</svg>
