<svg xmlns="http://www.w3.org/2000/svg" xmlns:xlink="http://www.w3.org/1999/xlink" version="1.1" id="Layer_1" x="0px" y="0px" width="100px" height="100px" viewBox="5.0 -10.0 100.0 135.0" enable-background="new 0 0 100 100" xml:space="preserve">
<g>
	<circle fill="none" cx="49.651" cy="72.829" r="1.847"/>
	<path fill="none" d="M6.159,65.021h86.985V15.996H6.159V65.021z M56.586,46.886l11.51-4.933v-0.062l-11.51-4.932V33.67   l14.891,6.825v2.854l-14.891,6.825V46.886z M51.652,28.924h3.133l-6.639,22.49h-3.132h-0.001L51.652,28.924z M27.825,43.256v-2.668   l14.89-6.918v3.289l-11.26,4.932v0.062l11.26,4.933v3.288L27.825,43.256L27.825,43.256z"/>
	<path d="M94.318,12.18h-43.88h-1.495H5.063c-1.563,0-2.91,1.188-2.91,2.752v54.092v0.188v5.013v0.313   c0,1.563,1.347,2.877,2.91,2.877h35.146c-0.041,0.896-0.321,4.753-2.155,6.623c-1.445,1.474-3.453,2.854-2.669,3.563   c0.19,0.436,1.091,0.688,3.14,0.688c4.521,0,9.416,0,11.208,0c0.453,0,0.707,0,0.707,0c1.791,0,6.688,0,11.207,0   c2.334,0,3.15-0.382,3.158-0.953h-0.08v-0.188h-0.082c-0.104-0.771-1.662-1.907-2.84-3.105c-1.834-1.87-2.113-5.727-2.154-6.623   h34.674c1.564,0,2.83-1.313,2.83-2.877v-0.314v-5.012v-0.189V14.934C97.15,13.368,95.883,12.18,94.318,12.18z M49.651,74.676   c-1.021,0-1.847-0.824-1.847-1.846s0.826-1.848,1.847-1.848c1.02,0,1.847,0.826,1.847,1.848   C51.499,73.852,50.671,74.676,49.651,74.676z M93.145,65.021H6.159V15.996h86.985V65.021z"/>
	<polygon points="42.715,46.886 31.455,41.953 31.455,41.891 42.715,36.959 42.715,33.67 27.825,40.588 27.825,43.256    27.825,43.257 42.715,50.174  "/>
	<polygon points="48.146,51.414 54.785,28.924 51.652,28.924 45.013,51.414 45.014,51.414  "/>
	<polygon points="71.477,40.495 56.586,33.67 56.586,36.959 68.096,41.891 68.096,41.953 56.586,46.886 56.586,50.174    71.477,43.349  "/>
</g>
<text x="0.0" y="117.5" font-size="5.0" font-weight="bold" font-family="Helvetica Neue, Helvetica, Arial-Unicode, Arial, Sans-serif" fill="#000000">Created by Wilson Joseph</text><text x="0.0" y="122.5" font-size="5.0" font-weight="bold" font-family="Helvetica Neue, Helvetica, Arial-Unicode, Arial, Sans-serif" fill="#000000">from the Noun Project</text></svg>