<svg xmlns="http://www.w3.org/2000/svg" xmlns:xlink="http://www.w3.org/1999/xlink" version="1.1" id="Layer_1" x="0px" y="0px" width="100px" height="100px" viewBox="0 0 100 100" enable-background="new 0 0 100 100" xml:space="preserve" fill="#cccccc">
<g>
	<path fill="none" d="M49.999,28.675c0.375,0,0.681-0.304,0.681-0.68v0C50.68,28.37,50.375,28.674,49.999,28.675   c-0.375-0.001-0.68-0.305-0.68-0.681s0.305-0.68,0.68-0.68c-0.376,0-0.681,0.305-0.681,0.681S49.623,28.675,49.999,28.675z"/>
	<path fill="none" d="M54.303,70.682h-8.607c-0.375,0-0.68,0.305-0.68,0.68v0.001c0.001-0.374,0.305-0.679,0.68-0.679h8.607   c0.375,0,0.677,0.305,0.68,0.679v-0.001C54.982,70.986,54.678,70.682,54.303,70.682z"/>
	<path d="M86.627,69.107c0.109-0.226,0.176-0.478,0.176-0.746V28.107c0-0.953-0.771-1.725-1.725-1.725H14.919   c-0.953,0-1.725,0.771-1.725,1.725v40.254c0,0.271,0.065,0.521,0.176,0.746H5v2.785c0,0.949,0.773,1.725,1.727,1.725h86.546   c0.953,0,1.728-0.773,1.728-1.725v-2.785H86.627z M49.999,27.314c0.375,0,0.681,0.305,0.681,0.68v0v0   c0,0.376-0.306,0.68-0.681,0.68c-0.376,0-0.681-0.304-0.681-0.68S49.623,27.314,49.999,27.314z M16.143,29.709h67.712v36.568   H16.143V29.709z M54.982,71.363c0,0.378-0.305,0.683-0.68,0.683h-8.607c-0.375,0-0.68-0.305-0.68-0.683v-0.001v-0.001   c0-0.375,0.305-0.68,0.68-0.68h8.607c0.375,0,0.68,0.305,0.68,0.68V71.363L54.982,71.363z"/>
	<polygon points="31.736,50.861 44.194,56.648 44.194,53.898 34.772,49.771 34.772,49.719 44.194,45.592 44.194,42.84    31.736,48.628  "/>
	<polygon points="46.119,57.688 48.74,57.688 54.295,38.87 51.673,38.87  "/>
	<polygon points="55.801,45.592 65.432,49.719 65.432,49.771 55.801,53.898 55.801,56.648 68.26,50.939 68.26,48.551 55.801,42.84"/>
</g>
</svg>