<svg xmlns="http://www.w3.org/2000/svg" xmlns:xlink="http://www.w3.org/1999/xlink" version="1.1" id="Layer_1" x="0px" y="0px" width="100px" height="100px" viewBox="0 0 100 100" enable-background="new 0 0 100 100" xml:space="preserve" fill="#cccccc">
<g>
	<path fill="none" d="M83.857,29.708H16.144v36.569h67.713V29.708z M18.298,31.029h13.073v5.533H18.298V31.029z M37.996,64.924   H18.298V52.2h19.698V64.924z M59.676,64.924h-19.7V52.2h19.7V64.924z M81.352,64.924H61.654V52.2h19.697V64.924z M81.352,50.527   H18.298v-12.35h63.054V50.527z M81.352,36.562H32.839v-5.533h48.513V36.562z"/>
	<path fill="none" d="M54.305,70.684h-8.608c-0.375,0-0.68,0.305-0.68,0.68s0.305,0.682,0.68,0.682h8.608   c0.375,0,0.678-0.307,0.68-0.682C54.984,70.988,54.68,70.684,54.305,70.684z"/>
	<circle fill="none" cx="50.001" cy="27.995" r="0.68"/>
	<path d="M86.628,69.109c0.11-0.227,0.177-0.479,0.177-0.748V28.108c0-0.953-0.771-1.726-1.727-1.726H14.92   c-0.952,0-1.724,0.772-1.724,1.726v40.253c0,0.27,0.067,0.521,0.176,0.748H5v2.783c0,0.951,0.773,1.725,1.727,1.725h86.548   c0.951,0,1.726-0.771,1.726-1.725v-2.783H86.628z M50.001,27.315c0.375,0,0.681,0.304,0.681,0.68s-0.306,0.68-0.681,0.68   c-0.377,0-0.682-0.304-0.682-0.68C49.32,27.619,49.624,27.315,50.001,27.315z M16.144,29.708h67.713v36.569H16.144V29.708z    M54.305,72.045h-8.608c-0.375,0-0.68-0.307-0.68-0.682s0.305-0.68,0.68-0.68h8.608c0.375,0,0.68,0.305,0.68,0.68   C54.982,71.738,54.68,72.045,54.305,72.045z"/>
	<rect x="18.298" y="31.029" width="13.073" height="5.533"/>
	<rect x="32.839" y="31.029" width="48.513" height="5.533"/>
	<rect x="18.298" y="38.177" width="63.054" height="12.35"/>
	<rect x="18.298" y="52.2" width="19.698" height="12.724"/>
	<rect x="39.976" y="52.2" width="19.7" height="12.724"/>
	<rect x="61.654" y="52.2" width="19.697" height="12.724"/>
</g>
</svg>