<svg xmlns="http://www.w3.org/2000/svg" xmlns:xlink="http://www.w3.org/1999/xlink" version="1.1" id="Layer_1" x="0px" y="0px" width="100px" height="100px" viewBox="0 0 100 100" enable-background="new 0 0 100 100" xml:space="preserve" fill="#cccccc">
<g>
	<path fill="none" d="M54.305,70.684h-8.607c-0.376,0-0.681,0.305-0.681,0.68s0.305,0.68,0.681,0.68h8.607   c0.375,0,0.68-0.305,0.68-0.68S54.68,70.684,54.305,70.684z"/>
	<path fill="none" d="M59.675,29.708v36.569h0.175h24.183h0.001V29.708H59.85H59.675z M64.566,32.216h14.225v4.121H64.566V32.216z    M64.566,39h14.225v8.242H64.566V39z M64.566,48.961h7.111v1.551h-7.111V48.961z M64.566,52.184h14.225v1.549H64.566V52.184z    M64.566,55.406h14.225v1.55H64.566V55.406z M64.566,58.63h14.225v1.55H64.566V58.63z"/>
	<circle fill="none" cx="50" cy="27.993" r="0.68"/>
	<path d="M86.629,69.109c0.109-0.227,0.178-0.479,0.178-0.748V28.107c0-0.953-0.772-1.726-1.727-1.726H14.92   c-0.952,0-1.726,0.772-1.726,1.726v40.254c0,0.27,0.067,0.521,0.177,0.748H5v2.783c0,0.953,0.772,1.726,1.726,1.726h86.549   c0.953,0,1.726-0.772,1.726-1.726v-2.783H86.629z M50,27.313c0.376,0,0.68,0.304,0.68,0.68s-0.304,0.681-0.68,0.681   s-0.68-0.305-0.68-0.681S49.624,27.313,50,27.313z M52.975,50.714v1.224H25.213v-1.224H52.975z M45.052,49.877H25.213v-1.224   h19.839V49.877z M37.878,46.637v1.223v0.001H25.213V47.86v-1.223v-0.001L37.878,46.637L37.878,46.637z M20.866,32.17h3.488v1.224   h-3.488V32.17z M20.866,34.23h8.693v1.224h-8.693V34.23z M20.866,36.291h11.593v1.224H20.866V36.291z M20.866,38.352h8.693v1.224   h-8.693V38.352z M20.866,40.411h8.693v1.224h-8.693V40.411z M20.866,42.472h3.488v1.224h-3.488V42.472z M20.866,44.532h5.831v1.224   h-5.831V44.532z M20.866,46.637h3.488v1.224h-3.488V46.637z M20.866,48.653h3.488v1.224h-3.488V48.653z M20.866,50.714h3.488v1.224   h-3.488V50.714z M20.866,52.773h27.791v1.224H20.866V52.773z M48.657,54.834v1.225H25.213v-1.225H48.657z M20.866,54.834h3.488   v1.225h-3.488V54.834z M20.03,64.3L20.03,64.3h-1.058h-0.001v-1.224h0.001h1.057h0.001V64.3z M20.03,62.24h-1.058v-0.002h-0.001   v-1.225h1.058v0.002h0.001V62.24z M20.03,60.178L20.03,60.178h-1.058h-0.001v-1.223h0.001h1.057h0.001V60.178z M20.03,58.119   h-1.058v-0.001h-0.001v-1.224h0.001h1.057h0.001V58.119z M20.03,56.059L20.03,56.059h-1.058h-0.001v-1.225h0.001h1.057h0.001   V56.059z M20.03,53.997L20.03,53.997h-1.058h-0.001v-1.224h0.001h1.057h0.001V53.997z M20.03,51.938L20.03,51.938h-1.058h-0.001   v-1.224h0.001h1.057h0.001V51.938z M20.03,49.877L20.03,49.877h-1.058h-0.001v-1.224h0.001h1.057h0.001V49.877z M20.03,47.817   h-1.058v-0.001h-0.001v-1.224h1.058v0.001h0.001V47.817z M20.03,45.756L20.03,45.756h-1.058h-0.001v-1.224h0.001h1.057h0.001   V45.756z M20.03,43.696h-1.058v-0.001h-0.001v-1.224h1.058v0.001h0.001V43.696z M20.03,41.635L20.03,41.635h-1.058h-0.001v-1.224   h0.001h1.057h0.001V41.635z M20.03,39.576h-1.058v-0.001h-0.001v-1.224h1.058v0.001h0.001V39.576z M20.03,37.515L20.03,37.515   h-1.058h-0.001v-1.224h0.001h1.057h0.001V37.515z M20.03,35.454L20.03,35.454h-1.058h-0.001V34.23h0.001h1.057h0.001V35.454z    M20.03,33.394L20.03,33.394h-1.058h-0.001V32.17h0.001h1.057h0.001V33.394z M26.697,64.3h-5.831v-1.224h5.831V64.3z    M27.999,61.016v1.223v0.002h-7.133v-0.002v-1.223v-0.002h7.133V61.016z M35.133,60.178H20.866v-1.223h14.267V60.178z    M37.878,58.118L37.878,58.118l-17.012,0.001v-0.001v-1.224h17.012V58.118z M54.305,72.043h-8.607c-0.376,0-0.681-0.305-0.681-0.68   s0.305-0.68,0.681-0.68h8.607c0.375,0,0.68,0.305,0.68,0.68S54.68,72.043,54.305,72.043z M57.3,51.938h-3.487v-1.224H57.3V51.938z    M84.033,66.277L84.033,66.277H59.85h-0.175V29.708h0.175h24.184V66.277z"/>
	<rect x="64.566" y="48.961" width="7.111" height="1.551"/>
	<rect x="64.566" y="52.184" width="14.225" height="1.549"/>
	<rect x="64.566" y="55.406" width="14.225" height="1.55"/>
	<rect x="64.566" y="58.63" width="14.225" height="1.55"/>
	<rect x="64.566" y="39" width="14.225" height="8.242"/>
	<rect x="64.566" y="32.216" width="14.225" height="4.121"/>
</g>
</svg>