<svg xmlns="http://www.w3.org/2000/svg" xmlns:xlink="http://www.w3.org/1999/xlink" version="1.1" id="Capa_1" x="0px" y="0px" width="100px" height="100px" viewBox="5.0 -10.0 100.0 135.0" enable-background="new 0 0 100 100" xml:space="preserve">
<g id="Capa_18">
	<g>
		<path d="M5,84.504h16.396V63.223H5V84.504z M6.476,64.697H19.92v18.332H6.476V64.697z"/>
		<rect x="8.427" y="67.805" width="9.541" height="1.475"/>
		<rect x="8.427" y="71.354" width="9.541" height="1.475"/>
		<rect x="8.427" y="74.902" width="9.541" height="1.477"/>
		<rect x="8.427" y="78.449" width="9.541" height="1.477"/>
		<path d="M29.534,84.504h16.396V63.223H29.534V84.504z M31.009,64.697h13.446v18.332H31.009V64.697z"/>
		<rect x="32.962" y="67.805" width="9.541" height="1.475"/>
		<rect x="32.962" y="71.354" width="9.541" height="1.475"/>
		<rect x="32.962" y="74.902" width="9.541" height="1.477"/>
		<rect x="32.962" y="78.449" width="9.541" height="1.477"/>
		<path d="M78.604,63.223v21.281H95V63.223H78.604z M93.524,83.029H80.079V64.697h13.445V83.029z"/>
		<rect x="82.03" y="67.805" width="9.541" height="1.475"/>
		<rect x="82.03" y="71.354" width="9.541" height="1.475"/>
		<rect x="82.03" y="74.902" width="9.541" height="1.477"/>
		<rect x="82.03" y="78.449" width="9.541" height="1.477"/>
		<path d="M54.069,84.504h16.396V63.223H54.069V84.504z M55.544,64.697H68.99v18.332H55.544V64.697z"/>
		<rect x="57.497" y="67.805" width="9.539" height="1.475"/>
		<rect x="57.497" y="71.354" width="9.539" height="1.475"/>
		<rect x="57.497" y="74.902" width="9.539" height="1.477"/>
		<rect x="57.497" y="78.449" width="9.539" height="1.477"/>
		<path d="M13.559,52.771c0-3.542,2.882-6.422,6.425-6.422h16.66v14.893h1.476V46.35h23.423v14.893h1.476V46.35h17    c3.543,0,6.423,2.881,6.423,6.422v8.471h1.476v-8.471c0-4.354-3.546-7.897-7.898-7.897H50.397v-9.039h12.627V18.617H49.346    l-1.6-3.122h-10.77v20.34h11.946v9.039H19.982c-4.356,0-7.9,3.544-7.9,7.897v8.471h1.476L13.559,52.771L13.559,52.771z     M38.451,16.97h8.393l1.6,3.122h13.105V34.36H38.451V16.97z"/>
	</g>
</g>
<text x="0.0" y="117.5" font-size="5.0" font-weight="bold" font-family="Helvetica Neue, Helvetica, Arial-Unicode, Arial, Sans-serif" fill="#000000">Created by Juan Pablo Bravo</text><text x="0.0" y="122.5" font-size="5.0" font-weight="bold" font-family="Helvetica Neue, Helvetica, Arial-Unicode, Arial, Sans-serif" fill="#000000">from the Noun Project</text></svg>