<svg xmlns="http://www.w3.org/2000/svg" xmlns:xlink="http://www.w3.org/1999/xlink" version="1.1" id="&#1064;&#1072;&#1088;_1" x="0px" y="0px" viewBox="0 0 100 100" enable-background="new 0 0 100 100" xml:space="preserve" height="100px" width="100px">
<path d="M49.8,49.9C51,50.6,49.3,49.6,49.8,49.9L49.8,49.9z"/>
<g>
	<path d="M95.9,10.2c-0.6-0.3-1.4-0.5-2.2-0.5c-6.8,0-80.7,0-87.5,0c-0.8,0-1.6,0.2-2.2,0.6C2.7,11,1.8,12.4,1.8,14   c0,4.6,0,8.8,0,12.7c0.2-0.1,0.4-0.3,0.6-0.4c1.2-0.6,2.5-1,3.9-1h0V14.2h87.4v50.4H51.1v21.2c0,1.5-0.5,3-1.3,4.3h9h9.1   c0.7,0,1.3-0.6,1.3-1.3v-1.2c0-0.7-0.6-1.3-1.3-1.3h-2.8c-1.5-1.6-2.5-4.9-3-8.3c15.6,0,29,0,31.6,0c1.1,0,2.1-0.4,2.9-1.1   c0.9-0.8,1.5-2,1.5-3.4c0-54.8,0-54.8,0-59.5C98.2,12.3,97.3,11,95.9,10.2z" fill="#cccccc" />
	<path d="M45.5,29.2C46.9,30,44.9,28.9,45.5,29.2L45.5,29.2z" fill="#cccccc" />
	<path d="M45.5,29.2c-0.6-0.3-1.4-0.5-2.2-0.5c-6.8,0-30.3,0-37.1,0c-0.8,0-1.6,0.2-2.2,0.6C2.7,30,1.8,31.4,1.8,33   c0,3.1,0,7.7,0,12.8c0.2-0.1,0.4-0.3,0.6-0.4c1.2-0.6,2.5-1,3.9-1h0V33.2h37v47H31v5.6c0,1.6-0.5,3.2-1.4,4.5c5.8,0,11.2,0,13.8,0   c1.1,0,2.1-0.4,2.9-1.1c0.9-0.8,1.5-2,1.5-3.4c0-9.5,0-18.9,0-28.4c0-3.7,0-20.8,0-24.5C47.8,31.3,46.9,30,45.5,29.2z" fill="#cccccc" />
	<path d="M25.4,48.3C26.7,49,24.7,47.9,25.4,48.3L25.4,48.3z" fill="#cccccc" />
	<path d="M25.4,48.3c-0.6-0.3-1.4-0.5-2.2-0.5c-6.8,0-10.1,0-16.9,0c-0.8,0-1.6,0.2-2.2,0.6C2.7,49,1.8,50.4,1.8,52   c0,9.5,0,13.4,0,22.9c0,3.6,0,7.2,0,10.8c0,2.5,2,4.5,4.5,4.5c6.8,0,10.1,0,16.9,0c1.1,0,2.1-0.4,2.9-1.1c0.9-0.8,1.5-2,1.5-3.4   c0-9.5,0-20,0-29.5c0-3.7,0-0.6,0-4.3C27.6,50.4,26.7,49,25.4,48.3z M14.7,87.3c-1.1,0-2-0.9-2-2s0.9-2,2-2c1.1,0,2,0.9,2,2   S15.8,87.3,14.7,87.3z M23.1,80.2H6.3v-28h16.8V80.2z" fill="#cccccc" />
</g>
</svg>