<?xml version="1.0" encoding="utf-8"?>
<!-- Generator: Adobe Illustrator 18.0.0, SVG Export Plug-In . SVG Version: 6.00 Build 0)  -->
<!DOCTYPE svg PUBLIC "-//W3C//DTD SVG 1.1//EN" "http://www.w3.org/Graphics/SVG/1.1/DTD/svg11.dtd">
<svg version="1.1" id="Layer_1" xmlns="http://www.w3.org/2000/svg" xmlns:xlink="http://www.w3.org/1999/xlink" x="0px" y="0px"
	 viewBox="0 90 612 612" enable-background="new 0 90 612 612" xml:space="preserve">
<g id="graphic_copy">
	<g>
		<g>
			<g>
				<defs>
					<rect id="SVGID_1_" x="1607.6" y="-3966.1" width="612" height="612"/>
				</defs>
				<clipPath id="SVGID_2_">
					<use xlink:href="#SVGID_1_"  overflow="visible"/>
				</clipPath>
				<g clip-path="url(#SVGID_2_)">
					<g>
						<path fill="#DDDDDD" stroke="#FFFFFF" stroke-width="1" stroke-miterlimit="10" d="M-1691-211.1l44.3,10.6l65.2-2.7
							l104.7,10.6l15.5,10.6l26.2-2.7l91.4,23.5l102,10.6l94-5.3l49.7,8l41.7-20.8l161.9,8h18.2l8-12.9l-211.5-23.5l-47-10.6
							l-26.2-18.2l-5.3-8l8-10.6l-2.7-29.3l23.5-23.5l-59.9-31.5l15.5-18.2l-57.7-12.9l2.7-8l39-5.3l128.2,15.5l8-10.6l49.7-31.5
							l-26.2-26.2l-149-36.4l-31.5-15.5l36.4-10.6l5.3-8l-10.6-8l-36.4,2.7l-8,5.3l-31.5-15.5v-10.6l8-5.3l-2.7-18.2l2.7-2.7
							l23.5,12.9l12.9-12.9l41.7,5.3l12.9,5.3l2.7,2.7l-5.3,2.7l2.7,2.7l20.8-8l52.3,18.2l8-2.7l-8-5.3l15.5,2.7l20.8-8l2.7-5.3
							l8,2.7l2.7-8l15.5,10.6l5.3-5.3l-5.3-5.3l8-2.7l-10.6-5.3h20.8l-15.5-8l10.6-2.7l-23.5-10.6h-34.1l-20.8-2.7v-5.3l28.8-8
							l31.5,10.6l18.2,2.7l2.7-5.3l-18.2-8l5.3-8l36.4-2.7v-8l28.8-2.7l5.3-5.3l26.2,2.7l23.5-5.3l15.5-12.9l44.3-2.7l5.3-10.6
							l49.7-10.6l2.7,8l18.2,5.3l28.8-5.3l41.7,5.3l57.7-8l107.3,5.3l57.7-5.3l5.3-2.7l-5.3-5.3l15.5-5.3l8,8h55l-2.7-13.3l15.5-8
							l15.5,10.6l-5.3,5.3v5.3h10.6l-10.6,8v2.7h15.5v5.3l2.7,2.7l23.5-5.3l-8-8l8-5.3l-5.3-8l12.9-2.7l15.5,2.7l5.3,10.6l-2.7,5.3
							l2.7,5.3l-15.5,8l2.7,2.7l-8,5.3l12.9,5.3l26.2-5.3l41.7,8l20.8-8l52.3-5.3l23.5,2.7l2.7,5.3l20.8,2.7l20.8-2.7l8-8l-26.2-8
							l12.9-2.7l-8-2.7l8-2.7l-2.7-5.3H-122l-8-20.8l-23.5-2.7l2.7-5.3l-5.3-5.3l73.2,2.7l2.7-2.7l-12.9-8l-20.8-2.7h-40.8
							l-10.6-18.2l8-5.3l15.5,2.7l-5.3,8l10.6,2.7l65.2-5.3l47,12.9l81.2-5.3l31.5,8l31.5-10.6v-8l-2.7-10.6l20.8,8l-10.6,10.6
							l2.7,2.7h21.3l18.2,8l15.5-12.9l10.6,12.9l-5.3,5.3l2.7,2.7l39,2.7l31.5,12.9l15.5-5.3l5.3-5.3l-5.3-8v-5.3L294-695l-5.3-15.5
							l36.4,12.9l2.7,12.9l41.7-5.3v2.7l-8,8l2.7,2.7l34.1-10.6l26.2,2.7l36.4-10.6l70.5-12.9l20.8-10.6l15.5-15.5l-5.3-8l2.7-10.6
							l-12.9-15.5l2.7-15.5l-10.6-28.8l-10.6-5.3v-5.3l2.7-10.6l-10.6-10.6l12.9-5.3l15.5,5.3l15.5-12.9l-18.2-8h12.9l-5.3-10.6
							l5.3-2.7l-5.3-2.7l10.6-2.7h-5.3l-5.3-8l8-5.3v-2.7h-3.5l8-2.7l-5.3-2.7l8-5.3l-20.8,2.7v-15.5l10.6-8l2.7,8l10.6-8l-2.7-8
							l8-2.7l8-15.5l10.6,2.7l-2.7-5.3l8-2.7l8,2.7l2.7-2.7l-5.3-5.3h8l-2.7-5.3l8,2.7l-2.7-5.3h8l-5.3-2.7v-12.9l18.2,2.7l2.7-2.7
							l-2.7-5.3l5.3-2.7h-2.7L659-997l-5.3-5.3l2.7-5.3l5.3,5.3l23.5-15.5l2.7-2.7l-2.7-5.3l18.2-2.7l5.3-5.3l8,5.3l10.6-12.9
							l31.5-10.6l5.3,2.7l8,10.6l-8,2.7l-2.7-5.3h-2.7l-26.2,15.5l-5.3,8l2.7,10.6l-15.5-8v8l-8-5.3l-34.1,26.2h-8v8l8,2.7h-8
							l-8,12.9l10.6,8l10.6-2.7l2.7-5.3l2.7,5.3l2.7-5.3h8l-2.7,5.3l-8,8l-5.3-5.3l-5.3,10.6l-10.6-10.6l-12.9,2.7l8,5.3L651-942
							l5.3,2.7l-2.7,2.7l-12.9-12.9l-10.6-2.7v2.7l2.7,2.7l-8,2.7l5.3,2.7h-9.3v5.3l8,2.7v2.7L608-928l-2.7,2.7l5.3,5.3l-5.3,2.7
							l2.7,2.7h-12.9l-2.7,8l5.3,2.7l-5.3,8l5.3,2.7l-8,8l18.2-2.7l-15.5,8l10.6,2.7l-8,5.3l2.7,5.3l28.8,5.3l-8-5.3h5.3l-8-8
							l15.5-5.3l18.2,2.7l-26.2,5.3l15.5,8l-10.6-2.7l5.3,8l-2.7,2.7l5.3,2.7l-5.3,5.3l8-2.7l2.7,8l12.9,2.7l-2.7,12.9l12.9,15.5
							H654v2.7l5.3,8h12.9l-12.9,5.3v5.3H675l8,10.6l-2.7,5.3l2.7,2.7h-5.3l2.7,2.7l-15.5,8l12.9-2.7l8,8l-34.1,5.3l5.3,2.7
							l-5.3,2.7l23.5,2.7l10.6-5.3l-5.3,8l8,2.7H683l2.7,5.3l-12.9,2.7l5.3,8H691v12.9l15.5-5.3v12.9l-8,2.7l-5.3-5.3l-2.7,8
							l-26.2-8l10.6,8h-8l2.7,8h18.2l-2.7,5.3h5.3l-8,10.6l-15.5-2.7l15.5,8l-15.5,8l2.7,5.3l-8,8l2.7,5.3l-2.7,8H651v-8l-12.9-5.3
							l2.7,10.6l-18.2,2.7l18.2,8l-26.2,8l23.5-2.7l-2.7,5.3l-59.9,26.2l-59.9,10.6l-8,2.7l-8,10.6l-8,2.7l-96.7-5.3l-15.5-8
							l-5.3-12.9l-26.2-5.3v5.3l-15.5,5.3l2.7,5.3l-2.7,2.7l31.5,28.8l26.2,18.2l23.5-2.7l31.5,10.6l-15.5,12.9l-23.5,8l-130.8-23.5
							l15.5,10.6l-15.5,2.7l65.2,15.5l12.9,10.6L327.2-468h-39l-44.3-23.5l-20.8,2.7l23.5,28.8l26.2,8l10.6,12.9l10.6,5.3v-12.9
							l2.7-2.7l70.5,2.7l10.6,5.3l5.3,10.6l-15.5,12.9h-60.3l75.8,12.9l26.2,20.8l138.4,31.5l96.7,34.1l78.5,23.5l5.3,8l-8,12.9
							l15.5,5.3l57.7-34.1l39-10.6L939.7-330h102l31.5-20.8l263.9-52.3l5.3-8l-2.7-8L1298-432l62.5-28.8L1245.7-440l-59.9-20.8l-8-8
							l8-20.8l39-28.8l47-15.5l52.3-26.2l46.1-19.5l94-15.5l20.8,2.7l20.8-10.6h39l-8-10.6l18.2-18.2l2.7-10.6l67.9-31.5l-18.2-5.3
							l-34.1,8l-10.6-2.7l15.5-8h-15.5l18.2-18.2l44.3-8l-12.9-10.6h20.8l36.4-20.8l2.7-12.9l-15.5-10.6v-10.6l12.9-2.7l-2.7,10.6
							l12.9,2.7l18.2-18.2l-8-5.3l18.2-2.7h2.7l-5.3,5.3l15.5,5.3l5.3,20.8l5.3,2.7l20.8-5.3l-8-10.6l12.9-15.5l20.8-10.6l10.6,8
							l-12.9,8l2.7,10.6l75.8-8l-2.7,2.7l5.3,8l20.8-8l5.3,5.3l-2.7,5.3l12.9,2.7l23.5-15.5l70.5-18.2l44.3-5.3l18.2-12.9l20.8,10.6
							l8-5.3l-8-10.6l12.9,2.7l28.8,20.8h23.5l15.5-15.5l28.8-2.7l31.5,2.7l47-10.6l96.7,20.8l91.4-12.9l39-12.9l34.1-2.7l34.1-15.5
							l2.7-8l8-5.3l-2.7-5.3l2.7-5.3l15.5-5.3l10.6,2.7l2.7,10.6l15.5,10.6l15.5,5.3l2.7,5.3l-8-2.7v5.3l12.9,8l8-12.9l15.5-5.3
							l-2.7,10.6l-12.9,5.3l18.2,5.3l2.7,5.3l5.3-15.5h5.3l-2.7,5.3v10.6l8-8l12.9-2.7l-2.7-8l8-2.7l-5.3-5.3l5.3-12.9l47-18.2
							l10.6-8l20.8-2.7l12.9-2.7l10.6-8l26.2-2.7l-2.7-10.6l8-2.7l18.2,5.3l-10.6,5.3l8,5.3l15.5-2.7l20.8-8l-18.2-8l18.2-10.6
							l2.7,2.7l-2.7,5.3l10.6-2.7l18.2,5.3l2.7-2.7l-8-2.7v-5.3l-5.3-5.3l5.3-10.6l31.5-12.9l34.1-5.3l39,5.3l12.9,12.9l20.8,5.3
							v5.3h-8l-5.3,5.3l34.1,10.6h10.6l2.7,5.3h-2.7l5.3,2.7l26.2-2.7l44.3,10.6l20.8-5.3l91.4,12.9l26.2-5.3v12.9l10.6,15.5
							l-15.5,10.6l8,2.7l-10.6,5.3l10.6,5.3v5.3h-18.2v5.3l10.6,2.7l-5.3,5.3l2.7,5.3l-10.6,5.3l-9.9-4.7l-10.6,12.9v5.3l5.3,2.7h8
							v10.6h8l2.7-8l-2.7-8h10.6v12.9L3276-785l-28.8,20.8l8,2.7l-12.9,15.5l26.2,12.9h15.5l28.8-15.5l5.3-12.9l8-2.7l-4.4-6.2
							l5.3-15.5l8-5.3v-5.3l12.9-2.7v-5.3l8-2.7l-5.3-5.3l15.5-12.9l31.5-5.3l2.7-8l12.9,2.7l5.3-8l34.1-10.6l8-10.6l-5.3-2.7l5.3-8
							l20.8-12.9l44.3-10.6v-5.3h12.9l-12.9-5.3l12.9-8l10.6,5.3l15.5-8h47l23.5-5.3l23.5-12.9l2.7-20.8l5.3,2.7l8,12.9l-2.7,8
							l5.3,2.7l59.9-8l73.2,5.3l28.8-5.3l10.6,5.3l12.9-8l10.6,2.7l10.6,10.6l31.5-26.2l34.1-5.3l83.4,15.5h20.8L4072-934l36.4-10.6
							l5.3-12.9l49.7-12.9l20.8,15.5l2.7,10.6l34.1-2.7l15.5,15.5l15.5,5.3l65.2-8l20.8-8l18.2,2.7v5.3l26.2-10.6l5.3,2.7l2.7,5.3h8
							l8-10.6l15.5-5.3l12.9,8v12.9l39,8l8-2.7v-10.6l8-8l12.9-8l62.5-5.3l15.5,2.7l2.7-5.3l-8-18.2l2.7-5.3v-5.3l5.3-8l10.6,5.3
							l5.3,12.9l-8,20.8l31.5,8l99.3,18.2l10.6-2.7l12.9,8l18.2-5.3l8,8l12.9-2.7l2.7,8l15.5-8l8,5.3l-10.6,12.9l26.2,5.3l10.6,10.6
							l-2.7,5.3l20.8-10.6l10.6,2.7l-8,5.3l12.9,8l44.3,2.7l2.7,5.3l-5.3,10.6l5.3,5.3l26.2-8l26.2,5.3l2.7-5.3l-5.3-5.3l5.3-2.7
							l-5.3-5.3l2.7-2.7l18.2,10.6h-5.3l2.7,5.3l-5.3,2.7l10.6,8l28.8,5.3l18.2-2.7l-2.7-5.3l2.7-2.7l8,10.6l41.7,15.5l26.2,20.8
							l12.9-2.7l5.3,5.3l2.7-5.3v8l12.9-5.3l15.5,15.5l5.3-2.7l-5.3-5.3h18.2l28.8,8l18.2-2.7l2.7,2.7h-8l5.3,2.7h20.8l2.7,5.3
							l-2.7,2.7l8,5.3l41.7,18.2l2.7-5.3l-2.7-8l12.9,20.8l-15.5,8l-5.3,12.9l8-2.7v10.6h-5.3l2.7,2.7l-10.6,15.5h-8l-2.7,15.5
							l-10.6-2.7l-5.3,8l-12.9-8L5210-682l2.7,2.7h-8l12.9,5.3l-28.8,5.3l10.6,15.5v5.3l-15.5-2.7v5.3l-8-5.3l-10.6,5.3l5.3,8
							l-26.2,5.3v12.9l10.6,5.3l-2.7,12.9l2.7,2.7l-15.5,10.6l10.6,2.7v2.7l2.7,10.6l-8,2.7l10.6,5.3l-15.5,8l18.2,5.3l12.9,18.2
							l-5.3,2.7l2.7,2.7l-2.7,2.7l18.2,2.7v10.6l-5.3,8l12.9-5.3l2.7,8l10.6-10.6l2.7,5.3l-5.3,2.7l8,5.3l-2.7,5.3l28.8,5.3l2.7,5.3
							l-20.8-5.3l-34.1,2.7l-31.5,10.6l-2.7,5.3l-20.8-2.7l-26.2,5.3l-8,8l8,2.7l-2.7,5.3l8,5.3l-23.5,18.2l-8,5.3l23.5-2.7l5.3,2.7
							l-2.7,2.7l-47,10.6l12.9,10.6l41.7-5.3l2.7,5.3l-23.5,2.7l26.2,2.7l-20.8,8l15.5,5.3l-8,2.7l8,5.3l-5.3,5.3l31.5,2.7
							l-15.5,10.6l-20.8,2.7l39,8v5.3l28.8,15.5l2.7,5.3l-8,2.7l36.4,8l2.7,2.7l-2.7,5.3l23.5,10.6h18.2h-12.9l8,5.3l-8,2.7
							l34.1,2.7l5.3,8l-23.5,12.9l34.1-5.3l59.9,12.9l-8,10.6l57.7,2.7l67.9,18.2l26.2-2.7l-2.7,5.3l12.9,2.7v26.2v23.5v26.2v26.2
							v26.2v28.8v26.2V2.6v28.8v28.8v31.5v28.8h-10.6h-8h-10.6h-10.6h-10.6H5431h-10.6h-8h-10.6H5390h-10.6h-10.6h-8h-10.6h-10.6
							H5329h-10.6h-10.6h-8h-10.6h-10.6H5268h-11h-10.6h-8h-10.6h-10.6h-10.6H5196h-8h-10.6h-10.6h-10.6h-10.6H5135h-8h-11h-10.6
							h-10.6H5084h-8h-10.6h-10.6h-10.6h-10.6H5023h-8h-10.6h-10.6h-10.6h-10.6h-8H4954h-11h-10.6h-10.6h-10.6h-8h-10.6H4882h-10.6
							h-10.6h-8h-10.6h-10.6H4821h-11h-10.6h-8h-10.6H4770h-10.6h-10.6h-8h-10.6h-10.6H4709h-10.6h-10.6h-8h-10.6h-10.6H4648h-11
							h-10.6h-8h-10.6h-10.6h-10.6H4576h-8h-10.6h-10.6h-10.6h-10.6H4515h-8h-11h-10.6h-10.6H4464h-8h-10.6h-10.6h-10.6h-10.6H4403
							h-8h-10.6h-10.6h-10.6h-10.6h-8H4334h12.4h-10.6h-10.6h-10.6h-8H4296h-10.6h-9.8H4265h-8h-10.6h-10.6h-10.6h-10.6H4204h-8
							h-8.9h-10.6h-10.6h-9.8h-10.6h-8h-10.6h-10.6h-10.6h-10.6h-8h-10.6h-10.6h-10.6h-10.6H4033h-8h-10.6h-10.6h-8h-10.6h-8h-10.6
							H3956h-10.6h-10.6h-10.6h-8h-8.9h-10.6h-10.6h-10.6h-8h-10.6h-10.6h-10.6h-10.6h-10.6h-8h-10.6h-10.6H3774h-10.6h-8h-10.6
							h-10.6h-10.6h-7.1h-10.6h-8h-10.6h-10.6h-10.6h-10.6h-10.6h-8h-8.9h-11h-10.6h-10.6h-8h-10.6h-10.6H3556h-10.6h-10.6h-8h-10.6
							h-10.6H3495h-11h-8h-8h-10.6h-10.6h-9.8h-10.6h-8h-10.6H3397h-10.6h-10.6h-8h-10.6h-10.6H3336h-10.6h-10.6h-8h-10.6h-10.6h-8
							H3267h-8h-11h-10.6h-10.6h-10.6h-10.6h-8h-8.9H3178h-10.6h-10.6H3146h-8h-10.6h-10.6h-10.6h-10.6h-8H3077h-10.6h-10.6h-10.6
							h-10.6h-8H3016h-11h-7.1h-10.6h-8h-10.6H2958h-10.6h-10.6h-10.6h-8h-8.9h-10.6h-10.6h-10.6h-8h-10.6H2848h-10.6h-10.6h-10.6
							h-8h-10.6H2787h-10.6h-10.6h-8h-10.6h-10.6H2726h-7.1h-10.6h-8h-10.6h-10.6H2668h-10.6h-10.6h-8h-8.9h-10.6h-10.6h-10.6h-8
							h-10.6h-10.6H2558h-10.6h-10.6h-8h-10.6h-10.6H2497h-10.6h-8h-8h-10.6h-10.6h-9.8h-10.6h-8h-10.6h-10.6H2389h-10.6h-8h-10.6
							h-10.6H2338h-10.6h-10.6h-8h-10.6h-10.6h-8H2269h-8h-10.6h-10.6h-10.6h-10.6H2208h-8h-8.9h-10.6h-10.6h-10.6h-10.6h-8h-10.6
							h-10.6h-10.6h-10.6h-8H2079h-10.6h-10.6h-10.6h-10.6h-8H2018h-10.6h-7.1h-10.6h-8h-10.6h-10.6h-10.6h-10.6h-10.6h-8h-8.9
							h-10.6h-10.6H1880h-8h-10.6h-10.6h-10.6h-10.6H1819h-8h-10.6H1789h-10.6h-10.6h-8h-8h-10.6h-10.6h-9.8h-10.6h-8h-10.6H1681
							h-10.6h-10.6h-8h-10.6h-10.6H1620h-10.6h-10.6h-8h-10.6H1569h-8h-10.6h-10.6h-8h-10.6h-10.6H1500h-10.6h-8h-8.9h-10.6h-10.6
							h-10.6h-10.6h-8h-10.6h-10.6h-10.6h-10.6h-8h-10.6h-10.6h-10.6h-10.6H1318h-8h-10.6h-10.6h-7.1H1271h-8h-10.6h-10.6h-10.6
							h-10.6H1210h-8h-8.9h-10.6h-10.6H1161h-8h-10.6h-10.6h-10.6h-10.6H1100h-8h-10.6h-10.6h-10.6h-10.6H1039h-8h-11h-10.6h-7.1
							h-10.6h-8H973h-10.6h-10.6h-10.6h-10.6h-8h-8.9h-10.6h-10.6h-10.6h-8H863h-10.6h-10.6h-10.6h-10.6h-8H802h-10.6h-10.6h-10.6
							h-8h-8h-10.6H733h-9.8h-10.6h-8H694h-11h-10.6h-10.6h-8H643h-10.6h-10.6h-10.6h-10.6h-8H582h-10.6h-8h-10.6h-10.6h-8h-10.6
							H513h-11h-10.6h-8h-8.9h-10.6h-10.6h-10.6h-10.6h-8h-10.6h-10.6H392h-10.6h-8h-10.6h-10.6h-10.6H331h-10.6h-8h-10.6h-10.6
							h-7.1h-10.6h-8h-10.6h-10.6h-10.6h-10.6H212h-8h-8.9h-10.6h-10.6h-10.6h-8h-10.6h-10.6h-10.6h-10.6H102h-8H83.4H72.7H62.1
							H51.4h-8h-8H25.3H14.6H4.4H-6.2h-8h-10.6h-10.6H-46h-10.6h-10.6h-8H-86h-10.6h-10.6H-118h-8h-10.6h-10.6h-8h-10.6h-10.6h-8
							H-195h-10.6h-10.6h-10.6h-8h-8.9h-10.6h-10.6h-10.6h-10.6h-8h-10.6h-10.6h-10.6H-337h-8h-10.6h-10.6H-377h-10.6h-10.6h-8
							h-10.6h-10.6h-7.1h-10.6h-10.6h-8h-10.6h-10.6h-10.6h-10.6h-8h-10.6h-10.6h-10.6H-557h-10.6h-8h-10.6h-10.6h-10.6H-618h-8
							h-10.6h-10.6h-10.6h-10.6H-679h-8h-11h-10.6h-10.6H-730h-8h-10.6h-10.6h-10.6h-10.6H-791h-8h-10.6h-10.6h-10.6h-10.6h-8H-860
							h-11h-10.6h-10.6h-10.6h-8h-10.6H-932h-10.6h-10.6h-10.6h-8h-10.6H-993h-10.6h-10.6h-8h-10.6h-10.6h-10.6h-10.6h-10.6h-8
							h-10.6h-10.6h-10.6h-10.6h-8h-10.6h-10.6h-10.6h-10.6h-10.6h-8h-10.6h-10.6h-10.6h-10.6h-8h-10.6h-10.6h-10.6h-10.6h-10.6h-8
							h-10.6h-10.6h-10.6h-10.6h-8h-10.6h-10.6h-10.6h-10.6h-10.6h-8h-10.6h-10.6h-10.6h-10.6h-8h-10.6h-10.6h-10.6h-10.6h-10.6h-8
							h-10.6h-10.6h-10.6h-10.6h-10.6h-8h-10.6h-10.6h-10.6h-10.6h-8h-10.6h-10.6h-10.6h-10.6h-10.6h-8h-10.6V91.8V60.3V31.5V2.6
							v-28.8v-26.2V-83v-26.2v-26.2v-26.2V-185v-26.2L-1691-211.1L-1691-211.1z M1036-428l-8,10.6l-18.2,2.7l10.6,10.6l-49.7,12.9
							l-125.5,12.9h-28.8l-12.9-8l18.2-20.8l31.5-5.3l26.2-18.2l10.6-10.6v-12.9l2.7-8v-5.3l12.9-20.8l52.3-23.5l36.4,2.7l31.5,15.5
							v8l-5.3,8l-28.8,8l34.1,5.3v10.6l-15.5,5.3l23.5,5.3L1036-428z M422.2-741.5l-26.2-8l-2.7-5.3l5.3-2.7l-5.3-2.7l8-5.3
							l12.9,5.3v-8l5.3-2.7l15.5,8l-5.3-10.6l18.2,5.3l8-5.3l-15.5-5.3l8-2.7l23.5,2.7l8-5.3l12.9,2.7l-10.6-12.9l-28.8-5.3l2.7-8
							l20.8-5.3l-10.6-10.6l5.3-8l-2.7-2.7v-5.3l-8-5.3l-2.7-5.3l12.9-10.6l28.8-2.7l2.7,8v5.3l10.6,8l8,26.2l10.6,5.3l5.3,15.5
							l5.3,31.5l-2.7,10.6l-5.3,2.7v10.6l-12.9,5.3l-2.7,5.3l-62.5,8l-15.5-10.6l2.7-5.3l41.7,2.7l8-8h-28.8l20.8-5.3l-18.2-5.3
							l-8-10.6l-12.9,10.6l-20.8-2.7l8,8L422.2-741.5z M-1273.2-425.3l-67.9-10.6l-23.5-12.9l-5.3-8l20.8-20.8l23.5,2.7l62.5,39
							l-2.7,8L-1273.2-425.3z M699.4-409.8L688.7-389l-20.8,8l-47-18.2h-39L563.7-412l88.7,5.3l15.5-8l8-18.2l12.9-5.3l10.6,5.3
							V-409.8z M-58.5-741.5l2.7-2.7l-2.7-8h8v2.7l-2.7,5.3l5.3,2.7l5.3-5.3l2.7-8h10.6l8,5.3l-18.2,10.6l26.2-8l2.7,5.3l-15.5,2.7
							l18.2,5.3l-10.6,5.3L-50-731l-15.5,2.7l-20.8-2.7l5.3-5.3l-65.2-8l44.3-8h5.3l-8,5.3h8l-2.7,2.7l10.6-5.3l2.7,5.3h15.5
							l-10.6-5.3l10.6-8v5.3h10.6l-5.3,8L-58.5-741.5z M482.5-436l-15.5-5.3l2.7-12.9l8-8l65.2-26.2l15.5,2.7l-62.5,47L482.5-436z
							 M-466.1-675.9l-15.5,10.6l-55,8l-10.6-2.7l2.7-5.3v-5.3l2.7-5.3l-15.5-8l18.2-2.7l34.1,5.3h28.8L-466.1-675.9z M-596.5-689.2
							v5.3h18.2l10.6,10.6l-2.7,8l-20.8-2.7l-31.5-18.2h-12.9v-2.7l-5.3-5.3l20.8-8L-596.5-689.2z M349-730.9l5.3,5.3l-2.7,10.6
							l-23.5,10.6l-12.9-8l12.9-5.3l-5.3-8l-8-2.7l5.3-5.3l18.2,8L349-730.9z M427.5-788.5l-39,10.6h-12.9l-2.7-5.3l31.5-12.9
							l10.6,5.3v-8h13l5.3,5.3L427.5-788.5z M5280.9-532.6l-8,8h-28.8l-15.5,10.6l2.7-5.3l-8-2.7h8l-12.9-5.3l8-8l-5.3-5.3l5.3-2.7
							l15.5,8L5280.9-532.6z M419.5-707.4l-5.3,10.6l5.3,8l-5.3,2.7l-31.5-15.5l12.9-5.3l-5.3-5.3l8-5.3L419.5-707.4z M550.4-918.9
							l-10.6,5.3l5.3,2.7l-2.7,5.3h-5.3l-5.3,5.3l-5.3,2.7l-8-8l28.8-31.5h5.3l-8,8L550.4-918.9z M735.7-1018.3l2.7-8l8-2.7l2.7,8
							l5.3-5.3l8,8l-5.3,5.3v2.7l-10.6,2.7l-8-5.3l2.7-8L735.7-1018.3z M1493.2-668.3l2.7,5.3l-5.3,8l8,10.6v5.3l-28.8-15.5
							L1493.2-668.3z M631.1-997.4l-12.9-5.3l15.5-12.9l8,2.7l-5.3,2.7h5.3l-2.7,5.3h8L631.1-997.4z M409.3-817.4l-23.5-2.7l5.3-8
							h15.5l8,8L409.3-817.4z M87.8-722.9v10.6l-10.6,8v-10.6l-5.3-10.6l12.9-2.7L87.8-722.9z M1143.3-480.3l-78.5-2.7l18.2-5.3
							L1143.3-480.3z M-1045.7-537.5l-5.3,5.3h-2.7l-15.5-8l5.3-8l15.5,5.3L-1045.7-537.5z M1845.8-783.2l-10.6-5.3l-2.7-8l28.8,2.7
							L1845.8-783.2z M730.4-1078.6l-7.5-2.2l12.9-8h12.9l2.7,2.7l-12.9,5.3l-2.7-2.7L730.4-1078.6z M774.8-1041.8l-2.7-2.7
							l10.6-5.3l20.8,2.7L774.8-1041.8z M-86.9-718l-26.2-5.3L-79-726l5.3,5.3L-86.9-718z M-411.1-675.9l-8,10.6h-20.8l10.6-8
							L-411.1-675.9z M662.6-830.2l-8-15.5l2.7-8l12.9,12.9L662.6-830.2z M-1092.7-556.1h10.6l8,10.6l-31.5-8L-1092.7-556.1z
							 M-708.7-657.7l-2.7,8l-23.5-5.3l8-5.3L-708.7-657.7z M-643.5-650.2l-12.9-12.9l20.8,5.3v5.3L-643.5-650.2z M2219.6-814.7
							l-12.9-5.3l15.5-5.3l5.3,5.3L2219.6-814.7z M3922.6-973.9l-8,5.3l-12.9-2.7l10.6-8L3922.6-973.9z M699.4-1062.6l-2.7-5.3
							h-15.5l20.8-2.7l5.3,2.7L699.4-1062.6z M652.4-1008.1h-2.7l5.3-8v-5.3l8,5.3L652.4-1008.1z M463.9-832.9l-12.9,2.7l-5.3-5.3
							l8-2.7L463.9-832.9z M98.5-707.4v-5.3l8-5.3l10.6,2.7L98.5-707.4z M3964.7-976.6l-5.3-2.7l-8-8h8L3964.7-976.6z M798.3-1106.9
							l-5.3-5.3l2.7-2.7h15.5L798.3-1106.9z M5236.6-498.5l-5.3-2.7l10.6-8l5.3,5.3L5236.6-498.5z M581.4-963.3l2.7-10.6h8l-2.7,5.3
							h-2.7v5.3H581.4z M-191.6-702.1l-8-5.3l5.3-5.3l8,8L-191.6-702.1z M5288.9-686.5l-8-2.7l10.6-10.6v10.6L5288.9-686.5z
							 M3342.9-798.7l-8-2.7l-2.7-8l5.3-2.7L3342.9-798.7z M1845.8-812v5.3l-10.6,2.7l2.7-5.3L1845.8-812z M3617-924.2l-12.9-10.6
							l10.6,2.7l5.3,5.3L3617-924.2z M1958.4-798.7l-5.3-2.7l2.7-5.3l10.6,2.7L1958.4-798.7z M-1069.2-558.4l-8-2.7l5.3-2.7
							l15.5,2.7L-1069.2-558.4z M553-898.1h-5.3l2.7-5.3H561L553-898.1z M999.6-1122.9l-18.2-5.3l12.9-2.7L999.6-1122.9z
							 M5221.1-495.8l-5.3-2.7h2.7l-2.7-5.3l12.9,5.3L5221.1-495.8z M336.2-699.4h15.5l-10.6,5.3L336.2-699.4z M-1027.5-579.7
							l-10.6-8l10.6-2.7l2.7,10.6L-1027.5-579.7L-1027.5-579.7z M-1030.2-550.8l-2.7-8l15.5,2.7L-1030.2-550.8z M-1069.2-550.8h-8
							l5.3-5.3l15.5,5.3H-1069.2z M12-725.6l-18.2,2.7l12.9-8L12-725.6z M-1100.7-563.7h12.9l-12.9,2.7l-5.3-2.7H-1100.7z
							 M686.1-796.1l-5.3-5.3l8-2.7l2.7,2.7L686.1-796.1z M3831.2-950.4l-10.6-2.7l10.6-2.7l2.7,2.7L3831.2-950.4z M-1035.5-571.7
							l8,8h-8l-2.7-5.3L-1035.5-571.7z M2159.3-819.6l5.3,2.7l-2.7,2.7l-12.9-2.7L2159.3-819.6z M432.8-704.7l-5.3,10.6l-5.3-2.7
							L432.8-704.7z M777.4-1049.7l-5.3-5.3h10.6L777.4-1049.7z M-1004-610.7l8,8l-12.9-5.3L-1004-610.7z M688.7-1028.9H686l2.7-5.3
							h5.3L688.7-1028.9z M2856.9-906.1l-5.3,2.7h-5.3l2.7-5.3L2856.9-906.1z M756.6-1005.4l-2.7-2.7l12.9-5.3L756.6-1005.4z
							 M782.7-1036.4l-2.7-5.3h8L782.7-1036.4z M3747.8-965.9h-5.3l2.7-2.7l8,2.7H3747.8z M1780.6-806.7v5.3l-8-2.7L1780.6-806.7z
							 M694-783.2l-10.6-5.3h8L694-783.2z M5189.6-906.1l-5.3-10.6l5.3,5.3V-906.1z M2867.5-929.6l-2.7-2.7h10.6L2867.5-929.6z
							 M756.6-1026.2l-8-2.7h12.9L756.6-1026.2z M636.4-994.7l-2.7-2.7l8-2.7L636.4-994.7z M555.7-929.6l-2.7-5.3l8,2.7L555.7-929.6
							z M3267.1-738.9l5.3-5.3l2.7,2.7L3267.1-738.9z M712.2-986.8l2.7,5.3l-8-5.3H712.2z M3627.7-932.2l-2.7-5.3l8,2.7
							L3627.7-932.2z M568.5-947.7v-8h2.7L568.5-947.7z M709.6-1067.9l-5.3-5.3l8,2.7L709.6-1067.9z M714.9-1070.6l-5.3-5.3h8
							L714.9-1070.6z M93.1-859l-2.7-5.3h5.3L93.1-859z"/>
					</g>
				</g>
			</g>
		</g>
	</g>
	<g>
		<g>
			<g>
				<defs>
					<rect id="SVGID_3_" y="90" width="612" height="612"/>
				</defs>
				<clipPath id="SVGID_4_">
					<use xlink:href="#SVGID_3_"  overflow="visible"/>
				</clipPath>
				<g clip-path="url(#SVGID_4_)">
					<g>
						
							<polygon fill="#DDDDDD" stroke="#FFFFFF" stroke-width="1" stroke-linecap="round" stroke-linejoin="round" stroke-miterlimit="10" points="
							-118.4,287.3 -123.3,287.3 -130.4,278.9 -136.1,276.7 -145.5,278.9 -160.5,288.2 -174.3,272.3 -178.7,263.8 -183.6,250.1 
							-176.5,242.1 -172.1,238.6 -177.8,236.3 -178.7,232.8 -184.9,230.1 -184.9,227.9 -180.1,227.9 -188,217.7 -196.5,217.7 
							-197.3,212 -203.1,209.3 -197.3,201.3 -200,199.1 -198.7,193.3 -196.5,190.7 -195.1,188.5 -192.9,186.2 -187.1,193.3 
							-182.3,192 -183.6,184.9 -176.5,181.8 -176.5,178.3 -168.5,175.6 -166.3,172.5 -165,173.4 -165,171.2 -159.2,172.5 
							-160.5,174.7 -157,174.7 -155.7,172.5 -151.2,171.2 -148.6,174.7 -141.9,174.7 -132.6,181.8 -132.6,184.9 -130.4,184 
							-131.3,180.5 -131.3,179.1 -122,184.9 -114,179.1 -109.1,179.1 -106,181.8 -103.3,180.5 -102.4,178.3 -97.6,178.3 
							-95.3,179.1 -95.3,181.8 -88.3,184 -87.4,186.2 -84.7,184.9 -82.5,181.8 -76.7,184 -71,182.7 -68.7,176.9 -74.5,172.5 
							-80.3,172.5 -78.9,169.8 -83.8,168.9 -74.5,164.1 -76.7,159.6 -73.2,156.1 -63.9,156.1 -65.2,154.7 -73.2,152.5 -72.3,150.3 
							-69.6,150.3 -75.8,149 -72.3,146.8 -74.5,144.5 -71,143.2 -63,143.2 -60.3,145.4 -59.4,143.2 -54.5,142.3 -39.5,138.8 
							-37.3,139.7 -37.3,137.5 -35,136.1 -10.6,131.7 -9.3,130.4 -10.6,129.5 -7.1,129.5 -5.8,127.3 -3.5,128.1 -3.5,125.9 8,130.4 
							9.3,128.1 12.4,128.1 15.1,133.9 17.3,135.2 16,139.7 13.7,139.7 16,143.2 17.3,141 19.5,143.2 20.8,141 25.3,142.3 
							23.1,139.7 27.5,142.3 26.6,145.4 30.2,144.5 27.5,143.2 28.8,142.3 34.6,144.5 39.5,143.2 38.1,145.4 35.9,145.4 34.6,148.1 
							35.9,151.2 40.4,148.1 45.2,150.3 45.2,148.1 47.5,145.4 66.1,138.8 64.7,142.3 62.5,142.3 63.9,144.5 75.4,152.5 94.9,182.7 
							98.5,180.5 98.5,178.3 99.8,175.6 104.2,178.3 103.3,180.5 106.4,180.5 106.4,182.7 115.7,182.7 118.4,180.5 125.1,180.5 
							129.9,182.7 132.2,188.5 137.9,190.7 137.9,192 140.1,196.9 148.6,197.8 154.3,194.2 153,196.9 158.8,202.6 155.2,201.3 
							153,208.4 145,209.3 142.8,215.1 145,222.2 142.8,224.4 136.6,227.9 135.7,225.7 128.6,225.7 120.6,223.5 114.9,242.1 
							117.1,243 117.1,246.5 111.3,246.5 109.1,244.3 92.7,248.8 98.5,251.4 97.1,251.4 97.1,257.2 100.7,267.4 97.1,268.7 
							99.8,270.9 96.2,270.9 94.9,273.2 96.2,278 94,275.8 89.1,275.8 86.9,272.3 67,269.6 56.8,269.6 55.4,272.3 43.9,267.4 
							36.8,268.7 35.9,273.2 36.8,275.8 25.3,272.3 18.2,272.3 15.1,274.5 12.4,276.7 13.7,278 -2.7,287.3 -2.7,288.2 -7.1,291.8 
							-7.1,295.3 -8.4,295.3 -12,293.1 -10.6,290.9 -12.9,288.2 -23.5,289.6 -25.7,280.3 -30.2,280.3 -29.3,269.6 -31.5,270.9 
							-33.7,266.5 -39.5,261.6 -44.3,263.8 -54.5,263 -65.2,263.8 -73.2,255.9 -96.7,242.1 -118.4,247.9 						"/>
						<path fill="#DDDDDD" stroke="#FFFFFF" stroke-width="1" stroke-miterlimit="10" d="M980.5-1.8l-12.9,7.1l2.2-1.3l-10.6-1.3
							l-5.8-4.4h-5.8h5.8l3.5,3.5h-2.2l-9.3-2.2l-1.3,1.3l-2.2,1.3l-10.6,2.2l10.6-1.3l3.5-2.2l3.5,2.2l-3.5,2.2l12.9-2.2L957,5.3
							l2.2,3.5l4.4,1.3l1.3-1.3l2.2,2.2l-1.3,2.2l2.2,1.3l1.3,3.5l-4.4,1.3h3.5v2.2l1.3-2.2l1.3,3.5l4.4,2.2l-2.2,2.2l3.5,4.4
							l-3.5,2.2l-1.3,2.2L957,32.8l1.3-3.5l-2.2,2.2l-2.2-2.2v2.2l2.2,1.3l-23.1,8l1.3,1.3l-1.3,1.3l-9.3,1.3l-1.3,2.2l-2.2,2.2
							h-3.5l1.3,1.3l-4.4,1.3l1.3,2.2h-4.4l2.2,1.3l-2.2,1.3v-1.3L899,62.3l-3.5,7.1l-4.4-7.1l-4.4-2.2h-9.3l-11.5,3.1l-8,7.1l2.2-8
							h-1.3l-10.6,4.4l1.3,1.3l-3.5,3.5l-2.2-4.4l-3.5,3.5l-0.9-3.1h-3.5l1.3,1.3l-3.5,1.3v2.2L832,74l1.3,3.5l-2.2,1.3l1.3,2.2
							l-3.5-1.3l2.2,1.3l-5.8,4.4l-4.4,8l3.5,4.4l2.2-3.5l5.8,1.3v1.3l-1.3,3.5l-3.5,2.2l1.3,5.8l1.3,2.2l2.2-1.3l1.3,7.1l-2.2,2.2
							l-4-2.2l3.5-3.5h-1.3l-4.4,1.3l1.3,1.3l-4.4,2.2l-3.5,8l4.4,9.3l-3.5,2.2l-3.5,1.3l-5.8-1.3l-7.1,4.4l-1.3,5.8l1.3,2.2h-1.3
							l2.2,4.4l-4.4-2.2l-7.1,4.4l-3.5-1.3l1.3,1.3h1.3l-1.3,3.5h-1.3l1.3,3.5l-2.2,4.4l-13.7,12.9l1.3-2.2l-2.2-3.5l-2.2-13.7h1.3
							l-2.2-3.5l-4.4-25.7v-12l3.5-9.3l8-9.3l-1.3-4.4l12.9-3.5l12.9-10.6l1.3-3.5l5.8-5.8l11.5-8L822,62l16.4-7.1l-2.2-1.3l4.4-3.5
							l-2.2-2.2l2.2-4.4l1.3-5.8l4.4-3.5l5.8,2.2l-1.3-2.2l3.5,1.3L843.5,31l-10.6,2.2v2.2l1.3,1.3L832,38l-1.3,5.8l3.5,2.2
							l-3.5,2.2l-1.3-3.5l-1.3,1.3v1.3l-3.1-1.8l-15.1,12.9l-5.8,1.3l2.2-5.8l-4.4,1.3l1.3-2.2l-1.3-2.2l4.4-5.8v-2l-7.1,3.5L797,43
							l-11.5,2.2l-4.4-1.3l-7.1,3.5v4.4l-5.8,2.2l-0.9,3.5L752.2,69l1.3,3.5l-2.2,2.2l3.5,1.3v-2l7.1,2.2l-1.3,2.2l-3.5,1.3
							l-2.2-1.3l-3.5,2.2l-6.2-2.2l-4.4,3.5l-4.4-1.3l-9.3,2.2l-2.2-3.5l10.6-1.3l-4.4-1.3l-2.2-3.5l-7.1,1.3h-3.1l2.2-1.3l-9.3-2.2
							l-4.4,1.3l1.3,2.2h-4.4v1.3h2.2V78l-4.4-1.3l-1.3-1.3l-7.1,2.2l-5.8-2.2l-3.5-1.3l-1.3,1.3v2.2l-3.5,1.3l-1.3-2.2l1.3-1.3
							h-18.6l-13.7,3.5l-5.8,5.8l-7.1,4.4l-3.5,7.1l-16.4,10.6l-8,10.6l-22.2,15.1v2.2l4.4,2.2l9.3-1.3v5.8L596,145l1.3,1.3l3.5-1.3
							l1.3-2.2l-2.2-1.3l1.3-1.3l4.4-1.3l-3.5,3.5l4.4,1.3l-5.8,4.4l1.3,1.3l5.8-1.3l5.8-4.4v2.2l-3.5,2.2l2.2,1.3l2.2-5.8v-4.4
							l5.8,2.2l3.5-1.3l3.5,2.2l1.3,2.2l2.2,2.2l7.1,4.4l1.3,2.2l-2.2,1.3l-4.4-1.3l4.4,3.5l1.3,2.2l-2.2,2.2l3.5,2.2l-1.3,2.2v1.3
							l-5.8,7.1v4.4l-2.2,3.5l1.3,5.8l1.3,1.3l-2.2,2.2l1.3,3.5l-2.2,3.5l1.3,3.5l-2.2,5.8l-8,7.1l-5.8,9.3l-4.4,9.3l-19.5,19.5
							l-7.1,9.3l-10.6,7.1l-7.1,2.2l-5.8-3.5l-1.3,1.3v-4.4l-3.5,2.2h-1.3l2.2-2.2h-2.2l-4.4,8l-5.8-1.3l2.2,1.3l-1.3,2.2l-1.3-1.3
							l-2.2-3.5l7.1-1.3l1.3-5.8l-1.3-1.3l1.3-5.8l-3.5-8l4.4-2.2l3.5-3.5l10.6,3.5l1.3-4.4l3.5-2.2v-2.2l3.5-4.4v-2.2l1.3-2.2
							l1.3-7.1l5.8-4.4l-2.2-3.5l1.3-2.2l-2.2-2.2l-8,4.4l-3.5-1.3l-5.8,4.4H549l-3.5-4.4l1.3-2.2l-2.2-3.5l1.3-2.2h-3.5l-7.1-7.1
							l-3.5,1.3l-3.5-2.2h-7.1l-3.5-3.5l1.3-4.4l-2.2-1.3l-1.3-4.4l-2.2-3.5v-3.5l-1.3,1.3l1.3-1.3l-4.4-8l1.3-1.3l-4.4-5.8v-1.3
							l-3.5-2.2v-1.3l-10.6-2.2l-8-4.4l-24.4,3.5l-7.1,5.8v2.2l5.8,1.3v2.2l1.3,2.2l-7.1,5.8l-11.1,16h2.2v3.5l-6.7,0.9l-5.8,4.4
							l-10.6-3.5l-4.4-2.2l-7.1,2.2l-5.8-4.4h-4.4l-12.9,8l-18.6,4.4l-18.6-2.2l-5.8-3.5V192l-7.1-1.3l-4.4-3.5l-11.5-1.3l-11.5,3.5
							H301l-8-4.4l-1.3-9.3l-19.5-4.4l-9.3-4.4l-2.7,3.1l-5.8,4.4l-2.2,5.8l2.2,3.5l2.2,1.3v3.5l-2.2,2.2l-5.8,3.5l-11.5-2.2
							l-4.4,1.3l-8-2.2l-3.5-5.8h-10.6l-1.3-2.2l-2.2,1.3l-3.5-2.2l-23.5,9.8v2.2l-3.5,1.3l-1.3,1.3l-8,1.3v2.2l-3.5,1.3l-4.4,1.3
							l-5.8-5.8l1.3-2.2l-5.8,3.5l-8-1.3l-2.2-4.4v-1.3l-5.8-2.2l-2.2-5.8l-4.4-2.2h-7.1l-2.2,2.2H107v-2.2h-3.5l1.3-2.2l-4.4-2.2
							l-1.3,2.2v2.2l-3.5,2.2l-19.5-31l-11.5-8l-1.3-2.2h2.2l1.3-3.5l-18.6,7.1L46,148v2.2l-4.4-2.2l-4.4,3.5l-1.3-3.5l1.3-2.2h2.2
							l0.9-2.7l-4.4,1.3l-5.8-2.2l-1.8,0.9l2.2,1.3l-3.1,0.9l1.3-3.5l-4.4-2.2l2.2,2.2l-4.4-1.3l-1.8,2.7l-2.2-2.2l-1.3,2.2
							l-2.2-3.5H16l1.3-4.4l-2.2-1.3l-2.7-5.8H9.3L8,130.4L-3.5,126v2.2l-2.2-1.3l-1.3,2.2h-3.5l1.3,1.3l-1.3,1.3l-24.4,4.4
							l-2.2,1.3v2.2l-2.2-0.9l-15.1,3.5l-4.4,1.3l-1.3,2.2l-2.2-2.2H-71l-3.5,1.3l2.2,2.2l-3.5,2.2l5.8,1.3h-2.2l-1.3,2.2l8,2.2
							l1.3,1.3h-9.3l-3.5,3.5l2.2,4.4l-9.3,4.4l4.4,1.3L-81,172h5.8l5.8,4.4l-2.2,5.8l-5.8,1.3l-5.8-2.2l-2.2,3.5l-2.2,1.3l-1.3-2.2
							l-7.1-2.2V180l-2.2-1.3h-4.4l-1.3,2.2l-2.2,1.3l-3.5-2.2h-4.4l-8,5.8l-9.3-5.8v1.3l1.3,3.5l-2.2,1.3v-3.5l-9.3-7.1h-7.1
							l-2.2-3.5l-4.4,1.3l-1.3,2.2h-3.5l1.3-2.2l-5.8-1.3v2.2l-1.3-1.3l-2.2,3.5l-8,2.2v3.5l-7.1,3.5l1.3,7.1l-4.4,1.3l-5.8-7.1
							l-2.2,2.2l-1.3,2.2l-2.2,2.2l-1.3,5.8l2.2,2.2l-5.8,8l5.8,2.2l1.3,5.8h8l8,10.6h-4.4v2.2l5.8,2.2l1.3,3.5l5.8,2.2l-4.4,3.5
							l-7.1,8l4.4,13.7l4.4,8l-16.4,16.4h-4.4l-5.8-7.1h-2.2l-7.1-3.5V274l-7.1-2.2l-9.3,2.2l-1.3-1.3l1.3-1.3l-9.3-4.4h-10.6
							l-11.5-4.4l-2.2,2.2l-11.5-9.3l-4.4-1.3l-3.5-3.5h-3.5l-2.2-3.5l-5.8-2.2l3.5-1.3h-2.2l1.3-1.3l3.5,2.2l4.4-1.3l-1.3-3.5
							l3.5-4.4l1.3,1.3l1.3-2.2l3.5,1.3l-5.8-3.5l-2.2-3.5h8h-2.2V227l8-2.2v-2.2l-9.3,1.3l1.3-4.4l3.5-2.2l1.3-1.3h8l2.2-5.8
							l-3.5-3.5l3.5-2.2l-3.5-2.2l4.4-2.2v-3.5h-3.5l-5.8-3.5h-1.3l-5.8-2.2l-3.5,2.2l-4.4-7.1l-7.1,2.2l-4.4-2.2l-4.4,1.3l-1.3-2.2
							l-1.3-5.8l-2.2-2.2h-5.8l-2.2-4.4l2.2-2.2l-5.8-5.8h-12.9l-1.3,3.5l-3.5-1.3l-2.2-2.2v-5.8l-2.2-2.2l1.3-2.2l7.1,1.3l4.4-4.4
							l-2.2-1.3v-1.3l-5.8-1.3v-4l-4.4-2.2l-1.3-4.4l-3.5-2.2l2.2-2.2l-2.2-3.5l1.3-3.5l-6.7-4l-7.1,2.2v-3.1h-5.8l-5.8-2.2l1.3-2.2
							l-3.5-6.2l-1.3-1.3l1.3-5.8l-4.4-2.2l1.3-3.5l3.5-1.3l-3.5-4.4v-7.1l3.5-7.1h2.2l-1.3-2.2V70l3.5,2.2l1.3-2.2l2.2,1.3l3.5-3.5
							l8,2.2l1.3-2.2l-15.1-4.4l-1.8-2.7l2.2,1.3l-1.3-2.2l1.3-1.3l-8,2.2l31.5-26.6l2.2-5.8l-2.2-4.4l-11.5-7.1l5.8-4.4v-2.2
							l-4.4-2.2l-1.3-2.2l2.2-1.3l-1.3-2.2l-4.4-1.3v-2.2l2.2-1.3L-353-4l2.2-7.1h2.2l-2.2-7.1l-7.1-10.6l8-12.9l-5.8-5.8l-5.8-1.3
							l-2.2-5.8l3.5-4.4l-3.5-1.3l4.4-2.2h2.2l1.3-3.5l7.1-3.5v-2.2l7.1,2.2v-4.4l8,2.2v-2.2h2.2l-1.3-1.3l1.3-1.3l9.3,3.5l-2.2,2.2
							h-7.1l3.5,1.3l-2.2,1.3h7.1l-1.3,2.2l5.8-2.2l-2.2,2.2l2.2,1.3v1.3l-4.4,3.5l3.5-2.2l3.5-3.5l19.5,2.2l16.4,7.1l5.8,5.8
							l9.3,4.4h2.2v-2.2l5.8,7.1l5.8,1.3v5.8l2.2,2.2l-2.2,4.4l-9.3,8l-12.9,2.2l-27.9-4.4l-5.8-3.5l-3.5,1.3l-7.1-3.5h-3.5
							l-4.4-4.4l-8-1.3l3.5,1.3l5.8,4.4v1.3l4.4,1.3l-4.4,1.3h4.4h-3.5l5.8,1.3l-2.2,2.2l7.1,1.3l5.8,4.4l1.3,3.5l-2.2-1.3v4.4
							l-2.2,1.3l4.4,8V4l-1.3,1.3l1.3,1.3l10.6,3.5l1.3,3.5l11.5,2.2l4.4-2.2l-1.3-4.4l-7-1.2l-5.8-4.4l-1.3-3.5h3.5l1.3-3.5
							l12.9,4.4l-2.2,2.2v1.3l3.5-2.2l17.3,3.5l-1.3-4.4l-5.8-7.1l1.3-3.5l13.7-7.1l7.1-7.1l10.6,2.2l3.5,2.2l-3.5,2.2v1.3h1.3v-1.3
							l3.5-1.3l2.2,4.4v-4.4l1.3-3.5l2.2-3.5l-1.3-2.2l1.3-2.2l-7.1-4.4l3.5-7.1v-2.2l1.3-1.3h-1.3l1.3-4.4l-8-7.1l23.1,3.5l4.4,5.8
							l2.2,4.4l-11.5,1.3l-4.4,5.8l5.8,2.2l4.4,5.8l4.4-1.3l-2.2,2.2l11.5-3.5v-3.5l2.2-3.5l-1.3-2.2l2.2-1.3h9.3l-4.4-4.4l5.8,1.3
							l13.7-8l11.5-2.2l2.2,1.3l-2.2,1.3l1.3,1.3l4.4-2.2l-2.2-1.3l1.3-1.3h-2.2l10.6-4.4l9.3-1.3l-8,1.3l3.5,1.3l-3.5,3.5l2.2,3.5
							l-5.8,2.2l8,1.3l2.2-2.2l3.5,2.2l1.3-3.5l9.3-3.5l11.5,1.3l8-4.4l1.3,1.3l-1.3-2.2l5.8-2.2h2.2l-2.2,1.3l4.4,3.5l-3.5,1.3v3.5
							h7.1l1.3-1.3l-1.3-3.5l9.3-3.5v-4h-2.2l-3.5-7.1l7.1-4.4l28.8,5.8l7.1,3.5l-2.2,2.2l2.2-2.2l17.3,7.1l10.6,7.1l1.3,3.5
							l4.4-7.1l2.2-3.5L-4-59.5h2.2l-6.7-1.3l-3.5-4.4v-3.5l-9.3-2.2l-0.9,1.8l-1.3-1.3l1.3-7.1l3.5-1.3l-1.3-1.3l1.3-9.3l-5.8-1.3
							l2.2-3.5h-2.2l2.2-2.2L-8.6-107l4.4-13.7l3.5-4.4l19.5,1.3l10.6,2.2v2.2l1.3,6.7l-4.4,7.1v2.2l-4.4,3.5l7.1,5.8l1.3,4.4
							L29-86.2l0.9,3.5l-3.5,2.2l2.2,1.3L27.3-77l1.3,3.5L27.3-70v9.3l10.6,8.9l-5.8,2.2l1.3,5.8l-1.3,2.2l-4.4,2.2l-1.3,4l-3.5,1.3
							l2.2,1.3l-4.4,3.5H18l1.3,4.4l-8,2.2L8-24.9l3.5-2.2h-15L0-22.6l23.1,3.5l3.5-1.3l1.3-4.4l11.5-4.4l1.3-4.4l2.2-3.5l4.4-4.4
							v-5.8l-3.5-4.4l1.3-4.4l16.4-4.4l9.3,8L69.5-49H71l-1.3,4.4l1.3,1.3L68.8-42l5.8,3.5H86l-13.7-2.2l1.3-7.1l4.4-1.3l-3.5-3.5
							l-1.3-7.1l-13.7-4.4L48-61.9l-9.3-1.3l2.2-3.5l-3.5-5.8l0.9-5.8l5.8-5.8v-2.2L37-96.9l-4.4-2.2l4.4-4.4v-2.2l12.9-4.4l1.3-4.4
							L49-122h4.4l2.2,4.4l-1.3,1.3l2.2,3.5l-4.4,7.1l2.2,3.5L51.9-98l13.7,2.2l1.3,2.2v-2.2l5.8,1.3l7.1,3.5l5.8-1.3h-4.4v-2.2H79
							v-2.2h-3.5l1.3-1.3l-4.4,1.3l-10.6-4.4l-2.2-5.8l7.1-2.2l8,3.5l4.4-2.2l-8.4-1.8l1.3-2.2l9.3-3.5h8l12.9,4.4l-2.2,1.3l9.3,5.8
							H123l-3.5,4.4l-5.8,2.2l1.3,3.5l-1.3,1.3l2.2,3.5l-3.5,3.5l2.2,5.8l-1.3-5.8l2.2-1.3l2.2-4.4h3.5l-0.4,8l-3.5,3.5l4.4,2.2
							v-1.3l-1.3-3.5l7.1-2.2l-5.8-12.9l4.4-5.8l-1.8-3.5l-10.6-4.4l1.3-1.3l-2.2-1.3l-11.5-4.4v-1.3l-1.3-1.3l1.3-4.4l-4.4-3.5
							l3.5-1.3l-3.5-1.3l3.5-3.5l-1.3-1.3l41.7-2.2l13.7-3.5l2.2,2.2l-11.5,4.4l1.3,3.5l8,4.4l-8.4-4.4v-2.2l11.5-2.2l4.4-4.4
							l-3.5,1.3l-2.2-3.5h2.2l-11.5-4.4l4.4-2.2l3.5,1.3l-1.3,1.3l3.5-1.3l-11.5-5.8l3.5-2.2l6.2,2.2l-1.3-1.3l5.8-4.4h-2.2l5.8-1.3
							l-8-2.2l9.3,1.3l11.5-7.1l5.8-1.3l37.3-7.1l-10.2,1.3v-3.5l2.2-1.3h22.2l4.4,1.3l-5.8,3.5l8-2.2l1.3,1.3l-1.3,0.9l7.1-3.5
							l-1.3,2.2l5.8-1.3l-1.3-1.3l10.6-3.5l8,3.5l-4.4,5.8l-1.3,3.5l9.3,7.1l-3.5-5.8l-4.4-1.3v-2.2l1.3-1.3l1.3-1.3l3.5-2.2v-2.2
							l-9.3-8h18.2l11.5,2.2l-11.5-2.7l2.2-3.5l-2.2-1.3v-2.2l19.5-12.9l10.6-2.2l14.2,3.5l3.5,3.5l-19.5,5.8l16.4-1.3l-3.5,2.2
							l11.5-1.3l5.8,2.2l-9.8,7.5v1.3l12.9-1.3l1.3-3.5l31.5,1.3l5.8,4.4L377-185l3.5-1.3l3.5,2.2l-1.3,1.3l2.2,2.2l-2.2,1.3
							l5.8-1.3l-2.2-2.2h2.2l2.2,2.2v4.4h3.5l-3.5,5.8l1.3-2.2l-11.5-3.5l4.4,3.5v2.2l3.5-2.2l2.2,3.5l1.3-1.3v4.4l-16,12h-4.4
							l-15.1,5.8h3.5v2.2l-15.1,8l-9.3,1.3l-3.5,4.4l-7.1,1.3l-1.3,4.4l-5.8,3.5l9.3-2.2l-1.3-2.2l1.3-2.2h18.6l9.3-3.5l-2.2-2.2
							l5.8,2.2l9.3-4.4h-10.6l-1.3-2.2l4.4-3.5l8,2.2l2.2-1.3v2.2l9.3,2.2l4.4-1.3v-3.5l5.8,5.8l-3.5,3.5l3.5,1.3v4.4v2.2l-3.5,2.2
							l1.3,1.3l8,2.2l-9.3-3.5l3.5-2.2v-4.4l4.4-2.2l-4.4-2.2l17.3-3.5l30.2,2.2l1.3,1.3l-5.8,1.3v3.5l12.9,4.4h18.6l25.7,5.8
							l11.5,5.8l2.2-1.3l7.1,8l1.3,7.1v-5.3l1.3-2.2l-3.5-2.2l-2.2-5.8h2.2l7.1,1.3l8,9.3l4.4-1.3l-1.3-2.2l4.4,4.4l-7.1,1.3h3.5
							l4.4,8l8,4.4l1.3-2.2l1.3,3.5l2.2,1.3l3.5-3.5l2.2-4.4h3.5l-2.2-1.3l1.3-3.5l5.8-7.1v2.2l8,5.8l7.1,1.3l13.7-4.4l17.3,8
							l-2.2-1.3l4.4-1.3l-3.5-2.2l2.2-2.2l5.8-1.3l3.5,3.5l7.1-1.3l-2.2-7.1l-2.2-1.3l7.1-3.5l-8,1.3l-1.3-2.2l3.5-3.5l12.9-2.2
							l-3.5-4.4l55.9,9.3l-16.4-2.2l-4.4,3.5h-3.5l3.5,1.3l9.3-1.3l11.5-1.3l-8,8v-3.1l3.5-1.3l-3.5,1.3l-2.2-3.5l1.3,5.8l-7.1-1.3
							l1.3,2.2l-2.2,2.2l3.5,1.3l7.1-2.2l9.3-9.3H702l10.6,3.5l2.2,3.5l-2.2,2.2l-3.5-2.2l-4.4,1.3l2.2,1.3l-2.2,1.3l10.6,1.3
							l1.3,1.3l-2.2,1.3h7.1l-5.8,4.4l5.8-3.5v2.2l7.1-1.3l5.8,5.8h-3.5l4.4,1.3l32.4-3.5l27.9,4.4l9.3,7.1v2.2l-2.2,2.2v1.3
							l-1.3,2.2l11.5,4.4v8l2.7,1.3l-2.2,5.8v1.3h-1.3h-2.2l1.3,1.3l2.2-1.3l3.5-5.8l-1.3-7.1l10.6-4.4l12.9-1.3l4.4,2.2l20.8,2.2
							l8-4.4l3.5,3.5l1.3,4.4l9.3,2.2l2.2,4.4h8l-1.3-1.3l2.2,1.3l3.5-3.5l-1.3-4.4l-3.5-4.4h-3.5l3.5-2.2v-6.2h-0.9h1.3l18.6,2.2
							l4.4,3.5l2.2-1.3l-2.2-1.3l2.2-1.3l23.1,1.3l5.8,3.5l18.6,4.4l2.2,1.3H968l5.8,1.3l5.8,3.5v8v7.1v8v7.1v7.1v8v7.1v7.1
							L980.5-1.8L980.5-1.8z M-2211.2-60.8l4.4,1.3l12.9,10.6l2.2-1.3l-5.8-3.5l7.1,3.5v1.3l18.6,8l3.5,3.5l-2.2,2.2l4.4-1.3
							l-1.3,4.4l2.2,4.4l-2.2,2.2l4.4,1.3v3.5l3.5-2.2v3.5l2.2-3.5l-4.4-1.3l3.5-2.2l-1.3-4.4h-4.4l8-1.3l4.4,1.3l-1.3,2.2h1.3v-2.2
							l7.1,1.3l-5.8-1.3l11.5,1.3l3.5,4.4l7.1,4.4l-1.3,1.3l8,2.2v1.3l-7.1,2.2l-1.3,3.5l-8-3.5l4.4,3.5V-8h-9.3l2.2-1.3l-8-2.2
							l4.4,3.5v4h-3.5l4.4,2.2l-9.3,3.5h2.2l1.3,1.3l-2.2,1.3l5.8,2.2h-5.8l1.3,2.2l-2.2,1.3l-2.2-1.3l1.3-2.2l-1.3-2.2l1.3,2.2
							l-3.5,2.2l-10.6-7.1h-4.4l-4.4-3.5l1.3-1.3l-2.2-4.4l-9.3-2.2l-12.9,1.3l1.3-2.2l-4.4-4.4l3.5-2.2v-3.5l-3.5,3.5l-2.2-3.5v1.3
							h-2.2l1.3,2.2l-3.5,1.3v4.4l3.5,2.2l-3.5,5.8l-2.2,2.2v-7.1v-7.1v-8v-7.1v-7.1v-8v-7.1v-8h-0.3V-60.8z M-2211.2-101.6h12.9
							l9.3,5.8l-3.5,2.2l-13.7,2.2l-4.4-1.3v-4.4v-4.4L-2211.2-101.6L-2211.2-101.6z M980.5-92.3l-10.6,3.5l-1.3-4.4l11.5-8v4.4v4.4
							L980.5-92.3L980.5-92.3z M-133.5-134l8-3.5l-10.6,1.3l-3.5-3.5l10.6-2.2l-2.2-1.3l3.5-2.2l8,1.3l-7.1-2.2l5.8-1.3l-4.4-1.3
							l1.3-1.3l8-1.3l-7.1-2.2l9.3-1.3l-7.1-2.2l8-2.2l-7.1-1.3v-1.3h-1.3l1.3-2.2l5.8,2.2l3.5-2.2l-2.2-1.3l1.3-1.3h8l-2.2-2.2
							l5.8-1.3l-1.3-2.2l20.8-5.8l-2.2-1.3l2.2-1.3h4.4l-3.5,2.2h2.2l3.5-2.2h-2.2l2.2-2.2l12.9,1.3l13.7-2.2l12.9-4.4l3.5,1.3
							l-2.2-3.5l2.2-1.3l17.3-4.4l9.3,4.4l-1.3,3.5l-4.4,5.8l-12,4l-28.8,5.8l-18.6,9.3l-2.2-1.3l-4.4,4.4h-7.1l7.1,2.2l-4.4,1.3
							l1.3,1.3h-1.3h-5.8l2.2,1.3v2.2l-5.8-2.2l1.3,1.3l-1.3,3.5l-8-2.2l3.5,2.2l1.3,3.5h-4.4l1.3,2.2l-2.2-1.3v3.5l-5.8-3.5v1.3
							h-2.2l5.8,3.5l-1.3,3.5l-2.2-2.2l-8-1.3l7.1,1.3l1.3,1.3l1.3,2.2l-2.2,1.3l-5.8-2.2l4.4,3.5l-3.5,4.4l-8-3.5v2.2l-8-2.2
							l-2.2,1.3l-4.4,1.3v-2.2h-1.3L-133.5-134z M643,154.7l-1.3-3.5l4.4-1.3v1.3h1.3l2.2-1.3l-1.3-2.2h2.2v-2.2l-1.3,2.2v-3.5
							l-2.2-3.5h1.3l1.3-2.2l3.5,3.5l-1.3,4.4l2.2,5.8l1.3,5.8v3.5l-1.3,2.2v-3.5v2.2l-1.3,5.8l2.2,2.2l-1.3,2.2l1.3-1.3l1.3,1.3
							l-1.3,2.2l1.3,1.3l3.5,11.5l8,18.6l-7.1-7.1l-5.8-1.3h3.5l-7.1,3.5l-3.5,13.7l4.4,7.1l1.3,5.8l2.2-1.3l1.3,4.4l-1.3,3.5
							l-1.3-5.8h-4.4l-1.3-2.2l-2.2,2.2l-2.2,8l-2.2-5.8l1.3-8v-4.4l1.3-3.5l-2.2-9.3l2.2-9.3l-1.3-11.5l2.2-7.1l-5.8-8V164l2.2-8
							v-1.3L643,154.7L643,154.7z M-140.6-97.1l3.5-3.5L-140.6-97.1l-2.2-2.2l1.3-2.2l-4.4,2.2l-3.5-3.5l-5.8,2.2l-3.5-4.4l1.3-4.4
							h7.1l4.4-8l2.2-1.3h-3.5l4.4-1.3l-8-1.3l9.3-2.2l-2.2-1.3l2.2-1.3l-2.2-2.2l5.8-2.2h3.5l7.1-2.2l13.7,4.4l-8,3.5l5.8,1.3
							l-7.1,1.3l3.5,2.2l-7.1,3.5l3.5,1.3l1.3,3.5l-3.5,4.4h2.2l7.1,11.5l11.5,8l-1.3,1.3l-8-2.2l-2.2,2.2l2.2,1.3h-6.2l-4.4-3.5
							l-2.2,3.5l-4.4-3.5h-1.3l2.2,2.2l-11.5-3.5l3.5-2.2l-2.2-1.3l5.8-1.3L-140.6-97.1z M669.7-169l-2.2,2.2l2.2,1.3l-4.4,4.4
							l-9.3-1.3l-7.1-4.4l4.4-5.8l-5.8-1.3l-2.2,2.2v4.4l4.4,4.4l9.3,2.2l-11.5,2.2l-3.5-2.2l2.2,1.3l-1.3-2.2l-18.6,3.5l-3.5-2.2
							H621l1.3,3.5l-3.5,2.2l-10.6-3.5l-9.3-9.3h4.4l-2.2-1.3l1.3-3.5h-3.5l2.2-3.5l4.4,1.3l-2.2-3.5l12.9-5.8l13.7,8v3.5h5.8
							l-2.2-2.2l1.3-4.4h5.8l-2.2-3.5l10.6,5.8h10.6l12.9,4.4l2.2,1.3L669.7-169z M267.9-240.8h-4.4l7.1,4.4v2.2l-13.7,3.5
							l-24.4-7.1l-4.4,1.3l-5.8-3.5v-4.4h-5.8h2.2l-2.2-1.3l1.3-1.3l-5.8,3.5l-3.5-2.2l16.4-5.8l-3.5-1.3l5.8-4.4h2.2l20.8-1.3
							l4.4,2.2l-7.1,7.1l10.6-3.5l1.3-3.5l12.9,4.4L267.9-240.8z M242.6-259.5l-16.4,1.3l-10.6,3.5l-15.1-3.5h8l-7.1-2.2H212
							l-17.3-1.3l10.6-1.3l-5.8-0.9l8-1.3l4.4-5.8h-7.1l4.4-4.4l23.1-5.8l19.5,11.5l-7.1,1.3l-1.3,3.5l3.5,3.5L242.6-259.5z
							 M318-224.4l-22.2,5.8l-30.2,2.2l5.8-5.8l3.5-8h7.1l-3.5-2.2l0.9-1.3l5.8-1.3l-4.4-1.3l1.3-2.2l5.8-3.5l3.5,2.2l-1.3-2.2
							l2.2-1.3l7.1,2.2l-2.2,1.8l-4.4,8l4.4-4.4l9.3-1.3l5.8,7.1l4.4-1.3l2.2,4.4L318-224.4z M506.9-129.5l1.3,2.2l-3.5,3.5v5.8v2.2
							l-1.3,1.3l-12.9-5.8l-20.8-4.4h7.1l2.2-3.5h2.2l-4.4-4.4l2.2-3.5h4.4l-1.3-2.2l4.4-1.3l10.6,4.4v2.2l7.1-2.2l-1.3,3.5l2.2-1.3
							L506.9-129.5z M683.4-171.2l4.4,4.4l12.9-1.3l1.3,1.3l-1.3,1.3l1.3,1.3l20.8,1.3l-2.2,4.4l-8,2.2h-12.9l-19.5-8L683.4-171.2z
							 M-413.3,139.7l-26.6-1.3l5.8-2.2h-4.4V133h4.4l4.4-4.4l-3.5,4.4h2.2h3.5v-4.4l12.9,3.5l2.2,2.2l-1.3,1.3v4L-413.3,139.7
							L-413.3,139.7z M504.7-118l1.3-4.4l-1.3-1.3l4.4-3.5l-2.2-4.4l4.4-3.5l8,1.3l4,2.2l-1.3,1.3l5.8,1.3l-1.3,2.2h2.2l-22.2,9.3
							v2.2l-2.2-1.3v-1.3L504.7-118L504.7-118z M635.9-141.1l12.9,1.3l8,5.8v4.4l-24.4-3.5l-9.3,1.3l8-3.5L635.9-141.1z
							 M-200.9-260.8l12.9-1.3l-4.4-1.3l4.4-1.3h-7.1l3.5-1.3h12.9l4.4-4.4h-7.1l8-3.5h9.3l1.3,1.3l-5.8,2.2h11.5l-17.3,4.4l1.3,2.2
							l-2.2,1.3l-7.1-1.3l-1.3,2.2l3.5,2.2l-5.8,1.3l-7.1,1.3l3.5-3.5h-1.3L-200.9-260.8z M-89.6-266.6v-2.2l3.5-3.5l19.5-1.3
							l3.5,2.2l-10.6,8L-89.6-266.6z M-188-62.1l2.2-4.4l4.4-2.2l12.9,5.8l-13.7,7.1L-188-58L-188-62.1L-188-62.1z M-83.8-71.4
							l-4.4-3.5l-3.5,1.3l-5.8-7.1l3.5,1.3l-1.3-2.2l3.5-2.2l12.9,8l1.3,2.2L-83.8-71.4z M508.2-115.3l9.3-4.4l13.7,3.5l1.3,2.2
							l-1.3,1.3h2.2l-7.1,3.5l-11.5-7.1L508.2-115.3z M-60.3-272.3l13.7-3.5l3.5-3.5l5.8,1.3l2.2,4.4l-19.5,4.4L-60.3-272.3z
							 M-206.7-263.9v-2.2l-10.6-1.3l20.8-4.4h9.3l4.4,3.5l-9.3-2.2l-3.5,2.2v2.2L-206.7-263.9z M385.4-144.6l-11.5-3.5l3.5-1.3
							l1.3-3.5l11.5,1.3l1.3,2.2L385.4-144.6z M4.4-126l1.3-3.5L4.4-133l5.8-1.3L16-133l-2.2,2.2l4.4-1.3l2.2,2.2L4.4-126z
							 M-132.6-275.9h15.1l13.7,4.4l-5.8,2.2L-132.6-275.9z M192.5-255.9l24.4,3.5l-17.3,4.4l3.5-2.2l-10.6-1.3l1.3-2.2L192.5-255.9
							z M886.5-72.8l-1.3,2.2h-3.5l-9.3-3.5l4.4-3.5l9.3,2.2v2.7L886.5-72.8L886.5-72.8z M-104.7-257.2l-2.2-1.3v-4.4l-3.5-2.2h11.5
							l9.3,3.5h-8l-2.2,2.2l2.2,1.3L-104.7-257.2z M833.3,86.5l3.5-2.2l1.3-3.5h-1.3l7.1-2.2l1.3,2.2V83l-10.6,4.4L833.3,86.5z
							 M686.9,254.5l2.2-4.4l7.1-4.4v-2.2l1.3,2.2l7.1-2.2v1.3l-9.3,4.4l-1.3-1.3L686.9,254.5z M630.2-141.1l-3.5-2.2v-2.2l5.8-2.2
							l3.5,2.2l-1.3,3.5L630.2-141.1z M66.1-114.4l7.1-4.4l7.1,2.2l-5.8,2.2C74.5-114.4,66.1-114.4,66.1-114.4z M600.9,135.2
							l3.5-5.8l5.8,2.2l-4.4,4.4l-2.2-3.5L600.9,135.2z M-121.1-257.2l2.2-1.3v-3.5h9.3v5.8L-121.1-257.2z M-123.3-280.3v-2.2
							l9.3,2.2l-1.3-3.5l12.9,2.2l-11.5,2.2L-123.3-280.3z M761,190.7v-2.2l3.5-1.3l4.4-4.4v2.2l-2.2,3.5L761,190.7z M-145.5-92.3
							l-7.1-5.8l4.4-1.3l3.5,2.2l-1.3,3.5l1.3,1.3h-0.8V-92.3z M82-123.8l4.4-3.5l3.5,5.8h-7.1l-1.3-1.3v-0.9L82-123.8L82-123.8z
							 M585.8-166.8l2.2-9.3l3.5,4.4l-2.2,3.5L585.8-166.8z M681.2,253.6l3.5,1.3l-5.8,2.2l-3.5,5.8l-1.3-1.3L681.2,253.6z
							 M-99.8-282.5l-12.9-2.2l9.3-2.2l7.1,3.5L-99.8-282.5z M858.6,128.1l3.5,8l-7.1-8H858.6z M3.1-22.6L-2.7-27l8,1.3l1.3,2.2
							L3.1-22.6z M-151.2-259.5l4.4-3.5l9.3,2.2L-151.2-259.5z M191.1-276.8l-9.3-2.2l12.9-1.3l2.2,2.2L191.1-276.8z M239-180.5
							l-9.3-1.3l9.3-2.2l2.2,1.3v2.2l-2.2-2.2V-180.5z M-117.5-278.1l18.6,4.4l-5.8,1.3L-117.5-278.1z M710,240.8l3.5-4.4l5.8-1.3
							l-4.4,3.5L710,240.8z M816-58.6l1.3-2.2l-3.5-1.3v-5.8l2.2-1.3l-1.3,4.4l2.2,4.4L816-58.6z M514-120.2l8-2.2l9.3,2.2H514z
							 M-82.5-275.9l13.7-1.3l-5.8,3.5L-82.5-275.9z M-170.7-254.6l8-2.2l3.5,3.5L-170.7-254.6z M86.9-274.5h11.5L86.9-271l-2.2-1.3
							L86.9-274.5z M239.9-200l-2.2,3.5h-8L239.9-200z M-99.8-289.6l-2.2-1.3l1.3-1.3l12.9-1.3L-99.8-289.6z M113.5-169l-1.3,1.3
							l2.2,1.3h-2.2v3.5l-4.4-3.5L113.5-169z M337.5-216.4l-8-2.2h9.3l1.3,1.3L337.5-216.4z M382.7-186.3l-5.8-3.5h5.8l1.3,2.2
							L382.7-186.3z M121.5-83l1.3-7.1l2.2,1.3l-2.2,1.3v3.5L121.5-83z M-94-254.6l5.8-2.2l3.5,2.2L-94-254.6L-94-254.6z M47.5-126
							l-1.3,2.2l-4.4-2.2H47.5z M156.5-159.7v1.3H153l1.3,1.3l-4.4-1.3L156.5-159.7z M-257.7,3.1l1.3,2.2h-2.2l-2.2-1.3L-257.7,3.1z
							 M585.8-146.8l7.1,5.8h-1.3L585.8-146.8z M755.2,200l1.3-2.2l1.3-2.2v4.4H755.2z M-173-255.9l-2.2-2.2h7.1L-173-255.9z
							 M816-67v-3.5h2.2v2.2L816-67z M-138.4-265.2l2.2-2.2l3.5,3.5L-138.4-265.2z M145.9-150.4l-2.2-1.3l2.2-1.3l3.5,1.3
							L145.9-150.4z M448.8-126l-3.5-1.3l4.4-1.3v2.2h-0.9V-126z M596.5,133l4.4-2.2l-1.3,2.2H596.5z M771.7,184l-2.2-1.3l2.2-1.3
							V184z M-168.5-275.9l1.3-3.5l3.5,1.3L-168.5-275.9z M-297.1-4l-1.3,3.5l-2.2-2.2L-297.1-4z M336.6-201.4h-1.3l2.2-2.2l2.2,2.2
							H336.6z M326-218.7l-1.3-2.2h7.1L326-218.7z M175.2-200l1.3-2.2l3.5,1.3L175.2-200z M-2146.4,3.1l2.2-2.2l2.2,1.3L-2146.4,3.1
							z M117.1-145.5l1.3,1.3l-1.3,1.3l-2.2-1.3L117.1-145.5z M242.6-181.9l1.3-3.5l2.2,1.3L242.6-181.9z M-142.8-265.2v-2.2
							l-1.3-1.3l3.5,3.5H-142.8z M-441.3,138.8l2.2-2.2l-1.3,1.3L-441.3,138.8z"/>
						
							<path fill="#DDDDDD" stroke="#FFFFFF" stroke-width="1" stroke-linecap="round" stroke-linejoin="round" stroke-miterlimit="10" d="
							M248.3,419.5v2.2l-4.4,3.5l2.2,4.4l-3.5-2.2h-4.4l-9.3,7.1v5.8l-4.4,5.8v1.3l1.3,2.2l-5.8,10.6l-7.1-1.3v7.1v2.2h-1.3
							l-1.3,2.2l1.3,4.4l-2.2,2.2l-2.2-1.3l-1.3,1.3l-2.2-16.4h-2.2l-3.1,6.2l-1.3,2.2l-2.2-3.5v1.3l-2.2-4.4l2.2-4.4h4.4l2.2-2.2
							l1.3-4.4h2.2l-0.9-1.8l-3.5-2.2l-13.7,1.3l-5.8-1.3v-8l-1.3-1.3l-0.9,2.2h-2.2l-2.2-3.5v-0.9v2.2H173l-4.4-3.5v1.3l1.3,1.3
							l-2.2,2.2l-1.3,2.2l8,5.8l-1.3,0.9l-3.5-1.3l-1.3,2.2l-2.2,1.3v2.2v1.3l5.8,2.2l-1.3,6.2l1.3,1.3v2.2l2.2,1.3l-0.9,0.9l1.3,8
							l1.3,4.4l-3.5,1.3L171,476v5.8l-1.3-3.5v2.2h-1.3l-1.3-1.3v2.2v-5.8l-2.2-2.2l2.2,2.2l-3.5,4.4l-8,3.1l-1.3,2.2l2.2,4.4
							l-5.3,6.2h-1.3v1.3l-7.1,2.2l1.3-2.2h-1.3l-3.5,3.5l2.2-1.3l-5.8,4.4l-4.4,8l-16.4,10.6v4.4l-5.8,2.2h-3.5l-2.2,4.4l-0.9-0.4
							l-1.3,2.2l-1.3-1.3l-3.5,1.3l-1.3,5.8l2.2,15.1l-2.2-2.2l2.2,2.2l-2.2,8l-3.5,8l1.3,11.5h-4.4l-3.5,5.8l1.3,3.5l3.5,1.3
							l-4.4-1.3l-4.4,1.3l-3.5,7.1l-4.4,2.2H71l-7.1-7.1l1.3-1.3h-1.3l-1.3-1.3l-1.3-7.1v3.5h1.3l-7.1-16.4l-4.4-5.8l-2.2-7.1
							l-4.4-15.1l-2.2-3.5l-2.7-4.9h1.3l-4.4-5.8l-4.4-23.1l1.3-3.5l-2.2,1.3v-3.5h2.2L31,502l-1.3-4.4l1.3-8.4l-3.5-5.8l5.8-3.5
							l-5.8,1.3l2.2-3.5h-2.2l1.3-1.3l2.2-0.9h-6.7l2.2,0.9l-3.5,2.2l1.3,1.3l-1.3-1.3l2.2,2.2l-1.3,4.4l-11.5,4.4l-7.1-4.4
							L-4,474.5l1.3-2.2l1.3,2.2l8-2.2l3.5-5.3L3,470.5l-4.4-1.3l-7.1-4.4v-2.2l2.2-2.2l-3.1,2.2h-1.3v-1.3l1.3-1.3l3.5-1.3l1.3-3.5
							L6,457.4l4.4-2.2l2.2,1.3l2.2-1.3l-3.5-12.9H8l-2.2-1.8l1.3-5.8l-5.8-1.3l1.3-4.4l7.1-8H11l2.2,3.5l9.3-2.2l4-8.4l4.4-2.2
							l4.4-9.3l4.4-1.3l-1.3-2.2l8-7.1l-2.2-1.3l1.3-7.1l7.1-3.5l-3.5-2.2H47l-1.3-3.5h-1.8V372l-2.2-1.3l1.3-3.5l-2.7-1.8l3.5-2.2
							l-3.5-1.3l1.3-0.9l-2.2-2.2l1.3-2.2l3.5-1.3l11.5,3.5l7.1-3.5l3.5,1.3l2.2-4.4l7.1-3.5h1.3v2.2l2.2,7.1l5.8,2.2l-1.3,2.2v5.8
							l1.3,1.3l3.5,3.5l2.2,3.5l-5.8,3.5l-1.3-2.2h-4l1.3,3.5l2.2,2.2v7.1l2.2-1.3l4.4,4.4h2.2l3.5,2.2v1.3l7.1,3.5l-5.8,4.4
							l-2.2,8.9l9.3,3.5l1.3,2.2l5.8,3.5l7.1,1.3v2.2l4.4,1.3l1.3-1.3l4.4,1.3l2.2-2.2l4.4,2.2v2.2l5.8,3.5l2.2-1.3l2.2,2.2l1.3-1.3
							l7.1,2.2l2.2-1.3l2.2,2.2h5.8l2.2-3.5l-2.2-3.5l1.3-7.1l4.4-3.5l2.2,1.3l-1.3,4.4l1.3,2.2L170,428l1.3,2.2l7.1,2.2l7.1-2.2
							l2.2,2.2L200,431l1.3-4.4l-1.3-1.3h-3.5v-3.5h8l1.3-3.5l4.4-1.3l1.3-3.5h5.8l2.2-3.5l3.5-3.5l7.1,3.5l5.8-4.4l2.2,2.2
							l-1.3,2.2v1.3l2.2-1.3l1.3,2.2l-2.2,2.2v4l2.2-1.3L248.3,419.5z M208.9,566.7l-2.2-1.3v-3.5l2.2-1.3v3.5V566.7z M208.9,561
							l-1.3-3.5l2.2-2.2v4.4L208.9,561z M207.5,568.1l-1.3,5.8l-1.3-3.5l1.3-3.5L207.5,568.1z M205.3,579.6v2.2H204v-2.2l1.3-1.3
							V579.6z M216.9,612v3.5l-2.2-2.2L216.9,612z"/>
						
							<path fill="#DDDDDD" stroke="#FFFFFF" stroke-width="1" stroke-linecap="round" stroke-linejoin="round" stroke-miterlimit="10" d="
							M36.8,649.2"/>
						
							<polygon fill="#DDDDDD" stroke="#FFFFFF" stroke-width="1" stroke-linecap="round" stroke-linejoin="round" stroke-miterlimit="10" points="
							99.8,592.5 102,596 105.5,599.6 104.2,600.4 106.4,600.4 106.4,604 110,609.8 111.3,613.3 109.1,619.1 99.8,623.9 96.2,622.6 
							94.9,620.4 91.4,603.1 92.7,605.3 94,596.9 96.2,591.1 94.9,590.2 98.5,591.1 99.8,592.5 98.5,591.1 94,590.2 94,588.9 
							98.5,591.1 94.9,588.9 96.2,588.9 						"/>
						
							<polygon fill="#DDDDDD" stroke="#FFFFFF" stroke-width="1" stroke-linecap="round" stroke-linejoin="round" stroke-miterlimit="10" points="
							-14.2,330.4 -25.7,329 -24.4,321.9 -33.7,319.7 -50.1,309.1 -61.6,301.1 -63,296.7 -66.5,289.6 -71,287.3 -72.3,289.6 
							-82.5,287.3 -82.5,282.5 -81.6,282.5 -82.5,278 -89.6,276.7 -95.3,272.3 -96.7,273.2 -99.8,273.2 -96.7,276.7 -101.1,274.5 
							-102.4,278 -106.9,278.9 -110.4,281.6 -109.1,288.2 -118.4,287.3 -118.4,247.9 -96.7,242.1 -73.2,255.9 -65.2,263.8 
							-54.5,263 -44.3,263.8 -39.5,261.6 -33.7,266.5 -31.5,270.9 -29.3,269.6 -30.2,280.3 -25.7,280.3 -23.5,289.6 -12.9,288.2 
							-10.6,290.9 -12,293.1 -8.4,295.3 -7.1,295.3 -7.1,291.8 -2.7,288.2 -2.7,287.3 13.7,278 16,278 6.7,284.7 11.5,286 
							12.4,288.2 18.2,289.6 18.2,287.3 19.5,287.3 20.8,284.7 21.7,288.2 24.4,288.2 25.3,290.9 33.3,293.1 28.8,295.3 26.6,295.3 
							26.6,297.5 24.4,296.7 20.8,299.8 17.3,297.5 13.7,298.9 11.5,298.9 9.3,297.5 12.4,294 9.3,290.9 3.1,294 0,293.1 0,298.9 
							-7.1,299.8 -3.5,299.8 -4.9,301.1 -4.9,302.4 -7.1,302.4 -7.1,306 -15.1,304.6 -17.7,306.9 -17.7,309.1 -15.1,310.4 
							-15.1,311.7 -12,311.7 -12,316.2 -9.3,319.7 -14.2,326.8 						"/>
						
							<polygon fill="#DDDDDD" stroke="#FFFFFF" stroke-width="1" stroke-linecap="round" stroke-linejoin="round" stroke-miterlimit="10" points="
							-25.7,329 -14.2,330.4 -12,332.6 -4.9,329 -1.3,331.3 0.9,326.8 6.7,326.8 8,325.5 6.7,323.3 13.7,317.5 17.3,319.7 16,323.3 
							19.5,323.3 18.2,331.3 20.8,336.1 28.8,332.6 34.6,327.7 39.5,327.7 36.8,330.4 38.1,330.4 42.6,327.7 48.8,330.4 43.9,330.4 
							46.1,332.6 41.7,333.5 27.5,333.5 19.5,338.3 16,340.6 19.5,348.5 18.2,353.4 13.7,357 16,359.2 15.1,361.4 4.4,362.7 
							8,369.8 0.9,372.1 -1.3,377.8 0,382.3 -4.9,385.8 -7.1,383.6 -10.6,383.6 -16.4,387.1 -14.2,389.3 -23.5,390.7 -27.1,392.9 
							-27.9,403.1 -47.9,408 -61.6,408 -75.8,403.1 -66.5,391.6 -68.7,388 -75.8,387.1 -75.8,380 -78.1,372.1 -74.5,367.2 
							-78.9,366.3 -78.9,361.4 -75.8,359.2 -76.7,357 -74.5,354.3 -72.3,346.3 -65.2,347.7 -63,351.2 -59.4,349.9 -55.9,347.7 
							-55.9,344.1 -43,339.2 -40.8,331.3 -33.7,330.4 -32.8,326.8 						"/>
						
							<polygon fill="#DDDDDD" stroke="#FFFFFF" stroke-width="1" stroke-linecap="round" stroke-linejoin="round" stroke-miterlimit="10" points="
							38.1,306.9 26.6,308.2 25.3,309.1 24.4,308.2 20.8,309.1 20.8,306.9 19.5,306.9 18.2,306 13.7,308.2 10.2,306 0,306 
							-1.3,303.3 0,301.1 0.9,302.4 0.9,299.8 5.8,298.9 10.2,301.1 10.2,302.4 13.7,298.9 17.3,297.5 20.8,299.8 24.4,296.7 
							26.6,297.5 26.6,295.3 28.8,295.3 33.3,293.1 25.3,290.9 24.4,288.2 21.7,288.2 20.8,284.7 19.5,287.3 18.2,287.3 18.2,289.6 
							12.4,288.2 11.5,286 6.7,284.7 16,278 13.7,278 12.4,276.7 15.1,274.5 18.2,272.3 25.3,272.3 36.8,275.8 35.9,273.2 
							36.8,268.7 43.9,267.4 55.4,272.3 56.8,269.6 67,269.6 86.9,272.3 89.1,275.8 94,275.8 96.2,278 96.2,280.3 79.8,287.3 
							77.6,290.9 66.1,290.9 61.2,297.5 55.4,297.5 54.5,294 51.9,296.7 48.8,295.3 48.8,297.5 40.4,301.1 39.5,303.3 40.4,306 
													"/>
						
							<polygon fill="#DDDDDD" stroke="#FFFFFF" stroke-width="1" stroke-linecap="round" stroke-linejoin="round" stroke-miterlimit="10" points="
							103.3,400 105.5,402.2 106.4,398.7 112.2,398.7 113.5,400.9 122.8,405.8 125.1,410.2 130.8,408.9 133.5,413.7 136.6,416 
							140.1,416 139.3,418.2 145,418.2 147.2,421.7 149.5,419.5 150.8,421.7 153,419.5 157.9,423.1 165.9,423.1 164.5,430.1 
							166.7,433.3 164.5,436.8 158.8,436.8 156.5,434.6 154.3,435.9 147.2,433.3 145.9,434.6 143.7,432.4 141.5,433.3 135.7,430.1 
							135.7,427.5 130.8,425.3 128.6,427.5 124.2,426.6 122.8,427.5 118.4,426.6 118.4,424.4 111.3,423.1 105.5,419.5 104.2,417.3 
							94.9,413.7 97.1,404.4 						"/>
						
							<polygon fill="#DDDDDD" stroke="#FFFFFF" stroke-width="1" stroke-linecap="round" stroke-linejoin="round" stroke-miterlimit="10" points="
							75.4,347.7 68.3,351.2 66.1,355.6 62.5,354.3 55.4,357.9 43.9,354.3 40.4,355.6 39.5,357.9 41.7,360.5 40.4,361.4 43.9,362.7 
							40.4,365 42.6,367.2 41.7,370.7 43.9,372.1 43.9,374.3 46.1,374.3 47.5,377.8 49.7,377.8 53.2,380 46.1,383.6 45.2,390.7 
							47.5,391.6 39.5,398.7 40.4,400.9 35.9,402.2 31,411.5 26.6,413.7 21.7,421.7 12.4,424.4 10.2,420.8 9.3,420.8 2.2,428.8 
							0.9,433.3 6.7,434.6 5.8,440.3 8,442.6 11.5,442.6 15.1,455.4 12.4,456.8 10.2,455.4 5.8,457.6 -4.9,455.4 -5.8,459 
							-9.3,460.3 -10.6,461.2 -10.6,460.3 -10.6,462.5 -12,461.2 -12,460.3 -12,461.2 -16.4,460.3 -20,453.2 -18.6,451.9 -24.4,451 
							-23.5,447.4 -27.1,443.9 -29.3,445.2 -25.7,446.1 -40.8,446.1 -42.1,448.3 -46.6,446.1 -46.6,445.2 -52.3,447.4 -63.9,447.4 
							-67.4,449.7 -68.7,447.4 -66.5,438.1 -63,436.8 -61.6,434.6 -54.5,434.6 -53.7,428.8 -58.1,427.5 -58.1,418.2 -66.5,416 
							-75.8,403.1 -61.6,408 -47.9,408 -27.9,403.1 -27.1,392.9 -23.5,390.7 -14.2,389.3 -16.4,387.1 -10.6,383.6 -7.1,383.6 
							-4.9,385.8 0,382.3 -1.3,377.8 0.9,372.1 8,369.8 4.4,362.7 15.1,361.4 16,359.2 13.7,357 18.2,353.4 19.5,348.5 16,340.6 
							19.5,338.3 27.5,333.5 41.7,333.5 46.1,332.6 51,332.6 53.2,333.5 53.2,334.8 57.7,336.1 59,340.6 57.7,341.9 60.3,344.1 
							63.9,342.8 66.1,346.3 						"/>
						
							<polygon fill="#DDDDDD" stroke="#FFFFFF" stroke-width="1" stroke-linecap="round" stroke-linejoin="round" stroke-miterlimit="10" points="
							-14.2,330.4 -14.2,326.8 -9.3,319.7 -12,316.2 -12,311.7 -15.1,311.7 -15.1,310.4 -17.7,309.1 -17.7,306.9 -15.1,304.6 
							-7.1,306 -7.1,302.4 -4.9,302.4 -4.9,301.1 -3.5,299.8 -7.1,299.8 0,298.9 0,293.1 3.1,294 9.3,290.9 12.4,294 9.3,297.5 
							11.5,298.9 13.7,298.9 10.2,302.4 10.2,301.1 5.8,298.9 0.9,299.8 0.9,302.4 0,301.1 -1.3,303.3 0,306 10.2,306 13.7,308.2 
							18.2,306 19.5,306.9 20.8,306.9 20.8,309.1 24.4,308.2 25.3,309.1 26.6,308.2 38.1,306.9 36.8,309.1 39.5,311.7 38.1,312.6 
							39.5,316.2 43.9,315.3 48.8,317.5 48.8,325.5 51,327.7 48.8,330.4 42.6,327.7 38.1,330.4 36.8,330.4 39.5,327.7 34.6,327.7 
							28.8,332.6 20.8,336.1 18.2,331.3 19.5,323.3 16,323.3 17.3,319.7 13.7,317.5 6.7,323.3 8,325.5 6.7,326.8 0.9,326.8 
							-1.3,331.3 -4.9,329 -12,332.6 						"/>
						
							<path fill="#DDDDDD" stroke="#FFFFFF" stroke-width="1" stroke-linecap="round" stroke-linejoin="round" stroke-miterlimit="10" d="
							M173.8,476.3l-0.9-8l1.3-1.3l-2.2-1.3v-2.2l-1.8-0.9l1.3-5.8l-5.8-2.2v-1.3V451l2.2-1.3l1.3-2.2l3.5,1.3l1.3-1.3l-8-5.8
							l1.3-2.2l2.2-2.2l-1.8-1.3v-1.3l4.4,3.5h1.3V436v1.3l2.2,3.5h2.2l1.3-2.2l1.3,1.3v8l5.8,1.3l13.7-1.3l3.5,2.2l1.3,1.3h-2.2
							l-1.3,4.4l-2.2,1.8h-4.4l-2.2,4.4l2.2,4.4v-1.3l2.2,3.5l1.3-2.2l2.2-5.8h2.2l2.2,16.4l1.3,7.1l-3.5-1.3v3.5v2.7l-2.2-3.5v-4.4
							l-3.5-8l-1.3-2.2l-2.2,2.2l-3.5-1.3l-2.2-3.5v-4.4h1.3l-1.3-1.3l-1.3,1.3l1.3,1.3h-2.2l2.2,1.3l-1.3,4.4l1.3,4.4l-1.3,2.2
							v-2.2l-1.3,3.5h-2.2l1.3-2.2l-1.3,1.3v-1.3l-1.3,1.3l1.3-4.4l-2.2,2.2l1.3,3.5l-3.5,2.2l1.3-5.8l-1.3,2.2v-2.2l-1.3,4.4v-2
							l-1.3,3.5L173.8,476.3z M188.9,477.6l-1.3-5.8l1.3-1.3l1.3,3.5L188.9,477.6z M191.1,477.6l1.3-4.4l1.3,2.2L191.1,477.6z"/>
						
							<polygon fill="#DDDDDD" stroke="#FFFFFF" stroke-width="1" stroke-linecap="round" stroke-linejoin="round" stroke-miterlimit="10" points="
							173,427.5 178.7,420.8 183.2,418.2 186.7,418.2 185.4,420.8 192.5,421.7 194.7,420.8 197.3,421.7 197.3,423.1 197.3,426.6 
							200.5,426.6 201.8,427.5 200.5,432.4 188.9,433.3 186.7,431 179.6,433.3 173,431 171.6,428.8 						"/>
						
							<path fill="#DDDDDD" stroke="#FFFFFF" stroke-width="1" stroke-linecap="round" stroke-linejoin="round" stroke-miterlimit="10" d="
							M404.9,633.3l-2.2,1.3l1.3,3.5l-2.2,2.2l-4.4-4.4l8-4.4v1.8L404.9,633.3L404.9,633.3z M404.9,633.3h1.3l1.3,4.4h-2.2v-4.4
							H404.9z"/>
						
							<polygon fill="#DDDDDD" stroke="#FFFFFF" stroke-width="1" stroke-linecap="round" stroke-linejoin="round" stroke-miterlimit="10" points="
							425.7,232.8 418.6,233.7 415.5,239.5 410.7,243 400.5,243 392,250.1 385.4,250.1 381.8,246.5 377,247.9 372.5,254.5 
							377,261.6 369,266.5 361,273.2 353.9,275.8 337.5,275.8 315.3,284.7 312.2,283.8 312.2,281.6 301.6,281.6 290,278 
							287.8,274.5 278.5,273.2 267,274.5 245.7,272.3 239,272.3 235.5,266.5 231.9,259.4 229.7,258.1 230.6,255.9 224.8,254.5 
							214.6,247.9 197.3,246.5 190.3,245.2 188.9,242.1 191.1,236.3 191.1,233.7 192.5,230.1 191.1,225.7 183.2,215.1 175.2,214.2 
							170.3,212 169.4,209.3 164.5,208.4 165.9,205.7 162.3,204.9 163.6,203.5 163.6,201.3 166.7,200 166.7,197.8 175.2,196.9 
							176.1,195.5 179.6,194.2 179.6,192 203.1,181.8 206.2,184 208.9,182.7 209.8,184.9 220.4,184.9 224,190.7 231.9,193.3 
							236.8,192 248.3,194.2 254.1,190.7 256.3,188.5 256.3,184.9 254.1,184 251.9,180.5 254.1,174.7 259.9,169.8 262.1,166.7 
							271.4,171.2 291.4,175.6 292.3,184.9 300.2,189.8 307.3,189.8 318.9,186.2 330.8,187.6 335.3,190.7 342.4,192 342.4,195.5 
							348.1,199.1 366.8,201.3 385.4,196.9 397.8,188.5 402.7,188.5 408.4,193.3 415.5,190.7 420,193.3 412,208.4 412,212 
							409.3,212.8 409.3,215.1 412.9,217.7 415.5,215.1 421.3,215.1 425.7,218.6 429.3,214.2 436.4,214.2 440.8,218.6 447.9,227 
							447.9,229.3 446.6,230.1 433.7,229.3 429.3,230.1 425.7,230.1 						"/>
						
							<polygon fill="#DDDDDD" stroke="#FFFFFF" stroke-width="1" stroke-linecap="round" stroke-linejoin="round" stroke-miterlimit="10" points="
							579.2,607.5 577.9,611.1 576.5,609.8 577.9,608.9 						"/>
						
							<path fill="#DDDDDD" stroke="#FFFFFF" stroke-width="1" stroke-linecap="round" stroke-linejoin="round" stroke-miterlimit="10" d="
							M457.2,545l-3.5-1.3v3.5h-1.3l-1.3-3.5h-2.2l-1.3-9.3l-1.3-1.3l1.3-3.5l2.2,2.2h2.2l-1.3-4.4l1.3-7.1l-1.3-2.2l2.2-8l3.5-1.3
							l9.3,3.5l2.2-2.2l1.3,2.2l-2.2,4.4l1.3,3.5l2.2,2.2v2.2l-4.4,7.1l1.3-1.3l-4.4,2.2v2.2l-2.2,3.5l3.5,5.8v4.4l4.4,2.2v-3.5v2.2
							l2.2-2.2h2.2l2.2,3.5v2.2l2.2-1.3l-1.3-2.2h1.3l5.8,2.2l-3.5,1.3l2.2,3.5v2.2h3.5l-1.3,4.4l-2.2-3.5l2.2-1.3l-3.5,1.3
							l-3.5-1.3l-1.3-3.5l-5.8-4.4l1.3,7.1l-2.2-3.5l-5.8-3.5l-3.5,3.5l-3.5-3.5h-2.2v1.3l-1.3-3.5l3.5-2.2v-1H457.2z M501.1,591.1
							l3.5,5.8l-2.2,2.2l3.5,1.3v3.5l-1.3,2.2l2.2,1.3v3.5l-2.2,3.5v1.3l-1.3-1.3v5.8l-2.2-9.3h-2.2l-2.2,5.8l2.2,5.8l-2.2,4.4
							l-2.2-2.2l1.3-3.5l-2.2,2.2l-7.1-3.5l-2.2-4.4l2.2-4.4l-4.4-4.4h-2.2v4.4l-2.2-2.2v-1.3l-1.3,2.2h-2.2v-2.2l-1.3-1.3l-4.4,8
							l-2.2-1.3l3.5-8l5.8-1.3l1.3-3.5h2.2l1.3-2.2l3.5,2.2v3.5l-1.3,1.3l4.4-2.2l2.2-3.5l2.2,1.3V596l3.5,1.3l3.5-1.3l-1.3-7.1
							L501.1,591.1z M496.7,568.1v4.4l2.2,2.2l-1.3,1.3l2.2,1.3h-4.4l-2.2-3.5h-1.3l1.3-2.2l-4.4-3.5l-2.2-3.5l8-1.3l3.5,3.5
							L496.7,568.1z M478.1,583.1l-1.3,7.1l1.3,3.5l-2.2,2.2l-5.8-7.1l1.3-1.3l3.5-1.3v-8h5.8L478.1,583.1z M466.5,576.1l1.3-4.4
							h-2.2l1.3-2.2l5.8,4.4l1.3-1.3l1.3,1.3l2.2-1.3v3.5l-10.6,7.1v-7.1H466.5z M443,580.9l-1.3-2.2l2.2-4.4v5.8l2.2,2.2l-3.5,2.2
							l-1.3,2.2l-4.4,1.3v2.2l-3.5,4.4l-10.6,7.1l4.4-7.1l3.5-1.3l7.1-7.1l1.3-3.5h1.3l2.2-1.3l-1.3-3.5L443,580.9z M461.7,565.9
							l-3.5,1.3l-3.5-8l-3.5-3.5h5.8l4.4,3.5v6.7H461.7z M490.9,581.8l-1.3-3.5h-1.3l-1.3-5.8l2.2,2.2h3.5v5.8l2.2,3.5l-1.3,1.3
							l-1.3-2.2v3.5l-2.2-1.3v-3.5H490.9z M479.4,586.7l5.8-11.5l-1.3,8l-2.2,3.5l-3.5,5.8L479.4,586.7z M488.3,586.7l1.3,2.2
							l-2.2,1.3h-3.5l-1.3-1.3l3.5-3.5L488.3,586.7z M476.7,570.3l1.3-7.1l5.8,3.5l1.3,4.4l-4.4-4.4L476.7,570.3z M486.1,555.2
							l-1.3-1.3l1.3-3.5l2.2,2.2L486.1,555.2z M450.1,569.4h-1.3l-1.3-3.5l3.5,1.3v2.2H450.1z M466.5,619.1l-2.2-2.2l3.5-1.3
							l1.3,2.2L466.5,619.1z M460.8,623.9l-4.4-1.3l2.2-1.3l3.5,1.3L460.8,623.9z M466.5,558.8l-1.3-1.3v-2.2l2.2,1.3L466.5,558.8z
							 M466.5,545l-1.3-2.2l1.3-1.3l1.3,1.3L466.5,545z M498.9,588.9l-1.3-3.5l1.3-2.2V588.9z M447.9,630.6l2.2-2.2l1.3,2.2H447.9z
							 M466.5,568.1l-1.3-1.3l2.2-3.5L466.5,568.1z M488.3,573.8l-1.3-2.2h1.3l1.3,2.2H488.3z M502.5,588.9l-1.3-1.3l1.3-1.3
							l1.3,2.2h-1.3V588.9z M480.3,594.7H479l2.2-1.3v1.3H480.3z M447.9,572.5V569l1.3,1.3L447.9,572.5z M472.3,566.7l-1.3-2.2h1.3
							V566.7z M446.6,583.1v-1.3h2.2L446.6,583.1z"/>
						
							<polygon fill="#DDDDDD" stroke="#FFFFFF" stroke-width="1" stroke-linecap="round" stroke-linejoin="round" stroke-miterlimit="10" points="
							338.8,545 336.6,549.4 338.8,555.2 337.5,560.1 338.8,565.9 328.2,569.4 328.2,571.6 324.6,571.6 323.7,572.5 323.7,575.2 
							326,577.4 326,579.6 322.4,577.4 316.6,578.7 316.6,580.9 314.4,581.8 310.9,583.1 308.7,581.8 303.8,583.1 302.9,580.9 
							303.8,578.7 302.9,576.1 301.6,579.6 299.3,579.6 298,572.5 298,571.6 297.1,570.3 297.1,572.5 295.8,568.1 295.8,564.5 
							293.6,563.6 292.3,555.2 294.5,555.2 299.3,548.6 314.4,547.2 316.6,549.4 318,548.6 318.9,550.8 320.2,549.4 324.6,551.7 
							326,550.8 324.6,547.2 329.5,545.9 331.7,548.6 						"/>
						
							<polygon fill="#DDDDDD" stroke="#FFFFFF" stroke-width="1" stroke-linecap="round" stroke-linejoin="round" stroke-miterlimit="10" points="
							272.7,492.7 273.6,489.1 277.2,487.8 275.8,487.8 278.5,484.7 282.1,482 282.9,485.6 287.8,485.6 286.5,479.8 285.2,476.3 
							286.5,472.7 290,474.1 294.5,478.9 294.5,481.1 298,479.8 297.1,484.7 299.3,487.8 303.8,490.5 307.3,486.9 312.2,490.5 
							309.5,492.7 315.3,494.9 315.3,496.2 312.2,499.8 307.3,499.8 307.3,500.7 306.4,502.9 318,509.1 318,511.3 320.2,513.5 
							322.4,518 329.5,524.2 330.8,528.6 333.1,528.6 333.1,529.9 337.5,532.1 335.3,534.4 339.7,539.2 337.5,541.5 338.8,545 
							331.7,548.6 329.5,545.9 324.6,547.2 326,550.8 324.6,551.7 320.2,549.4 318.9,550.8 318,548.6 320.2,545.9 320.2,540.1 
							321.5,535.7 313.1,528.6 313.1,519.3 306.4,511.3 301.6,511.3 298,514.9 294.5,515.7 290,512.2 282.1,519.3 279.4,518 
							282.1,513.5 280.7,511.3 282.9,505.5 282.1,502 282.9,500.7 275.8,500.7 275,498.4 275.8,494.9 273.6,492.7 						"/>
						
							<path fill="#DDDDDD" stroke="#FFFFFF" stroke-width="1" stroke-linecap="round" stroke-linejoin="round" stroke-miterlimit="10" d="
							M404.9,633.3v4.4h2.2l-1.3-4.4l3.5-2.2l-2.2-2.2l4.4-2.2l8-12.9v4.4l3.5-4.4l1.3,3.5l4.4,2.2l-2.2,2.2l1.3,1.3l-1.3,1.3
							l4.4-1.3v1.3l-1.3,1.3v1.3l3.5-1.3l8,3.5l-1.3,2.2l-3.5,1.3l-3.5-1.3l-1.3,2.2l3.5,2.2v2.2l-5.8,1.3l-2.2-1.3l-1.3,1.3
							l-2.2-1.3h-12.9l-1.3,2.2l-2.2,9.3l-2.2,1.3l-1.3,2.2l1.3,1.3l-3.5,2.2l1.3,2.2l-3.5,4.4h-5.8l-2.2,2.2l-5.8-3.5H381l-5.8,4.4
							h-4.4l-5.8,1.3l-8-5.8l-1.3-3.5l1.3-1.3l2.2,3.5l3.5-1.3l3.5,2.2v1.3l1.3-1.3l4.4,2.2l-3.5-2.2l3.5-4.4h-2.2v-1.3l1.3-2.2
							l1.3,1.3v-3.5l13.7-3.5l10.6-12.9l4.4,4.4l2.2-2.2l-1.3-3.5L404.9,633.3L404.9,633.3z M272.7,619.1l1.3-2.2l1.3,1.3h3.5
							l1.3,2.2h1.3v4.4l1.3,1.3l3.5-2.2l2.2,1.3l2.2-4.4l2.2,1.3l5.8,5.8l3.5,7.1l-1.3,8l2.2,2.2l-1,5.8l3.5,2.2l4.4,10.6l-2.2,1.3
							l-1.3-3.5l1.3,2.2h-3.5l-1.3,1.3l-1.3-3.1L283,650.5V647l-5.8-5.8l2.2-1.3l-2.2-1.3v-5.8l-2.2-2.2v-8L272.7,619.1z
							 M270.1,619.1v1.3h-1.3l-1.3-1.3H270.1z M423.5,611.1h1.3v1.3l-2.2,1.3L423.5,611.1z M372.5,655l-1.3-1.3l1.3-2.2V655
							L372.5,655z M428,639v-1.3l2.2,1.3H428z"/>
						
							<path fill="#DDDDDD" stroke="#FFFFFF" stroke-width="1" stroke-linecap="round" stroke-linejoin="round" stroke-miterlimit="10" d="
							M224,530.8v-1.3l-3.5,3.5v-3.5l3.5-10.6l-3.5-11.5l-2.2-1.3l1.3-3.5h-2.2l1.3-1.3V500l-3.5-2.2l1.3-1.3l-4.4-1.3v2.2v-2.2
							l-1.3,1.3l-1.3-1.3l1.3-1.3h-1.3l1.3-3.5l-2.2,3.5V490l-1.3-1.3v3.5l-3.5-7.1v-3.5l3.5,1.3l-1.3-7.1l1.3-1.3l2.2,1.3l2.2-2.2
							l-1.3-4.4l1.3-2.2h1.3v-2.2v-7.1l7.1,1.3l5.8-10.6l-1.3-2.2v-1.3l4.4-5.8v-5.8l9.3-7.1h4.4l3.5,2.2L244,424l4.4-3.5v-2.2
							l1.3-3.5l5.8,3.5l1.3,5.8l1.3-1.3l2.2,1.3l1.3,7.1l-1.3,5.8l-1.3,1.3l1.3,2.2l-3.5,2.2h-1.3l-5.8,8v2.2l2.2,2.2l-2.2,3.5
							l12.9-2.2l-2.2,1.3l2.2,8l4.4,1.3l1.3,1.3l-3.5,7.1l7.1,1.3v2.2l2.2,3.5l3.5-1.3l3.5-2.2l1.3,2.2l-4,3.5l-2.2,3.5h1.3l-4,0.9
							l-1.3,3.5H271h-4.4v2.2H263l-1.3,3.5l-5.8,1.3l-2.2-1.3l-3.5,8l1.3,2.2l-3.1,1.3l2.2,2.2l1.3,4.4l7.1,7.1l1.3,7.1l2.2-1.3
							l-1.3,2.2h-1.3l-1.3,7.1l-3.5,1.3v1.3l1.3,3.5l8,8l-1.3,7.1l4.4,10.6l-7.1,10.6l-1.3,3.5l-1.3,2.2l-1.3-5.8l2.2-2.2v-7.1h1.3
							h-2.2l1.3-2.2v-2.2h-1.3l1.3-1.3l-1.3-7.1l-3.5-8v4.4l-1.3-5.8l-2.2-7.1v-8l-2.2-2.2l2.2-4.4l-2.2,0.4l-4.4-9.3l-1.3,7.1
							l-3.5,2.2l-1.3-3.5v4.4h-2.2l-4.4,5.8l-1.3-1.3l1.3-2.2l-2.2,2.2v-2.2l-1.3,2.2h-1.3l1.3-3.5l-3.5,3.5l1.3-2.2l-2.2,1.3
							L224,530.8z M215.5,502.9h1.3l1.3,3.5l-4.4-4.4L215.5,502.9z M216.9,502.9l-2.2-2.2l3.5,1.3L216.9,502.9L216.9,502.9z
							 M257.7,572.5v-1.3l1.3-1.3v2.2h-1.3V572.5z M256.3,565.9v-2.2l1.3,1.3L256.3,565.9z M214.6,506.4l1.3,2.2l-2.2-2.2H214.6z"/>
						
							<polygon fill="#DDDDDD" stroke="#FFFFFF" stroke-width="1" stroke-linecap="round" stroke-linejoin="round" stroke-miterlimit="10" points="
							523.3,315.3 521.1,318.4 511.8,318.4 508.2,323.3 506,323.3 502.5,324.2 498.9,321.9 500.2,323.3 496.7,325.5 497.6,323.3 
							493.1,323.3 495.4,321.1 489.6,321.1 493.1,316.2 498.9,315.3 494.5,314 496.7,306 494.5,306 490.9,303.3 489.6,306 
							487.4,302.4 487.4,299.8 491.8,296.7 502.5,291.8 506.9,284.7 510.4,282.5 512.7,286 521.1,287.3 522,284.7 519.8,280.3 
							527.7,280.3 531.3,275.8 534.8,275.8 536.2,269.6 539.7,270.9 539.7,272.3 542.8,275.8 544.1,276.7 540.6,276.7 534.8,283.8 
							536.2,287.3 534.8,293.1 515.3,303.3 516.2,308.2 514,308.2 514,309.1 517.5,310.4 						"/>
						
							<polygon fill="#DDDDDD" stroke="#FFFFFF" stroke-width="1" stroke-linecap="round" stroke-linejoin="round" stroke-miterlimit="10" points="
							305.1,663.4 306.4,663.4 305.1,664.3 303.8,664.3 						"/>
						
							<path fill="#DDDDDD" stroke="#FFFFFF" stroke-width="1" stroke-linecap="round" stroke-linejoin="round" stroke-miterlimit="10" d="
							M508.2,323.3l3.5-4.4h9.3l2.2-3.5l9.3,16.4v10.6l1.3,1.3l-1.3,4.4l-2.2,3.5h-5.8l-1.3,1.3h1.3l-1.3,2.2l-1.3-1.3h-5.8l1.3,2.2
							l-1.3,1.3l-2.2-2.2l1.3,2.2l-1.3,1.3l-2.2-1.3l2.2-1.3l-4.4,2.2V357l-2.2,2.2H506l-1.3-4.4l1.3,2.2l2.2-2.2h-3.5l1.3-1.3
							l-1.3-2.2l1.3,1.3V349l2.2-1.3l-2.2-1.3l3.5-2.2l-2.2-1.3l2.2-1.3l-2.2-1.3l-1.3-5.8l-1.3,2.2l-1.3-2.2l1.3-2.2v2.2l1.3-1.3
							l-1.3-1.3l1.3,1.3V331l3.5,1.3v2.2l1.3-1.3l-2.2-2.2l1.3-1.3h-1.3h1.3l-2.2-4.4L508.2,323.3z M509.6,367.2v2.2h-5.8l1.3-1.3
							L509.6,367.2z M518.4,353.4l1.3,2.2h-1.3v-1.3V353.4z M525.5,353.4l-1.3,2.2v-2.2H525.5z M506,357.9h-3.5l1.3-1.3L506,357.9z
							 M506,324.2l1.3,2.2l-2.2-1.3L506,324.2L506,324.2z"/>
						
							<path fill="#DDDDDD" stroke="#FFFFFF" stroke-width="1" stroke-linecap="round" stroke-linejoin="round" stroke-miterlimit="10" d="
							M272.7,619.1l-3.5-4.4v-1.3l-3.5-2.2l-1.3-3.5l-3.5-2.2l-1.3-3.5l-2.2,2.2l-1.3-1.3v-9.3l3.5-9.3l1.3-3.5l7.1-10.6l-4.4-10.6
							l1.3-7.1l-8-8l-1.3-3.5v-1.3l3.5-1.3l1.3-7.1h1.3l1.3-2.2l-2.2,1.3l-1.3-7.1l-7.1-7.1l-1.3-4.4l-2.7-1.3l3.5-1.3l-1.3-2.2
							l3.5-8l2.2,1.3l5.8-1.3l1.3-3.5h3.5v-2.2h4.4h1.3h1.3l2.2,2.2l-1.3,3.5l1.3,2.2h7.1l-1.3,1.3l1.3,3.5l-2.7,5.8l1.3,2.2
							l-2.2,4.4l2.2,1.3l8-7.1l4.4,3.5l3.5-1.3l3.5-3.1h4.4l7.1,8v9.3l8,7.1l-1.3,4.4v5.8l-2.2,2.2l-1.3,1.3l-2.2-2.2l-15.1,1.3
							l-4.4,7.1H292l1.3,8l2.2,1.3v3.5l1.3,4.4l-2.2-4.4l-2.2-1.3v-1.3l-1.3,1.3l-1.3-3.5l-3.5-1.3l-7.1,1.3v-7.1h-8v10.6l-8,17.3
							l1.3,9.3h5.8l1.3,5.8l2.2,2.2l2.2,10.6l-2.2-5.8l-1.3,1.3l1.3,3.5l7.1,4.4h4.4l4.4,4.4l-2.2,4.4l-2.2-1.3l-3.5,2.2l-1.3-1.3
							V620h-1.3l-1.3-2.2H275l-1.3-1.3L272.7,619.1z M256.3,604l1.3,1.3l-1.3,2.2V604z"/>
						
							<path fill="#DDDDDD" stroke="#FFFFFF" stroke-width="1" stroke-linecap="round" stroke-linejoin="round" stroke-miterlimit="10" d="
							M575.6,355.6l-3.5,1.3h1.3l-1.3,1.3h-5.8l-1.3,2.2h-4.4l-2.2-1.3l-2.2,5.8l-2.2-3.5l-4.4,2.2l-2.2-1.3l-1.3,1.3v-4.4l1.3-1.3
							h3.5l11.5-10.6l3.5-1.3l2.2,1.3l9.3-1.3l7.1-1.3v2.2h5.8l1.3-2.2l1.3,1.3l-1.3-3.5l5.8-8l1.3-5.8l4.4-2.2l-3.5,4.4h1.3v2.2
							l2.2,1.3l1.3-2.2l8-2.2l4.4-5.8l4.4-3.5L627,307v-3.5l-3.5-1.3l3.5-3.5l-2.2-3.5l4.4-2.2v-4.4h2.2l1.3,4.4l1.3-2.2l2.2,1.3
							l1.3-3.5l-3.5,1.3V286l1.3-1.3l3.5,2.2v7.1l2.2,2.2l3.5,10.6l-1.3,4.4H641l-1.3,2.2v5.8l-3.5-1.3l-1.3,2.2v11.5l-2.2,2.2
							l-1.3,4.4l2.2,5.8l-3.5,2.2v3.5l-5.8,2.2v-3.5l2.2-3.5h-2.2l-1.3,4.4l-1.3-1.3h-3.5v3.5L616,355l-1.3-3.5l1.3-1.3l-1.3-1.3
							l-3.5,3.5l-1.3,2.2h-10.6l2.2-1.3l-2.2-1.3l-1.3-1.3v2.2v-3.5l-3.5,3.5l3.5,2.2v5.3h-4.4l-5.8,8L582,364l1.3-2.2l-1.3-1.3
							l3.5-3.5v-1.3h-9.9V355.6z M664.8,259.4h3.5l4.4-4.4l-2.2,7.1l3.5,2.2l-2.2-1.3l1.3,3.5l4.4-1.3l-2.2,2.2l-13.7,3.5l-5.8,4.4
							l-1.3,5.8l-12.9-8l-7.1,3.5l-2.2-2.2h-2.2l-1.3,3.5l8,4.4l-2.2,1.3l-2.2-1.3l-2.2,2.2l-3.5,1.3l1.3-5.8l-3.5-2.2v-4.4l7.1-3.5
							l-2.2-3.5l7.1,1.3l2.2-1.3V262l2.2-2.2l1.3-7.1l-1.3-7.1l1.3-2.2l2.2-1.3l9.3,11.5l5.8,4.4l3.5-1.3L664.8,259.4z M547.7,366.3
							h4.4v1.3l-1.3,2.2h3.5l-1.3,1.3l1.3,3.5l-2.2,2.2l-3.5,11.5h-2.2l1.3,1.3l-4.4,2.2l1.3-2.2l-1.3-3.5h1.3l-1.3-1.3L542,387
							l1.3,3.5l-3.5-1.3l1.3-3.5l-2.2-3.5l3.5-4.4l1.3-1.3h-1.3l1.3-2.2l-3.5-3.5l-1.3,3.5h2.2v1.3l-1.3,1.3l-1.3-2.2l-3.5,2.2
							l1.3-1.3l-1.3-1.3v-2.2l1.3,2.2h1.3l-3.5-3.5v-2.2l2.2,1.3v-2.2l1.3,1.3l2.2-2.2h1.3l3.5-3.5l2.2,1.3L547.7,366.3z
							 M575.6,367.2l-1.3,2.2l-3.5-2.2l-4.4,1.3l-2.2,7.1l-4.4-2.2l1.3-3.5l-2.2-2.2l-2.2,2.2l4.4-3.5l2.2-4.4l2.2,2.2l3.5-1.3
							l1.3-2.2l4.4-1.3l3.5,1.3l1.3,3.5L575.6,367.2z M522,432.4v1.3l-3.5,2.2l-1.3,3.5h-1.3l1.3-3.5l2.2-1.3l-1.3-1.3l1.3,1.3
							L522,432.4z M612.4,319.7v3.5l-2.2,1.3l1.3-2.2l-1.3-1.3L612.4,319.7z M534.8,416l-3.5,3.5l-1.3-1.3L534.8,416z M580.1,360.5
							l-1.3-1.3l3.5-2.2l-1.3,3.5H580.1z M541.9,397.3l1.3,1.3v1.3l-2.2-1.3L541.9,397.3z M537.1,380l1.3-3.5l1.3,2.2L537.1,380z
							 M532.6,355.6l-1.3,3.5V357L532.6,355.6z M525.5,375.6l1.3-1.3l1.3,1.3H525.5z"/>
						
							<path fill="#ECA395" stroke="#FFFFFF" stroke-width="1" stroke-linecap="round" stroke-linejoin="round" stroke-miterlimit="10" d="
							M310.9,583.1l3.5-1.3l2.2-1.3v-2.2l5.8-1.3l3.5,2.2V577l-2.2-2.2v-2.2l1.3-1.3h3.1V569l10.6-3.5l-1.3-5.8l1.3-4.4l-2.2-5.8
							l2.2-4.4l-1.3-3.5l2.2-2.2l-4.4-4.4l2.2-2.2l-4.4-2.2V529h-2.2l-1.3-4.4l-7.1-5.8l-2.2-4.4l-2.2-3.1v-2.2l-11.5-5.8l1.3-2.2
							v-1.3h4.4l3.5-3.5V495l-5.8-2.2l2.2-2.2l-4.4-3.5l-3.5,3.5l-4.4-2.2l-2.7-3.5l1.3-4.4l-3.5,1.3v-2.2l-4.4-4.4l3.5-3.5l4.4,3.5
							l2.2-3.5l2.2,2.2l1.3-2.2l2.2,2.2l1.3-2.2l2.2,1.3l3.5-1.3l1.3-3.5l4.4-1.3l4.4,3.5h7.1l1.3,1.3l-2.2,3.5l1.3,3.5l5.8,3.5h3.5
							l2.2,1.3l-4.4,2.2l-1.3,2.2l-1.3,1.3v-1.3l-3.5,1.3l-1.3-1.3l1.3,3.5h-2.2v3.5l-6.2,2.2l-2.2,8l2.2,4.4l5.8,4.4L328,517
							l2.2,3.5l10.6,9.3l3.5,1.3v2.2l1.3-1.3l-1.3,1.3l3.5,4.4h1.3l4.4,13.7l-1.3,4.4l2.2,4.4l-2.2,2.2l1.3,2.2h-1.3l1.3,4.4
							l-1.3-2.2v3.5l-1.3,3.5l-8,3.5l-1.3,2.2l-7.1,2.2l-2.2-2.2v2.2l-1.3-2.2l-2.2,2.2h1.3l1.3,1.3h-3.5l3.5,2.2l-2.2,1.3L327,583
							l3.5,4.4l-4.4-3.5l3.5,3.5v2.2h-1.8l-5.8-4.4l3.5,5.8l-5.8,2.2l-3.5,4.4h-3.5l2.2-1.3H314v-5.8l2.2-3.5l-2.2-2.2h-2.2
							L310.9,583.1z M307.3,583.1v3.5l-2.2-2.2L307.3,583.1z"/>
					</g>
					<g>
						<path fill="#999999" stroke="#FFFFFF" stroke-miterlimit="10" d="M-1210.7,245.2l1.3,2.2l-1.3,1.3l1.3,1.3l-1.3,1.3l-10.6,2.2
							l-2.2,2.2l-2.2-1.3v-2.2l-1.3,1.3l-1.3,4.4l-1.3,1.3l-1.3-1.3l-1.3,2.2l-1.3-2.2l-1.3,2.2v-2.2l-1.3,3.5v-1.3l-2.2,1.3v1.3
							l-4.4,5.8l-1.3,3.5l2.2,1.3l-4.4,3.5l3.5,1.3v2.2l3.5,3.5l2.2-1.3l-2.2-3.5h2.2l1.3,4.4l-7.1,1.3v-2.2l-4.4,3.5l1.3-3.5
							l-2.2,1.3v-1.3l-1.3,4.4l-12.9,1.3l-9.3,4.4v-1.3l-2.2,4.4h2.2v1.3l-1.3,5.8v-2.2l-3.5,7.1l-4.4,4.4l1.3-2.2l-4.4-2.2
							l-1.3-2.2l4.4-4.4l-4.4,3.5l4.4,12.9l-8,12.9h-1.3l1.3-3.5l2.2-4.4h-2.2l1.3-4.4l-2.2,2.2l-2.2-3.5h3.5l-3.5-1.3v-1.3h2.2
							l-1.3-2.2l-1.3,1.3l2.2-2.2l-1.3,1.3v-3.5l3.5-2.2h-1.3l-4.4,2.2v1.3h-1.3l1.3,2.2l-1.3,3.5l1.3,3.5l-2.2-3.5v2.2l3.5,1.3v3.5
							l-7.1-4.4h-1.3l2.2-3.5l-1.3-1.3v2.2l-2.2,2.2l10.6,5.8l-1.3,2.2l-7.1-4.4l7.1,5.8l1.3,2.2h-2.2l-2.2-1.3l3.5,4.4l-3.5-2.2
							l-4.4-1.3l8,4.4v-1.3l2.2,1.3l4.4,10.6l-3.5-9.3v2.2h-1.3l2.2,4.4l-1.3-2.2v1.3l-2.2-1.3l1.3,1.3l-4.4,2.2l-1.3-2.2v1.8h5.8
							l-1.3,2.2l1.3,1.3l2.2-3.5l1.3,2.2l-4.4,3.5h-2.2l-1.3-1.3l-1.3,1.3l-3.5-1.3l5.8,2.2l-2.2,2.2l-3.5-1.3l3.5,2.2l3.5-1.3
							l-1.3,3.5l-8,1.3l-1.3-1.3l1.3,1.3l-3.5,2.2l-1.3,4.4l-1.3-2.2v2.2h-4.4l-5.8,5.8l-1.3-1.3l1.3,2.2l-2.2,1.3l-3.5,2.2h-1.3
							v1.3l-3.5,2.2h-2.2l1.3,1.3l-1.3,1.3l-2.2-2.2l2.2,2.2l-4.4,7.1h-1.3h1.3l-3.5,7.1l1.3,5.8l3.5,9.3l3.5,5.8l-2.2-1.3l1.3,3.5
							l7.1,15.1l-3.5,15.1l-7.1,1.3v-2.2l2.2,1.3l-3.5-5.8l-3.5-1.3l-2.2-4.4l1.3-2.2l-2.2,2.2v-4h-1.3v1.3l-1.3-1.3l-2.2-4.4
							l1.3-4.4l-2.2-1.3l1.3,2.2l-1.3,1.3l-1.3-1.3l2.2-8l-2.2-4.4l-2.2-1.3l-8-8l-11.5,3.5v-1.3l-2.2-2.2h2.2l-3.5-2.2l-1.3,1.3
							l1.3,1.3l-5.8-2.2h2.2l-1.3-1.3l-8,1.3l2.2-1.3l-2.2-1.3l-3.5,2.2l1.3-1.3l-1.3,1.3l-3.5,1.3l2.2-1.3l-2.2-3.5l-1.3,3.5
							l-8-1.3l-4.4,3.5l-5.8-2.2l-2.2,1.3l2.2,2.2l4.4-2.2l-1.3,2.2l1.3,1.3l2.2-2.2v3.5l-3.5,1.3l7.1,4.4l-3.5,2.2l1.3-2.2h-1.3
							l-7.1-4.4l1.3,2.2v2.2h-1.3l-2.2-2.2l-2.2,2.2l-4.4-1.3l1.3-1.3l-7.1-4.4l-2.2,1.3v1.3l-1.3,1.3l-8-2.2h-5.8v-2.2l-1.3,1.3
							l1.3,1.3l-8,3.5l2.2-2.2h-2.2v-1.3h-2.2l1.3,3.5l-2.2,3.5l-9.3,4.4l2.2-1.3h-5.8l2.2,2.2l-2.2,1.3l-2.2-1.3l1.3,1.3l-3.5,1.3
							v1.3h1.3l-2.2,2.2h-2.2l2.2,1.3l-1.3,3.5l-3.5-1.3l1.3,2.2l2.2-1.3l-1.3,4.4l3.5,8l-2.2,1.3l-15.1-5.8l-3.5-5.8v-4l-7.1-7.1
							l-3.5-8l-7.1-5.8l-8-1.3l-2.2,1.3l-4.4,7.1h-2.2l-10.6-5.8l-2.2-9.3l-12-11.1l-2.2-2.2h-16.4v4.4h-24.4l-33.7-11.5l1.3-2.2
							l-22.2,1.3l-3.5-7.1l-4.4-4.4h-3.5l-1.3-3.5h-4.4l-3.5-3.5l-9.3-1.3l-1.3-5.8l-10.6-11.5v-7.1l-4.4-2.2l-1.3-5.8l4.4,3.5
							l-3.5-5.8l5.8-1.3h-5.8l-1.3,3.5l-3.5-2.2l1.3-1.3l-3.5-3.5l-4.4-4.4l-1.3-8l-4.4-8l2.2-3.5v-7.1l-3.5-15.1l1.3-4.4l2.2-1.3
							h-2.2l2.2-3.5l2.2-19.5l-1.3-7.1h7.1l-7.1-2.2l-1.3-3.5l1.3,3.5v-3.5h1.3l-2.2-2.2l2.2-1.3l-2.2-1.3l-1.3,1.3l-4.4-16.4
							l7.1,3.5h10.6l1.3,2.2l-1.3,2.2l-1.3-1.3l-2.2,4.4h3.5h-2.2l2.2-3.5l2.2-2.2v2.2l-0.9,1.3h1.3v3.5l-1.3-1.3l-1.3,2.2V221
							l-2.2,2.2l1.3,1.3l5.8-3.5l-1.3-3.5v-3.1l-1.3-2.2h1.3l-2.2-3.5l1.3,1.3l1.3-1.3l-3.5-5.8h77.6h167.2v-3.5h3.5l1.3,7.1
							l7.1,2.2l8-1.3l4.4,4.4l3.5-1.3l5.8,3.5l4.4-2.2l1.3,1.3l11.5,1.3l9.3-3.5l31.5,16.4l2.2,4.4h3.5l2.2,4.4l2.2-1.3l1.3,1.3
							l-1.3,2.2l9.3,5.8l4.4,18.6l-4.4,10.6l-4.4,3.5v3.5l3.5,3.5l33.7-12.9l-2.2-7.1l4.4-1.3h16.4l3.5-4.4l12.9-10.6h31.5l1.3-3.5
							l4.4,1.3l4.4-8V235l2.2-5.8l7.1-9.3l3.5,3.5l4.4-2.2l4.4,3.5v15.1l3.5,2.2v3.1L-1210.7,245.2L-1210.7,245.2z M-2075.5,56.3
							l3.5,1.3l-1.3,3.5l3.5-3.5l2.2,2.2l2.2-1.3l-3.5-2.2h2.2V55l-3.5,1.3l-5.8-1.3h-4.4l3.5-2.2l-4.4-1.3l5.8-5.8l-4.4,3.5
							l-2.2,2.2v2.2l-3.5-3.5v-3.5h-3.5l1.3-2.2l2.2,1.3l-2.2-2.2h4.4l-1.3-3.5l4.4-4.4l2.2-1.3l2.2,1.3l-1.3-2.2l2.2-2.2l-2.2,1.3
							l-1.3-2.2l2.2-2.2h3.5l-2.2-2.2l1.3-1.3l11.5,2.2l7.1-5.8l8,1.3l4.4-4.4l-1.3-7.1l-1.3-2.2h-3.5l5.8-3.5l-2.2-3.5l-8,2.2
							l-7.1,5.8l-3.5-4.4l-1.3,1.3l2.2,1.3v1.3l-7.1-2.2l-10.6,1.3l-11.5-2.2V2.2l-4.4-4.4l2.2,1.3l4.4-2.2l-11.5-2.2l-5.8-3.5
							l16.4-7.1h7.1l-3.5-1.3l1.3-1.3l12.9-3.5h5.8h-2.2l1.3,1.3l-1.3,3.5l-2.2,1.3l20.8,2.2l2.2-3.5h3.5v2.2l1.3-2.2l-4.4-2.2
							l-3.5,2.2v-4.4l-5.8-2.2V-26l2.2-1.3l2.2,4.4l3.5,2.2l4.4-1.3l3.5,2.2h4.4v-3.5l-11.5,1.3l-3.5-2.2l3.5-4.4h-8v-2.2l-1.3,2.2
							l-10.6-1.3l-3.5-8l-24.4-10.6l4.4-1.3l1.3-7.1l20.8-2.2l7.1-5.8l1.3-5.8l9.3-9.3l1.3,1.3l-3.5,1.3h2.2l17.3-5.8l-2.2,1.3
							l3.5,3.5v-3.5l4.4-1.3l-7.1-1.3l4.4-3.5l3.5-1.3l-2.2,2.2l2.2,1.3l10.6-2.2l12.9-8l8,2.2l-4.4,4.4h1.3v2.2l8-5.8v2.2l2.2-2.2
							l2.2,2.2v2.2l3.5,1.3l8-2.2l9.3,1.3l-2.2,3.5l3.5,1.3h-4.4h8l-2.2,1.3h24.4l38.1,8l15.1-2.2l19.5,7.1V66.5l9.3,1.3l8-2.2
							l-1.3,3.5l13.7,11.5l1.3,3.5l5.8-2.2h2.2v-4.4h2.2l-1.3-1.3l8-3.5l4.4,3.5l-1.3,2.2l1.3,1.3l13.7,10.6l10.6,16.4l-1.3,2.2h2.2
							v2.2l2.2,1.3V112l15.1,5.8l1.3,2.2l-2.2,2.2l2.2,5.8l-3.5,4.4l-3.5,2.2V133l-1.3,1.3l-1.3-2.2l2.2-1.3l2.2-2.2l-2.2,2.2h-1.3
							h-1.3l1.3-2.2h2.2h-2.2v-4.4l-2.2-3.5l1.3-2.2l-8,3.5h1.3v2.2l-1.3,2.2l-2.2-1.3v-2.7l2.2-2.2V118l1.3-1.3l-1.3-1.3l-3.5-2.2
							v-0.9h-2.2l2.2-2.2l-3.5-1.3l-1.3-2.2l-5.8-2.2l3.5-1.3h-2.2l-1.3-2.2l1.3-1.3h-2.2V98l5.8,2.2l-4.4-3.5v-0.9h3.5l-3.5-1.3
							l-1.3,2.2l-1.3-2.2l1.3-2.2l-2.2,2.2l-1.3-1.3v-4.4l2.2-1.3h-2.2l-1.3,3.5l-3.5-1.3l-2.2-1.3l-1.3-3.5l-3.5-10.6l-1.3,2.2
							l1.3,2.2l-2.2-1.3l4.4,12.9h-2.2l-1.3-3.5l-3.5,1.3v-1.3l-2.2-4.4h3.5l-3.5-2.2V82l-1.3,1.3l-7.1-3.5l-1.3,2.2h5.8l1.3,2.2
							l-1.3,1.3l2.2-1.3l1.3,2.2V90l-3.5-1.3l1.3,1.3h-2.2v1.3l-17.3-11.5l1.3-1.3l-10.6-3.5l1.3-7.1l2.2,2.2v3.5V70h3.5l-5.8-2.2
							l-8,4.4l-8-2.2l1.3-2.2l-1.3-1.3l-3.5,2.2l-8-2.2l-10.6,1.3l-9.3-3.5l2.2-5.8l-5.8,4.4l-4.4-2.2l1.3-2.2l-4.4,1.3l1.3-2.2
							l-4.4,1.3l4.4-2.2l-5.8-1.3l3.5-2.2l-9.3,3.5h-1.3v-3.5l-1.3,3.5l-1.3,1.3l-2.2-2.2l2.2-4.4l-2.2,3.5h-1.3l-1.3,3.5h-3.5h2.2
							l-2.2,1.3l4.4-1.3v2.2l-4.4,2.2l5.8-2.2l1.3,2.2l-3.5,2.2l2.2,1.3h-2.2l-1.3,3.5l-5.8-2.2l-1.3,3.5l-2.2-3.5l-1.3,3.5
							l-1.3-1.3v3.5l-2.2-2.2l1.3,1.3l-1.3,1.3l-3.5,2.2l1.3-3.5l-2.2,3.5v-1.3l-3.5,4.4l-7.1,1.3l-2.2-2.2l1.3-1.3l3.5-1.3l3.5-3.5
							l-3.5,1.3l-3.5-1.3l4.4-8l-1.3-4.4l9.3-4.4l11.5,2.2l-8-3.5l7.1-4.4h-4.4l-3.5,3.5l-4.4-1.3l-9.3,5.8v2.2l-4.4,2.2l-1.3,3.5
							h-7.1l4.4,2.2l-1.3,2.2l-4.4,1.3h2.2v1.3l-3.5,1.3v-1.3l-5.8,5.8l-2.2,2.2l1.3,1.3l7.1,1.3l1.3,1.3l-1.3,2.2l-5.8,2.2V90
							l-2.2,2.2l2.2-1.3l-1.3,2.2l-7.1,1.3l-3.5,4.4l-2.2-1.3l-1.3,3.5l-7.1,2.2l2.2,2.2l-2.2,2.2h-3.5l-2.2,2.2l-2.2-1.3l-1.3,2.2
							l1.3,1.3l-2.2-1.3l-3.5,1.3l2.2,1.3l-4.4,1.3l1.3,1.3h4.4l-3.5,3.5l-1.3-2.2h1.3l-0.9-1.3v3.5l-7.1,1.3l-2.2,3.5v-4h-1.3
							l-5.8,4.4l-1.3-1.3l-5.8,2.2h-2.2v-0.4l3.5-1.3l-3.5-1.3l-4.4,5.8l1.3,1.3l-4.4,1.3l-2.2-3.5l1.3,4.4h-2.2l-3.5-2.2l1.3,2.2
							l-2.2,1.3v-3.5l7.1-3.5l2.2-3.5l4.4-2.2l5.8-1.3l3.5,3.5V121l4.4,1.3l-3.5-2.2l2.2-4.4l11.5-5.8h3.5v-4l4.4-3.5l3.5-3.5
							l3.5,1.3l-3.5-1.3l1.3-5.8l3.5-1.3l-3.5-1.3v-2.2l7.1-9.3l-2.2,3.5l-11.5,2.2l-1.3-1.3v-3.5l4.4,2.2l-4.4-4.4v2.2l-1.3,2.2
							l-1.3-1.3V83h-1.3l1.3,3.5l-1.3,1.3h-1.3l-4.4-7.1l-3.5,2.2l-3.5-3.5l-11.5,5.8l-4.4-1.3l4.4-1.3l-1.3-3.5l2.2-1.3h-4.4
							l1.3-3.5l2.2-1.3l-4.4-8v-2.2l-1.3,1.3l1.3-5.8l2.2-1.3l-3.5,1.3l-2.2,3.5v4.4l-9.3,2.2h-4.4l-1.3-1.3l0.9,0.9l-9.3-5.8
							l2.2-1.3h-4.4L-2075.5,56.3z M-1977,99.3l-3.5-2.2l2.2-1.3L-1977,99.3l2.2-1.3l-1.3-2.2h3.5l-2.2-1.3l4.4,1.3l-1.3,2.2
							l3.5-2.2l1.3,1.3l-1.3,1.3l3.5,1.3l-2.2,2.2l-5.8-1.3l3.5,2.2h-4.4l1.3,1.3h-2.2l-3.5,2.2l1.3,1.3l-3.5,2.2h-1.3l2.2-4.4
							l-2.2,2.2v-2.7l-2.2,3.5l-2.2-4.4l-2.2-1.3l5.8-4.4l4.4,5.8l-2.2-4.4h3.1L-1977,99.3L-1977,99.3z M-1996.5,494l4.4,2.2
							l3.5,4.4l-7.1,5.8l-2.2-2.2l-1.3-5.8l2.2-2.2V494H-1996.5z M-1794.8,127.3l-1.3-1.3l2.2-2.2h-4.4l2.2-2.2l-1.3-3.5l-3.5-2.2
							h4.4v3.5l4.4,1.3l3.5,5.8l-3.5-1.3l4.4,3.5l-1.3,1.3l2.2-1.3l-2.2,3.5h2.2l-1.3,3.5l-4.4-2.2v-4v1.3l-5.8-2.2L-1794.8,127.3z
							 M-2131.4,21.3h-7.1l-1.3-1.3l1.3-4.4l1.3,3.5l11.5-1.3l7.1,4.4l7.1,1.3l-1.3,1.3h-4.4l-2.2,3.5l-1.3-2.2l-7.1-3.5l-2.2-1.3
							C-2130,21.3-2131.4,21.3-2131.4,21.3z M-1823.6,96.7h-1.3v-2.2l3.5,1.3l-3.5-2.2v-2.7l2.2,2.2l3.5-2.2l2.2,1.3l-2.2,2.2
							l3.5-2.2l3.5,1.3v2.2l-2.2-1.3l2.2,2.2h-1.3l-7.1-2.2l4.4,3.5l3.5-1.3l1.3,4.4l-9.3-4.4l2.2,3.5l-2.2,1.3L-1823.6,96.7z
							 M-2088.3,62.1l3.5,2.2l1.3,3.5l-5.8,2.2l1.3,1.3l-11.5-5.8L-2088.3,62.1z M-1808.5,100.2l-3.5-11.5l2.2,3.5h4.4l2.2,4.4V98
							l-3.5-4.4v2.2l3.5,4.4h-1.3l1.3,2.2l-2.2-1.3l1.3,2.2l-3.5,2.2l-1.3-2.2l2.2-1.3L-1808.5,100.2h2.2H-1808.5z M-2071,136.1
							l-4.4,3.5l-2.2-2.2l3.5-4.4l7.1-1.3h2.2l1.3,2.2l2.2,2.2H-2071z M-1812.9,112.2v-3.5h-2.2v-4.4l-2.2-1.3h1.3v-2.7l4.4,2.2
							l3.5,8l-1.3,7.1l-3.5-4.4l2.2-2.2L-1812.9,112.2z M-1779.7,127.3v-3.5V127.3h-1.3v1.3l-1.3-2.2v2.2l-2.2-2.2l1.3-4.4l3.5-1.3
							l3.5,3.5l-1.3,3.5l-1.3,2.2h-1.3l1.3-2.2l-2.2,1.3L-1779.7,127.3z M-2096.3,149l2.2-1.3l-3.5-1.3l1.3-2.2h3.5v1.3l2.2-1.3
							l1.3,1.3l-3.5,2.2h3.5l-4.4,2.2l-9.3,2.2L-2096.3,149z M-1794.8,107.3v4.4l-3.5-3.5l2.2,4.4l-3.5,1.3l-1.3-5.8h-2.2h1.3
							l-2.2-2.2L-1794.8,107.3z M-1271,294l3.5-2.2l8-1.3l3.5-1.3l-3.5,2.2l7.1-2.2l-15.1,5.8L-1271,294z M-1972.1,93.5l-2.2-2.2
							l3.5,1.3l-2.2-1.3l3.5-1.3l1.3-2.2l5.8,2.2l-1.3,2.2l-1.3-1.3v1.3L-1972.1,93.5z M-1805,115.3l-1.3-1.3h2.2v-0.9l-2.2-1.3
							l-1.3-3.5h3.5v4l2.2-2.2v2.2h-1.3v5.8l-1.3-2.2l-1.3,3.5v-4L-1805,115.3L-1805,115.3z M-1918.9,64.3l-4.4,5.8h-3.5l5.8-7.1
							L-1918.9,64.3z M-2103.4,150.3l-11.5,8l4.4-5.8h2.2v-2.2H-2103.4z M-2002.3,491.3l-2.2-3.5l1.3-1.3l4.4,2.2L-2002.3,491.3z
							 M-2015.2,484.7h-2.2l-1.3-2.2l2.2-1.3l2.2,3.5H-2015.2z M918,159.6l-3.5-2.2l1.3-1.3h4.4l2.2,2.2L918,159.6z M-1789,120.2
							l-3.5-3.5l2.2-1.3l1.3,1.3l2.2,1.3v2.2H-1789z M-2167.3,167.6l7.1-2.2l-2.2-1.3l2.2-1.3l2.2,1.3l-2.2,2.2L-2167.3,167.6z
							 M-2028.9,478.9l-3.5-1.3l1.3-1.3h3.5L-2028.9,478.9z M-1795.6,129.5l3.5,7.1l-3.5-3.5l-1.3-2.2L-1795.6,129.5z M-2142.9,64.3
							l-3.5-0.9l-3.5-2.2l1.3-1.3L-2142.9,64.3z M-2184.6,173.4l2.2-4.4h1.3l-1.3,1.3h2.2L-2184.6,173.4z M-1787.7,116.6h-1.3v-1.3
							v-2.2l2.2,2.2h1.3l-1.3,2.2L-1787.7,116.6z M-2032.5,128.1v2.2l-3.5,2.2v-2.2L-2032.5,128.1z M-2192.6,173.4l-3.5-3.5l3.5-1.3
							v1.3V173.4z M-2040.4,127.3l2.2,2.2l-3.5,1.3v-2.7L-2040.4,127.3z M-1910.5,63.4l-4.4,1.3l1.3-1.3h-2.2l1.3-1.3L-1910.5,63.4z
							 M-1793.4,109.5l2.2,2.2l-3.5,1.3L-1793.4,109.5z M-1797,117.9l-1.3,1.3l-3.5,1.3l2.2-2.2h2.7L-1797,117.9L-1797,117.9z
							 M-1793.4,116.6l-1.3-2.2h3.5v1.3L-1793.4,116.6z M-2153.1,167.6l-5.8-1.3l10.6,1.3H-2153.1z M-2190.3,172.5l4.4-3.5v2.2
							L-2190.3,172.5z M-1924.7,62.1l-1.3,3.5l-1.3-1.3l1.3-2.2C-1926,62.1-1924.7,62.1-1924.7,62.1z M-2086.1,143.2l-2.2-1.3
							l1.3-1.3l2.2,1.3L-2086.1,143.2z M-1780.6,129.5v2.2h-1.3v-3.5L-1780.6,129.5z M-1819.1,102.9l1.3,2.2l-2.2,2.2l1.3-2.2
							l-1.3-2.2H-1819.1z M973.4,175.6L969,172l7.1,3.5h-2.7V175.6z M-2044,85.1l3.5-1.3l-1.3,2.2L-2044,85.1z M-1703,209.3l1.3,1.3
							l-1.3,1.3l2.2,3.5l-3.5-3.5L-1703,209.3z M-2005.9,486.9l-4.4-1.3h4.4V486.9z M-1973.5,103.7l2.2,1.3l-4.4,1.3l1.3-1.3v-1.3
							H-1973.5z M-1824.9,93.5v0.9v1.3l-1.3-2.2C-1826.2,93.5-1824.9,93.5-1824.9,93.5z M-1974.4,92.2l3.5,2.2l-4.4-1.3
							L-1974.4,92.2z M925.1,164.1l-2.2-1.3l3.5-1.3L925.1,164.1z M957.5,169.8l-1.3-1.3l3.5-2.2L957.5,169.8z M-1784.1,127.3
							l1.3,1.3v2.2L-1784.1,127.3z M-1807.2,90.9h1.3h-2.2V90L-1807.2,90.9z M-2007.2,489.1l-1.3-1.3h2.2L-2007.2,489.1z M977,169.8
							l-1.3-1.3h2.2L977,169.8z M-1221.3,254.5l1.3-1.3v1.3l-2.2,1.3L-1221.3,254.5z M-1281.7,496.2v1.3V496.2z M-1281.7,496.2v1.3
							h-1.3L-1281.7,496.2z M-1706.5,202.6v1.3V202.6z"/>
						<path fill="#A23520" stroke="#FFFFFF" stroke-linecap="round" stroke-linejoin="round" stroke-miterlimit="10" d="M173,427.5
							l-1.3-2.2l1.3-4.4l-2.2-1.3l-4.4,3.5h-8l-4.4-3.5l-3.1,2.2l-1.3-2.2l-2.2,2.2l-2.2-3.5h-5.8l1.3-2.2H137l-3.5-2.2l-2.2-4.4
							l-5.8,1.3l-2.2-4.4L114,402l-1.3-2.2h-6.2l-1.3,3.5l-2.2-2.2l-7.1-3.5V396l-3.5-2.2H90l-4.4-4.4l-2.2,1.3v-7.1l-2.2-2.2
							l-1.3-4.9h3.5l1.3,2.2l5.8-3.5l-2.2-3.5l-3.5-3.5l-1.3-1.3V361l1.3-2.2l-5.8-2.2l-2.2-7.1v-2.2h-1.3l-9.3-1.3l-2.2-3.1
							l-3.5,1.3l-2.7-2.2l1.3-1.3l-1.3-4.4l-4.4-1.3v-1.3l-2.2-1.3h-4.4l-2.2-2.2H49l2.2-2.2l-2.2-2.2v-8l-4.4-2.2l-4.4,1.3
							l-1.3-3.5l0.9-1.3l-2.2-2.2l1.3-2.2l2.2-1.3l-1.3-2.2l1.3-2.2l8-3.5v-2.2l3.5,1.3l2.2-2.2l1.3,3.5h5.8l4.4-7.1h11.5l2.2-3.5
							l16.4-7.1V279l-1.3-4.4l1.3-2.2h3.5l-2.2-2.2l3.5-1.3l-3.5-10.6v-5.8H99l-5.8-2.2l16.4-4.4l2.2,2.2h5.8v-3.5l-2.2-1.3
							l5.8-18.6l8,2.2h7.1l1.3,2.2l5.8-3.5l2.2-2.2l-2.2-7.1l2.2-5.8l8-1.3l2.2-7.1l3.5,1.3l4.4-1.3v2.2l-1.3,1.3l3.5,1.3l-1.3,2.2
							l4.4,1.3l1.3,2.2l4.4,2.2l8,1.3l8,10.6l1.3,4.4l-1.3,3.5v2.2l-2.2,5.8l1.3,3.5l7.1,1.3l17.3,1.3l10.6,7.1l5.8,1.3l-1.3,2.2
							l2.2,1.3l3.5,7.1l3.5,5.8h7.1l20.8,2.2l11.5-1.3l9.3,1.3l2.2,3.5l11.5,3.5h10.6v2.2l3.5,1.3l22.2-9.3h16.4l7.1-2.2l8-7.1
							l8-4.4l-4.4-7.1l4.4-7.1l4.4-1.3l3.5,3.5h7.1l8-7.1h10.6l4.4-3.5l3.5-5.8l7.1-1.3V231h3.5l4.4-1.3l12.9,1.3l1.3-1.3v-2.2
							l-7.1-8.9l-4.4-4.4h-7.1l-3.5,4.4l-4.4-3.5h-5.8l-2.2,2.2l-3.5-2.2v-2.2l2.2-1.3V208l8-15.1l10.6,3.5l5.8-4.4l7.1-1.3v-3.1
							h-2.2l8-15.1l7.1-5.8l-1.3-2.2v-2.2l-5.8-1.3v-2.2l7.1-5.8l24.4-3.5l8,4.4l10.6,2.2v1.3l3.5,2.2v1.3l4.4,5.8l-1.3,1.3l4.4,8
							l-1.3,1.3l1.3-1.3v3.5l2.2,3.5l1.3,4.4l2.2,1.3l-1.3,4.4l3.5,3.5h7.1l3.5,2.2l3.5-1.3l7.1,7.1h3.5l-1.3,2.2l2.2,3.5l-1.3,2.2
							l3.5,4.4h12.9l5.8-4.4l3.5,1.3l8-4.4l2.2,2.2l-1.3,2.2l2.2,3.5l-5.8,4.4l-1.3,7.1l-1.3,2.2v2.2l-3.5,4.4v2.7l-3.5,2.2
							l-1.3,4.4l-10.6-3.5l-3.5,3.5l-4.4,2.2l3.5,8l-1.3,5.8l1.3,1.3L546,270l-7.1,1.3l2.2,3.5l-3.5-3.5V270l-3.5-1.3l-1.3,5.8h-3.5
							l-3.5,4.4h-8l2.2,4.4l-1.3,2.2l-8-1.3l-2.2-3.5l-3.5,2.2l-4.4,7.1l-10.6,4.4l-4.4,3.5l-2.2,3.5h-7.1l-1.3,1.3l-13.7,7.1
							l1.3,1.3l-4.4,2.2l-1.3-2.2l5.8-2.2l-1.3-1.3l1.3-1.3l-4.4-2.2h2.2v-2.2l3.5-2.2l3.5-4.4l-2.2-3.5l-7.1-1.3L451,298l-8,3.5
							l-4.4,8l-4.9,2.2l-3.5-2.2l-3.5,5.8l1.3,3.5l3.5,2.2h7.1l1.3,2.2v5.8l2.2,2.2h4.4l1.3-2.2l7.1-5.8l8,4.4l4.4-1.3v1.3h3.5
							l1.3,2.2l-2.2,2.2h1.3v1.3H469l-2.2-1.3l-3.5,2.2l-7.1,1.3l1.3,1.3l-1.3,1.3H455v2.2l-3.5,1.3v-2.2l-2.2,1.3l2.2,2.2l-5.8,3.5
							l-4.4,7.1l10.6,5.8l5.8,13.7l-1.3,3.5l4.4,1.3l1.3,3.5l2.2,1.3l1.3,3.5l-8-2.2l-3.5-2.2l-3.5,1.3l-3.6-3l-1.3,1.3l4.4,3.5
							l4.4-1.3v1.3l9.3,5.8l1.3,3.5v1.3l-8,2.2l-1.3,2.2h-3.5l-2.2,1.3l3.5-1.3l2.2,2.2l4.4-2.2l3.5,3.5l3.5,1.3l-5.8,3.5l4.4-1.3
							v4.4h-1.3V409l-1.3,1.3h-1.3l-1.3,1.3l2.2,1.3l-2.2,1.3l1.3,1.3l-3.5-1.3l2.2,2.2l1.3,3.5l-2.2,1.3l-1.3-2.2l-2.2,4.4
							l-3.5-1.3l2.2,1.3l-2.2,3.5l1.3,1.3l-1.3,2.2l-3.5-1.3l2.2,1.3l-3.5,2.2l1.3,3.5l-1.3-0.9l1.3-3.5l-1.3,2.2l-1.3-2.2l-2.2,1.3
							l2.2,2.2h-1.3v1.3h2.2l-4.4,3.5l-2.2-1.3l2.2,1.3h3.5l-1.3,2.2H444l1.3,3.5l-2.2-2.2l-2.2,2.2l2.2,1.3l-1.3,1.3l-3.5-1.3
							l1.3,2.2l-3.5,1.3l1.3,1.3l-1.3,2.2h-3.5v-1.3l-1.3,2.2l-2.2-1.3l2.2,2.2l-7.5,5.8h-2.2l-1.3,2.2h-2.2l2.2,1.3h-2.2v3.5
							l-5.8,1.3l-2.2-1.3v2.2l-3.5-1.3l-2.7,1.3v1.3l-2.2-1.3l1.3-1.3l-2.2,1.3l1.3,1.3h-3.5l1.3,1.3l-1.3,1.3l-3.5-1.3l1.3-1.3
							h-1.3l-2.2-2.2l-1.3-2.2l3.5-1.3l-3.5,1.3l-1.3,1.3l2.2,3.5v3.5l-3.5-3.5l1.3,3.5l-1.3,1.3l-1.3-1.3l-1.3,2.2l-1.3-1.3
							l-4.4,3.5l-3.1-2.7v1.3h-2.2l1.3,1.3l-1.3,1.3H369l-4.4,3.5l-1.3-2.2l-1.3,4.4h1.3v2.2l1.3,1.3l-1.3,2.2h-3.5v-1.3l-2.2-4.4
							l2.2-4.4l-2.2-1.3l-1.3-2.2v2.2l-3.5,1.3v-1.3l-2.2-1.8v-1.3l-1.3,1.3l-2.2-2.2v2.2h-0.9l-1.3,1.3h-2.2l-2.2-1.3H337l-5.8-3.5
							l-1.3-3.5l2.2-3.5l-1.3-1.3h-6.7l-4.4-3.5l-4.4,1.3l-1.3,3.5l-3.5,1.3l-2.2-1.3l-1.3,2.2l-2.2-2.2l-1.3,2.2l-2.2-2.2l-2.2,3.5
							l-4.4-3.5l-3.5,3.5l-3.5-1.3l-1.3,3.5l1.3,3.5l1.3,5.8h-4.4l-1.3-3.5l-1.3-2.2l-3.5,2.2l-3.5,1.3l-2.2-3.5v-2.2l-7.1-1.3
							l3.5-7.1l-1.3-1.3l-4.4-1.3l-2.2-8l2.2-1.3l-12.9,2.2l2.2-3.5l-2.2-2.2v-2.2l5.8-8h1.3l3.5-2.2L259,439l1.3-1.3l1.3-5.8
							l-1.3-7.1l-2.2-1.3l-1.3,1.3l-1.3-5.8l-5.8-3.5l-1.3,4l-7.1-2.2l-2.2,0.9V416l2.2-2.2l-1.3-2.2l-2.2,1.3v-1.3l1.3-2.2
							l-2.2-2.2l-5.8,4.4L224,408l-3.5,3.5l-2.2,3.5h-5.8l-1.3,3.1l-4.4,1.3l-1.3,3.5h-8v-1.3l-2.2-1.3l-2.2,1.3l-7.1-1.3l1.3-2.2
							h-3.5l-4.4,2.2L173,427.5z M461.7,448.3l1.3-1.3l3.5,2.2l-1.3,1.3v3.5l-4.4,12.9l-5.8,11.5l-1.3-3.5l-2.2-2.2l-2.2-4.4
							l1.3-5.8l7.1-12.9L461.7,448.3z M367.6,500.7l-3.5,3.5v3.5l-3.1,3.5h-2.2l-1.3,1.3l-9.3-2.2v-7.1l5.8-4.4h-1.3l1.3-1.3
							l1.3,1.3l1.3-2.2l9.3-1.3l3.5,1.3v3.5L367.6,500.7z M459.4,384.9l5.8,2.2H463L459.4,384.9z"/>
						
							<path fill="#ECA395" stroke="#FFFFFF" stroke-width="1" stroke-linecap="round" stroke-linejoin="round" stroke-miterlimit="10" d="
							M357.4,657.7l-1.3,1.3l1.3,3.5l8,5.8l5.8-1.3h4.4l5.8-4.4h4.4l5.8,3.5l2.2-2.2h5.8l3.5-4.4l-1.3-2.2l3.5-2.2l-1.3-1.3l1.3-2.2
							l2.2-1.3l2.2-9.3l1.3-2.2h13l2.2,1.3h-0.4l3.5,3.5h-7.1l3.5,2.2l-1.3,1.3l3.5,1.3v3.5l3.5,3.5l-2.2,2.2l1.3,2.2l9.3,7.1
							l-1.3,2.2h-4.4l-3.5-3.5l1.3,3.5h-2.2l-3.5,5.8v5.8l2.2-1.3v3.5h-3.5l-3.5,4.4l-1.3-2.2v2.2l-4.4,4.4h2.2l-1.3,2.2l2.2,1.3
							l-1.3,3.5l-1.3-1.3l-1.3,4.4l-1.3-1.3l1.3,2.2l-2.2,4.4l-11.5,4.4v-4.4l-2.2-2.2h-2.2l-4.4,1.3v-3.5l-2.2,1.3l-2.2-2.2
							l-3.5,3.5L381,704l-3.5,2.2l-1.3-7.1l-2.2,2.2l-1.3-1.3l-4.4,2.2l-1.3-1.3l2.2-1.3L365,702v-2.2l-3.5,1.3l-1.3-8l-1.3-2.2
							l1.3-4.4l-3.5-3.5H353v-2.2l2.2,1.3l-3.5-2.2v-5.8l-2.2-1.3v-4.4v-3.5l3.5-2.2l-2.2,2.2v-2.7L357.4,657.7z M236.8,639
							l-5.8-5.8l-1.3-7.1h2.2l7.1,3.5h10.6l3.5,3.5l1.3,2.2l2.2,1.3v2.2l15.1,11.5v2.2v-1.3l1.3,2.2l1.3-2.2l1.3,3.5l4.4,4.4
							l-1.3-3.5h2.2l3.5,4.4l5.8,3.5l3.5,4.4l3.5,1.3l2.2,2.2l-4.4,2.2l-1.3-1.3l1.3,1.3l7.1-3.5l2.2,2.2l1.3,2.2l-4.4,2.2h2.2
							l-1.3,1.3h1.3l-1.3,2.2l3.5,3.5h4.4l1.3,5.8v2.2l3.5,1.3l-2.2,5.8l2.2-4.4l7.1,1.3l1.3,4.4l2.2,1.3v2.2l-2.2,3.5l1.3,1.3
							l-1.3,3.5l1.3,3.5l-1.3,11.5l-4.4-3.5l-1.3,2.2l-4.4-2.2l1.3,3.5h-1.3l-5.8-7.1l-13.7-9.3l-1.3-3.5l-5.8-3.5l-5.8-8V692
							l-5.8-10.6l-5.8-8l-4.4-1.3l-3.5-11.5l1.3-1.3l-9.3-4.4l-1.3-5.8l-7.1-7.1l-3.5-1.3L236.8,639z M634.6,699.3v32.4l-1.3,3.5
							l1.3,2.2V757l-9.3-8l2.2-3.5l-2.2,2.2l-4.4,1.3l-1.3-1.3l-3.5,2.2v-2.2l2.2-4.4l-4.4-3.5h5.8H616l-2.2-2.2h4.4l-3.5-2.2
							l-2.2-2.2l-2.2-5.8l1.3-1.3l-2.2,1.3v-3.5l-4.4-2.2l-15.1-5.8h-5.8l-4.4-2.2V711h-4.4v-1.3l-4.4-2.2l1.3-4.4l-3.5,7.1l1.3,1.3
							l-2.2,1.3h-3.5l-1.3-3.5l2.2-1.3l-1.3-2.2l-8-4.4l3.5-1.3l3.5,2.2l4.4-4.4l3.5,1.3v2.2l2.2-3.5v-1.3h-1.3l1.3-1.3l-2.2,1.3
							h-11.5l-2.2-1.3l-1.3-3.5l-8-2.2l2.2-3.5v-2.2l4.4-1.3l5.8-2.2l8,3.5h5.8l2.2,4.4l-2.2,3.5l1.3,2.2v3.5l2.2,4.4V698h2.2
							l1.3,7.1l4.4,1.3l4.4-3.5l4.4-7.1l7.1-1.3v-2.2l5.8-3.5l17.3,8h3.5l4.4,1.3v1.3L634.6,699.3L634.6,699.3z M474.5,669.2
							l2.2-1.3l7.1,1.3l5.8-3.5v-1.3l3.5-3.5l2.2,2.2l-8,9.3l-5.8,1.3H478l-2.2-2.2l-11.5,1.3l-1.3-1.3l-4.4,1.3l-4.4-1.3l-2.2,1.3
							l-2.2,5.8l1.3,3.5l3.5,2.2l1.3,4.4h3.5l4.4-5.8l3.5,1.3l2.2-1.3h5.8l-1.3-1.3l2.2-1.3l3.5,1.3l-1.3,3.5l-1.3-1.3h-3.5
							l-3.5,4.4l-4.4,2.2l-1.3,2.2l-3.5-1.3v1.3l3.5,2.2l4.4,5.8v1.3l2.2,1.3l-1.3,1.3l-1.3,2.2l3.5,3.5v2.2l2.2-1.3v3.5l-7.1,1.3
							v2.2h-1.3l-4.4-1.3l1.3-5.8l-5.8-4.4l1.3-3.5v-3.5l-2.2-1.3l-5.8,3.5l2.2,2.2v12.9l-1.3,3.5l1.3,4.4l-1.3-1.3l-5.8,2.2
							l-2.2-3.5l2.2-9.3l-1.3-7.1l-2.2-1.3l-2.2,1.3l-1.3-5.8l-1.3-1.3l3.5-2.2l1.3-4.4h1.3v-5.8l1.3-3.5l2.2-2.2l1.3,2.2l-1.3-7.1
							l-1.3-1.3l1.3,1.3v-3.5l4.4-5.8l2.2,1.3l2.2-4.4h1.3l5.8,2.2h8L474.5,669.2z M333.1,730.4l1.3-2.2l2.2,1.3l2.2,2.2h5.8
							l4.4,4.4l13.7,1.3l3.5-4.4h1.3l2.2,2.2h3.5l4.4,2.2h4.4v2.2h2.2v3.5l4.4,2.2l5.8-2.2l3.5,2.2v5.8l1.3,2.2L388,749l-4.4,2.2
							l-8-2.2l-1.3,1.3l-20.8-5.8l-9.3,1.3l-7.1-3.5l-9.3-1.3l1.3-3.5l-11.5-1.3h2.2l4.4-8L333.1,730.4z M518.4,679.4l-2.2-1.3
							l-1.3-8l1.3-2.2l-2.2-2.2l2.2-5.8l3.5-3.5l-1.3,2.2l1.3,2.2v3.5l-3.5,3.5l2.2,1.3l2.2-3.5v-2.2l4.4-1.3v4.4l-3.5,2.2l3.5,2.2
							v1.3l2.2,1.3l-9.3-1.3v3.5l4.4,8l-3.5-2.2L518.4,679.4z M518.4,707.3v-3.5l2.2-2.2l9.3,1.3l3.5-2.2l7.1,2.2l4.4,4.4v3.5
							l-9.3-5.8h-3.5v2.2l-4.4-1.3v-1.3l-4.4,1.3l-2.2-3.5L518.4,707.3z M430.6,753.9l3.5-1.3l-5.8-3.5l2.2-1.3l3.5,2.2h2.2l1.3,1.3
							V750h2.2l1.3,3.5h-3.5l2.2,1.3h-4.4v-2.2l-2.2,2.2l-7.1,1.3l-3.5,1.3l-2.2-1.3v-3.5l3.5-2.2h3.5L430.6,753.9z M488.3,757.4
							l4.4-1.3h1.3l-1.3,2.2l1.3,1.3l-5.8,7.1l-8,2.2l-1.3-2.2l3.5-1.3h-2.2l1.3-3.5l3.5-2.2h2.2L488.3,757.4z M473.2,752.6
							l-15.1,3.5l-4.4-2.2l-5.8,1.3l-1.3-1.3l1.3-2.2l5.8-2.2l8,3.5l4.4-1.3l2.2,1.3l5.8-3.5h-1.3l1.3-1.3l1.3,2.2l-2.2,1.3
							L473.2,752.6L473.2,752.6z M326,701.6l-2.2-1.3l-1.3-4.4l-5.8-1.3l3.5-4.4h1.3l1.3,2.2V690h2.2l2.2,7.1l4.4,2.2l-2.2,2.2
							l1.3,2.2L326,701.6z M613.8,741l1.3,1.3l2.2,1.3L616,748l-4.4,2.2l-5.8,1.3l2.2-8L613.8,741z M442.1,763.2l-2.2-2.2v-1.3
							l8-1.3l8,7.1l-1.3,1.3l-4.4,1.3l-4.4-4.4h-3.5v-0.5H442.1z M503.3,703.8h7.1l1.3,2.2h1.3v2.2l-4.4,1.3h-1.3l-4.4-3.5
							L503.3,703.8z M400.5,748.1l4.4,1.3l1.3-1.3l4.4,2.2l-5.8,4.4l1.3-2.2l-4.4-2.2L400.5,748.1z M473.2,722.4l1.3-5.8l1.3-1.3
							l1.3,3.5l-1.3-1.3v3.5l1.3,1.3l-4.4,3.5l-1.3-1.3L473.2,722.4z M416.4,749l3.5,1.3l-1.3,4.4h-7.1l2.2-1.3v-3.5L416.4,749z
							 M251.9,671.4l-5.8-8h3.5l3.1,3.1L251.9,671.4z M338.8,700.2l1.3-1.3l1.3-1.3l3.5,3.5l-1.3,3.5l-2.2-2.2l-2.2,2.2v-4.4H338.8z
							 M265.6,690.9l-1.3-1.3l-1.3,2.2l-2.2-1.3l-2.2-4.4l1.3-2.2h2.2L265.6,690.9z M552.1,738.8v4.4l-3.5,3.5h-1.3l1.3-4.4
							L552.1,738.8z M386.3,737.5h10.6l-8,2.2h-4.4L386.3,737.5z M544.1,675.8l3.5,1.3l1.3,1.3l-2.2,1.3l-3.5-2.2l2.2,2.2h-3.5
							l-2.2-1.3L544.1,675.8z M472.3,722.4v1.3h-3.5l1.3-5.8l2.2-1.3V722.4z M488.3,690.9h7.1v1.3l-8,1.3L488.3,690.9z M501.1,744.6
							l5.8-1.3l2.2,1.3l-9.3,2.2L501.1,744.6z M585.8,682h3.5l4.4,4.4h-4.4l-1.3-3.5h-2.2V682z M574.3,730.4l3.5,3.5l-3.5,3.5
							l-1.3-1.3L574.3,730.4z M515.3,688.7l2.2-1.3l3.5,3.5h-5.8l-1.3-1.3L515.3,688.7z M515.3,678.5l1.3,2.2v1.3l2.2,1.3l-1.3,1.3
							l-2.2-1.3l-1.3-2.2v-1.3L515.3,678.5z M488.3,748.1h5.8v2.2l-7.1,1.3L488.3,748.1z M480.3,687.8l-3.5,2.2v-2.2l-2.2,2.2
							l-1.3-1.3l1.3-2.2h2.2v2.2l2.2-2.2L480.3,687.8z M577.9,729.5h-2.2l1.3-2.2h-2.2h1.3l2.2-2.2h1.3v4.4H577.9z M540.6,690.9v2.2
							l-2.2,1.3l-3.5-2.2L540.6,690.9z M415.5,705.1l1.3,5.8l-2.2,1.3l-1.3-3.5L415.5,705.1z M522,658.5V655l2.2-2.2l1.3,3.5
							L522,658.5z M474.5,772.5l4.4-3.5v2.2l-2.2,1.3l-2.2,1.3L474.5,772.5L474.5,772.5z M343.3,642.6l-1.3-2.2l2.2-1.3l1.3,2.2v2.2
							h-2.2l1.3-1.3h-1.3V642.6z M585.8,690l12.9,2.2h-5.8L585.8,690z M546.4,684.3v2.2l-1.3,1.3l-2.2-3.5H546.4z M577.9,729.5
							l2.2,1.3l-2.2,2.2l-2.2-2.2l1.3-1.3H577.9z M298,669.2h-4.4v-3.5L298,669.2z M479.4,752.6l-2.2-1.3l2.2-1.3v-1.3l1.3,1.3
							l2.2-1.3h1.3L479.4,752.6z M239.9,655l-7.1-4.4h2.2L239.9,655z M287.8,658.5l-2.2,2.2l-1.3-2.2l2.2-1.3L287.8,658.5z
							 M313.1,666.5l-1.3,2.2l-3.5-2.2l2.2-1.3L313.1,666.5z M496.7,692.2h8l-7.1,1.3L496.7,692.2z M315.3,679.4l-4.4-1.3l1.3-2.2
							L315.3,679.4z M358.3,685.1v1.3l-3.5,1.3l1.3-3.5L358.3,685.1z M483.8,750.3l3.5-1.3l-2.2,2.2h-1.3V750.3z M310.9,679.4
							l1.3,1.3l-1.3,1.3l-2.2-1.3L310.9,679.4z M293.6,665.6l-1.3,2.2l-1.3-4.4L293.6,665.6z M508.2,641.2v-5.8l2.2,2.2L508.2,641.2
							z M293.6,663.4v1.3l-4.4-2.2L293.6,663.4z M275,705.1l-2.2-4.4l3.5,2.2L275,705.1z M299.3,667.9l-4.4-1.3l2.2-1.3L299.3,667.9
							z M475.9,710.9l2.2,1.3l-1.3,1.3l-2.2-1.3L475.9,710.9z M616,749v1.3h-2.2L616,749z M273.6,700.2l-2.2,1.3V698L273.6,700.2z
							 M519.8,707.3h3.5l-2.2,2.2v-1.3l-2.2,1.3L519.8,707.3z M466.5,721.1v3.5l-1.3-2.2L466.5,721.1z M512.7,678.5v2.2h-1.3v-2.2
							H512.7z M501.1,693.6l1.3,4.4l-1.3-3.5V693.6z M270.1,697.1l-2.2-1.3v-2.2L270.1,697.1z M576.5,731.7l1.3,1.3v1.3l-2.2-1.3
							L576.5,731.7z M544.1,750.3l2.2-2.2h1.3L544.1,750.3z M533.9,745.5h2.2l-1.3,2.2L533.9,745.5z M407.1,736.6l2.2,1.3l-2.2,1.3
							V736.6z M258.5,680.7h-2.2l1.3-2.2L258.5,680.7z M427.1,750.3V749l1.3-1.3L427.1,750.3z M574.3,729.5l1.3,2.2l-1.3-1.3V729.5z
							 M517.5,748.1l3.5,1.3h-1.3L517.5,748.1z M308.7,665.6l-1.3,1.3H306L308.7,665.6z M475.9,749h2.2l-2.2,1.3V749z M292.3,724.6
							l-2.2-1.3h2.2V724.6z M430.6,639v1.3l-2.2-1.3H430.6z M463.9,769.9l2.2-1.3l-1.3,1.3H463.9z M561.4,725.9v3.5l-1.3-3.5H561.4z
							"/>
					</g>
				</g>
			</g>
		</g>
	</g>
</g>
</svg>
