<?xml version="1.0" encoding="utf-8"?>
<!-- Generator: Adobe Illustrator 18.0.0, SVG Export Plug-In . SVG Version: 6.00 Build 0)  -->
<!DOCTYPE svg PUBLIC "-//W3C//DTD SVG 1.1//EN" "http://www.w3.org/Graphics/SVG/1.1/DTD/svg11.dtd">
<svg version="1.1" id="Layer_1" xmlns="http://www.w3.org/2000/svg" xmlns:xlink="http://www.w3.org/1999/xlink" x="0px" y="0px"
	 viewBox="0 90 612 612" enable-background="new 0 90 612 612" xml:space="preserve">
<g id="graphic_copy">
	<g>
		<g>
			<g>
				<defs>
					<rect id="SVGID_1_" y="90" width="612" height="612"/>
				</defs>
				<clipPath id="SVGID_2_">
					<use xlink:href="#SVGID_1_"  overflow="visible"/>
				</clipPath>
				<g clip-path="url(#SVGID_2_)">
					<g>
						
							<path fill="#DDDDDD" stroke="#FFFFFF" stroke-width="1" stroke-linecap="round" stroke-linejoin="round" stroke-miterlimit="10" d="
							M152.1,109.5l-2.7-2.7v-2.7l8,2.7l2.2,8L152.1,109.5z M159.7,109.5l-8-8l10.6,5.3L159.7,109.5z M159.7,130.4l-5.3-8l5.3,2.7
							V130.4z M149.5,112.2l-5.3-5.3l8,2.7L149.5,112.2z"/>
						<path fill="#DDDDDD" stroke="#FFFFFF" stroke-width="1" stroke-miterlimit="10" d="M-762.3-83.8l-8-5.3l62.5,8l-26.2-8
							h10.6l-5.3-2.7v-5.3l8-2.7l-15.5,2.7l8,5.3l-26.2,2.7l-18.2-5.3h8l8-5.3l2.7-2.7l31.5-2.7l-2.7-2.7l8-5.3l-12.9,2.7l8-5.3
							h-5.3l2.7-8l12.9,8l-2.7-2.7l5.3,2.7v-5.3l-8-2.7l10.6-2.7h-8l2.7-2.7l-15.5,2.7l5.3-8l12.9-2.7H-722l2.7-5.3l8,2.7l-8-2.7
							l12.9-2.7l-8-5.3l5.3-5.3h-39l-47-20.8l8-8l23.5,2.7l49.7,15.5l-2.7-2.7l2.7-5.3l-8,5.3l-8-5.3l8,2.7l2.7-2.7l-2.7-2.7h5.3
							l-15.5-2.7h15.5l-2.7-5.3l-23.5-8h20.8l-26.2-2.7l12.9-5.3l-2.7-2.7l-15.5,8l5.3-5.3v-2.7l18.2-5.3l-26.2,5.3l-5.3-2.7
							L-738-217h-31.5l10.6-10.6l-10.6,5.3l-2.7-8l-8.4-8h5.3h-8l10.6,18.2l-10.6,2.7l2.7,5.3l-5.3-2.7l5.3,5.3l-2.7,5.3l-18.2,2.7
							l-8-5.3l2.7,2.7h-5.3l-5.3-8l-5.3-2.7l20.8-8l8-12.9l-8,10.6l-8,2.7l-5.3-5.3l15.5-12.9l-18.2-2.7h26.2l-12.9-2.7l8-2.7
							l-5.3-2.7l2.7-2.7h-5.3l8-2.7l-5.3-8L-820-267l12.9-2.7l-8-2.7l8-5.3l-18.2-10.6l8-2.7l-5.3-5.3l5.3-2.7l-10.6-2.7l2.7-2.7
							l-8-2.7l5.3-8l-23.5,8l20.8-8l-8-2.7l10.6-2.7h-12.9l8-2.7l5.3-2.7l-18.2-5.3l-2.7-2.7l8-2.7l-5.3-2.7l-20.8-5.3l2.7-5.3
							l-8-5.3l2.7-5.3l-8,2.7l10.6-5.3l-10.6-8l5.3-2.7l-12.9,2.7l-2.7-8l-12.9,2.7l5.3-5.3h-2.7l-52.3-15.5l-10.6,5.3l-12.9-8
							l-10.6,10.6l-8-10.6l-5.3,5.3v5.3l-12.9-2.7l-2.7,8l-8-5.3l2.7-5.3h-10.6l-5.3,8l-10.6-8l-5.3,2.7l15.5,10.6l-44.3-10.6
							l-18.2-10.6l34.1-10.6l-41.7-2.7l8-10.6l-20.8,8l-5.3-2.7l5.3-2.7l-12.9-5.3l23.5-8l73.2,5.3l-52.3-5.3l28.8-5.3l28.8,5.3
							l-8-8h10.6v-5.3l-18.2-5.3l-26.2,8l-8-8l2.7,8l-12.9,2.7l-20.8-5.3l15.5-8l-20.8,2.7l10.6-8h-31.5l-28.8-12.9l10.6-5.3h-8
							l8-10.6l73.2-12.9l-5.3-5.3l15.5-5.3l47-2.7l20.8-15.5l-2.7-23.5l26.2-8l-10.6-2.7l-12.9,8h-41.7l-10.6-8v-5.3l28.8-12.9
							l49.7-23.5l15.5,18.2l-10.6-15.5l5.3-8l39,5.3l5.3-2.7l-8-8l10.6-8l-12.9-10.6l26.2-10.6l23.5,5.3l5.3,8l44.3,15.5l-41.7-26.2
							l-18.2-5.3l31.5-8l39-5.3l15.5,5.3l-10.6-5.3l31.5-2.7l10.6,10.6v10.6l-5.3,15.5l5.3,2.7v-8l10.6-8v-8l2.7-2.7l65.2,20.8
							l-28.8-15.5h31.5l-23.5-10.6l-8-15.5h36.4l91.4,36.4l8-5.3l-12.9-8l8-5.3l-5.3-2.7l2.7-5.3l47,2.7l-31.5-5.3l-39-20.8h73.2
							l10.6,12.9v-8l-5.3-5.3h8l26.2,10.6l8,8l-5.3-8l2.7-8l-23.5-5.3l-99.3-2.7l-15.5-5.3l15.5,2.7l-2.7-2.7l-10.6-2.7l12.9-2.7
							l55,8l-44.3-10.6h52.3l-20.8-5.3l23.5-2.7l83.4,23.5l-10.6-10.6h36.4l-28.8-2.7l36.4-5.3l-34.1-2.7l-5.3-2.7v-8l20.8,2.7
							l-5.3-2.7l10.6-2.7l23.5,5.3l-10.6-5.3l8-2.7l41.7-2.7l10.6,8l-2.7-8h8h65.2l83.4,10.6l10.6,5.3l-8,2.7l-70.5,2.7l-47,5.3
							l-28.8-5.3l18.2,8l-62.5,5.3h5.3l-2.7,8l10.6-8h20.8v5.3l8-8l36.4,2.7l26.2-10.6h5.3h26.2l75.8-2.7l5.3,8l-23.5,12.9l39-8h2.7
							l-5.3,8l12.9-5.3l41.7,12.9l-23.5,12.9l-52.3,8l-128.2-2.7l31.5,5.3l-57.7,12.9l-5.3,2.7l2.7,5.3l78.5-15.5h75.8v8l-2.7,5.3
							l-44.3,10.6l8,2.7l-8,2.7h5.3l62.5-15.5l5.3-12.9l34.1-5.3l5.3,15.5l-5.3,12.9l-12.9,10.6h2.7l-20.8,18.2v5.3l-2.7,2.7
							l-10.6,2.7h8l-8,5.3l10.6-2.7l8-12.9l57.7-31.5l15.5-5.3l-8,2.7v10.6l20.8-8l20.8,5.3l10.6-8l-2.7-5.3h8h-2.7v-5.3l55-2.7
							l52.3,12.9l-36.8,30.2l-23.5,2.7l10.6,8l-26.2,8l-39-2.7l-12.9,8l-52.3,2.7H-31l-10.6,8l2.7,2.7l-15.5,5.3l-47-2.7l-15.5,8
							h2.7l-8,10.6l10.6,5.3l8-2.7h-5.3l2.7-8l15.5-5.3l36.4,2.7L-69.8-543H-96l-5.3,12.9l2.7,5.3l-5.3,8l5.3-8l10.6,2.7l-2.7,2.7
							l-2.7-2.7l-12.9,10.6l2.7,5.3l-2.7,1.8l-23.5,2.7l5.3,5.3l-10.6,2.7h10.6l-8,15.5v2.7l-8,5.3h5.3l-10.6,18.2l10.6,2.7
							l12.9-15.5l31.5,10.6l5.3,5.3l-5.3,2.7l-20.8-8l-12.9,2.7l12.9,2.7l-8,2.7l5.3,2.7l-12.9-2.7l20.8,5.3H-122l20.8,2.7l8,5.3
							l18.2-2.7l8,15.5l-8,8l-49.7-10.6l8,2.7l-5.3,2.7h-18.2l15.5,2.7l-12.9,8l-12.9-10.6l-10.6,8l8,8l10.6-5.3l2.7,5.3l-5.3,2.7
							l5.3-2.7l-2.7,2.7h-12.9h5.3h10.6h2.7l-2.7,8l2.7,2.7l23.5,2.7l-10.6-8l26.2,8l-15.5,5.3h-31.5l44.3,5.3l8,18.2l-5.3,10.6
							l-49.7-20.8l12.9,8l-20.8-2.7l39,12.9l-23.5,10.6l-12.9-8l12.9,8l20.8-5.3l-2.7,10.6l2.7,5.3h-8l5.3,2.7l28.8-2.7l2.7,8h5.3
							l-8,10.6l-55-12.9l8,5.3l-15.5,5.3l10.6,2.7l-10.6,5.3l10.6,5.3l2.7,12.9l2.7-2.7l-2.7-12.9h2.7l28.8,5.3l-5.3,8l2.7,8h-23.5
							l-15.5,10.6l-23.5-8l-10.6-10.6l28.8,5.3l10.6-2.7l-12.9,2.7l-26.2-10.6l-8,5.3v5.3l-23.5-15.5l18.2,18.2l-28.8,10.6l-26.2-8
							l20.8,8l-26.2,2.7l8,2.7l-2.7,5.3l5.3-5.3l15.5-5.3l28.8,8l-20.8,8h-27.5h18.2l-8,2.7h10.6l-2.7,5.3l18.2-8l12.9,2.7l5.3,8
							l-2.7,2.7l-23.5,2.7h12.9l-5.3,10.6l8.4-12.4l12.9-2.7l39,18.2l-12.9,10.6l15.5-5.3l-5.3,5.3v2.7l15.5-8l-12.9,10.6v8l8-8h5.3
							l2.7,2.7l-2.7,2.7h5.3l-8,2.7h5.3v5.3l-12.9,2.7l15.5,2.7l-8,5.3l8,2.7v2.7l-2.7,5.3h5.3l-10.6,5.3l-8-2.7l-2.7-12.9l-2.7,5.3
							v10.6l-23.5-5.3l-8-8v-10.6l-20.8-12.9l-8-5.3h-26.2l-15.5-12.9l-18.2-8l26.2,15.5l-20.8,5.3l20.8-2.7l39,10.6l-2.7,5.3
							l-5.3-2.7l2.7,2.7l-23.5,10.6h-12.9l-8-8l5.3,5.3h-15.5l10.6,5.3l-8,10.6l-18.2,2.7l18.2,5.3l36.4-5.3l2.7,2.7l-5.3,2.7l-39,8
							l20.8,5.3l10.6-10.6l12.9,2.7l20.8-8l-2.7,5.3l8-2.7l28.8,8h28.8l-2.7,2.7l-15.5,2.7l-5.3,2.7l5.3,5.3l-8-2.7l2.7,2.7h-12.9
							l5.3,2.7v5.3l-12.9-2.7l5.3,2.7l-2.7,2.7l-8,2.7v5.3l-12.9-2.7l5.3,8h-12.9l5.3,5.3l-18.2,10.6l-26.2,5.3l-8-2.7v2.7
							l-15.5,5.3l-8-2.7l2.7,5.3l-5.3,2.7l-10.6-8l-8.4,2.2l5.3,5.3l-15.5-5.3l8,8h-12.9l-12.9-2.7l-2.7-2.7l5.3-2.7h-10.6l-8-12.9
							l-2.7,5.3l8,8l-5.3,2.7l10.6,2.7l-2.7,8l-23.5,5.3l2.7,2.7l-2.7,8l-8,2.7l5.3,2.7l-12.9,8l-5.3,15.5l-2.7-5.3v5.3l-5.3,5.3
							l-5.3,5.3l-2.7-5.3l-2.7,2.7l2.7,2.7h-2.7l-12.9-5.3l5.3,5.3v5.3l-15.5,5.3v-5.3h-2.7v2.7l-10.6,5.3v-8l-2.7,10.6l-12.9-8
							l12.9-10.6l-18.2-2.7l8,5.3h-5.3l2.7,2.7l-5.3,8l-8-2.7l8,8l-2.7,5.3l-9.2-2.8l2.7,5.3h-8l-5.3-5.3v2.7l-8-2.7l-2.7,5.3h-8
							l8,2.7l-2.7,2.7l2.7,5.3l-8,5.3l-8-2.7l-10.6,5.3l8,8l2.7,2.7v5.3l5.3,5.3l-26.2,2.7l20.8,5.3l-5.3,5.3h5.3v8l-20.8-5.3
							l15.5,5.3l2.7,5.3h-10.6l5.3,2.7h-2.7l-5.3-5.3l2.7,5.3l-8-2.7l10.6,5.3l-15.5-5.3l8,12.9l-10.6-5.3l10.6,5.3l-5.3,2.7h2.7
							l-2.7,5.3h-10.6V86l-5.3,5.3h-12.9l20.8,10.6l-15.5-2.7l12.9,8l-5.3,10.6l8-2.7l-5.3,2.7l2.7,2.7l-10.6,2.7l8,2.7l-12.9,2.7
							h10.6l2.7,5.3l-5.3,2.7h-10.6l10.6,2.7h-8l8,2.7H-577l18.2,2.7l-8,5.3l-8-2.7l12.9,5.3l-15.5-2.7l15.5,5.3h-5.3h5.3v1.3h-10.6
							l2.7,2.7l-10.6-8l2.7,5.3l-12.9-2.7l18.2,5.3l-5.3,5.3l8-2.7l2.7,2.7l-5.3,2.7l5.3,2.7l-20.8-2.7l2.7-2.7l-2.7-2.7l-8,5.3
							l-2.7,5.3l-10.6-2.7l12.9-10.6l-12.9,10.6l10.6-18.2l-10.6,8v-5.3l-8,2.7l5.3-5.3l-5.3,8l-2.7-5.3h-5.3l12.9-8l-2.7-2.7
							l-5.3,5.3h-10.6l15.5-5.3l2.7-5.3l2.7-2.7l-5.3,5.3v-2.7l-2.7-2.7v5.3l-2.7,2.7l-8,2.7l8-8l-2.7-2.7V133l-5.3,2.7l5.3,2.7
							l-2.7,2.7l-5.3,2.7l-5.3-2.7l-8,8l-2.7-5.3L-671,149l10.6-5.3h-15.5l12.9-2.7l-8-2.7h-2.7l-8-2.7l5.3-2.7l-12.9-2.7l15.5-5.3
							l-12.9,2.7l-8-2.7l15.5-2.7l-10.6-2.7l5.3-8l-8,8h-2.7l2.7-5.3l-5.3,2.7l12.9-8h-5.3l2.7-5.3l-5.3,8h-8l-2.7-2.7l8-2.7h-5.3
							l5.3-2.7H-706l-8-8l5.3-10.6l-5.3,5.3l2.7-5.3v-2.7l8-5.3l-8,5.3l-5.3,5.3l5.3-8H-722v-2.7l12.9-5.3l-18.2,2.7l2.7-2.7
							l-5.3,2.7v-5.3l15.5-2.7h-18.2l8-2.7l-5.3-2.7h-2.7h2.7l10.6-2.7H-730l-2.7,2.7v2.7l-8-8l12.9-5.3l-10.6,2.7l2.7-5.3h-5.3
							l31.5-8l-10.6,2.7V37l-18.2,8l-5.3-5.3h15.5h-2.7l2.7-5.3l15.5-2.7l-15.5-2.7l8-2.7l18.2,10.6l-8-8v-5.3h-5.3l5.3-5.3
							l-10.6,2.7l-8-12.9l5.3,15.5l-10.6,2.7l2.7-2.7h-2.7l-10.6,12.9l-5.3,2.7l-2.7-15.5l15.5-10.6l-18.2,8l5.3-5.3l-5.3-2.7
							l2.7-5.3h-5.3l2.7-2.7l-5.3,2.7l-2.7-2.7l15.5-10.6L-745-8h23.5l-18.2-2.7L-750.4-8L-761,2.6l-2.7-2.7l2.7-5.3l-5.3,2.7v-2.7
							l2.7-2.7l-2.7,2.7v-5.3V-8H-777l8-2.7l-8,2.7l5.3-5.3h12.9l10.6-8l-26.2,8L-777-16l8-2.7l-10.6,2.7l5.3-2.7h-5.3l41.7-28.8
							l18.2,2.7l-10.6-5.3h18.2h-18.2l-52.3,28.8v-5.3h8h-10.6v-8l26.2-2.7l-23.5-2.7l18.2-2.7l-8-2.7l15.5-2.7l-28.8-2.7l-2.7-2.7
							h10.6l-12.9-2.7l8-5.3l28.8-2.7h2.7h8l8,8l15.5-2.7l-15.5,2.7l-8-8l8-2.7h-20.8l-20.8,2.7l-10.6,5.3v-8l26.2-12.9l47,10.6
							l-12.9-2.7l15.5-5.3H-735l15.5-2.7l-8-2.7l2.7,2.7h-10.6l-2.7-2.7h5.3v-2.7h-10.6l5.3,5.3l-8,2.7L-759-80l-26.2,10.6l-2.7-2.7
							l5.3-5.3l-2.7-2.7l12.9-5.3l-2.7-2.7h12.9v4.3H-762.3z M-791.2-130.9l18.2-2.7l-2.7-2.7l2.7-2.7l-8,5.3l-2.7-2.7v-2.7
							l-20.8-2.7h10.6l-10.6-5.3l5.3-5.3l10.6,2.7l-12.9-5.3v-5.3l8-5.3l23.5,5.3l28.8,20.8l-34.1,12.9L-791.2-130.9z M-166.7-256.4
							l20.8,12.9h-15.5l12.9,8l-2.7,5.3l-41.7-18.2l-2.7-8h20.8h5.3H-166.7z M-219.1-191.2l5.3,5.3l2.7,10.6l-55,5.3h-2.7l20.8-12.9
							L-219.1-191.2z M-605.3-650.6l-55-28.8h31.5l34.1,12.9l-10.6,8l5.3,5.3L-605.3-650.6z M-192.9-279.9l23.5,8l-36.4-2.7
							l41.7,5.3l-28.8,5.3l-23.5-5.3l-2.7-2.7l8-8h18.2V-279.9z M-64.7-358.4l2.7,5.3l-8,2.7l8,5.3l10.6-2.7l-5.3,8l-28.8-2.7
							l2.7-12.9L-64.7-358.4z M-143.2-251l-26.2-8l-28.8-2.7l26.2-5.3l15.5,2.7l12.9,2.7l-8,5.3L-143.2-251z M-125.1-318.9h8l8,10.6
							l-20.8,2.7l-15.5-5.3L-125.1-318.9z M-78.1-389.4v12.9l-10.6-26.2l8-2.7l-8-8l8,5.3L-78.1-389.4z M-111.8-342.4h5.3l-2.7,5.3
							l8,2.7l-5.3,5.3l-12.9-5.3l2.7-8H-111.8L-111.8-342.4z M-728.2-647.9l-44.3-10.6l10.6-5.3L-728.2-647.9z M-725.5-149l8,2.7
							l-5.3,2.7v8h-8l-2.7-5.3L-725.5-149l-5.3,2.7L-725.5-149z M-459.4-0.5l-5.3-5.3l2.7-5.3l10.6,2.7h-2.7l2.7,2.7L-459.4-0.5z
							 M-809.3-256.4h5.3l-10.6,10.6l-8-2.7L-809.3-256.4z M-485.6-702.9l-34.1-8l8-2.7L-485.6-702.9z M-509.1,36.3l-5.3-2.7
							l-2.7-5.3l-5.3-8l5.3,2.7L-509.1,36.3z M-109.1-643.1l-12.9-10.6l18.2,5.3l2.7,5.3H-109.1z M-1149.1-441.7l18.2,2.7l-15.5,2.7
							l-8-5.3h5.3V-441.7z M-775.2-198.7l2.7,5.3v2.7l-10.6-2.7L-775.2-198.7z M-767.7-201.4l15.5,2.7l-10.6,5.3L-767.7-201.4z
							 M-498.5-697.6l-18.2-8l26.2,2.7L-498.5-697.6z M-78.1-629.8l-12.9-8h10.6l8,5.3L-78.1-629.8z M-88.3-561.9l-18.2,2.7l5.3-5.3
							L-88.3-561.9z M-59.4-462.6l2.7,5.3l-2.7,5.3H-70L-59.4-462.6z M-577,174.7l-10.6-8l18.2,2.7h-8v5.3H-577z M-93.6-496.7
							l-8-2.7l10.6-8l-2.7,5.3h2.7l-2.7,2.7h5.3L-93.6-496.7z M-671-687.4l-2.7-2.7l2.7-2.7l18.2,5.3L-671-687.4L-671-687.4z
							 M-770.3-209.3l-5.3-2.7h15.5L-770.3-209.3z M-581.8,177.4h-5.3l2.7-5.3l8,5.3H-581.8z M-804-240.4l-8,8h-5.3L-804-240.4z
							 M-59.4-520.2v8l-8,2.7L-59.4-520.2z M-660.3,148.5h2.7l-5.3,2.7l-8-2.7H-660.3z M-720.7,33.7l-10.6,8L-726,31L-720.7,33.7z
							 M-125.1-629.8l2.7-2.7l-2.7-2.7l15.5,2.7L-125.1-629.8z M-671-668.8l-10.6-5.3l12.9,2.7L-671-668.8z M-608,161.8v2.7
							l-5.3,2.7l2.7-5.3L-608,161.8L-608,161.8z M-250.1-183.2l-10.6,2.7v-5.3L-250.1-183.2z M-830.2-292.7l-10.6-5.3l15.5,2.7
							L-830.2-292.7z M-744.2-188.5l8,5.3h-10.6L-744.2-188.5z M-589.8,169.4l-2.7,2.7h-2.7l2.7-5.3L-589.8,169.4z M-822.2-285.2
							l8,5.3l-5.3,2.7l2.7-5.3l-10.6-2.7H-822.2z M-119.7-402.7v5.3l-8-2.7L-119.7-402.7z M-762.3-99.4v2.7L-765-94l-2.7-2.7h-2.7
							l5.3-2.7C-765.1-99.4-762.3-99.4-762.3-99.4z M-129.9-405.4l-8-2.7h10.6L-129.9-405.4z M-587.2,174.7h-5.3l8-2.7L-587.2,174.7
							z"/>
						
							<polygon fill="#DDDDDD" stroke="#FFFFFF" stroke-width="1" stroke-linecap="round" stroke-linejoin="round" stroke-miterlimit="10" points="
							243.5,462.1 243.5,464.7 240.8,464.7 						"/>
						
							<polygon fill="#DDDDDD" stroke="#FFFFFF" stroke-width="1" stroke-linecap="round" stroke-linejoin="round" stroke-miterlimit="10" points="
							167.6,341.9 170.3,344.6 165,347.2 173,354.8 167.6,360.1 173,373.4 170.3,378.7 162.3,388.9 165,394.2 154.8,391.6 
							154.8,394.2 141.5,394.2 131.3,402.2 125.9,402.2 128.6,404.4 120.6,409.7 97.1,412.4 105.1,404.4 91.8,407.1 102.4,402.2 
							86.5,404.4 89.1,396.9 97.1,394.2 84.3,394.2 99.8,391.6 97.1,386.2 99.8,383.6 118,380.9 94.5,383.6 105.1,376 107.8,368.1 
							115.3,368.1 115.3,362.7 102.4,365.4 102.4,360.1 89.1,360.1 89.1,354.8 99.8,354.8 94.5,349.9 102.4,347.2 94.5,347.2 
							97.1,344.6 91.8,336.6 91.8,341.9 91.8,336.6 123.3,336.6 120.6,333.9 128.6,326.4 118,323.7 125.9,321.1 123.3,315.7 
							133.5,310.4 138.8,313.1 136.1,310.4 141.5,307.7 141.5,315.7 138.8,318.4 144.1,315.7 141.5,310.4 146.8,305.5 154.8,310.4 
							149.5,313.1 141.5,323.7 133.5,323.7 138.8,326.4 131.3,331.3 141.5,339.2 146.8,339.2 152.1,331.3 159.7,341.9 						"/>
						
							<polygon fill="#DDDDDD" stroke="#FFFFFF" stroke-width="1" stroke-linecap="round" stroke-linejoin="round" stroke-miterlimit="10" points="
							196.5,341.9 206.7,331.3 204.4,339.2 						"/>
						
							<polygon fill="#DDDDDD" stroke="#FFFFFF" stroke-width="1" stroke-linecap="round" stroke-linejoin="round" stroke-miterlimit="10" points="
							248.8,470.1 251.5,470.1 253.7,472.7 248.8,472.7 						"/>
						
							<path fill="#DDDDDD" stroke="#FFFFFF" stroke-width="1" stroke-linecap="round" stroke-linejoin="round" stroke-miterlimit="10" d="
							M144.1,762.3l-8,5.3h-23.5L118,757v-20.8l2.7-2.7l-2.7-2.7l-8,2.7l-2.7-5.3l8-2.7l-2.7-2.7l-2.7,5.3h-5.3v-15.5l8-5.3l8-26.2
							l-5.3-26.2l2.7-5.3l10.6-2.7l2.7,8l31.5-5.3v8l8,2.7l-15.5,12.9l2.7,10.6l-5.3,8l5.3,5.3l-5.3,8h-10.6l12.9,15.5l-8,12.9l8,8
							l-10.6,10.6L144.1,762.3L144.1,762.3z M-213.8,752.1l-10.6-5.3h15.5v2.7L-213.8,752.1z M-43.9,867l-8-5.3l10.6,2.7L-43.9,867z
							 M-271.4,736.1l-5.3-5.3l10.6,2.7L-271.4,736.1z M-247.9,728.6l-5.3-2.7h5.3V728.6z"/>
						
							<path fill="#DDDDDD" stroke="#FFFFFF" stroke-width="1" stroke-linecap="round" stroke-linejoin="round" stroke-miterlimit="10" d="
							M185.8,785.8l-5.3,5.3l-8-5.3l-8-10.6v-5.3l-10.6-8h-10.6v-10.6l10.6-10.6l-8-8l8-12.9L141,704.2h10.6l5.3-8l-5.3-5.3l5.3-8
							l-2.7-10.6l15.5-12.9l-8-2.7v-8l-31.5,5.3l-2.7-8l-10.6,2.7l-2.7,2.7v-5.3l5.3-5.3l-5.3,2.7l5.3-5.3h-4.4l2.7-5.3l-5.3,2.7
							l2.7-5.3H110l-2.7-8l8-5.3l10.6-2.7l10.6-8l15.5,5.3l23.5-2.7l28.8,5.3l18.2-2.7l8,2.7h26.2l8,2.7v5.3l12.9,2.7l5.3,5.3
							l23.5,2.7v-5.3l15.5,5.3v5.3l5.3-2.7l5.3,5.3l23.5-2.7l2.7,2.7l-2.7,2.7v8l-20.8,12.9l-23.5,8l-5.3,5.3l5.3,2.7l-5.8,4
							L293,697.3l-8,12.9l5.3,10.6l8,8l-15.5,8l-8,15.5l2.7,2.7H267l-8,5.3l-8,12.9l-5.3-2.7l-8,5.3l-34.1-2.7l-2.7,5.3l-12.9,2.7
							L185.8,785.8L185.8,785.8z M340.1,707.8l12.9-8l10.6,5.3L353,715.7l-5.3-8L340.1,707.8L340.1,707.8z M-38.6,969l-5.3-8
							l15.5-5.3L-38.6,969z M5.8,966.3l10.6-15.5v10.6L5.8,966.3z M-17.7,973.9l-5.3-5.3l2.7-5.3l8,2.7L-17.7,973.9z M18.6,948.1
							v-2.7l5.3-5.3v5.3L18.6,948.1z M379.2,702.4l-10.6-5.3h8L379.2,702.4z M319.3,725.9l-2.7-2.7l2.7-2.7l5.3-2.7L319.3,725.9z
							 M-62.1,955.7l-5.3-5.3l2.7-2.7l5.3,2.7L-62.1,955.7z M-51.9,966.3v-2.7h2.7L-51.9,966.3z M185.8,791.1v2.7V791.1z
							 M235.5,806.7h-2.7V804L235.5,806.7z"/>
						
							<path fill="#DDDDDD" stroke="#FFFFFF" stroke-width="1" stroke-linecap="round" stroke-linejoin="round" stroke-miterlimit="10" d="
							M442.1,83.3l10.6-2.7H450l5.3-2.7l8,8l-2.7-2.7l5.3-2.7L455.5,78l15.5-2.7l-8-2.7l5.3-2.7l-2.7-2.2l15.5,2.7l-5.3-5.3
							l10.6-5.3L497,72.7l-3.1-4.9h15.5l-2.7-2.7l2.7-2.7h-2.7l15.5-8h-8l8-5.3l-2.7-2.7l-15.1,8l8-2.7V57l-18.2,8l-5.3-5.3l5.3-2.7
							l-10.6,2.7V57l12.9-5.3l-2.7-5.3l10.6-8l-2.7-2.7h8h-5.3l8-5.3l5.3,2.7v5.3l10.6-8l-8-5.3l15.5-8l-18.2,8v-2.7l8-2.7h-8
							l12.9-5.3h5.3l8-2.7l8-5.3l-10.6,5.3V9.9l5.3-2.7l-8,2.7l8-8l-8-5.3h10.6l-5.3-5.3l2.7-5.3l10.6,2.7l-5.3-5.3l-5.3-2.7
							l18.2-5.3v5.3l10.6-8L554.5-22l8-5.3h-10.6l5.3-2.7l-5.3-2.7l5.3-2.7v-2.7h5.3l-5.3-2.7L573-43l-8-5.3l18.2-2.7l-5.3-2.7h10.6
							l-5.3-2.7l18.2,5.3v-5.3h5.3L596-61.7L580.5-59l12.9-10.6l-2.7,2.7h10.6l5.3,8l-2.7-8l5.3-2.7L598.7-67l-2.7-5.3l2.7-2.7h10.6
							l-10.6-2.7l-10.6,5.3l5.3-5.3h-5.3l20.8-5.3l2.7-2.7h-2.7h-10.2l12.9-8l5.3,12.9l5.3,2.7l-5.3-8l10.6-2.7h-8l2.7-2.7l-8-5.3
							l12.9,8l-10.6-8h18.2l5.3,5.3l-5.3-8l8,2.7l-2.7-2.7l2.7-5.3l-20.8,2.7l10.6-8l12.9,2.7l-8-5.3H648l-8-2.7h8l-8-2.7l2.7-2.7
							l13.7-2.2l-5.3-5.3h5.3v-5.3l8,5.3h8l-10.6-5.3l8-2.7l2.7,2.7l5.3-2.7l-5.3-2.7l15.5-8l-5.3,15.5l2.7-2.7l2.7-10.6l10.6-8
							l2.7,2.7l-2.7,15.5l-8,8l10.6-12.9l8,2.7l-5.3-2.7v-5.3l10.6-8l-2.7,5.3h2.7l5.3-8l15.5,10.6l-5.3-10.6l5.3-2.7l-8,2.7l-8-8
							l31.5,2.7l-12.9,5.3l12.9-2.7l8,5.3l5.3-2.7l-8-2.7l10.6-10.6l12.9-2.7l-2.7-2.7l2.7-5.3l8,2.7l-10.6-5.3h8v-8l12.9,5.3
							l2.7-5.3l5.3,2.7h5.3L795.8-172l2.7,2.7l-5.3,10.6l2.7,2.7l28.8-31.5h2.7v8l-8,2.7h8l-2.7,10.6l12.9-8l-2.7-5.3l5.3-5.3h5.3
							l-10.6-2.7l2.7-5.3h20.8l5.3,5.3l-16.4,6.7h8l-10.6,5.3l12.9-2.7l-8,8h8l-5.3,15.5l10.6-26.2l10.6-2.7l5.3,5.3h15.5l5.3,2.7
							l-8,2.7h12.9l8,10.6l-18.2,8l-28.8-2.7l20.8,5.3l-8,5.3l8-2.7l-5.3,8h15.5v-8l2.7,2.7v5.3l2.7-5.3h8v10.6l-15.5-5.3v5.3
							l-15.5,8l-2.7,8h-5.3l-2.7-5.3l10.6-8l-2.7-8l-15.5-5.3L850-157l-28.8,5.3l-8,10.6l-8,15.5l2.7,8l-18.2,15.5l-18.2-10.6
							l-15.5,8l-15.5-2.7l-12.9-20.8h-8l-5.3,2.7v8l-10.6-2.7l-8,2.7l2.7,8l-8,8l5.3,2.7l-5.3,5.3L654-98.8l2.7,10.6l-5.3,8
							l-12.9-5.3l-10.6,8L615-62l5.3,5.3v8l-20.8,18.2l2.7,8L584-17.2l2.7,8L584,9l-18.2,23.5l10.6,2.7v10.6l-2.7,5.3l-20.8-2.7
							l-15.5,15.5l-5.3,10.6l5.3,8l-2.7,2.7v10.6l5.3,10.6l-2.7,15.5l12.9,10.6l-2.7,10.6l-10.6,2.7l8,12.9l-2.7,12.9l-12.9,8
							l2.7,5.3l-5.3,2.7l2.7,12.9l-2.7,5.3h-5.3v-5.3l-12.9-2.7l-2.7-15.5l2.7-5.3l-5.3,2.7l2.7,8l-8-5.3l5.3,12.9l-6.2,5.3l-8,2.7
							l-5.3-5.3l2.7,5.3L457.2,227l-23.5,5.3l-10.6-2.7l5.3-5.3l-15.5-5.3l-10.6-10.6v-7.5l12.9,5.3v-2.7l-2.7,2.7l-1.8-5.3l10.6-8
							h-8l8-8l-10.6,5.3l5.3-2.7h-8l-2.7,2.7l5.3,2.7h-8l-5.3-5.3l5.3-8v8l2.7-5.3l12.9-5.3H408l8-12.9l10.6-5.3l-2.7,10.6l5.3-10.6
							l5.3-2.7l-15.5,2.7L408,172l-2.7-5.3h-2.7l5.3-5.3l-8,8l-5.3-8l2.7-5.3l5.3,2.7h2.7h2.7v-8h-2.7l-2.7,2.7l-5.3,3.1l-5.3-8
							l8,5.3l-2.7-5.3l5.3-2.7l-8,2.7l-2.7-8h28.8l8-2.7l5.3,8l-2.7-5.3l10.6-5.3l-2.7-2.7l5.3-5.3l-5.3,5.3v2.7l-8,2.7l-8-2.7
							l2.7-5.3l-5.3,8h-2.7h-23.5l2.7-2.7H392l12.9-5.3H392l16-2.2h-10.6l2.7-2.7l-8-2.7v-2.7l8-5.3h-5.3l5.3-2.2l-5.3-5.3l8,5.3
							v-5.3l18.2,2.7l-10.6-5.3l8-2.7l5.3,8L421,99h5.3h5.3l2.7,10.6v-5.3h5.3l-10.6-8l-8,2.7l5.3-2.7l-8-2.7l15.5-2.7l10.6,5.3
							l2.7-2.7h-5.3v-2.2h12.9l-23.5-2.7l2.7-8L442.1,83.3z M611.6-115.3v5.3l-5.3,8l10.6-10.6l5.3,2.7v8h-5.3L604-94h-5.3l5.3-5.3
							l-12.9,8l10.6-15.5h5.3l-5.3-2.7l2.7-5.3h7.1v-0.5H611.6z M653.7-130.9l-2.7,2.7l2.7,5.3l-18.2,5.3l-8-2.7l8-5.3h-5.3h5.3
							l-5.3-5.3l12.9-2.7l-8-2.7l8,2.7l-2.7-5.3h8L653.7-130.9z M734.4-169.9l2.7-5.3h-5.3l28.8-5.3l-8,8L734.4-169.9z M583.2-104.7
							l-2.7-2.7l2.7-2.7H596l-2.7-8l5.3,5.3l2.7,5.3l-8,5.3l-5.3-2.7l8-2.7l-2.7-2.7L583.2-104.7z M658.6-141.5h8v-8l8,5.3l-8,8
							h-12.9L658.6-141.5z M755.2-162.3l-5.3-8l10.6-5.3l5.3,5.3L755.2-162.3z M674.5-146.4l-8-2.7l2.7-5.3l15.5,2.7L674.5-146.4z
							 M802.3-185.8l-5.3-5.3l8-2.7l10.6,2.7l-10.6,5.3H802.3z M463,67.8l-5.3-2.7l8-2.7h10.6L463,67.8z M577.9-89.2l5.3-8l12.9-2.7
							L577.9-89.2z M562.3-83.8l2.7-8h10.6L562.3-83.8z M533.5,10.2l5.3-12.9l5.3,8L533.5,10.2z M601.4-112.7l2.7-8l10.6-8
							L601.4-112.7z M402.7,159.2l-2.7-2.7l5.3-2.7v-2.7v5.3v2.7L402.7,159.2L402.7,159.2z M768.5-169.9l-2.7-10.6l8,5.3
							L768.5-169.9z M452.3,70l-5.3-2.2l8-2.7l2.7,2.7L452.3,70z M690.1-154.4l-8-8l12.9,5.3L690.1-154.4z M753-162.3l-12.9-2.7
							l5.3-2.7L753-162.3z M703.4-154.4l-2.7-5.3h8L703.4-154.4z M536.2,15.5h-2.7l2.7-5.3l2.7,2.7L536.2,15.5z M538.4-16l5.3-8
							l2.7,5.3L538.4-16z M549-16h2.7H549l-8,5.3l2.7-5.3H549z M637.7-110l-2.7-5.3h2.7l2.7,2.7L637.7-110z M405.3,169.4l-2.7,5.3
							L400,172L405.3,169.4z M619.5-99.4h2.7l-8,2.7l2.7-2.7v-2.7L619.5-99.4z M392.5,119.7l-2.7-5.3l8,2.7L392.5,119.7z
							 M395.1,185.3v-8l5.3,5.3l-2.7-2.7L395.1,185.3z M395.1,198.2l2.7-8v5.3L395.1,198.2z M400,180l-2.7-8l5.3,5.3L400,180z
							 M442.1,80.7V78l5.3,2.7h-2.7l-2.7,2.7v-2.7H442.1z M773.9-185.8l-2.7-2.7h5.3L773.9-185.8z"/>
						<path fill="#DDDDDD" stroke="#FFFFFF" stroke-width="1" stroke-miterlimit="10" d="M3884.9,15.5L3856,31l5.3-2.7l-23.5-2.7
							L3825,15.1h-12.9h12.9l8,8h-5.8l-20.8-5.3l-2.7,2.7l-5.3,2.7l-23.5,5.3l23.5-2.7l8-5.3l8,5.3l-8,5.3l28.8-5.3l-2.7,5.3l5.3,8
							l10.6,2.7l2.7-2.7l5.3,5.3l-2.7,5.3l5.3,2.7l2.7,8l-10.6,2.7h8V68l2.7-5.3l2.7,8l10.6,5.3l-5.3,5.3l8,10.6l-8,5.3l-2.7,5.3
							l-34.1-8l2.7-8l-5.3,5.3l-5.3-5.3v5.3l5.3,2.7l-52.3,17.7l2.7,2.7l-2.7,2.7l-20.8,2.7l-2.7,5.3l-5.3,5.3h-8l2.7,2.7l-10.6,2.7
							l2.7,5.3h-10.6l5.3,2.7l-5.3,2.7v-3.5l-26.2,15.5l-8,15.5l-10.6-15.5l-10.6-5.3h-20l-23.5,8l-18.2,15.5l5.3-18.2h-2.7
							l-23.5,10.6l2.7,2.7l-8,8l-5.3-10.6l-8,8l-2.7-5.3h-8l2.7,2.7l-8,2.7v5.3l-2.7,2.7l2.7,8l-5.3,2.7l2.7,5.3l-8-2.7l5.8,2.2
							l-12.9,10.6l-10.6,18.2l8,10.6l5.3-8l12.9,2.7v2.7l-2.7,7.5l-8,5.3l2.7,12.9l2.7,5.3l5.3-2.7l2.7,15.5l-5.3,5.3l-8-5.3l8-8
							h-2.7l-10.6,2.7l2.7,2.7l-10.6,5.3l-8,18.2l10.6,20.8l-8,5.3l-8,2.7l-12.9-2.7l-15.5,10.6l-2.7,12.9l2.7,5.3h-2.7l5.3,10.6
							l-10.6-5.3l-15.5,10.6l-8-2.7l2.7,2.7h2.7l-2.7,8h-2.7l2.7,8l-5.3,10.6l-31.5,28.8l2.7-5.3l-5.3-8l-5.3-31.5h2.7l-5.3-8
							l-10.6-57.7v-28.8l8-20.8l18.2-20.8l-2.7-10.6l28.8-8l28.8-23.5l2.7-8l12.9-12.9l26.2-18.2l2.7-8l37.7-15.5l-5.3-2.7l10.6-8
							l-5.3-4.9l5.3-10.6l2.7-12.9l10.6-8l12.9,5.3l-2.7-5.3l8,2.7l-23.5-10.6l-23.5,5.3V99l2.7,2.7l-5.8,2.7l-2.7,12.9l8,5.3
							l-8,5.3l-2.7-8l-2.7,2.7v2.7l-5.3-2.7l-34.1,28.8l-12.9,2.7l5.3-12.9l-10.6,2.7l2.7-5.3l-2.7-5.3l10.6-12.9v-5.3l-15.5,8
							l-5.3-8l-26.2,4.9l-10.6-2.7l-15.5,8v10.6l-12.9,5.3l-2.7,8l-34.1,26.2l2.7,8l-5.3,5.3l8,2.7v-5.3l15.5,5.3l-2.7,5.3l-8,2.7
							l-5.3-2.7l-8,5.3l-12.9-5.3l-10.6,8l-10.6-2.7l-20.8,5.3l-5.3-8l23.5-2.7l-10.6-2.7l-5.3-8l-15.5,2.7h-5.3l5.3-2.7l-20.8-5.3
							l-10.6,2.7l2.7,5.3h-10.6v2.7h5.3v5.3l-10.6-2.7l-2.7-2.7l-15.5,5.3l-12.9-5.3l-8-2.7l-2.7,2.7v5.3l-8,2.7l-2.7-5.3l2.7-2.7
							h-41.7l-31.5,8l-12.9,12.9l-15.5,10.6l-8,15.5l-36.4,23.5l-18.2,23.5l-49.7,34.1v5.3l10.6,5.3l20.8-2.7v12.9l-1.8,7.1l2.7,2.7
							l8-2.7l2.7-5.3l-5.3-2.7l2.7-2.7l10.6-2.7l-8,8l10.6,2.7l-12.9,10.6l2.7,2.7l12.9-2.7l12.9-10.6v5.3l-8,5.3l5.3,2.7l5.3-12.9
							v-11.1l12.9,5.3l8-2.7l8,5.3l2.7,5.3l5.3,5.3l15.5,10.6l2.7,5.3l-5.3,2.7l-10.6-2.7l10.6,8l2.7,5.3l-5.3,5.3l8,5.3l-2.7,5.3
							v2.7l-12.9,15.5v10.6l-5.3,8l2.7,12.9l2.7,2.7l-5.3,5.3l2.7,8l-5.3,8l2.7,8l-5.3,12.9l-18.2,15.5l-12.9,20.8l-10.6,20.8
							l-44.3,44.3l-15.5,20.8l-23.5,15.5l-15.5,5.3l-12.9-8l-2.7,2.7v-10.6l-8,5.3h-2.7l5.3-5.3h-5.3l-10.6,18.2l-12.9-2.7l5.3,2.7
							l-2.7,5.3l-2.7-2.7l-5.3-8l15.5-2.7l2.7-12.9l-2.7-2.7l2.7-12.9l-8-18.2l10.6-5.3l8-8l23.5,8l2.7-10.6l8-5.3V556l8-10.6v-5.3
							l2.7-5.3l2.7-15.5l12.9-10.6l-5.3-8l2.7-5.3l-5.3-5.3l-18.2,10.6l-8-2.7l-12.9,10.6h-28.8l-8-10.6l2.7-5.3l-5.3-8l2.7-5.3h-8
							l-15.5-15.5l-8,2.7l-8-5.3H2847l-8-8l2.7-10.6l-5.3-2.7l-2.7-10.6l-5.3-8v-8l-2.7,2.7l2.7-2.7l-10.6-18.2l2.7-2.7l-10.6-12.9
							v-2.7l-8-5.3v-2.7l-23.5-5.3l-18.2-10.6l-55,8l-15.5,12.9v5.3l12.9,2.7v5.3l2.7,5.3l-15.5,12.9l-18.2,34.1h5.3v9.3l-15.5,2.7
							l-12.9,10.6l-23.5-8l-10.6-5.3l-15.5,5.3l-12.9-10.6h-10.6l-28.8,18.2l-41.7,10.6l-41.7-5.3l-12.9-8v-8l-15.5-2.7l-10.6-8
							l-26.2-2.7l-26.2,8h-15.5l-18.2-10.6l-2.7-20.8l-44.3-10.6l-20.8-10.6l-5.3,8l-12.9,10.6l-5.3,12.9l5.3,8l5.3,2.7v8l-5.3,5.3
							l-12.9,8l-26.2-5.3l-10.6,2.7l-19.1-4.9l-8-12.9h-23.5l-2.7-5.3l-5.3,2.7l-8-5.3l-52.3,23.5v5.3l-8,2.7l-2.7,2.7l-18.2,2.7
							v5.3l-8,2.7l-10.6,2.7l-12.9-12.9l2.7-5.3l-12.9,8l-18.2-2.7l-5.3-10.6v-3.1l-12.9-5.3l-5.3-12.9l-10.6-5.3h-15.5l-5.3,5.3
							H1919v-5.3h-8l2.7-5.3l-10.6-5.3l-2.7,5.3v5.3l-8,5.3l-44.3-67.9l-26.2-18.2l-2.7-5.3h5.3l2.7-8l-41.7,15.5l-5.3,5.3v5.3
							l-10.6-5.3l-10.6,8l-2.7-8l2.7-5.3h5.3l2.7-5.3l-10.6,2.7l-12.9-5.3l-2.7,2.7l5.3,2.7l-8,2.7l2.7-8l-10.6-5.3l5.3,5.3
							l-10.6-2.7l-2.7,5.3l-5.3-5.3l-2.7,5.3l-5.3-8h5.3l2.7-10.6l-5.3-2.7l-5.3-12.9h-6.2l-2.7,5.3l-26.2-10.6v5.3l-5.3-2.7
							l-2.7,5.3h-7.5l2.7,2.7l-2.7,2.7l-55,10.6l-5.3,2.7v4.9l-5.3-2.7l-34.1,8l-10.6,2.7l-2.7,5.3l-5.3-5.3h-18.2l-8,2.7l5.3,5.3
							l-8,5.3l12.9,2.7h-5.3l-2.7,5.3l18.2,5.3l2.7,2.7h-20.8l-8,8l5.3,10.6l-20.8,10.6l10.6,2.7l-2.7,5.3h12.9l12.9,10.6l-5.3,12.9
							l-12.9,2.7l-12.9-5.3l-5.3,8l-5.3,2.7l-2.7-5.3l-15.5-5.3v-5.3l-5.3-2.7h-10.6l-2.7,5.3l-5.3,2.7l-8-5.3h-10.6l-18.2,12.9
							l-20.8-12.9v2.7l2.7,8l-5.3,2.7v-8l-20.8-15.5h-15.5l-5.3-8l-10.6,2.7l-2.7,5.3h-5.8l2.7-5.3l-12.9-2.7v5.3l-2.7-2.7l-5.3,8
							l-18.2,5.3v8l-15.5,8l2.7,15.5l-10.6,2.7l-12.9-15.5l-5.3,5.3l-2.7,5.3l-5.3,5.3l-2.7,12.9l5.3,5.3l-12.9,18.2l12.9,5.3
							l2.7,12.9h18.2l18.2,23.5h-10.6v5.3l12.9,5.3l2.7,8l12.9,5.3l-10.6,8l-15.5,18.2l8.5,31.3l10.6,18.2l-36.4,36.4h-10.6
							l-12.9-15.5h-5.3l-15.5-8v-8l-15.5-5.3l-20.8,5.3l-2.7-2.7l2.7-2.7l-20.8-10.6h-23.5l-26.2-10.6l-5.3,5.3l-26.2-20.8
							l-10.6-2.7l-8-8h-8l-5.3-8l-12.9-5.3l8-2.7h-5.3l2.7-2.7l8,5.3l10.6-2.7l-2.7-8l8-10.6l2.7,2.7l2.7-5.3l8,2.7l-12.9-8l-5.3-8
							h18.2h-5.3V533l18.2-5.3v-5.3l-20.8,2.7l2.7-10.6l8-5.3l2.7-2.7h18.2l5.3-12.9l-8-8l8-5.3l-8-5.3l10.6-5.3v-8h-8l-12.9-8h-2.7
							l-12.9-5.3l-8,5.3l-10.6-15.5l-15.5,5.3l-10.6-5.3l-10.6,2.7l-2.7-5.3l-2.7-12.9l-5.3-5.3h-13.3l-5.3-10.6l5.3-5.3l-12.9-12.9
							h-28.8l-2.7,8l-8-2.7l-5.3-5.3v-12.9l-5.3-5.3l2.7-5.3l15.5,2.7l10.6-10.6l-5.3-2.7v-2.7l-12.9-2.7v-8l-10.6-5.3l-2.7-10.6
							l-8-5.3l5.3-5.3l-5.3-8l2.7-8l-12.9-8l-15.5,5.3v-6.2H868l-12.9-5.3l2.7-5.3l-8-12.9l-2.7-2.7l2.7-12.9l-10.6-5.3l2.7-8l8-2.7
							l-8-10.6v-15.5l8-15.5h5.3l-2.7-5.3v-10.6l8,5.3l2.7-5.3l5.3,2.7l8-8l18.2,5.3l2.7-5.3L863,161l-2.7-5.3l5.3,2.7L863,153
							l2.7-2.7l-18.6,6.2l70.5-59.9l5.3-12.9l-5.3-10.6l-26.2-16l12.9-10.6v-5.3l-10.6-5.3l-2.7-5.3l5.3-2.7l-2.7-5.3L883,19.9v-5.3
							l5.3-2.7L883,9.3l5.3-15.5h5.3l-5.3-15.5l-15.5-23.5L891-74l-12.9-12.9l-12.9-2.7l-5.3-12.9l8-10.6l-8-2.7l10.6-5.3h5.3l2.7-8
							l15.5-8v-5.3l15.5,5.3v-10.6l18.2,5.3v-5.3h5.3l-2.7-2.7l2.7-2.7l20.8,8l-5.3,5.3H933l8,2.7l-5.3,2.7h15.5l-2.7,5.3l12.9-5.3
							l-5.3,5.3l5.3,2.7v2.7l-10.6,8l8-5.3l8-8l44.3,5.3l36.4,15.5l12.9,12.9l20.8,10.6h5.3V-90l12.9,15.5l12.9,2.7V-59l5.3,5.3
							l-5.3,10.6l-20.8,18.2l-28.8,5.3L1000-30.2l-12.9-8l-7.1,4l-15.5-8h-8l-10.6-10.6l-18.2-2.7l8,2.7l12.9,10.6v2.7l10.6,2.7
							l-10.6,2.7h10.6h-8l12.9,2.7l-5.3,5.3l15.5,2.7l12.9,10.6l2.7,8l-5.3-2.7V3.1l-5.3,2.7L989.9,24v5.3l-2.7,2.7l2.7,2.7l23.5,8
							l2.7,8l26.2,5.3l10.6-5.3l-2.7-10.6l-15.5-2.7l-12.9-10.6l-2.7-8h8l2.7-8l28.8,10.6l-5.3,5.3v2.7l8-5.3l39,8l-2.7-10.6
							L1084.7,6l2.7-8l31.5-15.5l15.5-15.5l23.5,5.3l8,5.3l-8,5.3v2.7h2.7v-2.7l8-2.7l5.3,10.6V-20l2.7-8l5.3-8l-2.7-5.3l2.7-5.3
							l-15.5-10.6l8-15.5v-5.8l2.7-2.7h-2.7l2.7-10.6l-18.2-15.5l52.3,8l10.6,12.9l5.3,10.6l-26.2,2.7l-10.6,12.9l12.9,5.3
							l10.6,12.9l10.6-2.7l-5.3,5.3l26.2-8v-8l5.3-8l-2.7-5.3l5.3-2.7h20.8L1263.4-82l12.9,2.7l31.5-18.2l26.2-5.3l5.3,2.7l-5.3,2.7
							l2.7,2.7l10.6-5.3l-5.3-2.7l2.7-2.7h-5.3l23.5-10.6l20.8-2.7l-18.2,2.7l8,2.7l-8,8l5.3,8l-12.9,5.3l18.2,2.7l5.3-5.3l8,5.3
							l2.7-8l20.8-8l26.2,2.7l18.2-10.6l2.7,5.3l-2.7-5.3l12.9-5.3h5.3l-5.3,2.7l10.6,8l-8,2.7v8h15.5l2.7-2.7l-2.7-8l20.8-8v-6.7
							h-5.3l-8-15.5l15.5-10.6l65.2,12.9l15.5,8l-5.3,5.3l5.3-5.3l39,15.5l23.5,15.5l2.7,8l10.6-15.5l5.3-8l-2.7-2.7h5.3l-15.5-2.7
							l-8-10.6v-7.5l-20.8-5.3l-2.7,5.3l-2.7-2.7l2.7-15.5l8-2.7l-2.7-2.7l2.7-20.8l-12.9-2.7l5.3-8h-5.3l5.3-5.3l31.5-23.5
							l10.6-31.5l8-10.6l44.3,2.7l23.5,5.3v5.3l2.7,12.9l-10.6,15.5v5.3l-10.6,8l15.5,12.9l2.7,10.6l-2.7,8l2.7,8l-8,5.3l5.3,2.7
							l-2.7,5.3l2.7,8l-2.7,8v20.8l23.5,20.8l-12.9,5.3l2.7,12.9l-2.7,5.3l-10.6,5.3l-2.7,8l-8,2.7l5.3,2.7l-10.6,8h-5.3l2.7,10.6
							l-18.2,5.3l-8-5.3l8-5.3h-34.1l8,10.6l52.3,8l8-2.7l2.7-10.6l26.2-10.6l2.7-10.6l5.3-8l10.6-10.6v-12.9l-8-8l2.7-10.6
							l36.4-10.6l20.8,18.2l-2.7,8h2.7l-2.7,10.6l2.7,2.7l-5.3,2.7l12.9,8h26.2l-31.5-5.3l2.7-15.5l10.6-2.7l-8-8l-2.7-15.5
							l-31.5-10.6l-26.2,5.3l-20.8-2.7l5.3-8l-8-12.9l2.7-12.9l12.9-12.9v-5.3l-15.5-23.5l-10.6-5.3l10.6-10.6v-5.3l28.8-10.6
							l2.7-10.6l-5.3-15.5h10.6l5.3,10.6l-2.7,2.7l5.3,8l-10.6,15.5l5.3,8l-5.3,10.6l31.5,5.3l2.7,5.3v-5.3l12.9,2.7l15.5,8
							l12.9-2.7h-10.6v-5.3h-5.3v-5.3h-8l2.7-2.7l-10.6,2.7l-23.5-10.6l-5.3-12.9l15.5-5.3l18.2,8l10.6-5.3l-18.2-2.7l2.7-5.3
							l20.8-8h18.2l28.8,10.6l-5.3,2.7l20.8,12.9h31.5l-8,10.6l-12.9,5.3l2.7,8l-2.7,2.7l5.3,8l-8,8l5.3,12.9l-2.7-12.9l5.3-2.7
							l5.3-10.6h8l-2.7,18.2l-8,8l10.6,5.3v-2.7l-2.7-8l15.5-5.3l-12.9-28.8l10.6-12.9l-5.3-8l-23.5-10.6l2.7-2.7l-5.3-2.7
							l-26.2-10.6v-2.7l-2.7-2.7l2.7-10.6l-10.6-8l8-2.7l-8-2.7l8-8l-2.7-2.7l94-5.3l31.5-8l5.3,5.3l-26.2,10.6l2.7,8l18.2,10.6
							l-18.2-12.9v-5.3l26.2-5.3l10.6-10.6l-8,2.7l-5.3-8h5.3l-26.2-10.6l10.6-5.3l8,2.7l-2.7,2.7l8-2.7l-26.2-12.9l8-5.3l12.9,8
							l-2.7-2.7l12.9-10.6h-5.3l12.9-2.7l-18.2-5.3l20.8,2.7l26.2-15.5l12.9-2.7l83.4-15.5l-23.5,2.7v-8l5.3-2.7h49.7l10.6,2.7
							l-12.9,8l18.2-5.3l2.7,2.7l-2.7,2.7l15.5-8l-2.7,5.3l12.9-2.7l-2.7-2.7l23.5-8l18.2,8l-10.6,12.9l-2.7,8l20.8,15.5l-8-12.9
							l-10.6-2.7v-5.3l2.7-2.7l2.7-2.7l8-5.3v-5.3l-20.8-18.2h41.7l26.2,5.3l-26.2-8l5.3-8l-5.3-2.7v-5.3l44.3-28.8l23.5-5.3l31.5,8
							l8,8l-44.3,12.9l36.4-2.7l-8,5.3l26.2-2.7l12.9,5.3l-20.8,15.5v2.7l28.8-2.7l2.7-8l70.5,2.7l12.9,10.6l-5.3,2.7l8-2.7l8,5.3
							l-2.7,2.7l5.3,5.3l-5.3,2.7l12.9-2.7l-5.3-5.3h5.3l5.3,5.3v10.6h8l-8,12.9l2.7-5.3l-26.2-8l10.6,8v5.3l8-5.3l5.3,8l2.7-2.7
							v10.6l-36.4,26.2h-10.6l-34.1,12.9h8v5.3l-34.1,18.2l-20.8,2.7l-8,10.6l-15.5,2.7l-2.7,10.6l-12.9,8l20.8-5.3l-2.7-5.3
							l2.7-5.3h41.7l20.8-8l-5.3-5.3l12.9,5.3l20.8-10.6h-23.5l-2.7-5.3l10.6-8l18.2,5.3l5.3-2.7v5.3l20.8,5.3l10.6-2.7v-8
							l12.9,12.9l-8,8l8,2.7v10.6v5.3l-8,5.3l2.7,2.7l18.2,5.3l-20.8-8l8-5.3v-10.6l10.6-5.3l-10.6-5.3l39-8l67.9,5.3l2.7,2.7
							l-12.9,2.7v8l28.8,10.6h41.7L2782-249l26.2,12.9l5.3-2.7l15.5,18.2l2.7,15.5V-218l2.7-5.3l-8-5.3l-5.3-12.9h5.3l16.4,4
							l18.2,20.8l10.6-2.7l-2.7-5.3l10.6,10.6L2864-212h8l10.6,18.2l18.2,10.6l2.7-5.3l2.7,8l5.3,2.7l8-8l5.3-10.6h8l-5.3-2.7l2.7-8
							l12.9-15.5v5.3l18.2,12.9l15.5,2.7l31.5-10.6l39,18.2l-5.3-2.7l10.6-2.7l-8-5.3l5.3-5.3l12.9-2.7l8,8l15.5-2.7L3081-223
							l-5.3-2.7l15.5-8L3073-231l-2.7-5.3l8-8l28.8-5.3l-8-10.6l125.1,22.2l-36.4-5.3l-10.6,8h-8l8,2.7l20.8-2.7l26.2-2.7
							l-18.2,18.2v-8l8-2.7l-8,2.7l-5.3-8l2.7,12.9l-15.5-2.7l2.7,5.3l-5.3,5.3l8,2.7l15.5-5.3l20.8-20.8h28.8l23.5,8l5.3,8
							l-5.3,5.3l-8-5.3l-10.6,2.7l5.3,2.7l-5.3,2.7l23.5,2.7l2.7,2.7l-5.3,2.7h15.5l-12.9,10.6l12.9-8v5.3l15.5-2.7l12.9,12.9h-8
							l10.6,2.7l73.2-8l62.5,10.6l20.8,15.5v5.3l-5.3,5.3v2.7l-2.7,5.3l26.2,10.6v18.2l8,2.7l-5.3,12.9v2.7h-2.7h-5.3l2.7,2.7
							l5.3-2.7l8-12.9l-2.7-15.5l23.5-10.6l28.8-2.7l10.6,5.3l47,5.3l18.2-10.6l8.4,7.5l2.7,10.6l20.8,5.3l5.3,10.6h18.2l-2.7-2.7
							l5.3,2.7l8-8l-2.7-10.6l-8-10.6h-8l8-5.3V-157h-2.7h2.7l41.7,5.3l10.6,8l5.3-2.7l-5.3-2.7l5.3-2.7l52.3,2.7l12.9,8l41.7,10.6
							l5.3,2.7h-8l12.9,2.7l12.9,8v18.2v15.5v18.2v15.5v15.5V-16v15.5v16H3884.9z M-3298.6-118l10.6,2.7l28.8,23.5l5.3-2.7l-12.9-8
							l15.5,8v2.7l41.7,18.2l8,8l-5.3,5.3l10.6-2.7l-2.7,10.6l5.3,10.6l-5.3,5.3l10.6,2.7v8l8-5.3v8l5.3-8l-10.6-2.7l8-5.3
							l-2.7-10.6h-10.6l18.2-2.7l10.6,2.7l-2.7,5.3h2.7v-5.3l15.5,2.7l-12.9-2.7l26.2,2.7l8,10.6l15.5,10.6l-2.7,2.7l18.2,5.3v2.7
							l-15.5,5.3l-2.7,8l-18.2-8l10.6,8v5.3h-20.8l5.3-2.7l-18.2-5.3l10.6,8v8h-8l10.6,5.3l-20.8,8h5.3l2.7,2.7l-5.3,2.7l12.9,5.3
							h-12.9l2.7,5.3l-5.3,2.7l-5.3-2.7l2.7-5.3l-2.7-5.3l2.7,5.3l-8,5.3l-23.5-15.5h-10.6l-10.6-8l2.7-2.7l-5.3-10.6l-20.8-5.3
							l-28.8,2.7l2.7-5.3l-10.6-10.6l8-5.3v-8l-8,8l-5.3-8v2.7h-5.3l2.7,5.3l-8,2.7v10.6l8,5.3l-8,12.9l-5.3,5.3V1.3v-15.5v-20
							v-15.5v-15.5v-18.2v-15.5V-118H-3298.6z M-3298.6-209.3h28.8l20.8,12.9l-8,5.3l-31.5,5.3l-10.6-2.7v-10.6v-10.2H-3298.6z
							 M3884.9-188.5l-23.5,8l-2.7-10.6l26.2-18.2v10.6V-188.5L3884.9-188.5z M1377-282.5l18.2-8l-23.5,2.7l-8-8l23.5-5.3l-5.3-2.7
							l8-5.3l18.2,2.7l-15.5-5.3l13.3-1.8l-10.6-2.7l2.7-2.7l18.2-2.7l-15.5-5.3l20.8-2.7l-15.5-5.3l18.2-5.3l-15.5-2.7v-2.7h-2.7
							l2.7-5.3l12.9,5.3l8-5.3l-5.3-2.7l2.7-2.7h18.2l-5.3-5.3l12.9-2.7l-2.7-5.3l47-12.9l-5.3-2.7l5.3-2.7h10.6l-8,5.3h5.3l8-5.3
							h-4.9l5.3-5.3l28.8,2.7l31.5-5.3l28.8-10.6l8,2.7l-5.3-8l5.3-2.7l39-10.6l20.8,10.6l-2.7,8l-10.6,12.9l-28.8,8l-65.2,12.9
							l-41.7,20.8l-5.3-2.7l-10.6,10.6h-15.5l15.5,5.3l-10.6,2.7l2.7,2.7h-2.7h-12.9l5.3,2.7v5.3l-12.9-5.3l2.7,2.7l-2.7,8
							l-18.2-5.3l8,5.3l2.7,8h-10.6l2.7,5.3l-5.3-2.7v8l-12.9-8v2.7h-5.3l12.9,8l-2.7,8l-5.3-5.3l-18.2-2.7l15.5,2.7l2.7,2.7
							l2.7,5.3l-5.3,2.7l-12.9-5.3l10.6,8l-8,10.6l-18.2-8v5.3l-18.2-5.3l-5.3,2.7l-10.6,2.7v-2.7h-2.7L1377-282.5z M3124.7,368.1
							l-2.7-8l10.6-2.7v2.7h2.7l5.3-2.7l-2.7-5.3h5.3v-4.9l-2.7,5.3v-8l-5.3-8h2.7l2.7-5.3l8,8l-2.7,10.6l5.3,12.9l2.7,12.9v8
							l-2.7,5.3v-8v5.3l-2.7,12.9l5.3,5.3l-2.7,5.3l2.7-2.7l2.7,2.7l-2.7,5.3l2.7,2.7l8,26.2l18.2,41.7l-15.5-15.5l-12.9-2.7h8
							l-15.5,8l-8,31.5l10.6,15.5l2.7,12.9l5.3-2.7l2.7,10.6l-2.7,8l-2.7-12.9h-10.6l-2.7-5.3l-6.2,4.9l-5.3,18.2l-5.3-12.9
							l2.7-18.2v-12.9l2.7-8l-5.3-20.8l5.3-20.8l-2.7-26.2l5.3-15.5l-12.9-18.2v-12.9l5.3-18.2V368h-0.3V368.1z M1361.5-198.7l8-8
							L1361.5-198.7l-5.3-5.3l2.7-5.3l-10.6,5.3l-8-8l-12.9,5.3l-8-10.6l2.7-10.6h15.5l10.6-18.2l5.3-2.7h-8l10.6-2.7l-18.2-2.7
							l20.8-5.3l-5.3-2.7l5.3-2.7l-5.3-5.3l12.9-5.3h8l15.5-5.3l31.5,10.6l-18.2,8l12.9,2.7l-15.5,2.7l8,5.3l-15.5,8l8,2.7l2.7,8
							l-8,10.6h5.3l15.5,26.2l26.2,18.2l-2.7,2.7l-18.2-5.3l-5.3,5.3l5.3,2.7h-12.9l-10.6-8l-5.3,8l-10.6-8h-2.7l5.3,5.3l-26.2-8
							l8-5.3l-5.3-2.7l12.9-2.7L1361.5-198.7z M3184.6-360.6l-5.3,5.3l5.3,2.7L3174-342l-20.8-2.7l-15.5-10.6l10.6-12.9l-12.9-3.1
							l-5.3,5.3v10.6l10.6,10.6l20.8,5.3l-26.2,5.3l-8-5.3l5.3,2.7l-2.7-5.3l-41.7,8l-8-5.3h-5.3l2.7,8l-8,5.3l-23.5-8l-20.8-20.8
							h10.6l-5.3-2.7l2.7-8h-8l5.3-8l10.6,2.7l-5.3-8l28.8-12.9l31.5,18.2v8h12.9l-5.3-5.3l2.7-10.6h12.9l-5.3-8l23.5,12.9h23.5
							l28.8,10.6l5.3,2.7L3184.6-360.6z M2280.8-522.9h-10.2l15.5,10.6v5.3l-31.5,8l-55-15.5l-10.6,2.7l-12.9-8v-10.6h-12.9h5.3
							l-5.3-2.7l2.7-2.7l-12.9,8l-8-5.3l36.4-12.9l-8-2.7l12.9-10.6h5.3l47-2.7l10.6,5.3l-15.5,15.5l23.5-8l2.7-8l28.8,10.6
							L2280.8-522.9z M2223.6-564.6l-36.4,2.7l-23.5,8l-34.1-8h18.2l-15.5-5.3h23.5l-39-2.7l23.5-2.7l-12.9-2.7l18.2-2.7l10.6-12.9
							h-15.5l10.6-10.6l52.3-12.9l44.3,26.2l-15.5,2.7l-2.7,8l8,8L2223.6-564.6z M2393.5-486.1l-49.7,12.9l-67.9,5.3l12.9-12.9
							l8-18.2h15.5l-8-5.3l2.7-2.7l12.9-2.7l-10.6-2.7l2.7-5.3l12.9-8l8,5.3l-2.7-5.3l5.3-2.7l15.5,5.3l-5.3,2.7l-10.6,18.2
							l10.6-10.6l20.8-2.7l12.9,15.5l10.6-2.7l5.3,10.6L2393.5-486.1z M2819.2-271.9l2.7,5.3l-8,8v12.9v5.3l-2.7,2.7l-28.8-12.9
							l-47-10.6h15.5l5.3-8h5.3l-10.6-10.6l5.3-8h10.6l-2.7-5.3l10.6-2.7l23.5,10.6v5.3l15.5-5.3l-2.7,8l5.3-2.7L2819.2-271.9z
							 M3216.1-365.9l10.6,10.6l28.8-2.7l2.7,2.7l-2.7,2.7l2.7,2.7l47,2.7l-5.3,10.6l-18.2,5.3h-28.8l-44.3-18.2L3216.1-365.9z
							 M747.7,333.9l-60.3-2.7l12.9-5.3h-10.6v-8h10.6l10.6-10.6l-8,10.6h5.3h8v-10.6l28.8,8l5.3,5.3l-2.7,2.7L747.7,333.9
							L747.7,333.9z M2813.9-245.7l2.7-10.6l-2.7-2.7l10.6-8l-5.3-10.6l10.6-8l18.2,2.7l8,5.3l-2.7,2.7l12.9,2.7l-2.7,5.3h5.3
							l-49.7,20.8v5.3l-5.3-2.7L2813.9-245.7L2813.9-245.7z M3109.2-298l28.8,2.7l18.2,12.9v10.6l-55-8l-20.8,2.7l18.2-8L3109.2-298
							z M1225.8-567.2l28.8-2.7l-10.6-2.7l10.6-2.7h-15.5l8-2.7h28.8l10.6-10.6H1271l18.2-8h20.8l2.7,2.7l-12.9,5.3h26.2l-39,10.6
							l2.7,5.3l-5.3,2.7l-15.5-2.7l-2.7,5.3l8,5.3l-12.9,2.7l-15.5,2.7l8-8h-2.7L1225.8-567.2z M1476.3-580.1v-5.3l8-8l44.3-2.7
							l8,5.3l-23.5,18.2L1476.3-580.1z M1254.2-120.7l5.3-10.6l10.6-5.3l28.8,12.9l-31.5,15.5l-12.9-5.3v-7.1L1254.2-120.7
							L1254.2-120.7z M1489.6-141.5l-10.6-8l-8,2.7l-12.9-15.5l8,2.7l-2.7-5.3l8-5.3l28.8,18.2l2.7,5.3L1489.6-141.5z M2821.9-240.4
							l20.8-10.6l31.5,8l2.7,5.3l-2.7,2.7h5.3l-15.5,8l-26.2-15.5L2821.9-240.4z M1541.5-593.4l31.5-8l8-8l12.9,2.7l5.3,10.6
							l-44.3,10.6L1541.5-593.4z M1212.5-574.8v-5.3l-23.5-2.7l47-10.6h20.8l10.6,8l-20.8-5.3l-8,5.3v5.3L1212.5-574.8z M2544.7-306
							l-26.2-8l8-2.7l2.7-8l26.2,2.7l2.7,5.3L2544.7-306z M1687.9-263.9l2.7-8l-2.7-8l12.9-2.7l12.9,2.7l-5.3,5.3l10.6-2.7l5.3,5.3
							L1687.9-263.9z M1379.7-600.9h34.1l31.5,10.6l-12.9,5.3L1379.7-600.9z M2111.4-556.6l55,8l-39,10.6l8-5.3l-23.5-2.7l2.7-5.3
							L2111.4-556.6z M3673.3-144.2l-2.7,5.3h-8l-20.8-8l10.6-8l20.8,5.3L3673.3-144.2L3673.3-144.2z M1442.6-559.3l-5.3-2.7v-10.6
							l-8-5.3h26.2l20.8,8h-18.2l-5.3,5.3l5.3,2.7L1442.6-559.3z M3553.1,213.7l8-5.3l2.7-8h-2.7l15.5-5.3l2.7,5.3v5.3l-23.5,10.6
							L3553.1,213.7z M3224.1,592.5l5.3-10.6l15.5-10.6V566l2.7,5.3l15.5-5.3v2.7l-20.8,10.6l-2.7-2.7L3224.1,592.5z M3095.9-298
							l-8-5.3v-5.3l12.9-5.3l8,5.3l-2.7,8L3095.9-298z M1826.2-238.2l15.5-10.6l15.5,5.3l-12.4,5.3H1826.2z M3030.7,323.7l8-12.9
							l12.9,5.3l-10.6,10.6l-5.3-8L3030.7,323.7z M1405.8-559.3l5.3-2.7v-8h20.8v12.9L1405.8-559.3z M1400.5-611.6v-5.3l20.8,5.3
							l-2.2-8l28.8,5.3l-26.2,5.3L1400.5-611.6z M3391.3,449.2v-5.3l8-2.7l10.6-10.6v5.3l-5.3,8L3391.3,449.2z M1350.8-188.5
							l-15.5-12.9l10.6-2.7l8,5.3l-2.7,8l2.7,2.7h-3.1V-188.5z M1863.1-259l10.6-8l8,12.9h-15.5l-2.7-2.7v-2.2L1863.1-259
							L1863.1-259z M2996.6-355.7l5.3-20.8l8,10.6l-5.3,8L2996.6-355.7z M3210.8,590.2l8,2.7l-12.9,5.3l-8,12.9l-2.7-2.7
							L3210.8,590.2z M1452.8-616.9l-28.8-5.3l20.8-5.3l15.5,8L1452.8-616.9z M3610.8,307.7l8,18.2l-15.5-18.2H3610.8z M1685.2-31.5
							l-12.9-10.6l18.2,2.7l2.7,5.3L1685.2-31.5z M1338-564.6l10.6-8l20.8,5.3L1338-564.6z M2108.7-603.6l-20.8-5.3l28.8-2.7
							l5.3,5.3L2108.7-603.6z M2215.6-386.7l-20.8-2.7l20.8-5.3l5.3,2.7v5.3l-5.3-5.3V-386.7z M1413.8-606.3l41.7,10.6l-12.9,2.7
							L1413.8-606.3z M3276.4,561.4l8-10.6l12.9-2.7l-10.6,8L3276.4,561.4z M3514.1-112.7l2.7-5.3l-8-2.7v-12.9l5.3-2.7l-2.7,10.6
							l5.3,10.6L3514.1-112.7z M2834.7-251l18.2-5.3l20.8,5.3L2834.7-251L2834.7-251z M1491.9-600.9l31.5-2.7l-12.9,8L1491.9-600.9z
							 M1293.6-553.9l18.2-5.3l8,8L1293.6-553.9z M1873.3-598.3h26.2l-26.2,8l-5.3-2.7L1873.3-598.3z M2218.3-431.1l-5.3,8h-18.2
							L2218.3-431.1z M1452.8-632.4l-5.3-2.7l2.7-2.7l28.8-2.7L1452.8-632.4z M1933.6-360.6l-2.7,2.7l5.3,2.7h-5.3v8l-10.6-8
							L1933.6-360.6z M2437.8-467.9l-18.2-5.3h20.8l2.7,2.7L2437.8-467.9z M2539.8-400l-12.9-8h12.9l2.7,5.3L2539.8-400z
							 M1951.7-167.7l2.7-15.5l5.3,2.7l-5.3,2.7v8L1951.7-167.7z M1466.1-553.9l12.9-5.3l8,5.3H1466.1z M1784.6-263.9l-2.7,5.3
							l-10.6-5.3H1784.6z M2030.2-339.7v2.7h-8l2.7,2.7l-10.6-2.7L2030.2-339.7z M1097.6,25.7l2.7,5.3h-5.3l-5.3-2.7L1097.6,25.7z
							 M2996.6-310.9l15.5,12.9h-2.7L2996.6-310.9z M3378,470.1l2.7-5.3l2.7-5.3v10.6L3378,470.1L3378,470.1z M1288.3-556.6
							l-5.3-5.3h15.5L1288.3-556.6z M3514.1-130.9v-8h5.3v5.3L3514.1-130.9z M1366.8-577.4l5.3-5.3l8,8L1366.8-577.4z M2006.7-318.9
							l-5.3-2.7l5.3-2.7l8,2.7L2006.7-318.9z M2688.4-263.9l-8-2.7l10.6-2.7v5.3h-2.6V-263.9z M3020.1,318.4l10.6-5.3l-2.7,5.3
							H3020.1z M3414.8,433.3l-5.3-2.7l5.3-2.7V433.3z M1298.9-600.9l2.7-8l8,2.7L1298.9-600.9z M1008.9,10.2l-2.7,8l-5.3-5.3
							L1008.9,10.2z M2435.1-433.7h-2.7l5.3-5.3l5.3,5.3H2435.1z M2411.6-473.2l-2.7-5.3h15.5L2411.6-473.2z M2071.9-431.1l2.7-5.3
							l8,2.7L2071.9-431.1z M-3152.7,25.7l5.3-5.3l5.3,2.7L-3152.7,25.7z M1941.5-308.7l2.7,2.7l-2.7,2.7l-5.3-2.7L1941.5-308.7z
							 M2223.6-389.4l2.7-8l5.3,2.7L2223.6-389.4z M1356.2-577.4v-5.3l-2.7-2.7l8,8H1356.2z M684.7,331.3l5.3-5.3l-2.7,2.7
							L684.7,331.3z"/>
						
							<path fill="#DDDDDD" stroke="#FFFFFF" stroke-width="1" stroke-linecap="round" stroke-linejoin="round" stroke-miterlimit="10" d="
							M520.2,203.5h5.3l2.7-5.3l-2.7-12.9l5.3-2.7l-2.7-5.3l12.9-8l2.7-12.9l-8-12.9l10.6-2.7l2.7-10.6l-12.9-10.6l2.7-15.5
							l-5.3-10.6V82.9l2.7-2.7l-5.3-8l5.3-10.6l15.5-15.5l20.8,2.7l2.7-5.3V32.8l-10.6-2.7l18.2-23.5l2.7-18.2l-2.7-8l18.2-5.3
							l-2.7-8L619.1-51v-8l-5.3-5.3l12.9-15.5l10.6-8l12.9,5.3l5.3-8l-2.7-10.6l36.4,5.3l5.3-5.3l-5.3-2.7l8-8l-2.7-8l8-2.7
							l28.8,20.8l15.5,2.7L765-83.4l-5.3,2.7v12.9l8,2.7l-5.3,8l8,12.9L765-28.9l10.6,15.5L752.1-8l-8-8v5.3l-5.3-2.7l-2.7,8
							l2.7,2.7L726-8l10.6,5.3l-15.5,5.3l2.7,5.3l-8-5.3l8,8l-10.6,10.6l5.3,2.7l-5.3,2.7l10.6,8l-12.9,8l-2.7,12l-20.8,13.3l-8-5.3
							l-5.3,12.9l-5.3-2.7l-10.6,8h5.3l-7.1,8l-10.6-8l8,12.9l-15.5,2.7l8,8L641,115l2.7,8l-8-2.7l2.7,2.7l-2.7,2.7l2.7,5.3h-2.7
							v12.4l2.7,8l8,5.3l5.3-2.7l12.9,10.6H659l2.7,2.7l8,2.7l5.3,5.3l-5.3,2.7l5.3,2.7l-18.2,10.6l-2.7,2.7l-2.7-2.7h-2.7V186
							l-2.7-2.7v5.3l-5.3-5.3v5.3l-15.5-2.7l-12.9,2.7l18.2,2.7l-2.7-2.7h2.7l8,8l15.5-2.7l8-2.7l2.7,2.7h-5.3v5.3l-8,8l-5.3-8v5.3
							l-5.3,5.3l-23.5,5.3l12.9,2.7h-10.6l8,5.3l2.7,5.3l-5.3,5.3l2.7,2.7l-5.3-2.7l5.3,5.3l-8-2.7l8,5.3l-2.7,8l-2.7,5.3l2.7,5.3
							l-13,23.6l-2.7,2.7h-23.5l2.7,2.7h-5.3l-5.3,5.3l2.7,8l-5.3,5.3l-15.5,2.7l-8-2.7v-5.3l2.7-2.7l-12.9-18.2l8,2.7l-5.3-5.3h8
							l-2.7-8l-10.6-5.3l-5.3-15.5H531v-8h-5.3l5.3-15.5l-2.7-2.7l-5.3,2.7l-5.3-5.3l-2.7-18.2h2.7v-2.7L520.2,203.5z M671.9,235
							l-5.3,18.2L656,263.8v-5.3l-2.7-12.9l12.9-10.6H671.9L671.9,235z M622.2,282l-2.7-10.6l15.5-20.8L622.2,282z M528.2,224.4
							l-5.3,5.3l2.7-5.3v-2.7L528.2,224.4L528.2,224.4z"/>
						
							<polygon fill="#DDDDDD" stroke="#FFFFFF" stroke-width="1" stroke-linecap="round" stroke-linejoin="round" stroke-miterlimit="10" points="
							322,634.6 326.8,634.6 326.8,637.3 322,639.9 						"/>
						
							<path fill="#DDDDDD" stroke="#FFFFFF" stroke-width="1" stroke-linecap="round" stroke-linejoin="round" stroke-miterlimit="10" d="
							M442.1,608.4h-2.7H442.1z"/>
						
							<polygon fill="#DDDDDD" stroke="#FFFFFF" stroke-width="1" stroke-linecap="round" stroke-linejoin="round" stroke-miterlimit="10" points="
							661.2,637.3 645.7,629.3 643,626.6 645.7,623.9 637.7,613.7 614.2,597.8 614.2,590.2 606.7,582.3 609.3,571.6 611.6,571.6 
							616.9,576.9 622.2,571.6 630.2,571.6 648.4,576.9 663.9,574.3 671.9,579.6 679.9,579.6 674.5,592.5 684.7,600.4 677.2,600.4 
							682.1,608.4 677.2,613.7 671.9,613.7 674.5,621.3 671.9,616.4 666.5,618.6 661.2,626.6 663.9,634.6 						"/>
						
							<path fill="#DDDDDD" stroke="#FFFFFF" stroke-width="1" stroke-linecap="round" stroke-linejoin="round" stroke-miterlimit="10" d="
							M643,626.6L630.2,616l-18.2-2.7V608l-15.5-10.6l8-2.7l-10.6-8l-5.3-12.9l-5.3-5.3H578l-8,12.9l-5.3-8v-10.6h15.5l5.3-2.7
							l2.7,5.3h8l2.7-8l8-2.7v-10.6l10.6-8l8,2.7l20.8,15.5l15.5,2.7l8-5.3l2.7,5.3l-2.7,5.3h5.3l-2.7,2.7l8,5.3H675l-2.7,8l-8-5.3
							l-15.5,2.7l-18.2-5.3h-8l-5.3,5.3l-5.3-5.3h-2.7l-2.7,10.6l8,8v8l23.5,15.5l8,10.6L643,626.6z M661.2,639.9L632.4,627
							l12.9,2.7l15.5,8v2.2H661.2z M588.1,579.6l-8-5.3l2.7-2.7L588.1,579.6z M624.9,618.6h-5.3l8-2.7l2.7,2.7H624.9z M630.2,629.3
							l-5.3-2.7l10.6,2.7H630.2z"/>
						
							<path fill="#DDDDDD" stroke="#FFFFFF" stroke-width="1" stroke-linecap="round" stroke-linejoin="round" stroke-miterlimit="10" d="
							M444.4,605.8l2.7-8l-15.5-2.7l-2.7-8l5.3-5.3l-8-8l8-2.7l2.7-5.3l-8-8l5.3-5.3h15.5l10.6-12.9l2.7,5.3l10.6,10.6l5.3-15.5
							l5.3,5.3l8-2.7l2.7,2.7v-7.5h8v-8l10.6,2.7l2.7-5.3l20.8-2.7v5.3l5.3,5.3l26.2,5.3l-8,5.3l5.3,2.7l-2.7,2.7l8,10.6h-2.7
							l-2.7-2.7h-8l-2.7,2.7l-15.5,5.3l-2.7,5.3l8,5.3l-5.3,8v10.6l26.2,15.5l8,23.5l15.5,12.9l8,5.3h18.2l2.7,2.7l-8,5.3l2.7,2.7
							l41.7,18.2l8,12.9l-2.7,8l-5.3-2.7l-5.3-8l-8-2.7l-5.3-2.7h2.7h-8l-8,15.5l12.9,10.6v8l-10.6,5.3v8l-10.6,12.9l-10.6-2.7v-5.3
							l8-5.3l-2.7-5.3l8-5.3l-10.6-26.2h-7.5l-8-5.3l-2.7-10.6l-8,2.7v-5.3h-5.3l-8-10.6h-12.4L525.7,642l-10.6-2.7v-2.7L504.5,626
							l-10.9-26l-26.2-10.6l-20.8,15.5h-2.2V605.8z M543.7,603.1H541H543.7z M596,749.5l-2.7,10.6l5.3,8l-5.3,8L557,757.9l-10.6-2.7
							l-5.3-5.3l5.3-8l5.3,2.7l8-5.3l8,5.3l36.4-8l2.7,2.7L596,749.5z M455,681.6l2.7-5.3l8,2.7l12.9-10.6l5.3,2.7l2.7,2.7l-2.7,2.7
							l5.3,8l-2.7,8v5.3l-2.7,20.8l-10.6-2.7l-2.7,8h-4.9l-2.7-2.7h-2.7v-8l2.7-10.6l-2.7-2.7l2.7-10.6L455,681.6z"/>
						
							<path fill="#DDDDDD" stroke="#FFFFFF" stroke-width="1" stroke-linecap="round" stroke-linejoin="round" stroke-miterlimit="10" d="
							M543.7,603.1H541H543.7z"/>
						
							<path fill="#DDDDDD" stroke="#FFFFFF" stroke-width="1" stroke-linecap="round" stroke-linejoin="round" stroke-miterlimit="10" d="
							M541,652.8"/>
						
							<polygon fill="#DDDDDD" stroke="#FFFFFF" stroke-width="1" stroke-linecap="round" stroke-linejoin="round" stroke-miterlimit="10" points="
							502,529.9 499.4,527.3 494,529.9 483.8,524.6 483.8,519.7 486.5,517.1 483.8,514.4 491.4,514.4 496.7,517.1 496.7,519.7 
							502,511.7 514.9,517.1 546.4,509.1 551.7,514.4 554.3,511.7 551.7,509.1 551.7,506.4 546.4,498.4 559.7,493.6 562.3,488.2 
							567.2,488.2 569.9,482.9 585.8,488.2 593.4,474.9 614.2,482.9 622.2,480.3 630.2,485.6 630.2,493.6 635.1,501.1 632.8,509.1 
							622.2,509.1 627.5,514.4 622.2,517.1 622.2,527.3 614.2,529.9 590.7,537.9 583.2,543.2 567.2,540.6 541,535.3 536.2,529.9 
							536.2,524.6 514.9,527.3 512.7,532.6 						"/>
						
							<polygon fill="#DDDDDD" stroke="#FFFFFF" stroke-width="1" stroke-linecap="round" stroke-linejoin="round" stroke-miterlimit="10" points="
							669.2,462.1 663.9,464.7 645.7,480.3 635.1,480.3 630.2,485.6 622.2,480.3 614.2,482.9 593.4,474.9 585.8,488.2 569.9,482.9 
							546.4,464.7 541,459.4 543.7,451.4 533.5,441.2 538.4,443.9 543.7,441.2 551.7,438.6 577.9,427.9 577.9,423.1 588.1,427.9 
							596,423.1 598.7,430.6 619.5,433.3 622.2,435.9 616.9,438.6 624.9,446.6 632.8,443.9 630.2,438.6 645.7,441.2 645.7,446.6 
							663.9,451.4 						"/>
						
							<path fill="#DDDDDD" stroke="#FFFFFF" stroke-width="1" stroke-linecap="round" stroke-linejoin="round" stroke-miterlimit="10" d="
							M465.7,318.4v-5.3H463h2.7v-8l-10.6-5.3v-10.2l2.7,2.7h2.7l-2.7-5.3H455v-18.2l12.9,5.3l-2.7-2.7l8-5.3v5.3l5.3,2.7l-2.7-10.6
							l10.6-5.3h5.3l5.3,2.7h2.7v5.3l-10.6,2.7h10.6l-2.7,5.3l2.7-2.7l12.9,5.3l-5.3,8H502l-2.7-2.7l2.7-2.7l-5.3,5.3v8h-8h5.3
							l-2.7,5.3h-8l5.3,2.7l-2.7,2.7l-2.7,2.7l2.7,5.3l-5.3,2.7l8,5.3l-8,2.7L465.7,318.4z M543.7,292.2v5.3l-8,5.3l5.3,5.3l-8,2.7
							l2.7,2.7l-2.7,2.7l-5.3-2.7v-2.7h-10.6l-2.7-12.9l-5.3-2.7h10.6l2.7-2.7l-5.3-2.7h10.6l-2.7,2.7l2.7,5.3l2.7-8l2.7,5.3v-5.8
							h-2.7l8-5.3l5.3,2.7V292.2z M491.4,258.5h-15.5l-10.6,2.7l-5.3,8h5.3l-2.7,2.7l-5.3-2.7v-5.3l8-8h8h8l10.6-12.9l12.9-2.7
							L502,243v10.6l-2.7,8L491.4,258.5z M486.5,302.9l5.3-2.7h8l2.7,2.7l2.7-2.7l2.7,12.9h-11.1L486.5,302.9L486.5,302.9z
							 M512.7,321.1l5.3-2.7h8l5.3,5.3l-8,2.7L512.7,321.1z M530.8,318.4l5.3,2.7l-5.3,8l-5.3-10.6h5.3V318.4z M593.4,315.7l-8-2.7
							l2.7-5.3l8,5.3L593.4,315.7z M491.4,315.7l2.7,2.7l-2.7,2.7l-5.3-5.3L491.4,315.7L491.4,315.7z M465.7,268.7L463,266l8-5.3
							L465.7,268.7z M507.3,323.7v-5.3l5.3-8L507.3,323.7z M536.2,318.4l2.7-2.7l5.3,2.7H536.2z"/>
						
							<polygon fill="#DDDDDD" stroke="#FFFFFF" stroke-width="1" stroke-linecap="round" stroke-linejoin="round" stroke-miterlimit="10" points="
							742.4,474.9 724.2,464.7 710.9,470.1 700.7,467.4 692.7,472.7 687.4,472.7 687.4,464.7 682.1,462.1 674.5,467.4 669.2,462.1 
							663.9,451.4 645.7,446.6 645.7,441.2 630.2,438.6 632.8,443.9 624.9,446.6 616.9,438.6 622.2,435.9 619.5,433.3 598.7,430.6 
							596,423.1 588.1,427.9 593.4,417.7 585.8,402.2 588.1,396.9 583.2,386.2 585.8,383.6 575.2,376 580.5,368.1 577.9,352.5 
							583.2,352.5 585.8,349.9 577.9,347.2 577.9,344.6 616.9,336.6 622.2,329 651,321.1 666.5,323.7 661.2,323.7 663.9,331.3 
							669.2,333.9 684.7,331.3 677.2,336.6 687.4,331.3 747.7,333.9 757.9,336.6 763.2,344.6 771.2,378.7 755.2,388.9 765.9,396.9 
							763.2,409.7 773.9,427.9 771.2,430.6 773.9,435.9 745,462.1 745,472.7 750.4,474.9 						"/>
						
							<polygon fill="#DDDDDD" stroke="#FFFFFF" stroke-width="1" stroke-linecap="round" stroke-linejoin="round" stroke-miterlimit="10" points="
							564.5,564.1 567.2,561.4 569.9,561.4 562.3,550.8 564.5,548.1 559.7,545.5 567.2,540.6 583.2,543.2 590.7,537.9 614.2,529.9 
							619.5,529.9 624.9,540.6 616.9,537.9 606.7,545.5 606.7,556.1 598.7,558.8 596,566.7 588.1,566.7 585.8,561.4 580.5,564.1 
													"/>
						
							<polygon fill="#DDDDDD" stroke="#FFFFFF" stroke-width="1" stroke-linecap="round" stroke-linejoin="round" stroke-miterlimit="10" points="
							342.8,423.1 361,415.1 361,417.7 371.6,417.7 376.5,415.1 379.2,417.7 376.5,415.1 392.5,412.4 397.4,417.7 410.7,420.4 
							405.3,427.9 413.3,430.6 418.6,433.3 420.9,441.2 416,446.6 413.3,446.6 408,451.4 410.7,459.4 408,462.1 402.7,462.1 
							389.8,456.8 389.8,446.6 381.8,451.4 376.5,451.4 376.5,443.9 358.3,435.9 355.7,430.6 345.5,427.9 						"/>
						
							<path fill="#DDDDDD" stroke="#FFFFFF" stroke-width="1" stroke-linecap="round" stroke-linejoin="round" stroke-miterlimit="10" d="
							M251.5,521.9l-8-2.7l2.7-5.3h-10.6l2.7-2.7h-8v2.7l-2.7-2.7l-12.9-8l-8,2.7l-8-5.3l8-2.7h-5.3v-4.4h-2.7v-5.3l8-2.7h15.5v-5.3
							h5.3l10.6,8l8-2.7l8,2.7v-2.7H267l-5.3-2.7v-12.9l-8-12.9l12.9,2.7l5.3,8l15.5,2.7l12.9-5.3l-5.3-2.7v-2.7l26.2-12.9l2.7-18.2
							l18.2-5.3l2.7,5.3l10.6,2.7l2.7,5.3l18.2,8v8h5.3l8-5.3v10.6l12.9,5.3h5.8l12.9,2.7l5.3,8H442l15.5,5.3l-8,10.6l-5.3,10.6
							v12.9l-5.3,5.3l-8-2.7v5.3l-15.5,18.2v8l-2.7,2.7h2.7l2.7-5.3l8-2.7l2.7,8l5.3,5.3l-5.3,5.3l8,8l-2.7,5.3l-8,2.7l8,8l-5.3,5.3
							l2.7,8l15.5,2.7l-2.7,8l-2.7,2.7h-2.7L426,622v2.7l-10.6,2.7l-20.8-5.3l2.7-5.3H392l-2.7,2.7l-2.7-5.3v5.3l-15.5-2.7
							l-15.5,10.6l-2.7,5.3l2.7,10.6l-23.5,2.7l-5.3-5.3V638h-5.3l-15.5-5.3v5.3l-23.5-2.7l-5.3-5.3l-12.9-2.7V622l-8-2.7l8-5.3
							l5.3-23.5l2.7-2.7H267l5.3-20.8l10.6,15.5l-5.3-12.9l-8-8l2.7-5.3l-2.7-8l-12.9-5.3l-5.3-8l2.7-5.3l-4.9-5.3L251.5,521.9z
							 M465.7,650.1v-12.9l12.9-2.7v-8h2.7l2.7,20.8l-8,18.2l-8-5.3l2.7-2.7l-2.7-2.7v-2.7h-2.2v-2H465.7z"/>
						
							<path fill="#DDDDDD" stroke="#FFFFFF" stroke-width="1" stroke-linecap="round" stroke-linejoin="round" stroke-miterlimit="10" d="
							M481.2,321.1l10.6,2.7l2.7,5.3l-5.3,2.7l23.5,2.7l2.7,5.3l-8,2.7l2.7,4.9l5.3-2.7l5.3,2.7l23.5-15.5h8l-11.1,2.2v2.7l12.9-5.3
							l8,10.6l5.3-2.7v8l10.6,5.3l2.7,15.5l-5.3,8l10.6,8l-2.7,2.7l5.3,10.6l-2.7,5.3l8,15.5l-5.3,10.6l-10.6-5.3v5.3l-26.2,10.6
							l-8,2.7l-5.3,2.7l-5.3-2.7l10.6,10.6l-2.7,8l5.3,5.3l23.5,18.2l-2.7,5.3h-5.3l-2.7,5.3l-12.9,5.3l5.3,8v2.7l2.7,2.7l-2.7,2.7
							l-5.3-5.3l-31.5,8l-12.9-5.3l-5.3,8V519l-5.3-2.7h-8l-20.8-8l-2.7,2.7l5.3,2.7h-20.8v-12.9l5.3-10.6l8-10.6l-15.5-5.3h-15.5
							l-5.3-8l2.7-10.6h-5.3l-2.7-8l5.3-5.3l-2.7-8l-5.3-2.7v-5.3l-2.7-2.7l5.3-2.7l2.7-8l-5.3-10.6l15.5-2.7L426,397l8-5.3v-5.3
							l-8-2.7l8-2.7l2.7-15.5l2.7-2.7l-5.3-2.7l5.3-8h12.9l2.7,5.3l2.7,2.7l2.7-5.3h2.7v-2.7l2.7-4.9h8h5.3l10.6,8l-10.6-8l-8-2.7
							l2.7-2.7l-5.3-2.7l2.7-2.7l-5.3-2.7l8-5.3l-10.6-8l-5.3,2.7l2.7-8v2.7h5.3L481.2,321.1z M557,336.6l-2.7-2.7h2.7l-2.7-5.3h8
							l-5.3-2.7l8,2.7v2.7l2.7,5.3H557z M577.9,347.2h-8l2.7-2.7l-5.3-5.3l10.6,5.3V347.2z M467.9,509.1h-2.2H467.9z"/>
						
							<polygon fill="#DDDDDD" stroke="#FFFFFF" stroke-width="1" stroke-linecap="round" stroke-linejoin="round" stroke-miterlimit="10" points="
							483.8,524.6 481.2,524.6 483.8,519.7 						"/>
						
							<polygon fill="#DDDDDD" stroke="#FFFFFF" stroke-width="1" stroke-linecap="round" stroke-linejoin="round" stroke-miterlimit="10" points="
							420.9,464.7 408,462.1 410.7,459.4 408,451.4 413.3,446.6 416,446.6 418.6,454.1 423.5,454.1 						"/>
						
							<path fill="#DDDDDD" stroke="#FFFFFF" stroke-width="1" stroke-linecap="round" stroke-linejoin="round" stroke-miterlimit="10" d="
							M502,529.9v8h-8v8l-2.7-2.7l-8,2.7l-5.3-5.3l-5.3,15.5l-10.6-10.6l-2.7-5.3L448.8,553h-15.5l-5.3-5.3l-2.7-8l-8,2.7l-2.7,5.3
							H412l2.7-2.7v-7.1l15.5-18.2v-5.3l8,2.7l5.3-5.3h20.8l-5.3-2.7l2.7-2.7l20.8,8l2.7,2.7l-2.7,2.7l-2.7,5.3h2.7l10.6,5.3
							l5.3-2.7L502,529.9z M467.9,509.1h-2.2H467.9z"/>
						
							<path fill="#DDDDDD" stroke="#FFFFFF" stroke-width="1" stroke-linecap="round" stroke-linejoin="round" stroke-miterlimit="10" d="
							M376.5,415.1l-5.3,2.7h-10.6v-2.7H376.5z M405.3,388.9l-5.3,2.7l-5.3-5.3l10.6-5.3l2.7,2.7h2.7L405.3,388.9z M436.8,365.4
							l-2.7,15.5l-8,2.7l8,2.7v5.3l-8,5.3l2.7,2.7l-15.5,2.7l5.3,10.6l-2.7,8l-5.3,2.7l2.7,2.7v5.3l-8-2.7l5.3-8l-12.9-2.7l-5.3-5.3
							l-15.5,2.7l-15.5-5.3l8-2.7l10.6,5.3l-5.3-2.7l2.7-2.7l-5.3-5.3l12.9-15.5l15.5,5.3l10.6-8v-2.7h-5.3l2.7-5.3l-8-2.7V368
							l-5.3,5.3l5.3,5.3l-5.3,2.7h-2.7l2.7,5.3l-10.6-2.7l2.7-10.6h8l18.2-12.9l15.5-2.7L436.8,365.4z"/>
					</g>
					<g>
						<path fill="#A23520" stroke="#FFFFFF" stroke-linecap="round" stroke-linejoin="round" stroke-miterlimit="10" d="M212,235
							h5.3l-12.9,8l47-2.7l5.3,8l-12.9,23.5l-15.5,8l8-2.7l5.3,5.3l-20.8,5.3l12.9,2.7l8-2.7l20.8,12.9l5.3,23.5l23.5,15.5l-2.7,5.3
							l8,10.6h-5.3l8,5.3l2.7,8l-8,5.3l8,2.7l2.7-5.3h8l15.5,8v8l-2.7,10.6l-6.2,1.3l-2.7-2.7l2.7,5.3l-13.3,2.2h5.3v2.7l-10.6,5.3
							l20.8,2.7v5.3l-2.2,2.7l-20.8,8l-26.2-2.7l-28.8,7.5l-8-5.3l-10.2,5.3l-5.3,8l-12.9-2.7l-15.5,5.3l-2.7,5.3l-5.3-5.3l-5.3,2.7
							l20.8-12.9l10.6-15.5l23.5-2.7l12.9-12.9l-20.8,11l-8-8.9l-8,2.7l2.7-2.7l-10.6-2.7l-8,5.3l-2.7-2.7l5.3-2.7h-8h2.7L188,399
							l20.8-10.6v-15.5l-10.6,2.7l10.6-10.6l28.8-5.3h-5.3l-2.7-5.3l5.3-2.7l-2.2-4.4l5.3-10.6l-10.6,5.3l-8-12.9l5.3-10.6l8-2.7
							h-10.6l-8,8l-10.6-5.3v8l-8-5.3h-2.7l2.7,5.3l-8-10.6l12.9-12.9l-8-5.3l2.7-8h8h-8v-5.3l-2.7,8h-8l8-10.6l-8,5.3l-2.7,18.2
							l-5.3,2.7l2.7-28.8l10.6-8l-5.3,2.7l5.3-8l-10.6,8l-6.2-2.2l10.6-2.7H168l12.9-5.3h-5.3l8-2.7l-5.3-5.3h8H181l5.3-2.7
							l-5.3-2.7l2.7-2.7l-5.3,2.7l-2.7-8l8,2.7l-5.3-2.7V237l12.9-2.7l-8-5.3h5.3l-2.7-5.3h5.3l-2.7-2.7l5.3-8h5.3v5.3l2.7-5.3
							l31.5-2.7l-2.7,8l-2.7,5.3L212,235z M149.5,313.1l23.5-2.7l8,10.6l-5.3,5.3h5.3l2.7,5.3v2.2l-5.3-5.3l5.3,8l-10.6,5.3h-5.3h-8
							l-8-10.6l-5.3,8H141l-10.6-8l8-5.3l-5.3-2.7h8L149.5,313.1z M152.1,232.4v-8l5.3,2.7v-5.3l10.6-5.3l2.7,2.7l-2.7,5.3h2.7
							l-11.1,5.3l5.3-2.7v5.3h-5.3v-2.7v5.3l-5.3,5.3l-2.7-5.3h5.3L152.1,232.4z M159.7,247.9v-5.3l5.3,2.7l2.7-5.3l2.7,10.6
							l10.6,2.7l-8,5.3v-2.7h-5.3l-5.3-5.3h5.3L159.7,247.9z M269.6,166.7l-2.7,10.6l-2.7-2.7l2.7-10.6l-2.7,2.7l-5.3-2.7l8-2.7
							l-5.3-2.2l5.3-5.3v5.3h5.3L269.6,166.7z M170.3,268.7l10.6,8L168,282l5.3-5.3h-2.7l2.7-2.7H168L170.3,268.7z M235.5,206.2
							l-8-2.7l-2.7-5.3h8L235.5,206.2z M167.6,300.2v-5.3h-5.3l8-5.3l2.7,8L167.6,300.2z M206.7,368.1l-5.3-8l10.6,2.7L206.7,368.1z
							 M149.5,258.5l-2.7-2.7l-2.7-8l5.3,2.7L149.5,258.5L149.5,258.5z M149.5,245.2l-8-2.7l8-2.7l2.7,2.7L149.5,245.2z M173,294.9
							v-5.3l5.3-5.3L173,294.9z M267,435.9l-5.3-2.7l8-2.7L267,435.9z M188.5,305.5l-2.7-8h5.3L188.5,305.5z M272.3,159.2l-2.7-5.3
							l2.7-2.7V159.2z"/>
						<path fill="#999999" stroke="#FFFFFF" stroke-miterlimit="10" d="M-1047.1,571.6l2.7,5.3l-2.7,2.7l2.7,2.7l-2.7,2.7l-23.5,5.3
							l-5.3,5.3l-5.3-2.7v-5.3l-2.7,2.7l-2.7,10.6l-2.7,2.7l-2.7-2.7l-2.7,5.3l-2.7-5.3l-2.7,5.3v-5.3l-2.7,8v-2.7l-5.3,2.7v2.7
							l-10.6,12.9l-2.7,8l5.3,2.7l-10.6,8l8,2.7v5.3l8,8l5.3-2.7l-5.3-8h5.3l2.7,10.6l-15.5,2.7v-5.3l-10.6,8l2.7-8l-5.3,2.7v-2.7
							l-2.7,10.6l-28.8,2.7l-20.8,10.6v-2.7l-5.3,10.6h5.3v2.7l-2.7,12.9v-5.3l-8,15.5l-10.6,10.6l2.7-5.3l-10.6-5.3l-2.7-5.3
							l10.6-10.6l-10.6,8l10.6,28.8l-18.2,28.8h-2.7l2.7-8l5.3-10.6h-5.3l2.7-10.6l-5.3,5.3l-5.3-8h8l-8-2.7v-2.7h5.3l-2.7-5.3
							l-2.7,2.7l5.3-5.3l-2.7,2.7v-8l8-5.3h-2.7l-10.6,5.3v2.7h-2.7l2.7,5.3l-2.7,8l2.7,8l-5.3-8v5.3l8,2.7v8l-15.5-10.6h-2.7l5.3-8
							l-2.7-2.7v5.3l-5.3,5.3l23.5,12.9l-2.7,5.3l-15.5-10.6l15.5,12.9l2.7,5.3h-5.3l-5.3-2.7l8,10.6l-8-5.3l-10.6-2.7l18.2,10.6
							v-2.7l5.3,2.7l10.6,23.5l-8-20.8v5.3h-2.7l5.3,10.6l-2.7-5.3v2.7l-5.3-2.7l2.7,2.7l-10.6,5.3l-2.7-5.3v5.3h12.9l-2.7,5.3
							l2.7,2.7l5.3-8l2.7,5.3l-10.6,8h-5.3l-2.7-2.7l-2.7,2.7l-8-2.7l12.9,5.3l-5.3,5.3l-8-2.7l8,5.3l8-2.7l-2.7,8l-18.2,2.7
							l-2.7-2.7l2.7,2.7l-8,5.3l-2.7,10.6l-2.7-5.3v5.3h-10.6l-12.9,12.9l-2.7-2.7l2.7,5.3l-5.3,2.7l-8,5.3h-2.7v2.7l-8,5.3h-5.3
							l2.7,2.7l-2.7,2.7l-5.3-5.3l5.3,5.3l-10.6,15.5h-2.7h2.7l-8,15.5l2.7,12.9l8,20.8l8,12.9l-5.3-2.7l2.7,8l15.5,34.1l-8,34.1
							l-15.5,2.7v-5.3l5.3,2.7l-8-12.9l-8-2.7l-5.3-10.6l2.7-5.3l-5.3,5.3v-10.6h-2.7v2.7l-2.7-2.7l-5.3-10.6l2.7-10.6l-5.3-2.7
							l2.7,5.3l-2.7,2.7l-2.7-2.7l5.3-18.2l-5.3-10.6l-5.3-2.7l-18.2-18.2l-26.2,8v-2.7l-5.3-5.3h5.3l-8-5.3l-2.7,2.7l2.7,2.7
							l-12.9-5.3h5.3l-2.7-2.7l-18.2,2.7l5.3-2.7l-5.3-2.7l-8,5.3l2.7-2.7l-2.7,2.7l-8,2.7l5.3-2.7l-5.3-8l-2.7,8l-18.2-2.7l-10.6,8
							l-12.9-5.3l-5.3,2.7l5.3,5.3l10.6-5.3l-2.7,5.3l2.7,2.7l5.3-5.3v8l-8,2.7l15.5,10.6l-8,5.3l2.7-5.3h-2.7l-15.5-10.6l2.7,5.3
							v5.3h-2.7l-5.3-5.3l-5.3,5.3l-10.6-2.7l2.7-2.7l-15.5-10.6l-5.3,2.7v2.7l-2.7,2.7l-18.2-5.3h-12.9v-5.3l-2.7,2.7l2.7,2.7
							l-18.2,8l5.3-5.3h-5.3v-2.7h-5.3l2.7,8l-5.3,8l-20.8,10.6l5.3-2.7h-12.9l5.3,5.3l-5.3,2.7l-5.3-2.7l2.7,2.7l-8,2.7v2.7h2.7
							l-5.3,5.3h-5.3l5.3,2.7l-2.7,8l-8-2.7l2.7,5.3l5.3-2.7l-2.7,10.6l8,18.2l-5.3,2.7l-34.1-12.9l-8-12.9v-10.6l-15.5-15.5
							l-8-18.2l-15.5-12.9l-18.2-2.7l-5.3,2.7l-10.6,15.5h-5.3l-23.5-12.9l-5.3-20.8l-26.2-20.8l-5.3-5.3h-36.4v10.6h-55l-75.8-26.2
							l2.7-5.3l-49.7,2.7l-8-15.5l-10.6-10.6h-8l-2.7-8h-10.6l-8-8l-20.8-2.7l-2.7-12.9l-23.5-26.2V771l-10.6-5.3l-2.7-12.9l10.6,8
							l-8-12.9l12.9-2.7h-12.9l-2.7,8l-8-5.3l2.7-2.7l-8-8l-10.6-10.6l-2.7-18.2l-10.6-18.2l5.3-8v-15.5l-8-34.1l2.7-10.6l5.3-2.7
							h-5.3l5.3-8l5.3-44.3l-2.7-15.5h15.5l-15.5-5.3l-2.7-8l2.7,8v-8h2.7l-5.3-5.3l5.3-2.7l-5.3-2.7l-2.7,2.7l-10.6-36.4l15.5,8
							h23.5l2.7,5.3l-2.7,5.3l-2.7-2.7l-5.3,10.6h8h-5.3l5.3-8l5.3-5.3v5.3l-2.7,2.7h2.7v8l-2.7-2.7l-2.7,5.3v-5.3l-5.3,5.3l2.7,2.7
							l12.9-8l-2.7-8v-8l-2.7-5.3h2.7l-5.3-8l2.7,2.7l2.7-2.7l-8-12.9h175.2h376.1v-8h8l2.7,15.5l15.5,5.3l18.2-2.7l10.6,10.6l8-2.7
							l12.9,8l10.6-5.3l2.7,2.7l26.2,2.7l20.8-8l70.5,36.4l5.3,10.6h8l5.3,10.6l5.3-2.7l2.7,2.7l-2.7,5.3l20.8,12.9l10.6,41.7
							l-10.6,23.5l-10.6,8v8l8,8l75.8-28.8l-5.3-15.5l10.6-2.7h36.4l8-10.6l28.8-23.5h70.5l2.7-8l10.6,2.7l10.6-18.2v-5.3l5.3-12.9
							l15.5-20.8l8,8l10.6-5.3l10.6,8v34.1l8,5.3v8h10.6v-4.1H-1047.1z M-2993,145.9l8,2.7l-2.7,8l8-8l5.3,5.3l5.3-2.7l-8-5.3h5.3
							v-2.7l-8,2.7l-12.9-2.7h-10.6l8-5.3l-10.6-2.7l12.9-12.9l-10.6,8l-5.3,5.3v5.3l-8-8v-8h-8l2.7-5.3l5.3,2.7l-5.3-5.3h10.6
							l-2.7-8l10.6-10.6l5.3-2.7l5.3,2.7l-2.7-5.3l5.3-5.3l-5.3,2.7l-2.7-5.3l5.3-5.3h8l-5.3-5.3l2.7-2.7l26.2,5.3l15.5-12.9
							l18.2,2.7l10.6-10.6l-2.7-15.5l-2.7-5.3h-8l12.9-8l-5.3-8l-18.2,5.3l-15.5,12.9l-8-10.6l-2.7,2.7l5.3,2.7V35l-15.5-5.3
							l-23.5,2.7l-26.2-5.3v-8L-3038,8.5l5.3,2.7l10.6-5.3l-26.2-5.3l-12.9-8l36.4-15.5h15.5l-8-2.7l2.7-2.7l28.8-8h12.9h-5.3
							l2.7,2.7l-2.7,8l-5.3,2.7l47,5.3l5.3-8h8v5.3l2.7-5.3l-10.6-5.3l-8,5.3V-34l-12.9-5.3v-5.3l5.3-2.7l5.3,10.6l8,5.3l10.6-2.7
							l8,5.3h10.6v-8l-26.2,2.7l-8-5.3l8-10.6h-18.2v-5.3l-2.7,5.3l-23.5-2.7l-8-18.2l-55-23.5l10.6-2.7l2.7-15.5l47-5.3l15.5-12.9
							l2.7-12.9l20.8-20.8l2.7,2.7l-8,2.7h5.3l39-12.9l-5.3,2.7l8,8v-8l10.6-2.7l-15.5-2.7l10.6-8l8-2.7l-5.3,5.3l5.3,2.7l23.5-5.3
							l28.8-18.2l18.2,5.3l-10.6,10.6h2.7v5.3l18.2-12.9v5.3l5.3-5.3l5.3,5.3v5.3l8,2.7l18.2-5.3l20.8,2.7l-5.3,8l8,2.7h-10.6h18.2
							l-5.3,2.7h55l86,18.2l34.1-5.3l44.3,15.5v305.6l20.8,2.7l18.2-5.3l-2.7,8l31.5,26.2l2.7,8l12.9-5.3h5.3v-10.6h5.3l-2.7-2.7
							l18.2-8l10.6,8l-2.7,5.3l2.7,2.7l31.5,23.5l23.5,36.4l-2.7,5.3h5.3v5.3l5.3,2.7v5.3l34.1,12.9l2.7,5.3l-5.3,5.3l5.3,12.9
							l-8,10.6l-8,5.3V320l-2.7,2.7l-2.7-5.3l5.3-2.7l5.3-5.3l-5.3,5.3h-2.7h-2.7l2.7-5.3h5.3h-5.3v-10.6l-5.3-8l2.7-5.3l-18.2,8
							h2.7v5.3l-2.7,5.3l-5.3-2.7v-5.3l5.3-5.3v-5.3l2.7-2.7l-2.7-2.7l-8-5.3v-2.7h-5.3l5.3-5.3l-8-2.7l-2.7-5.3l-12.9-5.3l8-2.7
							h-5.3l-2.7-5.3l2.7-2.7h-5.3v-2.7l12.9,5.3l-10.6-8v-2.7h8l-8-2.7l-2.7,5.3l-2.7-5.3l2.7-5.3l-5.3,5.3l-2.7-2.7v-10.6l5.3-2.7
							h-5.3l-2.7,8l-8-2.7l-5.3-2.7l-2.7-8l-8-23.5l-2.7,5.3l2.7,5.3l-5.3-2.7l10.6,28.8h-5.3l-2.7-8l-8,2.7v-2.7l-5.3-10.6h8
							l-8-5.3v5.3l-2.7,2.7l-15.5-8l-2.7,5.3h12.9l2.7,5.3l-2.7,2.7l5.3-2.7l2.7,5.3v5.3l-8-2.7l2.7,2.7h-5.3v2.7l-39-26.2l2.7-2.7
							l-23.5-8l2.7-15.5l5.3,5.3v8v-8h8l-12.9-5.3l-18.2,10.6l-18.2-5.3l2.7-5.3l-2.7-2.7l-8,5.3l-18.2-5.3l-23.5,2.7l-20.8-8
							l5.3-12.9l-12.9,10.6l-10.6-5.3l2.7-5.3l-10.6,2.7l2.7-5.3l-10.6,2.7l10.6-5.3l-12.9-2.7l8-5.3l-20.8,8h-2.7v-8l-2.7,8
							l-2.7,2.7l-5.3-5.3l5.3-10.6l-5.3,8h-2.7l-2.7,8h-8h5.3l-5.3,2.7l10.6-2.7v5.3l-10.6,5.3l12.9-5.3l2.7,5.3l-8,5.3l5.3,2.7
							h-5.3l-2.7,8l-12.9-5.3l-2.7,8l-5.3-8l-2.7,8l-2.7-2.7v8l-5.3-5.3l2.7,2.7l-2.7,2.7l-8,5.3l2.7-8l-5.3,8v-2.7l-8,10.6
							l-15.5,2.7l-5.3-5.3l2.7-2.7l8-2.7l8-8l-8,2.7l-8-2.7l10.6-18.2l-2.7-10.6l20.8-10.6l26.2,5.3l-18.2-8l15.5-10.6h-10.6l-8,8
							l-10.6-2.7l-20.8,12.9v5.3l-9.3,5.8l-2.7,8h-15.5l10.6,5.3l-2.7,5.3l-10.6,2.7h5.3v2.7l-8,2.7v-2.7l-12.9,12.9l-5.3,5.3
							l2.7,2.7l15.5,2.7l2.7,2.7l-2.7,5.3l-12.9,5.3v2.7l-5.3,5.3l5.3-2.7l-2.7,5.3l-15.5,2.7l-8,10.6l-5.3-2.7l-2.7,8l-15.5,5.3
							l5.3,5.3l-5.3,5.3h-8l-5.3,5.3l-5.3-2.7l-2.7,5.3l2.7,2.7l-5.3-2.7l-8,2.7l5.3,2.7l-10.6,2.7l-5.3,5.3h10.6l-8,8l-2.7-5.3h2.7
							l-2.7-2.7v5.8l-15.5,2.7l-5.3,8v-8h-2.7l-12.9,10.6l-2.7-2.7l-12.9,5.3h-5.3v-2.7l8-2.7l-8-2.7l-10.6,12.9l2.7,2.7l-10.6,2.7
							l-5.3-8l2.7,10.6h-5.3l-8-5.3l2.7,5.3l-5.3,2.7v-8l15.5-8l5.3-8l10.6-5.3l12.9-2.7l8,8v-5.3l10.6,2.7l-8-5.3l5.3-10.6
							l26.2-12.9h8v-7.1l10.6-8l8-8l8,2.7l-8-2.7l2.7-12.9l8-2.7l-8-2.7V219l15.5-20.8l-5.3,8l-26.2,5.3l-2.7-2.7v-8l10.6,5.3
							l-10.6-10.6v5.3l-2.7,5.3l-2.7-2.7v5.3h-2.7l2.7,8l-2.7,2.7h-2.7l-10.6-15.5l-8,5.3l-8-8l-26.2,12.9l-10.6-2.7l10.6-2.7
							l-1.3-8l5.3-2.7h-10.6l2.7-8l5.3-2.7l-10.6-18.2v-5.3l-2.7,2.7l2.7-12.9l5.3-2.7l-8,2.7l-5.3,8v10.6l-20.8,5.3h-10.6l-2.7-2.7
							l2.7-2.7l-20.8-12.9l5.3-2.7h-10.6L-2993,145.9z M-2771.3,242.6l-8-5.3l5.3-2.7L-2771.3,242.6l5.3-2.7l-2.7-5.3h8l-5.3-2.7
							l10.6,2.7l-2.7,5.3l8-5.3l2.7,2.7l-2.7,2.7l8,2.7l-5.3,5.3l-12.9-2.7l8,5.3h-10.6l2.7,2.7h-5.3l-8,5.3l2.7,2.7l-8,5.3h-2.7
							l5.3-10.6l-5.3,5.3V256l-5.3,8l-5.3-10.6l-5.3-2.7l12.9-10.6l10.6,12.9l-5.3-10.6h8L-2771.3,242.6L-2771.3,242.6z
							 M-2815.6,1130.8l10.6,5.3l8,10.6l-15.5,12.9l-5.3-5.3l-2.7-12.9l5.3-5.3v-5.3L-2815.6,1130.8L-2815.6,1130.8z M-2361.1,305.5
							l-2.7-2.7l5.3-5.3h-10.6l5.3-5.3l-2.7-8l-8-5.3h10.6v8l10.6,2.7l8,12.9l-8-2.7l10.6,8l-2.7,2.7l5.3-2.7l-5.3,8h5.3l-2.7,8
							l-10.6-5.3v-8v2.7l-12.9-5.3L-2361.1,305.5z M-3118.5,67.8h-15.5l-2.7-2.7l2.7-10.6l2.7,8l26.2-2.7l15.5,10.6l15.5,2.7
							l-2.7,2.7h-10.6l-5.3,8l-2.7-5.3l-15.5-8l-5.3-2.7C-3116.3,67.8-3118.5,67.8-3118.5,67.8z M-2426.3,237.2h-2.7v-5.3l8,2.7
							l-8-5.3V224l5.3,5.3l8-5.3l5.3,2.7l-5.3,5.3l8-5.3l8,2.7v5.3l-5.3-2.7l5.3,5.3h-2.7l-15.5-5.3l10.6,8l8-2.7l2.7,10.6
							l-20.8-10.6l5.3,8l-5.3,2.7L-2426.3,237.2z M-3021.9,159.2l8,5.3l2.7,8l-12.9,5.3l2.7,2.7l-26.2-12.9L-3021.9,159.2z
							 M-2392.6,245.2l-8-26.2l5.3,8h10.6l5.3,10.6v2.7l-8-10.6v5.3l8,10.6h-2.7l2.7,5.3l-5.3-2.7l2.7,5.3l-8,5.3l-2.7-5.3l5.3-2.7
							L-2392.6,245.2h5.3H-2392.6z M-2982.8,326.4l-10.6,8l-5.3-5.3l8-10.6l15.5-2.7h5.3l2.7,5.3l5.3,5.3L-2982.8,326.4
							L-2982.8,326.4z M-2402.8,271.4v-8h-5.3v-10.6l-5.3-2.7h2.7v-4.9l10.6,5.3l8,18.2l-2.7,15.5l-8-10.6l5.3-5.3L-2402.8,271.4z
							 M-2326.9,305.5v-8V305.5h-2.7v2.7l-2.7-5.3v5.3l-5.3-5.3l2.7-10.6l8-2.7l8,8l-2.7,8l-2.7,5.3h-2.7l2.7-5.3l-5.3,2.7
							L-2326.9,305.5z M-3040,354.8l5.3-2.7l-8-2.7l2.7-5.3h8v3.1l5.3-2.7l2.7,2.7l-8,5.3h8l-10.6,5.3l-20.8,5.3L-3040,354.8z
							 M-2361.1,260.7v10.6l-8-8l5.3,10.6l-8,2.7l-2.7-12.9h-5.3h2.7l-5.3-5.3L-2361.1,260.7z M-1182.8,681.6l8-5.3l18.2-2.7l8-2.7
							l-8,5.3l15.5-5.3l-34.1,12.9L-1182.8,681.6z M-2760.7,229.7l-5.3-5.3l8,2.7l-5.3-2.7l8-2.7l2.7-5.3l12.9,5.3l-2.7,5.3
							l-2.7-2.7v2.7L-2760.7,229.7z M-2384.6,279.4l-2.7-2.7h5.3V274l-5.3-2.7l-2.7-8h8v8l5.3-5.3v5.3h-2.7v12.9l-2.7-5.3l-2.7,8
							L-2384.6,279.4L-2384.6,279.4z M-2640.5,164.5l-10.6,12.9h-8l12.9-15.5L-2640.5,164.5z M-3056,357.4l-26.2,18.2l10.6-12.9h5.3
							v-5.3L-3056,357.4L-3056,357.4z M-2828.5,1125.5l-5.3-8l2.7-2.7l10.6,5.3L-2828.5,1125.5z M-2857.3,1110h-5.3l-2.7-5.3
							l5.3-2.7l5.3,8H-2857.3z M3743.8,378.7l-8-5.3l2.7-2.7h10.6l5.3,5.3L3743.8,378.7z M-2347.8,289.6l-8-8l5.3-2.7l2.7,2.7
							l5.3,2.7v5.3H-2347.8z M-3199.7,396.9l15.5-5.3l-5.3-2.7l5.3-2.7l5.3,2.7l-5.3,5.3L-3199.7,396.9z M-2888.8,1096.7l-8-2.7
							l2.7-2.7h8L-2888.8,1096.7z M-2363.7,310.4l8,15.5l-8-8l-2.7-5.3L-2363.7,310.4z M-3144.7,164.5l-8-2.7l-8-5.3l2.7-2.7
							L-3144.7,164.5z M-3238.7,409.7l5.3-10.6h2.7l-2.7,2.7h5.3L-3238.7,409.7z M-2345.1,282h-2.7v-2.7V274l5.3,5.3h2.7l-2.7,5.3
							L-2345.1,282z M-2896.4,307.7v5.3l-8,5.3V313L-2896.4,307.7z M-3256.9,409.7l-8-8l8-2.7v2.7V409.7z M-2915,305.5l5.3,5.3
							l-8,2.7v-5.3L-2915,305.5z M-2622.3,161.8l-10.6,2.7l2.7-2.7h-5.3l2.7-2.7L-2622.3,161.8z M-2358.4,266.1l5.3,5.3l-8,2.7
							L-2358.4,266.1z M-2366.4,284.2l-2.7,2.7l-8,2.7l5.3-5.3L-2366.4,284.2L-2366.4,284.2z M-2358.4,282l-2.7-5.3h8v2.7
							L-2358.4,282z M-3168.2,396.9l-12.9-2.7l23.5,2.7H-3168.2z M-3251.6,407.1l10.6-8v5.3L-3251.6,407.1z M-2653.8,159.2l-2.7,8
							l-2.7-2.7l2.7-5.3C-2656.4,159.2-2653.8,159.2-2653.8,159.2z M-3016.5,341.9l-5.3-2.7l2.7-2.7l5.3,2.7L-3016.5,341.9z
							 M-2329.6,310.4v5.3h-2.7v-8L-2329.6,310.4z M-2416.1,250.5l2.7,5.3l-5.3,5.3l2.7-5.3l-2.7-5.3H-2416.1z M3869.3,415.1
							l-10.6-8l15.5,8H3869.3z M-2922.5,211.5l8-2.7l-2.7,5.3L-2922.5,211.5z M-2154.4,490.9l2.7,2.7l-2.7,2.7l5.3,8l-8-8
							L-2154.4,490.9z M-2836.5,1115.3l-10.6-2.7h10.6V1115.3z M-2763.3,253.2l5.3,2.7l-10.6,2.7l2.7-2.7v-2.7L-2763.3,253.2
							L-2763.3,253.2z M-2428.9,229.7v2.7v2.7l-2.7-5.3L-2428.9,229.7L-2428.9,229.7z M-2766,227l8,5.3l-10.6-2.7L-2766,227z
							 M3759.4,388.9l-5.3-2.7l8-2.7L3759.4,388.9z M3832.5,402.2l-2.7-2.7l8-5.3L3832.5,402.2z M-2337.6,305.5l2.7,2.7v5.3
							L-2337.6,305.5z M-2389.9,224.4h2.7h-5.3v-2.7L-2389.9,224.4z M-2839.1,1120.2l-2.7-2.7h5.3L-2839.1,1120.2z M3876.9,402.2
							l-2.7-2.7h5.3L3876.9,402.2z M-1070.6,592.5l2.7-2.7v2.7l-5.3,2.7L-1070.6,592.5z M-1206.3,1136.2v2.7V1136.2z
							 M-1206.3,1136.2v2.7h-2.7L-1206.3,1136.2z M-2162.4,474.9v2.7V474.9z"/>
					</g>
				</g>
			</g>
		</g>
	</g>
</g>
</svg>
