<?xml version="1.0" encoding="utf-8"?>
<!-- Generator: Adobe Illustrator 18.0.0, SVG Export Plug-In . SVG Version: 6.00 Build 0)  -->
<!DOCTYPE svg PUBLIC "-//W3C//DTD SVG 1.1//EN" "http://www.w3.org/Graphics/SVG/1.1/DTD/svg11.dtd">
<svg version="1.1" id="Layer_1" xmlns="http://www.w3.org/2000/svg" xmlns:xlink="http://www.w3.org/1999/xlink" x="0px" y="0px"
	 viewBox="0 90 612 612" enable-background="new 0 90 612 612" xml:space="preserve">
<g id="graphic_copy">
	<g>
		<g>
			<g>
				<defs>
					<rect id="SVGID_1_" y="90" width="612" height="612"/>
				</defs>
				<clipPath id="SVGID_2_">
					<use xlink:href="#SVGID_1_"  overflow="visible"/>
				</clipPath>
				<g clip-path="url(#SVGID_2_)">
					<g>
						
							<path fill="#DDDDDD" stroke="#FFFFFF" stroke-width="1" stroke-linecap="round" stroke-linejoin="round" stroke-miterlimit="10" d="
							M71.4,165.8v2.7l-4.9,4l2.7,5.3l-4-2.7h-5.3l-10.2,7.5v6.7l-5.3,6.2v1.3l1.3,2.7L39,211.1l-7.5-1.3v7.5v2.7h-1.3l-1.3,2.7
							l1.3,5.3l-2.7,2.7l-2.7-1.3l-1.3,1.3l-2.7-18.2h-2.2l-2.7,6.7l-1.3,2.7l-2.7-4v1.3l-2.7-5.3l2.7-5.3h5.3l2.7-2.7l1.3-4.9h2.7
							l-1.3-1.3l-4-2.7l-15.5,1.3l-6.7-1.3v-9l-1.3-1.3l-1.3,2.7h-2.7l-2.7-4V184v2.7h-1.3l-4.9-4v1.3l1.3,1.3l-2.7,2.7l-1.3,2.7
							l8.9,6.7l-1.3,1.3l-4-1.3l-0.9,2.2l-2.7,1.3v2.7v1.3l6.7,2.7l-1.3,6.7l1.3,1.3v2.7l2.7,1.3l-1.3,1.3l1.3,8.9l1.3,5.3l-4,1.3
							l-1.3-6.7v6.7l-1.3-4.4v2.7h-1.3l-1.3-1.3v2.7v-6.7l-2.7-2.7l2.7,2.7l-4,5.3l-8.9,2.7l-1.3,2.7l2.7,5.3l-6.7,6.7h-1.3v1.3
							l-7.5,2.7l1.3-2.7H-46l-4,4l2.7-1.3l-6.7,5.3l-5.3,8.9l-18.2,11.5v5.3l-6.7,2.7h-4l-2.7,5.3l-1.3-1.3l-1.3,2.7l-1.3-1.3
							l-4,1.3l-1.3,6.7l2.7,16.9l-2.7-2.7l2.7,2.7l-2.7,8.9l-4,8.9l1.3,12.9h-5.3l-2.7,5.8l1.3,4l4,1.3l-5.3-1.3l-5.3,1.3l-4,7.5
							l-5.3,2.7h-1.3l-7.5-7.5l1.3-1.3h-1.3l-1.3-1.3l-1.3-7.5v4h1.3l-7.5-18.2l-5.3-6.7l-2.2-8l-5.3-16.9l-2.7-4l-2.7-6.7h1.3
							l-5.3-6.7l-5.3-25.7l1.3-4l-2.7,1.3v-4h2.7l-2.7-1.3l-1.3-5.3l2.7-8.9l-4-6.7l6.7-4l-6.7,1.3l2.7-4h-2.7l1.3-1.3l2.7-1.3h-7.5
							l2.7,1.3l-4,2.7l1.3,1.3l-1.3-1.3l2.7,2.7l-1.3,5.3l-12.9,5.3l-7.5-5.3l-10.2-11.5l1.3-2.7l1.3,2.7l8.9-2.7l4-6.7l-7.5,4
							l-5.3-1.3l-7.5-5.3v-2.7l2.7-2.7l-4,2.7h-1.3v-1.3l1.3-1.3l4-1.3l1.3-4l11.5,2.7l5.3-2.7l2.7,1.3l2.7-1.3l-4-14.2h-4l-2.7-2.7
							l1.3-6.7l-6.7-1.3l1.3-5.3l7.5-8.9h1.3l2.7,4l10.2-2.7l5.3-8.9l5.3-2.7l5.3-10.2l5.3-1.3l-1.3-2.7l8.9-7.5l-2.7-1.3l1.3-7.5
							l7.5-4l-4-2.7h-2.7l-1.3-4h-2.7v-1.3l-2.7-1.3l1.3-4l-2.7-2.7l4-2.7l-4-1.3l1.3-1.3l-2.7-2.7l1.3-2.7l4-1.3l12.9,4l7.5-4
							l4,1.3l2.7-5.3l7.5-4h1.3v2.7l2.7,7.5l6.7,3.5l-1.3,2.7v6.2l1.3,1.3l4,4l2.7,4l-6.7,3.5l-1.3-2.7h-4l1.3,4l2.7,2.7v7.5
							l2.7-1.3l5.3,5.3h2.7l4,2.7v1.3l7.5,4l-6.7,5.3l-2.7,10.2l10.2,4l1.3,2.7l6.7,4l7.5,1.3v2.7l5.3,1.3l1.3-1.3l5.3,1.3l2.7-2.7
							l5.3,2.7v2.7l6.7,4l2.7-1.3l2.7,2.7l1.3-1.3l7.5,2.7l2.7-1.3l2.7,2.7h6.7l2.7-4l-2.7-4l1.3-7.5l5.3-4l2.7,1.3l-1.3,5.3
							l1.3,2.7l-1.3,1.3l1.3,2.7l7.5,2.7l7.1-4l2.7,2.7l12.9-1.3l1.3-5.3l-1.3-1.3h-4v-3.5h8.9l1.3-4l5.3-1.3l1.3-4h6.7l2.7-4l4-4
							l7.5,4l6.7-5.3l2.7,2.7l-1.3,2.7v1.3l2.7-1.3l1.3,2.7l-2.7,2.7v2.7l2.7-1.3L71.4,165.8z M27.5,329.9l-2.7-1.3V325l2.7-1.3v4
							V329.9z M27.5,323.7l-1.3-4l2.7-2.7v5.3L27.5,323.7z M26.2,331.3l-1.3,6.7l-1.3-4l1.3-4L26.2,331.3z M23.5,344.1v2.7h-0.9
							v-2.7l1.3-1.3v1.3H23.5z M36.8,380.5v4l-2.7-2.7L36.8,380.5z"/>
						
							<path fill="#DDDDDD" stroke="#FFFFFF" stroke-width="1" stroke-linecap="round" stroke-linejoin="round" stroke-miterlimit="10" d="
							M-11.1,229.3l-1.3-8.9l1.3-1.3l-2.7-1.3v-2.7l-1.3-1.3l1.3-6.7l-6.7-2.7v-1.3v-2.2l2.7-1.3l1.3-2.7l4,1.3l1.3-1.3l-8.9-6.7
							l1.3-2.7l2.7-2.7l-1.8-0.9v-1.3l5.3,4h1.3V184v1.3l2.7,4h2.7l1.3-2.7l1.3,1.3v8.9l6.7,1.3l15.5-1.3l4,2.7l0.4,1.3h-2.2
							l-1.3,5.3l-2.7,2.7H12l-2.7,5.3l2.7,5.3v-1.3l2.7,4l1.3-2.7l2.7-6.7h2.7l2.7,18.2l1.3,7.5l-4-1.3v3.5v2.7l-2.7-4V234l-4-8.9
							l-1.3-2.7l-2.7,2.7l-4-1.3l-2.2-3.5V215h1.3l-1.3-1.3L3.2,215l1.3,1.3H1.8l2.7,1.3L3.1,223l1.3,4.9l-1.3,2.7v-2.7l-1.3,4h-2.7
							l1.3-2.7l-1.3,1.3v-1.3l-1.3,1.3l1.3-5.3l-2.7,2.7l1.3,4l-4,2.7l1.3-6.7l-1.3,2.7v-2.7l-1.3,5.3v-2.7l-1.3,4L-11.1,229.3z
							 M5.8,230.6l-1.3-6.7l1.3-1.3l1.3,4L5.8,230.6z M8,230.6l1.3-5.3l1.3,2.7L8,230.6z"/>
						
							<polygon fill="#DDDDDD" stroke="#FFFFFF" stroke-width="1" stroke-linecap="round" stroke-linejoin="round" stroke-miterlimit="10" points="
							-12.4,175.1 -6.2,167.2 -0.9,164.5 3.1,164.5 1.8,167.2 9.3,168.5 12,167.2 14.6,168.5 14.6,169.8 14.6,173.8 18.6,173.8 
							20,175.1 18.6,180 5.8,181.4 3.1,178.7 -4.9,181.4 -12.4,178.7 -13.7,176 						"/>
						
							<path fill="#DDDDDD" stroke="#FFFFFF" stroke-width="1" stroke-linecap="round" stroke-linejoin="round" stroke-miterlimit="10" d="
							M246.1,404l-2.7,0.9l1.3,4l-2.7,2.7l-5.3-5.3l8.9-5.3v3.1h0.5V404z M246.1,404h1.3l1.3,5.3H246L246.1,404L246.1,404z"/>
						
							<polygon fill="#DDDDDD" stroke="#FFFFFF" stroke-width="1" stroke-linecap="round" stroke-linejoin="round" stroke-miterlimit="10" points="
							439.9,375.2 438.6,379.1 437.3,377.8 438.6,376.5 						"/>
						
							<path fill="#DDDDDD" stroke="#FFFFFF" stroke-width="1" stroke-linecap="round" stroke-linejoin="round" stroke-miterlimit="10" d="
							M304.2,305.5l-4-1.3v4h-1.3l-1.3-4h-2.7L294,294l-1.3-1.3l1.3-4l2.7,2.7h2.7L298,286l1.3-7.5l-1.3-2.7l2.7-8.9l4-1.3l10.2,4
							l2.7-2.7l1.3,2.7l-2.7,5.3l1.3,4l2.7,2.7v2.7l-5.3,7.5l1.3-1.3l-5.3,2.7v2.7l-2.7,4l4,6.7v5.3l5.3,2.7v-4v2.7l2.7-2.7h2.7
							l2.7,4v2.7l2.7-1.3l-1.3-2.7h1.3l6.7,2.7l-4,1.3l2.7,4v2.7h4l-1.3,5.3l-3.5-5.3l2.7-1.3l-4,1.3l-4-1.3l-1.3-4l-6.7-5.3
							l1.3,7.5l-2.7-4l-6.7-4l-4,4l-4-4h-1.8v1.3l-1.3-4l4-2.7v-2H304.2z M353.5,357.4l4,6.7l-2.7,2.2l4,1.3v4l-1.3,2.2l2.7,1.3v4
							l-2.7,4v1.3l-1.3-1.3v6.7l-2.7-10.2h-2.7l-2.7,6.7l2.7,6.7l-2.7,5.3l-2.7-2.7l1.3-4l-2.7,2.7l-7.5-4l-2.7-5.3l2.7-5.3
							l-5.3-5.8h-2.7v5.3l-2.7-2.7v-1.3l-1.3,2.7H322v-2.7l-0.9-1.3l-5.3,8.9l-2.7-1.3l4-8.9l6.7-1.3l1.3-4h2.7l1.3-2.7l4,2.7v4
							l-1.3,1.3l5.3-2.7l2.7-4l2.7,1.3v-5.3l4,1.3l4-1.3l-1.3-7.5L353.5,357.4z M348.1,331.3v5.3l2.7,2.7l-1.3,1.3l2.7,1.3h-5.3
							l-2.7-4h-1.3l1.3-2.7l-5.3-4l-2.7-4l8.9-1.3l4,4L348.1,331.3z M327.7,348.1l-1.3,8l1.3,4l-2.7,2.7l-6.7-7.5l1.3-1.3l4-1.3
							v-8.9h6.7L327.7,348.1z M314.4,340.6l1.3-5.3H313l1.3-2.7l6.7,5.3l1.3-1.3l1.3,1.3l2.7-1.3v4l-11.5,7.5v-7.5H314.4z
							 M288.7,345.4l-1.3-2.7l2.7-5.3v6.7l2.7,2.7l-4,2.7l-1.3,2.7l-5.3,1.3v2.7l-4,5.3l-11.5,7.5l5.3-7.5l4-1.3l7.5-7.5l1.3-4h1.3
							l2.7-1.3l-1.3-4L288.7,345.4z M309.5,328.6l-4,1.3l-4-8.9l-4-4h6.7l5.3,4V328.6L309.5,328.6z M341.9,346.8l-1.3-4h-1.3
							l-1.3-6.7l2.7,2.7h4v6.7l2.7,4l-1.3,1.3l-1.3-2.7v4l-2.7-1.3L341.9,346.8L341.9,346.8z M328.6,352.1l6.7-12.9l-1.3,8.9l-2.7,4
							l-4,6.7L328.6,352.1z M339.3,352.1l1.3,2.7l-2.7,1.3h-4l-1.3-1.3l4-4L339.3,352.1z M326.4,333.9l1.3-7.5l6.7,4l1.3,5.3
							l-5.3-5.3L326.4,333.9z M336.6,317.1l-1.3-1.3l1.3-4l2.7,2.7L336.6,317.1z M296.7,332.6h-1.3l-1.3-4l4,1.3v2.7H296.7
							L296.7,332.6z M314.4,388.5l-2.7-2.7l4-1.3l1.3,2.7L314.4,388.5z M308.2,393.3l-5.3-1.3l2.7-1.3l4,1.3L308.2,393.3z
							 M314.4,321.1l-1.3-1.3v-2.7l2.7,1.3L314.4,321.1z M314.4,305.5l-1.3-2.7l1.3-1.3l1.3,1.3L314.4,305.5z M350.8,354.8l-1.3-4
							l1.3-2.7V354.8z M294,401.3l2.7-2.7l1.3,2.7H294z M314.4,331.3l-1.3-1.3l2.7-4L314.4,331.3z M339.3,337.9l-1.3-2.7h1.3
							l1.3,2.7H339.3z M354.8,354.8l-1.3-1.3l1.3-1.3l1.3,2.7h-1.3V354.8z M329.9,361h-1.3l2.7-1.3v1.3H329.9z M294,336.6v-4
							l1.3,1.3L294,336.6z M321.1,329.9l-1.3-2.7h1.3V329.9z M292.7,348.1v-1.3h2.7L292.7,348.1z"/>
						
							<polygon fill="#DDDDDD" stroke="#FFFFFF" stroke-width="1" stroke-linecap="round" stroke-linejoin="round" stroke-miterlimit="10" points="
							172.5,305.5 169.9,310.9 172.5,317.1 171.2,322.4 172.5,328.6 160.5,332.6 160.5,335.2 157,335.2 155.7,336.6 155.7,339.2 
							158.3,341.9 158.3,344.1 154.3,341.9 147.7,343.2 147.7,345.4 145,346.8 141.5,348.1 138.8,346.8 133.5,348.1 132.2,345.4 
							133.5,343.2 132.2,340.6 130.8,344.1 128.6,344.1 127.3,336.6 127.3,335.2 125.9,333.9 125.9,336.6 124.6,331.3 124.6,327.7 
							122,326.4 120.6,317.1 123.3,317.1 128.6,309.5 145,308.2 147.7,310.9 149,309.5 150.3,312.2 151.7,310.9 157,313.1 
							158.3,312.2 157,308.2 161.9,306.9 164.5,309.5 						"/>
						
							<polygon fill="#DDDDDD" stroke="#FFFFFF" stroke-width="1" stroke-linecap="round" stroke-linejoin="round" stroke-miterlimit="10" points="
							98.9,247.4 99.8,243.4 103.8,242.1 102.4,242.1 105.1,238.1 109.1,235.9 110.4,239.5 115.3,239.5 114.4,233.2 113.1,229.3 
							114.4,225.3 118,226.6 123.3,231.9 123.3,234.6 127.3,233.2 125.9,238.1 128.6,242.1 133.5,244.8 137.5,240.8 142.8,244.8 
							140.1,247.4 146.3,250.1 146.3,251.4 142.8,255 137.5,255 137.5,256.3 136.1,259 149,265.6 149,267.8 151.7,270.5 
							154.3,275.8 161.9,282 163.2,287.3 165.9,287.3 165.9,288.7 171.2,291.3 168.5,294 173.8,298.9 171.2,301.5 172.5,305.5 
							164.5,309.5 161.9,306.9 157,308.2 158.3,312.2 157,313.1 151.7,310.9 150.3,312.2 149,309.5 151.7,306.9 151.7,300.2 
							153,295.3 144.1,287.3 144.1,277.1 136.1,267.8 130.8,267.8 127.3,271.8 123.3,273.2 118,269.2 109.1,277.1 106.4,275.8 
							109.1,270.5 107.8,267.8 110.4,261.6 109.1,257.6 110.4,256.3 102.4,256.3 101.1,253.6 102.4,250.1 99.8,247.4 						"/>
						
							<path fill="#DDDDDD" stroke="#FFFFFF" stroke-width="1" stroke-linecap="round" stroke-linejoin="round" stroke-miterlimit="10" d="
							M246.1,404v5.3h2.7l-1.3-5.3l4-2.7l-2.7-2.7l5.3-2.7l8.9-14.2v5.3l4-5.3l1.3,4l5.3,2.7l-3.1,2.2l1.3,1.3l-1.3,1.3l5.3-1.3v1.3
							l-1.3,1.3v1.3l4-1.3l8.9,4l-1.3,2.7l-4,1.3l-4-1.3l-1.3,2.7l4,2.7v2.7l-6.7,1.3l-2.7-1.3l-0.9,0.9l-2.7-1.3h-14.2l-1.3,2.7
							l-2.7,10.2l-2.7,1.3l-1.3,2.7l1.3,1.3l-4,2.7l1.3,2.7l-4,5.3h-6.7l-2.7,2.7l-5.8-4.4h-5l-6.7,5.3h-4.9l-6.7,1.3l-8.9-6.7
							l-1.3-4l1.3-1.3l2.7,4l4-1.3l4,2.7v1.3l1.3-1.3l5.3,2.7l-4.4-2.7l4-5.3H207v-1.3l1.3-2.2l1.3,1.3v-4l15.5-4l11.5-14.2l5.3,5.3
							l2.7-2.7l-1.3-4L246.1,404L246.1,404z M98.9,388.5l1.3-2.7l1.3,1.3h4l1.3,2.7h1.3v5.3l1.3,1.3l4-2.7l2.7,1.3l2.7-5.3l2.7,1.3
							l6.7,6.7l4,7.5l-1.3,8.9l2.7,2.7l-1.3,6.7l4,2.7l5.3,11.5l-4,0.9l-1.3-4l1.3,2.7h-4l-1.3,1.3l-1.3-2.7l-21-12.8v-4l-6.7-6.7
							l2.7-1.3l-2.7-1.3v-6.7l-2.7-2.7v-8.9L98.9,388.5z M96.2,388.5v1.3h-1.3l-1.3-1.3H96.2z M267,379.1h1.3v1.3l-2.7,1.3
							L267,379.1z M209.8,428.4l-1.3-1.3l1.3-2.7V428.4L209.8,428.4z M271.9,410.2v-1.3l2.7,1.3H271.9z"/>
						
							<path fill="#DDDDDD" stroke="#FFFFFF" stroke-width="1" stroke-linecap="round" stroke-linejoin="round" stroke-miterlimit="10" d="
							M44.3,290v-1.3l-4,4v-4l4-11.5l-4-12.9l-2.2-1.3l1.3-4h-2.7l1.3-1.3v-1.3l-4-2.7l1.3-1.3l-5.3-1.3v2.7V251l-1.3,1.3l-1.3-1.3
							l1.3-1.3h-1.3l1.3-4l-2.7,4v-4l-1.3-1.3v4l-3.5-7.5v-4l4,1.3l-1.3-7.5l1.3-1.3l2.7,1.3l2.7-2.7l-1.3-5.3l1.3-2.7h1.3v-2.7
							v-7.5l7.5,1.3l6.7-11.5l-1.8-2.7v-1.3l5.3-6.7v-6.7l10.2-7.5h5.3l4,2.7l-2.7-4.9l5.3-4v-2.7l1.3-4l6.7,4l1.3,6.7l1.3-1.3
							l2.7,1.3l1.3,7.5l-2.2,6.7l-1.3,1.3l1.3,2.7l-4,2.7h-1.3l-6.7,8.9v2.7l2.7,2.7l-2.7,4l14.2-2.7l-2.2,0.9l2.7,8.9l5.3,1.3
							l1.3,1.3l-4,7.5l7.5,1.3v2.7l2.7,4l4-1.3l4-2.7l1.3,2.7l-4,2.7l-2.7,4h1.3l-4,1.3l-1.3,4h-0.9H92v2.7h-4l-1.3,4l-6.7,1.3
							l-2.7-1.3l-4,8.9l1.3,2.7l-4,1.3l2.7,2.7l1.3,5.3l7.5,7.5l1.3,7.5l2.7-1.3l-1.3,2.7h-0.9l-1.3,7.5l-4,1.3v1.3l1.3,4l8.9,8.9
							l-1.3,7.5l5.3,11.5L85.6,345l-1.3,4.4l-1.3,2.7l-1.3-6.7l2.7-2.7v-7.5h1.3H83l1.3-2.7v-2.7H83l1.3-1.3L83,321l-4-8.9v5.3
							l-1.3-6.7l-2.2-8V294l-2.7-2.7l2.7-5.3l-4,1.3l-4.9-10.2l-1.3,7.5l-4,2.7l-1.3-4v5.3h-2.7l-5.3,6.7l-1-1.3l1.3-2.7l-2.7,2.7
							v-2.7l-1.3,2.7H47l1.3-4l-4,4l1.3-2.7l-2.7,1.3L44.3,290z M35.5,259h1.3l1.3,4l-5.3-5.3L35.5,259z M36.8,259l-2.7-2.7l4,1.3
							L36.8,259L36.8,259z M82,336.6v-1.3l1.3-1.3v2.7H82V336.6z M80.7,328.6v-2.7l1.3,1.3L80.7,328.6z M34.1,263l1.3,2.7l-2.7-2.7
							H34.1z"/>
						
							<polygon fill="#DDDDDD" stroke="#FFFFFF" stroke-width="1" stroke-linecap="round" stroke-linejoin="round" stroke-miterlimit="10" points="
							134.8,437.2 136.1,437.2 134.8,438.6 133.5,438.6 						"/>
						
							<path fill="#DDDDDD" stroke="#FFFFFF" stroke-width="1" stroke-linecap="round" stroke-linejoin="round" stroke-miterlimit="10" d="
							M361,58.5l4-5.3h10.2l2.7-4l10.6,18.6v11.5l1.3,1.3l-1.3,4.9l-2.7,4h-6.7l-1.3,1.3h1.3l-1.3,2.7l-1.3-1.3h-6.7l1.3,2.7
							l-1.3,1.3l-2.7-2.7l1.3,2.7l-1.3,1.3l-2.7-1.3l2.7-1.3l-5.3,2.7v-1.3l-2.2,2.7h-1.3l-1.3-5.3l1.3,2.7l2.7-2.7h-4l1.3-1.3
							l-1.3-2.7l1.3,1.3v-4l2.7-1.3l-2.7-1.3l4-2.7l-2.7-1.3l2.7-1.3l-2.7-1.3l-1.3-6.7l-1.3,2.7l-1.3-2.7l1.3-2.7v2.7l1.3-1.3
							l-1.3-1.3l1.3,1.3V68l4,1.3V72l1.3-1.8l-2.7-2.2l1.3-1.3H361h1.3l-2.7-5.3L361,58.5z M362.3,107.7v2.7h-6.7l1.3-1.3
							L362.3,107.7z M373,92.2l1.3,2.7H373v-1.3V92.2z M380.5,92.2l-1.3,2.7v-2.7H380.5z M358.8,97.5h-4l1.3-1.3L358.8,97.5z
							 M358.8,59.8l1.3,2.7l-2.7-1.3L358.8,59.8L358.8,59.8z"/>
						
							<path fill="#DDDDDD" stroke="#FFFFFF" stroke-width="1" stroke-linecap="round" stroke-linejoin="round" stroke-miterlimit="10" d="
							M98.9,388.5l-4-5.3v-1.3l-4-2.7l-1.3-4l-4-2.7l-1.3-3.5l-2.7,2.7l-1.3-1.3v-10.2l4-10.2l1.3-4l7.5-11.5L87.8,323l1.3-7.5
							l-8.9-8.9l-1.3-4v-1.3l4-1.3l1.3-7.5h1.3l1.3-2.7l-2.7,0.4l-1.3-7.5l-7.5-8l-1.3-5.3l-2.7-2.7l4-1.3l-1.3-2.2l4-8.9l2.7,1.3
							l6.7-1.3l1.3-4h4v-2.7h4.9h1.3h1.3l2.7,2.7l-1.3,4l1.3,2.7h7.5l-1.3,1.3l1.3,4l-2.7,6.7l1.3,2.7l-2.7,4.4l2.7,1.3l8.9-7.5
							l5.3,4l4-1.3l4-4h5.3l7.5,8.9v10.2l8.9,7.5l-1.3,5.3v6.7l-2.7,2.7l-1.3,1.3l-2.7-2.7l-16.4,1.3l-5.3,7.5h-2.7l1.3,8.9l2.7,1.3
							v4l1.3,5.3l-2.7-5.3l-2.7-1.3v-1.3l-1.3,1.3l-1.3-4l-3.5-0.9l-8,1.3v-7.5h-8.9v11.5l-8.9,19.5l1.3,10.2h6.7l1.3,6.7l2.7,2.7
							l2.7,11.5l-3.5-7.1l-1.3,1.3l1.3,4l7.5,5.3h5.3l5.3,5.3l-2.7,4.9l-2.7-1.3l-3.5,2.7l-1.3-1.3v-5.3h-1.3l-1.3-2.2h-4l-1.3-1.3
							L98.9,388.5z M80.7,371.6l1.3,1.3l-1.3,2.7V371.6z"/>
						
							<polygon fill="#DDDDDD" stroke="#FFFFFF" stroke-width="1" stroke-linecap="round" stroke-linejoin="round" stroke-miterlimit="10" points="
							539.7,319.7 538.4,318.4 541,315.7 						"/>
						
							<path fill="#DDDDDD" stroke="#FFFFFF" stroke-width="1" stroke-linecap="round" stroke-linejoin="round" stroke-miterlimit="10" d="
							M435.9,94.9l-4,1.3h1.3l-1.3,1.3h-6.2l-1.3,2.7h-5.3l-2.2-1.3l-2.7,6.7l-2.7-4l-5.3,2.7l-2.7-1.3l-1.3,1.3V99l1.3-1.3h4
							l12.9-12l4-1.3l2.7,1.3l10.2-1.3l7.5-1.3v2.7h6.7l1.3-2.7l1.3,1.3l-1.3-4l6.7-8.9l1.3-6.7l5.3-2.7l-4,5.8h1.3v2.7l2.7,1.3
							l1.3-2.7l8.9-2.7l5.3-6.7l5.3-4l6.7-15.5v-3.5l-4-1.3l4-4l-2.7-4l5.3-2.7v-5.3h2.7l1.3,5.3l1.3-2.7l2.7,1.3l1.3-4l-4,1.3v-4
							l1.3-1.3l4,2.7v7.5l2.7,2.7l4,11.5l-1.3,5.3h-2.7l-1.3,2.7v6.7l-4-1.3l-1.3,2.7v12.9l-2.7,2.7l-2.2,5.3l2.7,6.7l-4,2.2v4
							l-6.7,2.7v-4l2.7-4H490l-1.3,5.3l-0.9-1.3h-4v4l-2.7,4l-1.3-4l1.3-1.3l-1.3-1.3l-4,4l-1.3,2.7H463l2.7-1.3l-2.7-1.3l-1.3-1.3
							v2.7v-4l-4,4l4,2.7v2.7h-4.9l-6.7,8.9l-6.7-5.3l1.3-2.7l-1.3-1.3l4-4v-0.9h-11.5V94.9z M535.7-12.4h4l5.3-5.3l-2.7,7.5l4,2.7
							l-2.7-1.3l1.3,4l5.3-1.3l-2.7,2.7l-15.5,4l-6.7,5.3l-1.3,6.7l-14-9.1l-7.5,4l-2.7-2.7h-3.1l-1.3,4l8.9,5.3l-2.7,1.3l-2.7-1.3
							l-2.7,2.7l-4,1.3l1.3-6.7l-4-2.7V3.5l7.5-4l-2.7-4l7.5,1.3l2.7-1.3v-5.3l2.7-2.7l1.3-7.5l-1.3-7.5l1.3-2.7l2.7-1.3l10.2,12.9
							l6.7,5.3l4-1.3L535.7-12.4z M404.9,106.4h5.3v1.3l-1.3,2.7h4l-1.3,1.3l1.3,4l-2.7,2.7l-4,12.9h-2.7l1.3,1.3l-5.3,2.7l1.3-2.7
							l-1.3-4h1.3l-1.3-1.3l-0.9,2.7l1.3,4l-4-1.3l1.3-4l-2.7-4l4-5.3l1.3-1.3h-1.3l1.3-2.7l-4-4l-1.3,4h2.7v1.3l-1.3,1.3l-1.3-2.7
							l-4,2.7l1.3-1.3l-1.3-1.3v-2.2l1.3,2.7h1.3l-4-4v-2.7l2.7,1.3v-2.7l1.3,1.3l2.7-2.7h1.3l4-4l2.7,1.3L404.9,106.4z
							 M435.9,107.7l-1.3,2.7l-3.5-2.7l-5.3,1.3l-2.7,7.5l-5.3-2.7l1.3-4l-2.2-2.2l-2.7,2.7l5.3-4l2.7-5.3l2.7,2.7l4-1.3l1.3-2.7
							l4.9-0.9l4,1.3l1.3,4L435.9,107.7z M376.5,180v1.3l-4,2.7l-1.3,4h-1.3l1.3-4l2.7-1.3l-1.3-1.3l1.3,1.3L376.5,180z M477.6,54.5
							v4l-2.7,1.3l1.3-2.7l-1.3-1.3L477.6,54.5z M390.7,161.8l-4,4l-0.9-1.3L390.7,161.8z M441.3,99.8l-1.3-0.9l4-2.7l-1.3,4h-1.3
							v-0.4H441.3z M398.7,141.4l1.3,1.3v1.3l-2.7-1.3L398.7,141.4z M393.4,121.9l1.3-4l1.3,2.7L393.4,121.9z M388.5,94.9l-1.3,4
							v-2.7L388.5,94.9z M380.5,116.6l1.3-1.3l1.3,1.3H380.5z"/>
						
							<polygon fill="#DDDDDD" stroke="#FFFFFF" stroke-width="1" stroke-linecap="round" stroke-linejoin="round" stroke-miterlimit="10" points="
							549.9,298.9 548.6,301.5 548.6,300.2 						"/>
						
							<path fill="#DDDDDD" stroke="#FFFFFF" stroke-width="1" stroke-linecap="round" stroke-linejoin="round" stroke-miterlimit="10" d="
							M626.2,737.5l1.3,7.5l-4,5.3l-4,24.4l-4,5.3v2.7l-10.2,10.2l-1.3,7.5h-2.7l1.3,1.3l-4,5.3v5.3h-1.3l-5.3,10.2l-2.7,10.2
							l1.3,7.5l-4,1.3l-18.2,4l-8.9,7.5H553l1.3,2.7l1.3-1.3l-1.3,4l-1.3-2.7h-2.7L549,853l-4-1.3l1.3-2.7l-1.3-1.3l-5.3,2.7
							l-1.3-1.3l4-2.7l-2.7-2.7l-5.3,2.7h4l-1.3,2.7h-2.7l-7.5,6.7l-11.5-6.7l-5.3-0.9l-1.3,2.7l-12.9-6.7l-5.3-7.5l1.3-6.7
							l-2.7-5.3l-5.3-5.3l5.3,5.3l-5.3-6.7v-0.9l2.7,2.7v-4l-12.9,2.7l4-6.7v-3.5l-4-6.7l-4,11.5l-8.9,1.3l2.7-4h4v-8.9l5.3-6.7
							l-1.3-2.7l2.7-2.7l-4-5.3l1.3,4l-4,2.7l-2.7,5.3l-7.5,4l-4,6.7l-1.3,2.7l1.3-1.3v4l-8.9-5.3l1.3-1.3l2.7,1.3l-2.7-6.7l-4-4
							l-1.3-5.3h-4l-2.7-5.3h2.7l-1.3-2.7l-2.7,1.3v-2.7l-2.7-2.7l-2.7,1.3l-6.7-2.7H415l-10.2-5.3l-22.2,1.3l-16.9,6.7H353
							l-11.5,7.5h-5.3l-5.3,8.9l-5.3,2.7l-1.3-1.3l-8.9,1.3l-1.3-1.3h-19.5l-6.7,6.7h-5.3l-5.3,5.3l-5.3,1.3l1.3,1.3h-2.7l-11.5-1.3
							l-5.3-2.7l-5.3-5.3h-2.7l-1.3-8.9l2.7,1.3l4-4l-1.3-6.7l1.3-2.7v4V784v-8.9l-6.7-14.2l-1.3-12.9l-7.5-12.9l-2.7-8.9l-6.7-10.2
							l1.3-2.7l2.7,7.5l2.7-2.7l-5.3-7.5l1.3-2.7l2.7,4v4l1.3-2.7l1.3,5.3l2.7-1.3v-5.3l-8.9-15.5l1.3-6.7l2.7-2.7v-6.7l-1.3-2.7
							l2.7-6.7l2.7-2.7v7.5l2.7-1.3l2.7-5.3l7.5-4l12.9-8.9h8.9l5.3-2.7l6.7-1.3l2.7-2.7h5.3l14.2-4l4-5.3l4-6.7l5.3-4l-2.7-8.9
							l6.7-5.3l1.3-2.7h1.3l-1.3,1.3l6.7,10.2v-6.7l4,2.7l-1.3-2.7l1.3-1.3l-5.3-4h2.7l-1.3-2.7l1.3-1.3l2.7,2.7v1.8l2.7,1.3h6.7
							h-5.3l4-5.3h-4l1.3-4h1.3l1.3-2.7l4,4V604h-2.7l1.3-1.3h-1.3l2.7-2.7v2.7v-1.3h2.7l-2.7-4l2.7-1.3h1.3l1.3-4l1.3,1.3l-1.3,4
							l1.3-2.7l1.3,2.7l1.3-1.3l1.3-4l-1.3-2.7h1.3l1.3,2.7l1.3-2.7l1.3,2.7l2.7-4l2.7,1.3h4l6.7,7.5l-1.3,7.5l1.3-2.7l1.3,2.7
							l-1.3-4l1.3-1.3l1.3,1.3v-2.7h1.3l5.3,1.3l1.3,2.7v-4l5.3,4l-1.3-4h4h-2.7l-1.3-1.3l1.3-1.3h-1.3l-2.7-2.7l4-2.7l1.3-5.3
							l4-2.7l-1.3-4l4-2.7l1.3,1.3v-4l2.7,2.7l-1.3-1.3l2.7-1.3v-2.7l5.3,1.3h5.8v1.3l1.3-2.7h2.7l-1.3-1.3l1.3-4l-2.7-1.3h-4
							l-2.7-1.3l1.3-2.7l2.7,4v-4h1.3l4,4l1.3-1.3l4,4l2.7,1.3l4-1.3v1.3h1.3l1.3,2.7l6.7-1.3l4,2.7l6.7-5.3l-2.7,5.3h1.3l2.7-1.3v4
							l2.7-1.3l1.3-1.3l-2.7-1.3l4-1.3l1.3,2.7l1.3-1.3l1.3,2.7L461,578l-1.3-1.3v5.3l-1.3-2.7l-5.3,2.7v4l1.3,1.3l-1.3,4l-5.3,5.3
							l1.3,2.7l12.9,10.2l8.9,2.7l5.3,5.3l7.5,1.3l2.7,5.3l7.5,4l7.5-2.7l5.3-14.2l2.7-10.2l-1.3-11.5l1.3-6.7V580l1.3-4l1.3,2.7
							l-1.3-4h-1.3v-1.3l2.7-4l1.3,1.3l1.3-11.5l2.7-2.7h2.7l-1.3,2.7l1.3-1.3l1.3,2.7v7.5l4,1.3l-1.3,4h2.7l1.3,2.7l-1.3,2.7h1.3
							l1.3,8.9l1.3,6.7h2.7l5.3-2.7l1.3,4l6.7,4l1.3,15.5l4,4h1.3v2.7l1.3,6.7l-1.3,5.3l4,2.7v4l7.5,5.3h2.7v-1.3l2.7,5.3h1.3l6.7,4
							v-1.3l4,2.7l1.3,2.7l-1.3-1.3l-1.3,2.7l5.3,4l4,15.5l2.7-1.3l1.3,2.7l-1.3-2.7l1.3-2.7l5.3,4l1.3-1.3l1.3,4l1.3,7.5l6.7,6.7
							l1.3-1.3l4,6.7l4,1.3l1.3,5.3h2.7v5.3l2.7,2.7l-1.3,4l1.3,7.5l-1.3,1.3L626.2,737.5z M557.5,883.4l12.9-5.3l4,1.3v15.5
							l-1.3-2.7l-1.3,1.3l-2.7,8.9h2.7v4l-2.7,1.3l-1.3-2.7v-1.3h2.7H569l-2.7-1.3l-1.3,2.7l-1.3-2.7v5.3L561,905l1.3,2.7l-2.7,4
							l-7.5-1.3l-1.3-1.3l2.7-1.3H550l-4-5.3l-2.7-7.5l2.7,4l1.3-2.7l-6.7-8.9l-2.7-6.7V878L557.5,883.4z M398.7,568.1v-1.3l-1.3-4
							l4,1.3l4-1.3l1.3,1.3v-1.3l2.7,1.3l-5.3,6.7L398.7,568.1z M472.3,820l1.3,1.3h-4L467,824h-7.5l-1.3-2.7l7.5-2.7L472.3,820z
							 M462.1,592.5v1.3l-5.3-1.3v-2.7l2.7-2.7v1.3h2.7l-2.7,4h2.6V592.5z M622.2,711.3l-2.7-1.3l4-8.9l1.3,2.7L622.2,711.3z
							 M573,871.9l-4-4l1.3-1.3l4,2.7v2.7L573,871.9L573,871.9z M398.7,569.4h-5.3l2.7-5.3l2.7,4h1.3L398.7,569.4z M531.7,870.5
							l-1.3-2.7l1.3-4l1.3,4L531.7,870.5z M483.8,618.2l1.3-2.7h5.3L483.8,618.2z M574.3,874.5l-2.7-1.3h2.7l1.3,1.3H574.3z
							 M227.9,715.3l-2.7-4v-2.7L227.9,715.3z M602.7,690.9l-1.3-4l1.3,1.3V690.9z M564.1,910.4l-1.3-1.3l1.3-1.3V910.4z"/>
						
							<polygon fill="#DDDDDD" stroke="#FFFFFF" stroke-width="1" stroke-linecap="round" stroke-linejoin="round" stroke-miterlimit="10" points="
							154.3,555.2 154.3,556.5 153,555.2 						"/>
						
							<path fill="#DDDDDD" stroke="#FFFFFF" stroke-width="1" stroke-linecap="round" stroke-linejoin="round" stroke-miterlimit="10" d="
							M66.5,571.6v1.3V571.6z"/>
						
							<path fill="#DDDDDD" stroke="#FFFFFF" stroke-width="1" stroke-linecap="round" stroke-linejoin="round" stroke-miterlimit="10" d="
							M344.1,541l2.7-4l16.9-2.7h4l-8.9,6.7l-12.9,4l-1.3-1.3l1.3-2.7H344.1z M335.3,544.6l4-2.7l-1.3,2.7H335.3z"/>
						
							<path fill="#DDDDDD" stroke="#FFFFFF" stroke-width="1" stroke-linecap="round" stroke-linejoin="round" stroke-miterlimit="10" d="
							M555.2,537l-2.7-5.3L541,529v-2.7l-2.7,1.3l-1.3-2.7v1.3h-1.3l1.3,1.3l-1.3-1.3l-2.7,2.7l-4-4l2.7,5.3l-6.7-1.3l2.7,4
							l-6.7,1.3l-7.5-1.3l8.9,2.7l4,2.7l-1.3,2.7l-6.7,4l-5.3-2.7l-10.2,1.3l-1.3-1.3v-22.2l-1.3-2.7l1.3-4V477l24.4,7.5l5.3,4h5.3
							l11.5,10.2l1.3,6.7l18.2,5.3l1.3,2.7l1.3,4l-8.9,1.3l1.3,6.7l6.7,5.3l4,1.3v5.3h2.7l1.3,5.3l7.5-1.3l-1.3,5.3l7.5,1.3v1.3
							h-2.7l1.3,2.7l10.2,1.3l-5.3,1.3l2.7,2.7l-4,1.3l-4-1.3l2.7-1.3l-4-1.3l-18.2-1.3l-7.5-6.7l-2.7-2.7l1.3-2.7h-4L555.2,537z
							 M608,499.3l-1.3-6.7l4,1.3l2.7-1.3v1.3h1.3v5.3l-1.3,1.3h-2.7l1.3,5.3l-2.7,1.3l-4-1.3v2.7l-10.2,5.3h-7.5l-2.7-2.7l-2.7,1.3
							l-7.5-5.3l1.3-1.3l7.5,1.3l6.7-1.3l2.7-5.3l1.3,1.3l-2.7,2.7l1.3,1.3h5.3h2.7l4-5.3L608,499.3z M644.4,510.9l5.3,5.3v2.7h-5.3
							l-1.3-5.3l-5.3-2.7l1.3-5.3l2.7,1.3L644.4,510.9z M616,489.1l-2.7-2.7l-14.2-7.5h1.3l-1.3-1.3l12.9,6.7l8.9,7.5l1.3,4l-2.7,4
							L616,489.1z M565.4,470.9v1.3l-1.3,1.3h-7.5l1.3-2.7L565.4,470.9L565.4,470.9z M599.1,547.2h-2.7l-1.3-2.7h4V547.2
							L599.1,547.2z M602.7,552.5l-2.7-1.3l-1.3-4l4,4l1.3-1.3L602.7,552.5z M619.5,543.2l-4-2.7h4l1.3,1.3L619.5,543.2z
							 M595.1,478.9l-4-2.7h4V478.9z M636.4,506v-4v-1.3l1.3,2.7L636.4,506z M626.2,566.7l-4-2.7l6.7,2.7H626.2z M572.1,510l-2.7-4
							l2.7,1.3V510z M595.1,545.9l-2.7-1.3v-1.3L595.1,545.9z M562.8,506l-1.3-1.3l1.3-1.3V506z"/>
						<path fill="#ECA395" stroke="#FFFFFF" stroke-width="1" stroke-miterlimit="10" d="M141.5,348.1l4-1.3l2.7-1.3v-2.7
							l6.7-1.3l4,2.7v-2.7l-2.7-2.7v-2.7l1.3-1.3h4v-2.7l11.5-4l-1.3-6.7l1.3-5.3l-2.7-6.7l2.7-5.3l-1.3-4l2.7-2.7l-5.8-3.5l2.7-2.7
							l-5.3-2.7v-1.3h-2.7l-1.3-5.3l-7.5-6.7l-2.7-5.3l-2.7-2.7v-2.7l-12.9-6.7l1.3-2.7v-1.3h5.3l4-4v-1.3l-6.7-2.7l2.7-2.7
							l-5.3-2.7l-4,4l-4.9-2.7l-2.7-4l1.3-5.3l-4,1.3v-2.2l-5.3-5.3l4-4l5.3,4l2.7-4l2.7,2.7l1.3-2.7l2.7,2.7l1.3-2.7l2.7,1.3l4-1.3
							l1.3-4l5.3-1.3l5.3,4h7.5l1.3,1.3l-2.7,4l1.3,4l6.7,4h4l2.7,1.3l-5.3,2.7l-2.2,2.2l-1.3,1.3v-1.3l-4,1.3l-1.3-1.3l1.3,4h-2.7
							v4l-6.7,4l-2.7,8.9l2.7,5.3l6.7,5.3l-1.3,2.7l2.7,4l11.5,10.2l4,1.3v2.7l1.3-1.3l-1.3,1.3l4,5.3h1.3l5.3,15.5l-1.3,5.3
							l2.7,5.3l-2.7,2.7l1.3,2.7H188l1.3,5.3l-1.3-2.7v4l-1.3,4l-8.9,4l-1.3,2.7l-8,0.9l-2.7-2.7v2.7l-1.3-2.7l-2.7,2.7h1.3l1.3,1.3
							h-4l4,2.7l-2.7,1.3l-2.2-4l4,5.3l-5.3-4l4,4v2.7H161l-6.7-5.3l4,6.7l-6.7,2.7l-4,5.3h-4l2.7-1.8H145v-7.5l2.7-4l-2.7-2.7h-2.7
							L141.5,348.1z M137.5,348.1v4l-2.7-2.7L137.5,348.1z"/>
					</g>
					<g>
						<path fill="#999999" stroke="#FFFFFF" stroke-miterlimit="10" d="M-1553.5-28l1.3,2.7l-1.3,1.3l1.3,1.3l-1.3,1.3l-11.5,2.7
							l-2.7,2.7l-2.7-1.3V-20l-1.3,1.3l-1.3,5.3l-1.3,1.3l-1.3-1.3l-1.3,2.7l-1.3-2.7l-1.3,2.7v-2.7l-1.3,4v-1.3l-2.7,1.3V-8
							l-5.3,6.7l-1.3,4l2.7,1.3l-5.3,4l4,1.3V12l4,4l2.7-1.3l-2.7-4h2.7l1.3,5.3l-7.5,1.3v-2.7l-5.3,4l1.3-4l-2.7,1.3v-1.3l-1.3,5.3
							l-14.2,1.3l-10.2,5.3v-3.1l-2.7,5.3h2.7V30l-1.3,6.7V34l-4,7.5l-5.3,5.3l1.3-2.7l-5.3-2.7l-1.3-2.7l5.3-5.3l-5.3,4l5.3,14.2
							l-8.9,14.2h-1.3l1.3-4l2.7-5.3h-2.7l1.3-5.3l-2.7,2.7l-2.7-4h4l-4-1.3v-1.3h2.7l-1.3-2.7l-1.3,1.3l2.7-2.7l-1.3,1.3v-4l4-2.7
							h-1.3l-5.3,2.7v1.3h-1.3l1.3,2.7l-1.3,4l1.3,4l-2.7-4v2.7l4,1.3v4l-7.5-5.3h-1.3l2.7-4l-1.3-1.3v2.7l-2.7,2.7l11.5,6.7
							l-1.3,2.7l-7.5-5.3l7.5,6.7l1.3,2.7h-2.7l-2.7-1.3l4,5.3l-4-2.7l-5.3-1.3l8.9,5.3v-1.3l2.7,1.3l5.3,11.5l-4-10.2V74h-1.3
							l2.7,5.3l-1.3-2.7V78l-2.7-1.3l1.3,1.3l-5.3,2.7l-1.3-2.7v2.7h6.7l-1.3,2.7l1.3,1.3l2.7-4l1.3,2.7l-5.3,4h-2.7l-1.3-1.3
							l-1.3,1.3l-4-1.3l6.7,2.7l-2.7,2.7l-4-1.3l4,2.7l4-1.3l-1.3,4l-8.9,1.3l-1.3-1.3l1.3,1.3l-4,2.7l-1.3,5.3l-1.3-2.7v2.7h-5.3
							l-6.7,6.7l-1.3-1.3l1.3,2.7l-2.7,1.3l-4,2.7h-1.3l0,0l-4,2.7h-2.7l1.3,1.3l-1.3,1.3l-2.7-2.7l2.7,2.7l-5.3,7.5h-1.3h1.3
							l-4,7.5l1.3,6.7l4,10.2l4,6.7l-2.7-1.3l1.3,4l7.5,16.9l-4,16.9l-7.5,1.3V196l2.7,1.3l-4-6.7l-4-1.3l-2.7-5.3l1.3-2.7l-2.7,2.7
							v-4.9h-1.3v1.3l-1.3-1.3l-2.7-5.3l1.3-5.3l-2.7-1.3l1.3,2.7l-1.3,1.3l-1.3-1.3l2.7-8.9l-2.7-5.3l-2.7-1.3l-8.9-8.9l-12.9,4
							v-1.3l-2.7-2.7h2.7l-4-2.7l-1.3,1.3l1.3,1.3l-6.7-2.7h2.7l-1.3-1.3l-8.9,1.3l2.7-1.3l-2.7-1.3l-4,2.7l1.3-1.3l-1.3,1.3l-4,1.3
							l2.7-1.3l-2.7-4l-1.3,4l-8.9-1.3l-5.3,4l-6.7-2.7l-2.7,1.3l2.7,2.7l5.3-2.7l-1.3,2.7l1.3,1.3l2.7-2.7v4l-4,1.3l7.5,5.3l-4,2.7
							l1.3-2.7h-1.3l-7.5-5.3l1.3,2.7v2.7h-1.3l-2.7-2.7l-2.7,2.7l-5.3-1.3l1.3-1.3l-7.5-5.3l-2.7,1.3v1.3l-1.3,1.3l-8.9-2.7h-6.7
							v-2.7l-1.3,1.3l1.3,1.3l-8.9,4l2.7-2.7h-2.7V149h-2.7l1.3,4l-2.7,4l-10.2,5.3l2.7-1.3h-6.7l2.7,2.7l-2.7,1.3l-2.7-1.3l1.3,1.3
							l-4,1.3v1.3h1.3l-2.7,2.7h-2.7l2.7,1.3l-1.3,4l-4-1.3l1.3,2.7l2.7-1.3l-1.3,5.3l4,8.9l-2.7,1.3l-16.9-6.7l-4-6.7v-5.3
							l-7.5-7.5l-4-8.9l-7.5-6.7l-8.9-1.3l-2.7,1.3l-5.3,7.5h-2.7l-11.5-6.7l-2.7-10.2l-12.9-10.2l-2.7-2.7h-18.2v5.3h-27.1
							l-37.7-12.9l1.3-2.7l-24.4,1.3l-4-7.5l-5.3-5.3h-4l-1.3-4h-5.3l-4-4l-10.2-1.3l-1.3-6.7l-11.5-12.9v-7.5l-5.3-2.7l-1.3-6.7
							l5.3,4l-4-6.7l6.7-1.3h-6.7l-1.3,4l-4-2.7l1.3-1.3l-4-4l-5.3-5.3l-1.3-8.9l-5.3-8.9l2.7-4v-7.5l-4-16.9l1.3-5.3l2.7-1.3h-2.7
							l2.7-4l2.7-22.2l-1.3-7.5h7.5l-7.5-2.7l-1.3-4l1.3,4v-4h1.3l-2.7-2.7l2.7-1.3l-2.7-1.3l-1.3,1.3l-5.3-18.2l7.5,4h11.5l1.3,2.7
							l-1.3,2.7l-1.3-1.3l-2.7,5.3h4h-2.7l2.7-4l2.7-2.7v2.7l-1.3,1.3h1.3v4l-1.3-1.3l-1.3,2.7v-2.7l-2.7,2.7l1.3,1.3l6.7-4l-1.3-4
							v-4l-1.3-2.7h1.3l-2.7-4l1.3,1.3l1.3-1.3l-4-6.7h86.5h186.3v-4h4l1.3,7.5l7.5,2.7l8.9-1.3l5.3,5.3l4-1.3l6.7,4l5.3-2.7
							l1.3,1.3l12.9,1.3l10.2-4l35,18.2l2.7,5.3h4l2.7,5.3l2.7-1.3l1.3,1.3l-1.3,2.7l10.2,6.7l5.3,20.8l-5.3,11.5l-5.3,4v4l4,4
							l37.7-14.2l-2.7-7.5l5.3-1.3h18.2l4-5.3l14.2-11.5h35l1.3-4l5.3,1.3l5.3-8.9V-40l2.7-6.7l7.5-10.2l4,4l5.3-2.7l5.3,4v16.9
							l4,2.7v4h5.3v0H-1553.5z M-2516.7-238.6l4,1.3l-1.3,4l4-4l2.7,2.7l2.7-1.3l-4-2.7h2.7v-1.3l-4,1.3l-6.7-1.3h-5.3l4-2.7
							l-5.3-1.3l6.7-6.7l-5.3,4l-2.7,2.7v2.7l-4-4v-4h-4l1.3-2.7l2.7,1.3l-2.7-2.7h5.3l-1.3-4l5.3-5.3l2.7-1.3l2.7,1.3l-1.3-2.7
							l2.7-2.7l-2.7,1.3l-1.3-2.7l2.7-2.7h4l-2.7-2.7l1.3-1.3l12.9,2.7l7.5-6.7l8.9,1.3l5.3-5.3l-1.3-7.5l-1.3-2.7h-4l6.7-4l-2.7-4
							l-8.9,2.7l-7.5,6.7l-4-5.3l-1.3,1.3l2.7,1.3v1.3l-7.5-2.7l-11.5,1.3l-12.9-2.7v-4l-5.3-5.3l2.7,1.3l5.3-2.7l-12.9-2.7l-6.7-4
							l18.2-7.5h7.5l-4-1.3l1.3-1.3l14.2-4h6.7h-2.7l1.3,1.3l-1.3,4l-2.7,1.3l23.1,2.7l2.7-4h4v2.7l1.3-2.7l-5.3-2.7l-4,2.7v-5.3
							l-6.7-2.7v-2.7l2.7-1.3l2.7,5.3l4,2.7l5.3-1.3l4,2.7h5.3v-4l-12.9,1.3l-4-2.7l4-5.3h-8.9v-2.7l-1.3,2.7l-11.5-1.3l-4-8.9
							l-27.1-11.5l5.3-1.3l1.3-7.5l23.1-2.7l7.5-6.7l1.3-6.7l10.2-10.2l1.3,1.3l-4,1.3h2.7l19.5-6.7l-2.7,1.3l4,4v-4l5.3-1.3
							l-7.5-1.3l5.3-4l4-1.3l-2.7,2.7l2.7,1.3l11.5-2.7l14.2-8.9l8.9,2.7l-5.3,5.3h1.3v2.7l8.9-6.7v2.7l2.7-2.7l2.7,2.7v2.7l4,1.3
							l8.9-2.7l10.2,1.3l-2.7,4l4,1.3h-5.3h8.9l-2.7,1.3h27.1l42.6,8.9l16.9-2.7l22.2,7.5v151.2l10.2,1.3l8.9-2.7l-1.3,4l15.5,12.9
							l1.3,4l6.7-2.7h2.7v-5.3h2.7l-1.3-1.3l8.9-4l5.3,4l-1.3,2.7l1.3,1.3l15.5,11.5l11.5,18.2l-1.3,2.7h2.7v2.7l2.7,1.3v2.7
							l16.9,6.7l1.3,2.7l-2.7,2.7l2.7,6.7l-4,5.3l-4,2.7v-2.7l-1.3,1.3l-1.3-2.7l2.7-1.3l2.7-2.7l-2.7,2.7h-1.3h-1.3l1.3-2.7h2.7
							h-2.7v-5.3l-2.7-4l1.3-2.7l-8.9,4h1.3v2.7l-1.3,2.7l-2.7-1.3v-2.7l2.7-2.7v-2.7l1.3-1.3l-1.3-1.3l-4-2.7v-1.3h-2.7l2.7-2.7
							l-4-1.3l-1.3-2.7l-6.7-2.7l4-1.3h-2.7l-1.3-2.7l1.3-1.3h-2.7v-1.3l6.7,2.7l-5.3-4v-1.3h4l-4-1.3l-1.3,2.7l-1.3-2.7l1.3-2.7
							l-2.7,2.7l-1.3-1.3v-3.1l2.7-1.3h-2.7l-1.3,4l-4-1.3l-1.8-1.3l-1.3-4l-4-11.5l-1.3,2.7l1.3,2.7l-2.7-1.3l5.3,14.2h-2.7l-1.3-4
							l-4,1.3v-1.3l-2.7-5.3h4l-4-2.2v2.7l-1.3,1.3l-7.5-4l-1.3,2.7h6.7l1.3,2.7l-1.3,1.3l2.7-1.3l1.3,2.7v2.7l-4-1.3l1.3,1.3h-2.7
							v1.3l-19.5-12.9l1.3-1.3l-11.5-4l1.3-7.5l2.7,2.7v4v-4h4l-6.7-2.7l-8.9,5.3l-8.9-2.7l1.3-2.7l-1.3-1.3l-4,2.7l-8.9-2.7
							l-11.5,1.3l-10.2-4l2.7-6.7l-6.7,5.3l-5.3-2.7l1.3-2.7l-5.3,1.3l1.3-2.7l-5.3,1.3l5.3-2.7l-6.7-1.3l4-2.7l-10.2,4h-1.3v-4
							l-1.3,4l-1.3,1.3l-2.7-2.7l2.7-5.3l-2.7,4h-1.3l-1.3,4h-4h2.7l-2.7,1.3l5.3-1.3v2.7l-5.3,2.7l6.7-2.7l1.3,2.7l-4,2.7l2.7,1.3
							h-2.7l-1.3,4l-6.7-2.7l-1.3,4l-2.7-4l-1.3,4l-1.3-1.3v4l-2.7-2.7l1.3,1.3l-1.3,1.3l-4,2.7l1.3-4l-2.7,4v-1.3l-4,5.3l-7.5,1.3
							l-2.7-2.7l1.3-1.3l4-1.3l4-4l-4,1.3l-4-1.3l5.3-8.9l-1.3-5.3l10.2-5.3l12.9,2.7l-8.9-4l7.5-5.3h-5.3l-4,4l-5.3-1.3l-10.2,6.7
							v2.7l-5.3,2.7l-1.3,4h-7.5l5.3,2.7l-1.3,2.7l-5.3,1.3h2.7v1.3l-4,1.3v-1.3l-6.7,6.7l-2.7,2.7l1.3,1.3l7.5,1.3l1.3,1.3
							l-1.3,2.7l-6.7,2.7v1.3l-2.7,2.7l2.7-1.3l-1.3,2.7l-7.5,1.3l-4,5.3l-2.7-1.3l-1.3,4l-7.5,2.7l2.7,2.7l-2.7,2.7h-4l-2.7,2.7
							l-2.7-1.3l-1.3,2.7l1.3,1.3l-2.7-1.3l-4,1.3l2.7,1.3l-5.3,1.3l-2.7,2.7h5.3l-4,4l-1.3-2.7h1.3l-1.3-1.3v4l-7.5,1.3l-2.7,4v-4
							h-1.3l-6.7,5.3l-1.3-1.3l-6.7,2.7h-2.7v-1.3l4-1.3l-4-1.3l-5.3,6.7l1.3,1.3l-5.3,1.3l-2.7-4l1.3,5.3h-2.7l-4-2.7l1.3,2.7
							l-2.7,1.3v-4l7.5-4l2.7-4l5.3-2.7l6.7-1.3l4,4v-2.7l5.3,1.3l-4-2.7l2.7-5.3l12.9-6.7h4v-4l5.3-4l4-4l4,1.3l-4-1.3l1.3-6.7
							l4-1.3l-4-1.3v-4.4l7.5-10.2l-2.7,4l-12.9,2.7l-1.3-1.3v-4l5.3,2.7l-5.3-5.3v2.7l-1.3,2.7l-1.3-1.3v2.7h-1.3l1.3,4l-1.3,1.3
							h-1.3l-5.3-7.5l-4,2.7l-4-4l-12.9,6.7l-5.3-1.3l5.3-1.3l-1.3-4l2.7-1.3h-5.3l1.3-4l2.7-1.3l-5.3-8.9v-2.7l-1.3,1.3l1.3-6.7
							l2.7-1.3l-4,1.3l-2.7,4v5.3l-10.2,2.7h-5.3l-1.3-1.3l1.3-1.3l-10.2-6.7l2.7-1.3h-5.3L-2516.7-238.6z M-2406.8-190.7l-4-2.7
							l2.7-1.3L-2406.8-190.7l2.7-1.3l-1.3-2.7h4l-2.7-1.3l5.3,1.3l-1.3,2.7l4-2.7l1.3,1.3l-1.3,1.3l4,1.3l-2.7,2.7l-6.7-1.3l4,2.7
							h-5.3l1.3,1.3h-2.7l-4,2.7l1.3,1.3l-4,2.7h-1.3l2.7-5.3l-2.7,2.7v-2.7l-2.7,4l-2.7-5.3l-2.7-1.3l6.7-5.3l5.3,6.7l-2.7-5.3
							L-2406.8-190.7L-2406.8-190.7z M-2428.9,248.8l5.3,2.7l4,5.3l-7.5,6.7l-2.7-2.7l-1.3-6.7l2.7-2.7v-2.7h-0.5V248.8z
							 M-2204.1-159.7l-1.3-1.3l2.7-2.7h-5.3l2.7-2.7l-1.3-4l-4-2.7h5.3v4l5.3,1.3l4,6.7l-4-1.3l5.3,4l-1.3,1.3l2.7-1.3l-2.7,4h2.7
							l-1.3,4l-5.3-2.7v-4v1.3l-6.7-2.7L-2204.1-159.7z M-2578.8-277.6h-7.5l-1.3-1.3l1.3-5.3l1.3,4l12.9-1.3l7.5,5.3l7.5,1.3
							l-1.3,1.3h-5.3l-2.7,4l-1.3-2.7l-7.5-4l-2.7-1.3H-2578.8z M-2236-193.4h-1.3v-2.7l4,1.3l-4-2.7v-2.7l2.7,2.7l4-2.7l2.7,1.3
							l-2.7,2.7l4-2.7l4,1.3v2.7l-2.7-1.3l2.7,2.7h-1.3l-7.5-2.7l5.3,4l4-1.3l1.3,5.3l-10.2-5.3l2.7,4l-2.7,1.3L-2236-193.4z
							 M-2530.9-232.4l4,2.7l1.3,4l-6.7,2.7l1.3,1.3l-12.9-6.7L-2530.9-232.4z M-2219.6-189.8l-4-12.9l2.7,4h5.3l2.7,5.3v1.3l-4-5.3
							v2.7l4,5.3h-1.3l1.3,2.7l-2.7-1.3l1.3,2.7l-4,2.7l-1.3-2.7l2.7-1.3L-2219.6-189.8h2.7H-2219.6z M-2511.4-149.5l-5.3,4
							l-2.7-2.7l4-5.3l7.5-1.3h2.7l1.3,2.7l2.7,2.7L-2511.4-149.5L-2511.4-149.5z M-2224.5-176.5v-4h-2.7v-5.3l-2.7-1.3h1.3v-2.7
							l5.3,2.7l4,8.9l-1.3,7.5l-4-5.3l2.7-2.7L-2224.5-176.5z M-2187.2-159.7v-4V-159.7h-1.3v1.3l-1.3-2.7v2.7l-2.7-2.7l1.3-5.3
							l4-1.3l4,4l-1.3,4l-1.3,2.7h-1.3l1.3-2.7l-2.7,1.3L-2187.2-159.7z M-2540.2-135.3l2.7-1.3l-4-1.3l1.3-2.7h4v1.3l2.7-1.3
							l1.3,1.3l-4,2.7h4l-5.3,2.7l-10.2,2.7L-2540.2-135.3z M-2204.1-181.9v5.3l-4-4l2.7,5.3l-4,1.3l-1.3-6.7h-2.7h1.3l-2.7-2.7
							L-2204.1-181.9z M-1620.9,26.1l4-2.7l8.9-1.3l4-1.3l-4,2.7l7.5-2.7l-16.9,6.7L-1620.9,26.1z M-2401.9-197.4l-2.7-2.7l4,1.3
							l-2.7-1.3l4-1.3l1.3-2.7l6.7,2.7l-1.3,2.7l-1.3-1.3v1.3L-2401.9-197.4z M-2215.6-173l-1.3-1.3h2.7v-1.3l-2.7-1.3l-1.3-4h4v4
							l2.7-2.7v2.7h-1.3v6.7l-1.3-2.7l-1.3,4L-2215.6-173L-2215.6-173z M-2342.5-229.7l-5.3,6.7h-4l6.7-7.5L-2342.5-229.7z
							 M-2547.8-134l-12.9,8.9l5.3-6.7h2.7v-2.7h4.9V-134z M-2435.1,246.1l-2.7-4l1.3-1.3l5.3,2.7L-2435.1,246.1z M-2449.8,238.1
							h-2.7l-1.3-2.7l2.7-1.3l2.7,4H-2449.8L-2449.8,238.1z M817.3-123.8l-4-2.7l1.3-1.3h5.3l2.7,2.7L817.3-123.8z M-2197.4-167.7
							l-4-4l2.7-1.3l1.3,1.3l2.7,1.3v2.7H-2197.4L-2197.4-167.7z M-2618.7-114.4l7.5-2.7l-2.7-1.3l2.7-1.3l2.7,1.3l-2.7,2.7
							L-2618.7-114.4z M-2464.9,231.9l-4-1.3l1.3-1.3h4L-2464.9,231.9z M-2205.4-157.5l4,7.5l-4-4l-1.3-2.7L-2205.4-157.5z
							 M-2591.7-229.7l-4-1.3l-4-2.7l1.3-1.3L-2591.7-229.7z M-2638.3-108.2l2.7-5.3h1.3l-1.3,1.3h2.7L-2638.3-108.2z
							 M-2196.1-171.7h-1.3v-1.3v-2.7l2.7,2.7h1.3l-1.3,2.7L-2196.1-171.7z M-2468.8-158.8v2.7l-4,2.7v-2.7L-2468.8-158.8z
							 M-2647.6-108.2l-4-4l4-1.3v1.3V-108.2z M-2478.2-159.7l2.7,2.7l-4,1.3v-2.7L-2478.2-159.7z M-2333.1-231.1l-5.3,1.3l1.3-1.3
							h-2.7l1.3-1.3L-2333.1-231.1z M-2202.8-179.2l2.7,2.7l-4,1.3L-2202.8-179.2z M-2206.3-170.3l-1.3,1.3l-4,1.3l2.7-2.7
							L-2206.3-170.3L-2206.3-170.3z M-2202.8-171.7l-1.3-2.7h4v1.3L-2202.8-171.7z M-2603.2-114.4l-6.7-1.3l11.5,1.3H-2603.2z
							 M-2644.9-109.6l5.3-4v2.7L-2644.9-109.6z M-2348.7-232.4l-1.3,4l-1.3-1.3l1.3-2.7H-2348.7z M-2528.3-141.9l-2.7-1.3l1.3-1.3
							l2.7,1.3L-2528.3-141.9z M-2188.6-157.5v2.7h-1.3v-4L-2188.6-157.5z M-2231.1-187.2l1.3,2.7l-2.7,2.7l1.3-2.7l-1.3-2.7
							H-2231.1z M879.4-105.6l-5.3-4l7.5,4H879.4z M-2481.7-206.2l4-1.3l-1.3,2.7L-2481.7-206.2z M-2101.6-68.3l1.3,1.3l-1.3,1.3
							l2.7,4l-4-4L-2101.6-68.3z M-2439.1,240.8l-5.3-1.3h5.3V240.8z M-2403.2-185.8l2.7,1.3l-5.3,1.3l1.3-1.3v-1.3H-2403.2z
							 M-2237.3-197.4v1.3v1.3l-1.3-2.7L-2237.3-197.4L-2237.3-197.4z M-2404.1-198.7l4,2.7l-5.3-1.3L-2404.1-198.7z M825.3-118.4
							l-2.7-1.3l4-1.3L825.3-118.4z M861.7-112.2l-1.3-1.3l4-2.7L861.7-112.2z M-2192.1-159.7l1.3,1.3v2.7L-2192.1-159.7z
							 M-2218.3-200h1.3h-2.7v-1.3L-2218.3-200z M-2440.5,243.4l-1.3-1.3h2.7L-2440.5,243.4z M883.4-112.2l-1.3-1.3h2.7L883.4-112.2
							z M-1565-17.8l1.3-1.3v1.3l-2.7,1.3L-1565-17.8z M-1632.4,251.4v1.3V251.4z M-1632.4,251.4v1.3h-1.3L-1632.4,251.4z
							 M-2105.6-75.9v1.3V-75.9z"/>
						<path fill="#ECA395" stroke="#FFFFFF" stroke-width="1" stroke-miterlimit="10" d="M-12.4,175.1l-1.3-2.7l1.3-5.3l-2.7-1.3
							l-5.3,4h-8.9l-5.3-4l-2.7,2.7l-1.3-2.7l-2.7,2.7l-2.7-4h-6.7l1.3-2.7h-4l-4-2.7l-2.7-5.3l-6.7,1.3l-2.7-5.3l-10.2-5.3
							l-1.3-2.7h-6.7l-1.3,4l-2.7-2.7l-7.5-4v-0.4l-4-2.7h-2.7l-5.3-5.3l-2.7,1.3v-7.5l-2.7-2.7l-1.3-4h4l1.3,2.7l6.7-4l-2.7-4
							l-2.7-3.5l-1.3-1.3V101l1.3-2.2l-6.7-2.7l-2.2-8v-2.7h-1.3l-10.2-1.3l-2.7-4l-4,1.3l-2.7-2.7l1.3-1.3l-1.3-5.3l-5.3-1.3v-1.3
							l-2.7-1.3h-5.3l-2.7-2.7h5.3l2.7-2.7l-2.2-1.8v-8.9l-5.3-2.7l-5.3,1.3l-1.3-4l1.3-1.3l-2.7-2.7l1.3-2.7l2.7-1.3l-1.3-2.7
							l1.3-2.7l8.9-4V27l4,1.3l2.7-2.7l1.3,4h6.7l5.3-7.5h12.9l2.7-4l18.2-7.5V8l-1.3-5.3l1.3-2.7h4l-2.7-2.7l4-1.3l-4-11.5v-6.7
							h1.3l-6.7-2.7l18.2-5.3l2.7,2.7h6.7v-4l-2.7-1.3l6.7-20.8l8.9,2.7h7.5l1.3,2.7l6.7-4l3-2.8l-2.7-7.5l2.7-6.7l8.9-1.3l2.7-7.5
							l4,1.3l5.3-1.3v2.7l-1.3,1.3l4,1.3l-1.3,2.7l5.3,1.3l1.3,2.7l5.3,2.7L0-62.1l8.9,11.5l1.3,5.3l-1.3,4v2.7L6.2-32l1.3,4
							l7.5,1.3l19.1,1.3l11.5,7.5l6.7,1.3L51-13.8l2.7,1.3l4,7.5l4,6.7h7.5l23.1,2.7l12.9-1.3l10.2,1.3l2.7,4l12.9,4h11.5v2.7l4,1.3
							l24.4-10.2h18.2l7.5-2.7l8.9-7.5l8.9-5.3l-5.3-7.5l5.3-7.5l5.3-1.3l4,4h7.5l8.9-7.5h11.5l5.3-4l4-6.7l7.5-1.3v-2.7h4l5.3-1.3
							l14.2,1.3l1.3-1.3v-2.7l-7.5-8.9l-5.3-5.3h-7.5l-4,5.3l-5.3-4h-6.7l-2.7,2.7l-4-2.7v-2.7l2.7-1.3v-4l8.9-16.9l11.5,4l6.7-5.3
							l7.5-1.3v-4h-2.7l8.9-16.9l7.5-6.7l0.4-2.7v-2.7l-6.7-1.3v-2.7l7.5-6.7l27.1-4l8.9,5.3l11.5,2.7v1.3l4,2.7v1.3l5.3,6.7
							l-1.3,1.3l5.3,8.9l-1.3,1.3l1.3-1.3v4l2.7,4l1.3,5.3l2.7,1.3l-1.3,5.3l4,4h7.5l4,2.7l4-1.3l7.5,7.5h4l-1.3,2.7l2.7,4l-1.3,2.7
							l4,5.3h14.2l6.7-5.3l4,1.3l8.9-5.3l2.7,2.7l-1.3,2.7l2.7,4l-6.7,5.3l-1.3,7.5l-1.3,2.7v2.7l-4,5.3v2.7l-4,2.7l-0.9,4l-11.5-4
							l-4,4l-5.3,2.7l4,8.9l-1.3,6.2l1.3,1.3l-1.3,6.7l-7.5,1.3l2.7,4l-4-4V0.4l-4-1.3l-1.3,6.7h-4l-4,5.3h-8.9l2.7,5.3l-1.3,2.7
							l-8.9-1.3l-2.7-4.4l-4,2.7l-4.9,7.5l-11.5,5.3l-5.3,4l-2.7,4h-7.5l-1.3,1.3l-15.5,7.5l1.3,1.3l-5.3,2.7l-1.3-2.7l6.7-2.7
							l-1.3-1.3l1.3-1.3l-5.3-2.7h2.7v-2.2l4-2.7l4-5.3l-2.7-4l-8-1.3L300,31l-8.9,4l-5.3,8.9l-6.7,1.8l-4-2.7l-4,6.7l1.3,4l4,2.7
							h7.5l1.3,2.7v6.7l2.7,2.2h5.3l1.3-2.7l7.5-6.7l8.9,5.3l5.3-1.3v1.3h4l1.3,2.7l-2.7,2.7h1.3v1.3h-2.7l-2.7-1.3l-4,2.7l-7.5,1.3
							l1.3,1.3l-1.3,1.3h-1.3v2.7l-4,1.3v-3.1l-2.7,1.3l2.7,2.7l-6.7,4l-5.3,7.5l12,6.7l6.7,15.5l-1.3,4l5.3,1.3l1.3,4l2.7,1.3
							l1.3,4l-8.9-2.7l-4-2.7l-4,1.3l-4-4.4l-1.3,1.3l5.3,4l4.9-1.3v1.3l10.2,6.7l1.3,4v1.3l-8.9,2.7l-1.3,2.7h-4l-2.7,1.3l4-1.3
							l2.7,2.7l5.3-2.7l4,4l4,1.3l-6.7,4l5.3-1.3v5.3h-1.3v-2.7l-1.3,1.3h-1.3l-1.3,1.3l2.7,1.3l-2.7,1.3l1.3,1.3l-4-1.3l2.7,2.7
							l1.3,4l-2.7,1.3l-1.3-2.7l-2.7,5.3l-4-1.3l2.7,1.3l-2.7,4l1.3,1.3l-1.3,2.7l-4-1.3l2.7,1.3l-3.5,0.9l1.3,4l-3,1.4l1.3-4
							l-1.3,2.7l-1.3-2.7l-2.7,1.3l2.7,2.7h-1.3v1.3h2.7l-5.3,4L286,188l2.7,1.3h4l-1.3,2.7H290l1.3,4l-2.7-2.7L286,196l2.7,1.3
							l-1.3,1.3l-4-1.3l1.3,2.7l-3.5,0.9l1.3,1.3l-1.3,2.7h-4v-1.3l-1.3,2.7l-2.7-1.3l2.7,2.7l-8.9,6.7h-2.7l-1.3,2.7h-2.7l2.7,1.3
							h-2.7v4l-6.7,1.3l-2.7-1.3v2.7l-4-1.3l-2.7,1.3v1.3l-2.7-1.3l1.3-1.3l-2.7,1.3l1.3,1.3h-4l1.3,1.3l-1.3,1.3l-4-1.3l1.3-1.3
							h-1.3l-2.7-2.7l-0.4-3.1l4-1.3l-4,1.3l-1.3,1.3l2.7,4v4l-4-4l1.3,4l-1.3,1.3l-1.3-1.3l-1.3,2.2l-1.3-1.3l-5.3,4l-3.5-2.7v1.3
							h-2.7l1.3,1.3l-1.3,1.3h-6.7l-5.3,4l-0.9-3.1l-1.3,5.3h1.3v2.7l1.3,1.3l-1.3,2.7h-4v-1.3l-2.7-5.3l2.7-5.3l-2.7-1.3l-1.3-2.7
							v2.7l-4,1.3v-1.3l-2.7-1.3v-1.3l-1.3,1.3l-2.2-2.2v2.7h-1.3l-1.3,1.3h-2.7l-2.7-1.3h-4l-6.7-4l-1.3-4l2.7-4l-1.3-1.3h-7.5
							l-5.3-4l-5.3,1.3l-1.3,4l-4,1.3l-1.8-1.3l-1.3,2.7l-2.7-2.7l-1.3,2.7l-2.7-2.7l-2.7,4l-5.3-4l-4,4l-4-1.3l-1.3,4l1.3,4
							l1.3,6.7h-5.3l-1.3-4l-1.3-2.7l-4,2.7l-4,1.3l-1.3-4v-2.7l-7.5-1.3l4-7.5l-1.3-1.3l-5.3-1.3l-3.1-9.3l2.7-1.3l-14.2,2.7l2.7-4
							l-2.7-2.7v-2.7l6.7-8.9h1.3l4-2.7l-1.3-2.7l1.3-1.3l1.3-6.7l-1.8-7.1l-2.7-1.3l-1.3,1.3l-1.3-6.7l-6.7-4l-1.3,4l-7.5-2.7
							l-2.7,1.3V162l2.7-2.7l-1.3-2.7l-2.7,1.3v-1.3l1.3-2.7l-2.7-2.7l-6.7,5.3l-7.1-3.5l-4,4l-2.7,4h-6.2l-1.3,4l-5.3,1.3l-1.3,3.5
							h-8.9v-1.3l-2.7-1.3l-2.7,1.3l-7.5-1.3l1.3-2.7h-4l-5.3,2.7L-12.4,175.1z M309.5,198.2l1.3-1.3l4,2.7l-1.8,1.3v4l-5.3,14.2
							l-6.2,12.9l-1.3-4l-2.7-2.7l-2.7-5.3l1.3-6.7l7.5-14.2L309.5,198.2z M204.9,256.3l-4,4v4l-4,4h-2.7l-1.3,1.3l-10.2-2.7v-7.5
							l6.7-5.3H188l1.3-1.3l1.3,1.3l1.3-2.7l10.2-1.3l4,1.3v4L204.9,256.3z M306.9,127.3l6.2,2.7h-2.7L306.9,127.3z"/>
						<path fill="#A23520" stroke="#FFFFFF" stroke-linecap="round" stroke-linejoin="round" stroke-miterlimit="10" d="M192.9,431
							l-1.3,1.3l1.3,4l8.9,6.7l6.7-1.3h5.3l6.7-5.3h5.3l6.7,4l2.7-2.7h6.7l4-5.3l-1.3-2.7l4-2.7l-1.3-1.3l1.3-2.7l2.7-1.3l2.7-10.2
							l1.3-2.7h14.2l2.7,1.3l-1.3,1.3l4,4H267l4,2.7l-1.3,1.3l4,1.3v4l4,4l-2.7,2.7l1.3,2.7l10.2,7.5l-1.3,2.7h-5.3l-4-4l1.3,4h-2.7
							l-4,6.7v6.7l2.7-1.3v4h-4l-4,5.3l-1.3-2.7v2.7l-5.3,5.3h2.7l-1.3,2.7l2.7,1.3l-1.3,4l-1.3-1.3l-1.3,5.3l-2.2-2.7l1.3,2.7
							l-2.7,5.3l-12.9,5.3v-5.3l-2.7-3.1h-2.7l-5.3,1.3v-4l-2.7,1.3l-2.7-2.7l-4,4l-4-1.3l-4,2.7l-1.3-7.5l-2.7,2.7l-0.4-1.3
							l-5.3,2.7l-1.3-1.3l2.7-1.3l-4,2.7v-2.7l-4,1.3l-1.3-8.9l-1.3-2.7l1.3-5.3l-4-4h-4v-2.7l2.7,1.3l-4-2.7v-6.7l-1.8-0.9v-5.3v-4
							l4-2.7l-2.7,2.7v-4L192.9,431z M58.5,410.2l-6.7-6.7L51,396h2.2l7.5,4h11.5l4,4l1.3,2.7l2.7,1.3v2.7l16.9,12.9v2.7V425
							l1.3,2.7l1.3-2.7l1.3,4l5.3,5.3l-1.3-4h2.7l4,5.3l6.7,4l4,5.3l4,1.3l2.7,2.7l-5.3,2.7l-1.8-2.2l1.3,1.3l7.5-4l2.7,2.7l1.3,2.7
							l-5.3,2.7h2.7l-1.3,1.3h1.3l-1.3,2.2l4,4h5.3l1.3,6.7v2.7l4,1.3l-2.7,6.7l2.7-5.3l7.5,1.3l1.3,5.3l2.7,1.3v2.7l-2.7,4l1.3,1.3
							l-1.3,4l1.3,4l-1.3,12.9l-5.3-4l-1.3,2.7l-5.3-2.7l1.3,4h-1.3l-6.7-7.5l-15.5-10.2l-1.3-4l-6.7-4l-6.7-8.9v-4l-6.7-11.5
							l-6.7-8.9l-4-2.7l-4-13.3l1.3-1.3L75.2,430l-1.3-6.7l-7.5-7.5l-4-1.3L58.5,410.2z M502,477.6V514l-1.3,4l1.3,2.7v22.2
							l-10.2-8.9l2.7-4l-2.7,2.7l-5.3,1.3l-1.3-1.3l-4,2.7v-2.7l2.7-5.3l-5.3-4h6.7h-4l-2.2-3.1h5.3l-4-2.7l-2.7-2.7l-2.7-6.7
							l1.3-1.3l-2.7,1.3v-4l-5.3-2.7l-16.9-6.7h-6.7l-5.3-2.7v-2.7h-5.3V489l-5.3-2.7l1.3-5.3l-3.1,8l1.3,1.3l-2.7,1.3h-4l-1.3-4
							l2.7-1.3l-1.3-2.7l-8.9-5.3l4-1.3l4,2.7l5.3-5.3l4,1.3v2.7l2.7-4v-1.3h-1.3l1.3-1.3l-2.7,1.3h-13.3l-2.7-1.3l-1.3-4l-8.9-2.7
							l2.7-4v-2.7l5.3-1.3l6.7-2.7l8.9,4h6.7l2.7,5.3l-2.7,4l1.3,2.7v4l2.7,5.3v-4h2.7l1.3,7.5l5.3,1.3l5.3-4l5.3-7.5l7.5-1.3V469
							l6.7-4l19.5,8.9h4l5.3,1.3v1.3h0.9V477.6z M323.7,443.9l2.7-1.3l7.5,1.3l6.7-4v-1.3l4-4l2.7,2.7l-8.9,10.2l-7.1,1.8h-4
							l-2.7-2.7l-12.9,1.3l-1.3-1.3l-5.3,1.3l-5.3-1.3l-2.7,1.3l-2.7,6.7l1.3,4l4,2.7l1.3,5.3h4l5.3-6.7l4,1.3l2.7-1.3h6.7l-1.3-1.8
							l2.7-1.3l4,1.3l-1.3,4l-1.3-1.3h-4l-4,5.3l-5.3,2.7l-1.3,2.7l-4-1.3v1.3l4,2.7l5.3,6.7v1.3l2.7,1.3l-1.3,1.3l-1.3,2.7l4,4v2.7
							l2.7-1.3v4l-7.5,1.3v2.7h-1.3l-5.3-2.7l1.3-6.7l-6.7-5.3l1.3-4v-4l-2.7-1.3l-6.7,4l2.7,2.7V498l-1.3,4l1.3,5.3l-1.3-1.3
							l-6.7,2.7l-2.7-4l2.7-10.2l-1.3-7.5l-2.7-1.3l-2.7,1.3l-0.9-6.7l-1.3-1.3l4-2.7l1.3-5.3h1.3v-6.7l1.3-4l2.7-2.2l1.3,2.7
							l-1.3-8l-1.3-1.3l1.3,1.3v-3.5l5.3-6.7l2.7,1.3l2.7-5.3h1.3l6.7,2.7h8.9L323.7,443.9z M165.9,512.2l1.3-2.7l2.7,1.3l2.7,2.7
							h6.7l5.3,5.3l15.1,1.3l4-5.3h1.3l2.7,2.7h4l5.3,2.7h5.3v2.7h2.7v4l5.3,2.7l6.7-2.7l2.7,2.2v6.7l1.3,2.7l-12.9-5.3l-5.3,2.7
							l-8.9-2.7l-1.3,1.3l-23.1-6.7l-10.6,1.3l-7.5-4l-10.2-1.3l1.3-4l-12.9-1.3h2.7l5.3-8.9L165.9,512.2z M373,455.4l-2.7-1.3
							l-1.3-8.9l1.3-2.7l-2.7-2.7l2.7-6.7l4-4l-1.3,2.7l1.3,2.7v4l-4,4l2.7,1.3l2.7-4v-2.7l5.3-1.3v5.3l-4,2.7l4,2.7v1.3l2.7,1.3
							l-10.2-1.3v4l5.3,8.9l-4.9-2.7L373,455.4z M373,486.5v-4l2.7-2.7l10.2,1.3l4-2.7l7.5,2.7l5.3,5.3v4l-10.2-6.7h-4v2.7l-5.3-1.3
							v-1.3l-5.3,1.3l-2.7-4L373,486.5z M274.5,538.4l4-1.3l-6.7-4l2.7-1.3l4,2.7h2.7l1.3,1.3v-1.3h2.7l1.3,4h-4l2.7,1.3h-5.3V537
							l-2.7,2.7l-7.5,1.3l-4,1.3L263,541v-4l4-2.7h3.5L274.5,538.4z M339.3,541.9l5.3-1.3h1.3l-1.3,2.7l1.3,1.3l-6.7,7.5l-8.9,2.7
							l-1.3-2.7l3.5-0.9h-2.7l1.3-4l4-2.7h2.7L339.3,541.9z M322.4,537l-16.9,4l-5.3-2.7l-6.7,1.3l-1.3-1.3l1.3-2.7l6.7-2.7l8.9,4
							l5.3-1.3l2.7,1.3l6.7-4h-1.3l1.3-1.3l1.3,2.7l-2.7,1.3V537z M158.3,480.3l-2.7-1.3l-1.3-5.3l-6.7-1.3l4-5.3h1.3l1.3,2.7V467
							h2.7l2.7,7.5l5.3,2.7l-3.1,3.1l1.3,2.7L158.3,480.3z M479,524.2l1.3,1.3l2.7,1.3l-1.3,5.3l-5.3,2.7l-6.7,1.3l2.7-8.9
							L479,524.2z M287.4,548.6l-2.7-2.7v-1.3l8.9-1.3l8.9,7.5l-1.3,1.3l-5.3,1.3l-5.3-5.3h-3.1v0.5H287.4z M356.1,482.5h7.5
							l1.3,2.7h1.3v2.7l-5.3,1.3h-1.3l-4.9-4L356.1,482.5z M240.8,531.7l5.3,1.3l1.3-1.3l5.3,2.7l-6.7,5.3l1.3-2.7l-5.3-2.7
							L240.8,531.7z M322.4,503.3l1.3-6.7l1.3-1.3l1.3,4L325,498v4l1.3,1.3l-5.3,4l-1.3-1.3L322.4,503.3z M259,533l4,1.3l-1.3,5.3
							h-7.5l2.7-1.3v-4L259,533z M75.4,446.6l-6.7-8.9h4l4,4L75.4,446.6z M172.5,478.9l1.3-1.3l1.3-1.3l4,4l-1.8,3.5l-2.7-2.7
							l-2.7,2.7v-4.9L172.5,478.9L172.5,478.9z M90.9,468.3l-1.3-1.3l-1.3,2.7l-2.7-1.3l-2.7-5.3l1.3-2.7h2.7L90.9,468.3z
							 M410.2,521.5v5.3l-4,4h-1.3l1.3-5.3L410.2,521.5z M225.3,520.2h11.5l-8.9,2.7h-5.3L225.3,520.2z M401.3,451.4l4,1.3l1.3,1.3
							l-2.7,1.3l-4-2.7l2.7,2.7h-4l-2.7-1.3L401.3,451.4z M321.1,503.3v1.3h-4l1.3-6.7l2.7-1.3V503.3z M339.3,468.3h7.5v1.3
							l-8.9,1.3L339.3,468.3z M353.5,527.7l6.7-1.3l2.7,1.3l-10.2,2.7L353.5,527.7z M447.9,458.1h4l5.3,5.3h-5.3l-1.3-4h-2.7V458.1z
							 M435.1,512.2l4,4l-4,4l-1.3-1.3L435.1,512.2z M369,465.6l2.7-1.3l4,4H369l-1.3-1.3L369,465.6z M369,454.1l1.3,2.7v1.3
							l2.7,1.3l-1.3,1.3l-2.7-1.3l-1.3-2.7v-1.3L369,454.1z M339.3,531.7h6.7v2.7l-7.5,1.3L339.3,531.7z M329.9,464.7l-3.5,2.2v-2.7
							l-2.7,2.7l-1.3-1.3l1.3-2.7h2.7v2.7l2.7-2.7L329.9,464.7z M438.6,510.9h-2.7l1.3-2.7h-2.7h1.3l2.7-2.7h1.3v5.3h-1.2V510.9z
							 M397.4,468.3v2.7l-2.7,1.3l-4-2.7L397.4,468.3z M257.7,483.8l1.3,6.7l-2.7,1.3l-1.3-4L257.7,483.8z M376.5,432.4v-4l2.7-2.7
							l1.3,4L376.5,432.4z M323.7,558.8l5.3-4v2.7l-2.7,1.3l-2.7,1.3v-1.3H323.7z M177.4,414.2l-1.3-2.7l2.7-1.3l1.3,2.7v2.7h-2.7
							l1.3-1.3L177.4,414.2L177.4,414.2z M447.9,467l14.2,2.7h-6.7L447.9,467z M404,460.7v2.7l-1.3,1.3l-2.7-4H404z M438.6,510.9
							l2.7,1.3l-2.7,2.7l-2.7-2.7l1.3-1.3L438.6,510.9L438.6,510.9z M127.3,443.9H122v-4L127.3,443.9z M328.6,537l-2.7-1.3l2.7-1.3
							V533l1.3,1.3l2.7-1.3h1.3L328.6,537z M62.5,428.4l-7.5-5.3h2.7L62.5,428.4z M115.3,432.4l-2.7,2.7l-1.3-2.7l2.7-1.3
							L115.3,432.4z M144.1,441.2l-1.3,2.7l-4-2.7l2.7-1.3L144.1,441.2z M348.1,469.6h8.9l-7.5,1.3L348.1,469.6z M146.3,455.4
							l-5.3-1.3l1.3-2.7L146.3,455.4z M194.2,462.1v1.3l-3.5,1.3l1.3-4L194.2,462.1z M333.9,534.4l4-1.3l-2.7,2.7h-1.3V534.4z
							 M141.5,455.4l1.3,1.3l-1.3,1.3l-2.7-1.3L141.5,455.4z M122,439.9l-1.3,2.7l-1.3-5.3L122,439.9z M361,412.9v-6.7l2.7,2.7
							L361,412.9z M122,437.2v1.3l-5.3-2.7L122,437.2z M101.1,483.8l-2.7-5.3l4,2.7L101.1,483.8z M128.6,442.6l-5.3-1.3l2.7-1.3
							L128.6,442.6z M325.1,490.5l2.7,1.3l-1.3,1.3l-2.7-1.3L325.1,490.5z M481.2,533v1.3H479L481.2,533z M99.8,478.9l-2.2,1.3v-4
							L99.8,478.9z M373.9,486.5h4l-2.7,2.7v-1.3l-2.2,1.3L373.9,486.5z M314.4,502v4l-1.3-2.7L314.4,502z M366.3,454.1v2.7H365
							v-2.7H366.3z M353.5,470.9l1.3,5.3l-1.3-4V470.9z M96.2,474.9l-2.7-1.3v-2.7L96.2,474.9z M437.3,513.5l1.3,1.3v1.3l-2.7-1.3
							L437.3,513.5z M401.3,534.4l2.7-2.7h1.3L401.3,534.4z M389.4,529h2.7l-1.3,2.7L389.4,529z M248.8,518.8l2.7,1.3l-2.7,1.3
							V518.8z M83.4,456.8h-2.7l1.3-2.7L83.4,456.8z M270.5,534.4V533l1.3-1.3L270.5,534.4z M435.1,510.9l1.3,2.7l-1.3-1.3V510.9z
							 M371.6,531.7l4,1.3h-1.3L371.6,531.7z M138.8,439.9l-1.3,1.3h-1.3L138.8,439.9z M325.1,533h2.7l-2.7,1.3V533z M120.6,506
							l-2.7-1.3h2.7V506z M274.5,410.2v1.3l-2.7-1.3H274.5z M312.2,556.5l2.7-1.3l-1.3,1.3H312.2z M420.4,507.3v4l-1.3-4H420.4z"/>
					</g>
				</g>
			</g>
		</g>
	</g>
</g>
</svg>
