<?xml version="1.0" encoding="utf-8"?>
<!-- Generator: Adobe Illustrator 18.0.0, SVG Export Plug-In . SVG Version: 6.00 Build 0)  -->
<!DOCTYPE svg PUBLIC "-//W3C//DTD SVG 1.1//EN" "http://www.w3.org/Graphics/SVG/1.1/DTD/svg11.dtd">
<svg version="1.1" id="Layer_1" xmlns="http://www.w3.org/2000/svg" xmlns:xlink="http://www.w3.org/1999/xlink" x="0px" y="0px"
	 viewBox="0 90 612 612" enable-background="new 0 90 612 612" xml:space="preserve">
<g id="graphic_copy">
	<g>
		<g>
			<g>
				<defs>
					<rect id="SVGID_1_" y="90" width="612" height="612"/>
				</defs>
				<clipPath id="SVGID_2_">
					<use xlink:href="#SVGID_1_"  overflow="visible"/>
				</clipPath>
				<g clip-path="url(#SVGID_2_)">
					<g>
						
							<path fill="#DDDDDD" stroke="#FFFFFF" stroke-width="1" stroke-linecap="round" stroke-linejoin="round" stroke-miterlimit="10" d="
							M612.4,667l1.3,1.3h-1.3h-2.2h1.3h2.2V667l2.2,4.9l1.3-2.2v2.2l1.3-2.2l-1.3-1.3l3.5,3.5v-1.3h1.3v-1.3l7.1,4.9l1.3,1.3
							l-3.5,1.3h1.3l-2.2,4.9h-3.5l4.9,2.2l2.2-2.2l8.4,1.3l1.3,2.2l-8.4,5.8l1.3,3.5l2.2,1.3l-3.5,2.2l-3.5,1.3v4.9l-2.2,2.2
							l5.8,5.8l1.3,2.2l-3.5,3.5l-2.2,1.3l-5.8,2.2H616l-2.2,1.3v3.5l-1.3,1.3l-4.9-3.5h-5.8l-1.3-1.3l-3.5-1.3l-2.2-1.3l5.8,7.1
							l1.3,9.3l5.8,1.3v2.2l-5.8,1.3l-1.3,3.5l-8.4,3.5l-4.9,4.9v-3.5l-7.1,2.2l-4.9-3.5l-2.2-10.6l-5.8-4.9l4.9-4.9l-3.5-3.5
							l-1.3-7.1v-7.1l3.5-5.8v-1.3l-3.5-1.3l-7.1,1.3l-4.9-1.3l-1.3,1.3h-1.3l-7.1-7.1l-4.9-1.3l-4.9,1.3l-7.1-1.3l-1.3-2.2
							l-3.5-1.3l1.3-5.8l-3.5-9.3l-2.2-1.3l-3.5,1.3l8.4-17.7l2.2-1.3l2.2-4.9l5.8-1.3l-5.8,2.2l3.5,8.4l-4.9,8.4l4.9,7.1l4.9-3.5
							v-3.5l-4.9-7.1l1.3-3.5l12.9-4.9h2.2v-2.2l-4.9,1.3v-2.2l2.2-3.5l3.5,7.1h7.1l3.5,2.2l3.5,7.1l16.4-2.2l3.5,4.9l7.1,1.3
							l8.4-3.5h3.5l-4.9-1.3v-1.3H619l-3.5,1.3h-5.8v1.3l1.3-1.3v1.3l-1.3,1.3l1.3-1.3L612.4,667z M600.9,661.2l-3.5-2.2l3.5,1.3
							l1.3-2.2v2.2L600.9,661.2z"/>
						
							<polygon fill="#DDDDDD" stroke="#FFFFFF" stroke-width="1" stroke-linecap="round" stroke-linejoin="round" stroke-miterlimit="10" points="
							610.2,592.9 608,593.8 608.9,592.9 						"/>
						
							<path fill="#DDDDDD" stroke="#FFFFFF" stroke-width="1" stroke-linecap="round" stroke-linejoin="round" stroke-miterlimit="10" d="
							M596,590.2l-1.3,1.3L596,590.2z"/>
						
							<polygon fill="#DDDDDD" stroke="#FFFFFF" stroke-width="1" stroke-linecap="round" stroke-linejoin="round" stroke-miterlimit="10" points="
							572.5,590.2 584.5,590.2 586.7,592.9 583.2,595.1 572.5,596.5 571.2,591.6 						"/>
						
							<polygon fill="#DDDDDD" stroke="#FFFFFF" stroke-width="1" stroke-linecap="round" stroke-linejoin="round" stroke-miterlimit="10" points="
							611.6,600.9 613.8,602.2 612.4,602.2 						"/>
						
							<polygon fill="#DDDDDD" stroke="#FFFFFF" stroke-width="1" stroke-linecap="round" stroke-linejoin="round" stroke-miterlimit="10" points="
							593.8,597.3 596,597.3 592.5,598.7 						"/>
						<path fill="#DDDDDD" stroke="#FFFFFF" stroke-width="1" stroke-miterlimit="10" d="M529.1,119.7v-1.3l3.5,2.2l-2.2,2.2
							l4.9,3.5l10.6,1.3l2.2,3.5l2.2-1.3V128l2.2,2.2l-3.5,4.9l1.3,5.8h-12l10.6,2.2l1.3,1.3l1.3,2.2l-2.2,2.2l1.3,1.3l-1.3,1.3
							l4.9,1.3L552,154h1.3l-1.3,4.9l-3.5-3.5l1.3,2.2l-3.5,1.3l3.5,2.2l4.9-3.5l8.4,1.3l1.3,4.9l-1.3,3.5l-9.3,4.9l8.4-3.5l3.5-7.1
							l2.2,3.5l-2.2,3.5l3.5-5.8v7.1l1.3-3.5l8.4-3.5l2.2-4.9l3.5,3.5l-1.3,3.5l2.2-3.5l-2.2-2.2l2.2-1.3h-1.3l5.8-2.2l-3.5-1.3
							l1.3-3.5l2.2,1.3l-2.2-2.2l4.9,1.3l-3.5-1.3l-1.3-3.5l2.2-1.3l2.2,1.3l-1.3-2.2l3.5-5.8l3.5,2.2l-3.5,2.2l3.5-1.3l-1.3,2.2
							l3.5-1.3l-1.3,3.5l2.2,1.3l-1.3,2.2l2.2-1.3l1.3,2.2h-2.2l5.8,2.2l-5.8,2.2h8.4h-2.2l1.3,1.3l-1.3,1.3h2.2l2.2,2.2l-7.1,4.9
							l3.5-2.2h5.8l-2.2,3.5l1.3,1.3l-5.8,2.2l8.4-2.2l-1.3,1.3h2.2l-3.5,1.3h4.9l2.2,4.9l-5.8,1.3l5.8,1.3l1.3,1.3l-2.2,1.3
							l5.8,2.2l-2.2,3.5h-2.2l2.2,2.2l-5.8-2.2l2.2,2.2h-1.3l4.9,1.3l-4.9,1.3l4.9,2.2l-3.5-1.3l5.8,1.3v2.2h1.3h-2.2l7.1,2.2
							l-1.3,1.3l2.2-1.3v3.5l1.3-2.2h1.3l-1.3,2.2h1.3l-1.3,2.2h2.2l-4.9,4.9l4.9-3.5l1.3,1.3l-2.2,2.2l4.9-3.5l1.3,1.3l-2.2,1.3
							h4.9l-4.9,4.9l7.1-5.8l-2.2,2.2l3.5-2.2l1.3,4.9l8.4,1.3l4.9,1.3l1.3,1.3l-3.5,1.3h2.2l-18.6,4.9l9.3-1.3l-14.2,4.9v3.5
							l-7.1-2.2l7.1,2.2l-3.5,1.3l3.5,1.3l2.2-2.2h-1.3l8.4-2.2l1.3-2.2l9.3-2.2l-4.9-1.3h8.4l3.5,4.9l-4.9,2.2h2.2v1.3l2.2-2.2
							l5.8-1.3l-2.2,1.3l5.8,1.3h-2.2l4.9,3.5v2.2l-3.5,1.3l2.2,1.3l-1.3,2.2l2.2,1.3h-7.1l8.4,2.2h-4.9l3.5,2.2v2.2l-10.6,7.1H659
							l-8.4,2.2v-2.7l-3.5,1.3v3.1l-8.4,5.8l-16.4,2.2l2.2-1.3l-8.4-1.3h-36.4l-5.8,4.9l-2.2,5.8L561,278l-9.3,10.6l-12.9-3.5
							l12,3.5l-4.9,7.1l-9.3,8.4l7.1-2.2l9.3-12l12-7.1l16.4-5.8l12-1.3l7.1,4.9l1.3,1.3l-3.5-1.3l3.5,2.2l-1.3,2.2l-9.3,4.9
							l-4.9-2.2L577,290h4.9l4.9,1.3l2.2,3.5l7.1-2.2l1.3,1.3l-2.2,4.9l-3.5,2.2h4.9l-1.3,2.2l3.5,7.1l5.8,1.3l-2.2,1.3l4.9,2.2
							l8.4,1.3l2.2,1.3l4.9-2.2v2.2h3.5l2.2,1.3l-1.3,1.3l3.5,1.3v1.3l-22.2,7.1l-1.3-1.3l1.3,2.2h-1.3H605V329l-2.2,2.2l-1.3-1.3
							v3.5l-10.6,8.4l-7.1-3.5l1.3-5.8l2.2-2.2l-3.5,2.2l15.1-10.6l3.5,3.5v-2.2l7.1-1.3h-14.2l5.8-5.8l-2.2,1.3l-2.2-3.5l2.2,2.2
							l-2.2,2.2l-9.3,4.9l-2.2-1.3l1.3-1.3l-2.2,1.3l1.3,1.3l-2.2,1.3l-7.1-1.3h-2.2v-3.5l-3.5-2.2v-15.1l-4.9-3.5l-4.9,2.2
							l-3.5-3.5l-7.1,9.3l-2.2,5.8v2.2l-4.9,8.4l-4.9-1.3l-1.3,3.5H505l-12.9,10.6l-3.5,4.9h-16.4l-4.9,1.3l2.2,7.1l-34.1,12.9
							l-3.5-3.5v-3.5l4.9-3.5l4.9-10.6l-4.9-18.6l-9.3-5.8l1.3-2.2l-4-2.7l-2.2,1.3l-2.2-4.9h-3.5l-2.2-4.9L382.8,287l-9.8,3.5
							l-12-1.3l-1.3-1.3l-4.4,2.7l-5.8-3.5l-3.5,1.3l-4.9-4.9l-8,1.3l-7.1-2.2l-1.3-7.1h-3.5v3.5h-170H72.3h-2.2l-2.2-2.7h3.5V274
							l-3.5,1.3l1.3-3.5l-3.5,3.5l-4.9-3.5l1.3-1.3l1.3,2.2l2.2-1.3h-2.2l-1.3-1.3l1.3-3.5l-1.3,1.3v1.3l-1.3-1.3l-2.2,2.2l-4.9-3.5
							l1.3,1.3l1.3-3.5L55,263l3.5-1.3l-7.1,1.3l2.2-7.1l-2.2,5.8h-3.5l0.9-3.1l-2.2,3.5l-5.8-1.3v-1.3h4.9l1.3-1.3l1.3-2.2
							l-1.3-1.3l-1.8,4l-3.5-1.3h-2.2l2.2-1.3h-9.3l2.2,1.3l-4.9-2.2h3.5l4-0.9l-4.9,1.3l-4.4-1.3l5.8-2.2h-5.8l2.2-3.5h7.1h1.3
							l-1.3-2.2v2.2h-1.3H31v-2.2l-2.2,4.9l-2.2-3.1v-3.5l5.8-4.9l4.9,3.5l-2.2-3.5h2.2l-4.9-1.3l2.2-3.5v-1.3l-5.8,5.8l-2.2,1.8
							v-3.5l-1.3,2.2v-1.3l1.3-1.8l-4.9,3.5l1.3-1.3l1.3-5.8l-2.2,1.3l-1.3-3.5l-2.2-2.2l-1.3-3.5l3.5,2.2l3.5-1.3l2.2,3.5l-2.2-3.5
							l-5.8-1.3v-2.2l2.2-1.3h-1.3v-2.2l-4.9,4.9l-1.3,3.5l-7.1-7.1v-2.2l5.8-1.3l-5.8,1.3l-3.5-2.2L4,212l3.5,3.5L4,212h4.9
							l-3.5-1.3l1.3-1.3l4.9-2.2L8,205.7l4.4-4.9L8.9,200v3.5L6.7,207l1.3-3.5l-1.3-5.8l1.3-2.2l-1.3-2.2l-15.5-6.7v-2.2l-2.2-1.3
							v-2.2h-2.2l1.3-2.2l-10.6-16.4l-14.2-10.6l-1.3-1.3l1.3-2.2l-4.9-3.5l-8.4,3.5l1.3,1.3H-51v4.9h-2.2l-5.8,2.2l-1.3-3.5
							l-14.2-12l1.3-3.5l-8.4,2.2l-9.3-1.3V0.9l16.4,2.2l16.4,9.3l18.6,4.9l-3.5-3.5l7.1-1.3L-31,16h1.3l-4.9-4.9l4.9-3.5l9.3-3.5
							l2.2-3.5h4.9l-2.2-1.3l3.5,1.3l7.1-4.9l2.2,2.2L-0.5-7L3-8.3l5,2.1l2.2-3.5l2.2,2.2v1.3L-0.4,0.9h-1.3l-8.4,1.3L-11,5.7
							L-16.9,8l-1.3,3.5l-5.8,2.2l5.8,2.2l-4.9-2.2l8.4,1.3l-2.2-1.3l-1.3-3.5l4.9-2.2l1.3,1.3l3.5-2.2l-1.3-1.3l3.5-1.3H-5
							l-1.3,2.2L-4,3.1v3.5l1.3-1.3V3.1L-4,1.7L-2.7,3v2.2V3.1V1.7V3v3.5L-0.5,3v5.8L0.9,4l3.5-3.5l12.9-4.9v2.2h-2.7V0h2.2l5.8-4.9
							l-1.3-2.2l8.4-1.3L23.9-12l1.3-3.5l7.1,5.8l8.4,12l8.4,3.5l2.2-2.2h-4.9h4.9l-2.7-2.7l4.9-1.3L50-1.7l5-3.6L51.4-4l5.8-1.3
							L55-6.7l3.5,1.3l-1.3,4.9l3.5,1.3l-3.5,4.9h9.3l2.2-2.2L71-1.4l16.4,2.2l7.1,4.9l28.4,8.4l10.6,1.3l-3.5-2.2l4.9-1.3l8.4,2.2
							l7.1,5.8l1.3,3.5L141,24.8V27l-4,0.9l4.9,2.2l23.5,2.2l12.9-2.2l8.4-3.5l3.5,4.9h5.8l2.2,5.8l1.3-4.9l1.3,4.9l1.3-1.3l3.5,2.2
							l1.3,3.5l-7.5-1.8l12.9,12.9l-4.9-9.3l1.3-2.2l1.3,2.2h-2l1.3,1.3l1.3,1.3v-2.2l3.5,2.2l-4.9-8.4v-2.2l-3.5-3.5l3.5-3.5
							l-2.2-2.2l4.9,1.3l5.3-4l2.2,1.3v-2.2l5.8-1.3l1.3-3.5l-8.4,2.2v3.5l-2.2-2.2l-3.5,2.2l-5.8-1.3l2.2,2.2l-7.1,1.3v-2.2h-3.5
							l3.5-5.8l20-4.9l5.8,3.5l1.3,3.5l-1.3,1.3l5.8,1.3l-0.9,0.9h3.5l1.3,3.5l9.3-2.2V27l10.6,4.9l16.4-2.2l12.9,2.2l5.8-1.3
							l-3.1-2.7l1.3-2.2l9.3,8.4l3.5-1.3l-1.3-4.9l-3.5-1.3l-3.5,3.5l-5.8-8.4h8l-2.2-3.5l7.1,1.3l2.2,3.5l4.9-1.3l-2.2,4.9L314,23
							l-2.2,9.3l-2.2,2.2h3.5l-1.3,3.5l1.3,1.3l4.9-3.5l-3.1,4h3.5l1.3,3.5L309.1,42l7.1,5.8v-1.3l-3.5-3.5h7.1v-3.5l1.3-1.3
							l-1.3-1.3v-2.2l-3.5-3.5l2.2-4.9h5.8l10.6-8.4l-1.3-1.3l1.3-3.5l-1.3-2.2h-2.2l-1.3,2.2h2.7l-2.2,1.3h-4.9v-2.2l4.9-3.5h-2.2
							l1.3-2.2l5.8-2.2l-2.7,5.3l4.4-3.5H335l1.3-2.2l-7.1,1.3l-3.5-3.5L323.5,3L314,0.4l-4.9-5.8l-1.3-3.5l3.5-3.5h3.5l-2.2-1.3
							l2.2-1.3l-3.5,1.3l-3.5-2.2l2.2-5.8h-2.2l1.3-2.2l3.5-2.2l3.5,2.2l2.2-1.3l-4.9-4.9l12-3.5l-4.9-2.2h5.8v2.2H325l2.2,1.3v1.3
							l5.8-1.3l-0.4,1.3l8.4,4.9l1.3,3.5l-1.3,4.9l7.1,3.5l2.2,5.8l1.3-1.3l2.2,2.2h-7.1l-1.3,2.2h4.9L341,0.4h5.8l4.9,2.2l4.9-2.2
							L353,2.6L365,4h-3.5l1.3,1.3h-2.2v2.2l-6.7-1.8l9.3,8.4l-1.3,5.8l3.5,3.5l3.5-7.1l1.3-4.9l3.5-3.5l9.3,4.9l2.2,2.2l1.3,7.1
							l-1.3,2.2l-2.2-2.2l-1.3,1.3v4.9l2.2,4.9L391,39l-2.2,2.2l5.8-2.2l-1.3-1.3l1.3-1.3l3.5,1.3v-4.9L404,27l2.2-10.6h7.1
							l-3.5-2.2h2.7l-1.3-1.3l4.9-1.3L409,9.4L406.8,1l2.2-2.2l-2.2-1.3l30.6,4.9h-3.5l1.3,1.3H428l9.3,2.2L435.9,8l9.3,1.3
							l-7.1,4.9h5.8l1.3,3.5l-5.8,3.5l-5.8-1.3l3.5,3.5l-1.3,1.3h3.5l-2.2,2.2l1.3,2.2l7.1,7.1l-2.2,5.8l-3.5,1.3l-5.8,5.8l-7.1,3.5
							l-5.8-3.5l1.3-4.9l-3.5,2.2l-1.8-0.9v-2.2l-4.9-1.3l2.2,1.3l-4.9,1.3l5.8-1.3l-1.3,1.3l1.3,1.3H414l4.9,1.3l4.9,7.1l-1.3,1.3
							l-7.1-3.5l-1.3,1.3l2.2,2.2l-7.1-1.3l-1.3-5.3h-12l1.3,3.5l7.1,2.2l-10.6,10.6l-2.7,2.2l-5.8-1.3l-8-3.1h3.5l-10.6-4.9h-3.5
							l2.2,1.3l-15.1-1.3l14.2,2.2l8,7.1l17.7,1.3l0.9,2.2l-10.6,12.9l-5.8,2.2l-4.9-2.2l2.2,3.5l-4.4-2.2v2.2l-2.2-2.2V83l-2.2,1.3
							l2.2,3.5l-4.9-1.3l3.5,2.2l-2.2,3.5L347.5,90l-14.2-5.8l1.3,0.9l-1.3,1.3l1.3,2.2h3.5l-1.3-2.2l10.6,4.9l-3.5,2.2L351,90
							l8.4,4.9l2.2,4.9l-7.1,4.4l-9.3-1.3l4.9,3.5l-7.1,1.3l1.3,4.9l-4.9-2.2l2.2,2.2l-5.8,2.2h2.2l-1.3,0.9h-2.2l3.5,2.2l-7.1,3.5
							l1.3,1.3l-7.1,12l-1.3,7.1l1.3,8.4l-1.3,3.5l3.5,5.8l1.3-1.3l-1.3,7.1l2.2-7.1h8.4l7.1,18.6l-4.9,5.8l18.6-4.9L377,184
							l8.4,4.9l3.5,4.9l16.4,4.9l5.8,3.5l-3.1,4.4l4.9-3.5l23.5,2.2l1.3,3.5l-2.2,5.8l3.5,7.1v5.8l-2.2,3.5l7.1,7.1l-4.4,2.7h4.9
							l7.1,5.8l2.2,4.9l-5.8,3.5l5.8-3.5l5.8,2.2l3.5,4.9l-2.2-2.2l-1.3-3.5l3.5-4.9l2.2,2.2l2.2,3.5v-5.8l-2.2-1.3l4.9-4.9v-3.5
							l-2.2-1.3V232h-1.3v-5l-1.3-2.2l1.3-1.3l-2.2-1.3l2.2-1.3l-1.3-1.3l1.3-1.3l-0.9,0.4v-1.3h-2.2l-2.2-5.8H460l17.7-8.4l9.3-9.3
							l1.3-4.9v-10.2l-3.5-7.1l-4.9-5.8l-9.8-4.9l1.3-1.3l-1.3-3.5h2.2l5.8-5.8h-2.2l1.3-2.2V146l3.5,2.2l-1.3-2.2l1.3-1.3l-1.3-1.3
							l7.1-3.5l-8.4,1.3l1.3-1.3l-2.2-3.5l2.2-1.3l-3.5-1.3l3.5-2.2h-5.8l3.5-5.8v-2.2l2.2-2.2l-4.9-2.2l-1.3-7.1l7.1-4.9l15.1,3.5
							l-2.2,2.2l5.8-2.2l5.8,3.5l-1.3-2.2l9.3-3.5l9.3,5.8l-1.3,3.5h4.9L529.1,119.7z M601.8,38.6l-8.4-1.3l4.9,1.3l-4.9,1.3
							l7.1-1.3l-5.8,3.5l9.3-3.5l1.3,1.3l-2.2,3.5l5.8-5.8l1.3,1.3l-2.2,2.2v2.2l-4.9,2.2l2.2-1.3l1.3,2.2l1.3-2.2l3.5-1.3l-1.3,4.9
							l3.5-4.9l2.2,3.5l-1.3-3.5l3.5-1.3V43h2.2l4.9,4.9h-8.4l5.8,2.2l-4.9,1.3h4.9l-3.5,2.2l-4.9-2.2H612l3.5,1.3l-2.2,1.3l5.8,3.5
							l-9.3-2.2l5.8,4.9l-4.9-1.3l2.2,2.2h-2.2l1.3,2.2l-2.2-2.2v2.2h-2.2l-2.2-3.5l1.3,2.2h-3.5l3.5,1.3l-2.2,1.3l2.2,1.3h-2.2
							l2.2,2.2l-1.3,5.8l-3.5-1.3l1.3-1.3l-5.8-2.2l1.3-3.5l-2.2,4.9h-1.3l-2.7-2.7l2.2-1.3h-2.2l4.9-1.3l-5.8,1.3l-1.3-1.3l4.9-2.2
							l-5.8,1.3l4.9-2.2l-5.8-1.3l1.3-2.2l4.9-1.3l1.3-3.5l-7.1,3.5H584l4.9-5.8l-4.9,4.9l-3.5-1.3l-2.2-2.2l1.3-1.3h-2.2l-1.3-2.2
							l-2.2,1.3l-6.2-1.3l4.9,2.2h-2.2l2.2,1.3l-1.3,1.3l-5.8-3.5l7.1,7.1V59l-5.8,1.3l-2.2-3.5l-1.3-1.8h-5.8l7.1,1.3l-2.2,2.2
							l4.9,2.2l-2.2,4.9l7.1-2.2l-1.3,1.3l3.5,1.3l-3.5,1.3l4.9,2.2l-2.2,2.2l3.5-2.2v7.1l1.3-4.9l4.9,2.2l-2.2,2.2l2.2-1.3l1.3,2.2
							l-1.3-3.5l2.2,1.3v1.3h1.3l-1.3,2.2v1.3h5.8l-1.3,2.2h-4.4l4.9,1.3l1.3,2.2l-1.3,1.3h4.9l-2.2,2.2l3.5,2.2v5.8l-7.1-8.4
							l3.5,8.4h-2.2l1.3,1.3l3.5,3.5l-5.8-1.3l3.5,4.9l-2.2,1.3L589,103l-8-4.9l1.3,3.5l-2.2-1.3l-2.2-4.9l-1.3,1.3l2.2,3.5h-1.3
							l-1.3-3.5l-1.3,1.3l-1.3-1.3v-2.2l-1.3,2.2L565,90l2.2,5.8l-8.4-5.8h-3.5l8.4,8.4l3.5,1.3l-1.3,2.2l2.2-2.2l-0.4,2.2l2.2-1.3
							l7.1,5.8l2.2,2.2l-1.3,1.3l1.3,1.3l3.5,1.3l-1.3,1.3l1.3,2.2l-23.5-4.9l-7.1-4.9l-2.2-1.3l1.3-1.3h-7.1l-8.4-3.5l2.2-2.2
							l-2.2,2.2l-4.9-2.2l-1.3-3.5h-1.8h4.9l3.5-2.2h-3.5v-1.8l-2.2-1.3l-1.3,2.2h-3.5l1.3-3.5l-2.2,1.3l-1.3-3.5l-1.3,1.3l-1.3-2.2
							l-4.9-1.3v-3.5l2.2-2.2L511,79v3.5l-0.9-6.2l-2.2,2.2l-3.5-2.2l2.2-1.3l-0.9-0.9l-3.5,1.3l4.9,3.5l-2.7,2.2l-9.3-3.5l1.3,2.2
							H494l2.2,1.3l-9.3,1.3v2.2l-9.3-2.2l-3.5-3.5v-5.8l7.1-3.5l-1.8-1.8l2.2-1.3l-1.3-1.3l14.2,3.5l2.2,1.3l1.3,1.3l-2.2,1.3
							l2.2,3.5V74h-1.3l3.5-3.5l-2.2,2.2l-1.3-2.2l-3.1-2.7l7.1,1.3v-2.2h5.8l2.2-2.2l5.8,1.3l-1.3-4.9l-7.1-5.8l12-8.4l3.5-4.9
							l4.9-2.2l-3.5-9.3l-2.2-2.2l-1.3-3.5l-4.9-1.3l3.5-2.2l-4.9,2.2l-1.3-1.3v-5.8H510l2.2,2.2l-1.3,1.3l-3.5-1.3l-3.5-2.2
							l1.3-2.2l-2.2,1.3l1.3-2.2H502l3.5-1.3l-2.2-1.3l-2.2,3.5l-3.5-2.2l-9.3,4.9L487,12h7.1l2.2-1.3V8.4L487,3.5l4.9-2.2h-9.3
							l3.5-1.3l-4.9-1.3l3.5-2.2L479,0v-7.1h-7.1v-2.2l-6.2-2.7l3.5-1.3l-3.5-2.2l-1.3,4.9h-3.5l5.8,1.3l2.2,7.1l-9.3,1.3l-17.7-4.9
							l8.4,4.9L449,0.4l-7.1-3.5l-3.5,3.5l-8-4.4h-25.7l-5.8-4.9l1.3-4.9l-2.2,3.5l-4-1.8l-1.3,1.3l1.3,2.2h-8.4l-8.4-4.9l-4.4-5.8
							l2.2-1.3l-3.5-1.3l14.2,2.2l8.4-1.3l-7.1-4.9l-16.4-1.3l-2.2-1.3l-1.3-3.5l2.2-2.2l-2.2-2.2v-2.2l4.9-2.2h-3.5v-3.5l3.5-4.9
							v-2.2l2.2,1.3l-1.3-4.4l3.5-3.5l8.4-7.1l9.3-3.5l20,1.3l-9.3,7.1L396-49.7l4.9,4.9l-1.3,7.1l2.2,4.9l12,8.4L396-19.5l16.4-3.5
							l1.3,2.2h-2.2l2.2,2.2V-27l2.2-1.3l-1.3-3.5h-5.8l-5.8-5.8h4.9v-3.5h3.5l8.4,5.8l-7.5-5.8l4.9-2.2l-5.8,1.3l-6.2-5.3v-4.4
							l2.2-1.3l14.2,3.5l-8.4-3.5l-5.3-1.3l1.3-2.2l15.1,2.2l-12.9-3.5V-60l7.1,2.2L415-60l4.9-2.2l4.9,3.5v-2.2l-3.5-1.3l2.2-1.3
							l8.4-3.5l12,1.3l2.2,3.5l1.3,3.5l4.9,2.2v3.5l3.5,3.5l-10.6,8.4l8.4-4.9v2.2l-3.5,3.5l2.2,2.2h-4.4h2.2l-2.2,2.2l5.8-2.2
							l-1.3-2.2l2.2-2.2l4.9,3.5l-3.5-3.5l2.2-3.5l2.2,3.5l-1.3,2.2l3.5-3.5l2.2,2.2l-1.3,4.9l5.8,2.2l-3.5-3.5l1.3-2.2l4.9,4.9
							l4.9,2.2l-3.5-3.5l-7.1-4.9l2.2-1.3l2.2,2.2V-43l12.9,3.5l-14.2-5.8l3.5-3.5l9.3-1.3l8.4,4.9l2.2-2.2l5.8,2.2l2.2,3.5
							l-9.3,3.5l-2.2,2.2l4.9-3.5l4.9,1.3l-7.1,5.8l9.3-7.1l7.1,1.3v3.5l-10.6,2.2h3.5l-3.5,2.2l7.1-1.3l-4.9,2.2l3.5,1.3l-3.5,3.5
							l4.9-2.2l-1.3-3.5l5.8-3.5l-1.3,3.5l2.2-3.5h3.5l-7.1,5.8h2.2l-1.3,3.5l4.9-5.8v3.5l2.2-1.3l-3.5,5.8l4.9-4.9l2.2,1.3
							l-2.2,1.3l-1.3,3.5l8.4-10.6l9.3,2.2l2.2,3.5l-12.9,7.1h4.9l-3.5,3.5l16.4-7.1l1.3,2.2l-1.3,2.2l-8.4,2.2l-2.2,3.5v2.2
							l3.5-4.9h2.2l-2.2,8.4l4.9-9.3l9.3-4.9l1.3,1.3l-1.3,1.3l-4.9,2.2v2.2l8.4-4.9l10.6,3.5l-1.3,2.2l-1.3-1.3l-1.3,2.2l-8.4,2.2
							l-4.9,2.2l3.5,1.3L541-3.6l5.8-2.2l1.3-2.2l8.4-1.3l-4.9,4.9l-1.3,1.3h-2.2h-1.3l-2.2,3.5l2.2-3.5l3.5,1.3L561-7.6l-1.3-1.3
							l1.3-1.3h3.5l4.9,4.9l1.3,3.5h-8.4l-2.2,2.2L545,1.7l12.9-1.3l16.4,4.9l1.3,1.3L574.3,8l-12.9-2.2h-9.3l9.3,1.3h-2.2h-4.9h4.9
							l-4.9,2.2v1.3l5.8-2.2l5.8,2.2h-8.4l5.8,2.2h-12.9l12,2.2l-7.1,1.3l12,1.3v2.2l1.3-1.3l5.8,1.3L563.8,22l8.4-1.3l-4.9,2.2
							l4.9-1.3h2.2l-1.3,3.5l2.2-1.3L574,26l1.3-2.2h2.2h-1.3l2.2,1.3l-4.9,2.2l3.5,1.3l3.5-5.8v8.4l1.3-4.9h3.5l-1.3,2.2l2.2,3.5
							l-2.2-3.5l1.3-1.3l3.5-2.2l3.5,1.3l-4.9,4.9l5.8-2.2l1.3,1.3h1.3l2.2,3.5h-3.5h3.5L601.8,38.6z M544.1-192.1l2.2,1.3l-1.3,1.3
							l-14.2,2.2l-5.8-2.2l4.9,2.2l-3.5,1.3l15.1-1.3l-8.4,3.5l4.9,1.3l-2.2,2.2l-9.3,2.2l-7.1-3.5H503l12.9,1.3l2.2,4.9h-16.4
							l1.3,2.2l-1.3,1.3l-18.6-3.5l10.6,3.5l-12.9-2.2l1.3,3.5l-7.1-1.3l31.9,2.2l-3.5,1.3l2.2,3.5l-14.2-3.5h-18.6l18.6,2.2h-24.8
							l10.6,1.3l-4.9,4.9l4.9-3.5l9.3-1.3l8.4,1.3l-5.8,2.2h15.1v4.9l-2.2,1.3h-15.1l14.2,3.5l-4.9,3.5l-10.6-1.3l10.6,2.2l-2.2,3.5
							l-21.3-1.3l-1.3,1.3l5.8,5.8l-9.3,5.8h-17.7l-10.6-7.1l2.2,2.2v2.2l4.9,2.2h-8.4l2.2,2.2l7.1-1.3l8.4,1.3l-2.2,2.2l8.4-3.5
							l3.5,2.2l-2.2,3.5l5.8,2.2l3.5-3.5l3.5,1.3l1.3,5.8l-5.8,3.5l-3.5-2.2l-4.9,4.9l-15.5,4l2.2-5.8l-12-1.3l2.2-3.5l-4.9,1.3
							l2.2,1.3l-1.3,3.5l-6.2-1.8l-3.5-5.8l-1.3,1.3l2.2,4.9l-9.3-3.5v3.5l-7.1-1.3l5.8,3.5l-7.1,1.3l-10.6-2.2l1.3-2.2L397-119
							l2.2,2.2l-2.2,2.2l-6.7-1.8l-1.3-3.5l1.3,4.9l-2.2,1.3L381-115l1.3-2.2l-1.3-6.2l-2.2,2.2l2.2,2.2l-1.3,3.5l-1.3-3.5l-2.2,3.5
							l-5.8-3.5l2.2-2.2l-1.3-2.2l9.3-5.8l15.1-1.3H392l2.2-1.3l-3.5-1.3l4.9-1.3h-8.4v-3.5l-4.9-2.2l1.3-2.2h15.1l3.5,2.2l2.2,4.9
							l12,2.2l-1.3-1.3h9.3l-2.2-1.3l4.9-2.2l8.4-9.3H432l-9.3,10.6h-7.1l-2.2-1.3l3.5-3.5l-4.4,3.1l-3.5-2.2l2.2-1.3L409-143h9.3
							l-12.9-1.3l12.9-2.2l-5.8-2.2h7.1l-7.1-1.3l3.5-2.2h-2.2l1.3-4.9l-7.1,9.8l-7.1,1.3l3.5-5.8l-8.4,4.9h-7.1l4.9-2.2l-3.5-1.8
							l-1.3-2.2l5.8-2.2l-2.2-1.3l4.9-4.9l14.2-2.2l24.8,7.1l-2.2-2.2l3.5-1.3l-9.3-1.3h14.2l1.3-4.9l-8.9,3.5l-20-2.2l1.3-2.2
							l10.6,1.3l-8.4-2.2l-7.1-9.3l-13.3-3.1l1.3-3.5h10.6l-12-0.9l-1.3-2.2l1.3-3.5l24.8,1.3l14.2,7.1l4.9,5.8l17.7-2.2h-15.1
							l-2.2-3.5l2.2-1.3l-15.1-8.4l45.7-4.9l-17.7-1.3l30.2-4.4l-21.3-1.3l4.9-5.8l14.2-5.8l-17.7,7.1l-5.8-1.3l3.5,2.2l-4.9,4.9
							l-17.7,4.9l-14.2,1.3l12-4.9l-14.2,2.2l-1.3-1.3l2.2-2.2l-5.8,2.2l1.3,2.2l-1.3,2.2l-25.7-2.2l10.6-7.1l29.3-4.9l-30.6,2.2
							l-15.1,10.2l-17.7-7.1l24.8-1.3l17.7-5.8l-45.7,5.8l-4.9-3.5l12-1.3l-8.4-2.2l12.9-3.5h10.6l-9.3-1.3l-18.6,4.9l-3.5-2.2
							l12-3.5l-8-1.3l-9.3,3.5l-5.8-3.5l14.2-4.9l9.3,1.3l1.3-1.3l-1.3-0.9l12-3.5l12,4.9l-3.5-1.3l1.3-2.2h7.1l8.4,4.9l-3.5-3.5
							l9.3,2.2l-1.3-2.2l-19.5-4.9l12-1.3h2.2l-0.9-2.2l-3.5-1.3l7.1-1.3l14.2,3.5l4.9,3.5l-1.3,2.2H440l-5.8-1.3l-4-1.8l3.5-1.3
							l30.6,9.3l-31.9-12l10.6-2.2l-7.1-2.2l1.3-1.3l14.2,2.2l-7.1-5.8l14.2,3.5L470-242l-12-1.3l-1.3-1.3h2.2l-5.8-2.2l2.2-1.3
							l27.1,2.2l10.6,5.8l-2.2,3.5l7.1-3.5l-2.2-1.3l-15.1-8.4l12-1.3l15.1,1.3l15.5,8l-9.3-4.9l9.3-4.9h9.3l-1.3,2.2l1.3,1.3
							l7.1,1.3l-5.8-2.2l9.3-2.2l36.4,4.9l-20,5.8l25.7-4.9l4.9,2.2l-1.3-2.2l3.5-1.3l4.9,3.5l8.4-1.3l-3.5,2.2l8.4,2.2l-3.5,3.5
							l16.4-1.3l3.5,2.2v3.5l-28.4,10.6l-16.4,2.2l-18.6,1.3l-9.3-3.5l5.8,4.9h17.7l-31.9,7.1h4.9l-3.5,1.3l39-8.4l10.6-1.3v2.2
							l-27.1,10.6l-16.4,12L544.1-192.1z M187.6-44.8l-2.2-1.3l3.5,1.3l-1.3-2.7l-3.5-1.3l4.9-1.3l-5.8-1.8l-2.2-1.3l1.3-1.3
							l8.4,1.3l5.8,7.1h3.1v3.5l3.5,5.8v4.9l4.9,1.3l-1.3-1.3l5.8-3.5l-4.9-3.5l-0.9-8.4l-3.5-9.3h3.5l-2.2-3.5l9.3,3.5L216-59
							l12,7.1l4.9,12v2.2l5.8,8.4l-2.2,8.4l9.3,7.1l4.9,2.2v-3.5L263.4-8v2.2l5.8-1.3v8.4h-3.5l-1.3-3.5l-2.2,3.5l-4.9-4l-3.5,2.2
							l1.3,1.3L253.8,3l-8.4-2.2l4.9,3.5l-1.3,5.8l2.2-4.9l4.9-2.2l3.5,2.2L257.2,8l4.9,1.3l-1.3,2.2L246.6,15l-15.1-2.2h-1.3
							l2.2-2.2l-12.9-1.3l1.3-3.5l-2.2-2.2l-7.1,8.4l-10.6,1.3l-5.8,3.5l-36.4,3.5L160,19l-4.9-3.5l1.3-4.9l-2.2-1.3h1.3l-26.6-3.5
							l-1.3-2.2L122,0l-1.3-4.9l25.7-4.9l17.7,2.2l9.3-2.2l-21.3-5.8l-20,2.2l-12.4-0.9l-8.4-5.8l30.6-9.8l-27.1,3.5l-2.2-2.2
							l5.8-1.3l-2.2-1.3l2.2-1.3l-10.6,2.7l-2.2-2.2l1.3-4.9l8.4-4.9l-4.9-3.5l10.6-7.1l25.7-8.4l4.9,4.9v4.9l-4.9,4.9l9.3-2.2
							l-1.3-2.2l4.9-3.5l16.4,4.9v2.2l-5.8,4.9l2.2,1.3l3.5-3.5l1.3,2.2l3.5-4.9l3.5,3.5l-1.3-2.2h1.3L187.6-44.8z M134.8-66.1
							l4.9,2.2l-1.3,2.2l-32.8,12.9l-1.3,5.8l-4.9,1.3h-4.9l1.3,2.2l-2.2,2.2v4.9l-1.3,3.5H81.6l-9.3,7.1l-3.5-1.3l-7.1-8.4
							l-9.3-5.8h-8l8.4-9.3v-4.9l4.9-2.2l-3.5-2.2l9.3-12l-4-1.8l-4.9-8.4l29.3-3.5l16.4,5.8L99-72.3l2.2-3.5l3.5,1.3v3.5l3.5-4.9
							h12L134.8-66.1z M347.7-168.5l-3.5-2.2L357-173l-17.7-1.3v1.3v1.3l-2.2-2.7l-4.4,4.4l-4.9-3.5l-7.1,2.2l-5.8-2.2l1.3-2.2
							l9.3-1.3l2.2-3.5l-12.9,2.7l-7.1-4.9h4.9l-4.9-1.3l2.2-2.2l-3.5-2.2l21.3,3.5l-3.5-2.2l5.8-1.3l-12,1.3l-2.2-1.3l3.5-1.3
							l-10.6-1.3l-1.3-1.3H318l-5.8-4.9l20,1.3l-7.1-3.5l4.9-1.3l-12.9-1.3l3.5-2.2h-2.2l1.3-2.2l18.6-1.3v-3.5h-10.6l2.2-2.2
							l17.7,2.2l12.9,12v2.2l15.1,2.2l-2.2,3.5l4.9,3.5h5.8l-4.9-2.2v-3.5h8.4l1.3,4.9l-4.9,1.3l8.4,1.3l1.3,2.2l-3.5,2.7l4.9-1.3
							l-4.9,7.1l9.3-2.2l3.5,1.3l-1.3,3.5l3.5-3.5l5.8,4.9l1.3,2.2l-15.1,5.8l-3.5-2.2l0.9,3.1l-5.8,4.9l-3.5-3.5l2.2-4.9l-4.9,1.3
							v4.9l2.2,4.9l-2.2,1.3l-4.9-2.2l2.2,3.5l-3.5,4.9l-9.3-8.4l-1.3,1.3l4.9,7.1l-5.8-3.5H360l3.5,2.2v1.3l-1.3,1.3l-14.2-2.2
							l-8.4-3.5l12-3.5H337l-4.4-4.4h7.1l-10.6-4.9l8.4-3.5l25.7-1.3L347.7-168.5z M398.2-95.4l23.5-8.4l24.8,1.3l-1.3,1.3l9.3,1.3
							l2.2,1.3l-3.5,1.3l8.4,2.2l-1.3,3.5l-8.4,2.2l10.6,2.2l-5.8,1.3l-3.5-1.3l2.2,1.3l-1.3,4.9l-22.2,1.3l-3.5-2.2v-3.5l-3.1-2.2
							l1.3,2.2l-1.3,3.5l-7.1,1.3h-5.8v-3.5l-2.2,3.5l-2.2-3.5l-1.3,3.5h-4.9v-2.2l-2.2,2.2l-3.5-2.2l1.3,2.2H381l-1.3-1.3l2.2-3.5
							l-0.9-2.2l-3.5,4.9l-2.2-3.5l1.3,2.2l-2.2-1.3l1.3,2.2l-3.5,1.3L359.3-84l2.2-3.5l-4.9,3.5l1.3,1.3l-7.5-1.3l-3.5-7.1l2.2-1.3
							l-4.9-1.3l1.3-3.5l3.5-3.5l-1.3-2.2v-2.2l-8.4-9.3l-20,2.2l3.5-1.3l-7.1-1.3l-3.5-2.2l4.9-2.2l-12.9-2.2h5.8l-4.9-3.5l5.8-2.2
							l23.5,3.5l3.5,3.5l-3.5,4.9v1.3l4.9-4.9h18.6l4.9,2.2l-8,0.9l20,3.5l-8,2.7l-14.2-2.2l12.9,3.5l-8.4,1.3l1.3,1.3l-0.9,0.4
							l2.2-2.2l3.5,2.2l4.9-2.2l2.2,2.2l-1.3,1.3h5.8l-4.9,4.9l8.4,2.2l-1.3-3.5l1.3-1.3l4.9,3.5l4.9-1.3l1.3,2.2l2.2-3.5l8.4,3.5
							L398.2-95.4z M187.6-98.9l9.3,1.3l1.3-3.5l-11.5-4l7.1-4.9l-9.3-3.5v-2.2l5.8-1.3l4.9-5.8l5.8,1.3l-2.2,2.2l2.2,4.9l3.5,2.2
							l-2.2,3.5l7.1,1.3l-3.5,3.5l7.1-2.2l2.2,3.5l2.2-1.3l-2.2-2.2l3.5-2.2l8.4,2.2l2.2,4.9l-3.5,3.5h1.3v2.2l-3.5,5.8l-11.1,2.2
							l-4.9-3.5l-2.2,2.2l-3.5,1.3l-3.5-3.5l-25.7,10.6l-12,2.2l-7.1-1.3l-5.8-4.9l14.2-4.9h9.3l8.4-4.9L165.5-92l1.3-2.2l-3.5-1.3
							L162-92l-9.3,1.3v-5.8l4.9-1.3l-7.1-1.3v4.9l-3.5-1.3l2.2,2.2l-4.9,2.2l-3.5,1.3v-3.5l-3.5,1.3v1.3l-1.3,1.3l-3.5-1.3
							l-1.3-3.5l-4.9,2.2l-8.4-2.2l3.5-4.9h12l8.4-3.5l-20,1.3l3.5-3.5l18.6-1.3l-17.7-1.3l2.2-1.3l-0.4-0.9l2.2-1.3H145l-10.6-1.3
							l-1.3-2.2l4.9-1.3h10.6l2.2,4.9l9.3-1.3l10.6,5.8l-3.5,2.2h7.1l1.3,4.9h12V-98.9z M675,255l-2.2,3.5l-1.3-1.3v2.2l-7.1,10.6
							h1.3v2.2l5.8-7.1l3.5,2.2h2.2l-4.9,2.2l-1.3,1.3h2.2L671,273l2.2-1.3l2.2,2.2l1.3-1.3v1.3l1.3-1.3v1.3v-2.2h2.2l-2.2,5.8
							l2.2-3.5l2.2,1.3l2.2-3.5l1.3,3.5l3.5-2.2l4.9,2.2v2.2l-4.9,2.2h2.2l-1.3,2.2h2.2l-2.2,1.3l3.5,1.3l4.9-3.5v2.2l-4.9,3.5
							l-1.3,1.3v-1.3h-2.2v1.3l2.2,1.3h-2.2h2.2l-1.3,3.5l2.2,2.2l2.2-5.8l3.5-1.3l-3.5,7.1l1.3,1.3l3.5-4.9l1.3,3.5l-2.2,8.4
							l-2.2,2.2l-2.2-1.3h-2.2l1.3-5.8l-5.8,4.9l2.2-7.1V294l-2.2-1.3l-2.2,4.9l-1.3,1.3l1.3-3.5l-3.5,2.2l-4.9,5.8l-5.8-1.3
							l4.9-1.3l5.8-5.8h-1.3v-2.2l-1.3,2.2l-1.8-0.9l-2.2,3.5h-2.2l1.3-2.2l-3.5,1.3l4.9-2.2l-2.2,1.3l1.3-3.5l-3.5,3.5l-5.8,1.3
							l-10.6-2.2l-12,1.3l-1.3-3.5l9.3-5.8l-7.1-1.3l3.5-2.2l-1.3,1.3l2.2,1.3l2.2-7.1l4.9,2.2l-2.2-2.2h2.2H654l1.3-1.3h-2.2v-1.3
							l2.2-2.2l2.2,1.3l-2.2-2.2l5.8-10.6l1.3-1.3h-1.8l3.5-3.5l2.2-4.9l7.1-3.5v2.2l4.9-1.3l-2.2,2.2h-3.5v1.8h2.2L675,255L675,255
							z M273.6-61.7l-1.3-3.5l-5.8-1.3l5.8-2.2l4.9,1.3l1.3-1.3H275l1.3-2.2l8.4,3.5l17.7-1.3l2.2,3.5l-5.8,2.2h3.5l1.3,2.2
							l-7.1,1.3l-4.9,4.9v2.2l3.5-2.2h5.8l3.5,4.9l-2.7,2.2l5.8-2.2l2.2,5.8l-4.9,1.3l2.2,1.3l1.3,2.2l-3.5,1.3h3.5l-2.2,2.2h2.2
							l-1.3,1.3l-14.2,3.5l-0.4-1.3v-3.5l-1.3,3.5l3.5,2.2l-1.3,2.2l-4.9,2.2l-4.9-1.3l-4.4-6.7l-8.4-7.1l-10.6-2.2l-8.4-7.1
							l2.2-4.9l3.5-1.3l7.1,5.8h8.4l1.3-1.3l-1.3-3.5h1.8v2.2l2.2-1.3l-2.2-2.7h-2.2l1.3-2.2l5.8,1.3L273.6-61.7l-4.9,2.2L263-63
							l5.8-2.2L273.6-61.7z M400.9,76.3l2.2-14.2l4.9-3.5v2.2h2.2l1.3,2.7l-2.2,1.3l3.1,4.4l3.5-3.5l3.5,3.5l7.1,1.3l1.3,2.2
							l12.9,7.1l2.2,4.9l-3.5,2.2h9.3v-1.3l5.8,4.9l-6.7,4.4l-12.9-3.5l1.3-3.5l-7.1-1.3l0.9-2.2h-1.3l-3.5,1.3l-1.3,1.3v3.5
							l-5.8,2.2l-2.2,3.5l-8,3.5l-2.2-9.3l-12.9,1.3l1.8-4l6.2-2.2l-1.3-4.4L400.9,76.3z M317.1-60.3l-1.3-7.1l9.3,2.2l-5.3-4.4
							l4.9-3.5l12.9-1.3l9.3,3.5l18.6,1.3l-17.7,20h-18.6l3.5,1.3l3.5,3.5l-7.1,7.1l1.3,1.3l-2.2-1.3l-7.1,1.3v-2.2l3.5-1.3
							l-3.5,1.3v-5.8l-3.5-3.5v-12.4L317.1-60.3L317.1-60.3z M85.6-118l20-14.2h21.3l1.3-1.3l-4.9-1.3l5.8-2.2l9.3,4.9l-7.1,2.2v2.2
							l4.9,2.2h-5.8l4.9,4.9l-11.1,2.7l1.3,3.5l-2.2,1.3l-8.4-1.3l2.2-7.1h-4.9l-1.3,1.3l1.3,2.2l-5.8,1.3l3.5,1.3v2.2l-4.9,4.9
							l-4.9-4.9l1.3,2.2l-2.2,1.3l2.2,2.2l-3.1,2.2l-4.9,1.3v-3.5l-3.5-3.5l-2.2,1.3l1.3,3.5l-10.6-2.2l-3.5,2.2l-2.2-1.3l2.2-2.2
							h-1.3l1.3-1.3l-4.9,2.2l3.5-4.9L85.6-118z M258.5-101.6l-2.2-2.2l0.9-1.3l9.3,1.3L263-106l2.2-1.3l-5.8-1.3l4.9-3.5h-7.1
							l3.5-3.5h4.9l12,10.6l4.9-2.2l-3.5,1.3l-3.1-3.5h3.5l-5.8-1.3l4.9-1.3l-9.3-4.9l4.9-2.2h7.1l4.9,4.9l2.2-1.3l-2.2-3.5h4.9
							l-1.3-1.3l9.3,3.5l-1.8,4l2.2,3.5l-0.9,4.4l-2.2,2.2l4.9,1.3l1.3,4.9l-5.3-2.2l-2.2,1.3l2.2,1.3l-3.5,2.2l5.8,2.2l-4.9-1.3
							v3.5h-21.3L272-93h4.9l-5.8-3.5l15.1-4.9L254.1-98l-3.5-2.2L258.5-101.6z M243-159.2l-3.5-0.9l3.5-2.2l-3.5-2.7l-7.1,3.5
							l2.2-3.5h-8.4l1.3-5.8h21.3l4.9,4.9l-1.3,2.2l1.3,1.3l8.4-3.5l5.8,2.2l-1.3,2.2l10.6,2.2v2.2h4.9l-3.5,3.5l1.3,2.2l7.1,4.9
							l-1.3,3.5l-7.1,1.3l-7.1-1.3l-3.5-5.8l-14.2-1.3l-1.3-2.2l-15.1,1.3l-4.9-4.9l12.9,1.3l1.3-2.2l-5.8-1.3l7.1-1.3h-5V-159.2z
							 M30.2,263.4l-1.3-2.2H31l-4.4-1.3l2.2,1.3l-3.5,1.3l-2.2-2.2l-1.3-1.8l4.9-0.9l22.2,5.8l5.8,10.6l7.1,2.2l5.8,9.3l-2.2,1.3
							L51,282v-1.3l2.2-2.2v-2.2l-1.3,3.5H47l-2.2-1.3l1.3-2.2H43l1.3-2.2l-5.8,1.3v-2.2l4.9-1.3h-5.3l-1.3-2.2l-1.3-1.3l-2.2,1.3
							v-2.2l-6.7-1.8l1.3-1.3l-2.2-1.3l0.9-0.9L30.2,263.4z M450.1-67.4l29.3,3.5l12.9,12l-31.9,2.2l-3.5-2.2l-1.3-5.8l-7.1-2.2
							L450.1-67.4z M284.3,13.7l-3.5-2.2l1.3-1.3l9.3-3.5L290,4.4h1.3L290,2.2l4.9,2.2l-2.2-2.2l3.5-4.9l4.9,2.2v2.2l1.3-1.3
							l9.3,5.8v4.9l1.3-3.5l2.2,5.8h5.8l-12,5.8l-15-3.7l-2.2-2.2l-1.3,1.3l-2.2-2.2L284.3,13.7z M313.5-87.4l-1.3-2.2l-0.9,2.2
							l-3.5-1.3l1.3-4.9l4.9-1.3h-1.3l2.2-1.3l-2.2-1.3l10.6-3.5l12.9,5.8v7.1l-1.3,4.9h-8.4L313.5-87.4z M305.6-141.5l-8.4-4.9
							l8.4-1.3l-10.6-3.5l-3.5-3.5l3.5-1.3l-2.2-4h10.6l20,8.4l-4.9,2.2l4.9,2.2l-2.2,3.5L305.6-141.5z M486.5,39.9l-3.5-1.3
							l-2.2-7.1l5.8-8.4l8.4-1.3l7.1,3.5l-1.3,2.2l1.3,4.9l-1.3,2.2L486.5,39.9z M187.6-147.3l3.5,1.3l-0.9,0.9l-10.6,2.2l7.1,2.2
							v3.5l-7.1,2.2l-14.2,1.3l-7.1-2.2l-1.3-5.8l9.3-3.5L187.6-147.3z M623.1,315.3v-3.5l8.4-9.3l2.2,1.3l-2.2,8.4l1.3-1.3
							l-5.8,3.5l3.5-1.3l-3.5,3.5l5.8-2.2h-2.2l3.5-2.2l-2.2,1.3l2.2-2.2l4.9,2.2v1.3l-5.8,3.5l-8.4,1.3L623.1,315.3z M230.2-53.2
							l-1.3,1.3l-9.3-9.3l-5.8-1.3l8.4-4.9h9.3l4.9,2.2v4.9L230.2-53.2z M437.3,101.1l3.5,1.3l-1.3,2.2l-9.3,7.1l-7.1,1.3l-1.3-3.5
							l4.9-7.1L437.3,101.1z M187.6-159.2l5.8,4.9l-1.3,3.5l-35.5-1.3l21.3-7.1L187.6-159.2L187.6-159.2z M605.3,269.2l14.2,5.8
							l2.2,2.2l-4.9,1.3l-12-3.5l-9.3-5.8H605.3z M338.4-139.3l-3.5,4.9h-20l-4.9-3.5l8.4-3.5L338.4-139.3z M-12.4,229.3l-4.9-1.3
							h1.3l-1.3-1.3l2.2,1.3l-3.5-2.2l-1.3-2.2l-1.3-2.2v-3.5h4.9v2.2l3.5-1.3l1.3,2.2l-4.9,2.2l1.3,1.3l2.2-1.3l1.3-4.9l3.5-1.3
							l-2.2,7.1v2.2l-1.3,2.2h-0.9L-12.4,229.3L-12.4,229.3z M-32.4,15.1l-3.5-3.5H-43l-2.2-1.3V8l3.5,2.2l-3.5-3.5l5.8,1.3
							l-1.3-3.5h1.3h7.1V0.9l5.8,2.2l-8.4,8.4l1.3,2.2l2.2,2.2L-32.4,15.1z M601.8,309.1h-2.2v-2.2l-2.2-1.3l3.5-3.5l-1.3,2.2
							l3.5,3.5l1.3-1.3l3.5,2.2l12-1.3l-5.8,3.5l1.3,1.3l-1.3,1.3l-4.9-2.2l1.3-1.3l-2.2,1.3L601.8,309.1z M460.8,117.5l-2.2,3.5
							l-3.5-3.5V114l2.2-4.9h4.9l1.3,3.5L460.8,117.5z M287.8-177.9l-12-4.9v-3.5l3.5-2.2l8.4,2.2l1.3,4.9L287.8-177.9z
							 M364.1-129.5L357-133l-1.3-3.5l7.1-1.3l7.1,3.5v2.2L364.1-129.5z M226.6-140.2l12,9.3l-4.9,2.2l-5.8-3.5l-6.2-8H226.6z
							 M118.4-109.6l2.2,1.3l-0.9,0.9l-7.1,8.4l-9.3-1.3L118.4-109.6z M-11.1,229.3l2.2-1.3l2.2,3.5h-3.5l2.2,1.3h-2.2l4.9,7.1
							l1.3-1.3v1.3l2.2,1.3l-2.2,1.3l-7.1-7.1l1.3-1.3H-12l-1.3-1.3h1.3l-3.5-2.2L-11.1,229.3z M513.5,26.6l2.2,1.3v2.2h-9.3
							l-2.2-3.5l3.5-2.2L513.5,26.6z M447.9,229.3l2.2,3.5v2.2l-12-3.5l2.2-2.2C440.4,229.3,447.9,229.3,447.9,229.3z M239.5-96.7
							l4.9,4.9l-4.9,2.2l-5.8-1.3l1.3-4.9L239.5-96.7z M239.5-120.2l10.6,4.9l-12,2.2l-2.2-5.8L239.5-120.2z M464.3,195.1l2.2-5.8
							l-3.5,7.1l1.3-4.9l-2.2,4.9l-3.5,1.3l3.5-4.9l-4.9,3.5l3.5-5.8l1.3-3.5l-1.3,4.9h1.3l1.3-4.9l3.5,2.2L464.3,195.1z
							 M150.3-139.3l-8.4-4.4l7.1-2.2l5.8,4.9L150.3-139.3z M253.7-113.1l1.3,2.2l-1.3,1.3l-7.1,1.3l-9.3-1.3L253.7-113.1z
							 M20.8,236.3h-1.3h-1.3l1.3-4.9l-1.3,4.9l-2.2-2.2l2.2-2.2l-2.2-1.3l2.2,1.3l-3.5,1.3l1.3-4.9l4.9,3.5v4.5H20.8z M472.7,94
							l5.8,1.3l1.3,2.2l-4.9,2.2l-4.9-4.9L472.7,94z M399.6,24.4v4.9l-1.3,2.2l-3.5-2.2L396,27l-2.2-1.3l3.5-3.5L399.6,24.4z
							 M421.7,57.2l2.2,1.3l-1.3,2.2l4.9,1.3l-0.9,1.3l-7.1-2.2V59l-2.2-3.5L421.7,57.2z M471.4,5.7l1.3,1.3l-3.5,5.8l-7.1,1.3
							L471.4,5.7z M262.1-142.8l7.1,2.2l-10.6,1.3l-3.5-2.2L262.1-142.8z M367.6-115.8l-5.8-5.8l7.1-1.3l1.3,1.3l-2.2,3.5l2.2,1.3
							L367.6-115.8z M298.5-73.2l-7.1,4.9l-9.3-1.3L298.5-73.2z M595.1,121l-2.2,3.5L588,121l3.5-1.3L595.1,121z M502,16.4l2.2,3.5
							l-1.3,2.2l-4.9-3.5l1.3-2.2H502z M412.4,57.2l3.5,4.9l-1.3,2.2l-3.5-3.5l-1.3-3.5C409.8,57.2,412.4,57.2,412.4,57.2z
							 M459.4-0.5l3.5,1.3h-7.1l1.3,2.2L450,0.8L459.4-0.5z M151.2-120.2l-8.4-1.3l10.6-2.2l2.2,2.2L151.2-120.2z M486.5,94h1.3
							l-1.3,2.2l-2.2-1.3l-4.9-3.5h3.5L486.5,94z M11.1,229.3l-5.8-8.4l7.1,5.8L11.1,229.3z M4,224.4l3.5,2.2l2.2,2.2L4,226.6
							l-1.3-2.2L4,224.4L4,224.4z M482.9,4.4l3.5,2.2l-4.9,2.2l-1.3-3.5L482.9,4.4z M541.9,104.6l3.5,2.2h-4.9l-1.3-2.2l-3.5-2.2
							L541.9,104.6z M317.1,2.2l1.3,1.3L317.1,7h-1.3V3.5h-0.9v2.2h-1.3V2.2H317.1z M530.4-21.3l4.9,1.3l-7.1,2.2l-1.3-1.3
							L530.4-21.3z M275,11.5l1.3,1.3V15h-4.9v-3.5H275z M262.1,15.1l-1.3,3.5l-4.9-2.2l3.5-1.3C259.4,15.1,262.1,15.1,262.1,15.1z
							 M565.4,135.2l1.3,2.2l-4.9,1.3l2.2-3.5H565.4z M312.7-100.3l-7.1,4.9l-1.3-2.2L312.7-100.3z M326.8-107.3l1.3,4.9h-3.5
							l-1.3-3.5L326.8-107.3z M466.5-109.6l-2.2,3.5l2.2,1.3h-7.1L466.5-109.6z M404.5-166.3l5.8,1.3l-10.6,2.2L404.5-166.3z
							 M519.8-24.9l-3.5-4.9h2.2l3.5,1.3L519.8-24.9z M28.8,242.1l-2.2,2.2l1.3-3.5l4.9-2.2L28.8,242.1z M473.6-0.5l1.3,2.2L466.5,4
							L473.6-0.5z M306.4-56.8l1.3,1.3v2.2l-4.9-1.3L306.4-56.8z M312.7,3.1l-1.3,2.7l-4.9-3.5L312.7,3.1z M235,18.6l2.2,1.3
							l-1.3,1.3L231,19h4V18.6z M598.3,91.3l2.2,5.8l-3.5-3.5l-1.3-1.3L598.3,91.3z M4,218.6l1.3,1.3L4,221.3H3.1l1.3-1.3l-3.5,1.3
							l2.2-2.7H4z M596,87.8l1.3,3.5l-4.9-2.2L596,87.8z M410.2-136.6l3.5,1.3l-3.5,1.3l-2.2-2.7L410.2-136.6L410.2-136.6z
							 M391.1-6.2l7.1,1.3l-4.9,1.3L391.1-6.2z M624.4,183.1l-2.2,1.3h2.2v2.2l-2.2-2.2l1.3-2.2L624.4,183.1z M18.2,223.5l-3.5,3.5
							v-3.5H18.2z M597.4,108.2l-1.3,2.2l-3.5-2.2H597.4z M467.9,20.8l-1.3-1.3l2.2-1.3l-2.2-1.3h4.9L467.9,20.8z M37.3,269.2
							l1.3,3.5l-3.5-2.2l1.3-1.3H37.3z M272.3-14.2L275-12l-3.5-1.3L272.3-14.2z M251.5-150.8l1.3,1.3l-2.2,2.2l-2.2-1.3
							L251.5-150.8z M25.3,243.4l-1.3,3.5l-1.3-2.2L25.3,243.4z M624.4,294.9l-4.9,3.5l1.3,1.3h-2.2l1.3-2.2L624.4,294.9z
							 M466.5,192.9l2.2-3.5v2.2L466.5,192.9z M565.4,0.9v2.2l-2.2-1.3L565.4,0.9z M23.1,238.6l-1.3,1.3v-5.8l1.3,3.5V238.6z
							 M300.7-82.5l1.3,1.3l-1.3,1.3h-3.5L300.7-82.5z M690.1,270.5v1.3l-2.2,1.3v-2.2h2.2V270.5z M514.9,78.5v2.7l-1.3,1.3V79h1.3
							V78.5z M40.8,258.5v1.3h-2.7L40.8,258.5v-1.3V258.5z M25.3,247l1.3,3.5l-2.2-2.2L25.3,247z M316.2-82.5l3.5,2.2l-4.9-1.3
							L316.2-82.5z M51.4,264.3l-1.3-1.3h-1.3l1.3-1.3l2.2,2.2l-1.3,1.3v-0.9L51.4,264.3L51.4,264.3z M20.8,236.3v2.2l-2.2-1.3
							L20.8,236.3z M357.4-130.9l3.5,1.3H356h-1.3L357.4-130.9z M465.7,22.1l2.2,1.3l-2.2,1.3V22.1z M5.3,222.2l1.3,2.2L4.4,223
							L5.3,222.2z M361.9,8l-1.3-1.3h-1.3h1.3l1.3-1.3l1.3,2.2h-1.3V8z M204.4,35v-2.2h1.3v1.3L204.4,35z M591.6,116.2l2.2,2.2
							l-3.5-1.3L591.6,116.2z M90-106l-2.2,3.5h-2.2L90-106z M14.6,233.7l2.7,2.7v2.2L14.6,233.7z M463,242.1v2.2l-3.5-1.3
							L463,242.1z M365.4,5.7L364.1,8l-1.3-1.3L365.4,5.7z M306.4-51.9v2.2h-2.2L306.4-51.9z M596,138.8l-3.5-2.2l4.9,1.3L596,138.8
							z M267.9,3.1v1.3l-1.3,1.3V4.4l-2.2-1.3C264.3,3.1,267.9,3.1,267.9,3.1z M51.4,264.3v3.5l-2.7-3.5H51.4z M507.8,19.9l2.2,2.2
							l-1.3,1.3L507.8,19.9z M14.6,227.9v2.2h-0.9L14.6,227.9z M17.3,225.7v2.2H16L17.3,225.7z M616,62.1h1.3v1.3l-2.2-1.3H616z
							 M655,208l1.3,1.3h-3.5L655,208z M626.6,192.9l1.3,1.3h-2.2L626.6,192.9z M275.8,10.2l1.3,2.2l-2.2-0.9L275.8,10.2z
							 M520.6-31.1h2.2l-2.2,1.3V-31.1z M691.4,288.2l2.2,1.3l1.3-1.3l-1.3,2.2l-2.2-1.3V288.2z M623.1,186.7l3.5,2.2l-4.9-1.3h2.2
							L623.1,186.7z"/>
						
							<polygon fill="#DDDDDD" stroke="#FFFFFF" stroke-width="1" stroke-linecap="round" stroke-linejoin="round" stroke-miterlimit="10" points="
							372.5,627.9 371.2,627.9 371.2,630.6 366.8,634.1 354.8,632.8 346.8,627.1 349,622.2 347.7,620.8 351.2,612.9 363.2,612.9 
							363.2,609.3 353.9,602.2 358.3,602.2 358.3,596.5 374.7,596.5 373.9,615.1 377.4,615.1 379.6,616.4 379.6,613.7 383.2,616.4 
							374.7,622.2 374.7,625.7 						"/>
						
							<path fill="#DDDDDD" stroke="#FFFFFF" stroke-width="1" stroke-linecap="round" stroke-linejoin="round" stroke-miterlimit="10" d="
							M302.9,519.7l-4.9,14.2l-1.3,15.1l-1.3,2.2l2.2,5.8l3.5,4.9l-1.3,2.2v-2.2l-3.5-4.9l5.8,12.9l5.8,7.1l1.3,4.9l3.5,4.9l7.1,1.3
							l5.8,5.8l8.4-2.2h4.9l9.3-3.5l1.3,1.3l-1.3,1.3l2.2,1.3h2.2l2.2-2.2l-2.2-2.2l7.1-3.5v-4.9l2.2-2.2l1.3-9.3l16.4-4.9l10.6,1.3
							l1.3-1.3h-1.3l3.5-1.3l2.2,2.2v2.2l-5.8,8.4v3.5L388,580v1.3l2.2-1.3l-2.2,3.5h2.2L388,592l-1.3,2.2l-2.2-3.5v-4l-2.2,3.5H381
							l-3.5,5.8l-1.3-1.3l-1.3,1.3h-16.4v5.8h-4.9l9.3,7.1v3.5h-12l-3.5,8.4l1.3,1.3l-2.2,4.9l-4.9-5.8l-10.6-8.4l-3.5-2.2l2.2,2.2
							l-4.9-1.3v-1.3l-1.3,1.3l-1.3-2.2l-1.3,2.2h1.3l-14.2,5.8l-12-3.5l-9.3-5.8l-8.4-1.3l-10.6-4.9l-9.3-7.1l-2.2,1.3l-10.6-3.5
							l-4.9-5.8l-9.3-4.9l-5.8-9.3l3.5-1.3l-1.3-2.2h-1.3l2.2-2.2v-3.5l-3.5-5.8l-1.3-5.8l-10.6-12l-7.1-5.8h1.3l-3.5-1.3V529
							l-1.3,1.3l0.9-1.3l2.2-1.3h-3.5l-3.5-3.1h-3.5l3.5-2.2l-3.5,1.3l-2.2-2.2l1.3-4.9l1.3,1.3l-2.2-4.9H190l-1.3-3.5l-4.9-2.7
							l-1.3-3.5l1.3-1.3l-5.8-0.9l-9.3-10.6v-2.2l-8.4-14.2v-5.8h-4.9l-3.5-3.5v1.3H149l-7.1-4.9l2.2,3.5l-1.3,4.9l2.2,2.2l1.3,9.3
							l8.4,7.1l1.3,3.5l2.2,1.3l1.3,2.2l2.2,1.3l1.3,5.8l3.5,2.2l3.5,8.4l2.2,1.3l-1.3-3.5l2.2,2.2l2.2,9.3l4.9,8.4l1.3,4.9l2.2,2.2
							l1.3-2.2l7.1,8.4v3.5l-4.9,2.2l-3.5-5.8l-15.1-12v-9.3l-3.5-4.9l-7.1-4.9l1.3-2.2l-1.3,1.3l-3.5,1.3l-12-9.3l-0.9-2.2l9.3,1.3
							L149,502l1.3-2.2l1.3-4.9l-8.4-8.4l-7.1-3.5l-3.5-10.6l-4.9-7.1v-3.5l-2.2-1.3l-2.2-5.8l22.2-1.3l-1.3,2.2l34.1,12h24.8v-4.9
							h16.4l2.2,2.2l12,9.3l2.2,9.3l10.6,5.8h2.2l4.9-7.1l2.2-1.3l8.4,1.3l7.1,5.8l3.5,8.4l7.1,7.1v4.9l3.5,5.8l15.1,5.8h2.4V519.7z
							 M166.7,492.7l-2.7-0.9l1.3-2.2l1.3-1.3L166.7,492.7L166.7,492.7z M159.7,490.5l-4.9-3.5v-2.2L159.7,490.5z M393.8,573.8
							l1.3-2.2l1.3-1.3L393.8,573.8z M140.6,499.8l-1.3-1.3l1.3-2.2V499.8z"/>
						
							<polygon fill="#DDDDDD" stroke="#FFFFFF" stroke-width="1" stroke-linecap="round" stroke-linejoin="round" stroke-miterlimit="10" points="
							546.8,644.3 546.8,645.7 547.7,647 546.8,645.7 						"/>
						
							<path fill="#DDDDDD" stroke="#FFFFFF" stroke-width="1" stroke-linecap="round" stroke-linejoin="round" stroke-miterlimit="10" d="
							M595.1,457.6l-1.3,0.9L595.1,457.6z"/>
						
							<polygon fill="#DDDDDD" stroke="#FFFFFF" stroke-width="1" stroke-linecap="round" stroke-linejoin="round" stroke-miterlimit="10" points="
							531.3,580 531.3,577.4 538.4,577.4 544.1,580 547.7,580 549,583.6 554.8,583.6 553.9,584.5 550.4,583.6 550.4,584.5 
							556.1,585.8 561.9,589.4 559.7,592.9 557.5,591.6 547.7,590.2 545.5,592.9 541.9,592.9 540.6,591.6 537.1,592.9 533.9,598.7 
							531.3,595.1 531.3,591.6 529.1,589.4 531.3,588 532.6,583.6 						"/>
						
							<path fill="#DDDDDD" stroke="#FFFFFF" stroke-width="1" stroke-linecap="round" stroke-linejoin="round" stroke-miterlimit="10" d="
							M531.3,595.1l-3.5-2.2l-5.8,1.3l-5.8-1.3l-3.5,2.2l-5.8-4.9l2.2-1.3l12.9,2.2l3.5-1.3v-1.3L522,585v-2.7l-5.8-2.2v-1.3
							l5.8-1.3l9.3,2.2l1.3,3.5l-1.3,4.9l-2.2,1.3l2.2,2.2L531.3,595.1L531.3,595.1z M522,589.4l-4.9-2.2h3.5L522,589.4z"/>
						
							<polygon fill="#DDDDDD" stroke="#FFFFFF" stroke-width="1" stroke-linecap="round" stroke-linejoin="round" stroke-miterlimit="10" points="
							477.2,590.2 484.3,591.6 490,593.8 491.4,596.5 485.6,595.1 484.3,596.5 482.9,596.5 482.1,597.3 477.2,596.5 475,592.9 
							471.4,592.9 472.7,590.2 						"/>
						
							<polygon fill="#DDDDDD" stroke="#FFFFFF" stroke-width="1" stroke-linecap="round" stroke-linejoin="round" stroke-miterlimit="10" points="
							554.8,647 557.5,647.9 558.3,650.6 556.1,649.2 						"/>
						
							<path fill="#DDDDDD" stroke="#FFFFFF" stroke-width="1" stroke-linecap="round" stroke-linejoin="round" stroke-miterlimit="10" d="
							M473.6,526.8l1.3,1.3l2.2,5.8l-2.2,2.2l-3.5-3.5h2.2l-1.3-1.3L473.6,526.8z M513.5,568.1l1.3-2.2h2.2l2.2-1.3l-1.3,2.2
							L513.5,568.1z M475,510.4l4.9,1.3l3.5,3.5l-1.3,5.8l-1.3-1.3l1.3-1.3l1.3-4.9l-3.5-2.2L475,510.4z M469.2,515.3l-2.2-2.2
							l2.2,1.3l1.3-1.3h5.8L469.2,515.3z M477.2,536.1v2.2l1.3-2.2l1.3,1.3l-1.3,2.2l-1.3,1.3l-1.3-2.2L477.2,536.1z M499.8,542.3
							l3.5,7.1l-2.2-2.2L499.8,542.3z M486.5,523.3l4.9,4.9v4.9l-1.3-2.2l1.3-2.2L486.5,523.3z M497.1,537.5l-2.2-5.8l4.9,4.9
							L497.1,537.5z M509.1,556.1l2.2-2.2l1.3-1.3l-2.2-1.3l2.2-1.3v2.2L509.1,556.1z"/>
						
							<polygon fill="#DDDDDD" stroke="#FFFFFF" stroke-width="1" stroke-linecap="round" stroke-linejoin="round" stroke-miterlimit="10" points="
							530.4,558.8 532.6,559.6 530.4,559.6 						"/>
						
							<polygon fill="#DDDDDD" stroke="#FFFFFF" stroke-width="1" stroke-linecap="round" stroke-linejoin="round" stroke-miterlimit="10" points="
							381.8,590.2 384.5,592.9 383.2,598.7 383.2,604.4 381.8,609.3 377.4,615.1 373.9,615.1 374.7,596.5 376.1,595.1 377.4,596.5 
							380.9,590.2 						"/>
						
							<polygon fill="#DDDDDD" stroke="#FFFFFF" stroke-width="1" stroke-linecap="round" stroke-linejoin="round" stroke-miterlimit="10" points="
							445.7,582.3 446.6,582.3 445.7,583.6 444.4,583.6 						"/>
						
							<polygon fill="#DDDDDD" stroke="#FFFFFF" stroke-width="1" stroke-linecap="round" stroke-linejoin="round" stroke-miterlimit="10" points="
							499.8,760.1 491.4,755.2 487.8,756.5 480.7,755.2 478.5,751.7 473.6,750.3 467.9,745.9 465.7,744.6 467.9,742.4 470.1,742.4 
							469.2,738.8 470.1,736.1 477.2,735.3 477.2,733.9 482.9,723.3 482.1,724.6 482.1,722.4 480.7,723.3 479.4,722.4 482.1,719.7 
							480.7,719.7 480.7,711.8 479.4,709.1 482.1,706.9 479.4,703.3 480.7,699.8 476.3,694 477.2,689.1 478.5,690.5 482.1,686.9 
							479.4,682 480.7,681.2 485.6,685.6 484.3,686.9 486.5,686.9 485.6,683.4 484.3,681.2 490,678.5 492.7,674.1 496.3,674.1 
							497.1,663.4 503.3,658.5 507.8,659.9 505.6,661.2 507.8,662.1 509.1,656.3 517.1,656.3 526.9,651.4 527.7,647.9 529.1,649.2 
							531.3,645.7 536.2,647.9 537.1,650.6 534.8,651.4 529.1,652.8 526.9,657.7 524.2,658.5 516.2,676.3 519.8,674.9 522,676.3 
							525.5,685.6 524.2,691.8 527.7,692.7 529.1,695.3 536.2,696.2 540.6,695.3 545.5,696.2 552.6,703.3 553.9,703.3 554.8,702 
							559.7,703.3 566.8,702 570.3,703.3 570.3,704.7 566.8,710.4 566.8,717.5 567.7,724.6 571.2,728.2 566.8,732.6 572.5,737.5 
							574.7,748.1 573.9,748.1 573.9,744.6 570.3,739.7 565.4,743.2 563.2,741 563.2,743.2 547.7,743.2 547.7,749.5 553.9,749.5 
							554.8,753 551.2,751.7 546.8,753.9 546.8,760.1 550.4,763.2 552.6,770.3 547.7,796.5 544.1,792.9 540.6,792.9 546.8,783.6 
							544.1,780.9 541.9,780.9 539.7,778.7 534.8,780.1 531.3,777.4 526.9,780.9 520.6,780.9 518.4,780.1 518.4,775.2 514.9,773.8 
							514.9,771.6 509.1,768.1 507.8,763.2 504.2,761 						"/>
						
							<polygon fill="#DDDDDD" stroke="#FFFFFF" stroke-width="1" stroke-linecap="round" stroke-linejoin="round" stroke-miterlimit="10" points="
							424.4,659.9 426.6,665.6 433.7,672.7 431.5,671.8 430.2,672.7 430.2,677.6 432.4,678.5 431.5,679.8 431.5,682 430.2,683.4 
							431.5,686.9 426.6,679.8 425.3,679.8 428,683.4 423.1,681.2 424.4,677.6 416,672.7 415.1,669.2 410.2,667 412.4,670.5 
							411.5,672.7 408.9,670.5 406.7,669.2 404.5,665.6 406.7,663.4 404.5,659.9 405.3,659.9 405.3,658.5 406.7,657.7 412.4,659.9 
							415.1,658.5 421.7,662.1 						"/>
						
							<path fill="#DDDDDD" stroke="#FFFFFF" stroke-width="1" stroke-linecap="round" stroke-linejoin="round" stroke-miterlimit="10" d="
							M499.8,577.4l-9.3-1.3l-12.9,1.3l5.8-4.9l-1.3-2.2L475,569l-4.9-2.2l-2.2-5.8l-3.5,1.3l-7.1-2.2l-4.9-3.5l-3.5,1.3l-8.4-1.3
							l-3.5-2.2l4.9-1.3l-2.2-1.3h-7.1l-5.8,4.9h-4.9l-1.3,2.2l-4.9,1.3v-1.3h-3.1l5.8-1.3l-1.3-2.2l3.5-3.5L437,547l20,2.2l5.8,4.9
							h4.9l5.8,3.5l7.1,3.5l-1.3-2.2l3.5,2.2h-2.2l1.3,1.3h1.3l2.2,2.2l10.6,2.2l-1.3,3.5h7.1l7.1,3.5l1.3,1.3l-1.3,1.3l-8.4,1.3
							v-1.3L499.8,577.4L499.8,577.4z M431.5,563.2L428,561l2.2,1.3l-1.3-2.2l1.3-1.3h2.2l1.3,3.5L431.5,563.2z M471.4,553.9
							l-2.2-1.3h2.2l1.3,1.3H471.4z M477.2,558.8l-2.2-2.2l3.5,1.3L477.2,558.8z"/>
						
							<polygon fill="#DDDDDD" stroke="#FFFFFF" stroke-width="1" stroke-linecap="round" stroke-linejoin="round" stroke-miterlimit="10" points="
							386.7,637.7 385.4,639.9 380.9,639.9 369,636.4 366.8,634.1 371.2,630.6 371.2,627.9 372.5,627.9 380.9,632.8 384.5,631.5 
							388,632.8 						"/>
						
							<polygon fill="#DDDDDD" stroke="#FFFFFF" stroke-width="1" stroke-linecap="round" stroke-linejoin="round" stroke-miterlimit="10" points="
							423.1,620 423.1,620.8 424.4,620.8 424.4,620 428.8,623.5 425.3,623.5 417.3,627.1 412.4,624.4 410.2,629.3 405.3,634.1 
							401.8,631.5 399.6,634.1 396,634.1 397.4,638.6 394.7,638.6 393.8,641.2 391.1,641.2 388.9,638.6 390.3,637.7 386.7,637.7 
							388,632.8 384.5,631.5 380.9,632.8 372.5,627.9 374.7,625.7 374.7,622.2 383.2,616.4 388,613.7 390.3,615.1 399.6,616.4 
							403.1,613.7 408,615.1 412.4,613.7 416,615.1 418.2,615.1 421.7,618.6 419.5,617.3 420.9,620 						"/>
						
							<polygon fill="#DDDDDD" stroke="#FFFFFF" stroke-width="1" stroke-linecap="round" stroke-linejoin="round" stroke-miterlimit="10" points="
							405.3,658.5 388,642.1 388.9,641.2 391.1,641.2 393.8,641.2 394.7,638.6 397.4,638.6 396,634.1 399.6,634.1 401.8,631.5 
							405.3,634.1 410.2,629.3 412.4,624.4 417.3,627.1 425.3,623.5 428.8,623.5 426.6,624.4 428,629.3 425.3,637.7 425.3,647 
							424.4,645.7 425.3,643.5 424.4,643.5 424.4,649.2 423.1,651.4 424.4,654.1 421.7,657.7 424.4,659.9 421.7,662.1 415.1,658.5 
							412.4,659.9 406.7,657.7 						"/>
						
							<path fill="#DDDDDD" stroke="#FFFFFF" stroke-width="1" stroke-linecap="round" stroke-linejoin="round" stroke-miterlimit="10" d="
							M433.7,672.7l3.5,4.9h3.5l-1.3-1.3l3.5,3.5h3.5l9.3-4.9l4.9-3.5l4.9,1.3v1.3l9.3,1.3l5.8,5.8l-1.3,1.3l2.2,4.9l-3.5,3.5
							l-1.3-1.3l-1.3,4.9l-4.9-8.4l2.2-2.2l3.5,2.2l-3.5-3.5l-2.2,1.3l-1.3-2.2l-4.9-3.5l1.3-1.3l-7.1,2.2l-2.2,3.5l-4.9,2.2
							l4.9,5.8l-4.9,3.5h-3.5l-1.3-5.8l-1.3,2.2l-3.5-1.3l-1.3-3.5l-9.3-2.2l-1.3,3.5l-1.3-3.5l1.3-1.3v-2.2l1.3-1.3l-2.2-1.3v-4.9
							l1.3-1.3L433.7,672.7z M442.1,690.5l1.3,2.2l-2.2-1.3L442.1,690.5z"/>
						<path fill="#DDDDDD" stroke="#FFFFFF" stroke-width="1" stroke-miterlimit="10" d="M700.7,26.6l-3.5-2.2l28.4,3.5l-12-3.5
							h4.9l-2.2-1.3v-2.2l3.5-1.3l-7.1,1.3l3.5,2.2l-12,1.3l-8.4-2.2h3.5l3.5-2.2l1.3-1.3l14.2-1.3l-1.3-1.3l3.5-2.2l-5.8,1.3
							l3.5-2.2H716l1.3-3.5l5.8,3.5l-1.3-1.3L724,13v-2.7L720.5,9l4.9-1.3H722l1.3-1.3l-7.1,1.3l2.2-3.5l5.8-1.3h-5.8l1.3-2.2
							l3.5,1.3l-3.5-1.3l5.8-1.3L722-3.1l2.2-2.2h-17.7l-21.3-9.3l3.5-3.5l10.6,1.3l22.2,7.1l-1.3-1.3l1.3-2.2L718-11l-3.5-2.2
							l4,1.3l1.3-1.3l-1.3-1.3h2.2l-7.1-1.3h7.1l-1.3-2.2l-10.6-3.5h9.3l-12-1.3l5.8-2.2l-1.3-1.3l-7.1,3.5l2.2-2.2v-1.3l8.4-2.2
							l-12,2.2l-2.2-1.3l10.6-4.9h-14.2l4.9-4.9l-4.9,2.2l-1.3-3.5l-3.5-4.9h2.2h-3.5l4.9,8.4l-4.9,1.3l1.3,2.2l-2.2-1.3l2.2,2.2
							l-1.3,2.2l-8.4,1.3l-3.5-2.2l1.3,1.3h-0.9l-2.2-3.5l-2.2-1.3l9.3-3.5l3.5-5.8l-3.5,4.9l-3.5,1.3l-2.2-2.2l7.1-5.8l-8.4-1.3h12
							l-5.8-1.3l3.5-1.3l-2.2-1.3l1.3-1.3H683l3.5-1.3l-2.2-3.5l-8.4-1.3l5.8-1.3l-3.5-1.3l3.5-2.2l-8.4-4.9l3.5-1.3l-2.2-2.2
							l2.2-1.3l-4.9-1.3l1.3-1.3l-3.5-1.3l2.2-3.5l-10.6,3.5l9.3-3.5l-3.5-1.3l4.9-1.3h-5.8l3.5-1.3l2.2-1.3l-8.4-2.2l-1.3-1.3
							l3.5-1.3l-2.2-1.3l-9.3-2.2l1.3-2.2l-3.5-2.2l1.3-2.2l-3.5,1.3l4.9-2.2l-4.9-3.5l2.2-1.3l-5.8,1.3l-1.3-3.5l-5.8,1.3l2.2-2.2
							H640l-23.5-7.1l-4.9,2.2l-5.8-3.5l-4.9,4.9l-3.5-4.9l-2.2,2.2v2.2l-5.8-1.3l-1.3,3.5l-3.5-2.2l1.3-2.2H581l-2.2,3.5l-4.9-3.5
							l-2.2,1.3l7.1,4.9l-20-4.9l-8.4-4.9l15.1-4.9l-18.6-1.3l3.5-4.9L541-126l-2.2-1.3l2.2-1.3l-5.8-2.2l10.6-3.5l32.8,2.2
							l-23.5-2.2l12.9-2.2l12.9,2.2l-3.5-3.5h4.9v-2.2l-8.4-2.2l-12,3.5l-3.5-3.5l1.3,3.5l-5.8,1.3l-9.3-2.2l7.1-3.5l-9.3,1.3
							l4.9-3.5h-14.2l-12.9-5.8l4.9-2.2h-3.5l3.5-4.9l32.8-5.8l-2.2-2.2l7.1-2.2l21.3-1.3l9.3-7.1l-1.3-10.6l12-3.5l-4.9-1.3
							l-5.8,3.5h-18.6l-4.9-3.5v-2.2l12.9-5.8l22.2-10.6l7.1,8.4l-4.9-7.1l2.2-3.5l17.7,2.2l2.2-1.3l-3.5-3.5l4.9-3.5l-5.8-4.9
							l12-4.9l10.6,2.2l2.2,3.5l20,7.1l-18.6-12l-8.4-2.2l14.2-3.5l17.7-2.2l7.1,2.2l-4.9-2.2l14.2-1.3l4.9,4.9v4.9l-2.2,7.1
							l2.2,1.3v-0.9l4.9-3.5v-3.5l1.3-1.3l29.3,9.3l-12.9-7.1h14.2l-10.6-4.9l-3.5-7.1H735l41.2,16.4l3.5-2.2l-5.8-3.5l3.5-2.2
							l-2.2-1.3l1.3-2.2l21.3,1.3l-14.2-2.2l-17.7-9.3h32.8l4.9,5.8v-3.5l-2.2-2.2h3.5l12,4.9l3.5,3.5l-2.2-3.5l1.3-3.5l-10.6-2.2
							l-44.8-1.3l-7.1-2.2l7.1,1.3l-1.3-1.3l-4.9-1.3l5.8-1.3l24.8,3.5l-20-4.9H792l-9.3-2.2l10.6-1.3l37.7,10.6l-4.9-4.9h16.4
							l-12.9-1.3l16.4-2.2l-15.1-1.3l-2.2-1.3v-3.5l9.3,1.3l-2.2-1.3l4.9-1.3l10.6,2.2l-4.9-2.2l3.5-1.3l18.6-1.3l4.9,3.5l-1.3-3.5
							h3.5h29.3l37.7,4.9l4.9,2.2l-3.5,1.3l-31.9,1.3l-21.3,2.2l-12.9-2.2l8.4,3.5l-28.4,2.2h2.2l-1.3,3.5l4.9-3.5h9.3v2.2l3.5-3.5
							l16.4,1.3l12-4.9h2.2h12l34.1-1.3l2.2,3.5l-10.6,5.8l17.7-3.5h1.3l-2.2,3.5l5.8-2.2l18.6,5.8l-10.6,5.8l-23.5,3.5l-57.7-1.3
							l14.2,2.2l-25.7,5.8l-2.2,1.3l1.3,2.2l35.5-7.1h34.1v3.5l-1.3,2.2l-20,4.9l3.5,1.3l-3.5,1.3h2.2l28.4-7.1l2.2-5.8l15.1-2.2
							l2.2,7.1l-2.2,5.8l-5.8,4.9h1.3l-9.3,8.4v2.2l-1.3,1.3l-4.9,1.3h3.5L958-197l4.9-1.3l3.5-5.8l25.7-14.2l7.1-2.2l-3.5,1.3v4.9
							l9.3-3.5l9.3,2.2l4.9-3.5l-1.3-2.2h3.5h-1.3v-2.2l24.8-1.3l23.5,5.8l-16.4,10.6l-10.6,1.3l4.9,3.5l-12,3.5l-17.7-1.3l-5.8,3.5
							l-23.5,1.3h44.8l-4.9,3.5l1.3,1.3l-7.1,2.2l-21.3-1.3l-7.1,3.5h1.3l-3.5,4.9l4.9,2.2l3.5-1.3H997l1.3-3.5l7.1-2.2l16.4,1.3
							l-7.1,5.8h-12l-2.2,5.8l1.3,2.2l-2.2,3.5l2.2-3.5l4.9,1.3l-1.3,1.3l-1.3-1.3l-5.8,4.9l1.3,2.2l-1.3,1.3l-10.6,1.3l2.2,2.2
							l-4.9,1.3h4.9l-3.5,7.1v1.3l-3.5,2.2h2.2l-4.9,8.4l4.9,1.3l3.5-7.1l14.2,4.9l2.2,2.2l-2.2,1.3l-9.3-3.5l-5.8,1.3l5.8,1.3
							l-3.5,1.3l2.2,1.3l-5.8-1.3l9.3,2.2H989l9.3,1.3l3.5,2.2l8.4-1.3l3.5,7.1l-3.5,3.5l-22.2-4.9l3.5,1.3l-2.2,1.3H981l7.1,1.3
							l-5.8,3.5l-5.8-4.9l-4.9,3.5l3.5,3.5l4.9-2.2l1.3,2.2l-2.2,1.3l2.2-1.3l-1.3,1.3h-5.8h2.2h4.9h1.3l-1.3,3.5l1.3,1.3l10.6,1.3
							l-4.9-3.5l12,3.5l-7.1,2.2H979l20,2.2l3.5,8.4l-2.2,4.9l-22.2-9.3l5.8,3.5l-9.3-1.3l17.7,5.8l-10.6,4.9l-5.8-3.5l5.8,3.5
							l9.3-2.2l-1.3,4.9l1.3,2.2h-3.5l2.2,1.3l12.9-1.3l1.3,3.5h2.2l-3.5,4.9l-24.8-5.8l3.5,2.2l-7.1,2.2l4.9,1.3l-4.9,2.2l4.9,2.2
							l1.3,5.8l1.3-1.3l-1.3-5.8h1.3l12.9,2.2l-2.2,3.5l1.3,3.5h-10.6L976-57l-10.6-3.5l-4.9-4.9l12.9,2.2l4.9-1.3l-5.8,1.3l-12-4.9
							l-3.5,2.2v2.2l-10.6-7.1l8.4,8.4l-12.9,4.9l-12-3.5l9.3,3.5l-12,1.3l3.5,1.3l-1.3,2.2l2.2-2.2l7.1-2.2l12.9,3.5l-9.3,3.5h-12
							h8.4l-3.5,1.3h4.9l-1.3,2.2l8.4-3.5l5.8,1.3l2.2,3.5l-1.3,1.3l-10.6,1.3h5.8l-2.2,4.9l3.5-3.5l5.8-1.3l17.7,8.4l-5.8,4.9
							l7.1-2.2l-2.2,2.2v1.3l7.1-3.5l-5.8,4.9v3.5l3.5-3.5h2.2l1.3,1.3L980-24h2.2l-3.5,1.3h2.2v2.2l-5.8,1.3l7.1,1.3l-3.5,2.2
							l3.5,1.3v1.3l-1.3,2.2h2.2L978.3-8l-3.5-1.3l-1.3-5.8l-1.3,2.2V-8l-10.6-2.2l-3.5-3.5v-4.9l-9.3-5.8l-3.5-2.2h-12l-7.1-5.8
							l-8.4-3.5l12,7.1l-9.3,2.2l9.3-1.3l17.7,4.9l-1.3,2.2l-2.2-1.3l1.3,1.3L934.4-16h-5.8l-3.5-3.5l2.2,2.2h-7.1l4.9,2.2l-3.5,4.9
							l-8.4,1.3l8.4,2.2L938-8.9l1.3,1.3l-2.2,1.3l-17.7,3.5l9.3,2.2l4.9-4.9l5.8,1.3l9.3-3.5l-1.3,2.2l3.5-1.3l12.9,3.5h12.9
							L975.4-2l-7.1,1.3l-2.2,1.3l2.2,2.2l-3.5-1.3l1.3,1.3h-5.8l2.2,1.3v2.2L956.7,5l2.2,1.3L957.5,8L954,9.3v2.2l-5.8-1.3l2.2,3.5
							h-5.8l2.2,2.2l-8.4,4.9l-12,2.2l-3.5-1.3V23l-7.1,2.2l-3.5-1.3l1.3,2.2l-2.2,1.3l-4.9-3.5l-3.5,2.2l2.2,2.2l-7.1-2.2l3.5,3.5
							h-5.8l-5.8-1.3l-1.3-1.3l2.2-1.3H886l-3.5-5.8l-1.3,2.2l5.8,1.3l-2.2,1.3l4.9,1.3l-1.3,3.5l-10.6,2.2l1.3,1.3l-1.3,3.5
							l-3.5,1.3l2.2,1.3l-5.8,3.5l-2.2,7.1l-1.3-2.2v2.2l-2.2,2.2l-2.2,2.2l-1.3-2.2l-1.3,1.3l1.3,1.3h-1.3l-5.8-2.2l2.2,2.2v2.2
							l-7.1,2.2v-2.2h-1.3V58l-4.9,2.2v-3.5l-1.3,4.9l-5.8-3.5l5.8-4.9l-8-2.2l3.5,2.2h-2.2l1.3,1.3l-2.7,3.5l-3.5-1.3l3.5,3.5
							l-0.9,2.7l-4.9-1.3l1.3,2.2h-3.5l-2.2-2.2v1.3l-3.5-1.3l-1.3,2.2h-3.5l3.5,1.3l-1.3,1.3l1.3,2.2l-3.5,2.2l-3.5-0.9l-4.9,2.2
							l3.5,3.5l1.3,1.3v2.2l2.2,2.2l-12,1.3l9.8,2.2l-2.2,2.2h2.2v3.5l-9.3-2.2l7.1,2.2l1.3,2.2H806l2.2,1.3h-1.3l-2.2-2.2L806,94
							l-3.5-1.3l4.9,2.2l-7.1-2.2l3.5,5.8l-4.9-2.2l4.9,2.2l-2.2,1.3h1.3l-1.8,2.7H796V102l-2.2,2.7H788l9.3,4.9l-7.1-1.3l5.8,3.5
							l-2.2,4.4l3.5-1.3l-2.2,1.3l1.3,1.3l-4.9,1.3l3.5,1.3l-6.2,0.9h4.9l1.3,2.2l-2.2,1.3h-4.9l4.9,1.3h-3.5l3.5,1.3h-8.4l8.4,1.3
							l-3.5,2.2l-3.5-1.3l5.8,2.2l-7.1-1.3l7.1,2.2h-2.2h2.2v2.2h-4.9l1.3,1.3l-4.9-3.5l1.3,2.2l-5.8-1.3l8.4,2.2l-2.2,2.2l3.5-1.3
							l1.3,1.3l-2.2,1.3l2.2,1.3l-9.3-1.3l1.3-1.3l-1.3-1.3l-3.5,2.2l-1.3,2.2l-4.9-1.3l5.8-4.9l-5.8,4.9l4.9-8.4l-4.9,3.5v-0.9
							l-3.5,1.3l2.2-2.2l-2.2,3.5l-1.3-2.2h-2.2l5.8-3.5l-1.3-1.3l-2.2,2.2H761l7.1-2.2l1.3-2.2l1.3-1.3l-2.2,2.2v-1.3l-1.8-1.3v2.2
							l-1.3,1.3l-3.5,1.3l3.5-3.5l-0.9-1.3v-0.9l-2.7,0.9l2.2,1.3l-1.3,1.3l-2.2,1.3l-2.2-1.3l-3.5,3.5l-0.9-2.7l-10.6,2.2l4.9-2.2
							h-7.1l5.8-1.3l-3.5-1.3h-1.3l-3.5-0.9l2.2-1.3l-5.8-1.3l7.1-2.2l-5.8,1.3l-3.5-0.9l7.1-1.3l-4.9-1.3l2.2-3.5l-3.5,3.5h-1.3
							l1.3-2.2l-2.2,1.3l5.8-3.5h-2.2l1.3-2.2l-2.2,3.5h-3.5l-1.3-1.3l3.5-1.3h-2.2l2.2-1.3H728l-3.5-3.5l2.2-4.9l-2.2,2.2l1.3-2.2
							V102l3.5-2.2l-3.5,2.2l-2.2,2.2l2.2-3.5h-4.9v-0.9l5.8-2.2l-8,0.9l1.3-1.3l-2.2,1.3v-2.2l7.1-1.3h-8.4l3.5-1.3l-2.2-1.3h-1.3
							h1.3l4.9-1.3h-4.9l-1.3,1.3v1.3l-3.5-3.5l5.8-2.2l-4.4,1.3l1.3-2.2h-2.2l14.2-3.5l-4.9,1.3v-2.2l-8.4,3.1l-2.2-2.2h7.1H718
							l0.9-2.2l7.1-1.3l-7.1-1.3l3.5-1.3l8.4,4.9l-3.5-3.5v-2.2h-2.2l2.2-2.2l-4.9,1.3l-3.5-6.2l2.2,7.1l-4.9,1.3l1.3-1.3h-1.3
							l-4.9,5.8l-2.2,1.3l-1.3-7.1l7.1-4.9l-8.4,3.5l2.2-2.2l-2.2-1.3l1.3-2.2h-2.2l1.3-1.3l-2.2,1.3l-0.9-1.3l7.1-4.9l1.3-1.3h10.6
							l-8.4-0.9l-4.9,1.3l-4.9,4.9l-1.3-1.3l1.3-2.2l-2.2,1.3v-1.3l1.3-1.3l-1.3,1.3v-2.2V63h-4.9l3.5-1.3l-3.5,1.3l2.2-2.2h5.8
							l4.9-3.5l-12,3.5l-1.3-1.3l3.5-1.3l-4,0.9l2.2-1.3h-2.2l18.6-12.9l8.4,1.3l-4.9-2.2h8.4h-8.4l-23.5,12.9v-2.2h3.5h-4.9v-3.5
							l12-1.3l-10.6-1.3l8.4-1.3l-3.5-1.3l7.1-1.3L694,42.5l-1.3-1.3h4.9l-5.8-1.3l3.5-2.2l12.9-1.3h1.3h3.5l3.5,3.5l7.1-1.3
							l-7.1,1.3l-3.5-3.5l3.5-1.3h-9.3l-9.3,1.3l-4.9,2.2V35l12-5.8l21.3,4.9l-5.8-1.3l7.1-2.2H717l7.1-1.3l-3.5-1.3l1.3,1.3H717
							l-1.3-1.3h2.2l0,0H713l2.2,2.2l-3.5,1.3l-5.8-1.3L694,35l-1.3-1.3l2.2-2.2l-1.3-1.3l5.8-2.2l-1.3-1.3h2.6V26.6z M687.8,5.7
							l8.4-1.3l-1.3-1.3l1.3-1.3L692.7,4l-1.3-1.3V1.3L682.1,0h4.9l-4.9-2.2l2.2-2.2l4.9,1.3l-5.8-2.2v-2.2l3.5-2.2l10.6,2.2
							l12.9,9.3l-15.1,5.8L687.8,5.7z M969-51l9.3,5.8h-7.1l5.8,3.5l-1.3,2.2L957-47.9l-1.3-3.5h9.3h2.2h1.8V-51z M945.5-21.3
							l2.2,2.2l1.3,4.9L924.2-12h-1.3l9.3-5.8L945.5-21.3z M771.7-228.4l-24.8-12.9H761l15.1,5.8l-4.9,3.5l2.2,2.2L771.7-228.4z
							 M957.5-61.7l10.6,3.5l-16.4-1.3l18.6,2.2L957.5-55l-10.6-2.2l-1.3-1.3l3.5-3.5h8.4L957.5-61.7L957.5-61.7z M1015.1-96.7
							l1.3,2.2l-3.5,1.3l3.5,2.2l4.9-1.3l-2.2,3.5l-12.9-1.3l1.3-5.8L1015.1-96.7z M979.6-48.4l-12-3.5l-12.9-1.3l12-2.2l7.1,1.3
							l5.8,1.3l-3.5,2.2L979.6-48.4z M988.1-79h3.5l3.5,4.9l-9.3,1.3l-7.1-2.2L988.1-79z M1009.4-110.9v5.8l-4.9-12l3.5-1.3
							l-3.5-3.5l3.5,2.2L1009.4-110.9z M993.8-89.6h2.2l-1.3,2.2l3.5,1.3l-2.2,2.2l-5.8-2.2l1.3-3.5H993.8z M716.2-227.5l-20-4.9
							l4.9-2.2L716.2-227.5z M717.1-2.7l3.5,1.3L718.4,0v3.5h-3.5l-1.3-2.2L717.1-2.7l-2.2,1.3L717.1-2.7z M837.3,64.3l-2.2-2.2
							l1.3-2.2l4.9,1.3H840l1.3,1.3L837.3,64.3z M679.9-51h2.2l-4.9,4.9l-3.5-1.3L679.9-51z M825.8-251.9l-15.1-3.5l3.5-1.3
							L825.8-251.9z M815.1,81.1l-2.2-1.3l-1.3-2.2l-2.2-3.5l2.2,1.3L815.1,81.1z M995.2-224.9l-5.8-4.9l8.4,2.2l1.3,2.2h-4
							L995.2-224.9L995.2-224.9z M526.9-134.4l8.4,1.3l-7.1,1.3l-3.5-2.2h2.2L526.9-134.4L526.9-134.4z M694.9-24.9l1.3,2.2v1.3
							l-4.9-1.3L694.9-24.9z M698.5-26.2l7.1,1.3l-4.9,2.2L698.5-26.2z M819.5-249.7l-8.4-3.5l12,1.3L819.5-249.7z M1009.4-219.1
							l-5.8-3.5h4.9l3.5,2.2L1009.4-219.1z M1004.5-188.5l-8.4,1.3l2.2-2.2L1004.5-188.5z M1017.3-143.7l1.3,2.2l-1.3,2.2h-4.9
							L1017.3-143.7z M784.5,143.2l-4.9-3.5l8.4,1.3h-3.5V143.2L784.5,143.2z M1002.3-159.2l-3.5-1.3l4.9-3.5l-1.3,2.2h1.3l-1.3,1.3
							h2.2L1002.3-159.2z M741.9-244.8l-1.3-1.3l1.3-1.3l8.4,2.2h-8.4V-244.8z M697.1-29.7l-2.2-1.3h7.1L697.1-29.7z M781.9,144.5
							h-2.2l1.3-2.2l3.5,2.2H781.9z M682.1-43.9l-3.5,3.5h-2.2L682.1-43.9z M1017.3-169.9v3.5l-3.5,1.3L1017.3-169.9z M746.8,131.7
							h1.3l-2.2,1.3l-3.5-1.3H746.8z M719.8,79.8l-4.9,3.5l2.2-4.9L719.8,79.8z M988.1-219.1l0.9-1.3l-1.3-1.3l7.1,1.3L988.1-219.1z
							 M741.9-236.8L737-239l5.8,1.3L741.9-236.8z M770.3,137.5v1.3l-2.2,1.3l1.3-2.2h0.9V137.5z M931.3-17.8l-4.9,1.3v-2.2
							L931.3-17.8z M670.1-67.4l-4.9-2.2l7.1,1.3L670.1-67.4z M709.1-20.4l3.5,2.2h-4.9L709.1-20.4z M778.3,141l-1.3,1.3h-0.9
							l1.3-2.2L778.3,141z M673.6-63.9l3.5,2.2l-2.2,1.3l1.3-2.2l-4.9-1.3H673.6z M990.3-116.7v2.2l-3.5-1.3L990.3-116.7z
							 M700.7,19.9v1.3l-1.3,1.3l-1.3-1.3h-1.3l2.2-1.3H700.7z M985.4-118l-3.5-1.3h4.9L985.4-118z M779.6,143.2h-2.2l3.5-1.3
							L779.6,143.2z"/>
						<path fill="#DDDDDD" stroke="#FFFFFF" stroke-width="1" stroke-miterlimit="10" d="M2794.4,71.4l-12.9,7.1l2.2-1.3
							l-10.6-1.3l-5.8-4.4h-5.8h5.8l3.5,3.5h-2.2l-9.3-2.2L2758,74l-2.2,1.3l-10.6,2.2l10.6-1.3l3.5-2.2l3.5,2.2l-3.5,2.2l12.9-2.2
							l-1.3,2.2l2.2,3.5l4.9,1.3l1.3-1.3l2.2,2.2l-1.3,2.2l2.2,1.3l1.3,3.5l-4.9,1.3h3.5v2.2l1.3-2.2l1.3,3.5l4.9,2.2l-2.2,2.2
							l3.5,4.9l-3.5,2.2l-1.3,2.2l-15.1-3.5l0.4-3.1l-2.2,2.2l-2.2-2.2v2.2l2.2,1.3l-23.5,8.4l1.3,1.3l-1.3,1.3l-9.3,1.3l-1.3,1.8
							l-2.2,2.2h-3.5l1.3,1.3l-4.9,0.9l1.3,2.2h-4.9l2.2,1.3l-2.2,1.3V129l-12,7.1l-3.5,7.1l-4.9-7.1l-4.9-2.2h-9.3l-10.6,3.5
							l-8.4,7.1l2.2-8.4h-1.3l-10.6,4.9l1.3,1.3l-3.5,3.5l-2.2-4.9l-3.5,3.5l-1.3-2.2h-3.5l1.3,1.3l-3.5,1.3v2.2l-1.3,1.3l1.3,3.5
							l-2.2,1.3l1.3,2.2l-3.5-1.3l2.2,1.3l-5.8,4.9l-4.9,8.4l3.5,4.9l2.2-3.5l5.8,1.3v1.3l-1.3,3.5l-3.5,2.2l1.3,5.8l1.3,2.2
							l2.2-1.3l1.3,7.1l-2.2,2.2l-3.5-2.2l3.5-3.5h-1.3l-4.9,1.3l1.3,1.3l-4.9,2.2l-3.5,8.4l4.9,9.3l-3.5,2.2l-3.5,1.3l-5.8-1.3
							l-7.1,4.9l-1.3,5.8l1.3,2.2h-1.3l2.2,4.9l-4.9-2.2l-7.1,4.9l-3.5-1.3l1.3,1.3h1.3l-1.3,3.5h-1.3l1.3,3.5l-2.2,4.9l-14.2,12.9
							l1.3-2.2l-2.2-3.5l-2.2-14.2h1.3l-2.2-3.5l-4.9-25.7v-12.9l3.5-9.3l8.4-9.3l-1.3-4.9l12.9-3.5l12.9-10.6l1.3-3.5l5.8-5.8
							l12-8.4l1.3-3.5l16.4-7.1l-2.2-1.3l4.9-3.5l-2.2-2.2l2.2-4.9l1.3-5.8l4.9-3.5l5.8,2.2l-1.3-2.2l3.5,1.3l-10.6-4.9l-10.6,2.2
							v2.2l1.3,1.3l-2.2,1.3l-1.3,5.8l3.5,2.2l-3.5,2.2l-1.3-3.5l-1.3,1.3l0,0l-2.2-1.3l-15.1,12.9l-5.8,1.3l2.2-5.8l-4.9,1.3
							l1.3-2.2l-1.3-2.2l4.9-5.8V116l-7.1,3.5l-2.2-3.5l-12,2.2l-4.9-1.3l-6.7,4v4.4l-5.8,2.2l-1.3,3.5l-15.1,12l1.3,3.5l-2.2,2.2
							l3.5,1.3v-2.2l7.1,2.2l-1.3,2.2l-3.5,1.3l-2.2-1.3l-3.5,2.2l-5.8-2.2l-4.9,3.5l-4.9-1.3l-9.3,2.2l-2.2-3.5l10.6-1.3l-4.9-1.3
							l-2.2-3.5l-7.1,1.3h-2.2l2.2-1.3l-9.3-2.2l-4.9,1.3l1.3,2.2h-4.9v1.3h2.2v2.2l-4.9-1.3l-1.3-1.3l-7.1,2.2l-5.8-2.2l-3.5-1.3
							l-1.3,1.3v2.2l-3.5,1.3l-1.3-2.2l1.3-1.3H2470l-14.2,3.5l-5.8,5.8l-7.1,4.9l-3.5,7.1l-16.4,10.6l-8.4,10.6l-22.2,15.1v2.2
							l4.9,2.2l9.3-1.3v5.8l-1.3,3.5l1.3,1.3l3.5-1.3l1.3-2.2l-2.2-1.3l1.3-1.3l4.9-1.3l-3.5,3.5l4.9,1.3l-5.8,4.9l1.3,1.3l5.8-1.3
							l5.8-4.9v2.2l-3.5,2.2l2.2,1.3l2.2-5.8v-4.9l5.8,2.2l3.5-1.3l3.5,2.2l1.3,2.2l2.2,2.2l7.1,4.9l1.3,2.2l-2.2,1.3l-4.9-1.3
							l4.9,3.5l1.3,2.2l-2.2,2.2l3.5,2.2l-1.3,2.2v1.3l-5.8,7.1v4.9l-2.2,3.5l1.3,5.8l1.3,1.3l-2.2,2.2l1.3,3.5l-2.2,3.5l1.3,3.5
							l-2.2,5.8l-8.4,7.1l-5.8,9.3l-4.9,9.3l-20,20l-7.1,9.3l-10.6,7.1l-7.1,2.2l-5.8-3.5l-1.3,1.3v-4.9l-3.5,2.2h-1.3l2.2-2.2h-2.2
							l-4.9,8.4l-5.8-1.3l2.2,1.3l-1.3,2.2l-1.3-1.3l-2.2-3.5l7.1-1.3l1.3-5.8l-1.3-1.3l1.3-5.8l-3.5-8.4l4.9-2.2l3.5-3.5l10.6,3.5
							l1.3-4.9l3.5-2.2v-2.2l3.5-4.9V304l1.3-2.2l1.3-7.1l5.8-4.9l-2.2-3.5l1.3-2.2l-2.2-2.2l-8.4,4.9l-3.5-1.3l-5.8,4.9H2357
							l-3.5-4.9l1.3-2.2l-2.2-3.5l1.3-2.2h-3.5l-7.1-7.1l-3.5,1.3l-3.5-2.2h-7.1l-3.5-3.5l1.3-4.9l-2.2-1.3l-1.3-4.9l-2.2-3.5V248
							l-1.3,1.3l1.3-1.3l-4.9-8.4l1.3-1.3l-4.9-5.8v-1.3l-3.5-2.2v-1.3l-10.6-2.2l-8.4-4.9l-24.8,3.5l-7.1,5.8v6.2l5.8,1.3v2.2
							l1.3,2.2l-7.1,5.8l-8.4,15.1h2.2v3.5l-7.1,1.3l-5.8,4.9l-10.6-3.5l-4.9-2.2l-7.1,2.2l-5.8-4.9h-4.9l-12.9,8.4l-18.6,4.9
							l-18.6-2.2l-5.8-3.5v-3.5l-7.1-1.3l-4.9-3.5l-12-1.3l-12,3.5h-7.1l-8.4-4.9l-1.3-9.3l-20-4.9l-9.3-4.9l-2.2,3.5l-5.8,4.9
							l-2.2,5.8l2.2,3.5l2.2,1.3v3.5l-2.2,2.2l-5.8,3.5l-12-2.2l-4.9,1.3l-8.4-2.2l-3.5-5.8h-10.6l-1.3-2.2l-2.2,1.3l-3.5-2.2
							l-23.5,10.6v2.2l-3.5,1.3l-1.3,1.3l-8.4,1.3v1.3l-3.5,1.3l-4.9,1.3l-5.8-5.8l1.3-2.2l-5.8,3.5l-8.4-1.3l-2.2-4.9v-1.3
							l-5.8-2.2l-2.2-5.8l-4.9-2.2h-7.1l-2.2,2.2h-9.3v-2.2h-3.5l1.3-2.2l-4.9-2.2l-1.3,2.2v2.2l-3.5,2.2l-20-30.6l-12-8.4l-1.3-2.2
							h2.2l1.3-3.5l-18.6,7.1l-2.2,2.2v2.2l-4.9-2.2l-4.9,3.5l-1.3-3.5l1.3-2.2h2.2l1.3-2.2l-4.9,1.3l-5.8-2.2l-1.3,1.3l2.2,1.3
							l-3.5,1.3l1.3-3.5l-4.9-2.2l2.2,2.2l-4.9-1.3l-1.3,2.2l-2.2-2.2l-1.3,2.2l-2.2-3.5h2.2l1.3-4.9l-2.2-1.3l-2.2-5.8h-4.4
							l-1.3,2.2l-12-4.9v2.2l-2.2-1.3l-1.3,2.2h-3.5l1.3,1.3l-1.3,1.3l-24.8,4.9l-2.2,1.3v2.2l-2.2-1.3L1745,217l-4.9,1.3l-1.3,2.2
							l-2.2-2.2h-8.4l-3.5,1.3l2.2,2.2l-3.5,2.2l5.8,1.3h-2.2l-1.3,2.2l8.4,2.2l1.3,1.3h-9.3l-3.5,3.5l2.2,4.9l-9.3,4.9l4.9,1.3
							l-1.3,2.2h5.8l5.8,4.9l-2.2,5.8l-5.8,1.3l-5.8-2.2l-2.2,3.5l-2.2,1.3l-1.3-2.2l-7.1-2.2v-2.2l-2.2-1.3h-4.9l-1.3,2.2l-2.2,1.3
							l-3.5-2.2h-4.9l-8.4,5.8l-9.3-5.8v1.3l1.3,3.5l-2.2,1.3v-3.5l-9.3-7.1h-7.1l-2.2-3.5l-4.9,1.3l-1.3,2.2h-3.5l1.3-2.2l-5.8-1.3
							v2.2l-1.3-1.3l-2.2,3.5l-8.4,2.2v3.5l-7.1,3.5l1.3,7.1l-4.9,1.3l-5.8-7.1l-2.2,2.2l-1.3,2.2l-2.2,2.2l-1.3,5.8l2.2,2.2
							l-5.8,8.4l5.8,2.2l1.3,4.9h8.4l8.4,10.6h-4.9v2.2l5.8,2.2l1.3,3.5l5.8,2.2l-4.9,3.5l-7.1,8.4l4.9,14.2l4.9,8.4l-16.4,16.4
							h-4.9l-5.8-7.1h-2.2l-7.1-3.5v-3.5l-7.1-2.2l-9.3,2.2l-1.3-1.3l1.3-1.3l-9.3-4.9h-10.6l-12-4.9l-2.2,2.2l-12-9.3l-4.9-1.3
							l-3.5-3.5h-3.5l-2.2-3.5l-5.8-2.2l3.5-1.3h-2.2l1.3-1.3l3.5,2.2l4.9-1.3l-1.3-3.5l3.5-4.9l1.3,1.3l1.3-2.2l3.5,1.3l-5.8-3.5
							l-2.2-3.5h8.4h-3.5v-1.3l8.4-2.2v-2.2l-9.3,1.3l1.3-4.9l3.5-2.2l1.3-1.3h8.4l2.2-5.8l-3.5-3.5l3.5-2.2l-3.5-2.2l4.9-2.2v-3.5
							h-3.5l-5.8-3.5h-1.3l-5.8-2.2l-3.5,2.2l-4.9-7.1l-7.1,2.2l-4.9-2.2l-4.9,1.3l-1.3-2.2l-1.3-5.8l-2.2-2.2h-6.2l-2.2-4.9
							l2.2-2.2l-5.8-5.8H1467l-1.3,3.5l-3.5-1.3l-2.2-2.2v-5.8l-2.2-2.2l1.3-2.2l7.1,1.3l4.9-4.9l-2.2-1.3v-1.3l-5.8-1.3v-3.5
							l-4.9-2.2l-1.3-4.9l-3.5-2.2l2.2-2.2l-2.2-3.5l1.3-3.5l-5.8-3.5l-7.1,2.2v-3.5h-5.8l-5.8-2.2l1.3-2.2l-3.5-5.8l-1.3-1.3
							l1.3-5.8l-4.9-2.2l1.3-3.5l3.5-1.3l-3.5-4.9v-7.1l3.5-7.1h2.2l-1.3-2.2V144l3.5,2.2l1.3-2.2l2.2,1.3l3.5-3.5l8.4,2.2l1.3-2.2
							l-15.1-4.9l-1.3-2.2l2.2,1.3l-1.3-2.2l1.3-1.3l-8.4,2.2l31.9-27.1l2.2-5.8l-2.2-4.9l-12.9-7.1l5.8-4.9v-2.2l-4.4-2.2l-1.3-2.7
							l2.2-1.3l-1.3-2.2l-4.9-1.3v-2.2l2.2-1.3l-2.2-1.3l2.2-7.1h2.2l-2.2-7.1l-7.1-10.6l8.4-12.9l-5.8-5.8l-5.8-1.3l-2.2-5.8
							l3.5-4.9l-3.5-1.3l4.9-2.2h2.2l1.3-3.5l7.1-3.5V0.4l7.1,2.2v-4.9l8.4,2.2v-2.2h2.2l-1.3-1.3l1.3-1.3l9.3,3.5l-2.2,2.2h-7.1
							l3.5,1.3l-2.2,1.3h7.1l-1.3,2.2l5.8-2.2l-2.2,2.2l2.2,1.3v1.3l-4.9,3.5l3.5-2.2l3.5-3.5l20,2.2l16.4,7.1l5.8,5.8l9.3,4.9h2.2
							v-2.2l5.8,7.1l5.8,1.3V38l2.2,2.2l-2.2,4.9l-9.3,8.4l-12.9,2.2l-28.4-4.9l-5.8-3.5l-3.1,1.8l-7.1-3.5h-3.5l-4.9-4.9l-8.4-1.3
							l3.5,1.3l5.8,4.9V47l4.9,1.3l-4.9,1.3h4.9h-3.5l5.8,1.3l-2.2,2.2l7.1,1.3l5.8,4.9l1.3,3.5l-2.2-1.3v4.9l-2.2,0.4l4.9,8.4v2.2
							l-1.3,1.3l1.3,1.3l10.6,3.5l1.3,3.5l12,2.2l4.9-2.2l-1.3-4.9l-7.5-1.3l-5.8-4.9l-1.3-3.5h3.5l1.3-3.5l12.9,4.9l-2.2,2.2v1.3
							l3.5-2.2l17.7,3.5l-1.3-4.9l-5.8-7.1l1.3-3.5l14.2-7.1l7.1-7.1l10.6,2.2l3.5,2.2l-3.5,2.2v1.3h1.3v-1.3l3.5-1.3l2.2,4.9v-4.9
							l1.3-3.5l2.2-3.5l-1.3-2.2l1.3-2.2l-7.1-4.9l3.5-7.1v-2.2l1.3-1.3h-1.3l1.3-4.9l-8.4-7.1l23.5,3.5l4.9,5.8l2.2,4.9l-12,1.3
							l-4.9,5.8l5.8,2.2l4.9,5.8l4.9-1.3l-2.2,2.2l12-3.5v-3.5l2.2-3.5l-1.3-2.2l2.2-1.3h9.3l-4.9-4.9l5.8,1.3l14.2-8.4l12-2.2
							l2.2,1.3l-2.2,1.3l1.3,1.3l4.9-2.2l-2.2-1.3l1.3-1.3h-2.2l10.6-4.9l9.3-1.3l-8.4,1.3l3.5,1.3l-3.5,3.5l2.2,3.5l-5.8,2.2
							l8.4,1.3l2.2-2.2l3.5,2.2l1.3-3.5l9.3-3.5l12,1.3l8.4-4.9l1.3,2.2l-1.3-2.2l5.8-2.2h2.2l-2.2,1.3l4.9,3.5l-3.5,1.3v3.5h7.1
							l1.3-1.3l-1.3-3.5l9.3-3.5V8.4h-2.2l-3.5-7.1l7.1-4.9l29.3,5.8l7.1,3.5l-2.2,2.2l2.2-2.2l17.7,7.1l10.6,7.1l1.3,3.5l4.9-7.1
							l2.2-3.5l-1.3-1.3h2.2l-7.1-1.3l-3.5-4.9V1.7l-9.3-2.2l-1.3,2.2l-1.3-1.3l1.3-7.1l3.5-1.3l-1.3-1.3l1.3-9.3l-5.8-1.3l2.2-3.5
							h-2.2l2.2-2.2l14.2-10.6l4.9-14.2l3.5-4.9l20,1.3l10.6,2.2v2.2l1.3,5.8l-4.9,7.1v2.2l-4.9,3.5l7.1,5.8l1.3,4.9l-1.3,3.5
							l1.3,3.5l-3.5,2.2l2.2,1.3l-1.3,2.2l1.3,3.5l-1.3,3.5v9.3l10.6,9.3l-5.8,2.2l1.3,5.8l-1.3,2.2l-4.9,2.2l-1.3,3.5l-3.5,1.3
							l2.2,1.3l-4.9,3.5h-2.2l1.3,4.9l-8.4,2.2l-3.5-2.2l3.5-2.2h-15.1l3.5,4.9l23.5,3.5l3.5-1.3l1.3-4.9l12-4.9l1.3-4.9l2.2-3.5
							l4.9-4.9v-5.8l-3.5-3.5l1.3-4.9l16.4-4.9l9.3,8.4l-1.3,3.5h1.3l-1.3,4.9l1.3,1.3l-2.2,1.3l5.8,3.5h12l-14.2-2.2l1.3-7.1
							l4.9-1.3l-3.5-3.5l-1.3-7.1L1861,4.4l-12,2.2l-9.3-1.3l2.2-3.5l-3.5-5.8l1.3-5.8l4.4-2.7v-2.2l-7.1-10.6l-4.9-2.2l4.9-4.9
							v-2.2l12.9-4.9l1.3-4.9l-2.2-7.1h4.9l2.2,4.9l-1.3,1.3l2.2,3.5l-4.9,7.1l2.2,3.5l-2.2,4.9l14.2,2.2l1.3,2.2v-2.2l5.8,1.3
							l7.1,3.5l5.8-1.3h-4.9v-2.2h-2.2V-25h-3.5l1.3-1.3l-4.9,1.3l-10.6-4.9l-2.2-5.8l7.1-2.2l8.4,3.5l4.9-2.2l-8.4-1.3l1.3-2.2
							l9.3-3.5h8.4l12.9,4.9l-2.2,1.3l9.3,5.8h14.2l-3.5,4.9l-5.8,2.2l1.3,3.5l-1.3,1.3l2.2,3.5l-3.5,3.5l2.2,5.8l-1.3-5.8l2.2-1.3
							l2.2-4.9h3.5l-1.3,8.4l-3.5,3.5l4.9,2.2v-1.3l-1.3-3.5l7.1-2.2l-5.8-12.9l4.9-5.8l-2.2-3.5l-10.6-4.9l1.3-1.3l-2.2-1.3
							l-12-4.9v-1.8l-1.3-1.3l1.3-4.9l-4.9-3.5l3.5-1.3l-3.5-1.3l3.5-3.5l-1.3-1.3l42.6-2.2l14.2-3.5l2.2,2.2l-12,4.9l1.3,3.5
							l8.4,4.9l-8.4-5.8V-63l12-2.2l4.4-4.4l-3.5,1.3l-2.2-3.5h2.2l-12-4.9l4.9-2.2l3.5,1.3l-1.3,1.3l3.5-1.3l-12-5.8l3.5-2.2
							l5.8,3.5l-1.3-1.3l5.8-4.9h-1.3l5.8-1.3l-8.4-2.2l9.3,1.3l12-7.1l5.8-1.3l37.7-7.1l-10.6,1.3v-3.5l2.2-1.3h22.2l4.9,1.3
							l-5.8,3.5l8.4-2.2l1.3,1.3l-1.3,1.3l7.1-3.5l-1.3,2.2l5.8-1.3l-1.3-1.3l10.6-3.5l8.4,3.5l-4.9,5.8l-1.3,3.5l9.3,7.1l-3.5-5.8
							l-4.9-1.3v-2.2l1.3-1.3l1.3-1.3l3.5-2.2v-2.2l-9.3-8.4h18.6l12,2.2l-12-3.5l2.2-3.5l-2.2-1.3v-2.2l20-12.9l10.6-2.2l14.2,3.5
							l3.5,3.5l-20,5.8l16.4-1.3l-3.5,2.2l12-1.3l5.8,2.2l-9.3,7.1v1.3l12.9-1.3l1.3-3.5l31.9,1.3l5.8,4.9l-2.2,1.3l3.5-1.3l3.5,2.2
							l-1.3,1.3l2.7,2.7l-2.2,1.3l5.8-1.3l-2.2-2.2h2.2l2.2,2.2v4.9h3.5l-3.5,5.8l1.3-2.2l-12-3.5l4.9,3.5v2.2l3.5-2.2l2.2,3.5
							l1.3-1.3v4.9l-16.4,12h-4.9l-15.1,5.8h3.5v2.2l-15.1,8.4L2140-64l-3.5,4.9l-7.1,1.3l-1.3,4.9l-5.8,3.5l9.3-2.2l-1.3-2.2
							l1.3-2.2h18.6l9.3-3.5l-2.2-2.2l5.8,2.2l9.3-4.9h-10.6l-1.3-2.2l4.9-3.5l8.4,2.2l2.2-1.3v2.2l9.3,2.2l4.9-1.3v-3.5l5.8,5.8
							l-3.5,3.5l3.5,1.3v4.9v2.2l-3.5,2.2l1.3,1.3l8.4,2.2l-9.3-3.5l3.5-2.2v-4.9l4.9-2.2l-4.9-2.2l17.7-3.5l30.6,2.2l1.3,1.3
							l-5.8,1.3v3.5l12.9,4.9h18.6l25.7,5.8l12,5.8l2.2-1.3l7.1,8.4l1.3,7.1V-32l1.3-2.2l-3.5-2.2l-2.2-5.8h2.2l7.1,1.3l8.4,9.3
							l4.9-1.3l-1.3-2.2l4.9,4.9l-7.1,1.3h3.5l4.9,8.4l8.4,4.9l1.3-2.2l1.3,3.5l2.2,1.3l3.5-3.5l2.2-4.9h3.5l-2.2-1.3l1.3-3.5
							l5.8-7.1v2.2l8.4,5.8l7.1,1.3l14.2-4.9l17.7,8.4l-2.2-1.3l4.9-1.3l-3.5-2.2l2.2-2.2l5.8-1.3l3.5,3.5l7.1-1.3l-2.2-7.1
							l-2.2-1.3l7.1-3.5l-8.4,1.3l-1.3-2.2l3.5-3.5l10.6-4.4l-3.5-4.9l56.3,9.3l-16.4-2.2l-4.9,3.5h-3.5l3.5,1.3l9.3-1.3l12-1.3
							l-8.4,8.4V-38l3.5-1.3l-3.5,1.3l-2.2-3.5l1.3,5.8l-7.1-1.3l1.3,2.2l-2.2,2.2l3.5,1.3l7.1-2.2l9.3-9.3h12.9l10.6,3.5l2.2,3.5
							l-2.2,2.2l-3.5-2.2l-4.9,1.3l2.2,1.3l-2.2,1.3l10.6,1.3l1.3,1.3l-2.2,1.3h7.1l-5.8,4.9l5.8-3.5v2.2l7.1-1.3l5.8,5.8h-3.5
							l4.9,1.3l32.8-3.5l28.4,4.9l9.3,7.1V-8l-2.2,2.2v1.3l-1.3,2.2l12,4.9V11l3.5,1.3l-2.2,5.8v1.3h-1.3h-2.2l1.3,1.3l2.2-1.3
							l3.5-5.8l-1.3-7.1l10.6-4.9l12.9-1.3l4.9,2.2l21.3,2.2l8.4-4.9l3.5,3.5l1.3,4.9l9.3,2.2l2.2,4.9h8.4l-1.3-1.3l2.2,1.3l3.5-3.5
							l-1.3-4.9l-3.5-4.9h-3.5l3.5-2.2V-6h-1.3h1.3l18.6,2.2l4.9,3.5l2.2-1.3l-2.2-1.3l2.2-1.3l23.5,1.3l5.8,3.5l18.6,4.9l2.2,1.3
							h-3.5l5.8,1.3l5.8,3.5V20v7.1v8.4V43v7.1v8.4v7.1v5.8H2794.4z M-441.7,11.5l4.9,1.3l12.9,10.6l2.2-1.3l-5.8-3.5l7.1,3.5v1.3
							l18.6,8.4l3.5,3.5l-2.2,2.2l4.9-1.3l-1.3,4.9l2.2,4.4l-2.2,2.2l4.9,1.3v3.5l3.5-2.2v3.5l2.2-3.5l-4.9-1.3l3.5-2.2l-1.3-4.9
							h-4.9l8.4-1.3l4.9,1.3l-1.3,2.2h1.3v-2.2l7.1,1.3l-5.8-1.3l12,1.3l3.5,4.9l7.1,4.9l-1.3,1.3l8.4,2.2v1.3l-7.1,2.2l-1.8,3.1
							l-8.4-3.5l4.9,3.5v2.2h-9.3l2.2-1.3l-8-2.2l4.9,3.5v3.5h-3.5l4.9,2.2l-9.3,3.5h2.2l1.3,1.3l-2.2,1.3l5.8,2.2h-5.8l1.3,2.2
							l-2.2,1.3l-2.2-1.3l1.3-2.2l-1.3-2.2l1.3,2.2l-3.5,2.2l-10.6-7.1h-4.9l-4.9-3.5l1.3-1.3l-2.2-4.9l-10.6-1.8l-12.9,1.3l1.3-2.2
							l-4.9-4.9l3.5-2.2v-3.5l-3.5,3.5l-2.2-4v1.3h-2.2l1.3,2.2l-3.5,1.3v4.9l3.5,2.2l-3.5,5.8l-2.2,2.2v-7.1v-7.1v-8.4v-7.1V34
							v-8.4V19v-7.5H-441.7z M-441.7-29.7h12.9l9.3,5.8l-3.5,2.2l-14.2,2.2l-4.9-1.3v-4.9v-4C-442.1-29.7-441.7-29.7-441.7-29.7z
							 M2794.4-20.4l-10.6,3.5l-1.3-4.9l12-8.4v4.9L2794.4-20.4L2794.4-20.4z M1664.8-62.6l8.4-3.5l-10.6,1.3l-3.5-3.5l10.6-2.2
							l-2.2-1.3l3.5-2.2l8.4,1.3l-7.1-2.2l5.8-1.3l-4.9-1.3l1.3-1.3l8.4-1.3l-7.1-2.2l9.3-1.3l-7.1-2.2l8.4-2.2l-7.1-1.3v-1.3h-1.3
							l1.3-2.2l5.8,2.2l3.5-2.2l-2.2-1.3l1.3-1.3h8.4l-2.2-2.2l5.8-1.3l-1.3-2.2l21.3-5.8l-2.2-1.3l2.2-1.3h4.9l-3.5,2.2h2.2
							l3.5-2.2h-2.2l2.2-2.2l12.9,1.3l14.2-2.2l12.9-4.9l3.5,1.3l-2.2-3.5l2.2-1.3l17.7-4.9l9.3,4.9l-1.3,3.5l-4.9,5.8l-12.9,3.5
							l-29.3,5.8l-18.6,9.3l-2.2-1.3l-4.9,4.9h-7.1l7.1,2.2l-4.9,1.3l1.3,1.3h-1.3h-6.7l2.2,1.3v2.2l-5.8-2.2l1.3,1.3l-1.3,3.5
							l-8.4-2.2l3.5,2.2l1.3,3.5h-4.9l1.3,2.2l-2.2-1.3v3.5l-5.8-3.5v1.3h-2.2l5.8,3.5l-1.3,3.5l-2.2-2.2l-8.4-1.3l7.1,1.3l1.3,1.3
							l1.3,2.2l-2.2,1.3l-5.8-2.2l4.9,3.5l-3.5,4.9l-8.4-3.5v2.2l-8.4-2.2l-2.2,1.3l-4.9,1.3v-1.3h-1.3L1664.8-62.6z M2452,230.6
							l-1.3-3.5l4.9-1.3v1.3h1.3l2.2-1.3l-1.3-2.2h2.2v-2.2l-1.3,2.2v-3.5l-2.2-3.5h1.3l1.3-2.2l3.5,3.5l-1.3,4.9l2.2,5.8l1.3,5.8
							v3.5l-1.3,2.2v-3.5v2.2l-1.3,5.8l2.2,2.2l-1.3,2.2l1.3-1.3l1.3,1.3l-1.3,2.2l1.3,1.3l3.5,12l8.4,18.6l-7.1-7.1l-5.8-1.3h3.5
							l-7.1,3.5l-3.5,14.2l4.9,7.1l1.3,5.8l2.2-1.3l1.3,4.9l-1.3,3.5l-1.3-5.8h-4.9l-1.3-2.2l-2.2,2.2l-2.2,8.4l-2.2-5.8l1.3-8.4
							V295l1.3-3.5l-2.2-9.3l2.2-9.3l-1.3-12l2.2-7.1l-5.8-8.4v-5.8l2.2-8.4L2452,230.6L2452,230.6z M1657.7-24.9l3.5-3.5
							L1657.7-24.9l-2.2-2.2l1.3-2.2l-4.9,2.2l-3.5-3.5l-5.8,2.2l-3.5-4.9l1.3-4.9h7.1l4.9-8.4l1.8-0.9h-3.5l4.9-1.3l-8.4-1.3
							l9.3-2.2l-2.2-1.3l2.2-1.3l-2.2-2.2l5.8-2.2h3.5l7.1-2.2l14.2,4.9l-8.4,3.5l5.8,1.3l-7.1,1.3l3.5,2.2l-7.1,3.5l3.5,1.3
							l1.3,3.5l-3.5,4.9h2.2l7.1,12l12,8.4l-1.3,1.3l-8.4-2.2l-2.2,2.2l2.2,1.3h-5.8l-4.9-3.5l-2.2,3.5l-4.9-3.5h-1.3l2.2,2.2
							l-12-3.5l3.5-2.2l-2.2-1.3l5.8-1.3L1657.7-24.9z M2479-98l-2.2,2.2l2.2,1.3l-4.9,4.9l-9.3-1.3l-7.1-4.9l4.9-5.8l-5.8-1.3
							l-2.2,2.2v4.9l4.9,4.9l9.3,2.2l-12,2.2l-3.5-2.2l2.2,1.3l-1.3-2.2l-18.6,3.5l-3.5-2.2h-2.2l1.3,3.5l-3.5,2.2l-10.6-3.5
							l-9.3-9.3h4.9l-2.2-1.3l1.3-3.5h-3.5l2.2-3.5l4.9,1.3l-2.2-3.5l12.9-5.8l14.2,8.4v3.5h5.8l-2.2-2.2l1.3-4.9h5.8l-2.2-3.5
							l10.6,5.8h10.6l12.9,4.9l2.2,1.3L2479-98z M2071.9-170.8h-4.9l7.1,4.9v2.2l-14.2,3.5l-24.8-7.1l-4.9,1.3l-5.8-3.5v-4.9h-5.8
							h2.2l-2.2-1.3l1.3-1.3l-5.8,3.5l-3.5-2.2l16.4-5.8l-3.5-1.3l5.8-4.9h2.2l21.3-1.3l4.9,2.2l-7.1,7.1l10.6-3.5l1.3-3.5l12.9,4.9
							L2071.9-170.8z M2045.8-189.8l-16.4,1.3l-10.6,3.5l-15.1-3.5h8.4l-7.1-2.2h10.6l-17.7-1.3l10.6-1.3l-5.8-1.3l8.4-1.3l4.9-5.8
							h-7.1l4.9-4.9l23.5-5.8l20,12l-7.1,1.3l-1.3,3.5l3.5,3.5L2045.8-189.8z M2122.5-154.4l-22.2,5.8l-30.6,2.2l5.8-5.8l3.5-8.4
							h7.1l-3.5-2.2l1.3-1.3l5.8-1.3l-4.9-1.3l1.3-2.2l5.8-3.5l3.5,2.2l-1.3-2.2l2.2-1.3l7.1,2.2l-2.2,1.3l-4.9,8.4l4.9-4.9l9.3-1.3
							l5.8,7.1l4.9-1.3l2.2,4.9L2122.5-154.4z M2314.1-58.1l1.3,2.2l-3.5,3.5v5.8v2.2l-1.3,1.3l-12.9-5.8l-21.3-4.9h7.1l2.2-3.5h2.2
							l-4.9-4.9l2.2-3.5h4.9l-1.3-2.2l4.9-1.3l10.6,4.9v2.2l7.1-2.2l-1.3,3.5l2.2-1.3L2314.1-58.1z M2493.2-100.3l4.9,4.9l12.9-1.3
							l1.3,1.3L2511-94l1.3,1.3l21.3,1.3l-2.2,4.9l-8.4,2.2h-12.9l-20-8.4L2493.2-100.3z M1381,215.1l-27.1-1.3l5.8-2.2h-4.9V208
							h4.9l4.9-4.9l-3.5,4.9h2.2h3.5v-4.9l12.9,3.5l2.2,2.2l-1.3,1.3v4.9h0.4V215.1z M2311.9-46.1l1.3-4.9l-1.3-1.3l4.9-3.5
							l-2.2-4.9l4.9-3.5l8.4,1.3l3.5,2.2l-1.3,1.3l5.8,1.3l-1.3,2.2h2.2l-22.2,9.3v2.2l-2.2-1.3v-0.4H2311.9z M2444.9-69.7l12.9,1.3
							l8.4,5.8v4.9l-24.8-3.5l-9.3,1.3l8.4-3.5L2444.9-69.7z M1596.5-190.7l12.9-1.3l-4.9-1.3l4.9-1.3h-7.1l3.5-1.3h12.9l4.9-4.9
							h-7.1l8.4-3.5h9.3l1.3,1.3l-5.8,2.2h12L1624-196l1.3,2.2l-2.2,1.3l-7.1-1.3l-1.3,2.2l3.5,2.2l-5.8,1.3l-7.1,1.3l3.5-3.5h-1.3
							L1596.5-190.7z M1709.2-196.9v-2.2l3.5-3.5l20-1.3l3.5,2.2l-10.6,8.4L1709.2-196.9z M1609.4,10.2l2.2-4.9l4.9-2.2l12.9,5.8
							l-14.2,7.1l-5.8-2.2V10.2z M1715.4,0.9l-4.9-3.5l-3.5,1.3l-5.8-7.1l3.5,1.3l-1.3-2.2l3.5-2.2l12.9,8.4l1.3,2.2L1715.4,0.9z
							 M2315.4-43.9l9.3-4.9l14.2,3.5l1.3,2.2l-1.3,1.3h2.2l-7.1,3.5l-12-7.1L2315.4-43.9z M1738.9-202.7l14.2-3.5l3.5-3.5l5.8,1.3
							l2.2,4.9l-20,4.9L1738.9-202.7z M1590.3-194.3v-2.2l-10.6-1.3l21.3-4.9h9.3l4.9,3.5l-9.3-2.2l-3.5,2.2v2.2L1590.3-194.3z
							 M2190.8-73.2l-12-3.5l3.5-1.3l1.3-3.5l12,1.3l1.3,2.2L2190.8-73.2z M1804.5-54.6l1.3-3.5l-1.3-3.5l5.8-1.3l5.8,1.3l-2.2,2.2
							l4.9-1.3l2.2,2.2L1804.5-54.6z M1665.7-206.2h15.1l14.2,4.9l-5.8,2.2L1665.7-206.2z M1995.2-186.3l24.8,3.5l-17.7,4.9l3.5-2.2
							l-10.6-1.3l1.3-2.2L1995.2-186.3z M2699-0.5l-1.3,2.2h-3.5l-9.3-3.5l4.9-3.5l9.3,2.2L2699-0.5L2699-0.5z M1694.1-187.2
							l-2.2-1.3v-4.9l-3.5-2.2h12l9.3,3.5h-8.4l-2.2,2.2l2.2,1.3L1694.1-187.2z M2644.9,161l3.5-2.2l1.3-3.5h-1.3l7.1-2.2l1.3,2.2
							v2.2l-10.6,4.9L2644.9,161z M2496.8,331.7l2.2-4.9l7.1-4.9v-2.2l1.3,2.2l7.1-2.2v1.3l-9.3,4.9l-1.3-1.3L2496.8,331.7z
							 M2439.1-69.7l-3.5-2.2v-2.2l5.8-2.2l3.5,2.2l-1.3,3.5L2439.1-69.7z M1867-42.6l7.1-4.9l7.1,2.2l-5.8,2.2h-8.4L1867-42.6
							L1867-42.6z M2409.4,210.2l3.5-5.8l5.8,2.2l-4.9,4.9l-2.2-3.5L2409.4,210.2z M1677.7-187.2l2.2-1.3v-3.5h9.3v5.8L1677.7-187.2
							z M1675-211.1v-2.2l9.3,2.2l-1.3-3.5l12.9,2.2l-12,2.2L1675-211.1z M2571.7,266.9v-2.2l3.5-1.3l4.9-4.9v2.2l-2.2,3.5
							L2571.7,266.9z M1652.8-20.4l-7.1-5.8l4.9-1.3l3.5,2.2l-1.3,3.5l1.3,1.3h-1.3V-20.4z M1883.5-51.9l4.9-3.5l3.5,5.8h-7.1
							l-1.3-1.3V-51.9z M2394.3-95.4l2.2-9.3l3.5,4.9l-2.2,3.5L2394.3-95.4z M2490.6,330.4l3.5,1.3l-5.8,2.2l-3.5,5.8l-1.3-1.3
							L2490.6,330.4z M1698.5-213.3l-12.9-2.2l9.3-2.2l7.1,3.5L1698.5-213.3z M2670.6,203.1l3.5,8.4l-7.1-8.4H2670.6z M1803.6,50.5
							l-5.8-4.9l8.4,1.3l1.3,2.2L1803.6,50.5z M1647.1-189.8l4.9-3.5l9.3,2.2L1647.1-189.8z M1993.9-207.6l-9.3-2.2l12.9-1.3
							l2.2,2.2L1993.9-207.6z M2042.2-109.6l-9.3-1.3l9.3-2.2l2.2,1.3v2.2l-2.2-2.2V-109.6z M1681.2-208.5l18.6,4.9l-5.8,0.9
							L1681.2-208.5z M2520.3,317.5l3.5-4.9l5.8-1.3l-4.9,3.5L2520.3,317.5z M2627.2,13.7l1.3-2.2l-3.5-1.3V4.4l2.2-1.3l-1.3,4.9
							l2.2,4.9L2627.2,13.7z M2321.2-48.4l8.4-2.2l9.3,2.2H2321.2z M1716.3-206.2l14.2-1.3l-5.8,3.5L1716.3-206.2z M1627.1-185
							l8.4-2.2l3.5,3.5L1627.1-185z M1888.3-204.9h12l-12,3.5l-2.2-1.3L1888.3-204.9z M2043.5-129.5l-2.2,3.5h-8.4L2043.5-129.5z
							 M1698.5-220.4l-2.2-1.3l1.3-1.3l12.9-1.3L1698.5-220.4z M1915.4-98l-1.3,1.3l2.2,1.3h-2.2v3.5l-4.9-3.5L1915.4-98z
							 M2142.4-146.4l-8.4-2.2h9.3l1.3,1.3L2142.4-146.4z M2188.1-115.8l-5.8-3.5h5.8l1.3,2.2L2188.1-115.8z M1923.4-10.7l1.3-7.1
							l2.2,1.3l-2.2,1.3v3.5L1923.4-10.7z M1704.7-185l5.8-2.2l3.5,2.2H1704.7z M1848-54.6l-1.3,2.2l-4.9-2.2H1848z M1958.8-88.7
							v1.3h-3.5l1.3,1.3l-4.9-1.3L1958.8-88.7z M1538.9,76.3l1.3,2.2h-2.2l-2.2-1.3L1538.9,76.3z M2394.3-75.4l7.1,5.8h-1.3
							L2394.3-75.4z M2566,276.3l1.3-2.2l1.3-2.2v4.4L2566,276.3L2566,276.3z M1624.5-186.3l-2.2-2.2h7.1L1624.5-186.3z M2627.2,5.7
							V2.2h2.2v2.2L2627.2,5.7z M1659.9-195.6l2.2-2.2l3.5,3.5L1659.9-195.6z M1948.2-79l-2.2-1.3l2.2-1.3l3.5,1.3L1948.2-79z
							 M2255.5-54.6l-3.5-1.3l4.9-1.3v2.2h-1.3L2255.5-54.6L2255.5-54.6z M2405,208l4.9-2.2l-1.3,2.2H2405z M2582.4,259.9l-2.2-1.3
							l2.2-1.3V259.9z M1629.3-206.2l1.3-3.5l3.5,1.3L1629.3-206.2z M1498.5,69.2l-1.3,3.5l-2.2-2.2L1498.5,69.2z M2141.1-130.9
							h-1.3l2.2-2.2l2.2,2.2H2141.1z M2130.5-148.6l-1.3-2.2h7.1L2130.5-148.6z M1977.5-129.5l1.3-2.2l3.5,1.3L1977.5-129.5z
							 M-376.1,76.3l2.2-2.2l2.2,1.3L-376.1,76.3z M1918.9-74.5l1.3,1.3l-1.3,1.3l-2.2-1.3L1918.9-74.5z M2045.8-110.9l1.3-3.5
							l2.2,1.3L2045.8-110.9z M1655.1-195.6v-2.2l-1.3-1.3l3.5,3.5H1655.1z M1352.6,213.7l2.2-2.2l-1.3,1.3L1352.6,213.7z"/>
					</g>
					<g>
						<path fill="#A23520" stroke="#FFFFFF" stroke-linecap="round" stroke-linejoin="round" stroke-miterlimit="10" d="
							M572.5,321.9l1.3,2.2l-1.3,1.3l1.3,1.3l-1.3,1.3l-10.6,2.2l-2.2,2.2l-2.2-1.3V329l-1.3,1.3l-1.3,4.9l-1.3,1.3l-1.3-1.3
							l-1.3,2.2l-1.3-2.2l-1.3,2.2v-2.2l-1.3,3.5v-1.3l-2.2,1.3v1.3l-4.9,5.8l-1.3,3.5l2.2,1.3l-4.9,3.5l3.5,1.3v2.2l3.5,3.5
							l2.2-1.3l-2.2-3.5h2.2l1.3,4.9l-7.1,1.3v-2.2l-4.9,3.5l1.3-3.5l-2.2,1.3v-1.3l-1.3,4.9l-12.9,1.3l-9.3,4.9v-2.2l-2.2,4.9h2.2
							v1.3l-1.3,5.8V379l-3.5,7.1l-4.9,4.9l1.3-2.2l-4.9-2.2l-1.3-2.2l4.9-4.9l-4.9,3.5l4.9,12.9l-8.4,12.9h-1.3l1.3-3.5l2.2-4.9
							H492l1.3-4.9l-2.2,2.2l-2.2-3.5h3.5l-3.5-1.3v-1.3h2.2l-1.3-2.2l-1.3,1.3l2.2-2.2l-1.3,1.3v-3.5l3.5-2.2h-1.3l-4.9,2.2v1.3
							h1.3l1.3,2.2l-1.3,3.5l1.3,3.5l-2.2-3.5v2.2l3.5,1.3v3.5l-7.1-4.9h-1.3l2.2-3.5l-1.3-1.3v2.2l-2.2,2.2l10.6,5.8l-1.3,2.2
							l-7.1-4.9l7.1,5.8l1.3,2.2h-2.2l-2.2-1.3l3.5,4.9l-3.5-2.2l-4.9-1.3l8.4,4.9v-1.3l2.2,1.3l4.9,10.6l-3.5-9.3v2.2h-1.3l2.2,4.9
							l-1.3-2.2v1.3l-2.2-1.3l1.3,1.3l-4.9,2.2l-1.3-2.2v2.2h5.8l-1.3,2.2l1.3,1.3l2.2-3.5l1.3,2.2l-4.9,3.5h-2.2l-1.3-1.3l-1.3,1.3
							l-3.5-1.3l5.8,2.2l-2.2,2.2l-3.5-1.3l3.5,2.2l3.5-1.3l-1.3,3.5l-8.4,1.3l-1.3-1.3l1.3,1.3l-3.5,2.2l-1.3,4.9l-1.3-2.2v2.2
							h-3.5l-5.8,5.8l-1.3-1.3l1.3,2.2l-2.2,1.3l-3.5,2.2h-1.3v1.3l-3.5,2.2h-2.2l1.3,1.3l-1.3,1.3l-2.2-2.2l2.2,2.2l-4.9,7.1h-1.3
							h1.3l-3.5,7.1l1.3,5.8l3.5,9.3l3.5,5.8l-2.2-1.3l1.3,3.5l7.1,15.1l-3.5,15.1l-7.1,1.3V524l2.2,1.3l-3.5-5.8l-3.5-1.3l-2.2-4.9
							l1.3-2.2l-2.2,2.2v-4.9h-1.3v1.3l-1.3-1.3l-2.2-4.9l1.3-4.9l-2.2-1.3l1.3,2.2l-1.3,1.3l-1.3-1.3l2.2-8.4l-2.7-2.2l-2.2-1.3
							l-8.4-8.4l-12,3.5v-1.3l-2.2-2.2h2.2l-3.5-2.2l-1.3,1.3l1.3,1.3l-5.8-2.2h2.2l-1.3-1.3l-8.4,1.3l2.2-1.3l-2.2-1.3l-3.5,2.2
							l1.3-1.3l-1.3,1.3l-3.5,1.3l2.2-1.3l-2.2-3.5l-1.3,3.5l-8.4-1.3l-4.9,3.5l-5.8-2.2l-2.2,1.3l2.2,2.2l4.9-2.2l-1.3,2.2l1.3,1.3
							l2.2-2.2v3.5l-2.7,1.3l7.1,4.9l-3.5,2.2l1.3-2.2h-1.3l-7.1-4.9l1.3,2.2v2.2h-1.3l-2.2-2.2l-2.7,2.2l-4.9-1.3l1.3-1.3l-6.7-4.4
							l-2.2,1.3v1.3l-1.3,1.3l-8.4-2.2h-5.8v-2.2l-1.3,1.3l1.3,1.3l-8.4,3.5l2.2-2.2H325v-1.3h-3l1.3,3.5l-2.2,3.5l-9.3,4.9l2.2-1.3
							h-5.8l2.2,2.2l-2.2,1.3l-2.2-1.3l1.3,1.3l-3.5,1.3v1.3h1.3l-2.2,2.2h-2.2l2.2,1.3l-2.2,2.2l-3.5-1.3l1.3,2.2l2.2-1.3l-1.3,4.9
							l3.5,8.4l-2.2,1.3l-15.1-5.8l-3.5-5.8V504l-7.1-7.1l-3.5-8.4l-7.1-5.8l-8.4-1.3l-2.2,1.3l-4.9,7.1h-2.2l-10.6-5.8l-2.2-9.3
							l-12-9.8l-2.2-2.2h-16.4v4.9h-24.8l-34.1-12l1.3-2.2l-22.2,1.3l-3.5-7.5l-4.9-4.9h-3.5l-1.3-3.5h-4.9l-3.1-3.1l-9.3-1.3
							l-1.3-5.8l-10.6-12v-7.1l-4.9-2.2l-1.3-5.8l4.9,3.5l-3.5-5.8l5.8-1.3h-5.8l-1.3,3.5l-4-1.4l1.3-1.3l-3.5-3.5l-4.9-4.9
							l-1.3-8.4l-4-8l2.2-3.5v-7.1l-3.5-15.1l1.3-4.9l2.2-1.3h-2.2l2.2-3.5l2.2-20l-1.3-6.7h7.1l-7.1-2.2l-1.3-3.5l1.3,3.5V306H63
							l-2.2-2.2l2.2-1.3l-2.2-1.3l-1.3,1.3l-5-16.5l7.1,3.5h10.6l1.3,2.2l-1.3,2.2l-1.3-1.3l-2.2,4.9h3.5H70l2.2-3.5l2.2-2.2v2.2
							l-1.3,1.3h1.3v3.1l-1.3-1.3l-1.3,2.2v-2.2l-2.2,2.2l1.3,1.3l5.8-3.5l-0.9-3.1v-3.5l-1.3-2.2h1.3l-2.2-3.5l1.3,1.3l1.3-1.3
							l-3.5-5.8h78.9H321v-3.5h3.5l1.3,7.1l7.1,2.2l8.4-1.3l4.9,4.9l3.5-1.3l5.8,3.5l4.9-2.2l1.3,1.3l12,1.3l9.3-3.5l31.9,16.4
							l2.2,4.9h3.5l2.2,4.9l2.2-1.3l1.3,1.3l-1.3,2.2l9.3,5.8l4.9,18.6l-4.9,10.6l-4.9,3.5v3.5l3.5,3.5l34.1-12.9l-2.2-7.1l4.9-1.3
							h16.4l3.5-4.9l12.9-10.6h31.9l1.3-3.5l4.9,1.3l4.9-8.4v-2.2l2.2-5.8l7.1-9.3l3.5,3.5l4.9-2.2l4.9,3.5v14.6l3.5,2.2v3.5
							L572.5,321.9L572.5,321.9z M-304.2,130.4l3.5,1.3l-1.3,3.5l3.5-3.5l2.2,2.2l2.2-1.3l-3.1-2.2h2.2V129l-3.5,1.3l-5.8-1.3h-4.9
							l3.5-2.2l-4.4-1.3l5.8-5.8l-4.9,3.5l-2.2,2.2v2.2l-3.5-3.1V121h-3.5l1.3-2.2l2.2,1.3l-2.2-2.2h4.9l-1.3-3.5l4.9-4.9l2.2-1.3
							l2.2,1.3l-1.3-2.2l2.2-2.2l-2.2,1.3l-0.9-3.1l2.2-2.2h3.5l-2.2-2.2l1.3-1.3l12,2.2l7.1-5.8l8.4,1.3l4.9-4.9l-1.3-7.1l-1.8-2.2
							h-3.5l5.8-3.5l-2.2-3.5l-8.4,2.2l-7.1,5.8l-3.5-4.9l-1.3,1.3l2.2,1.3v1.3l-6.7-2.7l-10.6,1.3l-11.5-2.2V74l-4.9-4.9l2.2,1.3
							l4.9-2.2l-12-2.2l-5.8-3.5l16.4-7.1h7.1l-3.5-1.8l1.3-1.3l12.9-3.5h5.8h-2.2l1.3,1.3l-1.3,3.5l-2.2,1.3l21.3,2.2l2.2-3.5h3.5
							v2.2l1.3-2.2l-4.9-2.2l-3.5,2.2v-4.9l-5.8-2.2v-2.2l2.2-1.3l2.2,4.9l3.5,2.2l4.9-1.3l3.5,2.2h4.9v-3.5l-12,1.3l-3.5-1.8
							l3.5-4.9h-8.4v-2.2l-1.3,2.2l-10.6-1.3l-3.5-8.4l-24.8-10.6l4.9-1.3l1.3-7.1l21.3-2.2l7.1-5.8l1.3-5.8l9.3-9.3l1.3,1.3
							l-3.5,1.3h2.2l17.7-5.8l-2.2,1.3l3.5,3.5v-4l4.9-1.3l-7.1-1.3l4.9-3.5l3.5-1.3l-2.2,2.2l2.2,1.3l10.6-2.2l12.9-8.4l8.4,2.2
							l-4.9,4.9h1.3v2.2l8.4-5.8v2.2l2.2-2.2l2.2,2.2v2.2l3.5,1.3l8.4-2.2l9.3,1.3l-2.2,3.5l3.5,1.3h-4.9h8.4l-2.2,1.3h24.8l39,8.4
							l15.1-2.2l20,7.1v137.5l9.3,1.3l8.4-2.2l-1.3,3.5l14.2,12l1.3,3.5l5.8-2.2h2.2v-4.9h2.2l-1.3-1.3l8.4-3.5l4.9,3.5l-1.3,2.2
							l1.3,1.3l14.2,10.6l10.6,16.4l-2.2,1.8h2.2v2.2l2.2,1.3v2.2L6,192.1l1.3,2.2l-2.2,2.2l2.2,5.8L4,207.5l-3.5,2.2v-2.2l-1.3,1.3
							l-1.3-2.2l2.2-1.3l2.2-2.2L0,205.3h-1.3h-1.3l1.3-2.2h2.2h-2.2v-4.9l-2.2-3.5l1.3-2.2l-7.5,4h0.9v2.2l-0.9,2.2l-2.2-1.3v-2.2
							l2.2-2.2V193l1.3-1.3l-1.3-1.3l-3.5-2.2v-1.3h-2.2l2.2-2.2l-3.5-1.3l-1.3-2.2l-5.8-2.2l3.5-1.3h-2.2l-1.3-2.2l1.3-1.3h-2.2
							v-1.3l5.8,2.2l-4.9-3.5v-1.3h3.5l-3.5-1.3l-1.3,2.2l-1.3-1.3l1.3-2.2l-2.2,2.2l-1.3-1.3v-4.9l2.2-1.3h-2.2l-1.3,3.5l-3.5-1.3
							l-2.2-1.3l-1.3-3.5l-3.5-10.6l-1.3,2.2l1.3,2.2l-2.2-1.3l4.9,12.9h-2.2l-1.3-3.5l-3.5,1.3v-2l-2.2-4.9h3.5l-3.5-2.2v2.2
							l-1.3,1.3l-7.1-3.5l-1.3,2.2h5.8l1.3,2.2l-1.3,1.3l2.2-1.3l1.3,2.2v2.2l-3.5-1.3l1.3,1.3h-2.2v1.3l-17.7-12l1.3-1.3l-10.6-3.5
							l1.3-7.1l2.2,2.2v3.5v-3.5h3.5l-5.8-2.2l-8.4,4.9l-8.4-2.2l1.3-2.2l-1.3-1.3l-3.5,2.2l-8.4-2.2l-10.6,1.3l-9.3-3.5l2.2-5.8
							l-5.8,4.9l-4.9-2.2l1.3-2.2l-4.9,1.3l1.3-2.2l-4.4,1.8l4.9-2.2l-5.8-1.3l3.5-2.2l-9.3,3.5h-1.3V127l-1.3,3.5l-1.3,1.3
							l-2.2-2.2l2.2-4.9l-2.2,3.5h-1.3l-1.3,3.5h-3.5h2.2l-2.2,1.3l4.9-1.3v2.2l-4.9,2.2l5.8-2.2l1.3,2.2l-3.5,2.2l2.2,1.3h-2.2
							l-1.3,3.5l-5.8-2.2l-1.3,3.5l-2.2-3.5l-1.3,3.5l-1.3-1.3v3.5l-2.2-2.2l1.3,1.3l-1.3,1.3l-3.5,2.2l1.3-3.5l-2.2,3.5v-1.3
							l-3.5,4.9l-7.1,1.3l-2.2-2.2l1.3-1.3l3.5-1.3l3.5-3.5l-3.5,1.3l-3.5-1.3l4.9-8.4l-1.3-4.9l9.3-4.9l12,2.2l-8.4-3.5l7.1-4.9
							h-4.9l-3.1,4l-4.9-1.3l-9.3,5.8v2.2l-4.9,2.2l-1.3,3.5h-7.1l4.9,2.2l-1.3,2.2l-4.9,1.3h2.2v1.3l-3.5,1.3V145l-5.8,5.8
							l-2.2,2.2l1.3,1.3l7.1,1.3l1.3,1.3l-1.3,2.2l-5.8,2.2v1.3l-2.2,2.2l2.2-1.3l-1.3,2.2l-7.1,1.3l-3.5,4.9l-2.2-1.3l-1.3,3.5
							l-7.1,2.2l2.2,2.2l-2.2,2.2h-3.5l-2.2,2.2h-2.2l-1.3,2.2l1.3,1.3l-2.2-1.3l-3.5,1.3l2.2,1.3l-4.9,1.3l-2.2,2.2h4.9l-3.5,3.5
							l-1.3-2.2h1.3l-1.3-1.3v3.5l-7.1,1.3l-2.2,3.5V196h-1.3l-5.8,4.9l-1.3-1.3l-5.8,2.2h-2.2v-1.3l3.5-1.3l-3.5-1.3l-4.9,5.8
							l1.3,1.3l-4.9,1.3l-2.2-3.5l1.3,4.9h-2.2l-3.5-2.2l1.3,2.2l-2.2,1.3v-3.5l7.1-3.5l2.2-3.5l4.9-2.2l5.8-1.3l3.5,3.5v-2.2
							l4.9,1.3l-3.5-2.2l2.2-4.9l12-5.8h3.5v-3.5l4.9-3.5l3.5-3.5l3.5,1.3l-3.5-1.3l1.3-5.8l3.5-1.3l-3.5-1.3v-2.2l7.1-9.3l-2.2,3.5
							l-12,2.2l-1.3-1.3v-3.5l4.9,2.2l-4.9-4.9v2.2l-1.3,2.2l-1.3-1.3v2.2h-1.3l1.3,3.5l-1.3,1.3h-1.3l-4.9-7.1l-3.5,2.2l-3.5-3.5
							l-12,5.8l-4.9-1.3l4.9-1.3l-1.3-3.5l2.2-1.3h-4.9l1.3-3.5l2.2-1.3l-4.9-8.4V139l-1.3,1.3l1.3-5.8l2.2-1.3l-3.5,1.3l-2.2,3.5
							v4.9l-9.3,2.2h-4.9l-1.3-1.3l1.3-1.3l-9.3-5.8l2.2-1.3h-4.9L-304.2,130.4z M-204,173.8l-3.5-2.2l2.2-1.3L-204,173.8l2.2-1.3
							l-1.3-2.2h3.5l-2.2-1.3l4.9,1.3l-1.3,2.2l3.5-2.2l1.3,1.3l-1.3,1.3l3.5,1.3l-2.2,2.2l-5.8-1.3l3.5,2.2h-4.9l0.9,1.3h-2.2
							l-3.5,2.2l1.3,1.3l-3.5,2.2h-1.3l2.2-4.9l-2.2,2.2v-2.2l-2.2,3.5l-2.2-4.9l-2.2-1.3l5.8-4.9l4.9,5.8l-2.2-4.9h3.1v1.1H-204z
							 M-224,573.8l4.9,2.2l3.5,4.9l-7.1,5.8l-2.2-2.2l-1.3-5.8l2.2-2.2L-224,573.8L-224,573.8z M-19.5,202.2l-0.9-1.3l2.2-2.2h-4.9
							l2.2-2.2l-1.3-3.5l-3.5-2.2h4.9v3.5l4.9,1.3l3.5,5.8L-16,200l4.9,3.5l-1.3,1.3l2.2-1.3l-2.2,3.5h2.2l-1.3,3.5l-4.9-2.2v-3.5
							v1.3l-5.8-2.2L-19.5,202.2z M-360.5,94.9h-7.1l-1.3-1.3l1.3-4.9l1.3,3.5l12-1.3l7.1,4.9l7.1,1.3l-1.3,1.3h-4.9l-2.2,3.5
							l-1.3-2.2l-7.1-3.5l-2.2-1.3H-360.5z M-48.8,171.6h-1.3v-2.2l3.5,1.3l-3.5-2.2v-2.2l2.2,2.2l3.5-2.2l2.2,1.3l-2.2,2.2l3.5-2.2
							l3.5,1.3v2.2l-2.2-1.3l2.2,2.2h-1.3l-7.1-2.2l4.9,3.5l3.5-1.3l1.3,4.9l-9.3-4.9l2.2,3.5l-2.2,1.3L-48.8,171.6z M-317.1,136.1
							l3.5,2.2l1.3,3.5l-5.8,2.2l1.3,1.3l-12-5.8L-317.1,136.1z M-33.3,175.1l-3.5-12l2.2,3.5h4.9l2.2,4.9v1.3l-3.5-4.9v2.2l3.5,4.9
							h-1.3l1.3,2.2l-2.2-1.3l1.3,2.2l-3.5,2.2l-1.3-1.8l2.2-1.3L-33.3,175.1h2.2H-33.3z M-299.3,211.5l-4.9,3.5l-2.2-2.2l3.5-4.9
							l7.1-1.3h2.2l1.3,2.2l2.2,2.2h-9.3L-299.3,211.5L-299.3,211.5z M-38.1,186.7v-3.5h-2.2v-4.4l-2.2-1.3h1.3v-2.2l4.9,2.2
							l3.5,8.4l-1.3,7.1l-3.5-4.9l2.2-2.2L-38.1,186.7z M-4,202.2v-3.5V202.2h-1.3v1.3l-0.9-2.7v2.2l-2.7-2.2l1.3-4.9l3.5-1.3
							l3.5,3.5l-1.3,3.5l-1.3,2.2h-1.3l1.3-2.2l-2.2,1.3L-4,202.2z M-325.5,224.4l2.2-1.3l-3.5-1.3l1.3-2.2h3.5v1.3l2.2-1.3l1.3,1.3
							l-3.5,2.2h3.5l-4.9,2.2l-9.3,2.2L-325.5,224.4z M-19.5,182.2v4.9l-3.5-4l2.2,4.9l-3.5,1.3l-0.9-6.2h-2.2h0.9l-2.2-2.2
							L-19.5,182.2z M511.3,371.6l3.5-2.2l8.4-1.3l3.5-1.3l-3.5,2.7l7.1-2.2l-15.1,5.8L511.3,371.6z M-199.6,168.1l-2.2-2.2l3.5,1.3
							l-2.2-1.3l3.5-1.3l1.3-2.2l5.8,2.2l-1.3,2.2l-1.3-1.3v1.3L-199.6,168.1z M-29.7,190.2l-1.3-0.9h2.2V188l-2.2-1.3l-1.3-3.5h3.5
							v3.5l2.2-2.2v2.2h-1.3v5.8l-1.3-2.2l-1.3,3.5v-3.5h0.8V190.2z M-145.5,138.8l-4.9,5.8h-3.5l5.8-7.1L-145.5,138.8z
							 M-332.2,225.7l-12,8.4l4.9-5.8h2.2v-2.2h4.9V225.7z M-230.2,571.6l-2.2-3.5l1.3-1.3l4.9,2.2L-230.2,571.6z M-243,564.5h-2.2
							l-1.3-2.2l2.2-1.3l2.2,3.5H-243z M2730.9,235l-3.5-2.2l1.3-1.3h4.9l2.2,2.2L2730.9,235z M-13.3,195.1l-3.5-3.5l2.2-1.3
							l1.3,1.3l2.2,1.3v2.2H-13.3z M-396.9,243.4l7.1-2.2l-2.2-1.3l2.2-1.3l2.2,1.3l-2.2,2.2L-396.9,243.4z M-257.2,558.8l-3.5-1.3
							l1.3-1.3h3.5L-257.2,558.8z M-20.4,204.4l3.5,7.1l-3.5-3.5l-1.3-2.2L-20.4,204.4z M-372.5,138.8l-3.5-1.3l-3.5-2.2l1.3-1.3
							L-372.5,138.8z M-414.7,249.2l2.2-4.9h1.3l-1.3,1.3h2.2L-414.7,249.2z M-12.4,191.6h-0.9v-1.3V188l2.2,2.2h1.3l-1.3,2.2
							L-12.4,191.6z M-260.8,203.1v2.2l-3.5,2.2v-2.2L-260.8,203.1z M-423.1,249.2l-3.5-3.5l3.5-1.3v1.3V249.2z M-268.7,202.2
							l2.2,2.2l-3.5,1.3v-2.2L-268.7,202.2z M-137,137.5l-4.9,1.3l1.3-1.3h-2.2l1.3-1.3L-137,137.5z M-18.2,184.5l2.2,2.2l-3.5,1.3
							L-18.2,184.5z M-21.7,192.9l-1.3,1.3l-3.5,0.9l2.2-2.2H-21.7z M-18.2,191.6l-1.3-2.2h3.5v1.3L-18.2,191.6z M-383.2,243.4
							l-5.8-1.3l10.6,1.3H-383.2z M-420.4,247.9l4.9-3.5v2.2L-420.4,247.9z M-151.2,136.1l-1.3,3.5l-1.3-1.3l1.3-2.2H-151.2z
							 M-314.9,218.6l-2.2-1.3l1.3-1.3l2.2,1.3L-314.9,218.6z M-5.3,204.4v2.2h-1.3v-3.5L-5.3,204.4z M-43.9,177.4l1.3,2.2l-2.2,2.2
							l1.3-2.2l-1.3-2.2H-43.9z M2787.3,251.4l-4.9-3.5l7.1,3.5H2787.3z M-272.3,159.6l3.5-1.3l-1.3,2.2L-272.3,159.6z M73.6,285.6
							l1.3,1.3l-1.3,1.3l2.2,3.5l-3.5-3.5L73.6,285.6z M-233.7,566.7l-4.9-1.3h4.9V566.7z M-200.5,178.7l2.2,1.3l-4.9,1.3l1.3-1.3
							v-1.3H-200.5z M-50.1,168.1v1.3v1.3l-1.3-2.2h1.3V168.1z M-201.8,166.7l3.5,2.2l-4.9-1.3L-201.8,166.7z M2737.6,239.9
							l-2.2-1.3l3.5-1.3L2737.6,239.9z M2770.9,245.7l-1.3-1.3l3.5-2.2L2770.9,245.7z M-8.9,202.2l1.3,1.3v2.2L-8.9,202.2z
							 M-32.4,165.8h1.3h-2.2v-1.3L-32.4,165.8z M-234.6,569.4l-1.3-1.3h2.2L-234.6,569.4z M2790.8,245.7l-1.3-1.3h2.2L2790.8,245.7
							z M561.9,331.7l1.3-1.3v1.3L561,333L561.9,331.7z M500.7,576.5v1.3V576.5z M500.7,576.5v1.3h-1.3L500.7,576.5z M70.1,278.5
							v1.3V278.5z"/>
					</g>
				</g>
			</g>
		</g>
	</g>
</g>
</svg>
