<?xml version="1.0" encoding="utf-8"?>
<!-- Generator: Adobe Illustrator 18.0.0, SVG Export Plug-In . SVG Version: 6.00 Build 0)  -->
<!DOCTYPE svg PUBLIC "-//W3C//DTD SVG 1.1//EN" "http://www.w3.org/Graphics/SVG/1.1/DTD/svg11.dtd">
<svg version="1.1" id="Layer_1" xmlns="http://www.w3.org/2000/svg" xmlns:xlink="http://www.w3.org/1999/xlink" x="0px" y="0px"
	 viewBox="0 90 612 612" enable-background="new 0 90 612 612" xml:space="preserve">
<g id="graphic_copy">
	<g>
		<g>
			<g>
				<defs>
					<rect id="SVGID_1_" y="90" width="612" height="612"/>
				</defs>
				<clipPath id="SVGID_2_">
					<use xlink:href="#SVGID_1_"  overflow="visible"/>
				</clipPath>
				<g clip-path="url(#SVGID_2_)">
					<g>
						
							<path fill="#DDDDDD" stroke="#FFFFFF" stroke-width="1" stroke-linecap="round" stroke-linejoin="round" stroke-miterlimit="10" d="
							M146.8,101.1v6.2l-12.4,9.3l6.2,12.4l-9.3-6.2h-12.4L94,141.4V157l-12.4,15.5v3.1l3.1,6.2l-15.1,27.9L51,206.6v18.6v6.2h-3.1
							l-3.1,6.2l3.1,12.4l-6.2,6.2l-6.2-3.5l-3.1,3.1l-6.2-43.5H20l-6.2,15.5l-3.1,6.2l-6.2-8.9v3.1l-6.2-12.4l6.2-12.4h12.4
							l6.2-6.2l3.1-12.4h6.2l-3.1-3.1l-9.3-6.2l-37.3,3.1l-15.5-3.1v-21.7l-3.1-3.1L-39,157h-6.2l-6.2-9.3v-3.1v6.2h-3.1l-12.4-9.3
							v3.1l3.1,3.1l-6.2,6.2l-3.1,6.2l21.7,15.5l-3.1,3.1l-9.3-3.1l-3.1,6.2l-6.2,3.1v6.2v3.1l15.5,6.2l-3.1,15.5l3.1,3.1v6.2
							l6.2,3.1l-3.1,3.1l3.1,21.7l3.1,12.4l-9.3,3.1l-3.1-15.5v15.5l-3.1-9.3v6.2H-67l-3.1-3.1v6.2v-15.5l-6.2-6.2l6.2,6.2
							l-9.3,12.4l-21.7,6.2l-3.1,6.2l6.2,12.4l-15.5,15.5h-3.1v3.1l-18.6,6.2l3.1-6.2h-3.1l-9.3,9.3l6.2-3.1l-15.5,12.4l-12.4,21.7
							l-43.5,27.9v12.4l-15.5,6.2h-9.3l-6.2,12.4l-3.1-3.1l-3.1,6.2l-3.1-3.1l-9.3,3.1l-3.1,15.5l6.2,40.4l-6.2-6.2l6.2,6.2
							l-6.2,21.7l-9.3,21.7l3.1,31H-281l-9.3,15.5l3.1,9.3l9.3,3.1l-12.4-3.1l-12.4,3.1L-312,588l-12.4,6.2h-3.1l-18.6-18.6l3.1-3.1
							h-3.1l-3.1-3.1l-3.1-18.6v9.3h3.1l-18.6-43.5l-12.4-15.5l-6.2-18.6l-12.4-40.4l-6.2-9.3l-6.2-15.5h3.1l-12.4-15.5l-12.4-62.1
							l3.1-9.3l-6.2,3.1v-9.3h6.2l-6.2-3.1l-3.1-12.4l6.2-21.7l-9.3-15.5l15.5-9.3l-15.5,3.1l6.2-9.3h-6.2l3.1-3.1l6.2-3.1h-18.6
							l6.2,3.1l-9.3,6.2l3.1,3.1l-3.1-3.1l6.2,6.2l-3.1,12.4l-31,12.4l-18.6-12.4l-24.8-27.9l3.1-6.2l3.1,6.2l21.7-6.2l9.3-15.5
							l-18.6,9.3l-12.4-3.1l-18.6-12.4v-6.2l6.2-6.2l-9.3,6.2h-3.1v-3.1l3.1-3.1l9.3-3.1l3.1-9.3l27.9,6.2l12.4-6.2l6.2,3.1l6.2-3.1
							l-9.3-34.1h-9.3l-6.2-6.2l3.1-15.5l-15.5-3.1l3.1-12.4l18.6-21.7h3.1l6.2,9.3l24.8-6.2l12.4-21.7l12.4-6.2l12.4-24.8l12.4-3.1
							l-3.1-6.2l21.7-18.6l-6.2-3.1l3.1-18.6l18.6-9.3l-9.3-6.2h-6.2l-3.1-9.3h-6.2v-6.2l-6.2-3.1l3.1-9.3l-6.2-6.2l9.3-6.2
							l-9.3-3.1l3.1-3.1l-6.2-6.2l3.1-6.2l9.3-3.1l31,9.3l18.6-9.3l9.3,3.1l6.2-12.4l18.6-9.3h3.1v6.2l6.2,18.6l15.5,6.2l-3.1,6.2
							v15.5l3.1,3.1l9.3,9.3l6.2,9.3l-15.5,9.3l-3.1-6.2h-9.3l3.1,9.3l6.2,6.2v18.6l6.2-3.1l12.4,12.4h6.2l9.3,6.2V39l18.6,9.3
							l-15.5,12.4l-5.3,24.8l24.8,9.3l3.1,6.2l15.5,9.3l18.6,3.1v6.2l12.4,3.1l3.1-3.1l12.4,3.1l6.2-6.2l12.4,6.2v6.2l15.5,9.3
							l6.2-3.1l6.2,6.2l3.1-3.1l18.6,6.2l6.2-3.1l6.2,6.2h15.5l6.2-9.3l-6.2-9.3l3.1-18.6L-60,101l6.2,3.1l-4,12.4l3.1,6.2l-3.1,3.1
							l3.1,6.2l18.6,6.2l18.6-6.2l6.2,6.2l31-3.1l3.1-12.4l-3.1-3.1h-9.3v-9.3h21.7l3.1-9.3l12.7-3l3.1-9.3h15.5l6.2-9.3L82,70
							l18.6,9.3l15.5-12.4l6.2,6.2l-3.1,6.2v3.1l6.2-3.1l2.7,6.2l-6.2,6.2V98l6.2-3.1L146.8,101.1z M41.7,494.5l-6.2-3.1V482
							l6.2-3.1v9.3V494.5z M41.7,478.9l-3.1-9.3l6.2-6.2v12.4L41.7,478.9z M38.6,497.6l-3.1,15.5l-3.1-9.3l3.1-9.3L38.6,497.6z
							 M32.4,528.2v6.2h-3.1v-6.2l3.1-3.1C32.4,525.1,32.4,528.2,32.4,528.2z M63.4,615.1v9.3l-6.2-6.2L63.4,615.1z"/>
						
							<path fill="#DDDDDD" stroke="#FFFFFF" stroke-width="1" stroke-linecap="round" stroke-linejoin="round" stroke-miterlimit="10" d="
							M-51.4,252.8l-3.1-21.7l3.1-3.1l-6.2-3.1v-6.2l-3.1-3.1l3.1-15.5l-15.5-6.2v-3.1v-6.2l6.2-3.1l3.1-6.2l9.3,3.1l3.1-3.1
							l-21.7-15.5l3.1-6.2l6.2-6.2l-3.1-3.1V141l12.4,9.3h3.1v-6.2v3.5l6.2,9.3h6.2l3.1-6.2l3.1,3.1v21.7l15.5,3.1l37.3-3.1l9.3,6.2
							l3.1,3.1h-6.2l-3.1,12.4l-6.2,6.2H4.4l-6.2,12.4l6.2,12.4v-3.1l6.2,9.3l3.1-6.2l6.2-15.5h6.2l6.2,43.5l3.1,18.2l-9.3-3.1v9.3
							v6.2l-6.2-9.3v-12.4l-9.3-21.7l-3.1-6.2l-6.2,6.2l-9.3-3.1l-6.2-9.3v-12.4h3.1l-3.1-3.1l-3.1,3.1l3.1,3.1h-6.2l6.2,3.1
							l-3.1,12.4l3.1,12.4l-3.1,6.2v-6.2l-3.1,9.3h-6.2l3.1-6.2l-3.1,3.1v-3.1l-3.1,3.1l3.1-12.4l-6.2,6.2l3.1,9.3l-9.3,6.2
							l3.1-15.5l-3.1,6.2v-6.2l-3.1,12.4v-6.2l-3.1,9.3L-51.4,252.8z M-11.1,255.9l-3.1-15.5l3.1-3.1l3.1,9.3L-11.1,255.9z
							 M-4.9,255.9l3.1-12.4l3.1,6.2L-4.9,255.9z"/>
						
							<polygon fill="#DDDDDD" stroke="#FFFFFF" stroke-width="1" stroke-linecap="round" stroke-linejoin="round" stroke-miterlimit="10" points="
							-54.5,122.8 -39,104.2 -26.6,98 -17.3,98 -20.4,104.2 -1.8,107.3 4.4,104.2 10.6,107.3 10.6,110.4 10.6,119.7 20,119.7 
							23.1,122.8 20,135.2 -11.1,138.3 -17.3,132.1 -35.9,138.3 -54.5,132.1 -57.7,125.9 						"/>
						
							<path fill="#DDDDDD" stroke="#FFFFFF" stroke-width="1" stroke-linecap="round" stroke-linejoin="round" stroke-miterlimit="10" d="
							M564.5,670.5l-6.2,3.1l3.1,9.3l-6.2,6.2l-12.4-12.4l21.7-12.4L564.5,670.5L564.5,670.5z M564.5,670.5h3.1l3.1,12.4h-6.2
							L564.5,670.5L564.5,670.5z"/>
						
							<polygon fill="#DDDDDD" stroke="#FFFFFF" stroke-width="1" stroke-linecap="round" stroke-linejoin="round" stroke-miterlimit="10" points="
							388,435.5 381.8,447.9 388,463.4 384.9,475.8 388,491.3 360.5,500.7 360.5,506.9 351.2,506.9 348.1,510 348.1,516.2 
							354.3,522.4 354.3,528.2 345,522.4 329.5,525.1 329.5,531.3 323.3,534.4 314,537.5 307.8,534.4 295.4,537.5 292.3,531.3 
							295.4,525.1 292.3,519.3 289.1,528.2 282.9,528.2 279.8,510 279.8,506.9 276.7,503.8 276.7,510 273.6,497.6 273.6,488.2 
							267.4,485.1 264.3,463.4 270.5,463.4 282.9,444.8 323.3,441.7 329.5,447.9 332.6,444.8 335.7,451 338.8,447.9 351.2,454.1 
							354.3,451 351.2,441.7 363.7,438.6 369.9,444.8 						"/>
						
							<polygon fill="#DDDDDD" stroke="#FFFFFF" stroke-width="1" stroke-linecap="round" stroke-linejoin="round" stroke-miterlimit="10" points="
							212,296.2 215.1,286.9 224.4,283.8 221.3,283.8 227.5,274.5 236.4,268.3 239.5,277.6 251.9,277.6 248.8,262.1 245.7,252.8 
							248.8,243.4 258.1,246.5 270.5,259 270.5,265.2 279.8,262.1 276.7,274.5 282.9,283.8 295.4,290 304.7,280.7 317.1,290 
							310.9,296.2 326.4,302.4 326.4,305.5 317.1,314.8 304.7,314.8 304.7,317.9 301.6,324.2 332.6,339.7 332.6,345.9 338.8,352.1 
							345,364.5 363.7,379.6 366.8,392 373,392 373,395.1 384.9,401.3 379.2,407.5 391.1,419.9 384.9,426.2 388,435.5 369.9,444.8 
							363.7,438.6 351.2,441.7 354.3,451 351.2,454.1 338.8,447.9 335.7,451 332.6,444.8 338.8,438.6 338.8,423.1 341.9,410.6 
							320.2,392 320.2,367.6 301.6,345.9 289.1,345.9 279.8,355.2 270.5,358.3 258.1,349 236.4,367.6 230.6,364.5 236.4,352.1 
							233.3,345.9 239.5,330.4 236.4,321.1 239.5,317.9 221.3,317.9 218.2,311.7 221.3,302.4 215.1,296.2 						"/>
						
							<path fill="#DDDDDD" stroke="#FFFFFF" stroke-width="1" stroke-linecap="round" stroke-linejoin="round" stroke-miterlimit="10" d="
							M564.5,670.5v12.4h6.2l-3.1-12.4l9.3-6.2l-6.2-6.2l12.4-6.2l21.7-34.1v12.4l9.3-12.4l3.1,9.3l12.4,6.2l-6.2,6.2l3.1,3.1
							l-3.1,3.1l12.4-3.1v3.1l-3.1,3.1v3.1l9.3-3.1l21.7,9.3l-3.1,6.2l-9.3,3.1l-9.3-3.1l-3.1,6.2l9.3,6.2v6.2l-15.5,3.1l-6.2-3.1
							l-3.1,3.1l-6.2-3.1h-34.1l-3.1,6.2l-6.2,24.8l-6.2,3.1l-3.1,6.2l3.1,3.1l-9.3,6.2l3.1,6.2l-9.3,12.4h-15.5l-6.2,6.2l-15.5-9.3
							h-12.4L487,760.4h-12.4l-15.5,3.1L437.4,748l-3.1-9.3l3.1-3.1l6.2,9.3l9.3-3.1l9.3,6.2v3.1l3.1-3.1l12.4,6.2l-9.3-6.2
							l9.3-12.4h-6.2v-3.1l3.1-6.2l3.1,3.1v-9.3l37.3-9.3l27.9-34.1l12.4,12.4l6.2-6.2l-3.1-9.3L564.5,670.5L564.5,670.5z
							 M212,633.7l3.1-6.2l3.1,3.1h9.3l3.1,6.2h3.1v12.4l3.1,3.1l9.3-6.2l6.2,3.1l6.2-12.4l6.2,3.1l15.5,15.5l9.3,18.6l-3.1,21.7
							l6.2,6.2l-3.1,15.5l9.3,6.2l12.4,27.9l-6.2,3.1l-3.1-9.3l3.1,6.2h-9.3l-3.1,3.1l-3.1-6.2l-49.7-31v-9.3l-15.5-15.5l6.2-3.1
							l-6.2-3.1V671l-6.2-6.2V643L212,633.7z M205.8,633.7v3.1h-3.1l-3.1-3.1H205.8z M614.2,612h3.1v3.1l-6.2,3.1L614.2,612z
							 M478.1,729.5l-3.1-3.1l3.1-6.2V729.5L478.1,729.5z M626.6,686v-3.1l6.2,3.1H626.6z"/>
						
							<path fill="#DDDDDD" stroke="#FFFFFF" stroke-width="1" stroke-linecap="round" stroke-linejoin="round" stroke-miterlimit="10" d="
							M81.6,398.2v-3.1l-9.3,9.3v-9.3l9.3-27.9l-9.3-31l-5.8-2.7l3.1-9.3h-6.2l3.1-3.1V318l-9.3-6.2l3.1-3.1l-12.4-3.1v6.2v-6.2
							l-3.1,3.1l-3.1-3.1l3.1-3.1h-3.1l3.1-9.3l-6.2,9.3v-9.3l-3.1-3.1v9.3l-9.3-18.6v-9.3l9.3,3.1L32.4,256l3.1-3.1l6.2,3.1
							l6.2-6.2l-3.1-12.4l3.1-6.2H51V225v-18.6l18.6,3.1l15.5-27.9l-3.1-6.2V172l12.4-15.5V141l24.8-18.6h12.4l9.3,6.2l-6.7-12
							l12.4-9.3v-6.2l3.1-9.3l15.5,9.3l3.1,15.5l3.1-3.1l6.2,3.1l3.1,18.6l-3.1,15.5l-3.1,3.1l3.1,6.2l-9.3,6.2h-3.1L149.9,188v6.2
							l6.2,6.2l-6.2,9.3l34.1-6.2l-6.2,3.1l6.2,21.7l12.4,3.1l3.1,3.1l-9.3,18.6l18.6,3.1v6.2l6.2,9.3l9.3-3.1l9.3-6.2l3.1,6.2
							l-9.3,6.2l-6.2,9.3h3.1l-9.3,3.1l-3.1,9.3h-3.1h-12.4v6.2h-9.3l-3.1,8.9l-15.5,3.1l-6.2-3.1l-9.3,21.7l3.1,6.2l-9.3,3.1
							l6.2,6.2l3.1,12.4l18.6,18.6l3.1,18.6l6.2-3.1l-3.1,6.2h-3.1l-3.1,18.6l-9.3,3.1v3.1l3.1,9.3l21.7,21.7l-3.1,18.2l12.4,27.9
							l-18.6,27.9l-3.1,9.3l-3.1,6.2l-3.1-15.5l6.2-6.2v-18.6h3.1h-6.2l3.1-6.2v-6.2h-3.1l3.1-3.1l-3.1-18.6l-9.3-21.7v12.4
							l-3.1-15.5l-6.2-18.6v-21.7l-6.2-6.2l6.2-12.4l-9.3,3.1L134.4,367l-3.1,18.6L122,392l-3.1-9.3v12.4h-6.2l-12.4,15.5l-3.1-3.1
							l3.1-6.2l-6.2,6.2v-6.2l-3.1,6.2h-3.1l3.1-9.3l-9.3,9.3l3.1-6.2l-6.2,3.1L81.6,398.2z M60.3,324.2h3.1l3.1,9.3l-12.4-12.4
							L60.3,324.2z M63.4,324.2l-6.2-6.2l9.3,3.1L63.4,324.2L63.4,324.2z M171.6,510v-3.1l3.1-3.1v6.2H171.6L171.6,510z
							 M168.5,491.3v-6.2l3.1,3.1L168.5,491.3z M57.2,333.5l3.1,6.2l-6.2-6.2H57.2z"/>
						
							<path fill="#DDDDDD" stroke="#FFFFFF" stroke-width="1" stroke-linecap="round" stroke-linejoin="round" stroke-miterlimit="10" d="
							M212,633.7l-9.3-12.4v-3.1l-9.3-6.2l-3.1-9.3l-9.3-6.2l-3.1-9.3l-6.2,6.2l-3.1-3.1v-24.8l9.3-24.8l3.1-9.3l18.6-27.9
							L187.2,476l3.1-18.6l-21.7-21.7l-3.1-9.3v-3.1l9.3-3.1l3.1-18.6h3.1l3.1-6.2l-6.2,3.1l-3.1-18.6L156.1,361l-3.1-12.4l-6.2-5.8
							l9.3-3.1l-3.1-6.2l9.3-21.7l6.2,3.1l15.5-3.1l3.1-9.3h9.3v-6.2h12.4h3.1h3.1l6.2,6.2l-3.1,9.3l3.1,6.2h18.2l-3.1,3.1l3.1,9.3
							l-6.2,15.5l3.1,6.2l-5.8,12.4l6.2,3.1l21.7-18.6l12.4,9.3l9.3-3.1l9.3-9.3h12l18.6,21.7v24.8l21.7,18.6l-3.1,12.4V439
							l-6.2,5.8l-3.1,3.1l-6.2-6.2l-40.4,3.1l-12.4,18.6h-6.2l3.1,21.7l6.2,3.1v9.3l3.1,12.4l-6.2-12.4l-6.2-3.1v-3.1l-3.1,3.1
							l-3.1-9.3l-9.3-3.1l-18.2,3.1v-18.6h-21.7v27.9L187.1,541l3.1,24.8h15.5l3.1,15.5l6.2,6.2l6.2,27.9l-6.2-15.5l-3.1,3.1
							l3.1,9.3l18.6,12.4H246l12.4,12.4l-6.2,12.4l-6.2-3.1l-9.3,6.2l-3.1-3.1v-12.4h-3.1l-3.1-6.2h-9.3l-3.1-3.1L212,633.7z
							 M168.5,593.3l3.1,3.1l-3.1,6.2V593.3z"/>
						<path fill="#A23520" stroke="#FFFFFF" stroke-linecap="round" stroke-linejoin="round" stroke-miterlimit="10" d="M314,537.5
							l9.3-3.1l6.2-3.1v-6.2L345,522l9.3,6.2V522l-6.2-6.2v-6.2l3.1-3.1h9.3v-6.2l27.9-9.3l-3.5-15.1l3.1-12.4l-6.2-15.5l6.2-12.4
							l-3.1-9.3l6.2-6.2l-12.4-12.4l6.2-6.2l-12.4-6.2V392h-6.2l-2.7-12.4L345,364.1l-6.2-12.4l-6.2-5.8v-6.2l-31-15.5l3.1-6.2v-3.1
							h12.4l9.3-9.3v-3.1l-15.5-6.2l6.2-6.2l-12.4-9.3l-9.3,9.3l-12.4-6.2l-6.2-9.3l3.1-12.4l-9.3,3.1V259l-12.4-12.4l9.3-9.3
							l12.4,9.3l6.2-9.3l6.2,6.2l3.1-6.2l6.2,6.2l3.1-6.2l6.2,3.1l9.3-3.1l3.1-9.3l12.4-3.1l12.4,9.3h18.6l3.1,3.1l-6.2,9.3l3.1,9.3
							l15.5,9.3h9.3l6.2,3.1l-12.4,6.2l-3.5,6.2l-3.1,3.1v-3.1l-9.3,3.1l-2.7-3.1l3.1,9.3h-6.2v9.3l-15.5,9.3l-6.2,21.7l6.2,12.4
							l15.5,12.4l-3.1,6.2l6.2,9.3l27.9,24.8l9.3,3.1v6.2l3.1-3.1l-3.5,2.7l9.3,12.4h3.1l12.4,37.3l-3.1,12.4l6.2,12.4l-6.2,6.2
							l3.1,6.2h-3.1l3.1,12.4l-3.1-6.2v9.3l-3.1,9.3l-21.7,9.3l-3.1,6.2l-18.6,6.2l-6.2-6.2v6.2l-3.1-6.2l-6.2,6.2h3.1l3.1,3.1h-9.3
							l9.3,6.2l-6.2,3.1L357,541l9.3,12.4l-12.4-9.3l9.3,9.3v6.2h-3.1l-15.5-12.4l9.3,15.5l-15.5,6.2l-9.3,12.4h-9.3l6.2-3.1h-3.1
							v-18.6l6.2-9.3l-6.2-6.2h-6.2L314,537.5z M304.7,537.5v9.3l-6.2-6.2L304.7,537.5z"/>
					</g>
					<g>
						<path fill="#ECA395" stroke="#FFFFFF" stroke-width="1" stroke-miterlimit="10" d="M-3743.8-362.8l3.1,6.2l-3.1,3.1
							l3.1,3.1l-3.1,3.1l-27.9,6.2l-6.2,6.2l-6.2-3.1v-6.7l-3.1,3.1l-3.1,12.4l-3.1,3.1l-3.1-3.1l-3.1,6.2l-3.1-6.2l-3.1,6.2v-6.2
							l-3.1,9.3v-3.1l-6.2,3.1v3.1l-12.4,15.5l-3.1,9.3l6.2,3.1l-12.4,9.3l9.3,3.1v6.2l9.3,9.3l6.2-3.1l-6.2-9.3h6.2l3.1,12.4
							l-18.6,3.1v-6.2l-12.4,9.3l3.1-9.3l-6.2,3.1v-3.1l-3.1,12.4l-34.1,3.1l-24.8,12.4v-3.1l-6.2,12.4h6.2v3.1l-3.1,15.5v-6.2
							l-9.3,18.6l-12.4,12.4l3.1-6.2l-12.4-6.2l-3.1-6.2l12.4-12.4l-12.4,9.3l12.4,34.1l-21.7,34.1h-3.1l3.1-9.3l6.2-12.4h-6.2
							l3.1-12.4l-6.2,6.2l-6.2-9.3h9.3l-9.3-3.1v-3.5h6.2l-3.1-6.2l-3.1,3.1l6.2-6.2l-3.1,3.1v-9.3l9.3-6.2h-3.1l-12.4,6.2v3.1h-3.1
							l3.1,6.2l-3.1,9.3l3.1,9.3l-6.2-9.3v6.2l9.3,3.1v9.3l-18.6-12.4h-3.1l6.2-9.3l-3.1-3.1v6.2l-6.2,6.2l27.9,15.5l-2.2,6.2
							l-18.6-12.4l18.6,15.5l3.1,6.2h-6.2l-6.2-3.1l9.3,12.4l-9.3-6.2l-12.4-3.1l21.7,12.4v-3.1l6.2,3.1l12.4,27.9l-9.3-24.8v6.2
							h-3.1l6.2,12.4l-3.1-6.2v3.1l-6.2-3.1l3.1,3.1l-12.4,6.2l-3.1-6.2v6.2h15.5l-3.1,6.2l3.1,3.1l6.2-9.3l3.1,6.2l-12.4,9.3h-6.2
							l-3.1-3.1l-3.1,3.1l-9.3-3.1l15.5,6.2l-6.2,6.2l-9.3-3.1l9.3,6.2l9.3-3.1l-3.1,9.3l-21.7,3.1l-3.1-3.1l3.1,3.1l-9.3,6.2
							l-3.1,12.4l-3.1-6.2v6.2h-12.4l-15.5,15.5l-3.1-3.1l3.1,6.2l-6.2,3.1l-9.3,6.2h-3.1v3.1l-9.3,6.2h-6.2l3.1,3.1l-3.1,3.1
							l-6.2-6.2l6.2,6.2l-12.4,18.6h-3.1h3.1l-9.3,18.6l3.1,15.5l9.3,24.8l9.3,15.5l-6.2-3.1l3.1,9.3l18.6,40.4l-9.3,40.4l-18.6,3.1
							v-6.2l6.2,3.1l-9.3-15.5l-9.3-3.1l-6.2-12.4l3.1-6.2l-6.2,6.2v-13.3h-3.1v3.1l-3.1-3.1l-6.2-12.4l3.1-12.4l-6.2-3.1l3.1,6.2
							l-3.1,3.1l-3.1-3.1l6.2-21.7l-6.2-12.4l-6.2-3.1l-21.7-21.7l-31,9.3v-3.1l-6.2-6.2h6.2l-9.3-6.2l-3.1,3.1l3.1,3.1l-15.5-6.2
							h6.2l-3.1-3.1l-21.3,3.5l6.2-3.1l-6.2-3.1l-9.3,6.2l3.1-3.1l-3.1,3.1l-9.3,3.1l6.2-3.1l-6.2-9.3l-3.1,9.3l-21.7-3.1l-12.4,9.3
							l-15.1-6.2l-6.2,3.1l6.2,6.2l12.4-6.2l-3.1,6.2l3.1,3.1l6.2-6.2v9.3l-9.3,3.1l18.6,12.4l-9.3,6.2l3.1-6.2h-3.1l-18.6-12.4
							l3.1,6.2v6.2h-3.1l-6.2-6.2l-6.2,6.2l-12.4-3.1l3.1-3.1l-18.6-12.4l-6.2,3.1v3.1l-3.1,3.1l-21.7-6.2h-15.5V55l-3.1,3.1
							l3.1,3.1l-21.7,9.3l6.2-6.2h-6.2v-3.1h-6.2l3.1,9.3l-6.2,9.3l-24.8,12.4l6.2-3.1h-15.5l6.2,6.2l-6.2,3.1l-6.2-3.1l3.1,3.1
							l-9.3,3.1v3.1h3.1l-6.2,6.2h-6.2l6.2,3.1l-3.1,9.3l-9.3-3.1l3.1,6.2l6.2-3.1l-3.1,12.4l9.3,21.7l-6.2,3.1l-40.4-15.5
							l-9.3-15.5v-12.9l-18.6-18.6l-9.3-21.7l-18.6-15.5l-21.7-3.1l-6.2,3.1l-12.4,18.6h-6.2l-27.9-15.5L-4635,39l-31-24.8l-6.2-6.2
							h-43.5v12.4h-65.2l-89.6-31l3.1-6.2l-59,3.1l-9.3-18.6l-12.4-12.4h-9.3l-3.1-9.3h-12.4l-9.3-9.3l-24.8-3.1l-3.1-15.5l-27.9-31
							v-18.6l-12.4-6.2l-3.1-15.5l12.4,9.3l-9.3-15.5l15.5-3.1h-15.5l-3.1,9.3l-9.3-6.2l3.1-3.1l-9.3-9.3l-12.4-12.4l-3.1-21.7
							l-12.4-21.7l6.2-9.3v-18.6l-9.3-40.4l3.1-12.4l6.2-3.1h-6.2l6.2-9.3l6.2-52.8l-3.1-18.6h18.6l-18.6-6.2l-3.1-9.3l3.1,9.3v-9.3
							h3.1l-6.2-6.2l6.2-3.1l-6.2-3.1l-3.1,3.1l-12.4-43.5l18.6,9.3h27.9l3.1,6.2l-3.1,6.2l-3.1-3.1l-6.2,12.4h9.3h-6.2l6.2-9.3
							l6.2-6.2v6.2l-3.1,3.1h3.1v9.3l-3.1-3.1l-3.1,6.2v-6.2l-6.2,6.2l3.1,3.1l15.5-9.3l-3.1-9.3v-9.3l-3.1-6.2h3.1l-6.2-9.3
							l3.1,3.1l3.1-3.1l-9.3-15.5h207.5h445.7v-9.3h9.3l3.1,18.6l18.6,6.2l21.7-3.1l12.4,12.4l9.3-3.1l15.5,9.3l12.4-6.2l3.1,3.1
							l31,3.1l24.8-9.3l83.4,43.5l6.2,12.4h9.3l6.2,12.4l6.2-3.1l3.1,3.1l-3.1,6.2l24.8,15.5l12.4,49.7l-12.4,27.9l-12.4,9.3v9.3
							l9.3,9.3l89.6-34.1l-6.2-18.6l12.4-3.1h43.5l9.3-12.4l34.1-27.9h83.4l3.1-9.3l12.4,3.1l12.4-21.7v-6.2l6.2-15.5l18.6-24.8
							l9.3,9.3l12.4-6.2l12.4,9.3v40.4l9.3,6.2v9.3h7.1v1.2H-3743.8z M-6049.5-867.5l9.3,3.1l-3.1,9.3l9.3-9.3l6.2,6.2l6.2-3.1
							l-9.3-6.2h6.2v-3.1l-9.3,3.1l-15.5-3.1h-12.4l9.3-6.2l-12.4-3.1l15.5-15.5l-12.4,9.3l-6.2,6.2v6.2l-9.3-9.3v-9.3h-9.3l3.1-6.2
							l6.2,3.1l-6.2-6.2h12.4l-3.1-9.3l12.4-12.4l6.2-3.1l6.2,3.1l-3.1-6.2l6.2-6.2l-6.2,3.1l-3.1-6.2l6.2-6.2h9.3l-6.2-6.2l3.1-3.1
							l31,6.2l18.6-15.5l21.7,3.1l12.4-12.4l-3.1-18.6l-3.1-6.2h-9.3l15.5-9.3l-6.2-9.3l-21.7,6.2l-18.6,15.5l-9.3-12.4l-3.1,3.1
							l6.2,3.1v3.1l-18.6-6.2l-27.9,3.1l-31-6.2v-9.3l-12.4-12.4l6.2,3.1l12.4-6.2l-31-6.2l-15.5-9.3l43.5-18.6h18.6l-9.3-3.1
							l3.1-3.1l34.1-9.3h15.5h-6.2l3.1,3.1l-3.1,9.3l-6.2,3.1l55.9,6.2l6.2-9.3h9.3v6.2l3.1-6.2l-12.4-6.2l-9.3,6.2v-12.4l-15.5-6.2
							v-6.2l6.2-3.1l6.2,12.4l9.3,6.2l12.4-3.1l9.3,6.2h12.4v-9.3l-31,3.1l-9.3-6.2l9.3-12.4h-21.7v-6.2l-3.1,6.2l-27.9-3.1
							l-9.3-21.7l-65.2-27.9l12.4-3.1l3.1-18.6l55.9-6.2l18.6-15.5l3.1-15.5l24.8-24.8l3.1,3.1l-9.3,3.1h6.2l46.6-15.5l-6.2,3.1
							l9.3,9.3v-9.3l12.4-3.1l-18.6-3.1l12.4-9.3l9.3-3.1l-6.2,6.2l6.2,3.1l27.9-6.2l34.1-21.7l21.7,6.2l-12.4,12.4h3.1v6.2
							l21.7-15.5v6.2l6.2-6.2l6.2,6.2v6.2l9.3,3.1l21.7-6.2l24.8,3.1l-6.2,9.3l9.3,3.1h-12.4h21.7l-6.2,3.1h65.2l102,21.7l40.4-6.2
							l52.8,18.6v362.3l24.8,3.1l21.7-6.2l-3.1,9.3l37.3,31l3.1,9.3l15.5-6.2h6.2v-12.4h6.2l-3.1-3.1l21.7-9.3l12.4,9.3l-3.1,6.2
							l3.1,3.1l37.3,27.9l27.9,43.5l-3.1,6.2h6.2v6.2l6.2,3.1v6.2l40.4,15.5l3.1,6.2l-6.2,6.2l6.2,15.5l-9.3,12.4l-9.3,6.2v-6.2
							l-3.1,3.1l-3.1-6.2l6.2-3.1l6.2-6.2l-6.2,6.2h-3.1h-3.1l3.1-6.2h6.2h-6.2V-688l-6.2-9.3l3.1-6.2l-21.7,9.3h3.1v6.2l-3.1,6.2
							l-6.2-3.1v-6.2l6.2-6.2v-6.2l3.1-3.1l-3.1-3.1l-9.3-6.2v-3.1h-6.2l6.2-6.2l-9.3-3.1l-3.1-6.2l-15.5-6.2l9.3-3.1h-6.2l-3.1-6.2
							l3.1-3.1h-6.2v-3.1l15.5,6.2l-12.4-9.3v-3.1h9.3l-9.3-3.1l-3.1,6.2l-3.1-6.2l3.1-6.2l-6.2,6.2l-3.1-3.1V-781l6.2-3.1h-6.2
							l-3.1,9.3l-9.3-3.1l-6.2-3.1l-3.1-9.3l-9.3-27.9l-3.1,6.2l3.1,6.2l-6.2-3.1l12.4,34.1h-6.2l-3.1-9.3l-9.3,3.1v-3.1l-6.2-12.4
							h9.3l-9.3-6.2v6.2l-3.1,3.1l-18.6-9.3l-3.1,6.2h15.5l3.1,6.2l-3.1,3.1l6.2-3.1l3.1,6.2v6.2l-9.3-3.1l3.1,3.1h-6.2v3.1
							l-46.6-31l3.1-3.1l-27.9-9.3l3.1-18.6l6.2,6.2v9.3v-9.3h9.3l-15.5-6.2l-21.7,12.4l-21.7-6.2l3.1-6.2l-3.1-3.1l-9.3,6.2
							l-21.7-6.2l-27.9,3.1l-24.8-9.3l6.2-15.5l-15.5,12.4l-12.4-6.2l3.1-6.2l-12.4,3.1l3.1-6.2l-12.4,3.1l12.4-6.2l-15.5-3.1
							l9.3-6.2l-24.8,9.3h-3.1v-9.3l-3.1,9.3l-3.1,3.1l-6.2-6.2l6.2-12.4l-6.2,9.3h-3.1l-3.1,9.3h-9.3h6.2l-6.2,3.1l12.4-3.1v6.2
							l-12.4,6.2l15.5-6.2l3.1,6.2l-9.3,6.2l6.2,3.1h-6.2l-3.1,9.3l-15.5-6.2l-3.1,9.3l-6.2-9.3l-3.1,9.3l-3.1-3.1v9.3l-6.2-6.2
							l3.1,3.1l-3.1,3.1l-9.3,6.2l3.1-9.3l-6.2,9.3v-3.1l-9.3,12.4l-18.6,3.1l-6.2-6.2l3.1-3.1l9.3-3.1l9.3-9.3l-9.3,3.1l-9.3-3.1
							l12.4-21.7l-3.1-12.4l24.8-12.4l31,6.2l-21.7-9.3l18.6-12.4h-12.4l-9.3,9.3l-12.4-3.1l-24.8,15.5v6.2l-12.4,6.2l-3.1,9.3
							h-18.6l12.4,6.2l-3.1,6.2l-12.4,3.1h6.2v3.1l-9.3,3.1v-3.1l-15.5,15.5l-6.2,6.2l3.1,3.1l18.6,3.1l3.1,3.1l-3.1,6.2l-15.5,6.2
							v3.1l-6.2,6.2l6.2-3.1l-3.1,6.2l-18.6,3.1l-9.3,12.4l-6.2-3.1l-3.1,9.3l-18.6,6.2l6.2,6.2l-6.2,6.2h-9.3l-6.2,6.2l-6.2-3.1
							l-3.1,6.2l3.1,3.1l-6.2-3.1l-9.3,3.1l6.2,3.1l-12.4,3.1l-6.2,6.2h12.4l-9.3,9.3l-3.1-6.2h3.1l-3.1-3.1v9.3l-18.6,3.1l-6.2,9.3
							v-9.3h-3.1l-15.5,12.4l-3.1-3.1l-15.5,6.2h-6.2v-3.1l9.3-3.1l-9.3-3.1l-12.4,15.5l3.1,3.1l-12.4,3.1l-6.2-9.3l3.1,12.4h-6.2
							l-9.3-6.2l3.1,6.2l-6.2,3.1v-9.3l18.6-9.3l6.2-9.3l12.4-6.2l15.5-3.1l9.3,9.3v-6.2l12.4,3.1l-9.3-6.2l6.2-12.4l31-15.5h9.3
							v-9.3l12.4-9.3l9.3-9.3l9.3,3.1l-9.3-3.1l3.1-15.5l9.3-3.1l-9.3-3.1v-6.2l18.6-24.8l-6.2,9.3l-31,6.2l-3.1-3.1v-9.3l12.4,6.2
							l-12.4-12.4v6.2l-3.1,6.2l-3.1-3.1v6.2h-3.1l3.1,9.3l-3.1,3.1h-3.1l-12.4-18.6l-9.3,6.2l-9.3-9.3l-31,15.5l-12.4-3.1l12.4-3.1
							l-3.1-9.3l6.2-3.1h-12.4l3.1-9.3l6.2-3.1l-12.4-21.7v-6.2l-3.1,3.1l3.1-15.5l6.2-3.1l-9.3,3.1l-6.2,9.3v12.4l-24.8,6.2h-12.4
							l-3.1-3.1l3.1-3.1l-24.8-15.5l6.2-3.1h-12.4L-6049.5-867.5z M-5786.5-753.1l-9.3-6.2l6.2-3.1L-5786.5-753.1l6.2-3.1l-3.1-6.2
							h9.3l-6.2-3.1l12.4,3.1l-3.1,6.2l9.3-6.2l3.1,3.1l-3.1,3.1l9.3,3.1l-6.2,6.2l-15.5-3.1l9.3,6.2h-12.4l3.1,3.1h-6.2l-9.3,6.2
							l3.1,3.1l-9.3,6.2h-3.1l6.2-12.4l-6.2,6.2v-6.2l-6.2,9.3l-6.2-12.4l-6.2-3.1l15.5-12.4l12.4,15.5l-6.2-12.4L-5786.5-753.1
							L-5786.5-753.1z M-5839.3,299.3l12.4,6.2l9.3,12.4l-18.6,15.5l-6.2-6.2l-3.1-15.5l6.2-6.2L-5839.3,299.3L-5839.3,299.3z
							 M-5300.5-678.5l-3.1-3.1l6.2-6.2h-12.4l6.2-6.2l-3.1-9.3l-9.3-6.2h12.4v9.3l12.4,3.1l9.3,15.5l-9.3-3.1l12.4,9.3l-3.1,3.1
							l6.2-3.1l-6.2,9.3h6.2l-3.1,9.3l-12.4-6.2v-9.3v3.1l-15.5-6.2L-5300.5-678.5z M-6198.1-960.2h-18.6l-3.1-3.1l3.1-12.4l3.1,9.3
							l31-3.1l18.6,12.4l18.6,3.1l-3.1,3.1h-12.4l-6.2,9.3l-3.1-6.2l-18.6-9.3l-6.2-3.1H-6198.1L-6198.1-960.2z M-5378.1-759.3h-3.1
							v-6.2l9.3,3.1l-9.3-6.2v-6.2l6.2,6.2l9.3-6.2l6.2,3.1l-6.2,6.2l9.3-6.2l9.3,3.1v6.2l-6.2-3.1l6.2,6.2h-3.1l-18.6-6.2l12.4,9.3
							l9.3-3.1l3.1,12.4l-24.8-12.4l6.2,9.3l-6.2,3.1L-5378.1-759.3z M-6083.6-851.9l9.3,6.2l3.1,9.3l-15.5,6.2l3.1,3.1l-31-15.5
							L-6083.6-851.9z M-5337.7-749.9l-9.3-31l6.2,9.3h12.4l6.2,12.4v3.1l-9.3-12.4v6.2l9.3,12.4h-3.1l3.1,6.2l-6.2-3.1l3.1,6.2
							l-9.3,6.2l-3.1-6.2l6.2-3.1L-5337.7-749.9h6.2H-5337.7z M-6037.1-653.7l-12.4,9.3l-6.2-6.2l9.3-12.4l18.6-3.1h6.2l3.1,6.2
							l6.2,6.2H-6037.1z M-5350.1-718.9v-9.3h-6.2v-12.4l-6.2-3.1h3.1v-6.2l12.4,6.2l9.3,21.7l-3.1,18.6l-9.3-12.4l6.2-6.2
							L-5350.1-718.9z M-5260.5-678.5v-9.3V-678.5h-3.1v3.1l-3.1-6.2v6.2l-6.2-6.2l3.1-12.4l9.3-3.1l9.3,9.3l-3.1,9.3l-3.1,6.2h-3.1
							l3.1-6.2l-6.2,3.1L-5260.5-678.5z M-6105.4-620l6.2-3.1l-9.3-3.1l3.1-6.2h9.3v3.1l6.2-3.1l3.1,3.1l-9.3,6.2h9.3l-12.4,6.2
							l-24.8,6.2L-6105.4-620z M-5300.5-731.3v12.4l-9.3-9.3l6.2,12.4l-9.3,3.1l-3.1-15.5h-6.2h3.1l-6.2-6.2L-5300.5-731.3z
							 M-3904.8-232.9l9.3-6.2l21.7-3.1l9.3-3.1l-9.3,6.2l18.6-6.2l-40.4,15.5L-3904.8-232.9z M-5774.1-768.6l-6.2-6.2l9.3,3.1
							l-6.2-3.1l9.3-3.1l3.1-6.2l15.5,6.2l-3.1,6.2l-3.1-3.1v3.1L-5774.1-768.6z M-5328.4-709.6l-3.1-3.1h6.2v-3.1l-6.2-3.1
							l-3.1-9.3h9.3v9.3l6.2-6.2v6.2h-3.1v15.5l-3.1-6.2l-3.1,9.3L-5328.4-709.6L-5328.4-709.6z M-5631.7-845.7l-12.4,15.5h-9.3
							l15.5-18.6L-5631.7-845.7z M-6124-616.9l-31,21.7l12.4-15.5h6.2v-6.2H-6124z M-5854.8,293.1l-6.2-9.3l3.1-3.1l12.4,6.2
							L-5854.8,293.1z M-5888.5,274.5h-6.2l-3.1-6.2l6.2-3.1l6.2,9.3L-5888.5,274.5L-5888.5,274.5z M1932.7-592.1l-9.3-6.2l3.1-3.1
							h12.4l6.2,6.2L1932.7-592.1z M-5285.4-697.2l-9.3-9.3l6.2-3.1l3.1,3.1l6.2,3.1v6.2H-5285.4L-5285.4-697.2z M-6294.3-570.3
							l18.6-6.2l-6.2-3.1l6.2-3.1l6.2,3.1l-6.2,6.2L-6294.3-570.3z M-5925.8,259l-9.3-3.1l3.1-3.1h9.3L-5925.8,259z M-5303.6-672.3
							l9.3,18.6l-9.3-9.3l-3.1-6.2L-5303.6-672.3z M-6229.1-845.7l-9.3-3.1l-9.3-6.2l3.1-3.1L-6229.1-845.7z M-6340.4-554.8
							l6.2-12.4h3.1l-3.1,3.1h6.2L-6340.4-554.8z M-5282.3-706.5h-3.1v-3.1v-6.2l6.2,6.2h3.1l-3.1,6.2L-5282.3-706.5z
							 M-5935.1-675.4v6.2l-9.3,6.2v-6.2L-5935.1-675.4z M-6362.1-554.8l-9.3-9.3l9.3-3.1v3.1V-554.8z M-5956.8-678.5l6.2,6.2
							l-9.3,3.1v-6.2L-5956.8-678.5z M-5610-848.8l-12.4,3.1l3.1-3.1h-6.2l3.1-3.1L-5610-848.8z M-5297.3-725.1l6.2,6.2l-9.3,3.1
							L-5297.3-725.1z M-5306.7-703.4l-3.1,3.1l-9.3,3.1l6.2-6.2L-5306.7-703.4L-5306.7-703.4z M-5297.3-706.5l-3.1-6.2h9.3v3.1
							L-5297.3-706.5z M-6257-570.3l-15.5-3.1l27.9,3.1H-6257z M-6355.9-557.9l12.4-9.3v6.2L-6355.9-557.9z M-5647.3-851.9l-3.1,9.3
							l-3.1-3.1l3.1-6.2H-5647.3L-5647.3-851.9z M-6077.4-635.5l-6.2-3.1l3.1-3.1l6.2,3.1L-6077.4-635.5z M-5263.6-672.3v6.2h-3.1
							v-9.3L-5263.6-672.3z M-5365.6-743.7l3.1,6.2l-6.2,6.2l3.1-6.2l-3.1-6.2H-5365.6z M2081.2-548.6l-12.4-9.3l18.6,9.3H2081.2z
							 M-5966.1-790.3l9.3-3.1l-3.1,6.2L-5966.1-790.3z M-5056.1-459l3.1,3.1l-3.1,3.1l6.2,9.3l-9.3-9.3L-5056.1-459z
							 M-5864.1,280.7l-12.4-3.1h12.4V280.7z M-5777.2-740.6l6.2,3.1l-12.4,3.1l3.1-3.1v-3.1H-5777.2z M-5381.2-768.6v3.1v3.1
							l-3.1-6.2L-5381.2-768.6L-5381.2-768.6z M-5780.3-771.7l9.3,6.2l-12.4-3.1L-5780.3-771.7z M1951.3-579.7l-6.2-3.1l9.3-3.1
							L1951.3-579.7z M2037.8-564.1l-3.1-3.1l9.3-6.2L2037.8-564.1z M-5273-678.5l3.1,3.1v6.2L-5273-678.5z M-5334.6-774.8h3.1h-6.2
							v-3.1L-5334.6-774.8z M-5867.2,286.9l-3.1-3.1h6.2L-5867.2,286.9z M2090.6-564.1l-3.1-3.1h6.2L2090.6-564.1z M-3771.8-338.4
							l3.1-3.1v3.1l-6.2,3.1L-3771.8-338.4z M-3932.8,305.5v3.1V305.5z M-3932.8,305.5v3.1h-3.1L-3932.8,305.5z M-5065.4-477.7v3.1
							V-477.7z"/>
						<path fill="#ECA395" stroke="#FFFFFF" stroke-width="1" stroke-miterlimit="10" d="M-54.5,122.8l-3.1-6.2l3.1-12.4
							l-6.2-3.1l-12.4,9.3h-21.7l-12.4-9.3l-6.2,6.2l-3.1-6.2l-6.2,6.2l-5.8-9.3H-144l3.1-6.2h-9.3l-9.3-6.2l-6.2-12.4l-15.5,3.5
							l-6.2-12.4l-24.8-12.4l-3.1-6.2h-15.1l-3.1,9.3l-6.2-6.2l-18.6-9.3v-3.1l-9.3-6.2h-6.2l-12.4-12.4l-6.2,3.1V2.2l-6.2-6.2
							l-3.1-9.3h9.3l3.1,6.2l15.5-9.3l-6.2-9.3l-9.3-9.3l-3.1-3.1v-15.5l3.1-6.2l-15.5-6.2l-6.2-18.6v-6.2h-3.1l-24.8-3.1l-6.2-9.3
							l-9.3,3.1l-6.2-6.2l3.1-3.1L-361-122l-12.4-3.1v-3.1l-6.2-3.1H-392l-6.2-6.2h12.4l6.2-6.2l-6.2-6.2v-21.7l-12.4-6.2l-12.4,3.1
							l-3.1-9.3l3.1-3.1l-6.2-6.2l3.1-6.2l6.2-3.1l-3.1-6.2l3.1-6.2l21.7-9.3v-6.2l9.3,3.1l6.2-6.2l3.1,9.3h15.5l12.4-18.6h31
							l6.2-9.3l43.5-18.6v-6.2l-3.1-12.4l3.1-6.2h9.3l-6.2-6.2l9.3-3.1l-9.3-27.9v-15.5h3.1l-15.5-6.2l43.5-12.4l6.2,6.2h15.5v-9.3
							l-6.2-3.1l15.5-49.7l21.7,6.2h18.6l3.1,6.2l15.5-9.3l6.2-6.2l-6.2-18.6l6.2-15.5l21.7-3.1l6.2-18.6l9.3,3.1l12.4-3.1v6.2
							l-3.1,3.1l9.3,3.1l-3.1,6.2l12.4,3.1l3.1,6.2l12.4,6.2l21.7,3.1l22,27.6l3.1,12.4l-3.1,9.3v6.2l-6.2,15.5l3.1,9.3l18.6,3.1
							l46.6,3.1L86-339.3l15.5,3.1l-3.1,6.2l6.2,3.1l9.3,18.6l9.3,15.5h18.6l55.9,6.2l31-3.1l24.8,3.1l6.2,9.3l31,9.3h27.9v6.2
							l9.3,3.1l56.8-23.9h43.5l18.6-6.2l21.7-18.6l21.7-12.4l-12.4-18.6l12.4-18.6l12.4-3.1l9.3,9.3h18.6l21.7-18.6h27.9l12.4-9.3
							l9.3-15.5l18.6-3.1v-6.2h9.3l12.4-3.1l34.1,3.1l3.1-3.1v-6.2l-18.6-21.7l-12.4-12.4h-19.1l-9.3,12.4l-12.4-9.3H592l-6.2,6.2
							l-9.3-6.2v-6.2l6.2-3.1v-9.3l21.7-40.4l27.9,9.3l15.5-12.4l18.6-3.1v-9.3h-6.2l21.7-40.4l18.6-15.5l-3.1-6.2v-6.2l-15.5-3.1
							v-6.2l18.6-15.5l65.2-9.3l21.7,12.4l27.9,6.2v3.1l9.3,6.2v3.1l12.4,15.5l-3.1,3.1l12.4,21.7l-3.1,3.1l3.1-3.1v9.3l6.2,9.3
							l3.1,12.4l6.2,3.1l-3.1,12.4l9.3,9.3h18.6l9.3,6.2l9.3-3.1l18.6,18.6h9.3l-3.1,6.2l6.2,9.3l-3.1,6.2l9.3,12.4h34.1l15.5-12.4
							l9.3,3.1l21.7-12.4l6.2,6.2l-3.1,6.2l6.2,9.3l-15.5,12.4l-3.1,18.6l-3.1,6.2v6.2l-9.3,12.4v6.2l-9.3,6.2l-3.1,12.4l-27.9-9.3
							l-9.3,9.3l-12.4,6.2l9.3,21.7l-3.1,15.5l3.1,3.1l-3.1,15.5l-18.6,3.1l6.2,9.3l-9.3-9.3v-3.1l-9.3-3.1l-3.1,15.5h-9.3
							l-9.3,12.4h-21.7l6.2,12.4l-3.1,6.2l-21.7-3.1l-6.2-9.3L837-258l-12.4,18.6L796.7-227l-12.4,9.3l-6.2,9.3h-18.6l-3.1,3.1
							l-37.3,18.6l3.1,3.1l-12.4,6.2l-3.1-6.2l15.5-6.2l-3.1-3.1l3.1-3.1l-12.4-6.2h6.2v-6.2l9.3-6.2l9.3-12.4l-6.2-9.3l-18.6-3.1
							l-18.6,18.6l-21.7,9.3l-12.4,21.7l-15.5,3.1l-9.3-6.2l-9.3,15.5l3.1,9.3l9.3,6.2H654l3.1,6.2v15.5l6.2,6.2h12.4l3.1-6.2
							l18.6-15.5l21.7,12.4l12.4-3.1v3.1h9.3l3.1,6.2l-6.2,6.2h3.1v3.1h-6.2l-6.2-3.1l-9.3,6.2l-18.6,3.1l3.1,3.1l-3.1,3.1H698v6.2
							l-9.3,3.1v-6.2l-6.2,3.1l6.2,6.2l-15.5,9.3l-12.4,18.6L688.7-59l15.5,37.3l-3.1,9.3l12.4,3.1l3.1,9.3l6.2,3.1l3.1,9.3
							l-21.7-6.2L694.9,0l-9.3,3.1l-9.3-9.3l-3.1,3.1l12.4,9.3L698,3.1v3.1l24.8,15.5L726,31v3.1l-21.7,6.2l-3.5,5.3h-9.3l-6.2,3.1
							l9.3-3.1l6.2,6.2l12.4-6.2l9.3,9.3l9.3,3.1l-15.5,9.3l12.4-3.1v12.4h-3.1v-6.2l-3.1,3.1h-3.1l-3.1,3.1l6.2,3.1l-6.2,3.1
							l3.1,3.1l-9.3-3.1l6.2,6.2l3.1,9.3l-6.2,3.1l-3.1-6.2l-6.2,12.4l-9.3-3.1l6.2,3.1l-6.2,8.9l3.1,3.1l-3.1,6.2l-9.3-3.1l6.2,3.1
							l-9.3,6.2l3.1,9.3l-6.2,3.1l3.1-9.3l-3.1,6.2l-3.1-6.2l-6.2,3.1l6.2,6.2h-3.1v3.1h6.2l-12.4,9.3l-6.2-3.1l6.2,3.1h9.3
							l-3.1,6.2h-3.1l3.1,9.3l-6.2-6.2l-6.2,6.2l6.2,3.1l-3.1,3.1l-9.3-3.1l3.1,6.2l-9.3,3.1l3.1,3.1l-3.1,6.2h-9.3v-3.1l-3.1,6.2
							l-6.2-3.1l6.2,6.2L614,215.7h-6.2l-3.1,6.2h-5.8l6.2,3.1h-6.2v9.3l-15.5,3.1l-6.2-3.1v6.2l-9.3-3.1l-6.2,3.1v3.1l-6.2-3.1
							l3.1-3.1l-6.2,3.1l3.1,3.1h-9.3l3.1,3.1l-3.1,3.1l-9.3-3.1l3.1-3.1h-3.1l-6.2-6.2l-3.1-6.2l9.3-3.1l-9.3,3.1l-3.1,3.1l6.2,9.3
							v9.3l-9.3-9.3l3.1,9.3l-3.1,3.1l-3.1-3.1l-3.1,6.2l-3.1-3.1l-12.4,9.3l-9.3-6.2v3.1h-6.2l3.1,3.1l-3.1,3.1h-15.5l-12.4,9.3
							l-3.1-6.2l-3.1,12.4h3.1v6.2l3.1,3.1l-3.1,6.2h-9.3v-3.1l-6.2-12.4l6.2-12.4l-6.2-3.1l-2.7-6.7v6.2l-9.3,3.1v-3.1l-6.2-3.1
							v-3.1l-3.1,3.1l-6.2-6.2v6.2h-3.1l-3.1,3.1h-6.2l-6.2-3.1h-9.3l-15.5-9.3l-2.7-9.3l6.2-9.3l-3.1-3.1h-18.6l-12.4-9.3
							l-12.4,3.1l-3.1,9.3l-9.3,3.1l-6.2-3.1l-3.1,6.2l-6.2-6.2l-3.1,6.2l-6.2-6.2l-6.2,9.3l-12.4-9.3l-9.3,9.3l-9.3-3.1l-3.1,9.3
							l3.1,9.3l3.1,15.5h-12.4l-3.1-9.3l-3.1-6.2l-9.3,6.2l-9.3,3.1l-6.2-9.3v-6.2l-18.6-3.1l9.3-18.6L196,231l-12.4-3.1l-6.2-21.7
							l6.2-3.1l-33.7,6.7l6.2-9.3l-6.2-6.2V188l15.5-21.7h3.1l9.3-6.2l-3.1-6.2l3.1-3.1l3.1-15.5l-3.1-18.6l-6.2-3.1l-3.1,3.1
							l-3.1-15.5l-15.5-9.3l-3.1,9.3L128.2,95l-6.2,3v-6.2l6.2-6.2l-3.1-6.2l-6.2,3.1v-3.1l3.1-6.2l-6.2-6.2l-15.5,12.4L81.6,70
							l-9.3,9.3l-5.8,9.3H51L47.9,98l-12.4,3.1l-3.1,9.3H10.6v-3.1l-6.2-3.1l-6.2,3.1l-18.6-3.1l3.1-6.2h-9.3l-12.4,6.2L-54.5,122.8
							z M716.2,178.7l3.1-3.1l9.3,6.2l-3.1,3.1v9.3l-12.4,34.1l-15.5,31l-3.1-9.3l-6.2-6.2l-6.2-12.4l3.1-15.5l18.6-34.1
							L716.2,178.7z M465.7,317.9l-9.3,9.3v9.3l-9.3,9.3h-6.2l-3.1,3.1l-24.8-6.2v-18.6l15.5-12.4h-3.1l3.1-3.1l3.1,3.1l3.1-6.2
							l24.8-3.1l9.3,3.1v9.3L465.7,317.9z M710,8.4l15.5,6.2h-6.2L710,8.4z"/>
						<path fill="#ECA395" stroke="#FFFFFF" stroke-width="1" stroke-miterlimit="10" d="M437.7,735.7l-3.1,3.1l3.1,9.3
							l21.7,15.5l15.5-3.1h12.4l15.5-12.4h12.4l15.5,9.3l6.2-6.2h15.5l9.3-12.4l-3.1-6.2l9.3-6.2l-3.1-3.1l3.1-6.2l6.2-3.1l6.2-24.8
							l3.1-6.2h34.1l6.2,3.1l-3.1,3.1l9.3,9.3h-18.6l9.3,6.2l-3.1,3.1l9.3,3.1v9.3l9.3,9.3l-6.2,6.2l3.1,6.2l24.8,18.6l-3.1,6.2
							h-12.4l-9.3-9.3l3.1,9.3h-6.7l-9.3,15.5v15.5l6.2-3.1v9.3H617l-9.3,12.4l-3.1-6.2v6.2l-12.4,12.4h6.2l-3.1,6.2l6.2,3.1
							l-3.1,9.3l-3.1-3.1l-3.1,12.4l-3.1-3.1l3.1,6.2l-6.2,12.4l-31,12.4v-12.4l-6.2-6.2h-6.2l-12.4,3.1v-9.3l-6.2,3.1l-6.2-6.2
							l-9.3,9.3l-9.3-3.1l-9.3,6.2l-3.1-18.6l-6.2,6.2l-3.1-3.1l-12.4,6.2l-3.1-3.1l6.2-3.1l-9.3,6.2v-6.2l-9.3,3.1l-3.1-21.7
							l-3.1-6.2l3.1-12.4l-9.3-9.3H428v-6.2l6.7,3.1l-9.3-6.2v-15.5l-6.2-3.1v-12.4v-9.3l9.3-6.2l-6.2,6.2v-9.3L437.7,735.7z
							 M115.7,686l-15.5-15.5l-3.1-18.6h6.2l18.6,9.3h27.9l9.3,9.3l3.1,6.2l6.2,3.1v6.2l40.4,31v6.2v-3.1l3.1,6.2l3.1-6.2l3.1,9.3
							l12.4,12.4l-3.1-9.3h6.2L243,745l15.5,9.3l9.3,12.4l9.3,3.1l6.2,6.2l-12.4,6.2l-3.1-3.1l3.1,3.1l18.6-9.3l6.2,6.2l3.1,6.2
							l-12.4,6.2h6.2l-3.1,3.1h3.1l-3.1,6.2l9.3,9.3h12.4l3.1,15.5v6.2l9.3,3.1l-6.2,15.5l6.2-12.4l18.6,3.1l3.1,12.4l6.2,3.1v6.2
							l-6.2,9.3l3.1,3.1l-3.1,9.3l3.1,9.3l-3.1,31l-12.4-9.3l-3.1,6.2l-12.4-6.2l3.1,9.3h-3.1l-16-19.1l-37.3-24.8l-3.1-9.3
							l-15.5-9.3L230,840.6v-9.3l-15.5-27.9L199,781.7l-12.4-3.1l-9.3-31l3.1-3.1l-24.8-12.4l-3.1-15.5L133.9,698l-9.3-3.1
							L115.7,686z M1177.4,847v86.5l-3.1,9.3l3.1,6.2v52.8l-24.8-21.7l6.2-9.3l-6.2,6.2l-12.4,3.1l-3.1-3.1l-9.3,6.2V977l6.2-12.4
							l-12.4-9.3h15.5h-9.3l-6.2-6.2h12.4l-9.3-6.2l-6.2-6.2l-6.2-15.5l3.1-3.1l-6.2,3.1v-9.3l-12.4-6.2l-40.4-15.5h-15.5l-12.4-6.2
							v-6.2H1016V875l-12.4-6.2l3.1-12.4l-8.9,18.6l3.1,3.1l-6.2,3.1h-9.3l-3.1-9.3l6.2-3.1l-3.1-6.2l-21.7-12.4l9.3-3.1l9.3,6.2
							l12.4-12.4l9.3,3.1v6.2l6.2-9.3v-3.1h-3.1l3.1-3.1l-6.2,3.1h-31l-6.2-3.1l-3.1-9.3l-21.7-6.2l6.2-9.3V804l12.4-3.1l15.5-6.2
							l21.7,9.3h15.5l6.2,12.4l-6.2,9.3l3.1,6.2v9.3l6.2,12.4v-9.8h6.2l3.1,18.6l12.4,3.1l12.4-9.3l12.4-18.6l18.6-3.1v-6.2
							l15.5-9.3l46.6,21.7h9.3l12.4,3.1v3.1L1177.4,847L1177.4,847z M750.4,766.7l6.2-3.1l18.6,3.1l15.5-9.3v-3.1l9.3-9.3l6.2,6.2
							L784.5,776l-15.5,3.1h-9.3l-6.2-6.2l-31,3.1l-3.1-3.1L707,776l-12.4-3.1l-6.2,3.1l-6.2,15.5l3.1,9.3l9.3,6.2l3.1,12.4h9.3
							l12.4-15.5l9.3,3.1l6.2-3.1h15.5l-3.1-3.1l6.2-3.1l9.3,3.1l-3.1,9.3l-3.1-3.1h-9.3l-9.3,12.4l-12.4,6.2l-3.1,6.2l-9.3-3.1v3.1
							l9.3,6.2l12.4,15.5v3.1l6.2,3.1l-3.1,3.1l-3.1,6.2l9.3,9.3v6.2l6.2-3.1v9.3l-18.6,3.1v6.2h-3.1l-12.4-3.1l3.1-15.5L703.9,869
							l3.1-9.3v-9.3l-6.2-3.1l-15.5,9.3l6.2,6.2v34.1l-3.1,9.3l3.1,12.4l-3.1-3.1l-15.5,6.2l-6.2-9.3l6.2-24.8l-3.1-18.6l-6.2-3.1
							l-6.2,3.1l-3.1-15.5l-3.1-3.1l9.3-6.2l3.1-12.4h3.1v-15.5l3.1-9.3l6.2-6.2l3.1,6.2l-3.1-18.6l-3.1-3.1l3.1,3.1v-9.3l12.4-15.5
							l6.2,3.1l6.2-12.4h3.1l15.5,6.2h21.7L750.4,766.7z M373,930.8l3.1-6.2l6.2,3.1l6.2,6.2h15.1l12.4,12.4l37.3,3.1l9.3-12.4h3.1
							l6.2,6.2h9.3l12.4,6.2H506v6.2h6.2v9.3l12.4,6.2l15.5-6.2l9.3,6.2v15.5l3.1,6.2l-31-12.4l-12.4,6.2l-21.7-6.2l-3.1,3.1
							L428.4,968l-24.8,3.1l-18.6-9.3l-24.8-3.1l3.1-9.3l-31-3.1h6.2l12.4-21.7L373,930.8z M867.9,794.7l-6.2-3.1l-3.1-21.7l3.1-6.2
							l-6.2-6.2l6.2-15.5l9.3-9.3l-3.1,6.2l3.1,6.2v9.3l-9.3,9.3l6.2,3.1l6.2-9.3v-6.2l12.4-3.1v12.4l-9.3,6.2l9.3,6.2v3.1l6.2,3.1
							l-24.8-3.1v9.3l12.4,21.7l-9.3-6.2L867.9,794.7z M867.9,868.7v-9.3l6.2-6.2l24.8,3.1l9.3-6.2l18.6,6.2l12.4,12.4v9.3
							l-24.8-15.5h-9.3v6.2l-12.4-3.1v-3.1l-12.4,3.1l-6.2-9.3L867.9,868.7z M632.8,992.5l9.3-3.1l-15.5-9.3l6.2-3.1l9.3,6.2h6.2
							l3.1,3.1v-3.1h6.2l3.1,9.3h-9.3l6.2,3.1h-12.4v-6.2l-6.2,6.2l-18.6,3.1l-9.3,3.1l-6.2-3.1v-9.3l9.3-6.2h9.3L632.8,992.5z
							 M787.6,1001.8l12.4-3.1h3.1l-3.1,6.2l3.1,3.1l-15.5,18.6l-21.7,6.2l-3.1-6.2l9.3-3.1h-6.2l3.1-9.3l9.3-6.2h6.2L787.6,1001.8z
							 M747.3,989.4l-40.4,9.3l-12.4-6.2l-15.5,3.1l-3.1-3.1l3.1-6.2l15.5-6.2l21.7,9.3l12.4-3.1l6.2,3.1l15.5-9.3h-3.1l3.1-3.1
							l3.1,6.2l-6.2,3.1L747.3,989.4L747.3,989.4z M354.3,853.2l-6.2-3.1l-3.1-12.4l-15.5-3.1l9.3-12.4h3.1l3.1,6.2v-6.2h6.2
							l6.2,18.6l12.4,6.2l-6.2,6.2l3.1,6.2L354.3,853.2z M1122,958.8l3.1,3.1l6.2,3.1l-3.1,12.4l-12.4,6.2l-15.5,3.1l6.2-21.7
							L1122,958.8z M663.9,1017.3l-6.2-6.2v-3.1l21.7-3.1l21.7,18.6l-3.1,3.1l-12.4,3.1l-12.4-12.4L663.9,1017.3L663.9,1017.3z
							 M827.5,859.4h18.6l3.1,6.2h3.1v6.2l-12.4,3.1h-3.1l-12.4-9.3L827.5,859.4z M552.1,977l12.4,3.1l3.1-3.1l12.4,6.2l-15.5,12.4
							l3.1-6.2l-12.4-6.2L552.1,977z M747.3,909.1l3.1-15.5l3.1-3.1l3.1,9.3l-3.1-3.1v9.3l3.1,3.1l-12.4,9.3l-3.1-3.1L747.3,909.1z
							 M595.6,980.1l9.3,3.1l-3.1,12.4h-18.6l6.2-3.1v-9.3L595.6,980.1z M156.1,773l-15.5-21.7h9.3l9.3,9.3L156.1,773z M388,850.1
							l3.1-3.1l3.1-3.1l9.3,9.3l-3.1,9.3l-6.2-6.2l-6.2,6.2L388,850.1L388,850.1z M193.4,825.3l-3.1-3.1l-3.1,6.2l-6.2-3.1
							l-6.2-12.4l3.1-6.2h6.2L193.4,825.3z M957.9,952.6V965l-9.3,9.3h-3.1l3.1-12.4L957.9,952.6z M515.3,949.5h27.9l-21.7,6.2
							h-12.4L515.3,949.5z M936.2,785.4l9.3,3.1l3.1,3.1l-6.2,3.1l-9.3-6.2l6.2,6.2H930l-6.2-3.1L936.2,785.4z M744.2,909.1v3.1
							h-9.3l3.1-15.5l6.2-3.1V909.1L744.2,909.1z M787.6,825.3h18.6v3.1l-21.7,3.1L787.6,825.3z M821.8,967.6l15.5-3.1l6.2,3.1
							l-24.8,6.2L821.8,967.6z M1047.5,800.9h9.3l12.4,12.4h-12.4l-3.1-9.3h-6.2L1047.5,800.9L1047.5,800.9z M1016.5,930.8l9.3,9.3
							l-9.3,9.3l-3.1-3.1L1016.5,930.8z M858.6,819.1l6.2-3.1l9.3,9.3h-15.5l-3.1-3.1L858.6,819.1z M858.6,791.6l3.1,6.2v3.1
							l6.2,3.1l-3.1,3.1l-6.2-3.1l-3.1-6.2v-3.1L858.6,791.6z M787.6,977h15.5v6.2l-18.6,3.1L787.6,977z M765.9,816.4l-9.3,6.2v-6.2
							l-6.2,6.2l-3.1-3.1l3.1-6.2h6.2v6.2l6.2-6.2L765.9,816.4z M1025.8,927.7h-6.2l3.1-6.2h-6.2h3.1l6.2-6.2h3.1v12.4H1025.8
							L1025.8,927.7z M926.9,825.3v6.2l-6.2,3.1l-9.3-6.2L926.9,825.3z M592.5,862.5l3.1,15.5l-6.2,3.1l-3.1-9.3L592.5,862.5z
							 M877.2,738.8v-9.3l6.2-6.2l3.1,9.3L877.2,738.8z M750.4,1042.1l12.4-9.3v6.2l-6.2,3.1l-6.2,3.1V1042.1L750.4,1042.1z
							 M400.5,695.3l-3.1-6.2l6.2-3.1l3.1,6.2v6.2h-6.2l3.1-3.1L400.5,695.3L400.5,695.3z M1047.5,822.2l34.1,6.2h-15.5
							L1047.5,822.2z M942.4,807.1v6.2l-3.1,3.1l-6.2-9.3H942.4L942.4,807.1z M1025.8,927.7l6.2,3.1l-6.2,6.2l-6.2-6.2l3.1-3.1
							H1025.8z M279.8,766.7h-12.4v-9.3L279.8,766.7z M762.8,989.4l-6.2-3.1l6.2-3.1v-3.1l3.1,3.1l6.2-3.1h3.1L762.8,989.4z
							 M125.1,729.5l-18.6-12.4h6.2L125.1,729.5z M251.9,738.8l-6.2,6.2l-3.1-6.2l6.2-3.1L251.9,738.8z M320.2,760.5l-3.1,6.2
							l-9.3-6.2l6.2-3.1L320.2,760.5z M809.3,828.4H831l-18.6,3.1L809.3,828.4z M326.4,794.7l-12.4-3.1l3.1-6.2L326.4,794.7z
							 M440.8,810.2v3.1l-9.3,3.1l3.1-9.3L440.8,810.2z M775.2,983.2l9.3-3.1l-6.2,6.2h-3.1V983.2L775.2,983.2z M314,794.7l3.1,3.1
							l-3.1,3.1l-6.2-3.1L314,794.7z M267.4,757.4l-3.1,6.2l-3.1-12.4L267.4,757.4z M839.9,692.2v-15.5l6.2,6.2L839.9,692.2z
							 M267.4,751.2v3.1l-12.4-6.2L267.4,751.2z M218.2,862.5l-6.2-12.4l9.3,6.2L218.2,862.5z M282.9,763.6l-12.4-3.1l6.2-3.1
							L282.9,763.6z M753.5,878.1l6.2,3.1l-3.1,3.1l-6.2-3.1L753.5,878.1z M1127.8,980.1v3.1h-5.8L1127.8,980.1z M215.1,850.1
							l-6.2,3.1v-9.3L215.1,850.1z M871,868.7h9.3l-6.2,6.2v-3.1l-6.2,3.1L871,868.7z M728.6,906v9.3l-3.1-6.2L728.6,906z
							 M852.4,791.6v6.2h-3.1v-6.2H852.4z M821.8,831.5l3.1,12.4l-3.1-9.3V831.5z M205.8,840.8l-6.2-3.1v-6.2L205.8,840.8z
							 M1022.7,933.9l3.1,3.1v3.1l-6.2-3.1L1022.7,933.9z M936.2,983.2l6.2-6.2h3.1L936.2,983.2z M908.2,970.7h6.2l-3.1,6.2
							L908.2,970.7z M570.8,946.4l6.2,3.1l-6.2,3.1V946.4z M174.7,797.8h-6.2l3.1-6.2L174.7,797.8z M623.5,983.2v-3.1l3.1-3.1
							L623.5,983.2z M1016.5,927.7l3.1,6.2l-3.1-3.1V927.7z M864.8,977l9.3,3.1H871L864.8,977z M307.8,757.4l-3.1,3.1h-3.1
							L307.8,757.4z M753.5,980.1h6.2l-6.2,3.1V980.1z M264.3,915.3l-6.2-3.1h6.2V915.3z M632.8,686v3.1l-6.2-3.1H632.8z
							 M722.4,1035.9l6.2-3.1l-3.1,3.1H722.4z M982.3,918.4v9.3l-3.1-9.3H982.3z"/>
					</g>
				</g>
			</g>
		</g>
	</g>
</g>
</svg>
