<svg xmlns="http://www.w3.org/2000/svg" viewBox="0 0 14.37 45.44"><defs><style>.cls-1{fill:#d8472b;}</style></defs><title>person-red</title><g id="Layer_2" data-name="Layer 2"><g id="people"><path class="cls-1" d="M7,.2S9.18-1,10.57,2.54a3,3,0,0,1-.44,3.23l-.7.76a2.52,2.52,0,0,0,2,1s2.09.63,2.09,1.46l.89,5.19-.51.44a5.06,5.06,0,0,0-.06,1.9,40.12,40.12,0,0,1,.06,5.88l-.25,2.92-1.39,2-.64-.25.83-1.9.12-1.9.32-.5-1.08-6.27L12,22.41a54.23,54.23,0,0,1-1.77,10.45S11.46,34,10,41.28l.32,2-.25,1.56a2.2,2.2,0,0,1-2.77.28v-.89l.3-.95L6.39,44.8s-2,.34-2.21-.29v-.89l1.9-2.21s-1.84-5.95-1.9-8.49V31.66l-1.71-6.4-.25-1V20.33l-.89,2.39a15,15,0,0,1,0,2.61l.76,1.33L1,26.85,0,25l.25-2.6,1.27-5.5L2,14.5l-1-.25A47.5,47.5,0,0,0,2.28,9.31c0-.69,1.39-1.64,1.77-1.58L6,7.1,5.89,5.83S4.24,5,5.32,2.1C5.32,2.1,5.78.36,7,.2Z"/></g></g></svg>