<svg xmlns="http://www.w3.org/2000/svg" viewBox="0 0 11.05 45.44"><defs><style>.cls-1{fill:gray;}</style></defs><title>person-5</title><g id="Layer_2" data-name="Layer 2"><g id="people"><path class="cls-1" d="M11,13.39l-.64-.92-.81-1.61L8,7.52,6.68,7,5.59,6.31l.23-.64c.58-2.42-.29-3.34-.29-3.34C5.13-.67,2.71.08,2.71.08.86.66.81,2,.81,2l.4,1.56L2.42,5l.52.57L2.19,7.17.29,8,0,9.65.4,11l.81,1.5.06.57L2,14.89s0,1.33-.23,1.44-.52,1.27-.52,1.27L.4,21.34A8,8,0,0,0,1.09,24l.29,2.42.06,4.73c-1,3.17-.4,4.78-.4,4.78l1.09,4.3A2,2,0,0,0,1,41.63l.69,2.53v-1l.69,1.9.29-1.55C3.05,43.47,4,45.44,4,45.44H6.57L6.88,45,6.4,44l-.87-.35L4.39,41.39l.28-1.49c0-.58,3-4.9,3-4.9l1-1.84a4,4,0,0,0,1.21-1.85l-.17-1.78L9.16,25.2l-.86-4H9.74l-.58-3.11V15.93l1.5-.75C11.24,14.66,11,13.39,11,13.39Zm-6.42,21-.73,2.07L4.09,32l.5-.8,1.92.19S4.32,33.92,4.59,34.35Z"/></g></g></svg>