<svg xmlns="http://www.w3.org/2000/svg" viewBox="0 0 20.6 45.44"><defs><style>.cls-1{fill:#ccc;}</style></defs><title>person-2</title><g id="Layer_2" data-name="Layer 2"><g id="people"><path class="cls-1" d="M20.6,13.87l-.36-1.5L17.53,9.6c-.72-1.33-3.19-2-3.19-2l-1.51-.24V4.06c-.18-4.58-2.59-4-2.59-4A2.3,2.3,0,0,0,8.43.8a4.32,4.32,0,0,0-1,3L8.13,7l-.42.36L6,7.49a8.19,8.19,0,0,0-3.61,2.77L.48,12.67,0,14.84c-.06.48,4,3.07,4,3.07H5.42c-1.08,1.14-1,4.81-1,4.81l.24,6.82-.06,1.92c-.72.12-1.69,6.87-1.69,6.87l-.48,1L2.65,41l-.48,3.49.9.91,1.39-.59V41.34l.66-1.87v-.54c3.07-4.76,3.19-6.62,3.19-6.62L9,31.16,10,29.11v1.57h0c-.78.48.62,6.69.62,6.69l-.36.84.24,1,.24,1.75-.24,1.87.18,1.38c.79,1.69,2.17-.3,2.17-.3l.06-1.32-.36-1.39.48-.9V38.33c1.39-5,.84-7.23.84-7.23l.43-1,1.92-4.94a22.52,22.52,0,0,0,.85-2.71c.54-2.29-.79-5.12-.79-5.12l1.39-.54ZM5.84,16.16H5.36c-.6,0-2.05-1.62-2.05-1.62l1.75-2,1.08,2,.43,1Zm10.06-.84a1.06,1.06,0,0,1-1-.6V13.57l.78-1L17.53,14S16.63,15.26,15.9,15.32Z"/></g></g></svg>