<svg xmlns="http://www.w3.org/2000/svg" viewBox="0 0 14.24 45.44"><defs><style>.cls-1{fill:#ccc;}</style></defs><title>person-4</title><g id="Layer_2" data-name="Layer 2"><g id="people"><path class="cls-1" d="M4.87.88S6.48-.92,8,.62a2.15,2.15,0,0,1,.9,2.31L8.59,5.24,7.89,6v.9l3,1.41s.39.13.58,1.22l1,5.51.26,3.47L13,22.43l-.39.26s-.38.06-.19.38a3.35,3.35,0,0,1,.26,1l-1,1.22-.64-.4-.7,7.39L10,35.52l-.2,1,.45,1.28-.13,2.57,1.54,2L13,42.7h1.28v.45L13,43.73H10.84L9.56,43l-.32.25a3,3,0,0,1-1.86-.06l.06-.71-.26-.38.2-1.28-.32-2V36.86l-.13-5.45-.26-3.78-.58,1.22-.77,3.78-.45,3.08v3.65l-.25,3v1.35l.51.83L5,45.37s-.61.34-2.58-.49V43.66l-.3-1.22-.39-.57V40.78l-.45-3.47.77-4.74.37-4.37V25.45L2,24.92l-.07-1.4-.64-.8-1-6.9L0,13.77V11L1.09,8.13,3.59,7,4.87,5.75,4.68,4.47S3.72,2.36,4.87.88Z"/></g></g></svg>