<svg xmlns="http://www.w3.org/2000/svg" viewBox="0 0 17.15 45.44"><defs><style>.cls-1{fill:#ccc;}</style></defs><title>person-3</title><g id="Layer_2" data-name="Layer 2"><g id="people"><path class="cls-1" d="M8.09.05s2.82-.4,3.66,1.12c0,0,.62,3.21-.79,4.5l.06.51,1.12,1.23,3,1s.51.39.62,1.86l1.35,3.65v2.2a3.06,3.06,0,0,1-2.92,1.85l.56,5.29-.51.34-.9,3.37s-.45,3.09-.5,3.26-.26.85-.26.85.76,1.23,0,4.22l-.25,1.46-.23,2.14.74,2.3v1.46s-1.3,1.18-2.25,0l-.85-2.47-.11-1.41-.17-.56S8.71,33,9.39,32.05a21.2,21.2,0,0,1-1-4.11l-1,3.55s-.11,1.12-.56,1.29c0,0,.34,2-1.12,6.24v4.13s.22.26-1.92,1.05l-.5.79a3.55,3.55,0,0,1-2.81.22v-.84l1.46-1.69,1-1.8-.11-1.07L3,38.69a16.64,16.64,0,0,1,.11-5.8L3,30.7l-.17-5.29L1.18,24.12l-.4-1.47-.73-3,.34-1S-1,17.48,1.51,10.9L2.92,7.47,7,5.78A5,5,0,0,1,7,3.25Z"/></g></g></svg>