<svg xmlns="http://www.w3.org/2000/svg" viewBox="0 0 16.73 45.44"><defs><style>.cls-1{fill:#ccc;}</style></defs><title>person-1</title><g id="Layer_2" data-name="Layer 2"><g id="people"><path class="cls-1" d="M10.46.47,11,0s4,2.11,1.29,5l-.44.24-.32,1.46.7.93,2.51,1.52.41.3,1.35,5.2v1.52l.23,1.23-.29.88.29.87-.29,2.52-.88.47h-.41l-.7,5.32-.06,1.46L14,30l-.05,4.21-.34,4.39v2.34l-1.24.29v.64l.7,1.23.54,1.58s-1,1.58-2.88,0l-.25-.82.31-2.69-.31-.23.37-7.08.41-1-.12-.82-.29-2.28-.06-1.72-.65-3.14-.93,1.93-.64,1.21a8,8,0,0,1-1.17,3L6.62,33,6,34.56l-1.7,7.2-1.05-.18s1,2.17.65,2.75l-.65.29s.24,1.12-3.21.74c0,0-.41-.33.81-2.14l.65-1.11.23-1,.18-2.58.64-3.27.7-1.87.65-1.58L4.28,30l.23-3.16.59-1.93V23.57l-1-.85L3.69,21l-.52-2.58V17l.23-3.39L4,9,5.56,8,7.73,7l.87-.47.18-1.34-.41-.59s-.71-2,0-3.1C8.37,1.52,9.44,0,10.46.47Z"/></g></g></svg>