<?xml version="1.0" encoding="UTF-8"?>
<svg width="1529px" height="297px" viewBox="0 0 1529 297" version="1.1" xmlns="http://www.w3.org/2000/svg" xmlns:xlink="http://www.w3.org/1999/xlink">
    <!-- Generator: Sketch 42 (36781) - http://www.bohemiancoding.com/sketch -->
    <title>Slice 1</title>
    <desc>Created with Sketch.</desc>
    <defs>
        <circle id="path-1" cx="1358.5" cy="148.5" r="148.5"></circle>
        <mask id="mask-2" maskContentUnits="userSpaceOnUse" maskUnits="objectBoundingBox" x="0" y="0" width="297" height="297" fill="white">
            <use xlink:href="#path-1"></use>
        </mask>
    </defs>
    <g id="Page-1" stroke="none" stroke-width="1" fill="none" fill-rule="evenodd">
        <circle id="Oval" fill="#23525E" cx="148.5" cy="148.5" r="148.5"></circle>
        <path d="M251,106.340067 C251,109.482604 249.892043,112.15376 247.676129,114.353535 L161.730323,199.673401 L145.585806,215.700337 C143.369892,217.900112 140.67914,219 137.513548,219 C134.347957,219 131.657204,217.900112 129.44129,215.700337 L113.296774,199.673401 L70.323871,157.013468 C68.107957,154.813692 67,152.142536 67,149 C67,145.857464 68.107957,143.186308 70.323871,140.986532 L86.4683871,124.959596 C88.6843011,122.75982 91.3750538,121.659933 94.5406452,121.659933 C97.7062366,121.659933 100.396989,122.75982 102.612903,124.959596 L137.513548,159.723906 L215.387097,82.2996633 C217.603011,80.0998878 220.293763,79 223.459355,79 C226.624946,79 229.315699,80.0998878 231.531613,82.2996633 L247.676129,98.3265993 C249.892043,100.526375 251,103.197531 251,106.340067 Z" id="Shape" fill="#FFFFFF" fill-rule="nonzero"></path>
        <circle id="Oval" fill="#78A2A5" cx="546" cy="148.5" r="148.5"></circle>
        <path d="M648,106.340067 C648,109.482604 646.892043,112.15376 644.676129,114.353535 L558.730323,199.673401 L542.585806,215.700337 C540.369892,217.900112 537.67914,219 534.513548,219 C531.347957,219 528.657204,217.900112 526.44129,215.700337 L510.296774,199.673401 L467.323871,157.013468 C465.107957,154.813692 464,152.142536 464,149 C464,145.857464 465.107957,143.186308 467.323871,140.986532 L483.468387,124.959596 C485.684301,122.75982 488.375054,121.659933 491.540645,121.659933 C494.706237,121.659933 497.396989,122.75982 499.612903,124.959596 L534.513548,159.723906 L612.387097,82.2996633 C614.603011,80.0998878 617.293763,79 620.459355,79 C623.624946,79 626.315699,80.0998878 628.531613,82.2996633 L644.676129,98.3265993 C646.892043,100.526375 648,103.197531 648,106.340067 Z" id="Shape" fill="#FFFFFF" fill-rule="nonzero"></path>
        <circle id="Oval" fill="#DB461A" cx="943.5" cy="148.5" r="148.5"></circle>
        <use id="Oval" stroke="#D4D4D4" mask="url(#mask-2)" stroke-width="128" xlink:href="#path-1"></use>
        <path d="M1046,106.340067 C1046,109.482604 1044.89204,112.15376 1042.67613,114.353535 L956.730323,199.673401 L940.585806,215.700337 C938.369892,217.900112 935.67914,219 932.513548,219 C929.347957,219 926.657204,217.900112 924.44129,215.700337 L908.296774,199.673401 L865.323871,157.013468 C863.107957,154.813692 862,152.142536 862,149 C862,145.857464 863.107957,143.186308 865.323871,140.986532 L881.468387,124.959596 C883.684301,122.75982 886.375054,121.659933 889.540645,121.659933 C892.706237,121.659933 895.396989,122.75982 897.612903,124.959596 L932.513548,159.723906 L1010.3871,82.2996633 C1012.60301,80.0998878 1015.29376,79 1018.45935,79 C1021.62495,79 1024.3157,80.0998878 1026.53161,82.2996633 L1042.67613,98.3265993 C1044.89204,100.526375 1046,103.197531 1046,106.340067 Z" id="Shape" fill="#FFFFFF" fill-rule="nonzero"></path>
    </g>
</svg>