<?xml version="1.0" encoding="utf-8"?>
<!-- Generator: Adobe Illustrator 24.0.3, SVG Export Plug-In . SVG Version: 6.00 Build 0)  -->
<svg version="1.1" id="Layer_1" xmlns="http://www.w3.org/2000/svg" xmlns:xlink="http://www.w3.org/1999/xlink" x="0px" y="0px"
	 viewBox="0 0 183 88" style="enable-background:new 0 0 183 88;" xml:space="preserve">
<style type="text/css">
	.st0{fill:#D62021;}
	.st1{fill:#237BBD;}
</style>
<g>
	<rect x="96" y="63.9" class="st0" width="85" height="21.8"/>
	<rect x="96" y="2.2" class="st0" width="85" height="21.8"/>
	<rect x="96" y="32.9" class="st0" width="85" height="21.8"/>
	<g>
		<path class="st1" d="M67.9,1.2c-20.2,0-22.5,12-22.5,20.9c0,9.8,2.6,20.9,22.5,20.9c20.4,0,22.8-11.9,22.8-20.9
			C90.7,13.2,88.3,1.2,67.9,1.2z M73.7,23c0,3.5,0,6.2-1.4,7.6c-0.8,0.8-2.3,1.2-4.4,1.2c-3.4,0-4.3-1.1-4.8-2.3
			c-0.7-1.6-0.7-4.1-0.7-7v-0.8c0-2.8,0-5.3,0.7-6.9c0.5-1.1,1.5-2.3,4.8-2.3c2.1,0,3.5,0.4,4.3,1.3c1.4,1.4,1.4,4.2,1.4,7.6l0,0.8
			L73.7,23z"/>
		<g>
			<path class="st1" d="M43.5,31.5H18.4c0.2-1.1,4.5-2.4,7.6-3.4c7.1-2.2,16.8-5.2,17.5-12.7c0.3-3.3-0.6-6.2-2.7-8.5
				c-3.4-3.7-9.4-5.6-18-5.6C8.9,1.2,2.2,6.4,2.2,17v1h16v-1c0-4.6,1.4-5.1,4.5-5.1c1.8,0,3.2,0.4,3.8,1.2c0.4,0.5,0.5,1.2,0.3,2.2
				c-0.3,1.7-4,2.8-7.9,3.9c-7.1,2-16.8,4.8-16.8,14.5V43h41.5V31.5z"/>
		</g>
		<path class="st1" d="M67.9,44.8c-20.2,0-22.5,12-22.5,20.9c0,9.8,2.6,20.9,22.5,20.9c20.4,0,22.8-11.9,22.8-20.9
			C90.7,56.8,88.3,44.8,67.9,44.8z M73.7,66.6c0,3.5,0,6.2-1.4,7.6c-0.8,0.8-2.3,1.2-4.4,1.2c-3.4,0-4.3-1.1-4.8-2.3
			c-0.7-1.6-0.7-4.1-0.7-7v-0.8c0-2.8,0-5.3,0.7-6.9c0.5-1.1,1.5-2.3,4.8-2.3c2.1,0,3.5,0.4,4.3,1.3c1.4,1.4,1.4,4.2,1.4,7.6l0,0.8
			L73.7,66.6z"/>
		<g>
			<path class="st1" d="M43.5,75H18.4c0.2-1.1,4.5-2.4,7.6-3.4c7.1-2.2,16.8-5.2,17.5-12.7c0.3-3.3-0.6-6.2-2.7-8.5
				c-3.4-3.7-9.4-5.6-18-5.6c-14,0-20.7,5.1-20.7,15.7v1h16v-1c0-4.6,1.4-5.1,4.5-5.1c1.8,0,3.2,0.4,3.8,1.2
				c0.4,0.5,0.5,1.2,0.3,2.2c-0.3,1.7-4,2.8-7.9,3.9c-7.1,2-16.8,4.8-16.8,14.5v9.3h41.5V75z"/>
		</g>
	</g>
</g>
</svg>
