<?xml version="1.0" encoding="utf-8"?>
<!-- Generator: Adobe Illustrator 24.0.3, SVG Export Plug-In . SVG Version: 6.00 Build 0)  -->
<svg version="1.1" id="Layer_1" xmlns="http://www.w3.org/2000/svg" xmlns:xlink="http://www.w3.org/1999/xlink" x="0px" y="0px"
	 viewBox="0 0 7 7" style="enable-background:new 0 0 7 7;" xml:space="preserve">
<style type="text/css">
	.st0{fill:#EEEEEE;}
	.st1{fill:none;}
	.st2{fill:#666666;}
	.st3{fill:#FFFFFF;}
</style>
<rect x="0.2" y="0.2" class="st0" width="6.6" height="6.6"/>
<rect x="0.1" y="0.1" class="st1" width="6.8" height="6.8"/>
<text transform="matrix(1 0 0 1 0.1024 21.5812)" style="font-family:'HelveticaNeue-Bold'; font-size:5px;">Created by Vector Valley</text>
<text transform="matrix(1 0 0 1 0.1024 26.5812)" style="font-family:'HelveticaNeue-Bold'; font-size:5px;">from the Noun Project</text>
<g>
	<path class="st2" d="M3.5,1.6c0.3,0,0.6,0.1,0.9,0.4c0.2,0.2,0.4,0.5,0.4,0.9c0,0.3-0.1,0.6-0.4,0.9C4.1,3.9,3.8,4,3.5,4
		S2.9,3.9,2.6,3.7C2.4,3.5,2.3,3.2,2.3,2.8c0-0.3,0.1-0.6,0.4-0.9C2.9,1.8,3.2,1.6,3.5,1.6z"/>
	<path class="st2" d="M2.5,4.5h2c0.4,0,0.8,0.2,1,0.4C5.8,5.1,6,5.5,6,5.9v0.8c0,0,0,0.1-0.1,0.1H1.1c0,0-0.1,0-0.1-0.1V5.9
		c0-0.4,0.2-0.8,0.4-1C1.7,4.6,2.1,4.5,2.5,4.5z"/>
</g>
<g>
	<path class="st3" d="M3.5,0.2H0.2v3.3C0.2,1.6,1.6,0.2,3.5,0.2z"/>
	<path class="st3" d="M3.5,0.2c1.8,0,3.3,1.5,3.3,3.3c0,1.8-1.5,3.3-3.3,3.3c-1.8,0-3.3-1.5-3.3-3.3v3.4h6.6V0.2H3.5z"/>
</g>
</svg>
