<?xml version="1.0" encoding="utf-8"?>
<!-- Generator: Adobe Illustrator 25.1.0, SVG Export Plug-In . SVG Version: 6.00 Build 0)  -->
<svg version="1.1" id="Layer_1" xmlns="http://www.w3.org/2000/svg" xmlns:xlink="http://www.w3.org/1999/xlink" x="0px" y="0px"
	 viewBox="0 0 714 504" style="enable-background:new 0 0 714 504;" xml:space="preserve" class="map new_election active">
<style type="text/css">
	.st0{font-family:'ArialMT';}
	.st1{font-size:12px;}
</style>
<g id="al">
	<text transform="matrix(1 0 0 1 -8.9318 7.177734e-02)" class="st0 st1">AL</text>
	<rect x="350" y="364" width="14" height="14"/>
	<rect x="364" y="364" width="14" height="14"/>
	<rect x="364" y="350" width="14" height="14"/>
	<rect x="350" y="378" width="14" height="14"/>
	<rect x="350" y="350" width="14" height="14"/>
	<rect x="364" y="378" width="14" height="14"/>
	<rect x="364" y="392" width="14" height="14"/>
	<rect x="350" y="392" width="14" height="14"/>
	<rect x="350" y="406" width="14" height="14"/>
</g>
<g id="ak">
	<text transform="matrix(1 0 0 1 -8.9318 7.177734e-02)" class="st0 st1">AK</text>
	<rect width="14" height="14"/>
	<rect x="14" width="14" height="14"/>
	<rect x="14" y="14" width="14" height="14"/>
</g>
<g id="az">
	<text transform="matrix(1 0 0 1 -8.9318 7.177734e-02)" class="st0 st1">AZ</text>
	<rect x="112" y="322" width="14" height="14"/>
	<rect x="112" y="308" width="14" height="14"/>
	<rect x="98" y="322" width="14" height="14"/>
	<rect x="98" y="308" width="14" height="14"/>
	<rect x="98" y="294" width="14" height="14"/>
	<rect x="84" y="322" width="14" height="14"/>
	<rect x="84" y="308" width="14" height="14"/>
	<rect x="84" y="294" width="14" height="14"/>
	<rect x="112" y="294" width="14" height="14"/>
	<rect x="98" y="336" width="14" height="14"/>
	<rect x="112" y="336" width="14" height="14"/>
</g>
<g id="ar">
	<text transform="matrix(1 0 0 1 -8.9318 7.177734e-02)" class="st0 st1">AR</text>
	<rect x="266" y="336" width="14" height="14"/>
	<rect x="280" y="336" width="14" height="14"/>
	<rect x="266" y="322" width="14" height="14"/>
	<rect x="280" y="322" width="14" height="14"/>
	<rect x="266" y="308" width="14" height="14"/>
	<rect x="280" y="308" width="14" height="14"/>
</g>
<g id="ca">
	<text transform="matrix(1 0 0 1 -8.9318 7.177734e-02)" class="st0 st1">CA</text>
	<rect x="56" y="364" width="14" height="14"/>
	<rect x="56" y="350" width="14" height="14"/>
	<rect x="42" y="364" width="14" height="14"/>
	<rect x="42" y="350" width="14" height="14"/>
	<rect x="42" y="336" width="14" height="14"/>
	<rect x="28" y="364" width="14" height="14"/>
	<rect x="28" y="350" width="14" height="14"/>
	<rect x="28" y="336" width="14" height="14"/>
	<rect y="350" width="14" height="14"/>
	<rect x="28" y="196" width="14" height="14"/>
	<rect x="14" y="196" width="14" height="14"/>
	<rect y="196" width="14" height="14"/>
	<rect x="28" y="322" width="14" height="14"/>
	<rect x="28" y="308" width="14" height="14"/>
	<rect x="28" y="294" width="14" height="14"/>
	<rect y="336" width="14" height="14"/>
	<rect y="322" width="14" height="14"/>
	<rect y="308" width="14" height="14"/>
	<rect x="28" y="210" width="14" height="14"/>
	<rect x="14" y="210" width="14" height="14"/>
	<rect y="210" width="14" height="14"/>
	<rect x="28" y="280" width="14" height="14"/>
	<rect x="28" y="266" width="14" height="14"/>
	<rect x="28" y="252" width="14" height="14"/>
	<rect y="294" width="14" height="14"/>
	<rect x="70" y="364" width="14" height="14"/>
	<rect x="70" y="378" width="14" height="14"/>
	<rect x="28" y="224" width="14" height="14"/>
	<rect y="224" width="14" height="14"/>
	<rect y="280" width="14" height="14"/>
	<rect x="28" y="238" width="14" height="14"/>
	<rect x="14" y="224" width="14" height="14"/>
	<rect y="266" width="14" height="14"/>
	<rect x="70" y="392" width="14" height="14"/>
	<rect x="14" y="364" width="14" height="14"/>
	<rect x="14" y="350" width="14" height="14"/>
	<rect x="14" y="336" width="14" height="14"/>
	<rect x="14" y="322" width="14" height="14"/>
	<rect x="14" y="308" width="14" height="14"/>
	<rect x="14" y="294" width="14" height="14"/>
	<rect x="14" y="280" width="14" height="14"/>
	<rect x="14" y="266" width="14" height="14"/>
	<rect x="14" y="252" width="14" height="14"/>
	<rect x="14" y="238" width="14" height="14"/>
	<rect y="238" width="14" height="14"/>
	<rect y="252" width="14" height="14"/>
	<rect x="56" y="406" width="14" height="14"/>
	<rect x="70" y="406" width="14" height="14"/>
	<rect x="56" y="392" width="14" height="14"/>
	<rect x="56" y="378" width="14" height="14"/>
	<rect x="42" y="378" width="14" height="14"/>
	<rect x="28" y="378" width="14" height="14"/>
	<rect x="84" y="378" width="14" height="14"/>
	<rect x="84" y="392" width="14" height="14"/>
	<rect x="84" y="406" width="14" height="14"/>
</g>
<g id="co">
	<text transform="matrix(1 0 0 1 -8.9318 7.177734e-02)" class="st0 st1">CO</text>
	<rect x="140" y="238" width="14" height="14"/>
	<rect x="154" y="238" width="14" height="14"/>
	<rect x="168" y="238" width="14" height="14"/>
	<rect x="140" y="252" width="14" height="14"/>
	<rect x="154" y="252" width="14" height="14"/>
	<rect x="140" y="266" width="14" height="14"/>
	<rect x="154" y="266" width="14" height="14"/>
	<rect x="168" y="252" width="14" height="14"/>
	<rect x="168" y="266" width="14" height="14"/>
	<rect x="140" y="224" width="14" height="14"/>
</g>
<g id="ct">
	<text transform="matrix(1 0 0 1 -8.296 -0.8813)" class="st0 st1">CT</text>
	<rect x="630" y="112" width="14" height="14"/>
	<rect x="630" y="126" width="14" height="14"/>
	<rect x="644" y="112" width="14" height="14"/>
	<rect x="644" y="126" width="14" height="14"/>
	<rect x="616" y="112" width="14" height="14"/>
	<rect x="616" y="126" width="14" height="14"/>
	<rect x="616" y="140" width="14" height="14"/>
</g>
<g id="de">
	<text transform="matrix(1 0 0 1 -8.9318 7.177734e-02)" class="st0 st1">DE</text>
	<rect x="616" y="252" width="14" height="14"/>
	<rect x="616" y="266" width="14" height="14"/>
	<rect x="616" y="280" width="14" height="14"/>
</g>
<g id="dc">
	<text transform="matrix(1 0 0 1 -8.9318 7.177734e-02)" class="st0 st1">DC</text>
	<rect x="518" y="266" width="14" height="14"/>
	<rect x="532" y="266" width="14" height="14"/>
	<rect x="532" y="280" width="14" height="14"/>
</g>
<g id="fl">
	<text transform="matrix(1 0 0 1 -8.9318 7.177734e-02)" class="st0 st1">FL</text>
	<rect x="448" y="420" width="14" height="14"/>
	<rect x="462" y="420" width="14" height="14"/>
	<rect x="476" y="420" width="14" height="14"/>
	<rect x="490" y="420" width="14" height="14"/>
	<rect x="504" y="420" width="14" height="14"/>
	<rect x="518" y="420" width="14" height="14"/>
	<rect x="392" y="420" width="14" height="14"/>
	<rect x="420" y="420" width="14" height="14"/>
	<rect x="476" y="434" width="14" height="14"/>
	<rect x="490" y="434" width="14" height="14"/>
	<rect x="504" y="434" width="14" height="14"/>
	<rect x="518" y="434" width="14" height="14"/>
	<rect x="504" y="448" width="14" height="14"/>
	<rect x="518" y="448" width="14" height="14"/>
	<rect x="532" y="448" width="14" height="14"/>
	<rect x="518" y="462" width="14" height="14"/>
	<rect x="532" y="462" width="14" height="14"/>
	<rect x="532" y="476" width="14" height="14"/>
	<rect x="532" y="434" width="14" height="14"/>
	<rect x="434" y="420" width="14" height="14"/>
	<rect x="490" y="448" width="14" height="14"/>
	<rect x="504" y="462" width="14" height="14"/>
	<rect x="518" y="476" width="14" height="14"/>
	<rect x="532" y="490" width="14" height="14"/>
	<rect x="462" y="434" width="14" height="14"/>
	<rect x="406" y="420" width="14" height="14"/>
	<rect x="546" y="490" width="14" height="14"/>
	<rect x="546" y="476" width="14" height="14"/>
	<rect x="546" y="462" width="14" height="14"/>
	<rect x="546" y="448" width="14" height="14"/>
</g>
<g id="georgia">
	<text transform="matrix(1 0 0 1 -8.9318 7.177734e-02)" class="st0 st1">GA</text>
	<rect x="434" y="392" width="14" height="14"/>
	<rect x="434" y="378" width="14" height="14"/>
	<rect x="420" y="378" width="14" height="14"/>
	<rect x="420" y="392" width="14" height="14"/>
	<rect x="406" y="392" width="14" height="14"/>
	<rect x="406" y="378" width="14" height="14"/>
	<rect x="392" y="392" width="14" height="14"/>
	<rect x="392" y="378" width="14" height="14"/>
	<rect x="420" y="364" width="14" height="14"/>
	<rect x="406" y="364" width="14" height="14"/>
	<rect x="392" y="364" width="14" height="14"/>
	<rect x="406" y="350" width="14" height="14"/>
	<rect x="392" y="350" width="14" height="14"/>
	<rect x="420" y="350" width="14" height="14"/>
	<rect x="406" y="336" width="14" height="14"/>
	<rect x="392" y="336" width="14" height="14"/>
</g>
<g id="hi">
	<text transform="matrix(1 0 0 1 -8.9318 7.177734e-02)" class="st0 st1">HI</text>
	<rect x="28" y="490" width="14" height="14"/>
	<rect x="14" y="490" width="14" height="14"/>
	<rect y="476" width="14" height="14"/>
	<rect x="14" y="476" width="14" height="14"/>
</g>
<g id="id">
	<text transform="matrix(1 0 0 1 -8.9318 7.177734e-02)" class="st0 st1">ID</text>
	<rect x="84" y="140" width="14" height="14"/>
	<rect x="84" y="154" width="14" height="14"/>
	<rect x="84" y="168" width="14" height="14"/>
	<rect x="98" y="168" width="14" height="14"/>
</g>
<g id="il">
	<text transform="matrix(1 0 0 1 -8.9318 7.177734e-02)" class="st0 st1">IL</text>
	<rect x="336" y="196" width="14" height="14"/>
	<rect x="322" y="182" width="14" height="14"/>
	<rect x="308" y="182" width="14" height="14"/>
	<rect x="294" y="182" width="14" height="14"/>
	<rect x="322" y="196" width="14" height="14"/>
	<rect x="308" y="196" width="14" height="14"/>
	<rect x="294" y="196" width="14" height="14"/>
	<rect x="322" y="252" width="14" height="14"/>
	<rect x="322" y="210" width="14" height="14"/>
	<rect x="308" y="210" width="14" height="14"/>
	<rect x="294" y="210" width="14" height="14"/>
	<rect x="308" y="252" width="14" height="14"/>
	<rect x="336" y="182" width="14" height="14"/>
	<rect x="322" y="224" width="14" height="14"/>
	<rect x="308" y="224" width="14" height="14"/>
	<rect x="294" y="224" width="14" height="14"/>
	<rect x="322" y="238" width="14" height="14"/>
	<rect x="308" y="238" width="14" height="14"/>
	<rect x="322" y="266" width="14" height="14"/>
	<rect x="322" y="280" width="14" height="14"/>
</g>
<g id="in">
	<text transform="matrix(1 0 0 1 -8.9318 7.177734e-02)" class="st0 st1">IN</text>
	<rect x="378" y="238" width="14" height="14"/>
	<rect x="378" y="224" width="14" height="14"/>
	<rect x="364" y="238" width="14" height="14"/>
	<rect x="364" y="224" width="14" height="14"/>
	<rect x="350" y="252" width="14" height="14"/>
	<rect x="350" y="238" width="14" height="14"/>
	<rect x="364" y="210" width="14" height="14"/>
	<rect x="364" y="196" width="14" height="14"/>
	<rect x="378" y="210" width="14" height="14"/>
	<rect x="378" y="196" width="14" height="14"/>
	<rect x="350" y="224" width="14" height="14"/>
</g>
<g id="ia">
	<text transform="matrix(1 0 0 1 -8.9318 7.177734e-02)" class="st0 st1">IA</text>
	<rect x="266" y="182" width="14" height="14"/>
	<rect x="252" y="182" width="14" height="14"/>
	<rect x="266" y="196" width="14" height="14"/>
	<rect x="252" y="196" width="14" height="14"/>
	<rect x="252" y="210" width="14" height="14"/>
	<rect x="266" y="210" width="14" height="14"/>
</g>
<g id="ks">
	<text transform="matrix(1 0 0 1 -8.9318 7.177734e-02)" class="st0 st1">KS</text>
	<rect x="224" y="252" width="14" height="14"/>
	<rect x="210" y="252" width="14" height="14"/>
	<rect x="224" y="266" width="14" height="14"/>
	<rect x="210" y="266" width="14" height="14"/>
	<rect x="210" y="280" width="14" height="14"/>
	<rect x="224" y="280" width="14" height="14"/>
</g>
<g id="ky">
	<text transform="matrix(1 0 0 1 -8.9318 7.177734e-02)" class="st0 st1">KY</text>
	<rect x="364" y="280" width="14" height="14"/>
	<rect x="378" y="280" width="14" height="14"/>
	<rect x="392" y="280" width="14" height="14"/>
	<rect x="406" y="280" width="14" height="14"/>
	<rect x="392" y="266" width="14" height="14"/>
	<rect x="406" y="266" width="14" height="14"/>
	<rect x="420" y="266" width="14" height="14"/>
	<rect x="420" y="280" width="14" height="14"/>
</g>
<g id="la">
	<text transform="matrix(1 0 0 1 -8.9318 7.177734e-02)" class="st0 st1">LA</text>
	<rect x="280" y="406" width="14" height="14"/>
	<rect x="294" y="406" width="14" height="14"/>
	<rect x="280" y="392" width="14" height="14"/>
	<rect x="266" y="392" width="14" height="14"/>
	<rect x="280" y="378" width="14" height="14"/>
	<rect x="280" y="364" width="14" height="14"/>
	<rect x="266" y="364" width="14" height="14"/>
	<rect x="266" y="378" width="14" height="14"/>
</g>
<g id="me">
	<rect x="686" y="14" width="14" height="14"/>
	<rect x="700" width="14" height="14"/>
	<rect x="686" y="28" width="14" height="14"/>
	<rect x="700" y="14" width="14" height="14"/>
	<text transform="matrix(1 0 0 1 -10 -3.051758e-04)" class="st0 st1">ME</text>
</g>
<g id="md">
	<text transform="matrix(1 0 0 1 -8.9318 7.177734e-02)" class="st0 st1">MD</text>
	<rect x="560" y="266" width="14" height="14"/>
	<rect x="560" y="252" width="14" height="14"/>
	<rect x="546" y="238" width="14" height="14"/>
	<rect x="588" y="252" width="14" height="14"/>
	<rect x="574" y="252" width="14" height="14"/>
	<rect x="532" y="238" width="14" height="14"/>
	<rect x="588" y="266" width="14" height="14"/>
	<rect x="574" y="266" width="14" height="14"/>
	<rect x="560" y="238" width="14" height="14"/>
	<rect x="574" y="238" width="14" height="14"/>
</g>
<g id="ma">
	<text transform="matrix(1 0 0 1 -8.9318 7.177734e-02)" class="st0 st1">MA</text>
	<rect x="616" y="70" width="14" height="14"/>
	<rect x="630" y="70" width="14" height="14"/>
	<rect x="644" y="70" width="14" height="14"/>
	<rect x="658" y="70" width="14" height="14"/>
	<rect x="616" y="84" width="14" height="14"/>
	<rect x="630" y="84" width="14" height="14"/>
	<rect x="644" y="84" width="14" height="14"/>
	<rect x="658" y="84" width="14" height="14"/>
	<rect x="686" y="70" width="14" height="14"/>
	<rect x="672" y="84" width="14" height="14"/>
	<rect x="686" y="84" width="14" height="14"/>
</g>
<g id="mi">
	<text transform="matrix(1 0 0 1 -8.9318 7.177734e-02)" class="st0 st1">MI</text>
	<rect x="406" y="168" width="14" height="14"/>
	<rect x="420" y="168" width="14" height="14"/>
	<rect x="392" y="168" width="14" height="14"/>
	<rect x="406" y="154" width="14" height="14"/>
	<rect x="420" y="154" width="14" height="14"/>
	<rect x="392" y="154" width="14" height="14"/>
	<rect x="420" y="140" width="14" height="14"/>
	<rect x="434" y="140" width="14" height="14"/>
	<rect x="406" y="140" width="14" height="14"/>
	<rect x="392" y="140" width="14" height="14"/>
	<rect x="420" y="126" width="14" height="14"/>
	<rect x="406" y="126" width="14" height="14"/>
	<rect x="434" y="154" width="14" height="14"/>
	<rect x="434" y="168" width="14" height="14"/>
	<rect x="392" y="126" width="14" height="14"/>
	<rect x="392" y="112" width="14" height="14"/>
</g>
<g id="mn">
	<text transform="matrix(1 0 0 1 -8.9318 7.177734e-02)" class="st0 st1">MN</text>
	<rect x="266" y="154" width="14" height="14"/>
	<rect x="252" y="140" width="14" height="14"/>
	<rect x="252" y="154" width="14" height="14"/>
	<rect x="252" y="126" width="14" height="14"/>
	<rect x="266" y="126" width="14" height="14"/>
	<rect x="266" y="140" width="14" height="14"/>
	<rect x="252" y="112" width="14" height="14"/>
	<rect x="266" y="112" width="14" height="14"/>
	<rect x="280" y="154" width="14" height="14"/>
	<rect x="280" y="140" width="14" height="14"/>
</g>
<g id="ms">
	<text transform="matrix(1 0 0 1 -8.9318 7.177734e-02)" class="st0 st1">MS</text>
	<rect x="322" y="378" width="14" height="14"/>
	<rect x="308" y="378" width="14" height="14"/>
	<rect x="322" y="392" width="14" height="14"/>
	<rect x="322" y="364" width="14" height="14"/>
	<rect x="308" y="364" width="14" height="14"/>
	<rect x="322" y="406" width="14" height="14"/>
</g>
<g id="mo">
	<text transform="matrix(1 0 0 1 -8.9318 7.177734e-02)" class="st0 st1">MO</text>
	<rect x="280" y="252" width="14" height="14"/>
	<rect x="280" y="266" width="14" height="14"/>
	<rect x="294" y="280" width="14" height="14"/>
	<rect x="280" y="280" width="14" height="14"/>
	<rect x="266" y="266" width="14" height="14"/>
	<rect x="252" y="266" width="14" height="14"/>
	<rect x="266" y="280" width="14" height="14"/>
	<rect x="252" y="280" width="14" height="14"/>
	<rect x="266" y="252" width="14" height="14"/>
	<rect x="252" y="252" width="14" height="14"/>
</g>
<g id="mt">
	<text transform="matrix(1 0 0 1 -8.9318 7.177734e-02)" class="st0 st1">MT</text>
	<rect x="140" y="112" width="14" height="14"/>
	<rect x="154" y="112" width="14" height="14"/>
	<rect x="168" y="112" width="14" height="14"/>
	<rect x="140" y="126" width="14" height="14"/>
</g>
<g id="ne">
	<g>
		<rect x="196" y="210" width="14" height="14"/>
	</g>
	<g>
		<rect x="210" y="210" width="14" height="14"/>
	</g>
	<g>
		<rect x="224" y="210" width="14" height="14"/>
	</g>
	<g>
		<rect x="210" y="224" width="14" height="14"/>
	</g>
	<g>
		<rect x="224" y="224" width="14" height="14"/>
	</g>
	<text transform="matrix(1 0 0 1 -8.9318 7.177734e-02)" class="st0 st1">NE</text>
</g>
<g id="nv">
	<text transform="matrix(1 0 0 1 -8.9318 7.177734e-02)" class="st0 st1">NV</text>
	<rect x="70" y="238" width="14" height="14"/>
	<rect x="56" y="266" width="14" height="14"/>
	<rect x="56" y="252" width="14" height="14"/>
	<rect x="70" y="252" width="14" height="14"/>
	<rect x="70" y="266" width="14" height="14"/>
	<rect x="56" y="238" width="14" height="14"/>
</g>
<g id="nh">
	<text transform="matrix(1 0 0 1 -8.9318 7.177734e-02)" class="st0 st1">NH</text>
	<rect x="644" y="42" width="14" height="14"/>
	<rect x="658" y="42" width="14" height="14"/>
	<rect x="658" y="28" width="14" height="14"/>
	<rect x="658" y="14" width="14" height="14"/>
</g>
<g id="nj">
	<text transform="matrix(1 0 0 1 -8.8793 -0.3942)" class="st0 st1">NJ</text>
	<rect x="588" y="168" width="14" height="14"/>
	<rect x="602" y="168" width="14" height="14"/>
	<rect x="588" y="182" width="14" height="14"/>
	<rect x="602" y="182" width="14" height="14"/>
	<rect x="588" y="196" width="14" height="14"/>
	<rect x="602" y="196" width="14" height="14"/>
	<rect x="616" y="182" width="14" height="14"/>
	<rect x="616" y="196" width="14" height="14"/>
	<rect x="616" y="210" width="14" height="14"/>
	<rect x="602" y="210" width="14" height="14"/>
	<rect x="602" y="224" width="14" height="14"/>
	<rect x="616" y="224" width="14" height="14"/>
	<rect x="588" y="210" width="14" height="14"/>
	<rect x="616" y="168" width="14" height="14"/>
</g>
<g id="nm">
	<text transform="matrix(1 0 0 1 -8.9318 7.177734e-02)" class="st0 st1">NM</text>
	<rect x="140" y="322" width="14" height="14"/>
	<rect x="140" y="308" width="14" height="14"/>
	<rect x="154" y="308" width="14" height="14"/>
	<rect x="140" y="294" width="14" height="14"/>
	<rect x="154" y="294" width="14" height="14"/>
</g>
<g id="ny">
	<text transform="matrix(1 0 0 1 -8.9318 7.177734e-02)" class="st0 st1">NY</text>
	<rect x="546" y="98" width="14" height="14"/>
	<rect x="574" y="84" width="14" height="14"/>
	<rect x="574" y="112" width="14" height="14"/>
	<rect x="574" y="126" width="14" height="14"/>
	<rect x="574" y="140" width="14" height="14"/>
	<rect x="532" y="126" width="14" height="14"/>
	<rect x="560" y="126" width="14" height="14"/>
	<rect x="574" y="98" width="14" height="14"/>
	<rect x="546" y="126" width="14" height="14"/>
	<rect x="560" y="140" width="14" height="14"/>
	<rect x="560" y="98" width="14" height="14"/>
	<rect x="560" y="112" width="14" height="14"/>
	<rect x="532" y="112" width="14" height="14"/>
	<rect x="546" y="140" width="14" height="14"/>
	<rect x="546" y="112" width="14" height="14"/>
	<rect x="518" y="126" width="14" height="14"/>
	<rect x="532" y="140" width="14" height="14"/>
	<rect x="504" y="112" width="14" height="14"/>
	<rect x="504" y="126" width="14" height="14"/>
	<rect x="518" y="140" width="14" height="14"/>
	<rect x="588" y="112" width="14" height="14"/>
	<rect x="504" y="140" width="14" height="14"/>
	<rect x="588" y="126" width="14" height="14"/>
	<rect x="588" y="140" width="14" height="14"/>
	<rect x="588" y="84" width="14" height="14"/>
	<rect x="518" y="112" width="14" height="14"/>
	<rect x="588" y="98" width="14" height="14"/>
	<rect x="574" y="70" width="14" height="14"/>
	<rect x="588" y="70" width="14" height="14"/>
</g>
<g id="nc">
	<text transform="matrix(1 0 0 1 -8.9318 7.177734e-02)" class="st0 st1">NC</text>
	<rect x="532" y="336" width="14" height="14"/>
	<rect x="518" y="336" width="14" height="14"/>
	<rect x="504" y="336" width="14" height="14"/>
	<rect x="490" y="336" width="14" height="14"/>
	<rect x="476" y="336" width="14" height="14"/>
	<rect x="462" y="336" width="14" height="14"/>
	<rect x="532" y="350" width="14" height="14"/>
	<rect x="518" y="350" width="14" height="14"/>
	<rect x="504" y="350" width="14" height="14"/>
	<rect x="490" y="350" width="14" height="14"/>
	<rect x="476" y="350" width="14" height="14"/>
	<rect x="462" y="350" width="14" height="14"/>
	<rect x="448" y="350" width="14" height="14"/>
	<rect x="448" y="336" width="14" height="14"/>
	<rect x="546" y="336" width="14" height="14"/>
	<rect x="546" y="350" width="14" height="14"/>
</g>
<g id="nd">
	<text transform="matrix(1 0 0 1 -8.9318 7.177734e-02)" class="st0 st1">ND</text>
	<rect x="224" y="112" width="14" height="14"/>
	<rect x="210" y="112" width="14" height="14"/>
	<rect x="196" y="112" width="14" height="14"/>
</g>
<g id="oh">
	<text transform="matrix(1 0 0 1 -8.9318 7.177734e-02)" class="st0 st1">OH</text>
	<rect x="406" y="238" width="14" height="14"/>
	<rect x="420" y="238" width="14" height="14"/>
	<rect x="434" y="238" width="14" height="14"/>
	<rect x="448" y="238" width="14" height="14"/>
	<rect x="406" y="224" width="14" height="14"/>
	<rect x="420" y="224" width="14" height="14"/>
	<rect x="434" y="224" width="14" height="14"/>
	<rect x="448" y="224" width="14" height="14"/>
	<rect x="406" y="210" width="14" height="14"/>
	<rect x="420" y="210" width="14" height="14"/>
	<rect x="434" y="210" width="14" height="14"/>
	<rect x="448" y="210" width="14" height="14"/>
	<rect x="406" y="196" width="14" height="14"/>
	<rect x="420" y="196" width="14" height="14"/>
	<rect x="434" y="196" width="14" height="14"/>
	<rect x="448" y="196" width="14" height="14"/>
	<rect x="462" y="210" width="14" height="14"/>
	<rect x="462" y="196" width="14" height="14"/>
</g>
<g id="ok">
	<text transform="matrix(1 0 0 1 -8.9318 7.177734e-02)" class="st0 st1">OK</text>
	<rect x="224" y="336" width="14" height="14"/>
	<rect x="238" y="336" width="14" height="14"/>
	<rect x="238" y="308" width="14" height="14"/>
	<rect x="224" y="308" width="14" height="14"/>
	<rect x="224" y="322" width="14" height="14"/>
	<rect x="238" y="322" width="14" height="14"/>
	<rect x="210" y="308" width="14" height="14"/>
</g>
<g id="or">
	<text transform="matrix(1 0 0 1 -8.9318 7.177734e-02)" class="st0 st1">OR</text>
	<rect x="14" y="154" width="14" height="14"/>
	<rect y="154" width="14" height="14"/>
	<rect x="28" y="168" width="14" height="14"/>
	<rect x="14" y="168" width="14" height="14"/>
	<rect y="168" width="14" height="14"/>
	<rect x="28" y="154" width="14" height="14"/>
	<rect x="42" y="154" width="14" height="14"/>
	<rect x="42" y="168" width="14" height="14"/>
</g>
<g id="pa">
	<text transform="matrix(1 0 0 1 -8.9318 7.177734e-02)" class="st0 st1">PA</text>
	<rect x="560" y="168" width="14" height="14"/>
	<rect x="560" y="182" width="14" height="14"/>
	<rect x="560" y="196" width="14" height="14"/>
	<rect x="546" y="168" width="14" height="14"/>
	<rect x="546" y="182" width="14" height="14"/>
	<rect x="546" y="196" width="14" height="14"/>
	<rect x="532" y="168" width="14" height="14"/>
	<rect x="532" y="182" width="14" height="14"/>
	<rect x="532" y="196" width="14" height="14"/>
	<rect x="518" y="168" width="14" height="14"/>
	<rect x="518" y="182" width="14" height="14"/>
	<rect x="518" y="196" width="14" height="14"/>
	<rect x="504" y="168" width="14" height="14"/>
	<rect x="504" y="182" width="14" height="14"/>
	<rect x="504" y="196" width="14" height="14"/>
	<rect x="490" y="168" width="14" height="14"/>
	<rect x="490" y="182" width="14" height="14"/>
	<rect x="490" y="196" width="14" height="14"/>
	<rect x="546" y="210" width="14" height="14"/>
	<rect x="560" y="210" width="14" height="14"/>
</g>
<g id="ri">
	<text transform="matrix(1 0 0 1 -9.4854 -0.3942)" class="st0 st1">RI</text>
	<rect x="672" y="112" width="14" height="14"/>
	<rect x="672" y="126" width="14" height="14"/>
	<rect x="686" y="112" width="14" height="14"/>
	<rect x="686" y="126" width="14" height="14"/>
</g>
<g id="sc">
	<text transform="matrix(1 0 0 1 -8.9318 7.177734e-02)" class="st0 st1">SC</text>
	<rect x="518" y="378" width="14" height="14"/>
	<rect x="518" y="392" width="14" height="14"/>
	<rect x="504" y="392" width="14" height="14"/>
	<rect x="490" y="392" width="14" height="14"/>
	<rect x="490" y="378" width="14" height="14"/>
	<rect x="476" y="378" width="14" height="14"/>
	<rect x="476" y="392" width="14" height="14"/>
	<rect x="504" y="378" width="14" height="14"/>
	<rect x="462" y="378" width="14" height="14"/>
</g>
<g id="sd">
	<text transform="matrix(1 0 0 1 -8.9318 7.177734e-02)" class="st0 st1">SD</text>
	<rect x="196" y="182" width="14" height="14"/>
	<rect x="210" y="182" width="14" height="14"/>
	<rect x="224" y="182" width="14" height="14"/>
</g>
<g id="tn">
	<text transform="matrix(1 0 0 1 -8.9318 7.177734e-02)" class="st0 st1">TN</text>
	<rect x="336" y="308" width="14" height="14"/>
	<rect x="322" y="308" width="14" height="14"/>
	<rect x="392" y="308" width="14" height="14"/>
	<rect x="322" y="322" width="14" height="14"/>
	<rect x="350" y="308" width="14" height="14"/>
	<rect x="364" y="308" width="14" height="14"/>
	<rect x="336" y="322" width="14" height="14"/>
	<rect x="350" y="322" width="14" height="14"/>
	<rect x="364" y="322" width="14" height="14"/>
	<rect x="378" y="308" width="14" height="14"/>
	<rect x="406" y="308" width="14" height="14"/>
</g>
<g id="tx">
	<text transform="matrix(1 0 0 1 -8.9318 7.177734e-02)" class="st0 st1">TX</text>
	<rect x="224" y="392" width="14" height="14"/>
	<rect x="224" y="406" width="14" height="14"/>
	<rect x="224" y="378" width="14" height="14"/>
	<rect x="196" y="364" width="14" height="14"/>
	<rect x="196" y="350" width="14" height="14"/>
	<rect x="182" y="350" width="14" height="14"/>
	<rect x="196" y="406" width="14" height="14"/>
	<rect x="182" y="406" width="14" height="14"/>
	<rect x="210" y="406" width="14" height="14"/>
	<rect x="196" y="392" width="14" height="14"/>
	<rect x="182" y="392" width="14" height="14"/>
	<rect x="210" y="392" width="14" height="14"/>
	<rect x="196" y="378" width="14" height="14"/>
	<rect x="182" y="378" width="14" height="14"/>
	<rect x="210" y="378" width="14" height="14"/>
	<rect x="182" y="364" width="14" height="14"/>
	<rect x="182" y="336" width="14" height="14"/>
	<rect x="140" y="378" width="14" height="14"/>
	<rect x="126" y="378" width="14" height="14"/>
	<rect x="168" y="378" width="14" height="14"/>
	<rect x="210" y="420" width="14" height="14"/>
	<rect x="168" y="448" width="14" height="14"/>
	<rect x="154" y="406" width="14" height="14"/>
	<rect x="182" y="434" width="14" height="14"/>
	<rect x="154" y="420" width="14" height="14"/>
	<rect x="154" y="392" width="14" height="14"/>
	<rect x="168" y="434" width="14" height="14"/>
	<rect x="196" y="336" width="14" height="14"/>
	<rect x="168" y="392" width="14" height="14"/>
	<rect x="168" y="420" width="14" height="14"/>
	<rect x="154" y="378" width="14" height="14"/>
	<rect x="140" y="392" width="14" height="14"/>
	<rect x="168" y="406" width="14" height="14"/>
	<rect x="182" y="420" width="14" height="14"/>
	<rect x="196" y="420" width="14" height="14"/>
	<rect x="238" y="406" width="14" height="14"/>
	<rect x="196" y="434" width="14" height="14"/>
	<rect x="224" y="420" width="14" height="14"/>
	<rect x="238" y="392" width="14" height="14"/>
	<rect x="238" y="378" width="14" height="14"/>
</g>
<g id="ut">
	<text transform="matrix(1 0 0 1 -8.9318 7.177734e-02)" class="st0 st1">UT</text>
	<rect x="98" y="238" width="14" height="14"/>
	<rect x="112" y="238" width="14" height="14"/>
	<rect x="98" y="252" width="14" height="14"/>
	<rect x="112" y="252" width="14" height="14"/>
	<rect x="98" y="266" width="14" height="14"/>
	<rect x="112" y="266" width="14" height="14"/>
</g>
<g id="vt">
	<text transform="matrix(1 0 0 1 -8.9318 7.177734e-02)" class="st0 st1">VT</text>
	<rect x="616" y="14" width="14" height="14"/>
	<rect x="616" y="42" width="14" height="14"/>
	<rect x="616" y="28" width="14" height="14"/>
</g>
<g id="va">
	<text transform="matrix(1 0 0 1 -8.9318 7.177734e-02)" class="st0 st1">VA</text>
	<rect x="476" y="308" width="14" height="14"/>
	<rect x="490" y="280" width="14" height="14"/>
	<rect x="462" y="308" width="14" height="14"/>
	<rect x="476" y="294" width="14" height="14"/>
	<rect x="448" y="308" width="14" height="14"/>
	<rect x="434" y="308" width="14" height="14"/>
	<rect x="476" y="280" width="14" height="14"/>
	<rect x="490" y="308" width="14" height="14"/>
	<rect x="462" y="294" width="14" height="14"/>
	<rect x="490" y="294" width="14" height="14"/>
	<rect x="504" y="308" width="14" height="14"/>
	<rect x="504" y="294" width="14" height="14"/>
	<rect x="518" y="308" width="14" height="14"/>
</g>
<g id="wa">
	<text transform="matrix(1 0 0 1 -8.9318 7.177734e-02)" class="st0 st1">WA</text>
	<rect x="28" y="112" width="14" height="14"/>
	<rect x="14" y="112" width="14" height="14"/>
	<rect y="112" width="14" height="14"/>
	<rect x="14" y="98" width="14" height="14"/>
	<rect x="42" y="98" width="14" height="14"/>
	<rect x="42" y="112" width="14" height="14"/>
	<rect x="28" y="126" width="14" height="14"/>
	<rect x="14" y="126" width="14" height="14"/>
	<rect y="126" width="14" height="14"/>
	<rect y="98" width="14" height="14"/>
	<rect x="28" y="98" width="14" height="14"/>
	<rect x="42" y="126" width="14" height="14"/>
</g>
<g id="wv">
	<text transform="matrix(1 0 0 1 -8.9318 7.177734e-02)" class="st0 st1">WV</text>
	<rect x="490" y="252" width="14" height="14"/>
	<rect x="490" y="238" width="14" height="14"/>
	<rect x="504" y="238" width="14" height="14"/>
	<rect x="504" y="224" width="14" height="14"/>
	<rect x="476" y="252" width="14" height="14"/>
</g>
<g id="wi">
	<text transform="matrix(1 0 0 1 -8.9318 7.177734e-02)" class="st0 st1">WI</text>
	<rect x="322" y="154" width="14" height="14"/>
	<rect x="336" y="154" width="14" height="14"/>
	<rect x="308" y="154" width="14" height="14"/>
	<rect x="322" y="140" width="14" height="14"/>
	<rect x="336" y="140" width="14" height="14"/>
	<rect x="308" y="140" width="14" height="14"/>
	<rect x="322" y="126" width="14" height="14"/>
	<rect x="336" y="126" width="14" height="14"/>
	<rect x="308" y="126" width="14" height="14"/>
	<rect x="308" y="112" width="14" height="14"/>
</g>
<g id="wy">
	<text transform="matrix(1 0 0 1 -8.9318 7.177734e-02)" class="st0 st1">WY</text>
	<rect x="140" y="182" width="14" height="14"/>
	<rect x="154" y="182" width="14" height="14"/>
	<rect x="168" y="182" width="14" height="14"/>
</g>
</svg>
